<svg width="12" height="12" viewBox="0 0 12 12" fill="none" xmlns="http://www.w3.org/2000/svg">
<path d="M8.25 7.19992C8.25 6.06743 7.54461 5.67906 6.13382 5.51673C5.12612 5.38701 4.92458 5.12836 4.92458 4.67552C4.92458 4.22268 5.26075 3.93141 5.93228 3.93141C6.5369 3.93141 6.87307 4.12559 7.04076 4.61105C7.07461 4.70814 7.17539 4.77261 7.27616 4.77261H7.81387C7.94849 4.77261 8.04926 4.67552 8.04926 4.54581V4.51318C7.91464 3.80091 7.31001 3.25098 6.53771 3.18651V2.40978C6.53771 2.28006 6.43694 2.18297 6.26926 2.15112H5.76541C5.63078 2.15112 5.53001 2.24822 5.49695 2.40978V3.15389C4.48925 3.28361 3.85077 3.93063 3.85077 4.73999C3.85077 5.808 4.5223 6.229 5.93309 6.39056C6.87388 6.55212 7.17619 6.7463 7.17619 7.26439C7.17619 7.78247 6.7062 8.13822 6.06772 8.13822C5.19464 8.13822 4.89233 7.78247 4.79156 7.29701C4.7577 7.16729 4.65693 7.10283 4.55616 7.10283H3.9854C3.85077 7.10283 3.75 7.19992 3.75 7.32963V7.36226C3.88463 8.17162 4.42153 8.75417 5.53001 8.91573V9.69247C5.53001 9.82218 5.63078 9.91928 5.79846 9.95112H6.30231C6.43694 9.95112 6.53771 9.85403 6.57076 9.69247V8.91573C7.57766 8.75339 8.25 8.07375 8.25 7.19992Z" fill="#101212"/>
<path d="M4.30495 10.6127C1.7119 9.68987 0.381869 6.82326 1.34648 4.28641C1.84514 2.90253 2.9422 1.84841 4.30495 1.35417C4.43819 1.28853 4.50441 1.18969 4.50441 1.02441V0.563381C4.50441 0.43132 4.43819 0.332471 4.30495 0.300049C4.27144 0.300049 4.20521 0.300049 4.1717 0.333262C1.01377 1.32175 -0.715188 4.64938 0.282137 7.78011C0.880532 9.62502 2.3103 11.0421 4.1717 11.6352C4.30495 11.7008 4.43739 11.6352 4.4709 11.5031C4.50441 11.4699 4.50441 11.4375 4.50441 11.3711V10.9101C4.50441 10.8104 4.40468 10.6791 4.30495 10.6127ZM7.8283 0.332471C7.69505 0.266836 7.56261 0.332471 7.5291 0.464533C7.49559 0.497746 7.49559 0.530168 7.49559 0.596594V1.05762C7.49559 1.18969 7.59532 1.32096 7.69505 1.38738C10.2881 2.31023 11.6181 5.17684 10.6535 7.71369C10.1549 9.09757 9.0578 10.1517 7.69505 10.6459C7.56181 10.7116 7.49559 10.8104 7.49559 10.9757V11.4367C7.49559 11.5688 7.56181 11.6676 7.69505 11.7C7.72856 11.7 7.79479 11.7 7.8283 11.6668C10.9862 10.6783 12.7152 7.35071 11.7179 4.21998C11.1195 2.34265 9.65699 0.925562 7.8283 0.332471Z" fill="#101212"/>
</svg>
