<svg width="12" height="12" viewBox="0 0 12 12" fill="none" xmlns="http://www.w3.org/2000/svg">
<g clip-path="url(#clip0_810_509)">
<path d="M4.75 5.28569L7.25 3.85712" stroke="#101212" stroke-width="2" stroke-linecap="round" stroke-linejoin="round"/>
<path d="M4.75 6.71429L7.25 8.14287" stroke="#101212" stroke-width="2" stroke-linecap="round" stroke-linejoin="round"/>
<path d="M9.03571 4.57143C10.0219 4.57143 10.8214 3.77194 10.8214 2.78571C10.8214 1.79949 10.0219 1 9.03571 1C8.04949 1 7.25 1.79949 7.25 2.78571C7.25 3.77194 8.04949 4.57143 9.03571 4.57143Z" stroke="#101212" stroke-width="2" stroke-linecap="round" stroke-linejoin="round"/>
<path d="M9.03571 11C10.0219 11 10.8214 10.2005 10.8214 9.2143C10.8214 8.22808 10.0219 7.42859 9.03571 7.42859C8.04949 7.42859 7.25 8.22808 7.25 9.2143C7.25 10.2005 8.04949 11 9.03571 11Z" stroke="#101212" stroke-width="2" stroke-linecap="round" stroke-linejoin="round"/>
<path d="M2.96443 7.78572C3.95065 7.78572 4.75014 6.98623 4.75014 6.00001C4.75014 5.01379 3.95065 4.21429 2.96443 4.21429C1.9782 4.21429 1.17871 5.01379 1.17871 6.00001C1.17871 6.98623 1.9782 7.78572 2.96443 7.78572Z" stroke="#101212" stroke-width="2" stroke-linecap="round" stroke-linejoin="round"/>
</g>
<defs>
<clipPath id="clip0_810_509">
<rect width="12" height="12" fill="white"/>
</clipPath>
</defs>
</svg>
