<svg width="12" height="12" viewBox="0 0 12 12" fill="none" xmlns="http://www.w3.org/2000/svg">
<g clip-path="url(#clip0_810_513)">
<path fill-rule="evenodd" clip-rule="evenodd" d="M7.96381 3.3779C8.16932 3.73754 8.04437 4.19568 7.68473 4.40119L5.05973 5.90119C4.70009 6.1067 4.24195 5.98175 4.03645 5.62211C3.83094 5.26247 3.95589 4.80433 4.31552 4.59882L6.94052 3.09882C7.30016 2.89332 7.7583 3.01826 7.96381 3.3779Z" fill="#101212"/>
<path fill-rule="evenodd" clip-rule="evenodd" d="M4.03645 6.3779C4.24195 6.01826 4.70009 5.89332 5.05973 6.09882L7.68473 7.59882C8.04437 7.80433 8.16932 8.26247 7.96381 8.62211C7.7583 8.98175 7.30016 9.1067 6.94052 8.90119L4.31552 7.40119C3.95589 7.19568 3.83094 6.73754 4.03645 6.3779Z" fill="#101212"/>
<path fill-rule="evenodd" clip-rule="evenodd" d="M6.5625 2.625C6.5625 1.17525 7.73775 0 9.1875 0C10.6372 0 11.8125 1.17525 11.8125 2.625C11.8125 4.07475 10.6372 5.25 9.1875 5.25C7.73775 5.25 6.5625 4.07475 6.5625 2.625Z" fill="#101212"/>
<path fill-rule="evenodd" clip-rule="evenodd" d="M6.5625 9.375C6.5625 7.92525 7.73775 6.75 9.1875 6.75C10.6372 6.75 11.8125 7.92525 11.8125 9.375C11.8125 10.8247 10.6372 12 9.1875 12C7.73775 12 6.5625 10.8247 6.5625 9.375Z" fill="#101212"/>
<path fill-rule="evenodd" clip-rule="evenodd" d="M0.1875 6C0.1875 4.55025 1.36275 3.375 2.8125 3.375C4.26225 3.375 5.4375 4.55025 5.4375 6C5.4375 7.44975 4.26225 8.625 2.8125 8.625C1.36275 8.625 0.1875 7.44975 0.1875 6Z" fill="#101212"/>
</g>
<defs>
<clipPath id="clip0_810_513">
<rect width="12" height="12" fill="white"/>
</clipPath>
</defs>
</svg>
