<svg width="20" height="20" viewBox="0 0 20 20" fill="none" xmlns="http://www.w3.org/2000/svg">
<g clip-path="url(#clip0_810_493)">
<path d="M7.21777 8.52727L12.7814 5.74545" stroke="#101212" stroke-width="2" stroke-linecap="round" stroke-linejoin="round"/>
<path d="M7.21777 11.3909L12.7814 14.1727" stroke="#101212" stroke-width="2" stroke-linecap="round" stroke-linejoin="round"/>
<path d="M4.27273 13.2727C6.0802 13.2727 7.54545 11.8075 7.54545 9.99999C7.54545 8.19251 6.0802 6.72726 4.27273 6.72726C2.46525 6.72726 1 8.19251 1 9.99999C1 11.8075 2.46525 13.2727 4.27273 13.2727Z" stroke="#101212" stroke-width="2" stroke-linecap="round" stroke-linejoin="round"/>
<path d="M15.7268 7.54545C17.5343 7.54545 18.9996 6.0802 18.9996 4.27273C18.9996 2.46525 17.5343 1 15.7268 1C13.9194 1 12.4541 2.46525 12.4541 4.27273C12.4541 6.0802 13.9194 7.54545 15.7268 7.54545Z" stroke="#101212" stroke-width="2" stroke-linecap="round" stroke-linejoin="round"/>
<path d="M15.7268 19C17.5343 19 18.9996 17.5348 18.9996 15.7273C18.9996 13.9198 17.5343 12.4546 15.7268 12.4546C13.9194 12.4546 12.4541 13.9198 12.4541 15.7273C12.4541 17.5348 13.9194 19 15.7268 19Z" stroke="#101212" stroke-width="2" stroke-linecap="round" stroke-linejoin="round"/>
</g>
<defs>
<clipPath id="clip0_810_493">
<rect width="20" height="20" fill="white"/>
</clipPath>
</defs>
</svg>
