<svg width="20" height="20" viewBox="0 0 20 20" fill="none" xmlns="http://www.w3.org/2000/svg">
<g clip-path="url(#clip0_810_497)">
<path d="M15.8333 11.6667C14.5 11.6667 13.3333 12.25 12.5833 13.25L8.16667 11.0833C8.25 10.6667 8.33333 10.3333 8.33333 10C8.33333 9.66667 8.25 9.25 8.16667 8.91667L12.5833 6.75C13.3333 7.66667 14.5 8.33333 15.8333 8.33333C18.1667 8.33333 20 6.5 20 4.16667C20 1.83333 18.1667 0 15.8333 0C13.5 0 11.6667 1.83333 11.6667 4.16667C11.6667 4.5 11.75 4.91667 11.8333 5.25L7.41667 7.41667C6.66667 6.5 5.5 5.83333 4.16667 5.83333C1.83333 5.83333 0 7.66667 0 10C0 12.3333 1.83333 14.1667 4.16667 14.1667C5.5 14.1667 6.66667 13.5 7.41667 12.5L11.8333 14.6667C11.75 15.0833 11.6667 15.4167 11.6667 15.8333C11.6667 18.1667 13.5 20 15.8333 20C18.1667 20 20 18.1667 20 15.8333C20 13.5 18.1667 11.6667 15.8333 11.6667Z" fill="#101212"/>
</g>
<defs>
<clipPath id="clip0_810_497">
<rect width="20" height="20" fill="white"/>
</clipPath>
</defs>
</svg>
