<svg width="16" height="16" viewBox="0 0 16 16" fill="none" xmlns="http://www.w3.org/2000/svg">
<path d="M10.5 11.75C11.3284 11.75 12 11.0784 12 10.25C12 9.42157 11.3284 8.75 10.5 8.75C9.67157 8.75 9 9.42157 9 10.25C9 11.0784 9.67157 11.75 10.5 11.75Z" stroke="#101212" stroke-width="2" stroke-linecap="round" stroke-linejoin="round"/>
<path d="M1 11V13.1333C1 13.6284 1.19667 14.1032 1.54673 14.4533C1.8968 14.8033 2.3716 15 2.86667 15H15V4H12" stroke="#101212" stroke-width="2" stroke-linecap="round" stroke-linejoin="round"/>
<path d="M4.5 8C6.433 8 8 6.433 8 4.5C8 2.567 6.433 1 4.5 1C2.567 1 1 2.567 1 4.5C1 6.433 2.567 8 4.5 8Z" stroke="#101212" stroke-width="2" stroke-linecap="round" stroke-linejoin="round"/>
<path d="M4.625 4.375L4.375 4.625" stroke="#101212" stroke-width="2" stroke-linecap="round" stroke-linejoin="round"/>
</svg>
