<svg width="12" height="12" viewBox="0 0 12 12" fill="none" xmlns="http://www.w3.org/2000/svg">
<path fill-rule="evenodd" clip-rule="evenodd" d="M0 4.5C0 3.94772 0.447715 3.5 1 3.5H7.5C8.05228 3.5 8.5 3.94772 8.5 4.5V11C8.5 11.5523 8.05228 12 7.5 12H1C0.447715 12 0 11.5523 0 11V4.5ZM2 5.5V10H6.5V5.5H2Z" fill="#101212"/>
<path fill-rule="evenodd" clip-rule="evenodd" d="M3.5 1C3.5 0.447715 3.94772 0 4.5 0H11C11.5523 0 12 0.447715 12 1V7.5C12 8.05228 11.5523 8.5 11 8.5H4.5C3.94772 8.5 3.5 8.05228 3.5 7.5V1ZM5.5 2V6.5H10V2H5.5Z" fill="#101212"/>
<rect x="5.5" y="5.5" width="1" height="1" fill="#101212"/>
</svg>
