<svg width="16" height="16" viewBox="0 0 16 16" fill="none" xmlns="http://www.w3.org/2000/svg">
<path d="M1.25 7.21217C3.14207 4.66013 6.36482 8.07786 10 4.75C11.7805 7.60228 14.25 7.25 14.25 7.25" stroke="#101212" stroke-width="2" stroke-linecap="round" stroke-linejoin="round"/>
<path d="M5 10.6C5.55228 10.6 6 10.1523 6 9.60001C6 9.04772 5.55228 8.60001 5 8.60001C4.44772 8.60001 4 9.04772 4 9.60001C4 10.1523 4.44772 10.6 5 10.6Z" fill="#101212"/>
<path d="M11 10.6C11.5523 10.6 12 10.1523 12 9.60001C12 9.04772 11.5523 8.60001 11 8.60001C10.4477 8.60001 10 9.04772 10 9.60001C10 10.1523 10.4477 10.6 11 10.6Z" fill="#101212"/>
<path d="M8 15C11.866 15 15 11.866 15 8C15 4.13401 11.866 1 8 1C4.13401 1 1 4.13401 1 8C1 11.866 4.13401 15 8 15Z" stroke="#101212" stroke-width="2" stroke-linecap="round" stroke-linejoin="round"/>
</svg>
