<svg width="24" height="24" viewBox="0 0 24 24" fill="none" xmlns="http://www.w3.org/2000/svg"><path d="M24 11.5425C24 10.725 23.67 9.9525 23.115 9.4425C22.11 8.5275 20.64 8.7 19.8225 9.8325C18.015 8.355 15.4725 7.38 12.6225 7.2525L14.0625 2.2425L17.8425 3.255C17.8425 4.635 18.825 5.7525 20.04 5.7525C21.255 5.7525 22.23 4.6275 22.2375 3.2475C22.2375 1.875 21.255 0.75 20.04 0.75C19.1625 0.75 18.3675 1.35 18.0225 2.2725L13.4775 1.05L11.7 7.2375C8.715 7.29 6.03 8.2575 4.1325 9.78C3.6825 9.1875 3.0375 8.85 2.3475 8.85C1.0575 8.85 0 10.0575 0 11.5425C0 12.6075 0.5475 13.5675 1.4025 14.0025C1.32 14.4075 1.275 14.82 1.275 15.2475C1.2675 19.665 6.0525 23.25 11.9475 23.25C17.8425 23.25 22.6275 19.665 22.6275 15.24C22.6275 14.835 22.59 14.43 22.5075 14.04C23.4075 13.6425 24 12.645 24 11.5425ZM6.9525 13.77C6.9525 12.7425 7.6875 11.9025 8.5875 11.9025C9.4875 11.9025 10.2225 12.735 10.2225 13.77C10.2225 14.7975 9.4875 15.6375 8.5875 15.6375C7.68 15.63 6.9525 14.7975 6.9525 13.77ZM15.93 19.0425C15.135 19.9425 13.8975 20.385 12.135 20.385C10.3725 20.385 9.135 19.9425 8.34 19.0425C8.1675 18.8475 8.1675 18.525 8.34 18.33C8.5125 18.135 8.79 18.135 8.9625 18.33C9.5775 19.035 10.62 19.38 12.135 19.38C13.65 19.38 14.6925 19.035 15.3075 18.33C15.48 18.135 15.7575 18.135 15.93 18.33C16.1025 18.5325 16.1025 18.8475 15.93 19.0425ZM15.69 15.63C14.79 15.63 14.055 14.7975 14.055 13.7625C14.055 12.735 14.79 11.895 15.69 11.895C16.59 11.895 17.325 12.7275 17.325 13.7625C17.325 14.7975 16.5975 15.63 15.69 15.63Z" fill="#000000"/></svg>