<svg width="20" height="20" viewBox="0 0 20 20" fill="none" xmlns="http://www.w3.org/2000/svg">
<path d="M15.8333 9H4.16667C3.24619 9 2.5 9.74619 2.5 10.6667V17.3333C2.5 18.2538 3.24619 19 4.16667 19H15.8333C16.7538 19 17.5 18.2538 17.5 17.3333V10.6667C17.5 9.74619 16.7538 9 15.8333 9Z" stroke="#101212" stroke-width="2" stroke-linecap="round" stroke-linejoin="round"/>
<path d="M10 15.75C10.9665 15.75 11.75 14.9665 11.75 14C11.75 13.0335 10.9665 12.25 10 12.25C9.0335 12.25 8.25 13.0335 8.25 14C8.25 14.9665 9.0335 15.75 10 15.75Z" stroke="#101212" stroke-width="2" stroke-linecap="round" stroke-linejoin="round"/>
<path d="M13.9998 6.0002V5.16687C14.0103 4.0729 13.6032 3.0194 12.8681 2.23803C12.133 1.45667 11.1301 1.01142 10.0799 1.0002H9.9999C8.94972 0.989319 7.93838 1.41337 7.18829 2.17911C6.43819 2.94485 6.01077 3.98957 6 5.08354V6.0002" stroke="#101212" stroke-width="2" stroke-linecap="round" stroke-linejoin="round"/>
</svg>
