<svg width="20" height="16" viewBox="0 0 20 16" fill="none" xmlns="http://www.w3.org/2000/svg">
<path d="M1.30492 9.24064C1.10645 8.95689 1 8.61898 1 8.2727C1 7.92643 1.10645 7.58852 1.30492 7.30477C2.59196 5.48262 5.76087 1.72705 10 1.72705C14.2391 1.72705 17.408 5.48262 18.6951 7.30477C18.8936 7.58852 19 7.92643 19 8.2727C19 8.61898 18.8936 8.95689 18.6951 9.24064C17.408 11.0628 14.2391 14.8184 10 14.8184C5.76087 14.8184 2.59196 11.0628 1.30492 9.24064Z" stroke="#101212" stroke-width="2" stroke-linecap="round" stroke-linejoin="round"/>
<path d="M9.99939 11.5455C11.8069 11.5455 13.2722 10.0802 13.2722 8.2727C13.2722 6.46517 11.8069 4.99988 9.99939 4.99988C8.19186 4.99988 6.72656 6.46517 6.72656 8.2727C6.72656 10.0802 8.19186 11.5455 9.99939 11.5455Z" stroke="#101212" stroke-width="2" stroke-linecap="round" stroke-linejoin="round"/>
</svg>
