<svg width="20" height="14" viewBox="0 0 20 14" fill="none" xmlns="http://www.w3.org/2000/svg">
<path d="M10 0.181824C5.45455 0.181824 1.57273 3.0091 0 7.00001C1.57273 10.9909 5.45455 13.8182 10 13.8182C14.5455 13.8182 18.4273 10.9909 20 7.00001C18.4273 3.0091 14.5455 0.181824 10 0.181824ZM10 11.5455C7.49091 11.5455 5.45455 9.5091 5.45455 7.00001C5.45455 4.49091 7.49091 2.45455 10 2.45455C12.5091 2.45455 14.5455 4.49091 14.5455 7.00001C14.5455 9.5091 12.5091 11.5455 10 11.5455ZM10 4.27273C8.49091 4.27273 7.27273 5.49091 7.27273 7.00001C7.27273 8.5091 8.49091 9.72728 10 9.72728C11.5091 9.72728 12.7273 8.5091 12.7273 7.00001C12.7273 5.49091 11.5091 4.27273 10 4.27273Z" fill="#101212"/>
</svg>
