<svg width="12" height="12" viewBox="0 0 12 12" fill="none" xmlns="http://www.w3.org/2000/svg">
<path d="M8.55 3.79767V3.625C8.55 2.17542 7.40817 1 6 1C4.59183 1 3.45 2.17542 3.45 3.625V3.79767C3.45 4.62775 3.02103 5.3995 2.3212 5.8125C1.95797 6.02717 1.75 6.27567 1.75 6.54167C1.75 7.34725 3.65287 8 6 8C8.34713 8 10.25 7.34725 10.25 6.54167C10.25 6.27567 10.042 6.02717 9.6788 5.8125C8.97897 5.40008 8.55 4.62775 8.55 3.79767Z" stroke="#101212" stroke-width="2" stroke-linecap="round" stroke-linejoin="round"/>
<path d="M7.5 10.5C7.24738 10.7943 6.67081 11 6 11C5.32919 11 4.75327 10.7943 4.5 10.5003" stroke="#101212" stroke-width="2" stroke-linecap="round" stroke-linejoin="round"/>
</svg>
