<svg width="12" height="12" viewBox="0 0 12 12" fill="none" xmlns="http://www.w3.org/2000/svg">
<path d="M8 10C7.24138 10.0952 6.62069 10.0952 6 10.0952C5.37931 10.0952 4.75862 10.0952 4 10C4.27586 11.1429 5.03448 12 6 12C6.96552 12 7.72414 11.1429 8 10Z" fill="#101212"/>
<path fill-rule="evenodd" clip-rule="evenodd" d="M2.43 3.71136C2.43 1.72241 3.96944 0 6 0C8.03056 0 9.57 1.72241 9.57 3.71136V3.88672C9.57 4.3905 9.82422 4.82358 10.1812 5.03975L10.1823 5.04044C10.6284 5.31139 11.25 5.83658 11.25 6.67348C11.25 7.30868 10.8822 7.76963 10.544 8.0516C10.2003 8.33822 9.76545 8.54935 9.32033 8.7063C8.42071 9.02351 7.24671 9.2 6 9.2C4.75329 9.2 3.57929 9.02351 2.67967 8.7063C2.23455 8.54935 1.79974 8.33822 1.45596 8.0516C1.11776 7.76963 0.75 7.30868 0.75 6.67348C0.75 5.83658 1.37156 5.31139 1.81769 5.04044C2.17551 4.82343 2.43 4.39007 2.43 3.88672V3.71136Z" fill="#101212"/>
</svg>
