<svg width="20" height="20" viewBox="0 0 20 20" fill="none" xmlns="http://www.w3.org/2000/svg">
<path d="M6.25 13.3333C6.94036 13.3333 7.5 12.7737 7.5 12.0833C7.5 11.393 6.94036 10.8333 6.25 10.8333C5.55964 10.8333 5 11.393 5 12.0833C5 12.7737 5.55964 13.3333 6.25 13.3333Z" fill="#101212"/>
<path d="M13.75 13.3333C14.4404 13.3333 15 12.7737 15 12.0833C15 11.393 14.4404 10.8333 13.75 10.8333C13.0596 10.8333 12.5 11.393 12.5 12.0833C12.5 12.7737 13.0596 13.3333 13.75 13.3333Z" fill="#101212"/>
<path d="M10 0C4.48583 0 0 4.48583 0 10C0 15.5142 4.48583 20 10 20C15.5142 20 20 15.5142 20 10C20 4.48583 15.5142 0 10 0ZM10 18.3333C5.405 18.3333 1.66667 14.595 1.66667 10C1.6925 9.16667 3.78667 8.2925 5.7125 8.2925C5.73 8.2925 5.74667 8.2925 5.76417 8.2925C7.86833 8.29083 10.465 8.29583 13.1633 6.22667C15.3125 9.12167 18.3333 10 18.3333 10C18.3333 14.595 14.595 18.3333 10 18.3333Z" fill="#101212"/>
</svg>
