<svg width="24" height="24" viewBox="0 0 24 24" fill="none" xmlns="http://www.w3.org/2000/svg">
<g clip-path="url(#clip0_804_448)">
<path fill-rule="evenodd" clip-rule="evenodd" d="M12 0C8.741 0 8.332 0.014 7.052 0.072C5.102 0.161 3.389 0.639 2.014 2.014C0.639 3.389 0.161 5.102 0.072 7.052C0.014 8.332 0 8.741 0 12C0 15.259 0.014 15.668 0.072 16.948C0.161 18.898 0.639 20.611 2.014 21.986C3.389 23.361 5.102 23.839 7.052 23.928C8.332 23.986 8.741 24 12 24C15.259 24 15.668 23.986 16.948 23.928C18.898 23.839 20.611 23.361 21.986 21.986C23.361 20.611 23.839 18.898 23.928 16.948C23.986 15.668 24 15.259 24 12C24 8.741 23.986 8.332 23.928 7.052C23.839 5.102 23.361 3.389 21.986 2.014C20.611 0.639 18.898 0.161 16.948 0.072C15.668 0.014 15.259 0 12 0ZM11.9999 5.83801C8.59689 5.83801 5.83789 8.59701 5.83789 12C5.83789 15.403 8.59689 18.162 11.9999 18.162C15.4029 18.162 18.1619 15.403 18.1619 12C18.1619 8.59701 15.4029 5.83801 11.9999 5.83801ZM11.9999 16C9.79089 16 7.99989 14.209 7.99989 12C7.99989 9.79101 9.79089 8.00001 11.9999 8.00001C14.2089 8.00001 15.9999 9.79101 15.9999 12C15.9999 14.209 14.2089 16 11.9999 16ZM19.8461 5.59399C19.8461 6.38928 19.2014 7.03399 18.4061 7.03399C17.6108 7.03399 16.9661 6.38928 16.9661 5.59399C16.9661 4.7987 17.6108 4.15399 18.4061 4.15399C19.2014 4.15399 19.8461 4.7987 19.8461 5.59399Z" fill="#101212"/>
</g>
<defs>
<clipPath id="clip0_804_448">
<rect width="24" height="24" fill="white"/>
</clipPath>
</defs>
</svg>
