<svg width="24" height="24" viewBox="0 0 24 24" fill="none" xmlns="http://www.w3.org/2000/svg">
<path d="M1.39783 10.7979L3.97483 12.7499L12.9748 8.74988L5.99783 14.2489V20.9979C5.99804 21.2029 6.06125 21.4029 6.17889 21.5707C6.29653 21.7386 6.46292 21.8663 6.65553 21.9364C6.84814 22.0066 7.05766 22.0159 7.25572 21.963C7.45378 21.9102 7.63081 21.7977 7.76283 21.6409L10.8928 17.9219L17.3978 22.7979C17.5327 22.8993 17.6912 22.965 17.8583 22.9887C18.0254 23.0125 18.1959 22.9935 18.3537 22.9336C18.5115 22.8737 18.6516 22.7748 18.7609 22.6462C18.8702 22.5175 18.9452 22.3633 18.9788 22.1979L22.9788 2.19788C23.0143 2.02121 23.0013 1.83824 22.9413 1.66833C22.8813 1.49842 22.7765 1.34788 22.638 1.23263C22.4995 1.11737 22.3324 1.04168 22.1544 1.01356C21.9764 0.985444 21.7941 1.00594 21.6268 1.07288L1.62683 9.07288C1.46276 9.13908 1.31919 9.24761 1.21077 9.38741C1.10235 9.52721 1.03296 9.69328 1.00967 9.86865C0.986392 10.044 1.01005 10.2224 1.07824 10.3857C1.14644 10.5489 1.25672 10.6912 1.39783 10.7979Z" fill="#101212"/>
</svg>
