<svg width="16" height="16" viewBox="0 0 16 16" fill="none" xmlns="http://www.w3.org/2000/svg">
<path d="M9.4001 6.60001C10.2001 7.40001 10.2001 8.60001 9.4001 9.40001C8.6001 10.2 7.4001 10.2 6.6001 9.40001C5.8001 8.60001 1.6001 1.60001 1.6001 1.60001C1.6001 1.60001 8.6001 5.80001 9.4001 6.60001Z" fill="#101212"/>
<path d="M8 16C3.6 16 0 12.4 0 8C0 7.4 0.4 7 1 7C1.6 7 2 7.4 2 8C2 11.3 4.7 14 8 14C11.3 14 14 11.3 14 8C14 4.7 11.3 2 8 2C7.4 2 7 1.6 7 1C7 0.4 7.4 0 8 0C12.4 0 16 3.6 16 8C16 12.4 12.4 16 8 16Z" fill="#101212"/>
</svg>
