<svg width="16" height="16" viewBox="0 0 16 16" fill="none" xmlns="http://www.w3.org/2000/svg">
<path d="M4 10.7439H5C5 10.3201 4.73284 9.94234 4.33325 9.8011L4 10.7439ZM4 14H3C3 14.3788 3.214 14.725 3.55279 14.8944C3.89157 15.0638 4.29698 15.0273 4.6 14.8L4 14ZM8 11V10C7.78363 10 7.5731 10.0702 7.4 10.2L8 11ZM2 6.5C2 4.567 3.567 3 5.5 3V1C2.46243 1 0 3.46243 0 6.5H2ZM4.33325 9.8011C2.97251 9.32015 2 8.02236 2 6.5H0C0 8.8963 1.53192 10.9322 3.66675 11.6868L4.33325 9.8011ZM5 14V10.7439H3V14H5ZM7.4 10.2L3.4 13.2L4.6 14.8L8.6 11.8L7.4 10.2ZM10.5 10H8V12H10.5V10ZM14 6.5C14 8.433 12.433 10 10.5 10V12C13.5376 12 16 9.53757 16 6.5H14ZM10.5 3C12.433 3 14 4.567 14 6.5H16C16 3.46243 13.5376 1 10.5 1V3ZM5.5 3H10.5V1H5.5V3Z" fill="#202222"/>
</svg>
