<svg width="20" height="20" viewBox="0 0 20 20" fill="none" xmlns="http://www.w3.org/2000/svg">
<path fill-rule="evenodd" clip-rule="evenodd" d="M9.99999 3.08002C6.61457 3.08002 3.78883 5.4838 3.13998 8.67902C3.03008 9.22026 2.50222 9.56992 1.96098 9.46002C1.41974 9.35011 1.07008 8.82225 1.17999 8.28101C2.01434 4.17223 5.64461 1.08002 9.99999 1.08002C12.453 1.08002 14.6792 2.06293 16.3017 3.65402C16.6961 4.0407 16.7023 4.67383 16.3156 5.06816C15.9289 5.46249 15.2958 5.4687 14.9014 5.08202C13.6376 3.8427 11.9085 3.08002 9.99999 3.08002Z" fill="#101212"/>
<path fill-rule="evenodd" clip-rule="evenodd" d="M17.867 -0.00112915L19.2166 8.09657L11.1189 6.74696L17.867 -0.00112915Z" fill="#101212"/>
<path fill-rule="evenodd" clip-rule="evenodd" d="M18.0391 10.54C18.5803 10.6499 18.93 11.1778 18.82 11.719C17.9857 15.8269 14.3555 18.92 10 18.92C7.54699 18.92 5.32085 17.9371 3.69829 16.346C3.30396 15.9593 3.29776 15.3262 3.68444 14.9319C4.07112 14.5375 4.70425 14.5313 5.09858 14.918C6.36242 16.1573 8.09149 16.92 10 16.92C13.3854 16.92 16.2112 14.5155 16.86 11.321C16.97 10.7797 17.4978 10.4301 18.0391 10.54Z" fill="#101212"/>
<path fill-rule="evenodd" clip-rule="evenodd" d="M0.783447 11.9034L8.88115 13.2531L2.13306 20.0011L0.783447 11.9034Z" fill="#101212"/>
</svg>
