<svg width="20" height="16" viewBox="0 0 20 16" fill="none" xmlns="http://www.w3.org/2000/svg">
<path fill-rule="evenodd" clip-rule="evenodd" d="M13.6301 14.0536C14.1438 14.7321 14.7603 15.5 14.7603 15.5C18.5445 15.375 20 12.7857 20 12.7857C19.9444 9.16556 19.1013 5.60583 17.5342 2.375C16.1552 1.24551 14.474 0.590358 12.7226 0.5L12.4829 0.785714C14.042 1.21839 15.4953 1.99139 16.7466 3.05357C15.1522 2.13709 13.4013 1.55472 11.5925 1.33929C10.4423 1.2071 9.28102 1.21909 8.13356 1.375C8.03572 1.37808 7.93832 1.39003 7.84246 1.41071C6.49812 1.57012 5.18632 1.94979 3.95548 2.53571C3.32192 2.83929 2.94521 3.05357 2.94521 3.05357C2.94521 3.05357 4.36644 1.64286 7.44863 0.714286L7.2774 0.5C5.52604 0.590358 3.84478 1.24551 2.46575 2.375C0.898712 5.60583 0.0555982 9.16556 0 12.7857C0 12.7857 1.43836 15.375 5.2226 15.5C5.2226 15.5 5.85616 14.6964 6.36986 14.0179C5.16601 13.7012 4.10607 12.9559 3.37329 11.9107C3.98585 12.3339 4.6403 12.6871 5.32534 12.9643C6.14019 13.2997 6.98274 13.5567 7.84246 13.7321C9.30686 14.0255 10.8109 14.0316 12.2774 13.75C13.1306 13.5944 13.9637 13.3367 14.7603 12.9821C15.4527 12.7096 16.1133 12.3562 16.7295 11.9286C15.9692 12.9961 14.8713 13.7488 13.6301 14.0536ZM9.14282 9.20004C9.14282 10.3598 8.24739 11.3 7.14282 11.3C6.03825 11.3 5.14282 10.3598 5.14282 9.20004C5.14282 8.04024 6.03825 7.10004 7.14282 7.10004C8.24739 7.10004 9.14282 8.04024 9.14282 9.20004ZM12.8571 11.3C13.9617 11.3 14.8571 10.3598 14.8571 9.19998C14.8571 8.04018 13.9617 7.09998 12.8571 7.09998C11.7526 7.09998 10.8571 8.04018 10.8571 9.19998C10.8571 10.3598 11.7526 11.3 12.8571 11.3Z" fill="#101212"/>
</svg>
