<svg width="20" height="20" viewBox="0 0 20 20" fill="none" xmlns="http://www.w3.org/2000/svg">
<path d="M9.9999 5.5C10.8831 5.5 11.5999 4.828 11.5999 4C11.5999 3.172 9.9999 1 9.9999 1C9.9999 1 8.3999 3.172 8.3999 4C8.3999 4.828 9.1167 5.5 9.9999 5.5Z" stroke="#101212" stroke-width="2" stroke-linecap="round" stroke-linejoin="round"/>
<path d="M19 12H1V19H19V12Z" stroke="#101212" stroke-width="2" stroke-linecap="round" stroke-linejoin="round"/>
<path d="M19 12.6364C19 14.4437 17.5346 15.9091 15.7273 15.9091C14.4853 15.9091 13.4184 15.2095 12.8636 14.1901C12.3089 15.2095 11.242 15.9091 10 15.9091C8.758 15.9091 7.69109 15.2095 7.13636 14.1901C6.58164 15.2095 5.51473 15.9091 4.27273 15.9091C2.46536 15.9091 1 14.4437 1 12.6364" stroke="#101212" stroke-width="2" stroke-linecap="round" stroke-linejoin="round"/>
<path d="M16 12V8.5H4V12" stroke="#101212" stroke-width="2" stroke-linecap="round" stroke-linejoin="round"/>
</svg>
