<svg width="16" height="16" viewBox="0 0 16 16" fill="none" xmlns="http://www.w3.org/2000/svg">
<path fill-rule="evenodd" clip-rule="evenodd" d="M8.03301 0C3.61486 0 0 3.68984 0 8.19964C0 11.8211 2.27602 14.896 5.48923 15.9893C5.89088 16.0576 6.02476 15.7843 6.02476 15.5793C6.02476 15.3743 6.02476 14.896 6.02476 14.2127C3.81568 14.691 3.34709 13.1194 3.34709 13.1194C3.01238 12.1628 2.47685 11.8895 2.47685 11.8895C1.67354 11.4112 2.47685 11.4112 2.47685 11.4112C3.28015 11.4795 3.6818 12.2311 3.6818 12.2311C4.41816 13.4611 5.55617 13.1194 6.02476 12.9144C6.0917 12.3678 6.29253 12.0261 6.56029 11.8211C4.75287 11.6162 2.8785 10.9329 2.8785 7.78966C2.8785 6.90136 3.21321 6.14973 3.6818 5.60309C3.6818 5.32977 3.34709 4.5098 3.81568 3.41652C3.81568 3.41652 4.4851 3.21153 6.02476 4.23648C6.69418 4.03149 7.3636 3.96316 8.03301 3.96316C8.70243 3.96316 9.37185 4.03149 10.0413 4.23648C11.5809 3.14319 12.2503 3.41652 12.2503 3.41652C12.7189 4.57813 12.3842 5.3981 12.3173 5.60309C12.8528 6.14973 13.1206 6.90136 13.1206 7.78966C13.1206 10.9329 11.2462 11.6162 9.43879 11.8211C9.70656 12.0945 9.97433 12.5728 9.97433 13.3244C9.97433 14.4177 9.97433 15.306 9.97433 15.5793C9.97433 15.7843 10.1082 16.0576 10.5099 15.9893C13.7231 14.896 15.9991 11.8211 15.9991 8.19964C16.066 3.68984 12.4512 0 8.03301 0Z" fill="#101212"/>
</svg>
