<svg width="12" height="10" viewBox="0 0 12 10" fill="none" xmlns="http://www.w3.org/2000/svg">
<path d="M5.9975 0C2.42227 0 0.200367 4.367 0.105414 4.553C0.0360897 4.6918 0 4.84484 0 5C0 5.15516 0.0360897 5.3082 0.105414 5.447C0.200367 5.633 2.42227 10 5.9975 10C9.57273 10 11.7946 5.633 11.8946 5.447C11.9639 5.3082 12 5.15516 12 5C12 4.84484 11.9639 4.6918 11.8946 4.553C11.7946 4.367 9.57273 0 5.9975 0ZM5.9975 8C4.31433 8 2.82807 6.129 2.1474 5.006C2.71712 4.076 4.19139 2 5.9975 2C7.68067 2 9.16693 3.872 9.8476 4.994C9.27788 5.924 7.80361 8 5.9975 8Z" fill="#101212"/>
<path d="M5.99731 6.5C6.82532 6.5 7.49656 5.82843 7.49656 5C7.49656 4.17157 6.82532 3.5 5.99731 3.5C5.16929 3.5 4.49805 4.17157 4.49805 5C4.49805 5.82843 5.16929 6.5 5.99731 6.5Z" fill="#101212"/>
</svg>
