<svg width="12" height="10" viewBox="0 0 12 10" fill="none" xmlns="http://www.w3.org/2000/svg">
<path d="M6 9.5C8.70846 9.5 10.815 7.175 11.7179 5.825C12.094 5.3 12.094 4.625 11.7179 4.1C10.815 2.825 8.70846 0.5 6 0.5C3.29154 0.5 1.18495 2.825 0.282132 4.175C-0.0940439 4.7 -0.0940439 5.375 0.282132 5.825C1.18495 7.175 3.29154 9.5 6 9.5ZM6 2.75C7.279 2.75 8.25705 3.725 8.25705 5C8.25705 6.275 7.279 7.25 6 7.25C4.721 7.25 3.74295 6.275 3.74295 5C3.74295 3.725 4.721 2.75 6 2.75Z" fill="#101212"/>
</svg>
