<svg width="12" height="12" viewBox="0 0 12 12" fill="none" xmlns="http://www.w3.org/2000/svg">
<path d="M8 4.99997C9.10457 4.99997 10 4.10454 10 2.99997C10 1.8954 9.10457 0.999969 8 0.999969C6.89543 0.999969 6 1.8954 6 2.99997C6 4.10454 6.89543 4.99997 8 4.99997Z" fill="#101212"/>
<path d="M8.61905 7.24179H9.49429C9.7941 7.24178 10.0863 7.35279 10.3295 7.5591C10.5728 7.7654 10.7547 8.05654 10.8495 8.39128L11 8.92315L5.53905 10.901C5.07086 11.0704 4.56521 11.021 4.12714 10.7631L1 8.92315L1 4.80222C2.11563 4.80222 4.83593 5.27647 5.63258 6.2141C5.9898 6.63452 6.19048 7.21644 6.19048 7.81101H4.33333" stroke="#101212" stroke-width="2" stroke-linecap="round" stroke-linejoin="round"/>
</svg>
