<svg width="12" height="12" viewBox="0 0 12 12" fill="none" xmlns="http://www.w3.org/2000/svg">
<path d="M10 7.99332H8.35C8.43285 8.33454 8.47748 8.68453 8.483 9.03636C8.48155 9.17293 8.42824 9.30339 8.33462 9.39943C8.24101 9.49547 8.11466 9.54933 7.983 9.54932H4.01867C3.73221 9.54932 3.5 9.31711 3.5 9.03065C3.5 8.7442 3.73221 8.51199 4.01867 8.51199H6.5C7.05228 8.51199 7.52025 8.04072 7.27095 7.5479C7.17802 7.36421 7.05823 7.19437 6.91421 7.04498C6.53914 6.65591 6.03043 6.43733 5.5 6.43733H3.5C2.9 5.54989 1.6525 5.39999 1.05 5.39999H1C0.447716 5.39999 0 5.84771 0 6.39999V9.17743C0 9.56305 0.221722 9.9143 0.569839 10.0802L4.096 11.7604C4.59999 12.0215 5.18157 12.0713 5.72 11.8994L11.1413 10.1693C11.6293 10.0136 11.923 9.50539 11.6705 9.05972C11.3811 8.54906 10.867 7.99332 10 7.99332Z" fill="#101212"/>
<path d="M7.19995 0C6.60661 0 6.02659 0.175947 5.53324 0.505591C5.03989 0.835235 4.65538 1.30377 4.42831 1.85195C4.20125 2.40013 4.14184 3.00333 4.2576 3.58527C4.37335 4.16721 4.65907 4.70176 5.07863 5.12132C5.49819 5.54088 6.03274 5.8266 6.61468 5.94236C7.19662 6.05811 7.79982 5.9987 8.348 5.77164C8.89618 5.54458 9.36472 5.16006 9.69436 4.66671C10.024 4.17336 10.2 3.59334 10.2 3C10.1992 2.20459 9.88283 1.44199 9.32039 0.879557C8.75796 0.31712 7.99536 0.000794215 7.19995 0ZM7.69995 4C7.69995 4.27614 7.47609 4.5 7.19995 4.5C6.92381 4.5 6.69995 4.27614 6.69995 4V2C6.69995 1.72386 6.92381 1.5 7.19995 1.5C7.47609 1.5 7.69995 1.72386 7.69995 2V4Z" fill="#101212"/>
</svg>
