<svg width="24" height="24" viewBox="0 0 24 24" fill="none" xmlns="http://www.w3.org/2000/svg">
<path fill-rule="evenodd" clip-rule="evenodd" d="M11.9999 3.10001C7.64688 3.10001 4.01414 6.19079 3.1799 10.299C3.06999 10.8402 2.54214 11.1899 2.0009 11.08C1.45966 10.9701 1.11 10.4422 1.2199 9.901C2.23966 4.87922 6.67692 1.10001 11.9999 1.10001C14.9982 1.10001 17.7187 2.30112 19.702 4.24601C20.0964 4.63269 20.1026 5.26582 19.7159 5.66015C19.3292 6.05448 18.6961 6.06069 18.3018 5.67401C16.6771 4.08089 14.4537 3.10001 11.9999 3.10001Z" fill="#101212"/>
<path fill-rule="evenodd" clip-rule="evenodd" d="M21.6669 0.0188599L23.2165 9.31656L13.9188 7.76694L21.6669 0.0188599Z" fill="#101212"/>
<path fill-rule="evenodd" clip-rule="evenodd" d="M21.9991 12.92C22.5403 13.0299 22.89 13.5578 22.78 14.099C21.7603 19.1197 17.3231 22.9 12 22.9C9.0018 22.9 6.28126 21.6989 4.2979 19.754C3.90357 19.3673 3.89737 18.7342 4.28405 18.3398C4.67073 17.9455 5.30386 17.9393 5.69819 18.326C7.32283 19.9191 9.5463 20.9 12 20.9C16.353 20.9 19.9858 17.8083 20.8201 13.7009C20.93 13.1597 21.4579 12.8101 21.9991 12.92Z" fill="#101212"/>
<path fill-rule="evenodd" clip-rule="evenodd" d="M0.783447 14.6834L10.0811 16.2331L2.33306 23.9811L0.783447 14.6834Z" fill="#101212"/>
</svg>
