<svg width="12" height="12" viewBox="0 0 12 12" fill="none" xmlns="http://www.w3.org/2000/svg">
<path d="M1 1H5.67612L10.7063 6.03017C10.7994 6.12322 10.8733 6.23371 10.9237 6.35533C10.9741 6.47694 11 6.60729 11 6.73893C11 6.87058 10.9741 7.00093 10.9237 7.12254C10.8733 7.24415 10.7994 7.35465 10.7063 7.4477L7.4477 10.7063C7.35465 10.7994 7.24415 10.8733 7.12254 10.9237C7.00093 10.9741 6.87058 11 6.73893 11C6.60729 11 6.47694 10.9741 6.35533 10.9237C6.23371 10.8733 6.12322 10.7994 6.03017 10.7063L1 5.67612V1Z" stroke="#101212" stroke-width="2" stroke-linecap="round" stroke-linejoin="round"/>
<path d="M4 5C4.55228 5 5 4.55228 5 4C5 3.44772 4.55228 3 4 3C3.44772 3 3 3.44772 3 4C3 4.55228 3.44772 5 4 5Z" fill="#101212"/>
</svg>
