<svg width="16" height="16" viewBox="0 0 16 16" fill="none" xmlns="http://www.w3.org/2000/svg">
<path d="M4.00001 15C3.44772 15 3 14.5523 3.00001 14L3.0001 1.99999C3.00011 1.44771 3.44782 1 4.0001 1L12.0002 1C12.5524 1 13.0002 1.44772 13.0002 2.00001L13 14C13 14.5523 12.5523 15 12 15L4.00001 15Z" stroke="#101212" stroke-width="2" stroke-miterlimit="10" stroke-linecap="square"/>
<path d="M6 11C5.44772 11 5 11.4477 5 12C5 12.5523 5.44772 13 6 13V11ZM10 13C10.5523 13 11 12.5523 11 12C11 11.4477 10.5523 11 10 11V13ZM6 13H10V11H6V13Z" fill="#101212"/>
<circle cx="6" cy="4" r="1" fill="#101212"/>
</svg>
