<svg width="12" height="16" viewBox="0 0 12 16" fill="none" xmlns="http://www.w3.org/2000/svg">
<path fill-rule="evenodd" clip-rule="evenodd" d="M1.00004 16C0.447747 16 2.82312e-05 15.5523 4.00341e-05 15C0.000139763 10.3333 0.000190553 5.66669 3.62607e-05 1.00005C1.79999e-05 0.447744 0.447744 3.63448e-06 1.00005 6.8953e-06L11 1.22627e-05C11.5523 1.18751e-05 12 0.447727 12 1.00001V15C12 15.5523 11.5523 16 11 16H1.00004ZM3.00004 12C3.00004 11.4477 3.44776 11 4.00004 11H8.00004C8.55233 11 9.00004 11.4477 9.00004 12C9.00004 12.5523 8.55233 13 8.00004 13H4.00004C3.44776 13 3.00004 12.5523 3.00004 12ZM4.00004 5.00001C4.55233 5.00001 5.00004 4.5523 5.00004 4.00001C5.00004 3.44773 4.55233 3.00001 4.00004 3.00001C3.44776 3.00001 3.00004 3.44773 3.00004 4.00001C3.00004 4.5523 3.44776 5.00001 4.00004 5.00001Z" fill="#101212"/>
</svg>
