<svg width="12" height="10" viewBox="0 0 12 10" fill="none" xmlns="http://www.w3.org/2000/svg">
<path d="M11.9922 9.12372C11.9922 8.96601 11.8566 8.83083 11.6984 8.83083C10.8021 8.83083 9.91336 8.71818 9.07731 8.4328C8.63292 8.2826 8.19607 8.0573 7.827 7.7569C8.60279 7.08851 9.26561 6.29996 9.73259 5.38374C9.96608 4.91813 10.1544 4.39243 10.0866 3.85922C9.98114 3.08569 9.34093 2.63509 8.58773 2.59003C7.36755 2.4924 6.30554 3.19834 5.78583 4.27978C5.52975 4.80548 5.41677 5.39876 5.45443 5.98454C5.48455 6.62289 5.71051 7.22369 6.06452 7.73437C5.15315 8.30513 4.11373 8.66561 3.05172 8.67312C2.7881 8.67312 2.51695 8.6581 2.26087 8.60553C2.01984 8.55296 1.77882 8.45533 1.60558 8.2826C1.25158 7.91461 1.3043 7.37389 1.42482 6.88574C1.71856 5.83434 2.38138 4.8956 3.11951 4.09203C3.82752 3.33352 4.8594 2.48489 5.92141 2.22204C6.25282 2.13943 6.49384 1.86156 6.54656 1.52361C6.56163 1.39594 6.57669 1.26827 6.57669 1.13309C6.57669 0.99791 6.55409 0.77261 6.5315 0.614901C6.48631 0.359561 6.25282 0.179321 5.9892 0.201851C5.7783 0.216871 5.56741 0.254421 5.36404 0.306991C4.0836 0.652451 3.00653 1.55365 2.15542 2.52995C1.07835 3.77661 0.061528 5.54145 0.00127217 7.22369C-0.0288557 8.32015 0.475787 9.2589 1.55286 9.61938C1.92946 9.74705 2.32865 9.79211 2.72032 9.79962C4.17399 9.81464 5.58247 9.31898 6.78759 8.53794C7.03614 8.74822 7.31482 8.92846 7.60857 9.07115C8.79862 9.67946 10.1544 9.79962 11.4649 9.7846C11.5327 9.7846 11.6156 9.7846 11.6984 9.7846C11.8641 9.7846 12.0072 9.64942 11.9997 9.4842V9.12372H11.9922ZM6.91563 6.36004C6.70473 5.44382 7.17172 4.33235 8.11321 4.06199C8.27139 4.01693 8.44462 3.9944 8.61032 4.00191C8.64799 4.00191 8.68564 4.00942 8.71577 4.01693C8.7459 4.02444 8.76096 4.03195 8.78356 4.05448C8.83628 4.10705 8.81369 4.23472 8.80616 4.33235C8.7685 4.58769 8.66305 4.87307 8.53501 5.11339C8.181 5.76675 7.69142 6.39008 7.11899 6.91578C7.02861 6.74305 6.96082 6.5553 6.91563 6.36004Z" fill="#101212"/>
</svg>
