<svg width="16" height="16" viewBox="0 0 16 16" fill="none" xmlns="http://www.w3.org/2000/svg">
<path d="M13.3333 10.6578H11.1333C11.2438 11.1127 11.3033 11.5794 11.3107 12.0485C11.3087 12.2306 11.2376 12.4045 11.1128 12.5326C10.988 12.6606 10.8195 12.7325 10.644 12.7324H5.35822C4.97629 12.7324 4.66667 12.4228 4.66667 12.0409C4.66667 11.659 4.97629 11.3493 5.35822 11.3493H9C9.55228 11.3493 10.0165 10.8883 9.82712 10.3695C9.69458 10.0066 9.48863 9.67307 9.21895 9.39333C8.71885 8.87456 8.04058 8.58312 7.33333 8.58312H4.66667C3.86667 7.39987 2.20333 7.20001 1.4 7.20001H1C0.447715 7.20001 0 7.64773 0 8.20001V12.447C0 12.8326 0.221722 13.1839 0.569839 13.3498L5.46133 15.6805C6.13332 16.0287 6.90875 16.0951 7.62667 15.8659L15.1413 13.4678C15.6293 13.312 15.9189 12.8091 15.6992 12.3465C15.3489 11.6091 14.6433 10.6578 13.3333 10.6578Z" fill="#101212"/>
<path d="M9.6001 0C8.80897 0 8.03561 0.234596 7.37782 0.674121C6.72002 1.11365 6.20733 1.73836 5.90458 2.46927C5.60183 3.20017 5.52262 4.00444 5.67696 4.78036C5.8313 5.55628 6.21226 6.26902 6.77167 6.82843C7.33108 7.38784 8.04381 7.7688 8.81974 7.92314C9.59566 8.07748 10.3999 7.99827 11.1308 7.69552C11.8617 7.39277 12.4865 6.88008 12.926 6.22228C13.3655 5.56448 13.6001 4.79112 13.6001 4C13.599 2.93946 13.1773 1.92266 12.4274 1.17274C11.6774 0.422826 10.6606 0.00105895 9.6001 0ZM10.2668 5.33333C10.2668 5.70152 9.96829 6 9.6001 6C9.23191 6 8.93343 5.70152 8.93343 5.33333V2.66667C8.93343 2.29848 9.23191 2 9.6001 2C9.96829 2 10.2668 2.29848 10.2668 2.66667V5.33333Z" fill="#101212"/>
</svg>
