<svg width="16" height="16" viewBox="0 0 16 16" fill="none" xmlns="http://www.w3.org/2000/svg">
<g clip-path="url(#clip0_123_2152)">
<path fill-rule="evenodd" clip-rule="evenodd" d="M15.7365 4.3236C16.1101 4.73037 16.0832 5.36297 15.6764 5.73654L9.14308 11.7365C8.76056 12.0878 8.17279 12.0878 7.79027 11.7365L4.73334 8.92915L1.67641 11.7365C1.26964 12.1101 0.637044 12.0832 0.263476 11.6764C-0.110092 11.2696 -0.0831736 10.637 0.323601 10.2635L4.05693 6.8349C4.43945 6.48361 5.02722 6.48361 5.40974 6.8349L8.46667 9.64229L14.3236 4.26348C14.7304 3.88991 15.363 3.91683 15.7365 4.3236Z" fill="#101212"/>
<path fill-rule="evenodd" clip-rule="evenodd" d="M8.71811 5.29662C8.51486 5.10745 8.37521 4.82984 8.49248 4.57816C8.65158 4.23668 8.99786 4 9.39941 4H14.9994C15.5517 4 15.9994 4.44772 15.9994 5V10.1429C15.9994 10.5593 15.7448 10.9163 15.3828 11.0667C15.1493 11.1637 14.8965 11.0471 14.7115 10.8749L8.71811 5.29662Z" fill="#101212"/>
</g>
<defs>
<clipPath id="clip0_123_2152">
<rect width="16" height="16" fill="white"/>
</clipPath>
</defs>
</svg>
