<svg width="16" height="16" viewBox="0 0 16 16" fill="none" xmlns="http://www.w3.org/2000/svg">
<path d="M8 8.00001C5.20709 8.00001 2.88645 7.44089 1.375 6.50201C1.375 7.15476 1.375 7.58526 1.375 8.00001C1.375 9.44989 4.34111 10.625 8 10.625C11.6589 10.625 14.625 9.44989 14.625 8.00001C14.625 7.58526 14.625 7.15476 14.625 6.50201C13.1136 7.44089 10.7929 8.00001 8 8.00001Z" fill="#101212"/>
<path d="M8 12.375C5.20709 12.375 2.88645 11.8159 1.375 10.877C1.375 11.5298 1.375 11.9603 1.375 12.375C1.375 13.8249 4.34111 15 8 15C11.6589 15 14.625 13.8249 14.625 12.375C14.625 11.9603 14.625 11.5298 14.625 10.877C13.1136 11.8159 10.7929 12.375 8 12.375Z" fill="#101212"/>
<path d="M8 6.25C11.6589 6.25 14.625 5.07474 14.625 3.625C14.625 2.17525 11.6589 1 8 1C4.34111 1 1.375 2.17525 1.375 3.625C1.375 5.07474 4.34111 6.25 8 6.25Z" fill="#101212"/>
</svg>
