<svg width="12" height="12" viewBox="0 0 12 12" fill="none" xmlns="http://www.w3.org/2000/svg">
<g clip-path="url(#clip0_1503_614)">
<path d="M1 10.8333H0C0 11.2177 0.220346 11.5681 0.566811 11.7346C0.913277 11.9011 1.32453 11.8543 1.6247 11.6142L1 10.8333ZM4.54164 8V7C4.31457 7 4.09426 7.07728 3.91695 7.21913L4.54164 8ZM2 4.5C2 3.11929 3.11929 2 4.5 2V0C2.01472 0 0 2.01472 0 4.5H2ZM2 10.8333V4.5H0V10.8333H2ZM3.91695 7.21913L0.375305 10.0524L1.6247 11.6142L5.16634 8.78087L3.91695 7.21913ZM7.5 7H4.54164V9H7.5V7ZM10 4.5C10 5.88071 8.88071 7 7.5 7V9C9.98528 9 12 6.98528 12 4.5H10ZM7.5 2C8.88071 2 10 3.11929 10 4.5H12C12 2.01472 9.98528 0 7.5 0V2ZM4.5 2H7.5V0H4.5V2Z" fill="#202222"/>
</g>
<defs>
<clipPath id="clip0_1503_614">
<rect width="12" height="12" fill="white"/>
</clipPath>
</defs>
</svg>
