<svg width="20" height="20" viewBox="0 0 20 20" fill="none" xmlns="http://www.w3.org/2000/svg">
<path d="M16.6667 13.3222H13.9167C14.0547 13.8909 14.1291 14.4742 14.1383 15.0606C14.1359 15.2882 14.0471 15.5057 13.891 15.6657C13.735 15.8258 13.5244 15.9156 13.305 15.9155H6.69778C6.22036 15.9155 5.83333 15.5285 5.83333 15.0511C5.83333 14.5737 6.22036 14.1867 6.69778 14.1867H11.5C12.0523 14.1867 12.5137 13.7304 12.3613 13.1996C12.2046 12.6539 11.9189 12.1516 11.5237 11.7416C10.8986 11.0932 10.0507 10.7289 9.16667 10.7289H5.83333C4.83333 9.24982 2.75417 9 1.75 9H1C0.447715 9 0 9.44772 0 10V15.7165C0 16.1022 0.221722 16.4534 0.569839 16.6193L6.82667 19.6007C7.66665 20.0359 8.63594 20.1189 9.53333 19.8323L19.1413 16.7662C19.6293 16.6104 19.9171 16.1093 19.7163 15.6381C19.316 14.6992 18.4286 13.3222 16.6667 13.3222Z" fill="#101212"/>
<path d="M12 0C11.0111 0 10.0444 0.293245 9.22215 0.842652C8.3999 1.39206 7.75904 2.17295 7.3806 3.08658C7.00217 4.00021 6.90315 5.00555 7.09608 5.97545C7.289 6.94536 7.76521 7.83627 8.46447 8.53553C9.16373 9.2348 10.0546 9.711 11.0246 9.90392C11.9945 10.0969 12.9998 9.99783 13.9134 9.6194C14.827 9.24096 15.6079 8.6001 16.1573 7.77785C16.7068 6.95561 17 5.98891 17 5C16.9987 3.67432 16.4715 2.40332 15.5341 1.46593C14.5967 0.528533 13.3257 0.00132369 12 0ZM12.8333 6.66667C12.8333 7.1269 12.4602 7.5 12 7.5C11.5398 7.5 11.1667 7.1269 11.1667 6.66667V3.33333C11.1667 2.8731 11.5398 2.5 12 2.5C12.4602 2.5 12.8333 2.8731 12.8333 3.33333V6.66667Z" fill="#101212"/>
</svg>
