<svg width="20" height="20" viewBox="0 0 20 20" fill="none" xmlns="http://www.w3.org/2000/svg">
<g clip-path="url(#clip0_804_451)">
<path fill-rule="evenodd" clip-rule="evenodd" d="M10 0C7.28417 0 6.94333 0.0116667 5.87667 0.06C4.25167 0.134167 2.82417 0.5325 1.67833 1.67833C0.5325 2.82417 0.134167 4.25167 0.06 5.87667C0.0116667 6.94333 0 7.28417 0 10C0 12.7158 0.0116667 13.0567 0.06 14.1233C0.134167 15.7483 0.5325 17.1758 1.67833 18.3217C2.82417 19.4675 4.25167 19.8658 5.87667 19.94C6.94333 19.9883 7.28417 20 10 20C12.7158 20 13.0567 19.9883 14.1233 19.94C15.7483 19.8658 17.1758 19.4675 18.3217 18.3217C19.4675 17.1758 19.8658 15.7483 19.94 14.1233C19.9883 13.0567 20 12.7158 20 10C20 7.28417 19.9883 6.94333 19.94 5.87667C19.8658 4.25167 19.4675 2.82417 18.3217 1.67833C17.1758 0.5325 15.7483 0.134167 14.1233 0.06C13.0567 0.0116667 12.7158 0 10 0ZM9.99987 4.86515C7.16403 4.86515 4.86487 7.16432 4.86487 10.0002C4.86487 12.836 7.16403 15.1352 9.99987 15.1352C12.8357 15.1352 15.1349 12.836 15.1349 10.0002C15.1349 7.16432 12.8357 4.86515 9.99987 4.86515ZM9.99987 13.3335C8.15903 13.3335 6.66653 11.841 6.66653 10.0002C6.66653 8.15932 8.15903 6.66682 9.99987 6.66682C11.8407 6.66682 13.3332 8.15932 13.3332 10.0002C13.3332 11.841 11.8407 13.3335 9.99987 13.3335ZM16.5384 4.66171C16.5384 5.32445 16.0011 5.86171 15.3384 5.86171C14.6756 5.86171 14.1384 5.32445 14.1384 4.66171C14.1384 3.99897 14.6756 3.46171 15.3384 3.46171C16.0011 3.46171 16.5384 3.99897 16.5384 4.66171Z" fill="#101212"/>
</g>
<defs>
<clipPath id="clip0_804_451">
<rect width="20" height="20" fill="white"/>
</clipPath>
</defs>
</svg>
