<svg width="18" height="20" viewBox="0 0 18 20" fill="none" xmlns="http://www.w3.org/2000/svg">
<path d="M14.6 8.89474V6.52632C14.6 5.06065 14.01 3.65501 12.9598 2.61862C11.9096 1.58224 10.4852 1 9 1C7.51479 1 6.09041 1.58224 5.0402 2.61862C3.99 3.65501 3.4 5.06065 3.4 6.52632V8.89474C3.4 11.5 1 12.1316 1 13.6316C1 14.9737 4.12 16 9 16C13.88 16 17 14.9737 17 13.6316C17 12.1316 14.6 11.5 14.6 8.89474Z" stroke="#101212" stroke-width="2" stroke-linecap="round" stroke-linejoin="round"/>
<path d="M9 18.0954C8.11471 18.0954 7.28284 18.0629 6.5 18C6.66689 18.5799 6.99938 19.0865 7.44905 19.4463C7.89871 19.806 8.44207 20 9 20C9.55793 20 10.1013 19.806 10.551 19.4463C11.0006 19.0865 11.3331 18.5799 11.5 18C10.7172 18.0629 9.88529 18.0954 9 18.0954Z" fill="#101212"/>
</svg>
