<svg width="18" height="20" viewBox="0 0 18 20" fill="none" xmlns="http://www.w3.org/2000/svg">
<path d="M15.5455 8.25V6.6C15.5455 4.84957 14.8558 3.17084 13.6283 1.9331C12.4008 0.695355 10.736 0 9 0C7.26404 0 5.59918 0.695355 4.37166 1.9331C3.14415 3.17084 2.45455 4.84957 2.45455 6.6V8.25C2.43445 8.75322 2.31168 9.24687 2.09391 9.7001C1.87613 10.1533 1.56802 10.5564 1.18882 10.8842C0.507433 11.4697 0.0806595 12.301 0 13.2C0 15.2625 3.36436 16.5 9 16.5C14.6356 16.5 18 15.2625 18 13.2C17.9193 12.301 17.4926 11.4697 16.8112 10.8842C16.432 10.5564 16.1239 10.1533 15.9061 9.7001C15.6883 9.24687 15.5655 8.75322 15.5455 8.25Z" fill="#101212"/>
<path d="M6.5 18C6.66689 18.5799 6.99938 19.0865 7.44905 19.4463C7.89871 19.806 8.44207 20 9 20C9.55793 20 10.1013 19.806 10.551 19.4463C11.0006 19.0865 11.3331 18.5799 11.5 18C10.7172 18.0629 9.88529 18.0954 9 18.0954C8.11471 18.0954 7.28284 18.0649 6.5 18Z" fill="#101212"/>
</svg>
