<svg width="16" height="16" viewBox="0 0 16 16" fill="none" xmlns="http://www.w3.org/2000/svg">
<path fill-rule="evenodd" clip-rule="evenodd" d="M4.76302 2.71223C5.10604 3.14507 5.03323 3.77404 4.60038 4.11706C3.32036 5.13145 2.5 6.70172 2.5 8.46666C2.5 11.5275 4.96724 14 8 14C11.0328 14 13.5 11.5275 13.5 8.46666C13.5 6.70172 12.6796 5.13145 11.3996 4.11706C10.9668 3.77404 10.894 3.14507 11.237 2.71223C11.58 2.27938 12.209 2.20657 12.6418 2.54959C14.3815 3.92826 15.5 6.06705 15.5 8.46666C15.5 12.6224 12.147 16 8 16C3.85304 16 0.5 12.6224 0.5 8.46666C0.5 6.06705 1.6185 3.92826 3.35819 2.54959C3.79104 2.20657 4.42 2.27938 4.76302 2.71223Z" fill="#101212"/>
<path fill-rule="evenodd" clip-rule="evenodd" d="M8 0C8.55228 0 9 0.447715 9 1V6C9 6.55228 8.55228 7 8 7C7.44772 7 7 6.55228 7 6V1C7 0.447715 7.44772 0 8 0Z" fill="#101212"/>
</svg>
