<svg width="20" height="18" viewBox="0 0 20 18" fill="none" xmlns="http://www.w3.org/2000/svg">
<path d="M15.1436 5.59866C14.7781 5.39095 14.3081 5.39095 13.8903 5.59866L10.9661 7.31231L8.98172 8.40282L6.10966 10.1165C5.74412 10.3242 5.27415 10.3242 4.8564 10.1165L2.61097 8.76632C2.24543 8.55861 1.98433 8.14318 1.98433 7.67582V5.07938C1.98433 4.66395 2.19321 4.24852 2.61097 3.98887L4.8564 2.69065C5.22193 2.48294 5.69191 2.48294 6.10966 2.69065L8.35509 4.0408C8.72063 4.24852 8.98172 4.66395 8.98172 5.13131V6.84496L10.9661 5.70252V3.93694C10.9661 3.52151 10.7572 3.10608 10.3394 2.84644L6.16188 0.405786C5.79634 0.198071 5.32637 0.198071 4.90862 0.405786L0.626632 2.89837C0.208877 3.10608 0 3.52151 0 3.93694V8.81825C0 9.23368 0.208877 9.64911 0.626632 9.90875L4.8564 12.3494C5.22193 12.5571 5.69191 12.5571 6.10966 12.3494L8.98172 10.6877L10.9661 9.54525L13.8381 7.88353C14.2037 7.67582 14.6736 7.67582 15.0914 7.88353L17.3368 9.18175C17.7023 9.38947 17.9634 9.8049 17.9634 10.2723V12.8687C17.9634 13.2841 17.7546 13.6996 17.3368 13.9592L15.1436 15.2574C14.7781 15.4651 14.3081 15.4651 13.8903 15.2574L11.6449 13.9592C11.2794 13.7515 11.0183 13.3361 11.0183 12.8687V11.207L9.03394 12.3494V14.0631C9.03394 14.4785 9.24282 14.8939 9.66057 15.1536L13.8903 17.5942C14.2559 17.8019 14.7258 17.8019 15.1436 17.5942L19.3734 15.1536C19.7389 14.9458 20 14.5304 20 14.0631V9.12982C20 8.71439 19.7911 8.29896 19.3734 8.03932L15.1436 5.59866Z" fill="#101212"/>
</svg>
