<svg width="24" height="24" viewBox="0 0 24 24" fill="none" xmlns="http://www.w3.org/2000/svg">
<path d="M13.4831 10.265V5.013C14.3805 5.13164 15.2569 5.37465 16.087 5.735C16.8296 6.10072 17.7283 5.79552 18.0949 5.05345C18.462 4.31037 18.1567 3.41 17.4131 3.044C16.1701 2.47896 14.8423 2.12251 13.4831 1.989V1C13.4831 0.447716 13.0338 0 12.4815 0C11.9293 0 11.48 0.447715 11.48 1V1.983C7.9376 2.289 5.69818 4.283 5.69818 7.247C5.69818 10.973 8.87703 12.097 11.48 12.824V18.09C10.0336 18.0127 8.60471 17.7371 7.23352 17.271C6.45466 16.9905 5.59227 17.3925 5.31064 18.171C5.02858 18.9506 5.43308 19.8115 6.21296 20.093C7.91073 20.6809 9.68484 21.0201 11.48 21.1V23C11.48 23.5523 11.9293 24 12.4815 24C13.0338 24 13.4831 23.5523 13.4831 23V21.087C18.6159 20.656 19.1998 17.311 19.1998 15.823C19.1998 12.129 16.074 10.993 13.4831 10.265ZM8.70277 7.247C8.70277 5.647 10.3052 5.147 11.48 4.998V9.69C9.5771 9.092 8.70277 8.523 8.70277 7.247ZM13.4831 18.072V13.4C15.3429 13.991 16.1952 14.561 16.1952 15.822C16.1952 16.382 16.1872 17.769 13.4831 18.072Z" fill="#101212"/>
</svg>
