<svg width="12" height="12" viewBox="0 0 12 12" fill="none" xmlns="http://www.w3.org/2000/svg">
<path fill-rule="evenodd" clip-rule="evenodd" d="M10.7887 6C10.7869 6.2435 10.7641 6.48645 10.7206 6.7265L11.8374 7.74C11.9227 7.81751 11.978 7.9196 11.9945 8.03004C12.011 8.14047 11.9877 8.25292 11.9284 8.3495L11.1303 9.6495C11.0835 9.72558 11.0163 9.78875 10.9353 9.83263C10.8543 9.87652 10.7625 9.89959 10.669 9.8995C10.6195 9.89929 10.5703 9.8929 10.5227 9.8805L9.03287 9.4805C8.63017 9.78905 8.17679 10.0341 7.69047 10.206L7.3143 11.621C7.28558 11.7292 7.21918 11.8253 7.12566 11.894C7.03215 11.9626 6.91688 12 6.7982 12H5.202C5.08366 11.9997 4.96882 11.9623 4.87563 11.8937C4.78245 11.8252 4.71625 11.7294 4.68749 11.6215L4.31132 10.2065C3.82425 10.0348 3.37015 9.78974 2.96679 9.481L1.47701 9.881C1.42935 9.8934 1.38014 9.89979 1.33069 9.9C1.2372 9.90009 1.14534 9.87702 1.06436 9.83313C0.983377 9.78925 0.916129 9.72608 0.869386 9.65L0.071287 8.35C0.0120835 8.25347 -0.0111179 8.14113 0.00536519 8.0308C0.0218483 7.92047 0.0770714 7.81847 0.16227 7.741L1.27961 6.7265C1.2361 6.48645 1.21333 6.2435 1.2115 6C1.21336 5.75667 1.23613 5.51388 1.27961 5.274L0.16227 4.2595C0.0769466 4.18199 0.0216456 4.0799 0.00515985 3.96946C-0.0113259 3.85903 0.0119501 3.74658 0.071287 3.65L0.869386 2.35C0.929473 2.25389 1.02171 2.17917 1.13171 2.13748C1.24172 2.09578 1.36331 2.08946 1.47754 2.1195L2.96732 2.5195C3.37003 2.21095 3.8234 1.96593 4.30972 1.794L4.68589 0.379C4.71462 0.270784 4.78102 0.174699 4.87453 0.106025C4.96805 0.0373507 5.08331 3.08115e-05 5.202 0H6.7982C6.91688 3.08115e-05 7.03215 0.0373507 7.12566 0.106025C7.21918 0.174699 7.28558 0.270784 7.3143 0.379L7.68834 1.794C8.17541 1.96573 8.62952 2.21076 9.03287 2.5195L10.5227 2.1195C10.6369 2.08937 10.7585 2.09565 10.8685 2.13735C10.9786 2.17906 11.0708 2.25383 11.1308 2.35L11.9289 3.65C11.9881 3.74653 12.0113 3.85887 11.9948 3.9692C11.9783 4.07953 11.9231 4.18153 11.8379 4.259L10.7206 5.2735C10.7641 5.51355 10.7869 5.7565 10.7887 6ZM5.99976 3.99998C4.89519 3.99998 3.99976 4.89542 3.99976 5.99998C3.99976 7.10455 4.89519 7.99998 5.99976 7.99998C7.10433 7.99998 7.99976 7.10455 7.99976 5.99998C7.99976 4.89542 7.10433 3.99998 5.99976 3.99998Z" fill="#101212"/>
</svg>
