<svg width="16" height="16" viewBox="0 0 16 16" fill="none" xmlns="http://www.w3.org/2000/svg">
<g clip-path="url(#clip0_804_454)">
<path fill-rule="evenodd" clip-rule="evenodd" d="M8 0C5.82733 0 5.55467 0.00933333 4.70133 0.048C3.40133 0.107333 2.25933 0.426 1.34267 1.34267C0.426 2.25933 0.107333 3.40133 0.048 4.70133C0.00933333 5.55467 0 5.82733 0 8C0 10.1727 0.00933333 10.4453 0.048 11.2987C0.107333 12.5987 0.426 13.7407 1.34267 14.6573C2.25933 15.574 3.40133 15.8927 4.70133 15.952C5.55467 15.9907 5.82733 16 8 16C10.1727 16 10.4453 15.9907 11.2987 15.952C12.5987 15.8927 13.7407 15.574 14.6573 14.6573C15.574 13.7407 15.8927 12.5987 15.952 11.2987C15.9907 10.4453 16 10.1727 16 8C16 5.82733 15.9907 5.55467 15.952 4.70133C15.8927 3.40133 15.574 2.25933 14.6573 1.34267C13.7407 0.426 12.5987 0.107333 11.2987 0.048C10.4453 0.00933333 10.1727 0 8 0ZM7.99994 3.89214C5.73128 3.89214 3.89194 5.73147 3.89194 8.00014C3.89194 10.2688 5.73128 12.1081 7.99994 12.1081C10.2686 12.1081 12.1079 10.2688 12.1079 8.00014C12.1079 5.73147 10.2686 3.89214 7.99994 3.89214ZM7.99994 10.6668C6.52728 10.6668 5.33328 9.47281 5.33328 8.00014C5.33328 6.52747 6.52728 5.33347 7.99994 5.33347C9.47261 5.33347 10.6666 6.52747 10.6666 8.00014C10.6666 9.47281 9.47261 10.6668 7.99994 10.6668ZM13.2308 3.72938C13.2308 4.25958 12.801 4.68938 12.2708 4.68938C11.7406 4.68938 11.3108 4.25958 11.3108 3.72938C11.3108 3.19919 11.7406 2.76938 12.2708 2.76938C12.801 2.76938 13.2308 3.19919 13.2308 3.72938Z" fill="#101212"/>
</g>
<defs>
<clipPath id="clip0_804_454">
<rect width="16" height="16" fill="white"/>
</clipPath>
</defs>
</svg>
