<svg width="20" height="20" viewBox="0 0 20 20" fill="none" xmlns="http://www.w3.org/2000/svg">
<path d="M14.091 14.0909C14.9947 14.0909 15.7273 13.3583 15.7273 12.4545C15.7273 11.5508 14.9947 10.8182 14.091 10.8182C13.1872 10.8182 12.4546 11.5508 12.4546 12.4545C12.4546 13.3583 13.1872 14.0909 14.091 14.0909Z" stroke="#101212" stroke-width="2" stroke-linecap="round" stroke-linejoin="round"/>
<path d="M10.8182 5.90909C10.8182 6.88002 10.5303 7.82914 9.99085 8.63643C9.45143 9.44373 8.68474 10.0729 7.78772 10.4445C6.8907 10.8161 5.90365 10.9133 4.95138 10.7239C3.99911 10.5344 3.12439 10.0669 2.43784 9.38034C1.75129 8.69379 1.28375 7.81908 1.09433 6.86681C0.904911 5.91454 1.00213 4.92748 1.37368 4.03046C1.74524 3.13344 2.37445 2.36675 3.18175 1.82733C3.98904 1.28791 4.93817 1 5.90909 1C7.21106 1 8.45971 1.51721 9.38034 2.43784C10.301 3.35847 10.8182 4.60712 10.8182 5.90909V5.90909Z" stroke="#101212" stroke-width="2" stroke-linecap="round" stroke-linejoin="round"/>
<path d="M14.0909 5.90909H19V19H3.45454C2.80356 19 2.17924 18.7414 1.71892 18.2811C1.2586 17.8208 1 17.1964 1 16.5455V12.4545" stroke="#101212" stroke-width="2" stroke-linecap="round" stroke-linejoin="round"/>
<path d="M6.72718 5.09091L5.09082 6.72728" stroke="#101212" stroke-width="2" stroke-linecap="round" stroke-linejoin="round"/>
</svg>
