<svg width="20" height="20" viewBox="0 0 20 20" fill="none" xmlns="http://www.w3.org/2000/svg">
<path d="M5.83333 0C4.67961 0 3.5518 0.342119 2.59251 0.983094C1.63322 1.62407 0.88555 2.53511 0.444039 3.60101C0.00252753 4.66691 -0.112992 5.8398 0.112088 6.97136C0.337169 8.10291 0.89274 9.14231 1.70855 9.95812C2.52435 10.7739 3.56375 11.3295 4.69531 11.5546C5.82686 11.7797 6.99975 11.6641 8.06565 11.2226C9.13156 10.7811 10.0426 10.0334 10.6836 9.07416C11.3245 8.11487 11.6667 6.98706 11.6667 5.83333C11.6649 4.28678 11.0498 2.80407 9.95617 1.71049C8.86259 0.616913 7.37989 0.00176447 5.83333 0V0ZM8.08917 4.75583L4.75584 8.08916C4.59867 8.24096 4.38816 8.32496 4.16967 8.32306C3.95117 8.32116 3.74216 8.23352 3.58765 8.07901C3.43315 7.92451 3.34551 7.7155 3.34361 7.497C3.34171 7.2785 3.4257 7.068 3.5775 6.91083L6.91083 3.5775C6.98771 3.49791 7.07966 3.43442 7.18133 3.39075C7.283 3.34707 7.39235 3.32409 7.503 3.32312C7.61365 3.32216 7.72338 3.34325 7.8258 3.38515C7.92821 3.42705 8.02125 3.48893 8.0995 3.56717C8.17774 3.64541 8.23962 3.73846 8.28152 3.84087C8.32342 3.94328 8.34451 4.05302 8.34354 4.16367C8.34258 4.27432 8.31959 4.38367 8.27592 4.48534C8.23225 4.58701 8.16876 4.67896 8.08917 4.75583Z" fill="#101212"/>
<path d="M19.1667 5H13.2842C13.3161 5.27664 13.3325 5.55485 13.3333 5.83333C13.3345 7.38499 12.8541 8.89877 11.9583 10.1657C11.0625 11.4327 9.79546 12.3903 8.33218 12.9065C6.86889 13.4227 5.28146 13.4719 3.78899 13.0474C2.29652 12.6229 0.972615 11.7457 0 10.5367V16.6667C0 17.5507 0.351189 18.3986 0.976311 19.0237C1.60143 19.6488 2.44928 20 3.33333 20H19.1667C19.3877 20 19.5996 19.9122 19.7559 19.7559C19.9122 19.5996 20 19.3877 20 19.1667V5.83333C20 5.61232 19.9122 5.40036 19.7559 5.24408C19.5996 5.0878 19.3877 5 19.1667 5ZM15 14.1667C14.6704 14.1667 14.3481 14.0689 14.074 13.8858C13.8 13.7026 13.5863 13.4423 13.4602 13.1378C13.3341 12.8333 13.301 12.4982 13.3654 12.1748C13.4297 11.8515 13.5884 11.5546 13.8215 11.3215C14.0546 11.0884 14.3515 10.9297 14.6748 10.8654C14.9981 10.801 15.3333 10.8341 15.6378 10.9602C15.9423 11.0863 16.2026 11.3 16.3858 11.574C16.5689 11.8481 16.6667 12.1704 16.6667 12.5C16.6667 12.942 16.4911 13.3659 16.1785 13.6785C15.8659 13.9911 15.442 14.1667 15 14.1667Z" fill="#101212"/>
</svg>
