<svg width="20" height="20" viewBox="0 0 20 20" fill="none" xmlns="http://www.w3.org/2000/svg">
<path fill-rule="evenodd" clip-rule="evenodd" d="M17.9812 10C17.9781 10.4058 17.9402 10.8108 17.8676 11.2108L19.729 12.9C19.8712 13.0292 19.9634 13.1993 19.9908 13.3834C20.0183 13.5675 19.9795 13.7549 19.8806 13.9158L18.5505 16.0825C18.4726 16.2093 18.3605 16.3146 18.2255 16.3877C18.0905 16.4609 17.9374 16.4993 17.7816 16.4992C17.6992 16.4988 17.6172 16.4882 17.5378 16.4675L15.0548 15.8008C14.3836 16.3151 13.628 16.7235 12.8175 17.01L12.1905 19.3683C12.1426 19.5487 12.032 19.7088 11.8761 19.8233C11.7202 19.9377 11.5281 19.9999 11.3303 20H8.67C8.47277 19.9994 8.28136 19.9371 8.12606 19.8229C7.97075 19.7086 7.86041 19.549 7.81249 19.3692L7.18553 17.0108C6.37375 16.7246 5.61691 16.3162 4.94465 15.8017L2.46168 16.4683C2.38224 16.489 2.30023 16.4997 2.21781 16.5C2.062 16.5001 1.90891 16.4617 1.77393 16.3886C1.63896 16.3154 1.52688 16.2101 1.44898 16.0833L0.118812 13.9167C0.0201391 13.7558 -0.0185298 13.5686 0.00894199 13.3847C0.0364138 13.2008 0.128452 13.0308 0.270451 12.9017L2.13268 11.2108C2.06017 10.8108 2.02221 10.4058 2.01917 10C2.02226 9.59445 2.06022 9.1898 2.13268 8.79L0.270451 7.09917C0.128244 6.96999 0.0360759 6.79984 0.00859974 6.61577C-0.0188764 6.43171 0.0199169 6.2443 0.118812 6.08333L1.44898 3.91667C1.54912 3.75649 1.70285 3.63195 1.88619 3.56246C2.06953 3.49297 2.27218 3.48244 2.46256 3.5325L4.94554 4.19917C5.61672 3.68492 6.37234 3.27654 7.18287 2.99L7.80982 0.631667C7.85769 0.451307 7.96836 0.291165 8.12422 0.176708C8.28008 0.0622511 8.47219 5.13525e-05 8.67 0H11.3303C11.5281 5.13525e-05 11.7202 0.0622511 11.8761 0.176708C12.032 0.291165 12.1426 0.451307 12.1905 0.631667L12.8139 2.99C13.6257 3.27622 14.3825 3.68461 15.0548 4.19917L17.5378 3.5325C17.7281 3.48229 17.9308 3.49275 18.1142 3.56226C18.2976 3.63176 18.4513 3.75639 18.5514 3.91667L19.8815 6.08333C19.9802 6.24421 20.0189 6.43145 19.9914 6.61533C19.9639 6.79922 19.8719 6.96921 19.7299 7.09833L17.8676 8.78917C17.9402 9.18924 17.9781 9.59417 17.9812 10ZM10 6.66667C8.15905 6.66667 6.66667 8.15905 6.66667 10C6.66667 11.8409 8.15905 13.3333 10 13.3333C11.8409 13.3333 13.3333 11.8409 13.3333 10C13.3333 8.15905 11.8409 6.66667 10 6.66667Z" fill="#101212"/>
</svg>
