<svg width="20" height="20" viewBox="0 0 20 20" fill="none" xmlns="http://www.w3.org/2000/svg">
<path d="M11.2361 8.55417V4.1775C11.9839 4.27637 12.7142 4.47887 13.406 4.77917C14.0248 5.08393 14.7737 4.8296 15.0792 4.21121C15.3852 3.59198 15.1307 2.84167 14.5111 2.53667C13.4752 2.0658 12.3687 1.76876 11.2361 1.6575V0.834608C11.2361 0.373666 10.8624 0 10.4014 0C9.94051 0 9.56684 0.373667 9.56684 0.834608V1.6525C6.61483 1.9075 4.74864 3.56917 4.74864 6.03917C4.74864 9.14417 7.39769 10.0808 9.56684 10.6867V15.075C8.3615 15.0106 7.17075 14.7809 6.0281 14.3925C5.37905 14.1587 4.66039 14.4937 4.4257 15.1425C4.19064 15.7922 4.52773 16.5096 5.17763 16.7442C6.59244 17.2341 8.07086 17.5167 9.56684 17.5833V19.1654C9.56684 19.6263 9.94051 20 10.4014 20C10.8624 20 11.2361 19.6263 11.2361 19.1654V17.5725C15.5134 17.2133 16 14.4258 16 13.1858C16 10.1075 13.3952 9.16083 11.2361 8.55417ZM7.25247 6.03917C7.25247 4.70583 8.58784 4.28917 9.56684 4.165V8.075C7.98108 7.57667 7.25247 7.1025 7.25247 6.03917ZM11.2361 15.06V11.1667C12.7859 11.6592 13.4962 12.1342 13.4962 13.185C13.4962 13.6517 13.4895 14.8075 11.2361 15.06Z" fill="#101212"/>
</svg>
