<svg width="20" height="20" viewBox="0 0 20 20" fill="none" xmlns="http://www.w3.org/2000/svg">
<path d="M1 9.42335C1 6.3703 2.4807 3.64731 4.86627 1.99701C5.68888 1.4194 7.08732 1.25437 7.58089 1.99701C8.4035 2.98719 6.9228 4.47246 7.58089 5.29761C9.22611 7.27797 12.5988 3.39976 16.6296 5.29761C19.5087 6.78288 19.0974 10.496 18.7684 11.8988C17.699 15.6945 14.1618 18.5 10.0487 18.5C5.03079 18.5 1 14.4568 1 9.42335Z" stroke="#101212" stroke-width="2" stroke-linecap="round" stroke-linejoin="round"/>
<circle cx="5" cy="9.25" r="1.5" fill="#101212"/>
<circle cx="7" cy="13.5" r="1.5" fill="#101212"/>
<path d="M13.75 12C14.7165 12 15.5 11.2165 15.5 10.25C15.5 9.2835 14.7165 8.5 13.75 8.5C12.7835 8.5 12 9.2835 12 10.25C12 11.2165 12.7835 12 13.75 12Z" stroke="#101212" stroke-width="2" stroke-linecap="round" stroke-linejoin="round"/>
</svg>
