<svg width="20" height="20" viewBox="0 0 20 20" fill="none" xmlns="http://www.w3.org/2000/svg">
<g clip-path="url(#clip0_595_486)">
<path fill-rule="evenodd" clip-rule="evenodd" d="M4.29586 1.05548C1.64522 2.89993 0 5.94328 0 9.35551C0 14.9811 4.47866 19.5 10.0541 19.5C14.6242 19.5 18.5544 16.3644 19.7427 12.1222C20.1083 10.5544 20.5653 6.40439 17.3662 4.74438C14.9941 3.62093 12.8271 4.30846 11.0418 4.8749C9.45635 5.37791 8.17191 5.78543 7.3121 4.74438C6.96583 4.30767 7.15248 3.70551 7.3479 3.07501C7.56516 2.37407 7.79328 1.63809 7.3121 1.05548C6.76369 0.225477 5.20987 0.409922 4.29586 1.05548ZM5 10.75C5.82843 10.75 6.5 10.0784 6.5 9.25C6.5 8.42157 5.82843 7.75 5 7.75C4.17157 7.75 3.5 8.42157 3.5 9.25C3.5 10.0784 4.17157 10.75 5 10.75ZM8.5 13.5C8.5 14.3284 7.82843 15 7 15C6.17157 15 5.5 14.3284 5.5 13.5C5.5 12.6716 6.17157 12 7 12C7.82843 12 8.5 12.6716 8.5 13.5ZM13 10C13 9.44771 13.4477 9 14 9C14.5523 9 15 9.44771 15 10C15 10.5523 14.5523 11 14 11C13.4477 11 13 10.5523 13 10ZM14 7C12.3431 7 11 8.34315 11 10C11 11.6569 12.3431 13 14 13C15.6569 13 17 11.6569 17 10C17 8.34315 15.6569 7 14 7Z" fill="#101212"/>
</g>
<defs>
<clipPath id="clip0_595_486">
<rect width="20" height="20" fill="white"/>
</clipPath>
</defs>
</svg>
