<svg width="16" height="14" viewBox="0 0 16 14" fill="none" xmlns="http://www.w3.org/2000/svg">
<path d="M15.9896 12.4983C15.9896 12.2881 15.8088 12.1078 15.5979 12.1078C14.4028 12.1078 13.2178 11.9576 12.1031 11.5771C11.5106 11.3768 10.9281 11.0764 10.436 10.6759C11.4704 9.78472 12.3541 8.73333 12.9768 7.5117C13.2881 6.89087 13.5392 6.18994 13.4488 5.479C13.3082 4.44762 12.4546 3.84682 11.4503 3.78674C9.8234 3.65657 8.40739 4.59782 7.71444 6.03974C7.37299 6.74067 7.22235 7.53173 7.27257 8.31277C7.31274 9.1639 7.61402 9.96496 8.08602 10.6459C6.87086 11.4069 5.48498 11.8875 4.06897 11.8975C3.71747 11.8975 3.35594 11.8775 3.01449 11.8074C2.69312 11.7373 2.37176 11.6071 2.14078 11.3768C1.66877 10.8862 1.73907 10.1652 1.89976 9.51436C2.29142 8.1125 3.17517 6.86083 4.15935 5.78941C5.10336 4.77806 6.4792 3.64656 7.89521 3.29609C8.33709 3.18595 8.65845 2.81545 8.72875 2.36485C8.74884 2.19463 8.76892 2.0244 8.76892 1.84416C8.76892 1.66392 8.73879 1.36352 8.70866 1.15324C8.64841 0.812789 8.33709 0.572469 7.9856 0.602509C7.7044 0.622536 7.42321 0.672602 7.15206 0.742695C5.44481 1.20331 4.00871 2.40491 2.87389 3.70664C1.43779 5.36885 0.0820373 7.72198 0.00169623 9.96496C-0.0384743 11.4269 0.634382 12.6786 2.07048 13.1592C2.57261 13.3294 3.10487 13.3895 3.62709 13.3995C5.56532 13.4196 7.44329 12.7587 9.05011 11.7173C9.38152 11.9977 9.7531 12.238 10.1448 12.4282C11.7315 13.2393 13.5392 13.3995 15.2866 13.3795C15.377 13.3795 15.4874 13.3795 15.5979 13.3795C15.8189 13.3795 16.0097 13.1993 15.9996 12.979V12.4983H15.9896ZM9.22084 8.81343C8.93965 7.59181 9.56229 6.10984 10.8176 5.74936C11.0285 5.68928 11.2595 5.65924 11.4804 5.66925C11.5306 5.66925 11.5809 5.67926 11.621 5.68928C11.6612 5.69929 11.6813 5.7093 11.7114 5.73934C11.7817 5.80944 11.7516 5.97966 11.7415 6.10984C11.6913 6.45029 11.5507 6.83079 11.38 7.15122C10.908 8.02238 10.2552 8.85349 9.49199 9.55442C9.37148 9.32411 9.2811 9.07378 9.22084 8.81343Z" fill="#101212"/>
</svg>
