<svg width="24" height="24" viewBox="0 0 24 24" fill="none" xmlns="http://www.w3.org/2000/svg">
<g clip-path="url(#clip0_810_485)">
<path d="M8.59961 10.2L15.3996 6.8" stroke="#101212" stroke-width="2" stroke-linecap="round" stroke-linejoin="round"/>
<path d="M8.59961 13.7L15.3996 17.1" stroke="#101212" stroke-width="2" stroke-linecap="round" stroke-linejoin="round"/>
<path d="M5 16C7.20914 16 9 14.2091 9 12C9 9.79086 7.20914 8 5 8C2.79086 8 1 9.79086 1 12C1 14.2091 2.79086 16 5 16Z" stroke="#101212" stroke-width="2" stroke-linecap="round" stroke-linejoin="round"/>
<path d="M19 9C21.2091 9 23 7.20914 23 5C23 2.79086 21.2091 1 19 1C16.7909 1 15 2.79086 15 5C15 7.20914 16.7909 9 19 9Z" stroke="#101212" stroke-width="2" stroke-linecap="round" stroke-linejoin="round"/>
<path d="M19 23C21.2091 23 23 21.2091 23 19C23 16.7909 21.2091 15 19 15C16.7909 15 15 16.7909 15 19C15 21.2091 16.7909 23 19 23Z" stroke="#101212" stroke-width="2" stroke-linecap="round" stroke-linejoin="round"/>
</g>
<defs>
<clipPath id="clip0_810_485">
<rect width="24" height="24" fill="white"/>
</clipPath>
</defs>
</svg>
