<svg width="16" height="16" viewBox="0 0 16 16" fill="none" xmlns="http://www.w3.org/2000/svg">
<path d="M8.98904 6.84333V3.342C9.5873 3.42109 10.1716 3.5831 10.725 3.82333C11.22 4.06715 11.8192 3.86368 12.0636 3.36896C12.3083 2.87358 12.1048 2.27333 11.609 2.02933C10.7804 1.65264 9.89517 1.41501 8.98904 1.326V0.667687C8.98904 0.298933 8.69011 0 8.32135 0C7.9526 0 7.65367 0.298933 7.65367 0.667687V1.322C5.29206 1.526 3.79911 2.85533 3.79911 4.83133C3.79911 7.31533 5.91835 8.06467 7.65367 8.54933V12.06C6.68939 12.0085 5.7368 11.8248 4.82267 11.514C4.30343 11.327 3.7285 11.595 3.54075 12.114C3.35271 12.6338 3.62238 13.2077 4.1423 13.3953C5.27415 13.7872 6.45688 14.0134 7.65367 14.0667V15.3323C7.65367 15.7011 7.9526 16 8.32135 16C8.69011 16 8.98904 15.7011 8.98904 15.3323V14.058C12.4109 13.7707 12.8002 11.5407 12.8002 10.5487C12.8002 8.086 10.7163 7.32867 8.98904 6.84333ZM5.80217 4.83133C5.80217 3.76467 6.87047 3.43133 7.65367 3.332V6.46C6.38506 6.06133 5.80217 5.682 5.80217 4.83133ZM8.98904 12.048V8.93333C10.2289 9.32733 10.7971 9.70733 10.7971 10.548C10.7971 10.9213 10.7918 11.846 8.98904 12.048Z" fill="#101212"/>
</svg>
