<svg width="16" height="16" viewBox="0 0 16 16" fill="none" xmlns="http://www.w3.org/2000/svg">
<path d="M2 2H7.61134L13.6475 8.0362C13.7593 8.14787 13.8479 8.28046 13.9084 8.42639C13.9689 8.57233 14 8.72875 14 8.88672C14 9.04469 13.9689 9.20111 13.9084 9.34705C13.8479 9.49298 13.7593 9.62557 13.6475 9.73724L9.73724 13.6475C9.62557 13.7593 9.49298 13.8479 9.34705 13.9084C9.20111 13.9689 9.04469 14 8.88672 14C8.72875 14 8.57233 13.9689 8.42639 13.9084C8.28046 13.8479 8.14787 13.7593 8.0362 13.6475L2 7.61134V2Z" stroke="#101212" stroke-width="2" stroke-linecap="round" stroke-linejoin="round"/>
<path d="M5.75 7C6.44036 7 7 6.44036 7 5.75C7 5.05964 6.44036 4.5 5.75 4.5C5.05964 4.5 4.5 5.05964 4.5 5.75C4.5 6.44036 5.05964 7 5.75 7Z" fill="#101212"/>
</svg>
