<svg width="24" height="24" viewBox="0 0 24 24" fill="none" xmlns="http://www.w3.org/2000/svg">
<g clip-path="url(#clip0_593_335)">
<path d="M9.68286 4.94854C9.93442 5.03245 10.209 5.01301 10.4462 4.8945C10.6835 4.77598 10.8639 4.56808 10.9479 4.31654L11.9479 1.31654C12.0317 1.06458 12.012 0.789653 11.8931 0.552232C11.7742 0.314811 11.5658 0.134346 11.3139 0.0505373C11.0619 -0.0332711 10.787 -0.0135579 10.5496 0.10534C10.3121 0.224238 10.1317 0.432582 10.0479 0.684537L9.04786 3.68454C9.00653 3.80923 8.99017 3.94084 8.99971 4.07185C9.00926 4.20286 9.04452 4.33071 9.10349 4.44809C9.16246 4.56547 9.24398 4.67009 9.34339 4.75595C9.4428 4.84182 9.55815 4.90726 9.68286 4.94854Z" fill="#101212"/>
<path d="M22.6832 12.0525L19.6832 13.0525C19.5585 13.094 19.4431 13.1597 19.3437 13.2458C19.2444 13.3319 19.1629 13.4367 19.104 13.5542C19.0452 13.6718 19.01 13.7998 19.0006 13.9309C18.9912 14.0621 19.0077 14.1938 19.0492 14.3185C19.0907 14.4433 19.1564 14.5587 19.2425 14.658C19.3285 14.7574 19.4334 14.8389 19.5509 14.8977C19.6685 14.9566 19.7965 14.9917 19.9276 15.0011C20.0588 15.0106 20.1905 14.994 20.3152 14.9525L23.3152 13.9525C23.44 13.911 23.5553 13.8454 23.6547 13.7593C23.7541 13.6732 23.8355 13.5684 23.8944 13.4508C23.9533 13.3333 23.9884 13.2053 23.9978 13.0741C24.0072 12.943 23.9907 12.8113 23.9492 12.6865C23.9077 12.5618 23.8421 12.4464 23.756 12.347C23.6699 12.2477 23.5651 12.1662 23.4475 12.1073C23.33 12.0485 23.202 12.0133 23.0708 12.0039C22.9397 11.9945 22.808 12.011 22.6832 12.0525Z" fill="#101212"/>
<path d="M15.999 6.50053C17.3797 6.50053 18.499 5.38125 18.499 4.00053C18.499 2.61982 17.3797 1.50053 15.999 1.50053C14.6183 1.50053 13.499 2.61982 13.499 4.00053C13.499 5.38125 14.6183 6.50053 15.999 6.50053Z" fill="#101212"/>
<path d="M14.999 10.0005C14.999 10.2658 15.1044 10.5201 15.2919 10.7076C15.4795 10.8952 15.7338 11.0005 15.999 11.0005C17.8549 10.9984 19.6341 10.2602 20.9464 8.94794C22.2587 7.63565 22.9969 5.8564 22.999 4.00053C22.999 3.73532 22.8937 3.48096 22.7061 3.29343C22.5186 3.10589 22.2642 3.00053 21.999 3.00053C21.7338 3.00053 21.4795 3.10589 21.2919 3.29343C21.1044 3.48096 20.999 3.73532 20.999 4.00053C20.9974 5.32613 20.4701 6.59698 19.5328 7.53431C18.5955 8.47165 17.3246 8.99895 15.999 9.00053C15.7338 9.00053 15.4795 9.10589 15.2919 9.29343C15.1044 9.48096 14.999 9.73532 14.999 10.0005Z" fill="#101212"/>
<path d="M7.70614 5.29354C7.58667 5.17407 7.43889 5.08682 7.27659 5.03993C7.11428 4.99304 6.94273 4.98803 6.77797 5.02538C6.6132 5.06273 6.46058 5.14121 6.33436 5.2535C6.20813 5.3658 6.11241 5.50824 6.05614 5.66754L0.0561367 22.6675C-0.00673707 22.8455 -0.017961 23.0376 0.0237625 23.2217C0.065486 23.4058 0.158453 23.5743 0.291917 23.7078C0.42538 23.8412 0.593891 23.9342 0.777967 23.9759C0.962044 24.0176 1.15417 24.0064 1.33214 23.9435L18.3321 17.9435C18.4914 17.8873 18.6339 17.7915 18.7462 17.6653C18.8585 17.5391 18.9369 17.3865 18.9743 17.2217C19.0116 17.0569 19.0066 16.8854 18.9597 16.7231C18.9128 16.5608 18.8256 16.413 18.7061 16.2935L7.70614 5.29354ZM2.63814 21.3615L3.84314 17.9465L4.73514 20.6215L2.63814 21.3615ZM8.01614 19.4615L5.72914 12.6005L6.82914 9.48554L9.92914 18.7855L8.01614 19.4615ZM12.9161 17.7335L10.7161 11.1195L14.2161 14.6195L14.9991 17.0005L12.9161 17.7335Z" fill="#101212"/>
</g>
<defs>
<clipPath id="clip0_593_335">
<rect width="24" height="24" fill="white"/>
</clipPath>
</defs>
</svg>
