<?xml version="1.0" encoding="UTF-8" standalone="no"?>
<!DOCTYPE svg PUBLIC "-//W3C//DTD SVG 1.1//EN" "http://www.w3.org/Graphics/SVG/1.1/DTD/svg11.dtd">
<svg width="100%" height="100%" viewBox="0 0 274 89" version="1.1" xmlns="http://www.w3.org/2000/svg" xmlns:xlink="http://www.w3.org/1999/xlink" xml:space="preserve" xmlns:serif="http://www.serif.com/" style="fill-rule:evenodd;clip-rule:evenodd;stroke-linejoin:round;stroke-miterlimit:2;">
    <g transform="matrix(1,0,0,1,-0.500001,-0.5)">
        <path d="M23.764,5.158C23.605,5.07 23.477,5.011 23.318,4.953C22.394,4.719 22.011,4.66 21.215,4.514C20.418,4.368 21.183,4.485 21.215,4.456C21.724,3.695 21.979,3.257 22.266,2.496C22.553,1.736 22.521,0.975 21.979,0.683C21.438,0.39 21.023,0.39 20.131,1.121C19.239,1.853 19.016,2.145 18.474,2.906L18.41,2.906C17.9,2.321 17.645,2.028 17.072,1.297C16.976,1.18 16.881,1.063 16.721,0.975C16.148,0.683 15.447,0.8 15.16,1.238C14.873,1.677 14.905,2.759 15.319,3.958C15.51,4.543 15.797,5.158 16.18,5.772C16.562,6.386 16.307,6.211 16.18,6.415C16.052,6.62 15.925,6.825 15.797,7.059C15.67,7.293 15.733,7.059 15.733,7.059C15.224,6.532 14.937,6.24 14.331,5.626C14.236,5.509 14.076,5.421 13.917,5.333C13.312,5.041 12.642,5.187 12.387,5.626C12.133,6.064 12.26,7.146 12.738,8.346C12.961,8.901 13.28,9.516 13.662,10.071C14.044,10.627 13.79,10.452 13.694,10.627C13.503,10.978 13.312,11.329 13.12,11.68C12.929,12.031 13.089,11.68 13.057,11.68C12.579,11.241 12.26,10.949 11.623,10.364C11.495,10.247 11.368,10.159 11.208,10.101C10.571,9.837 9.902,10.013 9.647,10.481C9.424,10.949 9.615,12.06 10.189,13.23C10.412,13.727 10.73,14.224 11.081,14.722C11.432,15.219 11.304,15.307 11.177,15.57C10.985,16.009 10.762,16.447 10.571,16.886C10.38,17.325 10.539,16.886 10.507,16.886C10.029,16.506 9.711,16.213 9.073,15.716C8.946,15.599 8.787,15.511 8.627,15.453C7.99,15.219 7.257,15.453 7.066,15.921C6.875,16.418 7.129,17.529 7.799,18.729C8.085,19.226 8.436,19.752 8.818,20.25C8.978,20.425 9.01,20.659 8.914,20.864C8.723,21.332 8.563,21.829 8.372,22.297C8.181,22.765 8.34,22.297 8.309,22.297C7.831,21.946 7.448,21.683 6.811,21.215C6.683,21.127 6.524,21.039 6.333,20.981C5.664,20.776 4.963,21.039 4.771,21.566C4.676,21.829 4.739,22.238 4.867,22.735C5.026,23.233 5.313,23.818 5.695,24.403C6.014,24.9 6.397,25.368 6.843,25.836C7.002,26.011 7.066,26.275 7.002,26.509C6.875,26.947 6.747,27.415 6.62,27.854C6.492,28.293 6.588,27.883 6.556,27.854C6.046,27.532 5.664,27.298 4.963,26.86C4.803,26.772 4.644,26.684 4.453,26.655C3.752,26.479 3.051,26.801 2.891,27.357C2.827,27.62 2.891,28.029 3.082,28.527C3.274,29.024 3.624,29.609 4.038,30.165C4.453,30.749 4.994,31.305 5.6,31.832C5.472,32.417 5.377,32.972 5.281,33.528C5.186,34.084 5.249,33.557 5.217,33.528C4.676,33.236 4.261,33.031 3.497,32.621C3.337,32.533 3.146,32.475 2.955,32.446C2.222,32.329 1.553,32.709 1.457,33.294C1.425,33.586 1.521,33.996 1.776,34.493C2.031,34.99 2.413,35.546 2.923,36.102C3.337,36.57 3.815,37.038 4.389,37.447C4.58,37.593 4.676,37.827 4.644,38.061C4.58,38.646 4.516,39.231 4.485,39.816C4.453,40.401 4.485,39.846 4.421,39.816C3.847,39.582 3.401,39.407 2.604,39.056C2.445,38.997 2.254,38.939 2.031,38.91C1.266,38.851 0.629,39.319 0.597,39.933C0.533,40.518 1.266,41.659 2.381,42.683C2.859,43.121 3.465,43.56 4.07,43.94C4.676,44.32 4.261,44.116 4.261,44.262L4.261,46.105C4.261,46.573 4.261,46.134 4.23,46.134C3.656,45.958 3.21,45.841 2.413,45.607C2.222,45.549 2.031,45.52 1.84,45.549C1.075,45.578 0.469,46.075 0.501,46.66C0.533,47.216 1.33,48.24 2.573,49.176C3.019,49.497 3.529,49.819 4.07,50.111C4.612,50.404 4.58,50.55 4.612,50.872C4.676,51.369 4.708,51.837 4.771,52.334C4.835,52.832 4.771,52.364 4.739,52.364C4.134,52.217 3.656,52.1 2.796,51.866C2.604,51.808 2.413,51.808 2.19,51.808C1.393,51.866 0.788,52.393 0.852,53.007C0.915,53.592 1.808,54.616 3.114,55.493C3.656,55.873 4.293,56.224 4.994,56.546C5.281,56.692 5.504,56.926 5.568,57.248C5.664,57.716 5.759,58.155 5.855,58.593C5.95,59.032 5.855,58.652 5.791,58.623C4.994,58.476 4.485,58.359 3.465,58.184C3.274,58.155 3.051,58.125 2.859,58.184C2.063,58.301 1.489,58.886 1.617,59.5C1.744,60.114 2.7,61.109 4.134,61.957C4.835,62.366 5.6,62.717 6.428,62.98C6.843,63.127 7.161,63.448 7.289,63.829C7.416,64.209 7.512,64.501 7.607,64.823C7.703,65.145 7.607,64.882 7.576,64.882C6.492,64.765 5.982,64.706 4.771,64.589C4.58,64.589 4.357,64.589 4.134,64.618C3.337,64.794 2.827,65.466 3.019,66.11C3.178,66.724 4.325,67.689 5.855,68.421C6.62,68.772 7.544,69.093 8.436,69.269L8.563,69.269C9.01,69.357 9.36,69.62 9.519,70.029C9.679,70.439 9.743,70.585 9.87,70.848C9.997,71.111 9.87,70.907 9.838,70.907L6.779,70.907C6.588,70.907 6.365,70.907 6.142,70.994C5.345,71.258 4.931,71.989 5.186,72.603C5.249,72.749 5.377,72.925 5.536,73.1C5.727,73.276 5.95,73.451 6.205,73.627C6.747,73.978 7.48,74.329 8.277,74.592C9.105,74.855 10.029,75.089 10.954,75.177L11.017,75.177C11.527,75.235 12.005,75.528 12.228,75.966C12.451,76.405 12.451,76.376 12.547,76.581C12.451,76.581 12.356,76.581 12.26,76.61C11.145,76.698 10.603,76.727 9.328,76.815C9.105,76.815 8.914,76.873 8.691,76.961C7.926,77.283 7.512,78.014 7.799,78.57C8.054,79.096 9.296,79.769 10.922,80.237C11.75,80.471 12.642,80.675 13.598,80.792C13.758,80.792 13.917,80.822 14.108,80.851C14.618,80.909 15.096,81.173 15.351,81.582C16.849,84.039 17.263,85.15 19.207,87.812C19.558,88.28 20.163,88.572 20.768,88.485C22.33,88.309 22.935,86.847 22.202,85.823C20.418,83.366 19.717,82.693 18.41,80.441C18.124,79.944 18.155,79.33 18.506,78.891C19.08,78.16 19.526,77.37 19.876,76.639C20.577,75.147 20.8,73.802 20.545,73.246C20.259,72.662 19.43,72.486 18.633,72.808C18.41,72.895 18.251,73.012 18.092,73.129C17.168,73.948 16.817,74.27 15.988,75.001C15.893,75.089 15.765,75.206 15.638,75.294C15.542,75.118 15.447,74.914 15.383,74.738C15.16,74.27 15.224,73.773 15.542,73.363C15.861,72.954 15.638,73.246 15.67,73.188C16.212,72.486 16.69,71.726 17.04,71.053C17.391,70.351 17.677,69.707 17.837,69.181C17.9,68.918 17.964,68.684 17.964,68.479C17.964,68.274 17.964,68.128 17.932,67.982C17.709,67.485 16.913,67.28 16.116,67.543C15.893,67.602 15.733,67.719 15.574,67.836C14.554,68.567 14.204,68.888 13.28,69.59C12.356,70.292 13.216,69.59 13.216,69.59C13.12,69.357 13.025,69.093 12.929,68.859C12.77,68.45 12.897,68.011 13.184,67.66C13.79,67.017 14.3,66.344 14.746,65.73C15.638,64.472 16.084,63.39 15.988,62.893C15.829,62.396 15.064,62.103 14.268,62.279C14.044,62.337 13.853,62.396 13.694,62.513C12.674,63.097 12.26,63.361 11.368,63.887L11.304,63.887C11.24,63.624 11.145,63.361 11.081,63.097C10.954,62.659 11.113,62.161 11.495,61.869C12.101,61.343 12.674,60.787 13.12,60.231C14.108,59.091 14.714,58.008 14.618,57.511C14.523,56.985 13.822,56.634 13.025,56.721C12.802,56.721 12.611,56.809 12.451,56.897C11.368,57.394 10.954,57.628 9.997,58.096L9.934,58.096C9.87,57.745 9.806,57.394 9.743,57.072C9.679,56.721 9.838,56.37 10.125,56.137C10.858,55.61 11.495,55.054 12.037,54.499C13.12,53.416 13.758,52.393 13.694,51.866C13.63,51.311 12.961,50.93 12.164,50.989C11.941,50.989 11.75,51.047 11.591,51.135C10.476,51.574 10.061,51.779 9.073,52.188C8.085,52.597 9.01,52.188 9.01,52.159C8.978,51.779 8.946,51.398 8.882,51.018C8.85,50.667 9.041,50.316 9.36,50.082C10.093,49.614 10.762,49.088 11.336,48.561C12.451,47.538 13.152,46.543 13.12,46.017C13.12,45.461 12.451,45.052 11.655,45.081C11.463,45.081 11.24,45.139 11.081,45.198C10.029,45.578 9.583,45.754 8.659,46.105C7.735,46.456 8.595,46.105 8.595,46.075L8.595,44.379C8.595,43.823 8.659,44.174 8.755,44.116C9.551,43.677 10.38,43.151 10.985,42.683C12.164,41.805 12.897,40.957 12.961,40.489C12.961,39.992 12.387,39.553 11.655,39.495C11.463,39.495 11.272,39.495 11.081,39.553C10.093,39.787 9.615,39.904 8.818,40.138C8.022,40.372 8.755,40.138 8.755,40.109C8.787,39.465 8.85,38.559 8.882,38.383C8.914,38.208 9.105,38.12 9.233,38.061C9.997,37.74 10.698,37.359 11.336,36.979C11.941,36.599 12.483,36.219 12.834,35.868C13.216,35.517 13.439,35.224 13.503,34.99C13.598,34.493 13.057,33.996 12.324,33.879C12.133,33.85 11.941,33.85 11.75,33.879C10.73,34.025 10.284,34.113 9.456,34.23C8.627,34.347 9.392,34.23 9.392,34.171C9.456,33.674 9.551,33.148 9.647,32.651C10.571,32.387 11.432,32.007 12.164,31.656C12.802,31.334 13.344,30.983 13.758,30.691C14.14,30.369 14.427,30.077 14.491,29.843C14.618,29.375 14.14,28.848 13.439,28.673C13.248,28.614 13.057,28.614 12.897,28.644C11.846,28.731 11.4,28.761 10.507,28.848C9.615,28.936 10.444,28.848 10.444,28.79C10.539,28.41 10.635,28.029 10.73,27.649C10.794,27.386 11.017,27.181 11.272,27.123C12.069,26.918 12.866,26.655 13.535,26.362C14.172,26.099 14.746,25.777 15.16,25.514C15.574,25.222 15.861,24.958 15.925,24.724C16.084,24.256 15.67,23.701 15.001,23.496C14.809,23.438 14.65,23.408 14.459,23.408C13.375,23.408 12.929,23.438 11.973,23.467C11.973,23.467 11.91,23.467 11.941,23.408C12.069,22.999 12.196,22.589 12.356,22.18C12.515,21.77 12.642,21.77 12.897,21.741C13.758,21.595 14.586,21.361 15.319,21.098C16.626,20.63 17.582,20.045 17.773,19.606C17.964,19.167 17.582,18.612 16.944,18.378C16.785,18.319 16.594,18.29 16.435,18.261C15.319,18.202 14.905,18.202 13.885,18.173C12.866,18.144 13.822,18.173 13.853,18.114C14.044,17.676 14.204,17.208 14.395,16.769C14.586,16.33 14.682,16.447 14.905,16.418C15.797,16.33 16.69,16.155 17.422,15.921C18.729,15.541 19.717,15.014 19.908,14.605C20.131,14.166 19.781,13.61 19.175,13.347C19.016,13.289 18.825,13.23 18.665,13.23C17.582,13.113 17.199,13.113 16.18,13.025C16.18,13.025 16.116,12.996 16.148,12.967C16.307,12.645 16.466,12.323 16.626,12.002C16.785,11.68 16.944,11.68 17.167,11.68C18.028,11.621 18.888,11.504 19.621,11.329C20.928,11.007 21.916,10.539 22.139,10.159C22.362,9.75 22.075,9.194 21.501,8.901C21.342,8.814 21.183,8.784 21.023,8.755C20.004,8.609 19.621,8.55 18.697,8.433C18.697,8.433 18.633,8.404 18.665,8.375C18.793,8.17 18.888,7.995 19.016,7.79C19.143,7.585 19.366,7.468 19.621,7.468C20.418,7.468 21.215,7.351 21.916,7.234C23.19,6.971 24.178,6.591 24.401,6.24C24.656,5.86 24.401,5.333 23.828,5.041L23.764,5.158Z" style="fill:rgb(217,219,224);fill-rule:nonzero;"/>
    </g>
    <g transform="matrix(1,0,0,1,-0.500001,-0.5)">
        <path d="M49.721,42.5L61.121,42.5L61.121,39.404L53.657,39.404L53.657,35.756L59.273,35.756L59.273,33.356L53.657,33.356L53.657,29.804L60.905,29.804L60.905,26.708L49.721,26.708L49.721,42.5ZM61.08,42.5L65.352,42.5L67.512,38.588L69.792,42.5L74.352,42.5L70.008,36.404L74.136,30.644L70.128,30.644L68.04,34.412L65.832,30.644L61.296,30.644L65.352,36.404L61.08,42.5ZM80.694,42.692C81.678,42.692 82.686,42.5 82.998,42.428L82.998,39.668C82.59,39.764 81.846,39.836 81.342,39.836C79.902,39.836 79.326,39.452 79.326,38.228L79.326,33.476L83.118,33.476L83.118,30.644L79.326,30.644L79.326,27.956L76.326,27.956L76.158,29.612C76.086,30.332 75.894,30.644 75.342,30.644L73.926,30.644L73.926,33.476L75.678,33.476L75.678,38.42C75.678,41.06 76.998,42.692 80.694,42.692ZM95.019,36.236C95.019,32.348 92.691,30.452 89.379,30.452C85.371,30.452 82.923,32.78 82.923,36.692C82.923,40.46 85.371,42.692 89.307,42.692C92.691,42.692 94.947,41.108 95.019,38.396L91.803,38.396C91.707,39.548 90.795,40.052 89.379,40.052C87.747,40.052 86.763,39.212 86.595,37.268L95.019,37.268L95.019,36.236ZM91.803,35.324L86.691,35.324C86.979,33.764 87.843,33.092 89.379,33.092C90.891,33.092 91.803,33.788 91.803,35.132L91.803,35.324ZM95.615,42.5L99.263,42.5L99.263,36.86C99.263,34.604 100.415,33.476 102.335,33.476C103.943,33.476 104.903,34.22 104.903,35.9L104.903,42.5L108.551,42.5L108.551,35.084C108.551,32.012 106.703,30.452 103.847,30.452C101.159,30.452 99.767,31.532 99.167,33.788L99.119,33.788L99.263,30.644L95.615,30.644L95.615,42.5ZM114.616,42.692C116.776,42.692 118.12,41.636 118.576,39.956L118.624,39.956C118.552,41.228 118.504,42.26 118.48,42.5L122.128,42.5L122.128,25.868L118.48,25.868L118.48,32.396L118.456,32.396C117.928,31.172 116.68,30.452 114.76,30.452C111.304,30.452 109.048,32.852 109.048,36.476C109.048,40.196 111.184,42.692 114.616,42.692ZM115.456,39.908C113.776,39.908 112.672,38.516 112.672,36.5C112.672,34.532 113.8,33.236 115.504,33.236C117.28,33.236 118.48,34.388 118.48,36.092L118.48,36.668C118.48,38.612 117.28,39.908 115.456,39.908ZM134.886,36.236C134.886,32.348 132.558,30.452 129.246,30.452C125.238,30.452 122.79,32.78 122.79,36.692C122.79,40.46 125.238,42.692 129.174,42.692C132.558,42.692 134.814,41.108 134.886,38.396L131.67,38.396C131.574,39.548 130.662,40.052 129.246,40.052C127.614,40.052 126.63,39.212 126.462,37.268L134.886,37.268L134.886,36.236ZM131.67,35.324L126.558,35.324C126.846,33.764 127.71,33.092 129.246,33.092C130.758,33.092 131.67,33.788 131.67,35.132L131.67,35.324ZM140.834,42.692C142.994,42.692 144.338,41.636 144.794,39.956L144.842,39.956C144.77,41.228 144.722,42.26 144.698,42.5L148.346,42.5L148.346,25.868L144.698,25.868L144.698,32.396L144.674,32.396C144.146,31.172 142.898,30.452 140.978,30.452C137.522,30.452 135.266,32.852 135.266,36.476C135.266,40.196 137.402,42.692 140.834,42.692ZM141.674,39.908C139.994,39.908 138.89,38.516 138.89,36.5C138.89,34.532 140.018,33.236 141.722,33.236C143.498,33.236 144.698,34.388 144.698,36.092L144.698,36.668C144.698,38.612 143.498,39.908 141.674,39.908ZM153.924,42.5L157.86,42.5L157.86,36.62L161.676,36.62C163.164,36.62 163.692,37.244 163.692,38.684L163.692,42.5L167.628,42.5L167.628,38.564C167.628,36.788 166.932,35.54 165.372,35.18L165.372,35.132C166.86,34.7 167.724,33.428 167.724,31.412C167.724,28.436 165.468,26.708 161.292,26.708L153.924,26.708L153.924,42.5ZM157.86,34.244L157.86,29.804L161.268,29.804C163.092,29.804 163.956,30.644 163.956,32.036C163.956,33.5 163.116,34.244 161.46,34.244L157.86,34.244ZM180.48,36.236C180.48,32.348 178.152,30.452 174.84,30.452C170.832,30.452 168.384,32.78 168.384,36.692C168.384,40.46 170.832,42.692 174.768,42.692C178.152,42.692 180.408,41.108 180.48,38.396L177.264,38.396C177.168,39.548 176.256,40.052 174.84,40.052C173.208,40.052 172.224,39.212 172.056,37.268L180.48,37.268L180.48,36.236ZM177.264,35.324L172.152,35.324C172.44,33.764 173.304,33.092 174.84,33.092C176.352,33.092 177.264,33.788 177.264,35.132L177.264,35.324ZM185.612,42.692C187.772,42.692 189.116,41.78 189.476,40.1L189.5,40.1C189.5,40.82 189.404,41.9 189.332,42.5L192.98,42.5L192.98,35.3C192.98,32.132 190.772,30.452 187.004,30.452C183.404,30.452 181.292,31.868 181.292,34.268C181.292,34.508 181.316,34.772 181.34,34.964L184.7,34.964C184.676,34.724 184.676,34.532 184.676,34.46C184.676,33.5 185.468,32.924 186.836,32.924C188.516,32.924 189.332,33.5 189.332,34.94L189.332,35.732L185.468,35.732C182.324,35.732 180.932,37.148 180.932,39.092C180.932,41.492 182.852,42.692 185.612,42.692ZM186.332,40.22C185.012,40.22 184.22,39.74 184.22,38.828C184.22,38.156 184.82,37.7 185.804,37.7L189.332,37.7L189.332,37.94C189.332,39.38 188.228,40.22 186.332,40.22ZM193.741,42.5L197.389,42.5L197.389,25.868L193.741,25.868L193.741,42.5ZM198.367,29.396L202.015,29.396L202.015,26.492L198.367,26.492L198.367,29.396ZM198.367,42.5L202.015,42.5L202.015,30.644L198.367,30.644L198.367,42.5ZM208.967,42.692C209.951,42.692 210.959,42.5 211.271,42.428L211.271,39.668C210.863,39.764 210.119,39.836 209.615,39.836C208.175,39.836 207.599,39.452 207.599,38.228L207.599,33.476L211.391,33.476L211.391,30.644L207.599,30.644L207.599,27.956L204.599,27.956L204.431,29.612C204.359,30.332 204.167,30.644 203.615,30.644L202.199,30.644L202.199,33.476L203.951,33.476L203.951,38.42C203.951,41.06 205.271,42.692 208.967,42.692ZM215.552,47.54C218,47.54 219.464,46.196 220.664,42.788L224.96,30.644L221.456,30.644L218.696,38.804L218.648,38.804L215.6,30.644L211.424,30.644L216.344,42.5L217.136,42.5C216.536,44.132 215.984,44.708 214.784,44.708C214.184,44.708 213.632,44.612 213.272,44.516L213.272,47.228C213.584,47.348 214.352,47.54 215.552,47.54Z" style="fill:rgb(16,18,18);fill-rule:nonzero;"/>
    </g>
    <g transform="matrix(1,0,0,1,-0.500001,-0.5)">
        <path d="M99.212,65.64C102.502,65.64 103.384,64.24 103.384,62.672C103.384,61.804 103.034,61.146 102.376,60.796C101.83,60.502 101.046,60.334 100.01,60.166C99.226,60.04 98.26,59.886 97.91,59.732C97.588,59.592 97.462,59.34 97.462,58.892C97.462,58.276 97.994,57.814 99.24,57.814C100.5,57.814 101.046,58.388 101.046,59.438L103.076,59.438C103.076,57.366 102.124,56.148 99.198,56.148C96.538,56.148 95.18,57.352 95.18,59.088C95.18,59.97 95.488,60.614 96.076,60.992C96.608,61.342 97.532,61.524 98.442,61.664C99.212,61.776 100.164,61.916 100.57,62.056C100.934,62.182 101.102,62.434 101.102,62.826C101.102,63.414 100.752,63.974 99.198,63.974C97.658,63.974 97.252,63.33 97.252,62.336L95.208,62.336C95.208,64.03 96.048,65.64 99.212,65.64ZM111.8,61.846C111.8,59.578 110.442,58.472 108.51,58.472C106.172,58.472 104.744,59.83 104.744,62.112C104.744,64.31 106.172,65.612 108.468,65.612C110.442,65.612 111.758,64.688 111.8,63.106L109.924,63.106C109.868,63.778 109.336,64.072 108.51,64.072C107.558,64.072 106.984,63.582 106.886,62.448L111.8,62.448L111.8,61.846ZM109.924,61.314L106.942,61.314C107.11,60.404 107.614,60.012 108.51,60.012C109.392,60.012 109.924,60.418 109.924,61.202L109.924,61.314ZM115.877,65.612C117.137,65.612 117.921,65.08 118.131,64.1L118.145,64.1C118.145,64.52 118.089,65.15 118.047,65.5L120.175,65.5L120.175,61.3C120.175,59.452 118.887,58.472 116.689,58.472C114.589,58.472 113.357,59.298 113.357,60.698C113.357,60.838 113.371,60.992 113.385,61.104L115.345,61.104C115.331,60.964 115.331,60.852 115.331,60.81C115.331,60.25 115.793,59.914 116.591,59.914C117.571,59.914 118.047,60.25 118.047,61.09L118.047,61.552L115.793,61.552C113.959,61.552 113.147,62.378 113.147,63.512C113.147,64.912 114.267,65.612 115.877,65.612ZM116.297,64.17C115.527,64.17 115.065,63.89 115.065,63.358C115.065,62.966 115.415,62.7 115.989,62.7L118.047,62.7L118.047,62.84C118.047,63.68 117.403,64.17 116.297,64.17ZM125.007,65.612C127.373,65.612 128.619,64.758 128.619,63.302C128.619,62.7 128.297,62.182 127.849,61.93C127.331,61.636 126.729,61.552 125.875,61.468C125.133,61.398 124.517,61.342 124.167,61.258C123.775,61.16 123.663,60.936 123.663,60.642C123.663,60.166 124.083,59.844 125.035,59.844C126.085,59.844 126.421,60.222 126.435,60.95L128.311,60.95C128.311,59.34 127.275,58.472 125.007,58.472C123.089,58.472 121.549,59.298 121.549,60.796C121.549,61.37 121.815,61.874 122.207,62.154C122.627,62.448 123.397,62.602 124.391,62.686C125.077,62.742 125.637,62.798 126.001,62.882C126.365,62.966 126.491,63.162 126.491,63.414C126.491,63.918 126.099,64.24 124.993,64.24C123.775,64.24 123.453,63.82 123.453,63.176L121.549,63.176C121.549,64.576 122.571,65.612 125.007,65.612ZM133.703,65.612C135.985,65.612 137.469,64.296 137.469,62.056C137.469,59.802 135.985,58.472 133.703,58.472C131.421,58.472 129.937,59.802 129.937,62.056C129.937,64.296 131.421,65.612 133.703,65.612ZM133.703,63.988C132.667,63.988 132.065,63.274 132.065,62.056C132.065,60.824 132.667,60.096 133.703,60.096C134.739,60.096 135.341,60.824 135.341,62.056C135.341,63.274 134.739,63.988 133.703,63.988ZM138.903,65.5L141.031,65.5L141.031,62.21C141.031,60.894 141.703,60.236 142.823,60.236C143.761,60.236 144.321,60.67 144.321,61.65L144.321,65.5L146.449,65.5L146.449,61.174C146.449,59.382 145.371,58.472 143.705,58.472C142.137,58.472 141.325,59.102 140.975,60.418L140.947,60.418L141.031,58.584L138.903,58.584L138.903,65.5ZM156.505,65.64C159.291,65.64 161.447,63.862 161.447,60.852C161.447,57.898 159.291,56.148 156.505,56.148C153.719,56.148 151.563,57.898 151.563,60.852C151.563,63.862 153.719,65.64 156.505,65.64ZM156.505,63.834C155.049,63.834 153.943,62.728 153.943,60.866C153.943,59.032 155.049,57.954 156.505,57.954C157.961,57.954 159.067,59.032 159.067,60.866C159.067,62.728 157.961,63.834 156.505,63.834ZM162.893,65.5L165.021,65.5L165.021,62.21C165.021,60.894 165.693,60.236 166.813,60.236C167.751,60.236 168.311,60.67 168.311,61.65L168.311,65.5L170.439,65.5L170.439,61.174C170.439,59.382 169.361,58.472 167.695,58.472C166.127,58.472 165.315,59.102 164.965,60.418L164.937,60.418L165.021,58.584L162.893,58.584L162.893,65.5ZM178.868,61.846C178.868,59.578 177.51,58.472 175.578,58.472C173.24,58.472 171.812,59.83 171.812,62.112C171.812,64.31 173.24,65.612 175.536,65.612C177.51,65.612 178.826,64.688 178.868,63.106L176.992,63.106C176.936,63.778 176.404,64.072 175.578,64.072C174.626,64.072 174.052,63.582 173.954,62.448L178.868,62.448L178.868,61.846ZM176.992,61.314L174.01,61.314C174.178,60.404 174.682,60.012 175.578,60.012C176.46,60.012 176.992,60.418 176.992,61.202L176.992,61.314Z" style="fill:rgb(134,144,160);fill-rule:nonzero;"/>
    </g>
    <g transform="matrix(1,0,0,1,-0.500001,-0.5)">
        <path d="M250.236,5.158C250.395,5.07 250.523,5.011 250.682,4.953C251.606,4.719 251.989,4.66 252.785,4.514C253.582,4.368 252.817,4.485 252.785,4.456C252.276,3.695 252.021,3.257 251.734,2.496C251.447,1.736 251.479,0.975 252.021,0.683C252.562,0.39 252.977,0.39 253.869,1.121C254.761,1.853 254.984,2.145 255.526,2.906L255.59,2.906C256.1,2.321 256.355,2.028 256.928,1.297C257.024,1.18 257.119,1.063 257.279,0.975C257.852,0.683 258.553,0.8 258.84,1.238C259.127,1.677 259.095,2.759 258.681,3.958C258.49,4.543 258.203,5.158 257.82,5.772C257.438,6.386 257.693,6.211 257.82,6.415C257.948,6.62 258.075,6.825 258.203,7.059C258.33,7.293 258.267,7.059 258.267,7.059C258.776,6.532 259.063,6.24 259.669,5.626C259.764,5.509 259.924,5.421 260.083,5.333C260.688,5.041 261.358,5.187 261.613,5.626C261.867,6.064 261.74,7.146 261.262,8.346C261.039,8.901 260.72,9.516 260.338,10.071C259.955,10.627 260.21,10.452 260.306,10.627C260.497,10.978 260.688,11.329 260.88,11.68C261.071,12.031 260.911,11.68 260.943,11.68C261.421,11.241 261.74,10.949 262.377,10.364C262.505,10.247 262.632,10.159 262.792,10.101C263.429,9.837 264.098,10.013 264.353,10.481C264.576,10.949 264.385,12.06 263.811,13.23C263.588,13.727 263.27,14.224 262.919,14.722C262.569,15.219 262.696,15.307 262.823,15.57C263.015,16.009 263.238,16.447 263.429,16.886C263.62,17.325 263.461,16.886 263.493,16.886C263.971,16.506 264.289,16.213 264.927,15.716C265.054,15.599 265.213,15.511 265.373,15.453C266.01,15.219 266.743,15.453 266.934,15.921C267.125,16.418 266.871,17.529 266.201,18.729C265.915,19.226 265.564,19.752 265.182,20.25C265.022,20.425 264.99,20.659 265.086,20.864C265.277,21.332 265.437,21.829 265.628,22.297C265.819,22.765 265.66,22.297 265.691,22.297C266.169,21.946 266.552,21.683 267.189,21.215C267.317,21.127 267.476,21.039 267.667,20.981C268.336,20.776 269.037,21.039 269.229,21.566C269.324,21.829 269.261,22.238 269.133,22.735C268.974,23.233 268.687,23.818 268.305,24.403C267.986,24.9 267.603,25.368 267.157,25.836C266.998,26.011 266.934,26.275 266.998,26.509C267.125,26.947 267.253,27.415 267.38,27.854C267.508,28.293 267.412,27.883 267.444,27.854C267.954,27.532 268.336,27.298 269.037,26.86C269.197,26.772 269.356,26.684 269.547,26.655C270.248,26.479 270.949,26.801 271.109,27.357C271.173,27.62 271.109,28.029 270.918,28.527C270.726,29.024 270.376,29.609 269.962,30.165C269.547,30.749 269.006,31.305 268.4,31.832C268.528,32.417 268.623,32.972 268.719,33.528C268.814,34.084 268.751,33.557 268.783,33.528C269.324,33.236 269.739,33.031 270.503,32.621C270.663,32.533 270.854,32.475 271.045,32.446C271.778,32.329 272.447,32.709 272.543,33.294C272.575,33.587 272.479,33.996 272.224,34.493C271.969,34.99 271.587,35.546 271.077,36.102C270.663,36.57 270.185,37.038 269.611,37.447C269.42,37.593 269.324,37.827 269.356,38.061C269.42,38.646 269.484,39.231 269.515,39.816C269.547,40.401 269.515,39.846 269.579,39.816C270.153,39.582 270.599,39.407 271.396,39.056C271.555,38.997 271.746,38.939 271.969,38.91C272.734,38.851 273.371,39.319 273.403,39.933C273.467,40.518 272.734,41.659 271.619,42.683C271.141,43.121 270.535,43.56 269.93,43.94C269.324,44.32 269.739,44.116 269.739,44.262L269.739,46.105C269.739,46.573 269.739,46.134 269.77,46.134C270.344,45.958 270.79,45.841 271.587,45.607C271.778,45.549 271.969,45.52 272.16,45.549C272.925,45.578 273.531,46.075 273.499,46.66C273.467,47.216 272.67,48.24 271.427,49.176C270.981,49.497 270.471,49.819 269.93,50.111C269.388,50.404 269.42,50.55 269.388,50.872C269.324,51.369 269.292,51.837 269.229,52.334C269.165,52.832 269.229,52.364 269.261,52.364C269.866,52.217 270.344,52.1 271.204,51.866C271.396,51.808 271.587,51.808 271.81,51.808C272.607,51.866 273.212,52.393 273.148,53.007C273.085,53.592 272.192,54.616 270.886,55.493C270.344,55.873 269.707,56.224 269.006,56.546C268.719,56.692 268.496,56.926 268.432,57.248C268.336,57.716 268.241,58.155 268.145,58.593C268.05,59.032 268.145,58.652 268.209,58.623C269.006,58.476 269.515,58.359 270.535,58.184C270.726,58.155 270.949,58.125 271.141,58.184C271.937,58.301 272.511,58.886 272.383,59.5C272.256,60.114 271.3,61.109 269.866,61.957C269.165,62.366 268.4,62.717 267.572,62.98C267.157,63.127 266.839,63.448 266.711,63.829C266.584,64.209 266.488,64.501 266.393,64.823C266.297,65.145 266.393,64.882 266.424,64.882C267.508,64.765 268.018,64.706 269.229,64.589C269.42,64.589 269.643,64.589 269.866,64.618C270.663,64.794 271.173,65.466 270.981,66.11C270.822,66.724 269.675,67.689 268.145,68.421C267.38,68.772 266.456,69.093 265.564,69.269L265.437,69.269C264.99,69.357 264.64,69.62 264.481,70.029C264.321,70.439 264.257,70.585 264.13,70.848C264.003,71.111 264.13,70.907 264.162,70.907L267.221,70.907C267.412,70.907 267.635,70.907 267.858,70.994C268.655,71.258 269.069,71.989 268.814,72.603C268.751,72.749 268.623,72.925 268.464,73.1C268.273,73.276 268.05,73.451 267.795,73.627C267.253,73.978 266.52,74.329 265.723,74.592C264.895,74.855 263.971,75.089 263.047,75.177L262.983,75.177C262.473,75.235 261.995,75.528 261.772,75.966C261.549,76.405 261.549,76.376 261.453,76.581C261.549,76.581 261.644,76.581 261.74,76.61C262.855,76.698 263.397,76.727 264.672,76.815C264.895,76.815 265.086,76.873 265.309,76.961C266.074,77.283 266.488,78.014 266.201,78.57C265.946,79.096 264.704,79.769 263.078,80.237C262.25,80.471 261.358,80.675 260.402,80.792C260.242,80.792 260.083,80.822 259.892,80.851C259.382,80.909 258.904,81.173 258.649,81.582C257.151,84.039 256.737,85.15 254.793,87.812C254.443,88.28 253.837,88.572 253.232,88.485C251.67,88.309 251.065,86.847 251.798,85.823C253.582,83.366 254.283,82.693 255.59,80.441C255.877,79.944 255.845,79.33 255.494,78.891C254.921,78.16 254.474,77.37 254.124,76.639C253.423,75.147 253.2,73.802 253.455,73.246C253.741,72.662 254.57,72.486 255.367,72.808C255.59,72.895 255.749,73.012 255.908,73.129C256.833,73.948 257.183,74.27 258.012,75.001C258.107,75.089 258.235,75.206 258.362,75.294C258.458,75.118 258.553,74.914 258.617,74.738C258.84,74.27 258.776,73.773 258.458,73.363C258.139,72.954 258.362,73.246 258.33,73.188C257.789,72.486 257.311,71.726 256.96,71.053C256.609,70.351 256.323,69.707 256.163,69.181C256.1,68.918 256.036,68.684 256.036,68.479C256.036,68.274 256.036,68.128 256.068,67.982C256.291,67.485 257.087,67.28 257.884,67.543C258.107,67.602 258.267,67.719 258.426,67.836C259.446,68.567 259.796,68.888 260.72,69.59C261.644,70.292 260.784,69.59 260.784,69.59C260.88,69.357 260.975,69.093 261.071,68.859C261.23,68.45 261.103,68.011 260.816,67.66C260.21,67.017 259.701,66.344 259.254,65.73C258.362,64.472 257.916,63.39 258.012,62.893C258.171,62.396 258.936,62.103 259.732,62.279C259.955,62.337 260.147,62.396 260.306,62.513C261.326,63.097 261.74,63.361 262.632,63.887L262.696,63.887C262.76,63.624 262.855,63.361 262.919,63.097C263.047,62.659 262.887,62.161 262.505,61.869C261.899,61.343 261.326,60.787 260.88,60.231C259.892,59.091 259.286,58.008 259.382,57.511C259.477,56.985 260.179,56.634 260.975,56.721C261.198,56.721 261.389,56.809 261.549,56.897C262.632,57.394 263.047,57.628 264.003,58.096L264.066,58.096C264.13,57.745 264.194,57.394 264.257,57.072C264.321,56.721 264.162,56.371 263.875,56.137C263.142,55.61 262.505,55.054 261.963,54.499C260.88,53.416 260.242,52.393 260.306,51.866C260.37,51.311 261.039,50.93 261.836,50.989C262.059,50.989 262.25,51.047 262.409,51.135C263.525,51.574 263.939,51.779 264.927,52.188C265.915,52.597 264.99,52.188 264.99,52.159C265.022,51.779 265.054,51.398 265.118,51.018C265.15,50.667 264.959,50.316 264.64,50.082C263.907,49.614 263.238,49.088 262.664,48.561C261.549,47.538 260.848,46.543 260.88,46.017C260.88,45.461 261.549,45.052 262.345,45.081C262.537,45.081 262.76,45.139 262.919,45.198C263.971,45.578 264.417,45.754 265.341,46.105C266.265,46.456 265.405,46.105 265.405,46.075L265.405,44.379C265.405,43.823 265.341,44.174 265.245,44.116C264.449,43.677 263.62,43.151 263.015,42.683C261.836,41.805 261.103,40.957 261.039,40.489C261.039,39.992 261.613,39.553 262.345,39.495C262.537,39.495 262.728,39.495 262.919,39.553C263.907,39.787 264.385,39.904 265.182,40.138C265.978,40.372 265.245,40.138 265.245,40.109C265.213,39.465 265.15,38.559 265.118,38.383C265.086,38.208 264.895,38.12 264.767,38.061C264.003,37.74 263.301,37.359 262.664,36.979C262.059,36.599 261.517,36.219 261.166,35.868C260.784,35.517 260.561,35.224 260.497,34.99C260.402,34.493 260.943,33.996 261.676,33.879C261.867,33.85 262.059,33.85 262.25,33.879C263.27,34.025 263.716,34.113 264.544,34.23C265.373,34.347 264.608,34.23 264.608,34.171C264.544,33.674 264.449,33.148 264.353,32.651C264.257,32.153 264.353,32.651 264.353,32.651C263.429,32.387 262.569,32.007 261.836,31.656C261.198,31.334 260.657,30.983 260.242,30.691C259.86,30.369 259.573,30.077 259.509,29.843C259.382,29.375 259.86,28.848 260.561,28.673C260.752,28.614 260.943,28.614 261.103,28.644C262.154,28.731 262.6,28.761 263.493,28.848C264.385,28.936 263.556,28.848 263.556,28.79C263.461,28.41 263.365,28.029 263.27,27.649C263.206,27.386 262.983,27.181 262.728,27.123C261.931,26.918 261.135,26.655 260.465,26.362C259.828,26.099 259.254,25.777 258.84,25.514C258.426,25.222 258.139,24.958 258.075,24.724C257.916,24.256 258.33,23.701 258.999,23.496C259.191,23.438 259.35,23.408 259.541,23.408C260.625,23.408 261.071,23.438 262.027,23.467C262.027,23.467 262.091,23.467 262.059,23.408C261.931,22.999 261.804,22.589 261.644,22.18C261.485,21.77 261.358,21.77 261.103,21.741C260.242,21.595 259.414,21.361 258.681,21.098C257.374,20.63 256.418,20.045 256.227,19.606C256.036,19.167 256.418,18.612 257.056,18.378C257.215,18.319 257.406,18.29 257.565,18.261C258.681,18.202 259.095,18.202 260.115,18.173C261.135,18.144 260.179,18.173 260.147,18.114C259.955,17.676 259.796,17.208 259.605,16.769C259.414,16.33 259.318,16.447 259.095,16.418C258.203,16.33 257.311,16.155 256.578,15.921C255.271,15.541 254.283,15.014 254.092,14.605C253.869,14.166 254.219,13.61 254.825,13.347C254.984,13.289 255.175,13.23 255.335,13.23C256.418,13.113 256.801,13.113 257.82,13.025C257.82,13.025 257.884,12.996 257.852,12.967C257.693,12.645 257.534,12.323 257.374,12.002C257.215,11.68 257.056,11.68 256.833,11.68C255.972,11.621 255.112,11.504 254.379,11.329C253.072,11.007 252.084,10.539 251.861,10.159C251.638,9.75 251.925,9.194 252.499,8.901C252.658,8.814 252.817,8.784 252.977,8.755C253.996,8.609 254.379,8.55 255.303,8.433C255.303,8.433 255.367,8.404 255.335,8.375C255.207,8.17 255.112,7.995 254.984,7.79C254.857,7.585 254.634,7.468 254.379,7.468C253.582,7.468 252.785,7.351 252.084,7.234C250.81,6.971 249.822,6.591 249.599,6.24C249.344,5.86 249.599,5.333 250.172,5.041L250.236,5.158Z" style="fill:rgb(217,219,224);fill-rule:nonzero;"/>
    </g>
</svg>
