<svg width="80" height="80" viewBox="0 0 80 80" fill="none" xmlns="http://www.w3.org/2000/svg">
  <path
    fill-rule="evenodd"
    clip-rule="evenodd"
    d="M22.8867 69.7305L33.368 72.5138V68.874L34.2236 68.0176H40.2129V72.2997V75.2972H33.7958L25.8814 71.8715L22.8867 69.7305Z"
    fill="#CDBDB2"
  />
  <path
    fill-rule="evenodd"
    clip-rule="evenodd"
    d="M57.1133 69.7305L46.8459 72.5138V68.874L45.9903 68.0176H40.001V72.2997V75.2972H46.4181L54.3325 71.8715L57.1133 69.7305Z"
    fill="#CDBDB2"
  />
  <path
    fill-rule="evenodd"
    clip-rule="evenodd"
    d="M34.2248 61.8086L33.3691 68.8741L34.4387 68.0176H45.5617L46.8451 68.8741L45.9895 61.8086L44.2782 60.738L35.7221 60.9521L34.2248 61.8086Z"
    fill="#393939"
  />
  <path
    fill-rule="evenodd"
    clip-rule="evenodd"
    d="M28.4492 14.063L33.5829 26.0529L35.9358 60.9521H44.2781L46.8449 26.0529L51.5508 14.063H28.4492Z"
    fill="#F89C35"
  />
  <path
    fill-rule="evenodd"
    clip-rule="evenodd"
    d="M5.9893 40.398L0 57.7405L14.9733 56.8841H24.5989V49.3904L24.1711 33.9748L22.0321 35.6876L5.9893 40.398Z"
    fill="#F89D35"
  />
  <path
    fill-rule="evenodd"
    clip-rule="evenodd"
    d="M17.3262 42.3249L34.8663 42.7531L32.9411 51.7456L24.5989 49.6045L17.3262 42.3249Z"
    fill="#D87C30"
  />
  <path
    fill-rule="evenodd"
    clip-rule="evenodd"
    d="M17.3262 42.539L24.5989 49.3904V56.2418L17.3262 42.539Z"
    fill="#EA8D3A"
  />
  <path
    fill-rule="evenodd"
    clip-rule="evenodd"
    d="M24.5996 49.6045L33.1558 51.7456L35.9365 60.9521L34.0114 62.0227L24.5996 56.4559V49.6045Z"
    fill="#F89D35"
  />
  <path
    fill-rule="evenodd"
    clip-rule="evenodd"
    d="M24.5979 56.4559L22.8867 69.7305L34.2236 61.8085L24.5979 56.4559Z"
    fill="#EB8F35"
  />
  <path
    fill-rule="evenodd"
    clip-rule="evenodd"
    d="M34.8656 42.7531L35.9351 60.9521L32.7266 51.6385L34.8656 42.7531Z"
    fill="#EA8E3A"
  />
  <path
    fill-rule="evenodd"
    clip-rule="evenodd"
    d="M14.7598 56.67L24.5993 56.4559L22.8881 69.7305L14.7598 56.67Z"
    fill="#D87C30"
  />
  <path
    fill-rule="evenodd"
    clip-rule="evenodd"
    d="M4.70588 75.5113L22.8877 69.7305L14.7594 56.67L0 57.7405L4.70588 75.5113Z"
    fill="#EB8F35"
  />
  <path
    fill-rule="evenodd"
    clip-rule="evenodd"
    d="M33.5829 26.0529L24.385 33.7607L17.3262 42.3249L34.8663 42.9672L33.5829 26.0529Z"
    fill="#E8821E"
  />
  <path
    fill-rule="evenodd"
    clip-rule="evenodd"
    d="M22.8867 69.7304L34.2236 61.8085L33.368 68.6599V72.5138L25.6675 71.0151L22.8867 69.7304Z"
    fill="#DFCEC3"
  />
  <path
    fill-rule="evenodd"
    clip-rule="evenodd"
    d="M57.1133 69.7304L45.9903 61.8085L46.8459 68.6599V72.5138L54.5464 71.0151L57.1133 69.7304Z"
    fill="#DFCEC3"
  />
  <path
    fill-rule="evenodd"
    clip-rule="evenodd"
    d="M30.1607 46.607L32.5137 51.5315L24.1714 49.3904L30.1607 46.607Z"
    fill="#393939"
  />
  <path
    fill-rule="evenodd"
    clip-rule="evenodd"
    d="M4.49219 4L33.5831 26.0529L28.6633 14.063L4.49219 4Z"
    fill="#E88F35"
  />
  <path
    fill-rule="evenodd"
    clip-rule="evenodd"
    d="M4.49285 4L0.642578 15.7758L2.78162 28.6222L1.28429 29.4786L3.42333 31.4055L1.7121 32.9043L4.06504 35.0453L2.56771 36.33L5.99017 40.6121L22.033 35.6876C29.8761 29.4072 33.7264 26.1956 33.5838 26.0529C33.4412 25.9102 23.7442 18.5592 4.49285 4Z"
    fill="#8E5A30"
  />
  <path
    fill-rule="evenodd"
    clip-rule="evenodd"
    d="M74.0107 40.398L80 57.7405L65.0267 56.8841H55.4011V49.3904L55.8289 33.9748L57.9679 35.6876L74.0107 40.398Z"
    fill="#F89D35"
  />
  <path
    fill-rule="evenodd"
    clip-rule="evenodd"
    d="M62.6738 42.3249L45.1337 42.7531L47.0589 51.7456L55.4011 49.6045L62.6738 42.3249Z"
    fill="#D87C30"
  />
  <path
    fill-rule="evenodd"
    clip-rule="evenodd"
    d="M62.6738 42.539L55.4011 49.3904V56.2418L62.6738 42.539Z"
    fill="#EA8D3A"
  />
  <path
    fill-rule="evenodd"
    clip-rule="evenodd"
    d="M55.4004 49.6045L46.8442 51.7456L44.0635 60.9521L45.9886 62.0227L55.4004 56.4559V49.6045Z"
    fill="#F89D35"
  />
  <path
    fill-rule="evenodd"
    clip-rule="evenodd"
    d="M55.4021 56.4559L57.1133 69.7305L45.9903 62.0226L55.4021 56.4559Z"
    fill="#EB8F35"
  />
  <path
    fill-rule="evenodd"
    clip-rule="evenodd"
    d="M45.1344 42.7531L44.0649 60.9521L47.2734 51.6385L45.1344 42.7531Z"
    fill="#EA8E3A"
  />
  <path
    fill-rule="evenodd"
    clip-rule="evenodd"
    d="M65.2402 56.67L55.4007 56.4559L57.1119 69.7305L65.2402 56.67Z"
    fill="#D87C30"
  />
  <path
    fill-rule="evenodd"
    clip-rule="evenodd"
    d="M75.2941 75.5113L57.1123 69.7305L65.2406 56.67L80 57.7405L75.2941 75.5113Z"
    fill="#EB8F35"
  />
  <path
    fill-rule="evenodd"
    clip-rule="evenodd"
    d="M46.4171 26.0529L55.615 33.7607L62.6738 42.3249L45.1337 42.9672L46.4171 26.0529Z"
    fill="#E8821E"
  />
  <path
    fill-rule="evenodd"
    clip-rule="evenodd"
    d="M49.8393 46.607L47.4863 51.5315L55.8286 49.3904L49.8393 46.607Z"
    fill="#393939"
  />
  <path
    fill-rule="evenodd"
    clip-rule="evenodd"
    d="M75.5078 4L46.4169 26.0529L51.3367 14.063L75.5078 4Z"
    fill="#E88F35"
  />
  <path
    fill-rule="evenodd"
    clip-rule="evenodd"
    d="M75.5072 4L79.3574 15.7758L77.2184 28.6222L78.7157 29.4786L76.5767 31.4055L78.2879 32.9043L75.935 35.0453L77.4323 36.33L74.0098 40.6121L57.967 35.6876C50.1239 29.4072 46.2736 26.1956 46.4162 26.0529C46.5588 25.9102 56.2558 18.5592 75.5072 4Z"
    fill="#8E5A30"
  />
</svg>
