<svg width="151" height="33" viewBox="0 0 151 33" fill="none" xmlns="http://www.w3.org/2000/svg">
<g clip-path="url(#clip0_1417_230361)">
<path d="M63.0478 6.90001V26.1H59.7066V11.0333H59.662L53.6923 26.1H51.4648L45.3615 11.0333V26.1H42.2876V6.90001H47.099L52.6231 21.1222H52.7122L58.5483 6.90001H63.1369H63.0478ZM65.8544 8.36667C65.8544 7.83334 66.0326 7.38889 66.4336 7.03334C66.8345 6.67778 67.28 6.50001 67.8146 6.50001C68.3492 6.50001 68.8838 6.67778 69.2402 7.07778C69.5966 7.43334 69.8194 7.87778 69.8194 8.41112C69.8194 8.94445 69.6412 9.38889 69.2402 9.74445C68.8393 10.1 68.3938 10.2778 67.8146 10.2778C67.2355 10.2778 66.79 10.1 66.4336 9.74445C66.0326 9.38889 65.8544 8.94445 65.8544 8.41112V8.36667ZM69.4184 12.3222V26.1H66.1663V12.3222H69.4184ZM79.2639 23.7444C79.754 23.7444 80.2885 23.6111 80.8677 23.3889C81.4468 23.1667 81.9814 22.8556 82.4715 22.5V25.5222C81.9369 25.8333 81.3577 26.0556 80.6895 26.1889C80.0213 26.3222 79.3085 26.4111 78.5066 26.4111C76.4573 26.4111 74.8089 25.7889 73.5615 24.5C72.2696 23.2111 71.6459 21.5667 71.6459 19.6111C71.6459 17.6556 72.3141 15.5667 73.6061 14.1445C74.898 12.7222 76.7246 12.0111 79.1303 12.0111C81.5359 12.0111 80.3331 12.1 80.9568 12.2333C81.5805 12.4111 82.0705 12.5889 82.4269 12.7667V15.8778C81.9369 15.5222 81.4023 15.2111 80.9122 15.0333C80.3776 14.8111 79.843 14.7222 79.3085 14.7222C78.0165 14.7222 76.9919 15.1222 76.19 15.9667C75.3881 16.8111 74.9871 17.9222 74.9871 19.3444C74.9871 20.7667 75.3435 21.8333 76.1009 22.5889C76.8582 23.3444 77.8829 23.7444 79.1748 23.7444H79.2639ZM91.7378 12.1C92.0051 12.1 92.2279 12.1 92.4506 12.1445C92.6734 12.1889 92.8516 12.2333 92.9852 12.2778V15.5667C92.807 15.4333 92.5843 15.3444 92.2279 15.2111C91.916 15.0778 91.5151 15.0333 91.025 15.0333C90.2231 15.0333 89.5549 15.3889 89.0203 16.0556C88.4857 16.7222 88.1739 17.7444 88.1739 19.1667V26.1H84.9217V12.3222H88.1739V14.5H88.2184C88.5303 13.7444 88.9757 13.1667 89.5549 12.7222C90.134 12.2778 90.8914 12.1 91.7378 12.1ZM93.1189 19.3889C93.1189 17.1222 93.7426 15.3 95.0345 13.9667C96.3265 12.6333 98.1085 11.9667 100.425 11.9667C102.742 11.9667 104.256 12.5889 105.459 13.8778C106.662 15.1667 107.286 16.9 107.286 19.0778C107.286 21.2556 106.662 23.0778 105.37 24.4111C104.078 25.7444 102.341 26.4111 100.113 26.4111C97.8857 26.4111 96.2819 25.7889 95.0345 24.5444C93.7871 23.3 93.1634 21.5667 93.1634 19.3889H93.1189ZM96.5047 19.3C96.5047 20.7222 96.8165 21.8333 97.4848 22.5889C98.153 23.3444 99.0886 23.7444 100.291 23.7444C101.494 23.7444 102.385 23.3444 103.009 22.5889C103.633 21.8333 103.944 20.7222 103.944 19.2111C103.944 17.7 103.633 16.6333 102.964 15.8778C102.341 15.1222 101.45 14.7667 100.291 14.7667C99.1331 14.7667 98.1976 15.1667 97.5293 15.9667C96.8611 16.7667 96.5492 17.8778 96.5492 19.3444L96.5047 19.3ZM112.142 15.9222C112.142 16.3667 112.275 16.7667 112.587 17.0333C112.899 17.3 113.523 17.6111 114.547 18.0111C115.839 18.5445 116.775 19.1222 117.265 19.7444C117.799 20.4111 118.067 21.1667 118.067 22.1C118.067 23.0333 117.577 24.4556 116.552 25.2111C115.572 26.0111 114.191 26.4111 112.498 26.4111C110.805 26.4111 111.295 26.3222 110.582 26.1889C109.87 26.0556 109.29 25.8778 108.8 25.6556V22.4556C109.38 22.8556 110.048 23.2111 110.716 23.4333C111.384 23.6556 112.008 23.7889 112.587 23.7889C113.166 23.7889 113.879 23.7 114.191 23.4778C114.503 23.2556 114.726 22.9445 114.726 22.4556C114.726 21.9667 114.547 21.6111 114.191 21.3444C113.835 21.0778 113.122 20.6778 112.142 20.2778C110.939 19.7889 110.092 19.2111 109.602 18.5889C109.112 17.9667 108.845 17.1667 108.845 16.1889C108.845 15.2111 109.335 13.9222 110.315 13.1222C111.295 12.3222 112.587 11.9222 114.146 11.9222C115.706 11.9222 115.171 11.9667 115.75 12.1C116.329 12.1889 116.864 12.3667 117.265 12.5V15.5667C116.819 15.3 116.329 15.0333 115.75 14.8111C115.171 14.5889 114.592 14.5 114.057 14.5C113.523 14.5 112.944 14.6333 112.632 14.8556C112.275 15.0778 112.097 15.4333 112.097 15.8333L112.142 15.9222ZM119.448 19.3889C119.448 17.1222 120.071 15.3 121.363 13.9667C122.655 12.6333 124.437 11.9667 126.754 11.9667C129.071 11.9667 130.585 12.5889 131.788 13.8778C132.991 15.1667 133.615 16.9 133.615 19.0778C133.615 21.2556 132.991 23.0778 131.699 24.4111C130.407 25.7444 128.67 26.4111 126.442 26.4111C124.215 26.4111 122.611 25.7889 121.363 24.5444C120.116 23.3 119.492 21.5667 119.492 19.3889H119.448ZM122.834 19.3C122.834 20.7222 123.145 21.8333 123.814 22.5889C124.482 23.3444 125.417 23.7444 126.62 23.7444C127.823 23.7444 128.714 23.3444 129.338 22.5889C129.962 21.8333 130.273 20.7222 130.273 19.2111C130.273 17.7 129.962 16.6333 129.293 15.8778C128.67 15.1222 127.779 14.7667 126.62 14.7667C125.462 14.7667 124.526 15.1667 123.858 15.9667C123.19 16.7667 122.878 17.8778 122.878 19.3444L122.834 19.3ZM144.396 14.9889H139.54V26.1H136.243V14.9889H133.926V12.3222H136.243V10.4111C136.243 8.94445 136.733 7.78889 137.669 6.85556C138.604 5.92223 139.807 5.47778 141.277 5.47778C142.747 5.47778 142.035 5.47778 142.346 5.52223C142.658 5.52223 142.926 5.61112 143.148 5.70001V8.50001C143.059 8.45556 142.836 8.36667 142.569 8.27778C142.302 8.18889 141.99 8.14445 141.634 8.14445C140.965 8.14445 140.431 8.36667 140.074 8.76667C139.718 9.16667 139.54 9.83334 139.54 10.6333V12.2778H144.396V9.16667L147.648 8.18889V12.2778H150.944V14.9444H147.648V21.3889C147.648 22.2333 147.781 22.8556 148.093 23.1667C148.405 23.5222 148.895 23.7 149.563 23.7C150.232 23.7 149.964 23.6556 150.232 23.5667C150.499 23.4778 150.722 23.3889 150.944 23.2556V25.9222C150.722 26.0556 150.41 26.1445 149.92 26.2333C149.43 26.3222 148.984 26.3667 148.494 26.3667C147.113 26.3667 146.089 26.0111 145.42 25.2556C144.752 24.5445 144.396 23.4333 144.396 21.9667V14.9V14.9889Z" fill="#101212"/>
<path d="M15.736 0.5H0.5V15.7H15.736V0.5Z" fill="#F25022"/>
<path d="M32.5759 0.5H17.3398V15.7H32.5759V0.5Z" fill="#7FBA00"/>
<path d="M15.736 17.3H0.5V32.5H15.736V17.3Z" fill="#00A4EF"/>
<path d="M32.5759 17.3H17.3398V32.5H32.5759V17.3Z" fill="#FFB900"/>
</g>
<defs>
<clipPath id="clip0_1417_230361">
<rect width="150.4" height="32" fill="white" transform="translate(0.5 0.5)"/>
</clipPath>
</defs>
</svg>
