<svg width="170" height="73" viewBox="0 0 170 73" fill="none" xmlns="http://www.w3.org/2000/svg">
<g clip-path="url(#clip0_1417_237810)">
<path d="M63.0483 6.90001V26.1H59.707V11.0333H59.6625L53.6928 26.1H51.4653L45.362 11.0333V26.1H42.2881V6.90001H47.0995L52.6236 21.1222H52.7127L58.5488 6.90001H63.1374H63.0483ZM65.8549 8.36667C65.8549 7.83334 66.0331 7.38889 66.4341 7.03334C66.835 6.67778 67.2805 6.50001 67.8151 6.50001C68.3497 6.50001 68.8843 6.67778 69.2407 7.07778C69.5971 7.43334 69.8198 7.87778 69.8198 8.41112C69.8198 8.94445 69.6416 9.38889 69.2407 9.74445C68.8397 10.1 68.3943 10.2778 67.8151 10.2778C67.236 10.2778 66.7905 10.1 66.4341 9.74445C66.0331 9.38889 65.8549 8.94445 65.8549 8.41112V8.36667ZM69.4189 12.3222V26.1H66.1668V12.3222H69.4189ZM79.2644 23.7444C79.7544 23.7444 80.289 23.6111 80.8682 23.3889C81.4473 23.1667 81.9819 22.8556 82.472 22.5V25.5222C81.9374 25.8333 81.3582 26.0556 80.69 26.1889C80.0217 26.3222 79.3089 26.4111 78.507 26.4111C76.4578 26.4111 74.8094 25.7889 73.562 24.5C72.2701 23.2111 71.6464 21.5667 71.6464 19.6111C71.6464 17.6556 72.3146 15.5667 73.6066 14.1445C74.8985 12.7222 76.7251 12.0111 79.1307 12.0111C81.5364 12.0111 80.3336 12.1 80.9573 12.2333C81.581 12.4111 82.071 12.5889 82.4274 12.7667V15.8778C81.9374 15.5222 81.4028 15.2111 80.9127 15.0333C80.3781 14.8111 79.8435 14.7222 79.3089 14.7222C78.017 14.7222 76.9924 15.1222 76.1905 15.9667C75.3886 16.8111 74.9876 17.9222 74.9876 19.3444C74.9876 20.7667 75.344 21.8333 76.1014 22.5889C76.8587 23.3444 77.8834 23.7444 79.1753 23.7444H79.2644ZM91.7383 12.1C92.0056 12.1 92.2284 12.1 92.4511 12.1445C92.6739 12.1889 92.8521 12.2333 92.9857 12.2778V15.5667C92.8075 15.4333 92.5848 15.3444 92.2284 15.2111C91.9165 15.0778 91.5156 15.0333 91.0255 15.0333C90.2236 15.0333 89.5554 15.3889 89.0208 16.0556C88.4862 16.7222 88.1743 17.7444 88.1743 19.1667V26.1H84.9222V12.3222H88.1743V14.5H88.2189C88.5307 13.7444 88.9762 13.1667 89.5554 12.7222C90.1345 12.2778 90.8919 12.1 91.7383 12.1ZM93.1194 19.3889C93.1194 17.1222 93.7431 15.3 95.035 13.9667C96.327 12.6333 98.1089 11.9667 100.426 11.9667C102.742 11.9667 104.257 12.5889 105.46 13.8778C106.663 15.1667 107.286 16.9 107.286 19.0778C107.286 21.2556 106.662 23.0778 105.371 24.4111C104.079 25.7444 102.341 26.4111 100.114 26.4111C97.8862 26.4111 96.2824 25.7889 95.035 24.5444C93.7876 23.3 93.1639 21.5667 93.1639 19.3889H93.1194ZM96.5052 19.3C96.5052 20.7222 96.817 21.8333 97.4852 22.5889C98.1535 23.3444 99.089 23.7444 100.292 23.7444C101.495 23.7444 102.386 23.3444 103.009 22.5889C103.633 21.8333 103.945 20.7222 103.945 19.2111C103.945 17.7 103.633 16.6333 102.965 15.8778C102.341 15.1222 101.45 14.7667 100.292 14.7667C99.1336 14.7667 98.198 15.1667 97.5298 15.9667C96.8616 16.7667 96.5497 17.8778 96.5497 19.3444L96.5052 19.3ZM112.142 15.9222C112.142 16.3667 112.276 16.7667 112.588 17.0333C112.899 17.3 113.523 17.6111 114.548 18.0111C115.84 18.5445 116.775 19.1222 117.265 19.7444C117.8 20.4111 118.067 21.1667 118.067 22.1C118.067 23.0333 117.577 24.4556 116.553 25.2111C115.572 26.0111 114.191 26.4111 112.499 26.4111C110.806 26.4111 111.296 26.3222 110.583 26.1889C109.87 26.0556 109.291 25.8778 108.801 25.6556V22.4556C109.38 22.8556 110.048 23.2111 110.717 23.4333C111.385 23.6556 112.008 23.7889 112.588 23.7889C113.167 23.7889 113.88 23.7 114.191 23.4778C114.503 23.2556 114.726 22.9445 114.726 22.4556C114.726 21.9667 114.548 21.6111 114.191 21.3444C113.835 21.0778 113.122 20.6778 112.142 20.2778C110.939 19.7889 110.093 19.2111 109.603 18.5889C109.113 17.9667 108.845 17.1667 108.845 16.1889C108.845 15.2111 109.335 13.9222 110.316 13.1222C111.296 12.3222 112.588 11.9222 114.147 11.9222C115.706 11.9222 115.172 11.9667 115.751 12.1C116.33 12.1889 116.864 12.3667 117.265 12.5V15.5667C116.82 15.3 116.33 15.0333 115.751 14.8111C115.172 14.5889 114.592 14.5 114.058 14.5C113.523 14.5 112.944 14.6333 112.632 14.8556C112.276 15.0778 112.098 15.4333 112.098 15.8333L112.142 15.9222ZM119.448 19.3889C119.448 17.1222 120.072 15.3 121.364 13.9667C122.656 12.6333 124.438 11.9667 126.754 11.9667C129.071 11.9667 130.586 12.5889 131.789 13.8778C132.991 15.1667 133.615 16.9 133.615 19.0778C133.615 21.2556 132.991 23.0778 131.699 24.4111C130.408 25.7444 128.67 26.4111 126.443 26.4111C124.215 26.4111 122.611 25.7889 121.364 24.5444C120.117 23.3 119.493 21.5667 119.493 19.3889H119.448ZM122.834 19.3C122.834 20.7222 123.146 21.8333 123.814 22.5889C124.482 23.3444 125.418 23.7444 126.621 23.7444C127.824 23.7444 128.715 23.3444 129.338 22.5889C129.962 21.8333 130.274 20.7222 130.274 19.2111C130.274 17.7 129.962 16.6333 129.294 15.8778C128.67 15.1222 127.779 14.7667 126.621 14.7667C125.463 14.7667 124.527 15.1667 123.859 15.9667C123.19 16.7667 122.879 17.8778 122.879 19.3444L122.834 19.3ZM144.396 14.9889H139.54V26.1H136.244V14.9889H133.927V12.3222H136.244V10.4111C136.244 8.94445 136.734 7.78889 137.669 6.85556C138.605 5.92223 139.808 5.47778 141.278 5.47778C142.748 5.47778 142.035 5.47778 142.347 5.52223C142.659 5.52223 142.926 5.61112 143.149 5.70001V8.50001C143.06 8.45556 142.837 8.36667 142.57 8.27778C142.302 8.18889 141.99 8.14445 141.634 8.14445C140.966 8.14445 140.431 8.36667 140.075 8.76667C139.718 9.16667 139.54 9.83334 139.54 10.6333V12.2778H144.396V9.16667L147.648 8.18889V12.2778H150.945V14.9444H147.648V21.3889C147.648 22.2333 147.782 22.8556 148.094 23.1667C148.406 23.5222 148.896 23.7 149.564 23.7C150.232 23.7 149.965 23.6556 150.232 23.5667C150.499 23.4778 150.722 23.3889 150.945 23.2556V25.9222C150.722 26.0556 150.41 26.1445 149.92 26.2333C149.43 26.3222 148.985 26.3667 148.495 26.3667C147.114 26.3667 146.089 26.0111 145.421 25.2556C144.753 24.5445 144.396 23.4333 144.396 21.9667V14.9V14.9889Z" fill="#F1F3EE"/>
<path d="M15.736 0.5H0.5V15.7H15.736V0.5Z" fill="#F25022"/>
<path d="M32.5759 0.5H17.3398V15.7H32.5759V0.5Z" fill="#7FBA00"/>
<path d="M15.736 17.3H0.5V32.5H15.736V17.3Z" fill="#00A4EF"/>
<path d="M32.5759 17.3H17.3398V32.5H32.5759V17.3Z" fill="#FFB900"/>
</g>
<path d="M94.7757 57.8053C94.7757 57.8053 94.7821 57.8046 94.7827 57.8112C94.7827 57.8112 94.7827 57.8112 94.7834 57.8178L94.768 57.7927C94.768 57.7927 94.7616 57.7934 94.7553 57.794L94.7757 57.8053Z" fill="#8690A0"/>
<path d="M96.567 49.3434C95.6391 49.8032 94.8802 50.6667 94.2484 51.7711C94.3365 51.0991 94.4246 50.4272 94.5133 49.7619L94.5908 49.1782C94.6233 48.9204 94.4772 48.6816 94.2434 48.5993L93.9629 48.5019C93.7228 48.4202 93.4623 48.3943 93.2072 48.4214L93.0413 48.439C92.7989 48.4647 92.6061 48.6658 92.5857 48.9156C92.5622 49.1992 92.5293 49.5172 92.5293 49.5172C92.0818 54.4972 91.6406 59.4764 91.336 64.468C91.3037 64.9867 91.2699 65.6863 91.2439 66.2044C91.2272 66.6212 91.2137 67.071 91.2124 67.5128C91.2118 67.7672 91.4071 67.9808 91.6528 67.9882C91.7689 67.9892 91.8915 67.9896 92.0012 67.9914C92.2399 67.9928 92.4538 67.8095 92.455 67.5618C92.4548 67.4949 92.4547 67.428 92.4538 67.3544C92.4764 66.9973 92.5041 66.6263 92.5294 66.2957C92.7729 63.6798 93.0681 61.0651 93.3895 58.4544C93.471 58.6264 93.5767 58.7825 93.7188 58.9147C94.031 59.2029 94.485 59.2953 94.8849 59.2328C95.1401 59.2057 95.3997 59.1581 95.6509 59.0913C98.0901 58.4646 99.7715 56.1112 100.288 53.6471C100.555 52.307 100.56 50.6734 99.5473 49.623C98.7301 48.7928 97.5255 48.867 96.5606 49.3441L96.567 49.3434ZM98.675 53.3095C98.3948 54.9052 97.4982 56.7203 96.1765 57.6301C95.9109 57.8122 95.3059 58.0169 94.9231 58.0575C94.5403 58.0981 94.5101 57.5324 94.5101 57.5324C94.4571 57.0629 94.5277 56.5401 94.6164 56.0689C94.6616 55.8098 94.7645 55.4174 94.8377 55.1151C94.8604 55.019 94.818 54.9164 94.7419 54.8643L94.3551 54.6041L94.3424 54.6055C94.9055 53.3277 95.6401 52.2191 96.6034 51.4009C96.9841 51.0794 97.3522 50.8262 97.823 50.7629C98.1457 50.7019 98.3822 50.8107 98.5355 51.1224C98.8462 51.7854 98.7968 52.5871 98.6807 53.3022L98.675 53.3095Z" fill="#8690A0"/>
<path d="M107.125 50.5593C107.176 50.5539 107.254 50.5657 107.281 50.5762C107.301 50.5808 107.321 50.5854 107.343 50.6099C107.494 50.7745 107.536 51.0645 107.56 51.303C107.587 51.6414 107.547 52.027 107.471 52.3564C107.43 52.5347 107.307 52.8556 107.221 53.0923C107.18 53.1971 107.198 53.3156 107.265 53.4089L107.318 53.4836C107.408 53.6079 107.526 53.6958 107.66 53.7485L107.76 53.7847C107.888 53.8315 108.026 53.7967 108.112 53.6938L108.372 53.3852C108.631 53.0766 108.78 52.753 108.912 52.391C109.326 51.2361 109.26 49.5967 108.074 48.9528C107.536 48.6618 106.948 48.6505 106.39 48.8035C105.43 49.0659 104.638 49.7924 104.03 50.5595C103.671 51.026 103.352 51.5216 103.062 52.0409L103.056 52.0416C103.154 50.9536 103.27 49.6497 103.336 48.8864L103.385 48.3457C103.411 48.082 103.251 47.8379 103.012 47.7629C102.846 47.7136 102.647 47.6611 102.447 47.6555C102.265 47.648 102.08 47.6676 101.923 47.7044C101.677 47.7573 101.499 47.9769 101.492 48.2386C101.468 49.747 101.439 51.798 101.404 53.2005C101.372 54.5626 101.333 55.9253 101.274 57.2835C101.266 57.465 101.384 57.6197 101.556 57.6551C101.661 57.6774 101.766 57.6931 101.865 57.7161C101.95 57.7338 102.029 57.7521 102.114 57.7632C102.186 57.7756 102.255 57.8219 102.326 57.8144C102.402 57.8063 102.472 57.7319 102.511 57.6676C102.611 57.5031 102.622 57.2944 102.649 57.1108C102.686 56.8928 102.708 56.6629 102.744 56.4449C102.82 55.9684 102.934 55.5011 103.089 55.043C103.392 54.1342 103.848 53.276 104.425 52.5255C104.762 52.0882 105.13 51.7011 105.568 51.3736C105.898 51.1244 106.25 50.9064 106.61 50.7009C106.769 50.6171 106.95 50.5511 107.13 50.5454L107.125 50.5593Z" fill="#8690A0"/>
<path d="M119.802 52.2136C119.767 52.0633 119.71 51.8753 119.596 51.7669C119.482 51.6519 119.31 51.6099 119.179 51.5903C119.049 51.5773 118.924 51.624 118.837 51.7202C118.32 52.2904 117.754 52.8256 117.117 53.288C116.09 54.0462 114.962 54.7078 113.799 55.1992C113.217 55.4416 112.624 55.6384 112.047 55.733C111.761 55.7767 111.479 55.7932 111.244 55.7646C111.159 55.7535 111.074 55.7358 111 55.7102C113.395 54.8272 115.89 53.465 116.61 51.4277C116.849 50.713 116.902 49.8842 116.567 49.1702C115.896 47.8693 114.431 48.2455 113.446 48.8385C111.937 49.7481 110.593 51.2091 109.779 52.8147C109.531 53.3028 109.325 53.8935 109.255 54.4898C108.541 54.6994 107.861 54.8652 107.274 54.9877L106.787 55.0862C106.572 55.129 106.41 55.3202 106.395 55.5494C106.385 55.7111 106.385 55.9052 106.422 56.0886C106.451 56.2462 106.511 56.4004 106.57 56.5347C106.668 56.7452 106.886 56.8626 107.106 56.8124C107.378 56.7569 107.713 56.6879 107.858 56.6525C108.355 56.5328 108.926 56.3785 109.533 56.1937C109.726 56.5145 110.011 56.7855 110.423 56.9694C111.376 57.3502 112.383 57.1095 113.296 56.8253C115.454 56.0879 117.828 54.6114 119.413 52.9107L119.698 52.5994C119.791 52.4958 119.828 52.3513 119.795 52.2143L119.802 52.2136ZM114.152 50.1692C114.501 49.9849 114.844 49.8079 115.195 49.8376C115.195 49.8376 115.214 49.8356 115.215 49.8422C115.263 49.9309 115.271 50.017 115.28 50.17C115.31 50.6687 115.092 51.1402 114.789 51.5271C113.939 52.5743 112.388 53.3813 110.783 53.9731C111.338 52.4217 112.965 50.817 114.144 50.1566L114.152 50.1692Z" fill="#8690A0"/>
<path d="M152.843 49.1783L152.76 49.1268C152.617 49.0417 152.463 48.991 152.294 48.9755L152.216 48.9704C152.061 48.9601 151.915 49.0558 151.86 49.209C151.805 49.3687 151.738 49.5431 151.738 49.5431C151.517 50.1756 150.832 51.7809 150.154 51.9731C149.681 51.8159 149.557 51.0795 149.477 50.5994C149.371 49.7875 149.412 48.9666 149.484 48.1357C149.65 46.4249 149.997 44.7283 150.425 43.0567C150.447 42.9606 150.476 42.8638 150.499 42.7677C151.883 42.4268 153.25 42.0343 154.596 41.5702L154.952 41.4456C155.082 41.3983 155.16 41.2696 155.145 41.1239L155.139 41.0643C155.117 40.8391 155.044 40.6193 154.928 40.4241L154.905 40.3864C154.835 40.2667 154.694 40.2147 154.569 40.2547L154.201 40.3741C153.124 40.7024 152.036 40.9784 150.94 41.2285C151.048 40.8891 151.163 40.5556 151.285 40.2281C151.321 40.1373 151.357 40.0398 151.407 39.9609L151.727 39.2911C151.835 39.0723 151.814 38.8001 151.672 38.601C151.552 38.433 151.378 38.2373 151.146 38.1079C150.934 37.9898 150.665 37.9381 150.438 37.922C150.177 37.8961 149.928 38.0431 149.809 38.2831C149.649 38.6147 149.445 39.0312 149.385 39.2049C149.098 40.0117 148.89 40.8435 148.702 41.6799C148.278 41.7584 147.86 41.8361 147.435 41.908C145.749 42.1939 144.021 42.3905 142.318 42.5711C142.076 42.5968 141.882 42.7913 141.849 43.0424L141.852 43.0756C141.813 43.334 141.84 43.5989 141.929 43.8438L141.955 43.9147C142.037 44.1602 142.278 44.3154 142.526 44.2758C142.723 44.2482 142.907 44.2219 142.907 44.2219C144.135 44.0516 145.378 43.8528 146.6 43.6295C147.195 43.5129 147.789 43.3964 148.382 43.2665C147.896 45.9015 147.318 49.9583 148.334 52.1395C148.66 52.8343 149.269 53.3854 150.038 53.4646C150.343 53.4858 150.673 53.3638 150.904 53.2255C151.944 52.5932 152.547 51.0703 152.892 49.9361L152.989 49.6112C153.037 49.4455 152.975 49.2714 152.831 49.1863L152.843 49.1783Z" fill="#8690A0"/>
<path d="M160.271 43.3443L160.201 43.2179C160.098 43.028 159.895 42.9291 159.691 42.9574L159.1 43.0401C157.601 43.266 156.123 43.5767 154.674 44.0383C153.383 44.4763 151.314 45.2043 150.981 46.779C150.83 47.4709 151.15 48.1664 151.763 48.4897C152.219 48.7358 152.663 48.7957 153.138 48.8391C153.677 48.8823 154.186 48.8752 154.681 48.8628C155.749 48.8433 157.128 48.7038 158.16 48.9022C158.377 48.9461 158.532 49.01 158.629 49.08C158.629 49.08 158.627 49.0668 158.63 49.0933C158.627 49.2543 158.592 49.4253 158.549 49.577C158.314 50.3314 157.577 50.7577 156.839 50.9898C155.889 51.2914 154.795 51.3136 153.769 51.2351C153.646 51.2281 153.524 51.3012 153.471 51.4206C153.377 51.638 153.349 51.8753 153.392 52.1117L153.416 52.2295C153.443 52.3673 153.55 52.4697 153.686 52.482C153.862 52.4968 154.07 52.5215 154.07 52.5215C155.865 52.6792 158.167 52.4821 159.398 50.9193C159.695 50.5397 159.894 50.0703 159.981 49.5858C160.062 49.169 160.072 48.7463 159.858 48.3473C159.398 47.5395 158.448 47.3859 157.653 47.2962C156.747 47.2048 155.566 47.2498 154.663 47.2452C154.185 47.2423 153.714 47.2387 153.291 47.1899C153.088 47.1645 152.846 47.1299 152.658 47.0562C153.577 45.8478 157.86 45.1594 159.332 44.9899L159.894 44.9303C160.117 44.9067 160.299 44.7267 160.341 44.5014L160.406 44.1197C160.451 43.8606 160.412 43.5904 160.285 43.3562L160.271 43.3443ZM152.536 46.9889C152.522 46.977 152.522 46.977 152.536 46.9889V46.9889Z" fill="#8690A0"/>
<path d="M137.934 49.8556C137.856 49.7167 137.723 49.6103 137.577 49.5656L137.544 49.5558C137.397 49.511 137.248 49.5604 137.143 49.6785C136.693 50.2081 136.217 50.7405 135.71 51.2159C134.653 52.198 133.615 52.8435 132.168 53.4051C131.546 53.6251 130.719 53.8065 130.35 53.1362C130.114 52.7128 130.012 52.1413 130.037 51.61C130.2 51.5593 130.369 51.5145 130.532 51.4638C131.495 51.1609 132.469 50.8435 133.417 50.4552C134.092 50.1761 134.739 49.8733 135.344 49.4076C136.064 48.8694 136.628 47.9931 136.5 47.0229C136.437 46.3871 135.963 45.835 135.373 45.67C134.813 45.4884 134.171 45.5766 133.694 45.7075C131.608 46.3235 129.578 48.2186 128.962 50.459C128.41 50.6113 127.87 50.7489 127.367 50.8825C127.354 50.4957 127.323 50.2447 126.898 50.0489C126.423 49.8181 125.824 49.7545 125.36 49.8171C124.373 49.9484 123.188 49.9537 122.216 50.0367C121.623 50.0996 120.958 50.0898 120.416 49.8929C120.269 49.8349 120.046 49.738 119.988 49.6037C119.929 49.4024 120.015 49.2327 120.133 49.0529C120.744 48.2586 121.705 47.8756 122.648 47.5615C123.85 47.1998 125.09 47.0347 126.347 46.9618L126.699 46.9378C126.949 46.9247 127.163 46.7414 127.228 46.4868L127.251 46.3974C127.306 46.1707 127.296 45.9375 127.21 45.7191C127.115 45.4815 126.894 45.3309 126.65 45.3368L126.276 45.3429C124.894 45.3824 123.52 45.5616 122.183 45.9912C120.966 46.4013 119.661 47.0215 118.899 48.1798C118.475 48.8472 118.308 49.7617 118.87 50.4918C119.663 51.4652 121.21 51.1405 122.285 51.1203C123.387 51.0503 124.452 50.9373 125.537 50.9561C125.62 50.9473 125.811 50.9873 125.841 51.031C125.863 51.0554 125.85 51.0568 125.86 51.0892C125.866 51.1554 125.872 51.2151 125.866 51.2826C124.723 51.5912 123.593 51.8984 122.47 52.3388C121.968 52.5393 121.449 52.7683 120.985 53.0919C120.332 53.5293 119.772 54.3181 120.057 55.178C120.469 56.2788 121.927 56.2245 122.853 56.1331C124.018 55.9828 125.092 55.3802 125.911 54.5305C126.471 53.9357 126.961 53.2278 127.211 52.425C127.731 52.2762 128.245 52.128 128.766 51.9857C128.768 52.0056 128.769 52.0188 128.771 52.0387C128.807 53.1125 129.161 54.3465 130.188 54.8265C131.33 55.348 132.6 54.8318 133.616 54.289C135.435 53.2529 136.58 52.1944 137.791 50.6807L137.974 50.4471C138.077 50.3157 138.091 50.1335 138.006 49.9886L137.935 49.8623L137.934 49.8556ZM122.234 54.5121C122.08 54.5151 121.913 54.5194 121.757 54.5092C121.793 54.4786 121.835 54.4474 121.87 54.4169C122.758 53.8074 123.803 53.4892 124.832 53.1391C124.894 53.1191 124.957 53.0991 125.019 53.0791C124.316 53.9232 123.31 54.4985 122.234 54.5121ZM134.828 47.2604C134.828 47.2604 134.828 47.267 134.829 47.2736C134.829 47.2736 134.829 47.2736 134.83 47.2803C134.829 47.2736 134.828 47.267 134.828 47.2604ZM131.802 48.6052C132.58 48.0007 133.815 47.3143 134.785 47.3453C134.804 47.3433 134.824 47.3478 134.837 47.3531C134.838 47.4333 134.82 47.5088 134.778 47.6003C134.709 47.7548 134.555 47.9519 134.36 48.1332C133.458 48.9182 132.04 49.5102 130.553 49.9825C130.873 49.4466 131.311 48.9852 131.802 48.5986L131.802 48.6052Z" fill="#8690A0"/>
<path d="M146.584 52.305C146.549 52.2819 146.522 52.2647 146.508 52.2528C146.38 52.1391 146.309 52.0061 146.239 51.8195C146.03 51.2059 146.043 50.4281 146.053 49.7445C146.059 48.7064 146.167 47.6442 145.909 46.6008C145.592 45.3561 144.634 44.7951 143.435 44.9892C142.245 45.1488 141.337 45.7404 140.659 46.5753C140.708 46.2956 140.758 46.0159 140.815 45.7422C140.83 45.5064 140.741 45.3284 140.548 45.1347L140.448 45.0382C140.2 44.8102 139.857 44.7328 139.545 44.8395C139.502 44.8574 139.471 44.8674 139.471 44.8674C139.246 44.9448 139.037 45.1142 138.97 45.3422C138.924 45.5278 138.891 45.7186 138.858 45.9029C138.449 48.1481 138.226 50.454 138.472 52.7369C138.498 53.0084 138.538 53.2786 138.584 53.5481C138.617 53.7454 138.786 53.8882 138.973 53.895L139.49 53.9071C139.697 53.912 139.874 53.7526 139.905 53.5419C139.994 52.8766 140.066 52.2332 140.175 51.5791C140.465 49.8886 140.91 47.8804 142.319 46.8677C142.705 46.5992 143.159 46.4373 143.618 46.3819C143.95 46.3468 144.29 46.3308 144.474 46.6324C144.606 46.8528 144.663 47.168 144.697 47.4521C144.731 47.7898 144.736 48.1641 144.735 48.5457C144.738 49.9441 144.475 51.8393 145.354 53.0311C145.493 53.2037 145.647 53.3948 145.855 53.4731C145.955 53.5094 146.07 53.4906 146.154 53.4281L146.274 53.3417C146.485 53.1922 146.644 52.9812 146.729 52.7313C146.785 52.5781 146.729 52.4034 146.598 52.3169L146.584 52.305Z" fill="#8690A0"/>
<path d="M94.7757 57.8053C94.7757 57.8053 94.7821 57.8046 94.7827 57.8112C94.7827 57.8112 94.7827 57.8112 94.7834 57.8178L94.768 57.7927C94.768 57.7927 94.7616 57.7934 94.7553 57.794L94.7757 57.8053Z" stroke="#8690A0" stroke-width="0.1"/>
<path d="M96.567 49.3434C95.6391 49.8032 94.8802 50.6667 94.2484 51.7711C94.3365 51.0991 94.4246 50.4272 94.5133 49.7619L94.5908 49.1782C94.6233 48.9204 94.4772 48.6816 94.2434 48.5993L93.9629 48.5019C93.7228 48.4202 93.4623 48.3943 93.2072 48.4214L93.0413 48.439C92.7989 48.4647 92.6061 48.6658 92.5857 48.9156C92.5622 49.1992 92.5293 49.5172 92.5293 49.5172C92.0818 54.4972 91.6406 59.4764 91.336 64.468C91.3037 64.9867 91.2699 65.6863 91.2439 66.2044C91.2272 66.6212 91.2137 67.071 91.2124 67.5128C91.2118 67.7672 91.4071 67.9808 91.6528 67.9882C91.7689 67.9892 91.8915 67.9896 92.0012 67.9914C92.2399 67.9928 92.4538 67.8095 92.455 67.5618C92.4548 67.4949 92.4547 67.428 92.4538 67.3544C92.4764 66.9973 92.5041 66.6263 92.5294 66.2957C92.7729 63.6798 93.0681 61.0651 93.3895 58.4544C93.471 58.6264 93.5767 58.7825 93.7188 58.9147C94.031 59.2029 94.485 59.2953 94.8849 59.2328C95.1401 59.2057 95.3997 59.1581 95.6509 59.0913C98.0901 58.4646 99.7715 56.1112 100.288 53.6471C100.555 52.307 100.56 50.6734 99.5473 49.623C98.7301 48.7928 97.5255 48.867 96.5606 49.3441L96.567 49.3434ZM98.675 53.3095C98.3948 54.9052 97.4982 56.7203 96.1765 57.6301C95.9109 57.8122 95.3059 58.0169 94.9231 58.0575C94.5403 58.0981 94.5101 57.5324 94.5101 57.5324C94.4571 57.0629 94.5277 56.5401 94.6164 56.0689C94.6616 55.8098 94.7645 55.4174 94.8377 55.1151C94.8604 55.019 94.818 54.9164 94.7419 54.8643L94.3551 54.6041L94.3424 54.6055C94.9055 53.3277 95.6401 52.2191 96.6034 51.4009C96.9841 51.0794 97.3522 50.8262 97.823 50.7629C98.1457 50.7019 98.3822 50.8107 98.5355 51.1224C98.8462 51.7854 98.7968 52.5871 98.6807 53.3022L98.675 53.3095Z" stroke="#8690A0" stroke-width="0.1"/>
<path d="M107.125 50.5593C107.176 50.5539 107.254 50.5657 107.281 50.5762C107.301 50.5808 107.321 50.5854 107.343 50.6099C107.494 50.7745 107.536 51.0645 107.56 51.303C107.587 51.6414 107.547 52.027 107.471 52.3564C107.43 52.5347 107.307 52.8556 107.221 53.0923C107.18 53.1971 107.198 53.3156 107.265 53.4089L107.318 53.4836C107.408 53.6079 107.526 53.6958 107.66 53.7485L107.76 53.7847C107.888 53.8315 108.026 53.7967 108.112 53.6938L108.372 53.3852C108.631 53.0766 108.78 52.753 108.912 52.391C109.326 51.2361 109.26 49.5967 108.074 48.9528C107.536 48.6618 106.948 48.6505 106.39 48.8035C105.43 49.0659 104.638 49.7924 104.03 50.5595C103.671 51.026 103.352 51.5216 103.062 52.0409L103.056 52.0416C103.154 50.9536 103.27 49.6497 103.336 48.8864L103.385 48.3457C103.411 48.082 103.251 47.8379 103.012 47.7629C102.846 47.7136 102.647 47.6611 102.447 47.6555C102.265 47.648 102.08 47.6676 101.923 47.7044C101.677 47.7573 101.499 47.9769 101.492 48.2386C101.468 49.747 101.439 51.798 101.404 53.2005C101.372 54.5626 101.333 55.9253 101.274 57.2835C101.266 57.465 101.384 57.6197 101.556 57.6551C101.661 57.6774 101.766 57.6931 101.865 57.7161C101.95 57.7338 102.029 57.7521 102.114 57.7632C102.186 57.7756 102.255 57.8219 102.326 57.8144C102.402 57.8063 102.472 57.7319 102.511 57.6676C102.611 57.5031 102.622 57.2944 102.649 57.1108C102.686 56.8928 102.708 56.6629 102.744 56.4449C102.82 55.9684 102.934 55.5011 103.089 55.043C103.392 54.1342 103.848 53.276 104.425 52.5255C104.762 52.0882 105.13 51.7011 105.568 51.3736C105.898 51.1244 106.25 50.9064 106.61 50.7009C106.769 50.6171 106.95 50.5511 107.13 50.5454L107.125 50.5593Z" stroke="#8690A0" stroke-width="0.1"/>
<path d="M119.802 52.2136C119.767 52.0633 119.71 51.8753 119.596 51.7669C119.482 51.6519 119.31 51.6099 119.179 51.5903C119.049 51.5773 118.924 51.624 118.837 51.7202C118.32 52.2904 117.754 52.8256 117.117 53.288C116.09 54.0462 114.962 54.7078 113.799 55.1992C113.217 55.4416 112.624 55.6384 112.047 55.733C111.761 55.7767 111.479 55.7932 111.244 55.7646C111.159 55.7535 111.074 55.7358 111 55.7102C113.395 54.8272 115.89 53.465 116.61 51.4277C116.849 50.713 116.902 49.8842 116.567 49.1702C115.896 47.8693 114.431 48.2455 113.446 48.8385C111.937 49.7481 110.593 51.2091 109.779 52.8147C109.531 53.3028 109.325 53.8935 109.255 54.4898C108.541 54.6994 107.861 54.8652 107.274 54.9877L106.787 55.0862C106.572 55.129 106.41 55.3202 106.395 55.5494C106.385 55.7111 106.385 55.9052 106.422 56.0886C106.451 56.2462 106.511 56.4004 106.57 56.5347C106.668 56.7452 106.886 56.8626 107.106 56.8124C107.378 56.7569 107.713 56.6879 107.858 56.6525C108.355 56.5328 108.926 56.3785 109.533 56.1937C109.726 56.5145 110.011 56.7855 110.423 56.9694C111.376 57.3502 112.383 57.1095 113.296 56.8253C115.454 56.0879 117.828 54.6114 119.413 52.9107L119.698 52.5994C119.791 52.4958 119.828 52.3513 119.795 52.2143L119.802 52.2136ZM114.152 50.1692C114.501 49.9849 114.844 49.8079 115.195 49.8376C115.195 49.8376 115.214 49.8356 115.215 49.8422C115.263 49.9309 115.271 50.017 115.28 50.17C115.31 50.6687 115.092 51.1402 114.789 51.5271C113.939 52.5743 112.388 53.3813 110.783 53.9731C111.338 52.4217 112.965 50.817 114.144 50.1566L114.152 50.1692Z" stroke="#8690A0" stroke-width="0.1"/>
<path d="M152.843 49.1783L152.76 49.1268C152.617 49.0417 152.463 48.991 152.294 48.9755L152.216 48.9704C152.061 48.9601 151.915 49.0558 151.86 49.209C151.805 49.3687 151.738 49.5431 151.738 49.5431C151.517 50.1756 150.832 51.7809 150.154 51.9731C149.681 51.8159 149.557 51.0795 149.477 50.5994C149.371 49.7875 149.412 48.9666 149.484 48.1357C149.65 46.4249 149.997 44.7283 150.425 43.0567C150.447 42.9606 150.476 42.8638 150.499 42.7677C151.883 42.4268 153.25 42.0343 154.596 41.5702L154.952 41.4456C155.082 41.3983 155.16 41.2696 155.145 41.1239L155.139 41.0643C155.117 40.8391 155.044 40.6193 154.928 40.4241L154.905 40.3864C154.835 40.2667 154.694 40.2147 154.569 40.2547L154.201 40.3741C153.124 40.7024 152.036 40.9784 150.94 41.2285C151.048 40.8891 151.163 40.5556 151.285 40.2281C151.321 40.1373 151.357 40.0398 151.407 39.9609L151.727 39.2911C151.835 39.0723 151.814 38.8001 151.672 38.601C151.552 38.433 151.378 38.2373 151.146 38.1079C150.934 37.9898 150.665 37.9381 150.438 37.922C150.177 37.8961 149.928 38.0431 149.809 38.2831C149.649 38.6147 149.445 39.0312 149.385 39.2049C149.098 40.0117 148.89 40.8435 148.702 41.6799C148.278 41.7584 147.86 41.8361 147.435 41.908C145.749 42.1939 144.021 42.3905 142.318 42.5711C142.076 42.5968 141.882 42.7913 141.849 43.0424L141.852 43.0756C141.813 43.334 141.84 43.5989 141.929 43.8438L141.955 43.9147C142.037 44.1602 142.278 44.3154 142.526 44.2758C142.723 44.2482 142.907 44.2219 142.907 44.2219C144.135 44.0516 145.378 43.8528 146.6 43.6295C147.195 43.5129 147.789 43.3964 148.382 43.2665C147.896 45.9015 147.318 49.9583 148.334 52.1395C148.66 52.8343 149.269 53.3854 150.038 53.4646C150.343 53.4858 150.673 53.3638 150.904 53.2255C151.944 52.5932 152.547 51.0703 152.892 49.9361L152.989 49.6112C153.037 49.4455 152.975 49.2714 152.831 49.1863L152.843 49.1783Z" stroke="#8690A0" stroke-width="0.1"/>
<path d="M160.271 43.3443L160.201 43.2179C160.098 43.028 159.895 42.9291 159.691 42.9574L159.1 43.0401C157.601 43.266 156.123 43.5767 154.674 44.0383C153.383 44.4763 151.314 45.2043 150.981 46.779C150.83 47.4709 151.15 48.1664 151.763 48.4897C152.219 48.7358 152.663 48.7957 153.138 48.8391C153.677 48.8823 154.186 48.8752 154.681 48.8628C155.749 48.8433 157.128 48.7038 158.16 48.9022C158.377 48.9461 158.532 49.01 158.629 49.08C158.629 49.08 158.627 49.0668 158.63 49.0933C158.627 49.2543 158.592 49.4253 158.549 49.577C158.314 50.3314 157.577 50.7577 156.839 50.9898C155.889 51.2914 154.795 51.3136 153.769 51.2351C153.646 51.2281 153.524 51.3012 153.471 51.4206C153.377 51.638 153.349 51.8753 153.392 52.1117L153.416 52.2295C153.443 52.3673 153.55 52.4697 153.686 52.482C153.862 52.4968 154.07 52.5215 154.07 52.5215C155.865 52.6792 158.167 52.4821 159.398 50.9193C159.695 50.5397 159.894 50.0703 159.981 49.5858C160.062 49.169 160.072 48.7463 159.858 48.3473C159.398 47.5395 158.448 47.3859 157.653 47.2962C156.747 47.2048 155.566 47.2498 154.663 47.2452C154.185 47.2423 153.714 47.2387 153.291 47.1899C153.088 47.1645 152.846 47.1299 152.658 47.0562C153.577 45.8478 157.86 45.1594 159.332 44.9899L159.894 44.9303C160.117 44.9067 160.299 44.7267 160.341 44.5014L160.406 44.1197C160.451 43.8606 160.412 43.5904 160.285 43.3562L160.271 43.3443ZM152.536 46.9889C152.522 46.977 152.522 46.977 152.536 46.9889V46.9889Z" stroke="#8690A0" stroke-width="0.1"/>
<path d="M137.934 49.8556C137.856 49.7167 137.723 49.6103 137.577 49.5656L137.544 49.5558C137.397 49.511 137.248 49.5604 137.143 49.6785C136.693 50.2081 136.217 50.7405 135.71 51.2159C134.653 52.198 133.615 52.8435 132.168 53.4051C131.546 53.6251 130.719 53.8065 130.35 53.1362C130.114 52.7128 130.012 52.1413 130.037 51.61C130.2 51.5593 130.369 51.5145 130.532 51.4638C131.495 51.1609 132.469 50.8435 133.417 50.4552C134.092 50.1761 134.739 49.8733 135.344 49.4076C136.064 48.8694 136.628 47.9931 136.5 47.0229C136.437 46.3871 135.963 45.835 135.373 45.67C134.813 45.4884 134.171 45.5766 133.694 45.7075C131.608 46.3235 129.578 48.2186 128.962 50.459C128.41 50.6113 127.87 50.7489 127.367 50.8825C127.354 50.4957 127.323 50.2447 126.898 50.0489C126.423 49.8181 125.824 49.7545 125.36 49.8171C124.373 49.9484 123.188 49.9537 122.216 50.0367C121.623 50.0996 120.958 50.0898 120.416 49.8929C120.269 49.8349 120.046 49.738 119.988 49.6037C119.929 49.4024 120.015 49.2327 120.133 49.0529C120.744 48.2586 121.705 47.8756 122.648 47.5615C123.85 47.1998 125.09 47.0347 126.347 46.9618L126.699 46.9378C126.949 46.9247 127.163 46.7414 127.228 46.4868L127.251 46.3974C127.306 46.1707 127.296 45.9375 127.21 45.7191C127.115 45.4815 126.894 45.3309 126.65 45.3368L126.276 45.3429C124.894 45.3824 123.52 45.5616 122.183 45.9912C120.966 46.4013 119.661 47.0215 118.899 48.1798C118.475 48.8472 118.308 49.7617 118.87 50.4918C119.663 51.4652 121.21 51.1405 122.285 51.1203C123.387 51.0503 124.452 50.9373 125.537 50.9561C125.62 50.9473 125.811 50.9873 125.841 51.031C125.863 51.0554 125.85 51.0568 125.86 51.0892C125.866 51.1554 125.872 51.2151 125.866 51.2826C124.723 51.5912 123.593 51.8984 122.47 52.3388C121.968 52.5393 121.449 52.7683 120.985 53.0919C120.332 53.5293 119.772 54.3181 120.057 55.178C120.469 56.2788 121.927 56.2245 122.853 56.1331C124.018 55.9828 125.092 55.3802 125.911 54.5305C126.471 53.9357 126.961 53.2278 127.211 52.425C127.731 52.2762 128.245 52.128 128.766 51.9857C128.768 52.0056 128.769 52.0188 128.771 52.0387C128.807 53.1125 129.161 54.3465 130.188 54.8265C131.33 55.348 132.6 54.8318 133.616 54.289C135.435 53.2529 136.58 52.1944 137.791 50.6807L137.974 50.4471C138.077 50.3157 138.091 50.1335 138.006 49.9886L137.935 49.8623L137.934 49.8556ZM122.234 54.5121C122.08 54.5151 121.913 54.5194 121.757 54.5092C121.793 54.4786 121.835 54.4474 121.87 54.4169C122.758 53.8074 123.803 53.4892 124.832 53.1391C124.894 53.1191 124.957 53.0991 125.019 53.0791C124.316 53.9232 123.31 54.4985 122.234 54.5121ZM134.828 47.2604C134.828 47.2604 134.828 47.267 134.829 47.2736C134.829 47.2736 134.829 47.2736 134.83 47.2803C134.829 47.2736 134.828 47.267 134.828 47.2604ZM131.802 48.6052C132.58 48.0007 133.815 47.3143 134.785 47.3453C134.804 47.3433 134.824 47.3478 134.837 47.3531C134.838 47.4333 134.82 47.5088 134.778 47.6003C134.709 47.7548 134.555 47.9519 134.36 48.1332C133.458 48.9182 132.04 49.5102 130.553 49.9825C130.873 49.4466 131.311 48.9852 131.802 48.5986L131.802 48.6052Z" stroke="#8690A0" stroke-width="0.1"/>
<path d="M146.584 52.305C146.549 52.2819 146.522 52.2647 146.508 52.2528C146.38 52.1391 146.309 52.0061 146.239 51.8195C146.03 51.2059 146.043 50.4281 146.053 49.7445C146.059 48.7064 146.167 47.6442 145.909 46.6008C145.592 45.3561 144.634 44.7951 143.435 44.9892C142.245 45.1488 141.337 45.7404 140.659 46.5753C140.708 46.2956 140.758 46.0159 140.815 45.7422C140.83 45.5064 140.741 45.3284 140.548 45.1347L140.448 45.0382C140.2 44.8102 139.857 44.7328 139.545 44.8395C139.502 44.8574 139.471 44.8674 139.471 44.8674C139.246 44.9448 139.037 45.1142 138.97 45.3422C138.924 45.5278 138.891 45.7186 138.858 45.9029C138.449 48.1481 138.226 50.454 138.472 52.7369C138.498 53.0084 138.538 53.2786 138.584 53.5481C138.617 53.7454 138.786 53.8882 138.973 53.895L139.49 53.9071C139.697 53.912 139.874 53.7526 139.905 53.5419C139.994 52.8766 140.066 52.2332 140.175 51.5791C140.465 49.8886 140.91 47.8804 142.319 46.8677C142.705 46.5992 143.159 46.4373 143.618 46.3819C143.95 46.3468 144.29 46.3308 144.474 46.6324C144.606 46.8528 144.663 47.168 144.697 47.4521C144.731 47.7898 144.736 48.1641 144.735 48.5457C144.738 49.9441 144.475 51.8393 145.354 53.0311C145.493 53.2037 145.647 53.3948 145.855 53.4731C145.955 53.5094 146.07 53.4906 146.154 53.4281L146.274 53.3417C146.485 53.1922 146.644 52.9812 146.729 52.7313C146.785 52.5781 146.729 52.4034 146.598 52.3169L146.584 52.305Z" stroke="#8690A0" stroke-width="0.1"/>
<defs>
<clipPath id="clip0_1417_237810">
<rect width="150.4" height="32" fill="white" transform="translate(0.5 0.5)"/>
</clipPath>
</defs>
</svg>
