<?xml version="1.0" encoding="UTF-8" standalone="no"?>
<!DOCTYPE svg PUBLIC "-//W3C//DTD SVG 1.1//EN" "http://www.w3.org/Graphics/SVG/1.1/DTD/svg11.dtd">
<svg width="100%" height="100%" viewBox="0 0 161 68" version="1.1" xmlns="http://www.w3.org/2000/svg" xmlns:xlink="http://www.w3.org/1999/xlink" xml:space="preserve" xmlns:serif="http://www.serif.com/" style="fill-rule:evenodd;clip-rule:evenodd;">
    <g transform="matrix(1,0,0,1,-0.5,-0.5)">
        <path d="M63.048,6.9L63.048,26.1L59.707,26.1L59.707,11.033L59.662,11.033L53.692,26.1L51.465,26.1L45.362,11.033L45.362,26.1L42.288,26.1L42.288,6.9L47.099,6.9L52.623,21.122L52.712,21.122L58.548,6.9L63.137,6.9L63.048,6.9ZM65.854,8.367C65.854,7.833 66.033,7.389 66.434,7.033C66.835,6.678 67.28,6.5 67.815,6.5C68.349,6.5 68.884,6.678 69.24,7.078C69.597,7.433 69.819,7.878 69.819,8.411C69.819,8.944 69.641,9.389 69.24,9.744C68.839,10.1 68.394,10.278 67.815,10.278C67.236,10.278 66.79,10.1 66.434,9.744C66.033,9.389 65.854,8.944 65.854,8.411L65.854,8.367ZM69.418,12.322L69.418,26.1L66.166,26.1L66.166,12.322L69.418,12.322ZM79.264,23.744C79.754,23.744 80.289,23.611 80.868,23.389C81.447,23.167 81.981,22.856 82.472,22.5L82.472,25.522C81.937,25.833 81.358,26.056 80.69,26.189C80.021,26.322 79.309,26.411 78.507,26.411C76.457,26.411 74.809,25.789 73.562,24.5C72.27,23.211 71.646,21.567 71.646,19.611C71.646,17.656 72.314,15.567 73.606,14.145C74.898,12.722 76.725,12.011 79.13,12.011C81.536,12.011 80.333,12.1 80.957,12.233C81.581,12.411 82.071,12.589 82.427,12.767L82.427,15.878C81.937,15.522 81.402,15.211 80.912,15.033C80.378,14.811 79.843,14.722 79.309,14.722C78.016,14.722 76.992,15.122 76.19,15.967C75.388,16.811 74.987,17.922 74.987,19.344C74.987,20.767 75.344,21.833 76.101,22.589C76.858,23.344 77.883,23.744 79.175,23.744L79.264,23.744ZM91.738,12.1C92.005,12.1 92.228,12.1 92.451,12.145C92.673,12.189 92.852,12.233 92.985,12.278L92.985,15.567C92.807,15.433 92.584,15.344 92.228,15.211C91.916,15.078 91.515,15.033 91.025,15.033C90.223,15.033 89.555,15.389 89.02,16.056C88.486,16.722 88.174,17.744 88.174,19.167L88.174,26.1L84.922,26.1L84.922,12.322L88.174,12.322L88.174,14.5L88.218,14.5C88.53,13.744 88.976,13.167 89.555,12.722C90.134,12.278 90.891,12.1 91.738,12.1ZM93.119,19.389C93.119,17.122 93.743,15.3 95.034,13.967C96.327,12.633 98.109,11.967 100.425,11.967C102.742,11.967 104.256,12.589 105.459,13.878C106.662,15.167 107.286,16.9 107.286,19.078C107.286,21.256 106.662,23.078 105.37,24.411C104.078,25.744 102.341,26.411 100.113,26.411C97.886,26.411 96.282,25.789 95.034,24.544C93.787,23.3 93.163,21.567 93.163,19.389L93.119,19.389ZM96.505,19.3C96.505,20.722 96.817,21.833 97.485,22.589C98.153,23.344 99.089,23.744 100.291,23.744C101.494,23.744 102.385,23.344 103.009,22.589C103.633,21.833 103.944,20.722 103.944,19.211C103.944,17.7 103.633,16.633 102.964,15.878C102.341,15.122 101.45,14.767 100.291,14.767C99.133,14.767 98.198,15.167 97.529,15.967C96.861,16.767 96.549,17.878 96.549,19.344L96.505,19.3ZM112.142,15.922C112.142,16.367 112.275,16.767 112.587,17.033C112.899,17.3 113.523,17.611 114.547,18.011C115.839,18.545 116.775,19.122 117.265,19.744C117.799,20.411 118.067,21.167 118.067,22.1C118.067,23.033 117.577,24.456 116.552,25.211C115.572,26.011 114.191,26.411 112.498,26.411C110.805,26.411 111.295,26.322 110.582,26.189C109.87,26.056 109.29,25.878 108.8,25.656L108.8,22.456C109.38,22.856 110.048,23.211 110.716,23.433C111.384,23.656 112.008,23.789 112.587,23.789C113.166,23.789 113.879,23.7 114.191,23.478C114.503,23.256 114.726,22.945 114.726,22.456C114.726,21.967 114.547,21.611 114.191,21.344C113.835,21.078 113.122,20.678 112.142,20.278C110.939,19.789 110.092,19.211 109.602,18.589C109.112,17.967 108.845,17.167 108.845,16.189C108.845,15.211 109.335,13.922 110.315,13.122C111.295,12.322 112.587,11.922 114.146,11.922C115.706,11.922 115.171,11.967 115.75,12.1C116.329,12.189 116.864,12.367 117.265,12.5L117.265,15.567C116.819,15.3 116.329,15.033 115.75,14.811C115.171,14.589 114.592,14.5 114.057,14.5C113.523,14.5 112.944,14.633 112.632,14.856C112.275,15.078 112.097,15.433 112.097,15.833L112.142,15.922ZM119.448,19.389C119.448,17.122 120.071,15.3 121.363,13.967C122.655,12.633 124.437,11.967 126.754,11.967C129.071,11.967 130.585,12.589 131.788,13.878C132.991,15.167 133.615,16.9 133.615,19.078C133.615,21.256 132.991,23.078 131.699,24.411C130.407,25.744 128.67,26.411 126.442,26.411C124.215,26.411 122.611,25.789 121.363,24.544C120.116,23.3 119.492,21.567 119.492,19.389L119.448,19.389ZM122.834,19.3C122.834,20.722 123.145,21.833 123.814,22.589C124.482,23.344 125.417,23.744 126.62,23.744C127.823,23.744 128.714,23.344 129.338,22.589C129.962,21.833 130.273,20.722 130.273,19.211C130.273,17.7 129.962,16.633 129.293,15.878C128.67,15.122 127.779,14.767 126.62,14.767C125.462,14.767 124.526,15.167 123.858,15.967C123.19,16.767 122.878,17.878 122.878,19.344L122.834,19.3ZM144.396,14.989L139.54,14.989L139.54,26.1L136.243,26.1L136.243,14.989L133.926,14.989L133.926,12.322L136.243,12.322L136.243,10.411C136.243,8.944 136.733,7.789 137.669,6.856C138.604,5.922 139.807,5.478 141.277,5.478C142.747,5.478 142.035,5.478 142.346,5.522C142.658,5.522 142.926,5.611 143.148,5.7L143.148,8.5C143.059,8.456 142.836,8.367 142.569,8.278C142.302,8.189 141.99,8.144 141.634,8.144C140.965,8.144 140.431,8.367 140.074,8.767C139.718,9.167 139.54,9.833 139.54,10.633L139.54,12.278L144.396,12.278L144.396,9.167L147.648,8.189L147.648,12.278L150.944,12.278L150.944,14.944L147.648,14.944L147.648,21.389C147.648,22.233 147.781,22.856 148.093,23.167C148.405,23.522 148.895,23.7 149.563,23.7C150.232,23.7 149.964,23.656 150.232,23.567C150.499,23.478 150.722,23.389 150.944,23.256L150.944,25.922C150.722,26.056 150.41,26.145 149.92,26.233C149.43,26.322 148.984,26.367 148.494,26.367C147.113,26.367 146.089,26.011 145.42,25.256C144.752,24.545 144.396,23.433 144.396,21.967L144.396,14.9L144.396,14.989Z" style="fill:rgb(16,18,18);fill-rule:nonzero;"/>
        <rect x="0.5" y="0.5" width="15.236" height="15.2" style="fill:rgb(242,80,34);fill-rule:nonzero;"/>
        <rect x="17.34" y="0.5" width="15.236" height="15.2" style="fill:rgb(127,186,0);fill-rule:nonzero;"/>
        <rect x="0.5" y="17.3" width="15.236" height="15.2" style="fill:rgb(0,164,239);fill-rule:nonzero;"/>
        <rect x="17.34" y="17.3" width="15.236" height="15.2" style="fill:rgb(255,185,0);fill-rule:nonzero;"/>
    </g>
    <g transform="matrix(1,0,0,1,-0.5,-0.5)">
        <path d="M94.775,57.805C94.775,57.805 94.782,57.805 94.782,57.811L94.783,57.818L94.768,57.793C94.768,57.793 94.761,57.793 94.755,57.794L94.775,57.805Z" style="fill:rgb(134,144,160);fill-rule:nonzero;"/>
    </g>
    <g transform="matrix(1,0,0,1,-0.5,-0.5)">
        <path d="M96.567,49.343C95.639,49.803 94.88,50.667 94.248,51.771C94.336,51.099 94.424,50.427 94.513,49.762L94.59,49.178C94.623,48.92 94.477,48.682 94.243,48.599L93.963,48.502C93.722,48.42 93.462,48.394 93.207,48.421L93.041,48.439C92.798,48.465 92.606,48.666 92.585,48.916C92.562,49.199 92.529,49.517 92.529,49.517C92.081,54.497 91.64,59.476 91.336,64.468C91.303,64.987 91.269,65.686 91.243,66.204C91.227,66.621 91.213,67.071 91.212,67.513C91.211,67.767 91.407,67.981 91.652,67.988C91.768,67.989 91.891,67.99 92.001,67.991C92.239,67.993 92.453,67.81 92.455,67.562C92.454,67.495 92.454,67.428 92.453,67.354C92.476,66.997 92.504,66.626 92.529,66.296C92.772,63.68 93.068,61.065 93.389,58.454C93.471,58.626 93.576,58.783 93.718,58.915C94.031,59.203 94.485,59.295 94.884,59.233C95.14,59.206 95.399,59.158 95.65,59.091C98.09,58.465 99.771,56.111 100.287,53.647C100.554,52.307 100.56,50.673 99.547,49.623C98.73,48.793 97.525,48.867 96.56,49.344L96.567,49.343ZM98.674,53.31C98.394,54.905 97.498,56.72 96.176,57.63C95.91,57.812 95.305,58.017 94.923,58.057C94.54,58.098 94.51,57.532 94.51,57.532C94.457,57.063 94.527,56.54 94.616,56.069C94.661,55.81 94.764,55.417 94.837,55.115C94.86,55.019 94.818,54.916 94.742,54.864L94.355,54.604L94.342,54.606C94.905,53.328 95.64,52.219 96.603,51.401C96.984,51.079 97.352,50.826 97.823,50.763C98.145,50.702 98.382,50.811 98.535,51.122C98.846,51.785 98.796,52.587 98.68,53.302L98.674,53.31Z" style="fill:rgb(134,144,160);fill-rule:nonzero;"/>
    </g>
    <g transform="matrix(1,0,0,1,-0.5,-0.5)">
        <path d="M107.124,50.559C107.175,50.554 107.254,50.566 107.281,50.576C107.3,50.581 107.32,50.585 107.342,50.61C107.494,50.775 107.535,51.065 107.559,51.303C107.586,51.641 107.547,52.027 107.47,52.356C107.43,52.535 107.307,52.856 107.221,53.092C107.179,53.197 107.198,53.316 107.265,53.409L107.317,53.484C107.407,53.608 107.525,53.696 107.66,53.749L107.76,53.785C107.887,53.832 108.025,53.797 108.112,53.694L108.371,53.385C108.631,53.077 108.779,52.753 108.911,52.391C109.325,51.236 109.259,49.597 108.074,48.953C107.536,48.662 106.948,48.651 106.389,48.804C105.429,49.066 104.637,49.792 104.03,50.56C103.67,51.026 103.352,51.522 103.061,52.041L103.055,52.042C103.154,50.954 103.269,49.65 103.335,48.886L103.385,48.346C103.41,48.082 103.251,47.838 103.011,47.763C102.845,47.714 102.647,47.661 102.446,47.656C102.265,47.648 102.08,47.668 101.922,47.704C101.676,47.757 101.498,47.977 101.492,48.239C101.467,49.747 101.439,51.798 101.404,53.201C101.371,54.563 101.332,55.925 101.273,57.283C101.266,57.465 101.384,57.62 101.555,57.655C101.66,57.677 101.765,57.693 101.864,57.716C101.95,57.734 102.029,57.752 102.114,57.763C102.186,57.776 102.255,57.822 102.325,57.814C102.402,57.806 102.472,57.732 102.51,57.668C102.61,57.503 102.622,57.294 102.649,57.111C102.685,56.893 102.707,56.663 102.744,56.445C102.819,55.968 102.934,55.501 103.088,55.043C103.391,54.134 103.848,53.276 104.425,52.526C104.762,52.088 105.129,51.701 105.568,51.374C105.897,51.124 106.25,50.906 106.61,50.701C106.769,50.617 106.949,50.551 107.129,50.545L107.124,50.559Z" style="fill:rgb(134,144,160);fill-rule:nonzero;"/>
    </g>
    <g transform="matrix(1,0,0,1,-0.5,-0.5)">
        <path d="M119.801,52.214C119.767,52.063 119.71,51.875 119.596,51.767C119.481,51.652 119.309,51.61 119.179,51.59C119.048,51.577 118.924,51.624 118.837,51.72C118.32,52.29 117.754,52.826 117.116,53.288C116.089,54.046 114.962,54.708 113.799,55.199C113.217,55.442 112.624,55.638 112.047,55.733C111.761,55.777 111.479,55.793 111.244,55.765C111.159,55.754 111.073,55.736 111,55.71C113.394,54.827 115.89,53.465 116.61,51.428C116.848,50.713 116.901,49.884 116.566,49.17C115.896,47.869 114.431,48.246 113.445,48.839C111.937,49.748 110.592,51.209 109.778,52.815C109.53,53.303 109.324,53.894 109.254,54.49C108.54,54.699 107.861,54.865 107.273,54.988L106.786,55.086C106.572,55.129 106.41,55.32 106.394,55.549C106.384,55.711 106.384,55.905 106.422,56.089C106.45,56.246 106.511,56.4 106.569,56.535C106.667,56.745 106.885,56.863 107.106,56.812C107.378,56.757 107.712,56.688 107.857,56.653C108.355,56.533 108.926,56.379 109.533,56.194C109.726,56.515 110.011,56.786 110.422,56.969C111.375,57.35 112.383,57.109 113.296,56.825C115.453,56.088 117.828,54.611 119.413,52.911L119.698,52.599C119.79,52.496 119.828,52.351 119.795,52.214L119.801,52.214ZM114.151,50.169C114.5,49.985 114.844,49.808 115.195,49.838C115.195,49.838 115.214,49.836 115.215,49.842C115.262,49.931 115.271,50.017 115.279,50.17C115.309,50.669 115.092,51.14 114.789,51.527C113.938,52.574 112.387,53.381 110.783,53.973C111.338,52.422 112.965,50.817 114.143,50.157L114.151,50.169Z" style="fill:rgb(134,144,160);fill-rule:nonzero;"/>
    </g>
    <g transform="matrix(1,0,0,1,-0.5,-0.5)">
        <path d="M152.842,49.178L152.76,49.127C152.616,49.042 152.463,48.991 152.294,48.975L152.216,48.97C152.06,48.96 151.915,49.056 151.859,49.209C151.804,49.369 151.738,49.543 151.738,49.543C151.517,50.176 150.831,51.781 150.154,51.973C149.681,51.816 149.556,51.08 149.476,50.599C149.37,49.788 149.411,48.967 149.483,48.136C149.649,46.425 149.997,44.728 150.424,43.057C150.447,42.961 150.476,42.864 150.499,42.768C151.883,42.427 153.249,42.034 154.596,41.57L154.951,41.446C155.082,41.398 155.159,41.27 155.145,41.124L155.139,41.064C155.117,40.839 155.043,40.619 154.927,40.424L154.904,40.386C154.834,40.267 154.694,40.215 154.569,40.255L154.2,40.374C153.124,40.702 152.036,40.978 150.939,41.228C151.047,40.889 151.162,40.556 151.285,40.228C151.321,40.137 151.356,40.04 151.406,39.961L151.727,39.291C151.834,39.072 151.814,38.8 151.671,38.601C151.552,38.433 151.377,38.237 151.145,38.108C150.934,37.99 150.664,37.938 150.437,37.922C150.177,37.896 149.927,38.043 149.809,38.283C149.648,38.615 149.445,39.031 149.385,39.205C149.097,40.012 148.89,40.844 148.702,41.68C148.278,41.758 147.86,41.836 147.435,41.908C145.748,42.194 144.021,42.391 142.318,42.571C142.075,42.597 141.882,42.791 141.849,43.042L141.852,43.076C141.813,43.334 141.839,43.599 141.928,43.844L141.954,43.915C142.037,44.16 142.278,44.315 142.525,44.276C142.722,44.248 142.907,44.222 142.907,44.222C144.134,44.052 145.378,43.853 146.6,43.63C147.194,43.513 147.789,43.396 148.382,43.267C147.895,45.902 147.318,49.958 148.333,52.14C148.66,52.834 149.269,53.385 150.038,53.465C150.343,53.486 150.672,53.364 150.903,53.225C151.943,52.593 152.546,51.07 152.892,49.936L152.988,49.611C153.037,49.446 152.974,49.271 152.83,49.186L152.842,49.178Z" style="fill:rgb(134,144,160);fill-rule:nonzero;"/>
    </g>
    <g transform="matrix(1,0,0,1,-0.5,-0.5)">
        <path d="M160.271,43.344L160.2,43.218C160.098,43.028 159.894,42.929 159.691,42.957L159.1,43.04C157.601,43.266 156.123,43.577 154.673,44.038C153.382,44.476 151.314,45.204 150.98,46.779C150.829,47.471 151.15,48.166 151.762,48.49C152.218,48.736 152.663,48.796 153.138,48.839C153.677,48.882 154.186,48.875 154.681,48.863C155.749,48.843 157.128,48.704 158.159,48.902C158.376,48.946 158.531,49.01 158.628,49.08C158.628,49.08 158.627,49.067 158.63,49.093C158.626,49.254 158.592,49.425 158.549,49.577C158.314,50.331 157.576,50.758 156.838,50.99C155.888,51.291 154.795,51.314 153.768,51.235C153.645,51.228 153.524,51.301 153.471,51.421C153.376,51.638 153.348,51.875 153.391,52.112L153.416,52.23C153.442,52.367 153.549,52.47 153.686,52.482C153.861,52.497 154.07,52.522 154.07,52.522C155.865,52.679 158.166,52.482 159.397,50.919C159.695,50.54 159.893,50.07 159.981,49.586C160.062,49.169 160.071,48.746 159.858,48.347C159.397,47.539 158.447,47.386 157.652,47.296C156.747,47.205 155.565,47.25 154.662,47.245C154.185,47.242 153.714,47.239 153.29,47.19C153.088,47.164 152.846,47.13 152.658,47.056C153.576,45.848 157.859,45.159 159.332,44.99L159.893,44.93C160.116,44.907 160.298,44.727 160.34,44.501L160.406,44.12C160.451,43.861 160.411,43.59 160.285,43.356L160.271,43.344ZM152.535,46.989C152.521,46.977 152.521,46.977 152.535,46.989Z" style="fill:rgb(134,144,160);fill-rule:nonzero;"/>
    </g>
    <g transform="matrix(1,0,0,1,-0.5,-0.5)">
        <path d="M137.934,49.856C137.856,49.717 137.723,49.61 137.576,49.566L137.543,49.556C137.397,49.511 137.247,49.56 137.143,49.679C136.692,50.208 136.217,50.74 135.709,51.216C134.653,52.198 133.614,52.844 132.168,53.405C131.545,53.625 130.719,53.807 130.349,53.136C130.114,52.713 130.012,52.141 130.037,51.61C130.199,51.559 130.369,51.515 130.531,51.464C131.494,51.161 132.468,50.844 133.416,50.455C134.091,50.176 134.738,49.873 135.343,49.408C136.063,48.869 136.628,47.993 136.499,47.023C136.436,46.387 135.962,45.835 135.372,45.67C134.813,45.488 134.17,45.577 133.693,45.708C131.608,46.324 129.578,48.219 128.962,50.459C128.41,50.611 127.869,50.749 127.367,50.883C127.354,50.496 127.323,50.245 126.897,50.049C126.423,49.818 125.824,49.755 125.359,49.817C124.373,49.948 123.187,49.954 122.216,50.037C121.622,50.1 120.957,50.09 120.416,49.893C120.268,49.835 120.046,49.738 119.987,49.604C119.929,49.402 120.015,49.233 120.133,49.053C120.744,48.259 121.705,47.876 122.647,47.562C123.849,47.2 125.09,47.035 126.346,46.962L126.698,46.938C126.948,46.925 127.162,46.741 127.227,46.487L127.251,46.397C127.306,46.171 127.295,45.938 127.209,45.719C127.115,45.481 126.894,45.331 126.649,45.337L126.276,45.343C124.894,45.382 123.519,45.562 122.182,45.991C120.966,46.401 119.66,47.022 118.898,48.18C118.475,48.847 118.307,49.762 118.87,50.492C119.663,51.465 121.21,51.141 122.284,51.12C123.386,51.05 124.452,50.937 125.537,50.956C125.619,50.947 125.81,50.987 125.84,51.031C125.862,51.055 125.85,51.057 125.859,51.089C125.866,51.155 125.872,51.215 125.865,51.283C124.723,51.591 123.593,51.898 122.47,52.339C121.967,52.539 121.448,52.768 120.984,53.092C120.331,53.529 119.771,54.318 120.056,55.178C120.468,56.279 121.927,56.225 122.852,56.133C124.017,55.983 125.092,55.38 125.91,54.531C126.47,53.936 126.961,53.228 127.21,52.425C127.73,52.276 128.244,52.128 128.765,51.986C128.767,52.006 128.769,52.019 128.77,52.039C128.806,53.112 129.16,54.347 130.188,54.827C131.329,55.348 132.599,54.832 133.616,54.289C135.434,53.253 136.58,52.194 137.79,50.681L137.973,50.447C138.076,50.316 138.09,50.134 138.005,49.989L137.935,49.862L137.934,49.856ZM122.234,54.512C122.079,54.515 121.912,54.519 121.756,54.509C121.792,54.479 121.834,54.447 121.87,54.417C122.757,53.807 123.802,53.489 124.831,53.139C124.894,53.119 124.956,53.099 125.019,53.079C124.316,53.923 123.309,54.499 122.234,54.512ZM134.827,47.26C134.827,47.26 134.828,47.267 134.829,47.274L134.829,47.28C134.829,47.274 134.828,47.267 134.827,47.26ZM131.802,48.605C132.58,48.001 133.814,47.314 134.784,47.345C134.803,47.343 134.823,47.348 134.836,47.353C134.838,47.433 134.82,47.509 134.777,47.6C134.709,47.755 134.554,47.952 134.359,48.133C133.457,48.918 132.04,49.51 130.552,49.983C130.873,49.447 131.311,48.985 131.801,48.599L131.802,48.605Z" style="fill:rgb(134,144,160);fill-rule:nonzero;"/>
    </g>
    <g transform="matrix(1,0,0,1,-0.5,-0.5)">
        <path d="M146.583,52.305C146.549,52.282 146.521,52.265 146.507,52.253C146.38,52.139 146.309,52.006 146.239,51.82C146.029,51.206 146.043,50.428 146.052,49.745C146.059,48.706 146.166,47.644 145.908,46.601C145.591,45.356 144.633,44.795 143.434,44.989C142.244,45.149 141.336,45.74 140.658,46.575C140.708,46.296 140.757,46.016 140.814,45.742C140.829,45.506 140.741,45.328 140.548,45.135L140.448,45.038C140.199,44.81 139.857,44.733 139.545,44.84C139.501,44.857 139.47,44.867 139.47,44.867C139.246,44.945 139.037,45.114 138.969,45.342C138.923,45.528 138.891,45.719 138.857,45.903C138.448,48.148 138.225,50.454 138.471,52.737C138.498,53.008 138.538,53.279 138.584,53.548C138.616,53.745 138.785,53.888 138.973,53.895L139.49,53.907C139.696,53.912 139.874,53.753 139.905,53.542C139.993,52.877 140.065,52.233 140.174,51.579C140.464,49.889 140.91,47.88 142.318,46.868C142.704,46.599 143.159,46.437 143.617,46.382C143.949,46.347 144.289,46.331 144.474,46.632C144.605,46.853 144.662,47.168 144.697,47.452C144.73,47.79 144.735,48.164 144.734,48.546C144.738,49.944 144.474,51.839 145.353,53.031C145.493,53.204 145.647,53.395 145.855,53.473C145.955,53.509 146.069,53.491 146.153,53.428L146.273,53.342C146.484,53.192 146.644,52.981 146.729,52.731C146.784,52.578 146.728,52.403 146.597,52.317L146.583,52.305Z" style="fill:rgb(134,144,160);fill-rule:nonzero;"/>
    </g>
    <g transform="matrix(1,0,0,1,-0.5,-0.5)">
        <path d="M94.775,57.805C94.775,57.805 94.782,57.805 94.782,57.811L94.783,57.818L94.768,57.793C94.768,57.793 94.761,57.793 94.755,57.794L94.775,57.805Z" style="fill:none;fill-rule:nonzero;stroke:rgb(134,144,160);stroke-width:0.1px;"/>
    </g>
    <g transform="matrix(1,0,0,1,-0.5,-0.5)">
        <path d="M96.567,49.343C95.639,49.803 94.88,50.667 94.248,51.771C94.336,51.099 94.424,50.427 94.513,49.762L94.59,49.178C94.623,48.92 94.477,48.682 94.243,48.599L93.963,48.502C93.722,48.42 93.462,48.394 93.207,48.421L93.041,48.439C92.798,48.465 92.606,48.666 92.585,48.916C92.562,49.199 92.529,49.517 92.529,49.517C92.081,54.497 91.64,59.476 91.336,64.468C91.303,64.987 91.269,65.686 91.243,66.204C91.227,66.621 91.213,67.071 91.212,67.513C91.211,67.767 91.407,67.981 91.652,67.988C91.768,67.989 91.891,67.99 92.001,67.991C92.239,67.993 92.453,67.81 92.455,67.562C92.454,67.495 92.454,67.428 92.453,67.354C92.476,66.997 92.504,66.626 92.529,66.296C92.772,63.68 93.068,61.065 93.389,58.454C93.471,58.626 93.576,58.783 93.718,58.915C94.031,59.203 94.485,59.295 94.884,59.233C95.14,59.206 95.399,59.158 95.65,59.091C98.09,58.465 99.771,56.111 100.287,53.647C100.554,52.307 100.56,50.673 99.547,49.623C98.73,48.793 97.525,48.867 96.56,49.344L96.567,49.343ZM98.674,53.31C98.394,54.905 97.498,56.72 96.176,57.63C95.91,57.812 95.305,58.017 94.923,58.057C94.54,58.098 94.51,57.532 94.51,57.532C94.457,57.063 94.527,56.54 94.616,56.069C94.661,55.81 94.764,55.417 94.837,55.115C94.86,55.019 94.818,54.916 94.742,54.864L94.355,54.604L94.342,54.606C94.905,53.328 95.64,52.219 96.603,51.401C96.984,51.079 97.352,50.826 97.823,50.763C98.145,50.702 98.382,50.811 98.535,51.122C98.846,51.785 98.796,52.587 98.68,53.302L98.674,53.31Z" style="fill:none;fill-rule:nonzero;stroke:rgb(134,144,160);stroke-width:0.1px;"/>
    </g>
    <g transform="matrix(1,0,0,1,-0.5,-0.5)">
        <path d="M107.124,50.559C107.175,50.554 107.254,50.566 107.281,50.576C107.3,50.581 107.32,50.585 107.342,50.61C107.494,50.775 107.535,51.065 107.559,51.303C107.586,51.641 107.547,52.027 107.47,52.356C107.43,52.535 107.307,52.856 107.221,53.092C107.179,53.197 107.198,53.316 107.265,53.409L107.317,53.484C107.407,53.608 107.525,53.696 107.66,53.749L107.76,53.785C107.887,53.832 108.025,53.797 108.112,53.694L108.371,53.385C108.631,53.077 108.779,52.753 108.911,52.391C109.325,51.236 109.259,49.597 108.074,48.953C107.536,48.662 106.948,48.651 106.389,48.804C105.429,49.066 104.637,49.792 104.03,50.56C103.67,51.026 103.352,51.522 103.061,52.041L103.055,52.042C103.154,50.954 103.269,49.65 103.335,48.886L103.385,48.346C103.41,48.082 103.251,47.838 103.011,47.763C102.845,47.714 102.647,47.661 102.446,47.656C102.265,47.648 102.08,47.668 101.922,47.704C101.676,47.757 101.498,47.977 101.492,48.239C101.467,49.747 101.439,51.798 101.404,53.201C101.371,54.563 101.332,55.925 101.273,57.283C101.266,57.465 101.384,57.62 101.555,57.655C101.66,57.677 101.765,57.693 101.864,57.716C101.95,57.734 102.029,57.752 102.114,57.763C102.186,57.776 102.255,57.822 102.325,57.814C102.402,57.806 102.472,57.732 102.51,57.668C102.61,57.503 102.622,57.294 102.649,57.111C102.685,56.893 102.707,56.663 102.744,56.445C102.819,55.968 102.934,55.501 103.088,55.043C103.391,54.134 103.848,53.276 104.425,52.526C104.762,52.088 105.129,51.701 105.568,51.374C105.897,51.124 106.25,50.906 106.61,50.701C106.769,50.617 106.949,50.551 107.129,50.545L107.124,50.559Z" style="fill:none;fill-rule:nonzero;stroke:rgb(134,144,160);stroke-width:0.1px;"/>
    </g>
    <g transform="matrix(1,0,0,1,-0.5,-0.5)">
        <path d="M119.801,52.214C119.767,52.063 119.71,51.875 119.596,51.767C119.481,51.652 119.309,51.61 119.179,51.59C119.048,51.577 118.924,51.624 118.837,51.72C118.32,52.29 117.754,52.826 117.116,53.288C116.089,54.046 114.962,54.708 113.799,55.199C113.217,55.442 112.624,55.638 112.047,55.733C111.761,55.777 111.479,55.793 111.244,55.765C111.159,55.754 111.073,55.736 111,55.71C113.394,54.827 115.89,53.465 116.61,51.428C116.848,50.713 116.901,49.884 116.566,49.17C115.896,47.869 114.431,48.246 113.445,48.839C111.937,49.748 110.592,51.209 109.778,52.815C109.53,53.303 109.324,53.894 109.254,54.49C108.54,54.699 107.861,54.865 107.273,54.988L106.786,55.086C106.572,55.129 106.41,55.32 106.394,55.549C106.384,55.711 106.384,55.905 106.422,56.089C106.45,56.246 106.511,56.4 106.569,56.535C106.667,56.745 106.885,56.863 107.106,56.812C107.378,56.757 107.712,56.688 107.857,56.653C108.355,56.533 108.926,56.379 109.533,56.194C109.726,56.515 110.011,56.786 110.422,56.969C111.375,57.35 112.383,57.109 113.296,56.825C115.453,56.088 117.828,54.611 119.413,52.911L119.698,52.599C119.79,52.496 119.828,52.351 119.795,52.214L119.801,52.214ZM114.151,50.169C114.5,49.985 114.844,49.808 115.195,49.838C115.195,49.838 115.214,49.836 115.215,49.842C115.262,49.931 115.271,50.017 115.279,50.17C115.309,50.669 115.092,51.14 114.789,51.527C113.938,52.574 112.387,53.381 110.783,53.973C111.338,52.422 112.965,50.817 114.143,50.157L114.151,50.169Z" style="fill:none;fill-rule:nonzero;stroke:rgb(134,144,160);stroke-width:0.1px;"/>
    </g>
    <g transform="matrix(1,0,0,1,-0.5,-0.5)">
        <path d="M152.842,49.178L152.76,49.127C152.616,49.042 152.463,48.991 152.294,48.975L152.216,48.97C152.06,48.96 151.915,49.056 151.859,49.209C151.804,49.369 151.738,49.543 151.738,49.543C151.517,50.176 150.831,51.781 150.154,51.973C149.681,51.816 149.556,51.08 149.476,50.599C149.37,49.788 149.411,48.967 149.483,48.136C149.649,46.425 149.997,44.728 150.424,43.057C150.447,42.961 150.476,42.864 150.499,42.768C151.883,42.427 153.249,42.034 154.596,41.57L154.951,41.446C155.082,41.398 155.159,41.27 155.145,41.124L155.139,41.064C155.117,40.839 155.043,40.619 154.927,40.424L154.904,40.386C154.834,40.267 154.694,40.215 154.569,40.255L154.2,40.374C153.124,40.702 152.036,40.978 150.939,41.228C151.047,40.889 151.162,40.556 151.285,40.228C151.321,40.137 151.356,40.04 151.406,39.961L151.727,39.291C151.834,39.072 151.814,38.8 151.671,38.601C151.552,38.433 151.377,38.237 151.145,38.108C150.934,37.99 150.664,37.938 150.437,37.922C150.177,37.896 149.927,38.043 149.809,38.283C149.648,38.615 149.445,39.031 149.385,39.205C149.097,40.012 148.89,40.844 148.702,41.68C148.278,41.758 147.86,41.836 147.435,41.908C145.748,42.194 144.021,42.391 142.318,42.571C142.075,42.597 141.882,42.791 141.849,43.042L141.852,43.076C141.813,43.334 141.839,43.599 141.928,43.844L141.954,43.915C142.037,44.16 142.278,44.315 142.525,44.276C142.722,44.248 142.907,44.222 142.907,44.222C144.134,44.052 145.378,43.853 146.6,43.63C147.194,43.513 147.789,43.396 148.382,43.267C147.895,45.902 147.318,49.958 148.333,52.14C148.66,52.834 149.269,53.385 150.038,53.465C150.343,53.486 150.672,53.364 150.903,53.225C151.943,52.593 152.546,51.07 152.892,49.936L152.988,49.611C153.037,49.446 152.974,49.271 152.83,49.186L152.842,49.178Z" style="fill:none;fill-rule:nonzero;stroke:rgb(134,144,160);stroke-width:0.1px;"/>
    </g>
    <g transform="matrix(1,0,0,1,-0.5,-0.5)">
        <path d="M160.271,43.344L160.2,43.218C160.098,43.028 159.894,42.929 159.691,42.957L159.1,43.04C157.601,43.266 156.123,43.577 154.673,44.038C153.382,44.476 151.314,45.204 150.98,46.779C150.829,47.471 151.15,48.166 151.762,48.49C152.218,48.736 152.663,48.796 153.138,48.839C153.677,48.882 154.186,48.875 154.681,48.863C155.749,48.843 157.128,48.704 158.159,48.902C158.376,48.946 158.531,49.01 158.628,49.08C158.628,49.08 158.627,49.067 158.63,49.093C158.626,49.254 158.592,49.425 158.549,49.577C158.314,50.331 157.576,50.758 156.838,50.99C155.888,51.291 154.795,51.314 153.768,51.235C153.645,51.228 153.524,51.301 153.471,51.421C153.376,51.638 153.348,51.875 153.391,52.112L153.416,52.23C153.442,52.367 153.549,52.47 153.686,52.482C153.861,52.497 154.07,52.522 154.07,52.522C155.865,52.679 158.166,52.482 159.397,50.919C159.695,50.54 159.893,50.07 159.981,49.586C160.062,49.169 160.071,48.746 159.858,48.347C159.397,47.539 158.447,47.386 157.652,47.296C156.747,47.205 155.565,47.25 154.662,47.245C154.185,47.242 153.714,47.239 153.29,47.19C153.088,47.164 152.846,47.13 152.658,47.056C153.576,45.848 157.859,45.159 159.332,44.99L159.893,44.93C160.116,44.907 160.298,44.727 160.34,44.501L160.406,44.12C160.451,43.861 160.411,43.59 160.285,43.356L160.271,43.344ZM152.535,46.989C152.521,46.977 152.521,46.977 152.535,46.989Z" style="fill:none;fill-rule:nonzero;stroke:rgb(134,144,160);stroke-width:0.1px;"/>
    </g>
    <g transform="matrix(1,0,0,1,-0.5,-0.5)">
        <path d="M137.934,49.856C137.856,49.717 137.723,49.61 137.576,49.566L137.543,49.556C137.397,49.511 137.247,49.56 137.143,49.679C136.692,50.208 136.217,50.74 135.709,51.216C134.653,52.198 133.614,52.844 132.168,53.405C131.545,53.625 130.719,53.807 130.349,53.136C130.114,52.713 130.012,52.141 130.037,51.61C130.199,51.559 130.369,51.515 130.531,51.464C131.494,51.161 132.468,50.844 133.416,50.455C134.091,50.176 134.738,49.873 135.343,49.408C136.063,48.869 136.628,47.993 136.499,47.023C136.436,46.387 135.962,45.835 135.372,45.67C134.813,45.488 134.17,45.577 133.693,45.708C131.608,46.324 129.578,48.219 128.962,50.459C128.41,50.611 127.869,50.749 127.367,50.883C127.354,50.496 127.323,50.245 126.897,50.049C126.423,49.818 125.824,49.755 125.359,49.817C124.373,49.948 123.187,49.954 122.216,50.037C121.622,50.1 120.957,50.09 120.416,49.893C120.268,49.835 120.046,49.738 119.987,49.604C119.929,49.402 120.015,49.233 120.133,49.053C120.744,48.259 121.705,47.876 122.647,47.562C123.849,47.2 125.09,47.035 126.346,46.962L126.698,46.938C126.948,46.925 127.162,46.741 127.227,46.487L127.251,46.397C127.306,46.171 127.295,45.938 127.209,45.719C127.115,45.481 126.894,45.331 126.649,45.337L126.276,45.343C124.894,45.382 123.519,45.562 122.182,45.991C120.966,46.401 119.66,47.022 118.898,48.18C118.475,48.847 118.307,49.762 118.87,50.492C119.663,51.465 121.21,51.141 122.284,51.12C123.386,51.05 124.452,50.937 125.537,50.956C125.619,50.947 125.81,50.987 125.84,51.031C125.862,51.055 125.85,51.057 125.859,51.089C125.866,51.155 125.872,51.215 125.865,51.283C124.723,51.591 123.593,51.898 122.47,52.339C121.967,52.539 121.448,52.768 120.984,53.092C120.331,53.529 119.771,54.318 120.056,55.178C120.468,56.279 121.927,56.225 122.852,56.133C124.017,55.983 125.092,55.38 125.91,54.531C126.47,53.936 126.961,53.228 127.21,52.425C127.73,52.276 128.244,52.128 128.765,51.986C128.767,52.006 128.769,52.019 128.77,52.039C128.806,53.112 129.16,54.347 130.188,54.827C131.329,55.348 132.599,54.832 133.616,54.289C135.434,53.253 136.58,52.194 137.79,50.681L137.973,50.447C138.076,50.316 138.09,50.134 138.005,49.989L137.935,49.862L137.934,49.856ZM122.234,54.512C122.079,54.515 121.912,54.519 121.756,54.509C121.792,54.479 121.834,54.447 121.87,54.417C122.757,53.807 123.802,53.489 124.831,53.139C124.894,53.119 124.956,53.099 125.019,53.079C124.316,53.923 123.309,54.499 122.234,54.512ZM134.827,47.26C134.827,47.26 134.828,47.267 134.829,47.274L134.829,47.28C134.829,47.274 134.828,47.267 134.827,47.26ZM131.802,48.605C132.58,48.001 133.814,47.314 134.784,47.345C134.803,47.343 134.823,47.348 134.836,47.353C134.838,47.433 134.82,47.509 134.777,47.6C134.709,47.755 134.554,47.952 134.359,48.133C133.457,48.918 132.04,49.51 130.552,49.983C130.873,49.447 131.311,48.985 131.801,48.599L131.802,48.605Z" style="fill:none;fill-rule:nonzero;stroke:rgb(134,144,160);stroke-width:0.1px;"/>
    </g>
    <g transform="matrix(1,0,0,1,-0.5,-0.5)">
        <path d="M146.583,52.305C146.549,52.282 146.521,52.265 146.507,52.253C146.38,52.139 146.309,52.006 146.239,51.82C146.029,51.206 146.043,50.428 146.052,49.745C146.059,48.706 146.166,47.644 145.908,46.601C145.591,45.356 144.633,44.795 143.434,44.989C142.244,45.149 141.336,45.74 140.658,46.575C140.708,46.296 140.757,46.016 140.814,45.742C140.829,45.506 140.741,45.328 140.548,45.135L140.448,45.038C140.199,44.81 139.857,44.733 139.545,44.84C139.501,44.857 139.47,44.867 139.47,44.867C139.246,44.945 139.037,45.114 138.969,45.342C138.923,45.528 138.891,45.719 138.857,45.903C138.448,48.148 138.225,50.454 138.471,52.737C138.498,53.008 138.538,53.279 138.584,53.548C138.616,53.745 138.785,53.888 138.973,53.895L139.49,53.907C139.696,53.912 139.874,53.753 139.905,53.542C139.993,52.877 140.065,52.233 140.174,51.579C140.464,49.889 140.91,47.88 142.318,46.868C142.704,46.599 143.159,46.437 143.617,46.382C143.949,46.347 144.289,46.331 144.474,46.632C144.605,46.853 144.662,47.168 144.697,47.452C144.73,47.79 144.735,48.164 144.734,48.546C144.738,49.944 144.474,51.839 145.353,53.031C145.493,53.204 145.647,53.395 145.855,53.473C145.955,53.509 146.069,53.491 146.153,53.428L146.273,53.342C146.484,53.192 146.644,52.981 146.729,52.731C146.784,52.578 146.728,52.403 146.597,52.317L146.583,52.305Z" style="fill:none;fill-rule:nonzero;stroke:rgb(134,144,160);stroke-width:0.1px;"/>
    </g>
</svg>
