<svg width="151" height="33" viewBox="0 0 151 33" fill="none" xmlns="http://www.w3.org/2000/svg">
<g clip-path="url(#clip0_1417_237811)">
<path d="M63.0483 6.90001V26.1H59.707V11.0333H59.6625L53.6928 26.1H51.4653L45.362 11.0333V26.1H42.2881V6.90001H47.0995L52.6236 21.1222H52.7127L58.5488 6.90001H63.1374H63.0483ZM65.8549 8.36667C65.8549 7.83334 66.0331 7.38889 66.4341 7.03334C66.835 6.67778 67.2805 6.50001 67.8151 6.50001C68.3497 6.50001 68.8843 6.67778 69.2407 7.07778C69.5971 7.43334 69.8198 7.87778 69.8198 8.41112C69.8198 8.94445 69.6416 9.38889 69.2407 9.74445C68.8397 10.1 68.3943 10.2778 67.8151 10.2778C67.236 10.2778 66.7905 10.1 66.4341 9.74445C66.0331 9.38889 65.8549 8.94445 65.8549 8.41112V8.36667ZM69.4189 12.3222V26.1H66.1668V12.3222H69.4189ZM79.2644 23.7444C79.7544 23.7444 80.289 23.6111 80.8682 23.3889C81.4473 23.1667 81.9819 22.8556 82.472 22.5V25.5222C81.9374 25.8333 81.3582 26.0556 80.69 26.1889C80.0217 26.3222 79.3089 26.4111 78.507 26.4111C76.4578 26.4111 74.8094 25.7889 73.562 24.5C72.2701 23.2111 71.6464 21.5667 71.6464 19.6111C71.6464 17.6556 72.3146 15.5667 73.6066 14.1444C74.8985 12.7222 76.7251 12.0111 79.1307 12.0111C81.5364 12.0111 80.3336 12.1 80.9573 12.2333C81.581 12.4111 82.071 12.5889 82.4274 12.7667V15.8778C81.9374 15.5222 81.4028 15.2111 80.9127 15.0333C80.3781 14.8111 79.8435 14.7222 79.3089 14.7222C78.017 14.7222 76.9924 15.1222 76.1905 15.9667C75.3886 16.8111 74.9876 17.9222 74.9876 19.3445C74.9876 20.7667 75.344 21.8333 76.1014 22.5889C76.8587 23.3445 77.8834 23.7444 79.1753 23.7444H79.2644ZM91.7383 12.1C92.0056 12.1 92.2284 12.1 92.4511 12.1445C92.6739 12.1889 92.8521 12.2333 92.9857 12.2778V15.5667C92.8075 15.4333 92.5848 15.3444 92.2284 15.2111C91.9165 15.0778 91.5156 15.0333 91.0255 15.0333C90.2236 15.0333 89.5554 15.3889 89.0208 16.0556C88.4862 16.7222 88.1743 17.7444 88.1743 19.1667V26.1H84.9222V12.3222H88.1743V14.5H88.2189C88.5307 13.7444 88.9762 13.1667 89.5554 12.7222C90.1345 12.2778 90.8919 12.1 91.7383 12.1V12.1ZM93.1194 19.3889C93.1194 17.1222 93.7431 15.3 95.035 13.9667C96.327 12.6333 98.1089 11.9667 100.426 11.9667C102.742 11.9667 104.257 12.5889 105.46 13.8778C106.663 15.1667 107.286 16.9 107.286 19.0778C107.286 21.2556 106.662 23.0778 105.371 24.4111C104.079 25.7444 102.341 26.4111 100.114 26.4111C97.8862 26.4111 96.2824 25.7889 95.035 24.5444C93.7876 23.3 93.1639 21.5667 93.1639 19.3889H93.1194ZM96.5052 19.3C96.5052 20.7222 96.817 21.8333 97.4852 22.5889C98.1535 23.3445 99.089 23.7444 100.292 23.7444C101.495 23.7444 102.386 23.3445 103.009 22.5889C103.633 21.8333 103.945 20.7222 103.945 19.2111C103.945 17.7 103.633 16.6333 102.965 15.8778C102.341 15.1222 101.45 14.7667 100.292 14.7667C99.1336 14.7667 98.198 15.1667 97.5298 15.9667C96.8616 16.7667 96.5497 17.8778 96.5497 19.3445L96.5052 19.3ZM112.142 15.9222C112.142 16.3667 112.276 16.7667 112.588 17.0333C112.899 17.3 113.523 17.6111 114.548 18.0111C115.84 18.5445 116.775 19.1222 117.265 19.7444C117.8 20.4111 118.067 21.1667 118.067 22.1C118.067 23.0333 117.577 24.4556 116.553 25.2111C115.572 26.0111 114.191 26.4111 112.499 26.4111C110.806 26.4111 111.296 26.3222 110.583 26.1889C109.87 26.0556 109.291 25.8778 108.801 25.6556V22.4556C109.38 22.8556 110.048 23.2111 110.717 23.4333C111.385 23.6556 112.008 23.7889 112.588 23.7889C113.167 23.7889 113.88 23.7 114.191 23.4778C114.503 23.2556 114.726 22.9445 114.726 22.4556C114.726 21.9667 114.548 21.6111 114.191 21.3445C113.835 21.0778 113.122 20.6778 112.142 20.2778C110.939 19.7889 110.093 19.2111 109.603 18.5889C109.113 17.9667 108.845 17.1667 108.845 16.1889C108.845 15.2111 109.335 13.9222 110.316 13.1222C111.296 12.3222 112.588 11.9222 114.147 11.9222C115.706 11.9222 115.172 11.9667 115.751 12.1C116.33 12.1889 116.864 12.3667 117.265 12.5V15.5667C116.82 15.3 116.33 15.0333 115.751 14.8111C115.172 14.5889 114.592 14.5 114.058 14.5C113.523 14.5 112.944 14.6333 112.632 14.8556C112.276 15.0778 112.098 15.4333 112.098 15.8333L112.142 15.9222ZM119.448 19.3889C119.448 17.1222 120.072 15.3 121.364 13.9667C122.656 12.6333 124.438 11.9667 126.754 11.9667C129.071 11.9667 130.586 12.5889 131.789 13.8778C132.991 15.1667 133.615 16.9 133.615 19.0778C133.615 21.2556 132.991 23.0778 131.699 24.4111C130.408 25.7444 128.67 26.4111 126.443 26.4111C124.215 26.4111 122.611 25.7889 121.364 24.5444C120.117 23.3 119.493 21.5667 119.493 19.3889H119.448ZM122.834 19.3C122.834 20.7222 123.146 21.8333 123.814 22.5889C124.482 23.3445 125.418 23.7444 126.621 23.7444C127.824 23.7444 128.715 23.3445 129.338 22.5889C129.962 21.8333 130.274 20.7222 130.274 19.2111C130.274 17.7 129.962 16.6333 129.294 15.8778C128.67 15.1222 127.779 14.7667 126.621 14.7667C125.463 14.7667 124.527 15.1667 123.859 15.9667C123.19 16.7667 122.879 17.8778 122.879 19.3445L122.834 19.3ZM144.396 14.9889H139.54V26.1H136.244V14.9889H133.927V12.3222H136.244V10.4111C136.244 8.94445 136.734 7.78889 137.669 6.85556C138.605 5.92223 139.808 5.47778 141.278 5.47778C142.748 5.47778 142.035 5.47778 142.347 5.52223C142.659 5.52223 142.926 5.61112 143.149 5.70001V8.50001C143.06 8.45556 142.837 8.36667 142.57 8.27778C142.302 8.18889 141.99 8.14445 141.634 8.14445C140.966 8.14445 140.431 8.36667 140.075 8.76667C139.718 9.16667 139.54 9.83334 139.54 10.6333V12.2778H144.396V9.16667L147.648 8.18889V12.2778H150.945V14.9444H147.648V21.3889C147.648 22.2333 147.782 22.8556 148.094 23.1667C148.406 23.5222 148.896 23.7 149.564 23.7C150.232 23.7 149.965 23.6556 150.232 23.5667C150.499 23.4778 150.722 23.3889 150.945 23.2556V25.9222C150.722 26.0556 150.41 26.1445 149.92 26.2333C149.43 26.3222 148.985 26.3667 148.495 26.3667C147.114 26.3667 146.089 26.0111 145.421 25.2556C144.753 24.5445 144.396 23.4333 144.396 21.9667V14.9V14.9889Z" fill="#F1F3EE"/>
<path d="M15.736 0.5H0.5V15.7H15.736V0.5Z" fill="#F25022"/>
<path d="M32.5759 0.5H17.3398V15.7H32.5759V0.5Z" fill="#7FBA00"/>
<path d="M15.736 17.3H0.5V32.5H15.736V17.3Z" fill="#00A4EF"/>
<path d="M32.5759 17.3H17.3398V32.5H32.5759V17.3Z" fill="#FFB900"/>
</g>
<defs>
<clipPath id="clip0_1417_237811">
<rect width="150.4" height="32" fill="white" transform="translate(0.5 0.5)"/>
</clipPath>
</defs>
</svg>
