<svg width="255" height="80" viewBox="0 0 255 80" fill="none" xmlns="http://www.w3.org/2000/svg">
<path d="M21.1432 4.21969C21.0179 4.13965 20.8927 4.07295 20.7536 4.03292C20.0813 3.86329 19.729 3.78952 19.2134 3.68159C19.1208 3.66221 19.023 3.64172 18.917 3.61937C18.8892 3.61937 18.8753 3.57935 18.8892 3.56601C19.3344 2.87231 19.5431 2.4721 19.8075 1.79174C20.1692 0.857908 20.0162 0.404334 19.557 0.150866C19.1118 -0.0892609 18.7223 -0.102601 17.957 0.564419C17.3588 1.08469 16.9831 1.48491 16.5101 2.19195C16.2305 2.60981 16.2668 2.54308 16.3375 2.41308C16.3865 2.32312 16.4519 2.20286 16.4405 2.19195C16.3535 2.08512 16.2751 1.98948 16.2015 1.89978C15.8982 1.5302 15.6776 1.26124 15.2857 0.724504C15.2022 0.60444 15.1048 0.497717 14.9796 0.417674C14.4787 0.150866 13.8666 0.25759 13.6161 0.671142C13.3657 1.05801 13.4074 2.0452 13.7692 3.12578C13.95 3.65939 14.2005 4.21969 14.5205 4.76665C14.6318 4.94007 14.6318 5.16686 14.5205 5.34028C14.4092 5.51369 14.2979 5.71378 14.1866 5.91387C14.1159 6.04096 14.1181 6.01743 14.1221 5.97647C14.1243 5.95293 14.1272 5.92366 14.117 5.91392C13.8861 5.67179 13.7114 5.48348 13.5209 5.27828C13.3442 5.08778 13.1539 4.88273 12.8926 4.60656C12.7952 4.49984 12.6839 4.4198 12.5448 4.33975C12.03 4.07295 11.4318 4.19301 11.2091 4.6199C10.9865 5.02011 11.0978 6.0073 11.5291 7.08788C11.7239 7.60815 12.0022 8.14177 12.35 8.6487C12.4474 8.79545 12.4613 8.98221 12.3779 9.1423C12.2109 9.46238 12.0439 9.78273 11.877 10.1161C11.7683 10.3332 11.7834 10.2791 11.8034 10.2074C11.8141 10.169 11.8262 10.1255 11.8213 10.1161L10.5831 8.92885C10.4857 8.83547 10.3604 8.74209 10.2074 8.67538C9.66478 8.43526 9.06652 8.59534 8.85782 9.02223C8.66303 9.43579 8.82999 10.4497 9.31695 11.5302C9.52565 11.9838 9.77609 12.4374 10.0961 12.8776C10.3671 13.2505 10.3088 13.3649 10.217 13.5452C10.2004 13.5778 10.1827 13.6126 10.1657 13.6514C10.0595 13.8783 9.95822 14.1099 9.85606 14.3434C9.7841 14.5078 9.71171 14.6732 9.63696 14.8387C9.51895 15.0998 9.53716 15.0315 9.56021 14.9451C9.57249 14.8991 9.58614 14.8479 9.5813 14.8387C9.37265 14.6653 9.19877 14.5152 9.00751 14.3502C8.81621 14.1851 8.60737 14.0049 8.32912 13.7714C8.21781 13.678 8.0926 13.598 7.93955 13.5313C7.38302 13.3178 6.75693 13.5046 6.57606 13.9715C6.4091 14.4118 6.6178 15.4256 7.20215 16.5062C7.43868 16.9598 7.74477 17.4267 8.10651 17.8803C8.37449 18.2163 8.33705 18.2594 8.27136 18.3352C8.24837 18.3617 8.22193 18.3922 8.2039 18.4406C8.07084 18.7808 7.94661 19.1295 7.82417 19.4732C7.79302 19.5606 7.76189 19.648 7.73085 19.7346C7.73085 19.7479 7.70303 19.7613 7.6752 19.7479C7.2578 19.4278 6.9378 19.1876 6.36736 18.7607C6.24214 18.6673 6.10301 18.6006 5.94997 18.5473C5.3517 18.3605 4.75343 18.6006 4.58648 19.0809C4.51691 19.3077 4.54474 19.6812 4.68387 20.1348C4.823 20.5884 5.07344 21.1086 5.39344 21.6423C5.65779 22.0825 5.99171 22.5361 6.38128 22.9496C6.53432 23.1097 6.57606 23.3498 6.52041 23.5633C6.46476 23.77 6.40911 23.9735 6.35346 24.1769C6.29786 24.3801 6.24209 24.584 6.18649 24.7906C6.18649 24.8173 6.15866 24.8173 6.14475 24.8039C6.01755 24.7201 5.89944 24.6428 5.78133 24.5655C5.48607 24.3722 5.19064 24.1788 4.75343 23.8834C4.62821 23.8034 4.47517 23.7367 4.30821 23.6967C3.69603 23.5499 3.09777 23.8301 2.95863 24.337C2.90298 24.5771 2.95863 24.9507 3.13951 25.4043C3.32038 25.8578 3.59864 26.3781 3.9743 26.8984C4.22473 27.2586 4.53082 27.6188 4.87865 27.9656C5.17083 28.2591 5.29605 28.6593 5.22648 29.0595C5.18369 29.3057 5.15143 29.4762 5.11998 29.6423C5.10031 29.7463 5.08094 29.8486 5.05952 29.9667C5.02491 30.1575 5.02259 30.1213 5.01908 30.0666C5.01696 30.0334 5.01439 29.9934 5.00387 29.9934C4.82183 29.8936 4.65923 29.8032 4.49208 29.7102C4.21213 29.5546 3.91942 29.3918 3.50125 29.1662C3.36212 29.0862 3.20907 29.0328 3.04211 29.0062C2.40211 28.8994 1.81775 29.2463 1.73428 29.7799C1.69254 30.0334 1.78993 30.4202 1.99863 30.8738C2.22124 31.3274 2.55515 31.8343 2.98646 32.3413C3.33429 32.7682 3.77951 33.1817 4.25256 33.5552C4.41952 33.6886 4.503 33.8888 4.48908 34.1022C4.43343 34.6358 4.39169 35.1561 4.34995 35.6897C4.32192 36.0481 4.31899 35.9431 4.31587 35.8315C4.31435 35.7769 4.31278 35.7208 4.30821 35.7164C3.88723 35.537 3.54487 35.3858 3.03332 35.16L2.72211 35.0227C2.56907 34.956 2.41602 34.916 2.23515 34.9026C1.58123 34.8626 1.01079 35.2761 0.982964 35.8231C0.941224 36.3567 1.56732 37.3839 2.54124 38.3178C2.97255 38.718 3.47342 39.1048 4.01604 39.4517C4.11343 39.5184 4.18299 39.6251 4.18299 39.7452V40.1187C4.18299 40.559 4.18299 40.9858 4.19691 41.4261C4.20515 41.6868 4.19874 41.648 4.18637 41.5731C4.17785 41.5215 4.16651 41.4528 4.15517 41.4528L3.83894 41.3576C3.47457 41.2481 3.11022 41.1385 2.56907 40.9725C2.41602 40.9191 2.23515 40.9058 2.05428 40.9058C1.38645 40.9325 0.857745 41.3861 0.885572 41.9197C0.913398 42.4266 1.60906 43.3471 2.68037 44.1875C3.06994 44.4944 3.50125 44.7879 3.9743 45.0547C4.23865 45.2014 4.4056 45.4682 4.43343 45.7617C4.4543 45.9818 4.47865 46.2019 4.503 46.4221C4.52734 46.6421 4.55169 46.8623 4.57256 47.0824C4.59822 47.353 4.58708 47.3061 4.56822 47.2266C4.5564 47.1768 4.54154 47.1142 4.53082 47.1091C4.00212 46.9757 3.58473 46.869 2.84733 46.6689C2.68037 46.6288 2.51341 46.6022 2.33254 46.6288C1.6508 46.6822 1.1221 47.1758 1.17775 47.7227C1.2334 48.2564 2.01254 49.1769 3.13951 49.9906C3.62647 50.3375 4.18299 50.6576 4.76735 50.9378C5.0317 51.0578 5.21257 51.298 5.26822 51.5781C5.3517 51.9917 5.43518 52.3919 5.53257 52.8054C5.59342 53.0638 5.57281 53.015 5.54198 52.9419C5.52347 52.8981 5.50127 52.8455 5.49083 52.8455C4.96857 52.7453 4.5953 52.6677 4.05902 52.5562L4.05436 52.5553C3.87754 52.5185 3.68296 52.4781 3.45951 52.4319C3.29255 52.3919 3.11168 52.3919 2.93081 52.4186C2.23515 52.512 1.73428 53.0589 1.83167 53.6192C1.94297 54.1662 2.77776 55.0733 4.01604 55.8471C4.6143 56.2072 5.28213 56.5408 5.99171 56.7809C6.35345 56.9143 6.64563 57.1944 6.75693 57.5546C6.79955 57.6889 6.8395 57.8231 6.87912 57.9563C6.93004 58.1274 6.98042 58.2967 7.03519 58.4618C7.10168 58.6621 7.07091 58.6138 7.03583 58.5587C7.01952 58.5331 7.00228 58.506 6.99345 58.5018C6.2172 58.424 5.77862 58.374 5.04302 58.2901L4.55865 58.235C4.37778 58.2083 4.19691 58.2216 4.01604 58.2617C3.32038 58.4218 2.88907 59.0221 3.04211 59.6091C3.18125 60.1693 4.16908 61.0365 5.51866 61.7035C6.18649 62.037 6.97954 62.3038 7.77259 62.4772C7.80042 62.4772 7.84216 62.4906 7.86998 62.5039C8.25955 62.584 8.57956 62.8374 8.71869 63.1843C8.75977 63.2867 8.79357 63.3728 8.82368 63.4495C8.89544 63.6324 8.9464 63.7622 9.02478 63.9313C9.02478 63.958 9.02478 63.9847 8.98304 63.9847H6.32562C6.14475 63.9847 5.96388 64.0114 5.78301 64.0781C5.10126 64.3182 4.72561 64.9719 4.96213 65.5455C5.01778 65.6789 5.12909 65.839 5.28213 65.9858C5.43518 66.1458 5.64388 66.2926 5.8804 66.4527C6.35345 66.7595 6.97954 67.093 7.68911 67.3331C8.39868 67.5733 9.20565 67.7734 10.0265 67.8801H10.0683C10.5274 67.9335 10.9309 68.1869 11.1257 68.5871C11.1887 68.7079 11.2458 68.8287 11.3047 68.9531C11.3368 69.021 11.3695 69.0901 11.4039 69.1608C11.3622 69.1608 11.3205 69.1674 11.2787 69.1741C11.237 69.1808 11.1952 69.1875 11.1535 69.1875C10.5786 69.2268 10.1831 69.2569 9.72943 69.2914C9.41454 69.3154 9.07163 69.3414 8.6213 69.3742C8.44042 69.3876 8.25955 69.4276 8.07868 69.5076C7.39694 69.8011 7.06302 70.4681 7.29954 70.9751C7.52215 71.4553 8.60738 72.069 10.0126 72.4959C10.7222 72.7093 11.5152 72.8961 12.35 72.9895L12.3524 72.9897C12.4908 73.003 12.6292 73.0162 12.7813 73.0295C13.2405 73.0695 13.644 73.323 13.8666 73.6965C14.2779 74.4091 14.5951 74.9976 14.8909 75.5464C15.5255 76.7239 16.0619 77.7193 17.2196 79.3662C17.5257 79.7931 18.0405 80.0466 18.5692 79.9932C19.9327 79.8464 20.4614 78.4991 19.8214 77.5919C19.3644 76.9385 18.9911 76.424 18.6627 75.9712C17.8713 74.8802 17.3401 74.1479 16.524 72.696C16.2735 72.2424 16.3014 71.6955 16.6214 71.2819C17.1222 70.6149 17.5257 69.9078 17.8179 69.2408C18.4162 67.8801 18.6249 66.6661 18.4023 66.1592C18.1518 65.6389 17.4283 65.4788 16.7466 65.7723C16.5657 65.8524 16.4127 65.9591 16.2735 66.0791L15.9287 66.3981C15.3659 66.9185 15.0366 67.223 14.4509 67.7734C14.3535 67.8668 14.2561 67.9468 14.1448 68.0268C14.1031 67.9401 14.0648 67.8535 14.0266 67.7668C13.9883 67.6801 13.95 67.5933 13.9083 67.5066C13.7274 67.093 13.7692 66.6128 14.0474 66.2526C14.0892 66.1992 14.1309 66.1458 14.1587 66.0925C14.6318 65.4521 15.0353 64.7718 15.3553 64.1448C15.6614 63.5044 15.9118 62.9308 16.037 62.4506C16.1066 62.2104 16.1344 61.997 16.1483 61.8102C16.1622 61.6235 16.1483 61.4767 16.1066 61.37C15.9257 60.9164 15.2161 60.7296 14.5344 60.9698C14.3535 61.0365 14.1866 61.1299 14.0613 61.2232C13.4881 61.6595 13.1528 61.9303 12.7637 62.2446C12.5581 62.4107 12.3368 62.5894 12.0578 62.8107C12.0439 62.8241 12.0022 62.8107 12.0022 62.7974C11.9849 62.7503 11.9675 62.7038 11.9503 62.6576C11.8847 62.4816 11.8207 62.3099 11.7657 62.1304C11.6405 61.7569 11.7239 61.3433 11.9883 61.0498C12.517 60.4628 12.9622 59.8625 13.3518 59.2889C14.117 58.1416 14.5205 57.1678 14.4231 56.7142C14.2979 56.2473 13.63 56.0071 12.9344 56.1672C12.7535 56.2072 12.5865 56.2739 12.4335 56.3673C11.5431 56.9009 11.1813 57.1277 10.4161 57.6213C10.4022 57.6347 10.3604 57.6213 10.3604 57.608C10.3257 57.4879 10.2944 57.3712 10.2631 57.2545C10.2317 57.1377 10.2004 57.021 10.1657 56.9009C10.0544 56.4874 10.1935 56.0605 10.5135 55.7804C11.0561 55.3001 11.5291 54.7932 11.9187 54.3129C12.7813 53.259 13.31 52.2985 13.2126 51.8449C13.1292 51.3647 12.517 51.0445 11.8213 51.1379C11.6405 51.1646 11.4596 51.2179 11.3205 51.298C10.4192 51.7365 10.0382 51.9381 9.28467 52.3367L9.20565 52.3785C9.17782 52.3785 9.15 52.3785 9.15 52.3519C9.09434 52.045 9.03869 51.7249 8.98304 51.4047C8.92739 51.0845 9.06652 50.7644 9.33087 50.5643C9.95696 50.0973 10.5274 49.5771 11.0004 49.0835C11.9326 48.0963 12.5031 47.1624 12.4474 46.6955C12.3918 46.2019 11.8213 45.8418 11.1257 45.8951C10.9448 45.9085 10.7778 45.9485 10.6248 46.0152C9.71647 46.3938 9.33127 46.5695 8.57356 46.915L8.44042 46.9757C7.90877 47.218 8.02137 47.1567 8.17969 47.0706C8.27409 47.0192 8.38477 46.959 8.38477 46.949C8.34303 46.6022 8.31521 46.2553 8.28738 45.9085C8.25956 45.5617 8.42651 45.2548 8.70477 45.068C9.34478 44.6411 9.92913 44.1609 10.4161 43.6939C11.39 42.7601 11.9883 41.853 11.9605 41.3861C11.9326 40.8925 11.3622 40.5189 10.6944 40.5456C10.5135 40.5456 10.3465 40.5856 10.1935 40.6523C9.64041 40.8612 9.28418 41.0024 8.91504 41.1487C8.6713 41.2453 8.42189 41.3441 8.10651 41.4661C8.07868 41.4661 8.05086 41.4661 8.05086 41.4394C8.05086 41.1943 8.04742 40.9392 8.04397 40.6825C8.04047 40.4223 8.03694 40.1604 8.03694 39.9053C8.03694 39.5741 8.06069 39.5959 8.10431 39.636C8.12747 39.6572 8.15622 39.6836 8.18999 39.6651C8.89956 39.2783 9.59522 38.798 10.1239 38.3578C11.1396 37.5574 11.7935 36.797 11.8213 36.3567C11.8492 35.9031 11.3344 35.5029 10.6804 35.4629C10.4996 35.4629 10.3326 35.4629 10.1796 35.5029C9.31695 35.7164 8.91347 35.8231 8.21781 36.0232C8.18999 36.0232 8.16216 36.0232 8.16216 35.9832C8.17684 35.7768 8.19152 35.5423 8.20559 35.3175C8.23154 34.9031 8.25543 34.5215 8.27347 34.409C8.30129 34.2623 8.48216 34.1556 8.56564 34.1155C9.23348 33.822 9.83174 33.4885 10.3744 33.1417C10.917 32.7948 11.3622 32.448 11.6822 32.1412C12.0161 31.821 12.2248 31.5408 12.2526 31.3274C12.3222 30.8872 11.8631 30.4336 11.2231 30.3269C11.0561 30.3002 10.8891 30.3002 10.7361 30.3269C9.85957 30.4603 9.45609 30.527 8.74651 30.6604C8.71869 30.6604 8.69086 30.647 8.70477 30.6203C8.7326 30.4069 8.76043 30.1935 8.80217 29.9934C8.87173 29.5531 9.17782 29.1662 9.60913 29.0062C10.1517 28.8061 10.6665 28.5659 11.1257 28.3258C11.6822 28.0323 12.1552 27.7255 12.5031 27.432C12.8509 27.1518 13.0735 26.885 13.1292 26.6716C13.2405 26.2314 12.8231 25.7644 12.2109 25.6177C12.0439 25.5777 11.8909 25.5643 11.7378 25.5777C10.8858 25.6396 10.5009 25.6785 9.81624 25.7477L9.65087 25.7644C9.17325 25.8127 9.25579 25.798 9.39701 25.7728C9.49028 25.7562 9.60913 25.735 9.60913 25.7244C9.67869 25.3776 9.76217 25.0307 9.84565 24.6839C9.9013 24.4571 10.0822 24.257 10.3326 24.2036C11.0422 24.0302 11.71 23.7767 12.2944 23.5233C12.8648 23.2698 13.3518 23.003 13.6996 22.7362C14.0613 22.4827 14.2979 22.2292 14.3674 22.0291C14.5066 21.6022 14.1448 21.1086 13.5466 20.9219C13.3935 20.8685 13.2266 20.8552 13.0735 20.8552C12.3809 20.8552 11.994 20.8695 11.5035 20.8876C11.3241 20.8942 11.1302 20.9014 10.9031 20.9085C10.8752 20.9085 10.8474 20.8819 10.8613 20.8552C10.9726 20.4816 11.0839 20.1081 11.2091 19.7346C11.3237 19.3928 11.4383 19.3749 11.6381 19.3437C11.6566 19.3408 11.676 19.3378 11.6961 19.3344C12.4474 19.201 13.1709 19.0009 13.797 18.7607C14.924 18.3338 15.7727 17.8136 15.9257 17.4133C16.0927 16.9998 15.7727 16.5062 15.2022 16.2794C15.0492 16.2261 14.8961 16.186 14.757 16.186C13.797 16.146 13.4353 16.1327 12.5448 16.106C12.517 16.106 12.5031 16.0793 12.5031 16.0526C12.6561 15.6524 12.8231 15.2389 12.99 14.8387C13.0596 14.6652 13.2405 14.5452 13.4353 14.5185C14.2144 14.4384 14.9796 14.2784 15.6335 14.0649C16.7744 13.7047 17.6231 13.2378 17.804 12.8643C17.9849 12.4774 17.7066 11.9571 17.164 11.717C17.0249 11.6503 16.8718 11.6103 16.7327 11.5969C15.8005 11.5036 15.4527 11.4769 14.5622 11.4102C14.5344 11.4102 14.5205 11.3835 14.5344 11.3568C14.6039 11.2101 14.6735 11.0667 14.743 10.9233C14.8126 10.7799 14.8822 10.6364 14.9518 10.4897C15.0868 10.2049 15.2218 10.1964 15.4203 10.184L15.4388 10.1828C16.1901 10.1428 16.9275 10.0228 17.5814 9.84934C18.7083 9.55585 19.571 9.1423 19.7657 8.78211C19.9605 8.40858 19.724 7.90164 19.2092 7.63483C19.0701 7.56813 18.931 7.51477 18.7918 7.50143C18.3086 7.42789 17.9861 7.38272 17.6587 7.33688C17.3923 7.29957 17.1226 7.26182 16.7605 7.20794C16.7327 7.20794 16.7188 7.16792 16.7327 7.15458C16.7814 7.06788 16.8335 6.97785 16.8857 6.88781C16.9379 6.79775 16.9901 6.70769 17.0388 6.62096C17.1362 6.44754 17.3449 6.32747 17.5675 6.32747C18.2631 6.32747 18.9588 6.23409 19.557 6.11403C20.6701 5.88724 21.5327 5.54039 21.7275 5.22022C21.9362 4.88671 21.7275 4.39312 21.2127 4.12631L21.1432 4.21969Z" fill="black"/>
<path fill-rule="evenodd" clip-rule="evenodd" d="M49.277 46.2402C54.053 46.2402 57.749 43.1922 57.749 38.0322C57.749 37.6695 57.73 37.3174 57.693 36.9762H59.38V46.0002H63.028V36.9762H68.116V46.0002H71.764V36.9762H75.532V34.1442H71.764V33.2562C71.764 32.2002 72.34 31.6482 73.54 31.6482C74.38 31.6482 75.028 31.8402 75.34 31.9362V29.2482C75.028 29.1282 73.996 28.8642 72.796 28.8642C70.108 28.8642 68.116 30.2562 68.116 32.9922V34.1442H63.028V33.2562C63.028 32.2002 63.604 31.6482 64.804 31.6482C65.644 31.6482 66.292 31.8402 66.604 31.9362V29.2482C66.292 29.1282 65.26 28.8642 64.06 28.8642C61.372 28.8642 59.38 30.2562 59.38 32.9922V34.1442H57.628V36.4954C56.9548 32.3671 53.5477 29.9682 49.277 29.9682C44.501 29.9682 40.805 32.9682 40.805 38.0322C40.805 43.1922 44.501 46.2402 49.277 46.2402ZM49.277 43.1442C46.781 43.1442 44.885 41.2482 44.885 38.0562C44.885 34.9122 46.781 33.0642 49.277 33.0642C51.773 33.0642 53.669 34.9122 53.669 38.0562C53.669 41.2482 51.773 43.1442 49.277 43.1442Z" fill="black"/>
<path d="M76.0539 32.8962H79.7019V29.9922H76.0539V32.8962Z" fill="black"/>
<path d="M76.0539 46.0002H79.7019V34.1442H76.0539V46.0002Z" fill="black"/>
<path d="M86.4378 46.1922C89.9418 46.1922 92.3658 44.4162 92.3658 41.0082H89.1498C89.1258 42.5202 88.1898 43.4082 86.6298 43.4082C85.0218 43.4082 84.0618 42.1602 84.0618 40.0722C84.0618 37.9122 84.9978 36.7362 86.7018 36.7362C88.1898 36.7362 89.1018 37.6482 89.1258 39.1842H92.3418C92.3418 35.8962 90.0618 33.9522 86.5818 33.9522C82.9338 33.9522 80.4138 36.2322 80.4138 40.0962C80.4138 43.9362 82.8858 46.1922 86.4378 46.1922Z" fill="black"/>
<path d="M93.0617 32.8962H96.7097V29.9922H93.0617V32.8962Z" fill="black"/>
<path d="M93.0617 46.0002H96.7097V34.1442H93.0617V46.0002Z" fill="black"/>
<path fill-rule="evenodd" clip-rule="evenodd" d="M102.174 46.1922C104.334 46.1922 105.678 45.2802 106.038 43.6002H106.062C106.062 44.3202 105.966 45.4002 105.894 46.0002H109.542V38.8002C109.542 35.6322 107.334 33.9522 103.566 33.9522C99.9656 33.9522 97.8536 35.3682 97.8536 37.7682C97.8536 38.0082 97.8776 38.2722 97.9016 38.4642H101.262C101.238 38.2242 101.238 38.0322 101.238 37.9602C101.238 37.0002 102.03 36.4242 103.398 36.4242C105.078 36.4242 105.894 37.0002 105.894 38.4402V39.2322H102.03C98.8856 39.2322 97.4936 40.6482 97.4936 42.5922C97.4936 44.9922 99.4136 46.1922 102.174 46.1922ZM102.894 43.7202C101.574 43.7202 100.782 43.2402 100.782 42.3282C100.782 41.6562 101.382 41.2002 102.366 41.2002H105.894V41.4402C105.894 42.8802 104.79 43.7202 102.894 43.7202Z" fill="black"/>
<path d="M110.303 46.0002H113.951V29.3682H110.303V46.0002Z" fill="black"/>
<path d="M126.132 46.2402C131.772 46.2402 133.284 43.8402 133.284 41.1522C133.284 39.6642 132.684 38.5362 131.556 37.9362C130.62 37.4322 129.276 37.1442 127.5 36.8562L127.45 36.8482C126.115 36.6337 124.493 36.373 123.9 36.1122C123.348 35.8722 123.132 35.4402 123.132 34.6722C123.132 33.6162 124.044 32.8242 126.18 32.8242C128.34 32.8242 129.276 33.8082 129.276 35.6082H132.756C132.756 32.0562 131.124 29.9682 126.108 29.9682C121.548 29.9682 119.22 32.0322 119.22 35.0082C119.22 36.5202 119.748 37.6242 120.756 38.2722C121.668 38.8722 123.252 39.1842 124.812 39.4242C126.132 39.6162 127.764 39.8562 128.46 40.0962C129.084 40.3122 129.372 40.7442 129.372 41.4162C129.372 42.4242 128.772 43.3842 126.108 43.3842C123.468 43.3842 122.772 42.2802 122.772 40.5762H119.268C119.268 43.4802 120.708 46.2402 126.132 46.2402Z" fill="black"/>
<path fill-rule="evenodd" clip-rule="evenodd" d="M145.854 39.7362C145.854 35.8482 143.526 33.9522 140.214 33.9522C136.206 33.9522 133.758 36.2802 133.758 40.1922C133.758 43.9602 136.206 46.1922 140.142 46.1922C143.526 46.1922 145.782 44.6082 145.854 41.8962H142.638C142.542 43.0482 141.63 43.5522 140.214 43.5522C138.582 43.5522 137.598 42.7122 137.43 40.7682H145.854V39.7362ZM142.638 38.8242H137.526C137.814 37.2642 138.678 36.5922 140.214 36.5922C141.726 36.5922 142.638 37.2882 142.638 38.6322V38.8242Z" fill="black"/>
<path d="M146.498 46.0002H150.146V29.3682H146.498V46.0002Z" fill="black"/>
<path fill-rule="evenodd" clip-rule="evenodd" d="M162.908 39.7362C162.908 35.8482 160.58 33.9522 157.268 33.9522C153.26 33.9522 150.812 36.2802 150.812 40.1922C150.812 43.9602 153.26 46.1922 157.196 46.1922C160.58 46.1922 162.836 44.6082 162.908 41.8962H159.692C159.596 43.0482 158.684 43.5522 157.268 43.5522C155.636 43.5522 154.652 42.7122 154.484 40.7682H162.908V39.7362ZM159.692 38.8242H154.58C154.868 37.2642 155.732 36.5922 157.268 36.5922C158.78 36.5922 159.692 37.2882 159.692 38.6322V38.8242Z" fill="black"/>
<path d="M169.313 46.1922C172.817 46.1922 175.241 44.4162 175.241 41.0082H172.025C172.001 42.5202 171.065 43.4082 169.505 43.4082C167.897 43.4082 166.937 42.1602 166.937 40.0722C166.937 37.9122 167.873 36.7362 169.577 36.7362C171.065 36.7362 171.977 37.6482 172.001 39.1842H175.217C175.217 35.8962 172.937 33.9522 169.457 33.9522C165.809 33.9522 163.289 36.2322 163.289 40.0962C163.289 43.9362 165.761 46.1922 169.313 46.1922Z" fill="black"/>
<path d="M181.865 46.1922C182.849 46.1922 183.857 46.0002 184.169 45.9282V43.1682C183.761 43.2642 183.017 43.3362 182.513 43.3362C181.073 43.3362 180.497 42.9522 180.497 41.7282V36.9762H184.289V34.1442H180.497V31.4562H177.497L177.329 33.1122C177.257 33.8322 177.065 34.1442 176.513 34.1442H175.097V36.9762H176.849V41.9202C176.849 44.5602 178.169 46.1922 181.865 46.1922Z" fill="black"/>
<path d="M184.921 32.8962H188.569V29.9922H184.921V32.8962Z" fill="black"/>
<path d="M184.921 46.0002H188.569V34.1442H184.921V46.0002Z" fill="black"/>
<path fill-rule="evenodd" clip-rule="evenodd" d="M195.737 46.1922C199.649 46.1922 202.193 43.9362 202.193 40.0962C202.193 36.2322 199.649 33.9522 195.737 33.9522C191.825 33.9522 189.281 36.2322 189.281 40.0962C189.281 43.9362 191.825 46.1922 195.737 46.1922ZM195.737 43.4082C193.961 43.4082 192.929 42.1842 192.929 40.0962C192.929 37.9842 193.961 36.7362 195.737 36.7362C197.513 36.7362 198.545 37.9842 198.545 40.0962C198.545 42.1842 197.513 43.4082 195.737 43.4082Z" fill="black"/>
<path d="M202.794 46.0002H206.442V40.3602C206.442 38.1042 207.594 36.9762 209.514 36.9762C211.122 36.9762 212.082 37.7202 212.082 39.4002V46.0002H215.73V38.5842C215.73 35.5122 213.882 33.9522 211.026 33.9522C208.338 33.9522 206.946 35.0322 206.346 37.2882H206.298L206.442 34.1442H202.794V46.0002Z" fill="black"/>
<path d="M235.774 4.04184C235.643 4.08189 235.525 4.14864 235.407 4.22875L235.368 4.12194C234.883 4.38895 234.686 4.88292 234.883 5.21669C235.066 5.5371 235.879 5.88421 236.927 6.11117C237.491 6.23133 238.146 6.32478 238.801 6.32478C239.011 6.32478 239.194 6.43159 239.299 6.6185C239.404 6.8054 239.495 6.97896 239.587 7.15252C239.6 7.17922 239.574 7.21927 239.548 7.21927C239.36 7.2461 239.199 7.26871 239.05 7.28966C238.605 7.35209 238.266 7.39966 237.648 7.49963C237.517 7.51298 237.386 7.56639 237.255 7.63314C236.77 7.90015 236.547 8.40747 236.731 8.78129C236.914 9.14175 237.727 9.55562 238.788 9.84933C239.325 9.99619 239.941 10.1163 240.583 10.1697C240.911 10.1964 241.212 10.4101 241.356 10.7171C241.402 10.8239 241.451 10.9306 241.5 11.0373C241.549 11.1442 241.599 11.2511 241.644 11.3579C241.658 11.3846 241.631 11.4113 241.605 11.4113C240.78 11.4781 240.452 11.5048 239.574 11.5983C239.443 11.6116 239.299 11.6517 239.168 11.7184C238.657 11.9587 238.395 12.4794 238.565 12.8666C238.735 13.2404 239.535 13.7076 240.609 14.0681C241.225 14.2817 241.946 14.4419 242.68 14.522C242.863 14.5487 243.033 14.6689 243.099 14.8424C243.171 15.0426 243.246 15.2427 243.322 15.4429C243.397 15.6432 243.472 15.8436 243.544 16.044C243.558 16.0707 243.531 16.0974 243.505 16.0974C242.667 16.1241 242.326 16.1374 241.422 16.1775C241.291 16.1775 241.147 16.2176 241.002 16.271C240.465 16.4979 240.164 16.9919 240.321 17.4058C240.465 17.8063 241.264 18.3269 242.326 18.7542C242.915 18.9945 243.597 19.1947 244.304 19.3282C244.527 19.3683 244.698 19.5151 244.763 19.7288C244.881 20.0892 244.986 20.463 245.091 20.8368C245.104 20.8635 245.078 20.8902 245.051 20.8902C244.834 20.883 244.65 20.8757 244.48 20.869C244.026 20.851 243.669 20.8368 243.02 20.8368C242.876 20.8368 242.719 20.8502 242.575 20.9036C242.011 21.0905 241.671 21.5845 241.802 22.0117C241.867 22.212 242.09 22.4656 242.431 22.7193C242.758 22.9863 243.217 23.2533 243.754 23.507C244.304 23.7606 244.933 24.0143 245.602 24.1878C245.838 24.2412 246.008 24.4281 246.06 24.6685C246.139 25.0022 246.218 25.3493 246.283 25.6965C246.296 25.7232 246.27 25.7499 246.244 25.7499C245.51 25.6698 245.143 25.6297 244.291 25.5629C244.147 25.5496 244.003 25.5629 243.846 25.603C243.269 25.7499 242.876 26.2171 242.981 26.6577C243.033 26.8713 243.243 27.1383 243.571 27.4187C243.898 27.7124 244.344 28.0194 244.868 28.3132C245.3 28.5668 245.798 28.8071 246.309 29.0074C246.689 29.1542 246.978 29.5014 247.043 29.9286C247.057 30.0568 247.075 30.1812 247.092 30.3039C247.107 30.4111 247.123 30.5169 247.135 30.6228C247.135 30.6328 247.221 30.6597 247.294 30.6824C247.416 30.7202 247.5 30.7463 247.082 30.6629C246.414 30.5294 246.034 30.4626 245.209 30.3291C245.064 30.3024 244.907 30.3024 244.75 30.3291C244.147 30.4359 243.715 30.8898 243.78 31.3304C243.807 31.544 244.003 31.8244 244.318 32.1448C244.619 32.4518 245.038 32.799 245.549 33.1461C246.06 33.4932 246.624 33.8269 247.253 34.1207C247.331 34.1607 247.502 34.2675 247.528 34.4144C247.545 34.5282 247.568 34.9121 247.593 35.3286C247.606 35.547 247.619 35.7743 247.633 35.9764C247.633 36.0164 247.607 36.0164 247.58 36.0164C246.925 35.8162 246.545 35.7094 245.733 35.4958C245.589 35.4557 245.431 35.4557 245.261 35.4557C244.645 35.4958 244.16 35.8963 244.187 36.3502C244.213 36.7908 244.829 37.5518 245.785 38.3528C246.218 38.7132 246.755 39.1138 247.305 39.4609C247.58 39.6344 247.751 39.9415 247.751 40.2753C247.738 40.6624 247.738 41.0629 247.738 41.4234C247.738 41.4396 247.851 41.4996 247.937 41.5449C248.064 41.6115 248.13 41.6462 247.685 41.4635C247.388 41.3414 247.153 41.2425 246.924 41.1459C246.576 40.9995 246.241 40.8582 245.72 40.6491C245.575 40.5823 245.418 40.5423 245.248 40.5423C244.619 40.5156 244.082 40.8894 244.055 41.3834C244.029 41.8506 244.593 42.7585 245.51 43.693C245.969 44.1603 246.519 44.6409 247.122 45.0681C247.384 45.255 247.541 45.5621 247.515 45.9092C247.489 46.2563 247.462 46.5901 247.423 46.9372C247.423 46.9639 247.397 46.9639 247.371 46.9639L247.245 46.9032C246.532 46.5574 246.169 46.3816 245.313 46.0027C245.169 45.9359 245.012 45.8959 244.842 45.8825C244.187 45.8291 243.649 46.1896 243.597 46.6835C243.544 47.1508 244.082 48.0853 244.96 49.0733C245.405 49.5673 245.942 50.0879 246.532 50.5552C246.781 50.7555 246.912 51.0759 246.86 51.3963C246.833 51.5498 246.807 51.7067 246.781 51.8635C246.755 52.0204 246.729 52.1773 246.702 52.3308C246.689 52.3575 246.663 52.3709 246.637 52.3575L246.563 52.3159C245.853 51.9168 245.494 51.7151 244.645 51.2761C244.514 51.196 244.344 51.1426 244.173 51.1159C243.518 51.0225 242.942 51.3429 242.863 51.8235C242.771 52.2774 243.269 53.2387 244.082 54.2934C244.449 54.774 244.894 55.2813 245.405 55.7619C245.707 56.0423 245.838 56.4695 245.733 56.8834C245.68 57.1237 245.628 57.3506 245.562 57.5909C245.562 57.6176 245.536 57.631 245.51 57.6176C244.789 57.1237 244.449 56.8967 243.61 56.3627C243.466 56.2692 243.309 56.2025 243.138 56.1624C242.483 56.0022 241.854 56.2425 241.736 56.7098C241.644 57.1637 242.024 58.1383 242.745 59.2865C243.112 59.8605 243.531 60.4613 244.029 61.0487C244.278 61.3425 244.357 61.7563 244.239 62.1301C244.2 62.2436 244.164 62.3537 244.128 62.4639C244.092 62.574 244.055 62.6842 244.016 62.7977C244.003 62.811 243.977 62.8244 243.951 62.811C243.743 62.6325 243.569 62.4819 243.409 62.3432C242.995 61.9839 242.672 61.7038 242.077 61.2223C241.959 61.1288 241.802 61.0354 241.631 60.9686C240.989 60.7283 240.321 60.9152 240.151 61.3692C240.111 61.476 240.098 61.6228 240.111 61.8097C240.124 61.9966 240.151 62.2102 240.216 62.4506C240.334 62.9312 240.57 63.5052 240.858 64.1461C241.16 64.7735 241.54 65.4544 241.985 66.0953C242 66.1255 241.948 66.0573 241.947 66.0579C241.946 66.0583 241.976 66.099 242.09 66.2555C242.352 66.6159 242.391 67.0965 242.221 67.5104C242.175 67.6046 242.133 67.7035 242.091 67.8042C242.061 67.8748 242.031 67.9463 241.998 68.0177C241.893 67.9376 241.802 67.8575 241.71 67.7641C241.158 67.2134 240.848 66.9087 240.319 66.3881L239.993 66.0686C239.862 65.9484 239.718 65.8416 239.548 65.7615C238.906 65.4678 238.224 65.628 237.989 66.1487C237.779 66.656 237.975 67.8709 238.539 69.2326C238.814 69.9002 239.194 70.6211 239.666 71.2753C239.967 71.6891 239.993 72.2365 239.758 72.6904C238.989 74.1434 238.489 74.8763 237.743 75.9681C237.434 76.4213 237.082 76.9362 236.652 77.5901C236.049 78.4979 236.547 79.8463 237.831 79.9932C238.329 80.0466 238.814 79.7929 239.102 79.3657C240.197 77.7198 240.702 76.7252 241.303 75.5413C241.58 74.9966 241.876 74.4118 242.26 73.7051C242.47 73.3313 242.85 73.0776 243.282 73.0376C243.387 73.0279 243.485 73.0182 243.58 73.0085L243.689 72.9975C244.475 72.904 245.222 72.7171 245.89 72.5035C247.213 72.0763 248.235 71.4622 248.445 70.9816C248.668 70.4742 248.353 69.8067 247.711 69.513C247.541 69.4329 247.371 69.3928 247.2 69.3795C246.776 69.3467 246.453 69.3206 246.157 69.2966C245.729 69.2621 245.357 69.232 244.815 69.1926C244.776 69.1926 244.737 69.1859 244.698 69.1792C244.658 69.1726 244.619 69.1659 244.58 69.1659C244.671 68.9656 244.75 68.7787 244.842 68.5918C245.025 68.1913 245.405 67.9376 245.838 67.8842H245.877C246.65 67.7774 247.41 67.5772 248.078 67.3369C248.747 67.0965 249.336 66.7628 249.782 66.4557C250.004 66.2955 250.201 66.1487 250.345 65.9884C250.489 65.8416 250.594 65.6814 250.647 65.5479C250.869 64.9738 250.515 64.3196 249.873 64.0793C249.703 64.0126 249.533 63.9859 249.362 63.9859H246.86C246.845 63.9859 246.822 64.0145 246.805 64.0364C246.777 64.0724 246.763 64.0902 246.82 63.9325C246.866 63.8055 246.912 63.6818 246.958 63.5581C247.004 63.4348 247.05 63.3115 247.095 63.1848C247.227 62.8377 247.528 62.5841 247.895 62.504C247.921 62.4906 247.96 62.4772 247.987 62.4772C248.733 62.3037 249.48 62.0367 250.109 61.7029C251.38 61.0354 252.311 60.1676 252.442 59.6069C252.586 59.0195 252.18 58.4187 251.524 58.2585C251.354 58.2184 251.184 58.2051 251.013 58.2318C250.75 58.2632 250.527 58.29 250.327 58.3142C249.76 58.3826 249.369 58.4297 248.72 58.4988C248.694 58.4988 248.681 58.4721 248.681 58.4454C248.727 58.2919 248.769 58.1417 248.812 57.9915C248.855 57.8413 248.897 57.6911 248.943 57.5375C248.957 57.4886 248.969 57.4431 248.979 57.4003C249.047 57.1287 249.086 56.9709 249.664 56.7632C250.332 56.5229 250.961 56.1891 251.524 55.8287C252.691 55.0543 253.477 54.1465 253.582 53.5991C253.673 53.0384 253.202 52.491 252.547 52.3976C252.376 52.3709 252.206 52.3709 252.049 52.4109C251.642 52.4951 251.337 52.5605 251.055 52.6207C250.757 52.6846 250.486 52.7427 250.149 52.8114C250.139 52.8161 250.122 52.8619 250.107 52.9021C250.079 52.9764 250.058 53.0313 250.109 52.7714C250.188 52.371 250.267 51.9702 250.345 51.5565C250.398 51.2761 250.581 51.0358 250.83 50.9157C251.393 50.6353 251.904 50.3149 252.363 49.9678C253.424 49.1534 254.158 48.2322 254.211 47.6982C254.263 47.1508 253.765 46.6568 253.123 46.6034C252.953 46.5767 252.795 46.6034 252.638 46.6435C251.944 46.8437 251.551 46.9505 251.053 47.084C251.043 47.0892 251.029 47.1518 251.018 47.2016C251 47.2812 250.989 47.3282 251.013 47.0573C251.033 46.8372 251.056 46.617 251.079 46.3969C251.102 46.1765 251.125 45.9561 251.144 45.7356C251.184 45.4419 251.341 45.1749 251.59 45.0281C252.035 44.7744 252.442 44.4807 252.809 44.1736C253.818 43.3325 254.473 42.4114 254.499 41.904C254.525 41.37 254.027 40.9161 253.398 40.8894C253.228 40.8894 253.058 40.9027 252.913 40.9561C252.36 41.1401 252.002 41.2548 251.62 41.3769L251.433 41.4368C251.407 41.4501 251.393 41.4234 251.393 41.4101C251.407 40.9828 251.407 40.5423 251.407 40.1017C251.407 39.7679 251.564 39.4609 251.839 39.2606C252.245 38.9803 252.625 38.6598 252.953 38.3261C253.87 37.3915 254.46 36.3635 254.42 35.8295C254.394 35.2822 253.857 34.8683 253.241 34.9083C253.071 34.9217 252.927 34.9617 252.782 35.0285L252.49 35.1658C252.008 35.3919 251.685 35.5431 251.289 35.7227C251.279 35.7277 251.274 35.798 251.271 35.8569C251.265 35.9555 251.261 36.022 251.236 35.696C251.197 35.1754 251.158 34.668 251.105 34.1474C251.079 33.9204 251.171 33.6934 251.341 33.5466C251.787 33.1728 252.18 32.7589 252.507 32.345C252.913 31.8377 253.228 31.3304 253.438 30.8765C253.634 30.4226 253.726 30.0354 253.687 29.7817C253.608 29.2477 253.058 28.9006 252.455 29.0074C252.298 29.0341 252.153 29.0875 252.022 29.1676C251.393 29.5281 251.053 29.7283 250.607 29.9953C250.581 30.0087 250.555 29.9953 250.555 29.9686C250.534 29.845 250.515 29.73 250.495 29.6123C250.466 29.4378 250.437 29.2574 250.398 29.0341C250.332 28.6603 250.45 28.2731 250.712 28.0061C251.053 27.6456 251.341 27.2852 251.59 26.9114C251.944 26.3907 252.206 25.87 252.376 25.4161C252.547 24.9622 252.599 24.5884 252.547 24.348C252.415 23.8407 251.852 23.5604 251.275 23.7072C251.118 23.7473 250.974 23.814 250.856 23.8941C250.603 24.0697 250.401 24.2094 250.218 24.3356C249.984 24.4973 249.781 24.637 249.546 24.802C249.536 24.8072 249.541 24.8696 249.546 24.9189C249.553 24.9957 249.557 25.0406 249.493 24.7886C249.441 24.5817 249.389 24.3781 249.336 24.1744C249.284 23.9709 249.231 23.7673 249.179 23.5604C249.127 23.3468 249.166 23.1064 249.31 22.9462C249.677 22.5324 249.991 22.0784 250.24 21.6379C250.542 21.1039 250.778 20.5832 250.909 20.1293C251.04 19.6753 251.066 19.3015 251 19.0746C250.843 18.594 250.28 18.3536 249.716 18.5405C249.572 18.594 249.441 18.6607 249.323 18.7542C248.786 19.1814 248.484 19.4217 248.091 19.7421C248.065 19.7554 248.039 19.7555 248.039 19.7288C247.967 19.5149 247.891 19.2978 247.816 19.0807C247.741 18.8639 247.665 18.6472 247.593 18.4337C247.528 18.2468 247.567 18.0332 247.685 17.873C248.026 17.4191 248.314 16.9518 248.537 16.4979C249.087 15.4165 249.284 14.4019 249.127 13.9613C248.956 13.494 248.367 13.3071 247.842 13.5207C247.698 13.5875 247.58 13.6676 247.475 13.761C247.028 14.1598 246.762 14.403 246.458 14.6815C246.405 14.7294 246.352 14.7782 246.296 14.8291C246.283 14.8558 246.244 14.8558 246.244 14.8291C246.159 14.6355 246.077 14.4386 245.995 14.2417C245.913 14.0447 245.831 13.8478 245.746 13.6542C245.73 13.6154 245.713 13.5807 245.697 13.548C245.611 13.3676 245.556 13.253 245.811 12.8799C246.113 12.4393 246.349 11.9854 246.545 11.5315C247.004 10.4501 247.161 9.43547 246.978 9.0216C246.781 8.59438 246.218 8.43417 245.706 8.67448C245.562 8.74124 245.444 8.83469 245.353 8.92814L244.187 10.1163C244.182 10.1254 244.188 10.156 244.194 10.1831C244.204 10.2358 244.212 10.2751 244.134 10.1163C244.104 10.0558 244.076 9.9978 244.048 9.94021C243.966 9.7692 243.885 9.60178 243.767 9.38206C243.61 9.08835 243.623 8.74124 243.793 8.46087C244.069 8.00696 244.278 7.53969 244.449 7.08577C244.855 6.00437 244.96 5.01643 244.75 4.61591C244.54 4.18869 243.977 4.06854 243.492 4.33555C243.361 4.41565 243.256 4.49576 243.164 4.60256C242.653 5.17664 242.418 5.44365 242.011 5.91092C242.007 5.91889 242.009 5.93875 242.011 5.95772C242.016 6.00233 242.019 6.04204 241.946 5.91092L241.631 5.35019C241.603 5.30317 241.568 5.27967 241.538 5.25951C241.457 5.20525 241.412 5.17519 241.631 4.77612C241.933 4.22875 242.169 3.66802 242.339 3.134C242.68 2.0526 242.719 1.06466 242.483 0.677496C242.247 0.263629 241.671 0.156824 241.199 0.423835C241.081 0.503939 240.989 0.610743 240.911 0.730898C240.452 1.38508 240.242 1.65209 239.823 2.18611C239.81 2.21281 239.771 2.21281 239.758 2.18611C239.325 1.49188 238.971 1.09136 238.408 0.570692C237.687 -0.0968366 237.333 -0.0968366 236.901 0.156824C236.469 0.410485 236.324 0.864404 236.665 1.79894C236.914 2.47982 237.111 2.88034 237.53 3.56122C237.535 3.57094 237.619 3.56296 237.694 3.55597C237.823 3.54377 237.92 3.53461 237.504 3.62797C237.404 3.65034 237.312 3.67085 237.225 3.69025C236.739 3.79826 236.407 3.87208 235.774 4.04184Z" fill="black"/>
</svg>
