<svg width="404" height="402" viewBox="0 0 404 402" fill="none" xmlns="http://www.w3.org/2000/svg">
<style>
	:root { --color: #202222; }
	@media (prefers-color-scheme: light) { :root { --color: #202222; } }
	@media (prefers-color-scheme: dark) { :root { --color: #f1f3ee; } }
	
	.responsiveStroke {
		stroke: var(--color);
	}
</style>
<g clip-path="url(#clip0_15_330478)">
<rect x="378" y="376" width="22" height="22" fill="#FFC0A1"/>
<rect x="290" y="376" width="84" height="22" fill="#727C8C" fill-opacity="0.06"/>
<rect x="264" y="376" width="22" height="22" fill="#727C8C" fill-opacity="0.06"/>
<rect x="28" y="376" width="232" height="22" fill="#727C8C" fill-opacity="0.06"/>
<rect x="378.666" y="288" width="21.1111" height="84.4444" fill="#727C8C" fill-opacity="0.06"/>
<rect x="290" y="288" width="84.4444" height="84.4444" fill="#FFC0A1"/>
<rect x="264.666" y="288" width="21.1111" height="84.4444" fill="#727C8C" fill-opacity="0.06"/>
<rect x="28" y="288" width="232" height="84" fill="#727C8C" fill-opacity="0.06"/>
<rect x="378" y="262" width="22" height="22" fill="#727C8C" fill-opacity="0.06"/>
<rect x="290" y="262" width="84" height="22" fill="#727C8C" fill-opacity="0.06"/>
<rect x="264" y="262" width="22" height="22" fill="#FFC0A1"/>
<rect x="28" y="262" width="232" height="22" fill="#727C8C" fill-opacity="0.06"/>
<rect x="378" y="26" width="22" height="232" fill="#727C8C" fill-opacity="0.06"/>
<rect x="290" y="26" width="84" height="232" fill="#727C8C" fill-opacity="0.06"/>
<rect x="264" y="26" width="22" height="232" fill="#727C8C" fill-opacity="0.06"/>
<rect x="28" y="26" width="232" height="232" fill="#1ACC6C"/>
<line x1="24" y1="374" x2="404" y2="374" class="responsiveStroke" stroke-width="4"/>
<line x1="24" y1="286" x2="404" y2="286" class="responsiveStroke" stroke-width="4"/>
<line x1="24" y1="260" x2="404" y2="260" class="responsiveStroke" stroke-width="4"/>
<line x1="376" y1="22" x2="376" y2="402" class="responsiveStroke" stroke-width="4"/>
<line x1="288" y1="22" x2="288" y2="402" class="responsiveStroke" stroke-width="4"/>
<line x1="262" y1="22" x2="262" y2="402" class="responsiveStroke" stroke-width="4"/>
</g>
<rect x="26" y="24" width="376" height="376" rx="14" class="responsiveStroke" stroke-width="4"/>
<g filter="url(#filter0_d_15_330478)">
<path d="M8 26C8 14.9543 16.9543 6 28 6C39.0457 6 48 14.9543 48 26C48 37.0457 39.0457 46 28 46C16.9543 46 8 37.0457 8 26Z" fill="#F1F3EE"/>
<path d="M33 33.8171L32.6746 34.9682C31.571 35.3436 27.7475 36.9187 25.5423 35.2426C24.8852 34.7442 24.5566 34.1109 24.5566 33.3435C24.5566 31.9052 25.1053 30.6513 26.0898 27.6406C26.2632 27.0724 26.4758 26.3335 26.4758 25.7479C26.4758 24.7382 26.0324 24.4693 24.8278 24.4693C24.2398 24.4693 23.589 24.6501 23 24.8401L23.3264 23.689C24.6396 23.2283 26.2887 22.6665 27.7018 22.6665C29.8208 22.6665 31.3785 23.5789 31.3785 25.3137C31.3785 25.814 31.2786 26.6897 31.068 27.2955L29.8495 31.0166C29.5986 31.7693 29.1414 33.427 29.8474 33.919C30.5439 34.4046 32.1887 34.1476 33 33.8171Z" fill="#101212"/>
<path d="M30.5 21C31.8807 21 33 19.8807 33 18.5C33 17.1193 31.8807 16 30.5 16C29.1193 16 28 17.1193 28 18.5C28 19.8807 29.1193 21 30.5 21Z" fill="#101212"/>
</g>
<defs>
<filter id="filter0_d_15_330478" x="0" y="0" width="56" height="56" filterUnits="userSpaceOnUse" color-interpolation-filters="sRGB">
<feFlood flood-opacity="0" result="BackgroundImageFix"/>
<feColorMatrix in="SourceAlpha" type="matrix" values="0 0 0 0 0 0 0 0 0 0 0 0 0 0 0 0 0 0 127 0" result="hardAlpha"/>
<feOffset dy="2"/>
<feGaussianBlur stdDeviation="4"/>
<feComposite in2="hardAlpha" operator="out"/>
<feColorMatrix type="matrix" values="0 0 0 0 0 0 0 0 0 0 0 0 0 0 0 0 0 0 0.4 0"/>
<feBlend mode="normal" in2="BackgroundImageFix" result="effect1_dropShadow_15_330478"/>
<feBlend mode="normal" in="SourceGraphic" in2="effect1_dropShadow_15_330478" result="shape"/>
</filter>
<clipPath id="clip0_15_330478">
<rect x="24" y="22" width="380" height="380" rx="16" fill="white"/>
</clipPath>
</defs>
</svg>
