<svg width="274" height="89" viewBox="0 0 274 89" fill="none" xmlns="http://www.w3.org/2000/svg">
<path d="M23.7638 5.15763C23.6045 5.06989 23.4771 5.01139 23.3177 4.9529C22.3936 4.71892 22.0112 4.66042 21.2145 4.51418C20.4179 4.36794 21.1826 4.48493 21.2145 4.45569C21.7244 3.69524 21.9793 3.25653 22.2661 2.49609C22.5529 1.73565 22.5211 0.975204 21.9793 0.682726C21.4376 0.390249 21.0233 0.390249 20.1311 1.12144C19.2388 1.85264 19.0157 2.14511 18.474 2.90556H18.4103C17.9004 2.3206 17.6455 2.02812 17.0719 1.29693C16.9763 1.17994 16.8807 1.06295 16.7213 0.975204C16.1477 0.682726 15.4467 0.799717 15.1599 1.23843C14.8731 1.67715 14.9049 2.75932 15.3192 3.95847C15.5104 4.54343 15.7972 5.15763 16.1796 5.77183C16.562 6.38604 16.3071 6.21055 16.1796 6.41529C16.0521 6.62002 15.9247 6.82475 15.7972 7.05874C15.6697 7.29272 15.7334 7.05874 15.7334 7.05874C15.2236 6.53228 14.9368 6.2398 14.3313 5.6256C14.2357 5.50861 14.0764 5.42086 13.9171 5.33312C13.3116 5.04064 12.6424 5.18688 12.3875 5.6256C12.1325 6.06431 12.26 7.14648 12.738 8.34564C12.9611 8.90135 13.2797 9.51555 13.6621 10.0713C14.0445 10.627 13.7896 10.4515 13.694 10.627C13.5028 10.9779 13.3116 11.3289 13.1204 11.6799C12.9292 12.0309 13.0885 11.6799 13.0567 11.6799C12.5787 11.2412 12.26 10.9487 11.6227 10.3637C11.4952 10.2467 11.3677 10.159 11.2084 10.1005C10.5711 9.83727 9.90186 10.0128 9.64693 10.4807C9.42386 10.9487 9.61507 12.0601 10.1887 13.23C10.4117 13.7272 10.7304 14.2244 11.0809 14.7216C11.4315 15.2189 11.304 15.3066 11.1765 15.5698C10.9853 16.0085 10.7623 16.4473 10.5711 16.886C10.3799 17.3247 10.5392 16.886 10.5073 16.886C10.0293 16.5058 9.71067 16.2133 9.07334 15.7161C8.94587 15.5991 8.78653 15.5113 8.6272 15.4528C7.98986 15.2189 7.25694 15.4528 7.06574 15.9208C6.87454 16.418 7.12947 17.5294 7.79867 18.7286C8.08547 19.2258 8.43601 19.7523 8.81841 20.2495C8.97774 20.425 9.0096 20.6589 8.914 20.8637C8.7228 21.3316 8.56347 21.8289 8.37226 22.2968C8.18107 22.7648 8.34039 22.2968 8.30853 22.2968C7.83053 21.9458 7.44813 21.6826 6.81079 21.2146C6.68333 21.1269 6.52399 21.0392 6.33279 20.9807C5.6636 20.7759 4.96254 21.0392 4.77134 21.5656C4.67574 21.8289 4.73947 22.2383 4.86694 22.7355C5.02627 23.2327 5.31306 23.8177 5.69546 24.4027C6.01413 24.8999 6.39654 25.3678 6.84267 25.8358C7.002 26.0113 7.06574 26.2745 7.002 26.5085C6.87454 26.9472 6.74707 27.4152 6.6196 27.8539C6.49213 28.2926 6.58773 27.8831 6.55586 27.8539C6.046 27.5322 5.6636 27.2982 4.96253 26.8595C4.8032 26.7717 4.64388 26.684 4.45267 26.6547C3.75161 26.4792 3.05053 26.801 2.8912 27.3567C2.82747 27.6199 2.89121 28.0294 3.08241 28.5266C3.27361 29.0238 3.62415 29.6088 4.03841 30.1645C4.45268 30.7494 4.9944 31.3051 5.59986 31.8316C5.4724 32.4165 5.3768 32.9722 5.2812 33.528C5.1856 34.0837 5.24933 33.5572 5.21746 33.528C4.67573 33.2355 4.26147 33.0307 3.49667 32.6213C3.33734 32.5335 3.14614 32.475 2.95494 32.4458C2.22201 32.3288 1.5528 32.709 1.4572 33.294C1.42534 33.5864 1.52094 33.9959 1.77587 34.4931C2.0308 34.9903 2.41321 35.5461 2.92308 36.1018C3.33735 36.5697 3.81534 37.0377 4.38894 37.4472C4.58014 37.5934 4.67573 37.8274 4.64387 38.0614C4.58013 38.6463 4.5164 39.2313 4.48453 39.8162C4.45267 40.4012 4.48453 39.8455 4.4208 39.8162C3.8472 39.5822 3.40108 39.4068 2.60441 39.0558C2.44508 38.9973 2.25386 38.9388 2.0308 38.9095C1.266 38.851 0.628666 39.319 0.5968 39.9332C0.533066 40.5182 1.26601 41.6588 2.38134 42.6825C2.85934 43.1212 3.4648 43.5599 4.07027 43.9402C4.67574 44.3204 4.26146 44.1156 4.26146 44.2619C4.26146 44.4081 4.26146 44.5251 4.26146 44.6713C4.26146 45.1393 4.26146 45.6365 4.26146 46.1045C4.26146 46.5725 4.26147 46.1337 4.2296 46.1337C3.656 45.9582 3.20987 45.8413 2.4132 45.6073C2.222 45.5488 2.03081 45.5195 1.83961 45.5488C1.07481 45.578 0.469336 46.0752 0.501204 46.6602C0.53307 47.2159 1.32973 48.2396 2.57253 49.1755C3.01867 49.4972 3.52854 49.819 4.07027 50.1114C4.612 50.4039 4.58014 50.5502 4.61201 50.8719C4.67574 51.3691 4.70761 51.837 4.77134 52.3343C4.83507 52.8315 4.77133 52.3635 4.73946 52.3635C4.134 52.2173 3.656 52.1003 2.7956 51.8663C2.6044 51.8078 2.4132 51.8078 2.19013 51.8078C1.39347 51.8663 0.788015 52.3928 0.851749 53.007C0.915482 53.5919 1.80774 54.6156 3.11427 55.493C3.656 55.8732 4.29334 56.2242 4.99441 56.5459C5.28121 56.6922 5.50427 56.9262 5.568 57.2479C5.6636 57.7158 5.75919 58.1546 5.85479 58.5933C5.95039 59.032 5.85481 58.6518 5.79108 58.6225C4.99441 58.4763 4.48453 58.3593 3.4648 58.1838C3.2736 58.1546 3.05054 58.1253 2.85934 58.1838C2.06268 58.3008 1.48907 58.8858 1.61654 59.5C1.744 60.1142 2.70001 61.1086 4.13401 61.9568C4.83507 62.3662 5.59988 62.7172 6.42841 62.9804C6.84267 63.1267 7.16133 63.4484 7.28879 63.8286C7.41626 64.2088 7.51186 64.5013 7.60746 64.8231C7.70306 65.1448 7.60747 64.8815 7.5756 64.8815C6.49213 64.7646 5.98227 64.7061 4.77134 64.5891C4.58014 64.5891 4.35707 64.5891 4.13401 64.6183C3.33734 64.7938 2.82747 65.4665 3.01867 66.1099C3.17801 66.7242 4.3252 67.6893 5.85479 68.4205C6.61959 68.7715 7.54374 69.0932 8.436 69.2687C8.46787 69.2687 8.49972 69.2687 8.56346 69.2687C9.00959 69.3565 9.36012 69.6197 9.51946 70.0292C9.67879 70.4386 9.74253 70.5849 9.87 70.8481C9.99747 71.1113 9.86999 70.9066 9.83812 70.9066C8.59533 70.9066 8.11733 70.9066 6.77893 70.9066C6.58773 70.9066 6.36467 70.9066 6.1416 70.9943C5.34494 71.2576 4.93067 71.9887 5.1856 72.603C5.24934 72.7492 5.37679 72.9247 5.53613 73.1002C5.72733 73.2757 5.95041 73.4511 6.20534 73.6266C6.74707 73.9776 7.48001 74.3286 8.27667 74.5918C9.1052 74.855 10.0293 75.089 10.9535 75.1768C10.9535 75.1768 10.9853 75.1768 11.0172 75.1768C11.5271 75.2353 12.0051 75.5277 12.2281 75.9664C12.4512 76.4052 12.4512 76.3759 12.5468 76.5807C12.4512 76.5807 12.3556 76.5807 12.26 76.6099C11.1447 76.6976 10.6029 76.7269 9.32827 76.8146C9.1052 76.8146 8.914 76.8731 8.69093 76.9609C7.92613 77.2826 7.51187 78.0138 7.79867 78.5695C8.0536 79.096 9.2964 79.7687 10.9216 80.2366C11.7501 80.4706 12.6424 80.6753 13.5984 80.7923C13.7577 80.7923 13.9171 80.8216 14.1083 80.8508C14.6181 80.9093 15.0961 81.1725 15.3511 81.582C16.8488 84.0388 17.2631 85.1502 19.2069 87.8118C19.5575 88.2797 20.1629 88.5722 20.7684 88.4845C22.3299 88.309 22.9353 86.8466 22.2024 85.8229C20.4179 83.3661 19.7168 82.6934 18.4103 80.4414C18.1235 79.9441 18.1553 79.3299 18.5059 78.8912C19.0795 78.16 19.5256 77.3703 19.8761 76.6391C20.5772 75.1475 20.8003 73.8021 20.5453 73.2464C20.2585 72.6615 19.43 72.486 18.6333 72.8077C18.4103 72.8954 18.2509 73.0124 18.0916 73.1294C17.1675 73.9483 16.8169 74.2701 15.9884 75.0013C15.8928 75.089 15.7653 75.206 15.6379 75.2937C15.5423 75.1183 15.4467 74.9135 15.3829 74.738C15.1599 74.2701 15.2236 73.7729 15.5423 73.3634C15.8609 72.9539 15.6379 73.2464 15.6697 73.1879C16.2115 72.486 16.6895 71.7255 17.04 71.0528C17.3905 70.3509 17.6773 69.7074 17.8367 69.181C17.9004 68.9177 17.9641 68.6838 17.9641 68.479C17.9641 68.2743 17.9641 68.128 17.9323 67.9818C17.7092 67.4846 16.9125 67.2799 16.1159 67.5431C15.8928 67.6016 15.7335 67.7186 15.5741 67.8356C14.5544 68.5668 14.2039 68.8885 13.2797 69.5904C12.3556 70.2924 13.216 69.5904 13.216 69.5904C13.1204 69.3565 13.0248 69.0932 12.9292 68.8592C12.7699 68.4498 12.8973 68.0111 13.1841 67.6601C13.7896 67.0166 14.2995 66.3439 14.7456 65.7297C15.6379 64.4721 16.084 63.3899 15.9884 62.8927C15.8291 62.3955 15.0643 62.103 14.2676 62.2785C14.0445 62.337 13.8533 62.3955 13.694 62.5125C12.6743 63.0974 12.26 63.3607 11.3677 63.8871H11.304C11.2403 63.6239 11.1447 63.3607 11.0809 63.0974C10.9535 62.6587 11.1128 62.1615 11.4952 61.869C12.1007 61.3426 12.6743 60.7869 13.1204 60.2312C14.1083 59.0905 14.7137 58.0083 14.6181 57.5111C14.5225 56.9847 13.8215 56.6337 13.0248 56.7214C12.8017 56.7214 12.6105 56.8092 12.4512 56.8969C11.3677 57.3941 10.9535 57.6281 9.99746 58.0961H9.93374C9.87001 57.7451 9.80626 57.3941 9.74253 57.0724C9.67879 56.7214 9.83813 56.3704 10.1249 56.1365C10.8579 55.61 11.4952 55.0543 12.0369 54.4986C13.1204 53.4164 13.7577 52.3928 13.694 51.8663C13.6303 51.3106 12.9611 50.9304 12.1644 50.9889C11.9413 50.9889 11.7501 51.0474 11.5908 51.1351C10.4755 51.5738 10.0612 51.7786 9.07334 52.188C8.08547 52.5975 9.0096 52.188 9.0096 52.1588C8.97773 51.7786 8.94586 51.3983 8.88212 51.0181C8.85026 50.6671 9.04146 50.3162 9.36012 50.0822C10.0931 49.6142 10.7623 49.0878 11.3359 48.5613C12.4512 47.5376 13.1523 46.5432 13.1204 46.0167C13.1204 45.461 12.4512 45.0516 11.6545 45.0808C11.4633 45.0808 11.2403 45.1393 11.0809 45.1978C10.0293 45.578 9.58321 45.7535 8.65907 46.1045C7.73494 46.4555 8.59534 46.1045 8.59534 46.0752C8.59534 45.5488 8.59534 44.9346 8.59534 44.3789C8.59534 43.8232 8.65907 44.1741 8.75467 44.1156C9.55133 43.6769 10.3799 43.1505 10.9853 42.6825C12.1644 41.8051 12.8973 40.9569 12.9611 40.4889C12.9611 39.9917 12.3875 39.553 11.6545 39.4945C11.4633 39.4945 11.2721 39.4945 11.0809 39.553C10.0931 39.787 9.61507 39.904 8.81841 40.1379C8.02174 40.3719 8.75467 40.1379 8.75467 40.1087C8.78654 39.4652 8.85026 38.5586 8.88212 38.3831C8.91399 38.2076 9.1052 38.1199 9.23267 38.0614C9.99747 37.7396 10.6985 37.3594 11.3359 36.9792C11.9413 36.599 12.4831 36.2188 12.8336 35.8678C13.216 35.5168 13.4391 35.2243 13.5028 34.9903C13.5984 34.4931 13.0567 33.9959 12.3237 33.8789C12.1325 33.8497 11.9413 33.8497 11.7501 33.8789C10.7304 34.0252 10.2843 34.1129 9.45574 34.2299C8.62721 34.3469 9.392 34.2299 9.392 34.1714C9.45574 33.6742 9.55133 33.1477 9.64693 32.6505C10.5711 32.3873 11.4315 32.0071 12.1644 31.6561C12.8017 31.3344 13.3435 30.9834 13.7577 30.6909C14.1401 30.3692 14.4269 30.0767 14.4907 29.8427C14.6181 29.3748 14.1401 28.8483 13.4391 28.6728C13.2479 28.6143 13.0567 28.6143 12.8973 28.6436C11.8457 28.7313 11.3996 28.7606 10.5073 28.8483C9.61507 28.9361 10.4436 28.8483 10.4436 28.7898C10.5392 28.4096 10.6348 28.0294 10.7304 27.6492C10.7941 27.3859 11.0172 27.1812 11.2721 27.1227C12.0688 26.918 12.8655 26.6547 13.5347 26.3623C14.172 26.099 14.7456 25.7773 15.1599 25.5141C15.5741 25.2216 15.8609 24.9584 15.9247 24.7244C16.084 24.2564 15.6697 23.7007 15.0005 23.496C14.8093 23.4375 14.65 23.4082 14.4588 23.4082C13.3753 23.4082 12.9292 23.4375 11.9732 23.4667C11.9732 23.4667 11.9095 23.4667 11.9413 23.4082C12.0688 22.9988 12.1963 22.5893 12.3556 22.1798C12.5149 21.7704 12.6424 21.7704 12.8973 21.7411C13.7577 21.5949 14.5863 21.3609 15.3192 21.0977C16.6257 20.6297 17.5817 20.0447 17.7729 19.606C17.9641 19.1673 17.5817 18.6116 16.9444 18.3776C16.7851 18.3191 16.5939 18.2899 16.4345 18.2606C15.3192 18.2021 14.9049 18.2021 13.8852 18.1729C12.8655 18.1436 13.8215 18.1729 13.8533 18.1144C14.0445 17.6757 14.2039 17.2077 14.3951 16.769C14.5863 16.3303 14.6819 16.4473 14.9049 16.418C15.7972 16.3303 16.6895 16.1548 17.4224 15.9208C18.7289 15.5406 19.7168 15.0141 19.908 14.6047C20.1311 14.1659 19.7805 13.6102 19.1751 13.347C19.0157 13.2885 18.8245 13.23 18.6652 13.23C17.5817 13.113 17.1993 13.113 16.1796 13.0253C16.1796 13.0253 16.1159 12.996 16.1477 12.9668C16.3071 12.6451 16.4664 12.3233 16.6257 12.0016C16.7851 11.6799 16.9444 11.6799 17.1674 11.6799C18.0278 11.6214 18.8883 11.5044 19.6212 11.3289C20.9277 11.0072 21.9156 10.5392 22.1387 10.159C22.3617 9.74953 22.0749 9.19382 21.5013 8.90135C21.342 8.8136 21.1827 8.78435 21.0233 8.75511C20.0036 8.60887 19.6212 8.55037 18.6971 8.43338C18.6971 8.43338 18.6333 8.40413 18.6652 8.37489C18.7927 8.17015 18.8883 7.99466 19.0157 7.78993C19.1432 7.5852 19.3663 7.4682 19.6212 7.4682C20.4179 7.4682 21.2145 7.35121 21.9156 7.23422C23.1903 6.97099 24.1781 6.59077 24.4012 6.2398C24.6561 5.85958 24.4012 5.33312 23.8276 5.04064L23.7638 5.15763Z" fill="#727C8C" fill-opacity="0.64"/>
<path d="M49.7206 42.5H61.1206V39.404H53.6566V35.756H59.2726V33.356H53.6566V29.804H60.9046V26.708H49.7206V42.5ZM61.0799 42.5H65.3519L67.5119 38.588L69.7919 42.5H74.3519L70.0079 36.404L74.1359 30.644H70.1279L68.0399 34.412L65.8319 30.644H61.2959L65.3519 36.404L61.0799 42.5ZM80.6938 42.692C81.6778 42.692 82.6858 42.5 82.9978 42.428V39.668C82.5898 39.764 81.8458 39.836 81.3418 39.836C79.9018 39.836 79.3258 39.452 79.3258 38.228V33.476H83.1178V30.644H79.3258V27.956H76.3258L76.1578 29.612C76.0858 30.332 75.8938 30.644 75.3418 30.644H73.9258V33.476H75.6778V38.42C75.6778 41.06 76.9978 42.692 80.6938 42.692ZM95.0186 36.236C95.0186 32.348 92.6906 30.452 89.3786 30.452C85.3706 30.452 82.9226 32.78 82.9226 36.692C82.9226 40.46 85.3706 42.692 89.3066 42.692C92.6906 42.692 94.9466 41.108 95.0186 38.396H91.8026C91.7066 39.548 90.7946 40.052 89.3786 40.052C87.7466 40.052 86.7626 39.212 86.5946 37.268H95.0186V36.236ZM91.8026 35.324H86.6906C86.9786 33.764 87.8426 33.092 89.3786 33.092C90.8906 33.092 91.8026 33.788 91.8026 35.132V35.324ZM95.6151 42.5H99.2631V36.86C99.2631 34.604 100.415 33.476 102.335 33.476C103.943 33.476 104.903 34.22 104.903 35.9V42.5H108.551V35.084C108.551 32.012 106.703 30.452 103.847 30.452C101.159 30.452 99.7671 31.532 99.1671 33.788H99.1191L99.2631 30.644H95.6151V42.5ZM114.616 42.692C116.776 42.692 118.12 41.636 118.576 39.956H118.624C118.552 41.228 118.504 42.26 118.48 42.5H122.128V25.868H118.48V32.396H118.456C117.928 31.172 116.68 30.452 114.76 30.452C111.304 30.452 109.048 32.852 109.048 36.476C109.048 40.196 111.184 42.692 114.616 42.692ZM115.456 39.908C113.776 39.908 112.672 38.516 112.672 36.5C112.672 34.532 113.8 33.236 115.504 33.236C117.28 33.236 118.48 34.388 118.48 36.092V36.668C118.48 38.612 117.28 39.908 115.456 39.908ZM134.886 36.236C134.886 32.348 132.558 30.452 129.246 30.452C125.238 30.452 122.79 32.78 122.79 36.692C122.79 40.46 125.238 42.692 129.174 42.692C132.558 42.692 134.814 41.108 134.886 38.396H131.67C131.574 39.548 130.662 40.052 129.246 40.052C127.614 40.052 126.63 39.212 126.462 37.268H134.886V36.236ZM131.67 35.324H126.558C126.846 33.764 127.71 33.092 129.246 33.092C130.758 33.092 131.67 33.788 131.67 35.132V35.324ZM140.834 42.692C142.994 42.692 144.338 41.636 144.794 39.956H144.842C144.77 41.228 144.722 42.26 144.698 42.5H148.346V25.868H144.698V32.396H144.674C144.146 31.172 142.898 30.452 140.978 30.452C137.522 30.452 135.266 32.852 135.266 36.476C135.266 40.196 137.402 42.692 140.834 42.692ZM141.674 39.908C139.994 39.908 138.89 38.516 138.89 36.5C138.89 34.532 140.018 33.236 141.722 33.236C143.498 33.236 144.698 34.388 144.698 36.092V36.668C144.698 38.612 143.498 39.908 141.674 39.908ZM153.924 42.5H157.86V36.62H161.676C163.164 36.62 163.692 37.244 163.692 38.684V42.5H167.628V38.564C167.628 36.788 166.932 35.54 165.372 35.18V35.132C166.86 34.7 167.724 33.428 167.724 31.412C167.724 28.436 165.468 26.708 161.292 26.708H153.924V42.5ZM157.86 34.244V29.804H161.268C163.092 29.804 163.956 30.644 163.956 32.036C163.956 33.5 163.116 34.244 161.46 34.244H157.86ZM180.48 36.236C180.48 32.348 178.152 30.452 174.84 30.452C170.832 30.452 168.384 32.78 168.384 36.692C168.384 40.46 170.832 42.692 174.768 42.692C178.152 42.692 180.408 41.108 180.48 38.396H177.264C177.168 39.548 176.256 40.052 174.84 40.052C173.208 40.052 172.224 39.212 172.056 37.268H180.48V36.236ZM177.264 35.324H172.152C172.44 33.764 173.304 33.092 174.84 33.092C176.352 33.092 177.264 33.788 177.264 35.132V35.324ZM185.612 42.692C187.772 42.692 189.116 41.78 189.476 40.1H189.5C189.5 40.82 189.404 41.9 189.332 42.5H192.98V35.3C192.98 32.132 190.772 30.452 187.004 30.452C183.404 30.452 181.292 31.868 181.292 34.268C181.292 34.508 181.316 34.772 181.34 34.964H184.7C184.676 34.724 184.676 34.532 184.676 34.46C184.676 33.5 185.468 32.924 186.836 32.924C188.516 32.924 189.332 33.5 189.332 34.94V35.732H185.468C182.324 35.732 180.932 37.148 180.932 39.092C180.932 41.492 182.852 42.692 185.612 42.692ZM186.332 40.22C185.012 40.22 184.22 39.74 184.22 38.828C184.22 38.156 184.82 37.7 185.804 37.7H189.332V37.94C189.332 39.38 188.228 40.22 186.332 40.22ZM193.741 42.5H197.389V25.868H193.741V42.5ZM198.367 29.396H202.015V26.492H198.367V29.396ZM198.367 42.5H202.015V30.644H198.367V42.5ZM208.967 42.692C209.951 42.692 210.959 42.5 211.271 42.428V39.668C210.863 39.764 210.119 39.836 209.615 39.836C208.175 39.836 207.599 39.452 207.599 38.228V33.476H211.391V30.644H207.599V27.956H204.599L204.431 29.612C204.359 30.332 204.167 30.644 203.615 30.644H202.199V33.476H203.951V38.42C203.951 41.06 205.271 42.692 208.967 42.692ZM215.552 47.54C218 47.54 219.464 46.196 220.664 42.788L224.96 30.644H221.456L218.696 38.804H218.648L215.6 30.644H211.424L216.344 42.5H217.136C216.536 44.132 215.984 44.708 214.784 44.708C214.184 44.708 213.632 44.612 213.272 44.516V47.228C213.584 47.348 214.352 47.54 215.552 47.54Z" fill="#F1F3EE"/>
<path d="M99.2124 65.64C102.502 65.64 103.384 64.24 103.384 62.672C103.384 61.804 103.034 61.146 102.376 60.796C101.83 60.502 101.046 60.334 100.01 60.166C99.2264 60.04 98.2604 59.886 97.9104 59.732C97.5884 59.592 97.4624 59.34 97.4624 58.892C97.4624 58.276 97.9944 57.814 99.2404 57.814C100.5 57.814 101.046 58.388 101.046 59.438H103.076C103.076 57.366 102.124 56.148 99.1984 56.148C96.5384 56.148 95.1804 57.352 95.1804 59.088C95.1804 59.97 95.4884 60.614 96.0764 60.992C96.6084 61.342 97.5324 61.524 98.4424 61.664C99.2124 61.776 100.164 61.916 100.57 62.056C100.934 62.182 101.102 62.434 101.102 62.826C101.102 63.414 100.752 63.974 99.1984 63.974C97.6584 63.974 97.2524 63.33 97.2524 62.336H95.2084C95.2084 64.03 96.0484 65.64 99.2124 65.64ZM111.8 61.846C111.8 59.578 110.442 58.472 108.51 58.472C106.172 58.472 104.744 59.83 104.744 62.112C104.744 64.31 106.172 65.612 108.468 65.612C110.442 65.612 111.758 64.688 111.8 63.106H109.924C109.868 63.778 109.336 64.072 108.51 64.072C107.558 64.072 106.984 63.582 106.886 62.448H111.8V61.846ZM109.924 61.314H106.942C107.11 60.404 107.614 60.012 108.51 60.012C109.392 60.012 109.924 60.418 109.924 61.202V61.314ZM115.877 65.612C117.137 65.612 117.921 65.08 118.131 64.1H118.145C118.145 64.52 118.089 65.15 118.047 65.5H120.175V61.3C120.175 59.452 118.887 58.472 116.689 58.472C114.589 58.472 113.357 59.298 113.357 60.698C113.357 60.838 113.371 60.992 113.385 61.104H115.345C115.331 60.964 115.331 60.852 115.331 60.81C115.331 60.25 115.793 59.914 116.591 59.914C117.571 59.914 118.047 60.25 118.047 61.09V61.552H115.793C113.959 61.552 113.147 62.378 113.147 63.512C113.147 64.912 114.267 65.612 115.877 65.612ZM116.297 64.17C115.527 64.17 115.065 63.89 115.065 63.358C115.065 62.966 115.415 62.7 115.989 62.7H118.047V62.84C118.047 63.68 117.403 64.17 116.297 64.17ZM125.007 65.612C127.373 65.612 128.619 64.758 128.619 63.302C128.619 62.7 128.297 62.182 127.849 61.93C127.331 61.636 126.729 61.552 125.875 61.468C125.133 61.398 124.517 61.342 124.167 61.258C123.775 61.16 123.663 60.936 123.663 60.642C123.663 60.166 124.083 59.844 125.035 59.844C126.085 59.844 126.421 60.222 126.435 60.95H128.311C128.311 59.34 127.275 58.472 125.007 58.472C123.089 58.472 121.549 59.298 121.549 60.796C121.549 61.37 121.815 61.874 122.207 62.154C122.627 62.448 123.397 62.602 124.391 62.686C125.077 62.742 125.637 62.798 126.001 62.882C126.365 62.966 126.491 63.162 126.491 63.414C126.491 63.918 126.099 64.24 124.993 64.24C123.775 64.24 123.453 63.82 123.453 63.176H121.549C121.549 64.576 122.571 65.612 125.007 65.612ZM133.703 65.612C135.985 65.612 137.469 64.296 137.469 62.056C137.469 59.802 135.985 58.472 133.703 58.472C131.421 58.472 129.937 59.802 129.937 62.056C129.937 64.296 131.421 65.612 133.703 65.612ZM133.703 63.988C132.667 63.988 132.065 63.274 132.065 62.056C132.065 60.824 132.667 60.096 133.703 60.096C134.739 60.096 135.341 60.824 135.341 62.056C135.341 63.274 134.739 63.988 133.703 63.988ZM138.903 65.5H141.031V62.21C141.031 60.894 141.703 60.236 142.823 60.236C143.761 60.236 144.321 60.67 144.321 61.65V65.5H146.449V61.174C146.449 59.382 145.371 58.472 143.705 58.472C142.137 58.472 141.325 59.102 140.975 60.418H140.947L141.031 58.584H138.903V65.5ZM156.505 65.64C159.291 65.64 161.447 63.862 161.447 60.852C161.447 57.898 159.291 56.148 156.505 56.148C153.719 56.148 151.563 57.898 151.563 60.852C151.563 63.862 153.719 65.64 156.505 65.64ZM156.505 63.834C155.049 63.834 153.943 62.728 153.943 60.866C153.943 59.032 155.049 57.954 156.505 57.954C157.961 57.954 159.067 59.032 159.067 60.866C159.067 62.728 157.961 63.834 156.505 63.834ZM162.893 65.5H165.021V62.21C165.021 60.894 165.693 60.236 166.813 60.236C167.751 60.236 168.311 60.67 168.311 61.65V65.5H170.439V61.174C170.439 59.382 169.361 58.472 167.695 58.472C166.127 58.472 165.315 59.102 164.965 60.418H164.937L165.021 58.584H162.893V65.5ZM178.868 61.846C178.868 59.578 177.51 58.472 175.578 58.472C173.24 58.472 171.812 59.83 171.812 62.112C171.812 64.31 173.24 65.612 175.536 65.612C177.51 65.612 178.826 64.688 178.868 63.106H176.992C176.936 63.778 176.404 64.072 175.578 64.072C174.626 64.072 174.052 63.582 173.954 62.448H178.868V61.846ZM176.992 61.314H174.01C174.178 60.404 174.682 60.012 175.578 60.012C176.46 60.012 176.992 60.418 176.992 61.202V61.314Z" fill="#8690A0"/>
<path d="M250.236 5.15763C250.395 5.06989 250.523 5.01139 250.682 4.9529C251.606 4.71892 251.989 4.66042 252.785 4.51418C253.582 4.36794 252.817 4.48493 252.785 4.45569C252.276 3.69524 252.021 3.25653 251.734 2.49609C251.447 1.73565 251.479 0.975204 252.021 0.682726C252.562 0.390249 252.977 0.390249 253.869 1.12144C254.761 1.85264 254.984 2.14511 255.526 2.90556H255.59C256.1 2.3206 256.355 2.02812 256.928 1.29693C257.024 1.17994 257.119 1.06295 257.279 0.975204C257.852 0.682726 258.553 0.799717 258.84 1.23843C259.127 1.67715 259.095 2.75932 258.681 3.95847C258.49 4.54343 258.203 5.15763 257.82 5.77184C257.438 6.38604 257.693 6.21055 257.82 6.41529C257.948 6.62002 258.075 6.82475 258.203 7.05874C258.33 7.29272 258.267 7.05874 258.267 7.05874C258.776 6.53228 259.063 6.2398 259.669 5.6256C259.764 5.50861 259.924 5.42086 260.083 5.33312C260.688 5.04064 261.358 5.18688 261.613 5.6256C261.867 6.06431 261.74 7.14648 261.262 8.34564C261.039 8.90135 260.72 9.51555 260.338 10.0713C259.955 10.627 260.21 10.4515 260.306 10.627C260.497 10.9779 260.688 11.3289 260.88 11.6799C261.071 12.0309 260.911 11.6799 260.943 11.6799C261.421 11.2412 261.74 10.9487 262.377 10.3637C262.505 10.2467 262.632 10.159 262.792 10.1005C263.429 9.83727 264.098 10.0128 264.353 10.4807C264.576 10.9487 264.385 12.0601 263.811 13.23C263.588 13.7272 263.27 14.2244 262.919 14.7216C262.569 15.2189 262.696 15.3066 262.823 15.5698C263.015 16.0085 263.238 16.4473 263.429 16.886C263.62 17.3247 263.461 16.886 263.493 16.886C263.971 16.5058 264.289 16.2133 264.927 15.7161C265.054 15.5991 265.213 15.5113 265.373 15.4528C266.01 15.2189 266.743 15.4528 266.934 15.9208C267.125 16.418 266.871 17.5294 266.201 18.7286C265.915 19.2258 265.564 19.7523 265.182 20.2495C265.022 20.425 264.99 20.6589 265.086 20.8637C265.277 21.3316 265.437 21.8289 265.628 22.2968C265.819 22.7648 265.66 22.2968 265.691 22.2968C266.169 21.9458 266.552 21.6826 267.189 21.2146C267.317 21.1269 267.476 21.0392 267.667 20.9807C268.336 20.7759 269.037 21.0392 269.229 21.5656C269.324 21.8289 269.261 22.2383 269.133 22.7355C268.974 23.2327 268.687 23.8177 268.305 24.4027C267.986 24.8999 267.603 25.3678 267.157 25.8358C266.998 26.0113 266.934 26.2745 266.998 26.5085C267.125 26.9472 267.253 27.4152 267.38 27.8539C267.508 28.2926 267.412 27.8831 267.444 27.8539C267.954 27.5322 268.336 27.2982 269.037 26.8595C269.197 26.7717 269.356 26.684 269.547 26.6547C270.248 26.4792 270.949 26.801 271.109 27.3567C271.173 27.6199 271.109 28.0294 270.918 28.5266C270.726 29.0238 270.376 29.6088 269.962 30.1645C269.547 30.7494 269.006 31.3051 268.4 31.8316C268.528 32.4165 268.623 32.9722 268.719 33.528C268.814 34.0837 268.751 33.5572 268.783 33.528C269.324 33.2355 269.739 33.0307 270.503 32.6213C270.663 32.5335 270.854 32.475 271.045 32.4458C271.778 32.3288 272.447 32.709 272.543 33.294C272.575 33.5865 272.479 33.9959 272.224 34.4931C271.969 34.9903 271.587 35.5461 271.077 36.1018C270.663 36.5697 270.185 37.0377 269.611 37.4472C269.42 37.5934 269.324 37.8274 269.356 38.0614C269.42 38.6463 269.484 39.2313 269.515 39.8162C269.547 40.4012 269.515 39.8455 269.579 39.8162C270.153 39.5822 270.599 39.4068 271.396 39.0558C271.555 38.9973 271.746 38.9388 271.969 38.9095C272.734 38.851 273.371 39.319 273.403 39.9332C273.467 40.5182 272.734 41.6588 271.619 42.6825C271.141 43.1212 270.535 43.5599 269.93 43.9402C269.324 44.3204 269.739 44.1156 269.739 44.2619C269.739 44.4081 269.739 44.5251 269.739 44.6713C269.739 45.1393 269.739 45.6365 269.739 46.1045C269.739 46.5725 269.739 46.1337 269.77 46.1337C270.344 45.9582 270.79 45.8413 271.587 45.6073C271.778 45.5488 271.969 45.5195 272.16 45.5488C272.925 45.578 273.531 46.0752 273.499 46.6602C273.467 47.2159 272.67 48.2396 271.427 49.1755C270.981 49.4972 270.471 49.819 269.93 50.1114C269.388 50.4039 269.42 50.5502 269.388 50.8719C269.324 51.3691 269.292 51.8371 269.229 52.3343C269.165 52.8315 269.229 52.3635 269.261 52.3635C269.866 52.2173 270.344 52.1003 271.204 51.8663C271.396 51.8078 271.587 51.8078 271.81 51.8078C272.607 51.8663 273.212 52.3928 273.148 53.007C273.085 53.5919 272.192 54.6156 270.886 55.493C270.344 55.8732 269.707 56.2242 269.006 56.5459C268.719 56.6922 268.496 56.9262 268.432 57.2479C268.336 57.7158 268.241 58.1546 268.145 58.5933C268.05 59.032 268.145 58.6518 268.209 58.6225C269.006 58.4763 269.515 58.3593 270.535 58.1838C270.726 58.1546 270.949 58.1253 271.141 58.1838C271.937 58.3008 272.511 58.8858 272.383 59.5C272.256 60.1142 271.3 61.1086 269.866 61.9568C269.165 62.3662 268.4 62.7172 267.572 62.9804C267.157 63.1267 266.839 63.4484 266.711 63.8286C266.584 64.2088 266.488 64.5013 266.393 64.8231C266.297 65.1448 266.393 64.8815 266.424 64.8815C267.508 64.7646 268.018 64.7061 269.229 64.5891C269.42 64.5891 269.643 64.5891 269.866 64.6183C270.663 64.7938 271.173 65.4665 270.981 66.11C270.822 66.7242 269.675 67.6893 268.145 68.4205C267.38 68.7715 266.456 69.0932 265.564 69.2687C265.532 69.2687 265.5 69.2687 265.437 69.2687C264.99 69.3565 264.64 69.6197 264.481 70.0292C264.321 70.4386 264.257 70.5849 264.13 70.8481C264.003 71.1113 264.13 70.9066 264.162 70.9066C265.405 70.9066 265.883 70.9066 267.221 70.9066C267.412 70.9066 267.635 70.9066 267.858 70.9943C268.655 71.2576 269.069 71.9888 268.814 72.603C268.751 72.7492 268.623 72.9247 268.464 73.1002C268.273 73.2757 268.05 73.4511 267.795 73.6266C267.253 73.9776 266.52 74.3286 265.723 74.5918C264.895 74.855 263.971 75.089 263.047 75.1768C263.047 75.1768 263.015 75.1768 262.983 75.1768C262.473 75.2353 261.995 75.5277 261.772 75.9664C261.549 76.4052 261.549 76.3759 261.453 76.5807C261.549 76.5807 261.644 76.5807 261.74 76.6099C262.855 76.6976 263.397 76.7269 264.672 76.8146C264.895 76.8146 265.086 76.8731 265.309 76.9609C266.074 77.2826 266.488 78.0138 266.201 78.5695C265.946 79.096 264.704 79.7687 263.078 80.2366C262.25 80.4706 261.358 80.6753 260.402 80.7923C260.242 80.7923 260.083 80.8216 259.892 80.8508C259.382 80.9093 258.904 81.1725 258.649 81.582C257.151 84.0388 256.737 85.1502 254.793 87.8118C254.443 88.2798 253.837 88.5722 253.232 88.4845C251.67 88.309 251.065 86.8466 251.798 85.8229C253.582 83.3661 254.283 82.6934 255.59 80.4414C255.877 79.9441 255.845 79.3299 255.494 78.8912C254.921 78.16 254.474 77.3703 254.124 76.6392C253.423 75.1475 253.2 73.8021 253.455 73.2464C253.741 72.6615 254.57 72.486 255.367 72.8077C255.59 72.8954 255.749 73.0124 255.908 73.1294C256.833 73.9483 257.183 74.2701 258.012 75.0013C258.107 75.089 258.235 75.206 258.362 75.2938C258.458 75.1183 258.553 74.9135 258.617 74.738C258.84 74.2701 258.776 73.7729 258.458 73.3634C258.139 72.9539 258.362 73.2464 258.33 73.1879C257.789 72.486 257.311 71.7255 256.96 71.0528C256.609 70.3509 256.323 69.7074 256.163 69.181C256.1 68.9177 256.036 68.6838 256.036 68.479C256.036 68.2743 256.036 68.1281 256.068 67.9818C256.291 67.4846 257.087 67.2799 257.884 67.5431C258.107 67.6016 258.267 67.7186 258.426 67.8356C259.446 68.5668 259.796 68.8885 260.72 69.5904C261.644 70.2924 260.784 69.5904 260.784 69.5904C260.88 69.3565 260.975 69.0932 261.071 68.8592C261.23 68.4498 261.103 68.0111 260.816 67.6601C260.21 67.0166 259.701 66.3439 259.254 65.7297C258.362 64.4721 257.916 63.3899 258.012 62.8927C258.171 62.3955 258.936 62.103 259.732 62.2785C259.955 62.337 260.147 62.3955 260.306 62.5125C261.326 63.0974 261.74 63.3607 262.632 63.8871H262.696C262.76 63.6239 262.855 63.3607 262.919 63.0974C263.047 62.6587 262.887 62.1615 262.505 61.869C261.899 61.3426 261.326 60.7869 260.88 60.2312C259.892 59.0905 259.286 58.0083 259.382 57.5111C259.477 56.9847 260.179 56.6337 260.975 56.7214C261.198 56.7214 261.389 56.8092 261.549 56.8969C262.632 57.3941 263.047 57.6281 264.003 58.0961H264.066C264.13 57.7451 264.194 57.3941 264.257 57.0724C264.321 56.7214 264.162 56.3705 263.875 56.1365C263.142 55.61 262.505 55.0543 261.963 54.4986C260.88 53.4164 260.242 52.3928 260.306 51.8663C260.37 51.3106 261.039 50.9304 261.836 50.9889C262.059 50.9889 262.25 51.0474 262.409 51.1351C263.525 51.5738 263.939 51.7786 264.927 52.188C265.915 52.5975 264.99 52.188 264.99 52.1588C265.022 51.7786 265.054 51.3983 265.118 51.0181C265.15 50.6671 264.959 50.3162 264.64 50.0822C263.907 49.6142 263.238 49.0878 262.664 48.5613C261.549 47.5376 260.848 46.5432 260.88 46.0167C260.88 45.461 261.549 45.0516 262.345 45.0808C262.537 45.0808 262.76 45.1393 262.919 45.1978C263.971 45.578 264.417 45.7535 265.341 46.1045C266.265 46.4555 265.405 46.1045 265.405 46.0752C265.405 45.5488 265.405 44.9346 265.405 44.3789C265.405 43.8232 265.341 44.1741 265.245 44.1156C264.449 43.6769 263.62 43.1505 263.015 42.6825C261.836 41.8051 261.103 40.9569 261.039 40.4889C261.039 39.9917 261.613 39.553 262.345 39.4945C262.537 39.4945 262.728 39.4945 262.919 39.553C263.907 39.787 264.385 39.904 265.182 40.1379C265.978 40.3719 265.245 40.138 265.245 40.1087C265.213 39.4653 265.15 38.5586 265.118 38.3831C265.086 38.2076 264.895 38.1199 264.767 38.0614C264.003 37.7396 263.301 37.3594 262.664 36.9792C262.059 36.599 261.517 36.2188 261.166 35.8678C260.784 35.5168 260.561 35.2243 260.497 34.9903C260.402 34.4931 260.943 33.9959 261.676 33.8789C261.867 33.8497 262.059 33.8497 262.25 33.8789C263.27 34.0252 263.716 34.1129 264.544 34.2299C265.373 34.3469 264.608 34.2299 264.608 34.1714C264.544 33.6742 264.449 33.1477 264.353 32.6505C264.257 32.1533 264.353 32.6505 264.353 32.6505C263.429 32.3873 262.569 32.0071 261.836 31.6561C261.198 31.3344 260.657 30.9834 260.242 30.6909C259.86 30.3692 259.573 30.0767 259.509 29.8427C259.382 29.3748 259.86 28.8483 260.561 28.6728C260.752 28.6143 260.943 28.6143 261.103 28.6436C262.154 28.7313 262.6 28.7606 263.493 28.8483C264.385 28.9361 263.556 28.8483 263.556 28.7898C263.461 28.4096 263.365 28.0294 263.27 27.6492C263.206 27.3859 262.983 27.1812 262.728 27.1227C261.931 26.918 261.135 26.6547 260.465 26.3623C259.828 26.099 259.254 25.7773 258.84 25.5141C258.426 25.2216 258.139 24.9584 258.075 24.7244C257.916 24.2564 258.33 23.7007 258.999 23.496C259.191 23.4375 259.35 23.4082 259.541 23.4082C260.625 23.4082 261.071 23.4375 262.027 23.4667C262.027 23.4667 262.091 23.4667 262.059 23.4082C261.931 22.9988 261.804 22.5893 261.644 22.1798C261.485 21.7704 261.358 21.7704 261.103 21.7411C260.242 21.5949 259.414 21.3609 258.681 21.0977C257.374 20.6297 256.418 20.0447 256.227 19.606C256.036 19.1673 256.418 18.6116 257.056 18.3776C257.215 18.3191 257.406 18.2899 257.565 18.2606C258.681 18.2021 259.095 18.2021 260.115 18.1729C261.135 18.1436 260.179 18.1729 260.147 18.1144C259.955 17.6757 259.796 17.2077 259.605 16.769C259.414 16.3303 259.318 16.4473 259.095 16.418C258.203 16.3303 257.311 16.1548 256.578 15.9208C255.271 15.5406 254.283 15.0141 254.092 14.6047C253.869 14.1659 254.219 13.6102 254.825 13.347C254.984 13.2885 255.175 13.23 255.335 13.23C256.418 13.113 256.801 13.113 257.82 13.0253C257.82 13.0253 257.884 12.996 257.852 12.9668C257.693 12.6451 257.534 12.3233 257.374 12.0016C257.215 11.6799 257.056 11.6799 256.833 11.6799C255.972 11.6214 255.112 11.5044 254.379 11.3289C253.072 11.0072 252.084 10.5392 251.861 10.159C251.638 9.74953 251.925 9.19382 252.499 8.90135C252.658 8.8136 252.817 8.78435 252.977 8.75511C253.996 8.60887 254.379 8.55037 255.303 8.43338C255.303 8.43338 255.367 8.40413 255.335 8.37489C255.207 8.17015 255.112 7.99466 254.984 7.78993C254.857 7.5852 254.634 7.46821 254.379 7.46821C253.582 7.46821 252.785 7.35121 252.084 7.23422C250.81 6.97099 249.822 6.59077 249.599 6.2398C249.344 5.85958 249.599 5.33312 250.172 5.04064L250.236 5.15763Z" fill="#727C8C" fill-opacity="0.64"/>
</svg>
