<svg width="80" height="80" viewBox="0 0 80 80" fill="none" xmlns="http://www.w3.org/2000/svg">
  <path
    fill-rule="evenodd"
    clip-rule="evenodd"
    d="M40 0C62.0914 0 80 17.9086 80 40C80 62.0914 62.0914 80 40 80C17.9086 80 0 62.0914 0 40C0 17.9086 17.9086 0 40 0Z"
    fill="url(#paint0_radial_251_448205)"
  />
  <path
    d="M25.4206 30.892C33.4726 23.036 46.5275 23.036 54.5795 30.892L55.5485 31.8375C55.9511 32.2303 55.9511 32.8671 55.5485 33.2599L52.2335 36.4943C52.0322 36.6907 51.7059 36.6907 51.5046 36.4943L50.171 35.1932C44.5537 29.7126 35.4463 29.7126 29.829 35.1932L28.4009 36.5865C28.1996 36.7829 27.8732 36.7829 27.6719 36.5865L24.3569 33.3522C23.9543 32.9594 23.9543 32.3226 24.3569 31.9298L25.4206 30.892ZM61.4352 37.5809L64.3855 40.4594C64.7881 40.8522 64.7882 41.4891 64.3856 41.8819L51.0822 54.8616C50.6796 55.2544 50.0269 55.2544 49.6243 54.8617C49.6243 54.8617 49.6242 54.8617 49.6242 54.8616L40.1823 45.6495C40.0817 45.5513 39.9185 45.5513 39.8178 45.6495C39.8178 45.6495 39.8178 45.6495 39.8178 45.6495L30.3761 54.8616C29.9735 55.2544 29.3208 55.2545 28.9182 54.8617C28.9182 54.8617 28.9182 54.8617 28.9182 54.8617L15.6144 41.8817C15.2119 41.4889 15.2119 40.8521 15.6144 40.4593L18.5648 37.5807C18.9674 37.1879 19.6202 37.1879 20.0228 37.5807L29.4648 46.793C29.5655 46.8912 29.7286 46.8912 29.8293 46.793C29.8293 46.793 29.8293 46.793 29.8293 46.793L39.2709 37.5807C39.6735 37.1879 40.3262 37.1879 40.7288 37.5807C40.7288 37.5807 40.7288 37.5807 40.7288 37.5807L50.1709 46.793C50.2715 46.8912 50.4347 46.8912 50.5354 46.793L59.9772 37.5809C60.3798 37.1881 61.0326 37.1881 61.4352 37.5809Z"
    fill="white"
  />
  <defs>
    <radialGradient
      id="paint0_radial_251_448205"
      cx="0"
      cy="0"
      r="1"
      gradientUnits="userSpaceOnUse"
      gradientTransform="translate(0 40) scale(80)"
    >
      <stop stop-color="#5D9DF6" />
      <stop offset="1" stop-color="#006FFF" />
    </radialGradient>
  </defs>
</svg>
