<svg width="12" height="12" viewBox="0 0 12 12" fill="none" xmlns="http://www.w3.org/2000/svg">
<rect x="0.5" y="4.5" width="11" height="7.5" rx="1.6" fill="#101212"/>
<path fill-rule="evenodd" clip-rule="evenodd" d="M6 2C5.74151 2 5.48934 2.10463 5.30015 2.29777C5.11026 2.49161 5 2.75882 5 3.04167V4.5C5 5.05228 4.55228 5.5 4 5.5C3.44772 5.5 3 5.05228 3 4.5V3.04167C3 2.24154 3.31117 1.47014 3.87143 0.89821C4.43237 0.325578 5.19762 0 6 0C6.80238 0 7.56763 0.325578 8.12857 0.89821C8.68883 1.47014 9 2.24154 9 3.04167V4.5C9 5.05228 8.55228 5.5 8 5.5C7.44772 5.5 7 5.05228 7 4.5V3.04167C7 2.75882 6.88974 2.49161 6.69986 2.29777C6.51066 2.10463 6.25849 2 6 2Z" fill="#101212"/>
</svg>
