<svg width="12" height="12" viewBox="0 0 12 12" fill="none" xmlns="http://www.w3.org/2000/svg">
<path d="M9.08616 3.9592C8.86684 3.83457 8.58486 3.83457 8.3342 3.9592L6.57963 4.98739L5.38903 5.64169L3.6658 6.66988C3.44648 6.79451 3.16449 6.79451 2.91384 6.66988L1.56658 5.85979C1.34726 5.73516 1.1906 5.48591 1.1906 5.20549V3.64763C1.1906 3.39837 1.31593 3.14911 1.56658 2.99332L2.91384 2.21439C3.13316 2.08976 3.41514 2.08976 3.6658 2.21439L5.01305 3.02448C5.23238 3.14911 5.38903 3.39837 5.38903 3.67878V4.70697L6.57963 4.02151V2.96217C6.57963 2.71291 6.45431 2.46365 6.20366 2.30786L3.69713 0.843472C3.47781 0.718843 3.19582 0.718843 2.94517 0.843472L0.375979 2.33902C0.125326 2.46365 0 2.71291 0 2.96217V5.89095C0 6.14021 0.125326 6.38947 0.375979 6.54525L2.91384 8.00964C3.13316 8.13427 3.41514 8.13427 3.6658 8.00964L5.38903 7.01261L6.57963 6.32715L8.30287 5.33012C8.52219 5.20549 8.80418 5.20549 9.05483 5.33012L10.4021 6.10905C10.6214 6.23368 10.7781 6.48294 10.7781 6.76335V8.32122C10.7781 8.57048 10.6527 8.81973 10.4021 8.97552L9.08616 9.75445C8.86684 9.87908 8.58486 9.87908 8.3342 9.75445L6.98695 8.97552C6.76762 8.85089 6.61097 8.60163 6.61097 8.32122V7.32418L5.42037 8.00964V9.03783C5.42037 9.28709 5.54569 9.53635 5.79634 9.69214L8.3342 11.1565C8.55352 11.2812 8.83551 11.2812 9.08616 11.1565L11.624 9.69214C11.8433 9.56751 12 9.31825 12 9.03783V6.07789C12 5.82864 11.8747 5.57938 11.624 5.42359L9.08616 3.9592Z" fill="#101212"/>
</svg>
