<svg width="20" height="20" viewBox="0 0 20 20" fill="none" xmlns="http://www.w3.org/2000/svg">
<path d="M5.00001 19C3.89543 19 3 18.1046 3.00001 17L3.00007 2.99999C3.00008 1.89543 3.89551 1 5.00007 1L14.9998 1C16.1044 1 16.9998 1.89543 16.9998 3.00001L16.9998 17C16.9998 18.1046 16.1044 19 14.9998 19H5.00001Z" stroke="#101212" stroke-width="2" stroke-miterlimit="10" stroke-linecap="square"/>
<path d="M7 14C6.44772 14 6 14.4477 6 15C6 15.5523 6.44772 16 7 16V14ZM13 16C13.5523 16 14 15.5523 14 15C14 14.4477 13.5523 14 13 14V16ZM7 16H13V14H7V16Z" fill="#101212"/>
<circle cx="7.5" cy="5.5" r="1.5" fill="#101212"/>
</svg>
