<svg width="12" height="12" viewBox="0 0 12 12" fill="none" xmlns="http://www.w3.org/2000/svg">
<path d="M6.74154 5.1325V2.5065C7.19023 2.56582 7.62844 2.68732 8.04352 2.8675C8.41478 3.05036 8.86414 2.89776 9.04745 2.52672C9.23101 2.15519 9.07835 1.705 8.70654 1.522C8.08504 1.23948 7.42113 1.06125 6.74154 0.9945V0.500765C6.74154 0.2242 6.51733 0 6.24077 0C5.96421 0 5.74001 0.2242 5.74001 0.500765V0.9915C3.9688 1.1445 2.84909 2.1415 2.84909 3.6235C2.84909 5.4865 4.43852 6.0485 5.74001 6.412V9.045C5.0168 9.00636 4.30235 8.86857 3.61676 8.6355C3.22733 8.49523 2.79613 8.69625 2.65532 9.08548C2.51429 9.47532 2.71654 9.90577 3.10648 10.0465C3.95537 10.3404 4.84242 10.51 5.74001 10.55V11.4992C5.74001 11.7758 5.96421 12 6.24077 12C6.51733 12 6.74154 11.7758 6.74154 11.4992V10.5435C9.30796 10.328 9.5999 8.6555 9.5999 7.9115C9.5999 6.0645 8.03701 5.4965 6.74154 5.1325ZM4.35138 3.6235C4.35138 2.8235 5.15261 2.5735 5.74001 2.499V4.845C4.78855 4.546 4.35138 4.2615 4.35138 3.6235ZM6.74154 9.036V6.7C7.67146 6.9955 8.09761 7.2805 8.09761 7.911C8.09761 8.191 8.0936 8.8845 6.74154 9.036Z" fill="#101212"/>
</svg>
