<svg width="20" height="20" viewBox="0 0 20 20" fill="none" xmlns="http://www.w3.org/2000/svg">
<path d="M10 0H9.16667V3.16421C9.16667 3.62445 9.53976 3.99755 10 3.99755C10.4602 3.99755 10.8333 3.62445 10.8333 3.16421V1.70833C15.0383 2.1275 18.3333 5.68667 18.3333 10C18.3333 14.595 14.595 18.3333 10 18.3333C5.405 18.3333 1.66667 14.595 1.66667 10V9.83254C1.66667 9.3723 1.29357 8.99921 0.833333 8.99921C0.373096 8.99921 0 9.3723 0 9.83254L0 10C0 15.5142 4.48583 20 10 20C15.5142 20 20 15.5142 20 10C20 4.48583 15.5142 0 10 0Z" fill="#101212"/>
<path d="M8.23177 11.7675C8.70427 12.24 9.33261 12.5 10.0001 12.5C10.6676 12.5 11.2959 12.24 11.7676 11.7683C12.2401 11.2958 12.5001 10.6675 12.5001 10C12.5001 9.3325 12.2401 8.70417 11.7676 8.23167C11.0943 7.55917 6.51177 4.80833 5.12344 3.98083L2.29761 2.2975L3.98177 5.12333C4.80844 6.51167 7.56011 11.0958 8.23177 11.7675Z" fill="#101212"/>
</svg>
