<svg width="12" height="10" viewBox="0 0 12 10" fill="none" xmlns="http://www.w3.org/2000/svg">
<path fill-rule="evenodd" clip-rule="evenodd" d="M8.17808 8.63214C8.4863 9.03929 8.85616 9.5 8.85616 9.5C11.1267 9.425 12 7.87143 12 7.87143C11.9666 5.69934 11.4608 3.5635 10.5205 1.625C9.69313 0.947307 8.68438 0.554215 7.63356 0.5L7.48973 0.671428C8.42521 0.931035 9.29718 1.39483 10.0479 2.03214C9.09131 1.48225 8.04076 1.13283 6.95548 1.00357C6.26536 0.924261 5.56861 0.931456 4.88014 1.025C4.82143 1.02685 4.76299 1.03402 4.70548 1.04643C3.89887 1.14207 3.11179 1.36988 2.37329 1.72143C1.99315 1.90357 1.76712 2.03214 1.76712 2.03214C1.76712 2.03214 2.61986 1.18571 4.46918 0.628572L4.36644 0.5C3.31562 0.554215 2.30687 0.947307 1.47945 1.625C0.539227 3.5635 0.0333589 5.69934 0 7.87143C0 7.87143 0.863013 9.425 3.13356 9.5C3.13356 9.5 3.5137 9.01786 3.82192 8.61071C3.0996 8.42074 2.46364 7.97354 2.02397 7.34643C2.39151 7.60034 2.78418 7.81228 3.19521 7.97857C3.68412 8.17982 4.18964 8.33403 4.70548 8.43929C5.58412 8.61531 6.48652 8.61894 7.36644 8.45C7.87834 8.35663 8.37821 8.20204 8.85616 7.98929C9.27163 7.82578 9.66799 7.61371 10.0377 7.35714C9.5815 7.99767 8.9228 8.4493 8.17808 8.63214ZM5.48569 5.72002C5.48569 6.4159 4.94844 6.98002 4.28569 6.98002C3.62295 6.98002 3.08569 6.4159 3.08569 5.72002C3.08569 5.02414 3.62295 4.46002 4.28569 4.46002C4.94844 4.46002 5.48569 5.02414 5.48569 5.72002ZM7.71425 6.98008C8.37699 6.98008 8.91425 6.41596 8.91425 5.72008C8.91425 5.0242 8.37699 4.46008 7.71425 4.46008C7.05151 4.46008 6.51425 5.0242 6.51425 5.72008C6.51425 6.41596 7.05151 6.98008 7.71425 6.98008Z" fill="#101212"/>
</svg>
