<svg width="12" height="12" viewBox="0 0 12 12" fill="none" xmlns="http://www.w3.org/2000/svg">
<path d="M7.5999 9.14874L7.49579 9.59764C7.14261 9.74406 5.91909 10.3584 5.21343 9.70468C5.00316 9.5103 4.89802 9.26329 4.89802 8.96402C4.89802 8.40306 5.07359 7.91406 5.38865 6.73988C5.44411 6.51829 5.51216 6.23012 5.51216 6.00173C5.51216 5.60795 5.37028 5.50306 4.98478 5.50306C4.79663 5.50306 4.5884 5.57358 4.3999 5.64769L4.50436 5.19878C4.92456 5.01907 5.45228 4.79999 5.90446 4.79999C6.58257 4.79999 7.08103 5.15582 7.08103 5.8324C7.08103 6.0275 7.04905 6.36902 6.98168 6.60528L6.59176 8.05654C6.51146 8.35008 6.36515 8.99659 6.59108 9.18847C6.81394 9.37784 7.3403 9.27761 7.5999 9.14874Z" fill="#101212"/>
<path d="M6.7251 3.75C7.20835 3.75 7.6001 3.35825 7.6001 2.875C7.6001 2.39175 7.20835 2 6.7251 2C6.24185 2 5.8501 2.39175 5.8501 2.875C5.8501 3.35825 6.24185 3.75 6.7251 3.75Z" fill="#101212"/>
</svg>
