<svg width="12" height="12" viewBox="0 0 12 12" fill="none" xmlns="http://www.w3.org/2000/svg">
<g clip-path="url(#clip0_804_457)">
<path fill-rule="evenodd" clip-rule="evenodd" d="M6 0C4.3705 0 4.166 0.007 3.526 0.036C2.551 0.0805 1.6945 0.3195 1.007 1.007C0.3195 1.6945 0.0805 2.551 0.036 3.526C0.007 4.166 0 4.3705 0 6C0 7.6295 0.007 7.834 0.036 8.474C0.0805 9.449 0.3195 10.3055 1.007 10.993C1.6945 11.6805 2.551 11.9195 3.526 11.964C4.166 11.993 4.3705 12 6 12C7.6295 12 7.834 11.993 8.474 11.964C9.449 11.9195 10.3055 11.6805 10.993 10.993C11.6805 10.3055 11.9195 9.449 11.964 8.474C11.993 7.834 12 7.6295 12 6C12 4.3705 11.993 4.166 11.964 3.526C11.9195 2.551 11.6805 1.6945 10.993 1.007C10.3055 0.3195 9.449 0.0805 8.474 0.036C7.834 0.007 7.6295 0 6 0ZM5.9999 2.91904C4.2984 2.91904 2.9189 4.29854 2.9189 6.00004C2.9189 7.70154 4.2984 9.08104 5.9999 9.08104C7.7014 9.08104 9.0809 7.70154 9.0809 6.00004C9.0809 4.29854 7.7014 2.91904 5.9999 2.91904ZM5.9999 8.00004C4.8954 8.00004 3.9999 7.10454 3.9999 6.00004C3.9999 4.89554 4.8954 4.00004 5.9999 4.00004C7.1044 4.00004 7.9999 4.89554 7.9999 6.00004C7.9999 7.10454 7.1044 8.00004 5.9999 8.00004ZM9.92303 2.79698C9.92303 3.19462 9.60068 3.51698 9.20303 3.51698C8.80539 3.51698 8.48303 3.19462 8.48303 2.79698C8.48303 2.39933 8.80539 2.07698 9.20303 2.07698C9.60068 2.07698 9.92303 2.39933 9.92303 2.79698Z" fill="#101212"/>
</g>
<defs>
<clipPath id="clip0_804_457">
<rect width="12" height="12" fill="white"/>
</clipPath>
</defs>
</svg>
