<svg width="12" height="12" viewBox="0 0 12 12" fill="none" xmlns="http://www.w3.org/2000/svg">
<path d="M5.65723 4.34264L8.58558 1.41429C8.71688 1.28295 8.87278 1.17876 9.04435 1.10767C9.21593 1.03659 9.39983 1 9.58555 1C9.77127 1 9.95517 1.03659 10.1267 1.10767C10.2983 1.17876 10.4542 1.28295 10.5855 1.41429C10.7169 1.54559 10.8211 1.70149 10.8921 1.87306C10.9632 2.04464 10.9998 2.22854 10.9998 2.41426C10.9998 2.59998 10.9632 2.78388 10.8921 2.95546C10.8211 3.12703 10.7169 3.28293 10.5855 3.41423L7.67051 6.32924" stroke="#101212" stroke-width="2" stroke-linecap="round" stroke-linejoin="round"/>
<path d="M4.51189 9.84535C3.86058 10.496 1 11 1 11C1 11 1.50398 8.1394 2.15463 7.48808C2.46722 7.17549 2.89119 6.99988 3.33326 6.99988C3.77534 6.99988 4.1993 7.17549 4.51189 7.48808C4.82449 7.80068 5.0001 8.22464 5.0001 8.66671C5.0001 9.10879 4.82449 9.53275 4.51189 9.84535V9.84535Z" stroke="#101212" stroke-width="2" stroke-linecap="round" stroke-linejoin="round"/>
</svg>
