<svg width="12" height="12" viewBox="0 0 12 12" fill="none" xmlns="http://www.w3.org/2000/svg">
<path d="M5.65723 4.34264L8.58558 1.41429C8.71688 1.28295 8.87278 1.17876 9.04435 1.10767C9.21593 1.03659 9.39983 1 9.58555 1C9.77127 1 9.95517 1.03659 10.1267 1.10767C10.2983 1.17876 10.4542 1.28295 10.5855 1.41429C10.7169 1.54559 10.8211 1.70149 10.8921 1.87306C10.9632 2.04464 10.9998 2.22854 10.9998 2.41426C10.9998 2.59998 10.9632 2.78388 10.8921 2.95546C10.8211 3.12703 10.7169 3.28293 10.5855 3.41423L7.67051 6.32924" stroke="#101212" stroke-width="2" stroke-linecap="round" stroke-linejoin="round"/>
<path d="M5.26771 10.2681C4.29076 11.244 0 12 0 12C0 12 0.755959 7.70924 1.7319 6.73229C2.20078 6.26341 2.83672 6 3.49981 6C4.1629 6 4.79883 6.26341 5.26771 6.73229C5.73659 7.20117 6 7.8371 6 8.50019C6 9.16328 5.73659 9.79922 5.26771 10.2681Z" fill="#101212"/>
</svg>
