<svg width="20" height="20" viewBox="0 0 20 20" fill="none" xmlns="http://www.w3.org/2000/svg">
<path d="M12.75 14.2995L12.5711 14.9326C11.964 15.1391 9.86111 16.0054 8.64825 15.0835C8.28684 14.8094 8.10614 14.4611 8.10614 14.039C8.10614 13.2479 8.40789 12.5583 8.94941 10.9024C9.04474 10.5899 9.1617 10.1835 9.1617 9.86142C9.1617 9.30609 8.91784 9.15817 8.25526 9.15817C7.93187 9.15817 7.57398 9.25763 7.25 9.36213L7.42953 8.72905C8.15175 8.47562 9.05877 8.16666 9.83596 8.16666C11.0015 8.16666 11.8582 8.66847 11.8582 9.62263C11.8582 9.89777 11.8032 10.3794 11.6874 10.7126L11.0173 12.7592C10.8792 13.1732 10.6278 14.0849 11.0161 14.3555C11.3991 14.6226 12.3038 14.4812 12.75 14.2995Z" fill="#101212"/>
<path d="M11.375 7.25C12.1344 7.25 12.75 6.63439 12.75 5.875C12.75 5.11561 12.1344 4.5 11.375 4.5C10.6156 4.5 10 5.11561 10 5.875C10 6.63439 10.6156 7.25 11.375 7.25Z" fill="#101212"/>
</svg>
