<svg width="20" height="20" viewBox="0 0 20 20" fill="none" xmlns="http://www.w3.org/2000/svg">
<path fill-rule="evenodd" clip-rule="evenodd" d="M4.00003 20C2.89545 20 2.00001 19.1046 2.00003 18L2.00023 1.99998C2.00024 0.895423 2.89567 7.60335e-06 4.00023 7.46756e-06L16.0003 5.99234e-06C17.1049 5.85655e-06 18.0003 0.895436 18.0003 2.00001V18C18.0003 19.1046 17.1049 20 16.0003 20L4.00003 20ZM9.00034 5.5C9.00034 6.32843 8.32877 7 7.50034 7C6.67191 7 6.00034 6.32843 6.00034 5.5C6.00034 4.67157 6.67191 4 7.50034 4C8.32877 4 9.00034 4.67157 9.00034 5.5ZM7.00034 14C6.44805 14 6.00034 14.4477 6.00034 15C6.00034 15.5523 6.44805 16 7.00034 16H13.0003C13.5526 16 14.0003 15.5523 14.0003 15C14.0003 14.4477 13.5526 14 13.0003 14H7.00034Z" fill="#101212"/>
</svg>
