<svg width="24" height="24" viewBox="0 0 24 24" fill="none" xmlns="http://www.w3.org/2000/svg">
<path d="M1.5 22.5L6.5 7.5L16.5 17.5L1.5 22.5Z" stroke="#101212" stroke-width="2" stroke-linecap="round" stroke-linejoin="round"/>
<path d="M9.5 5.5L10.5 2.5" stroke="#101212" stroke-width="2" stroke-linecap="round" stroke-linejoin="round"/>
<path d="M18.5 14.5L21.5 13.5" stroke="#101212" stroke-width="2" stroke-linecap="round" stroke-linejoin="round"/>
<path d="M16.5 5.5C16.1044 5.5 15.7178 5.3827 15.3889 5.16294C15.06 4.94318 14.8036 4.63082 14.6522 4.26537C14.5009 3.89992 14.4613 3.49778 14.5384 3.10982C14.6156 2.72186 14.8061 2.36549 15.0858 2.08579C15.3655 1.80608 15.7219 1.6156 16.1098 1.53843C16.4978 1.46126 16.8999 1.50087 17.2654 1.65224C17.6308 1.80362 17.9432 2.05996 18.1629 2.38886C18.3827 2.71776 18.5 3.10444 18.5 3.5C18.5 4.03043 18.2893 4.53914 17.9142 4.91421C17.5391 5.28929 17.0304 5.5 16.5 5.5Z" stroke="#101212" stroke-width="2" stroke-linecap="round" stroke-linejoin="round"/>
<path d="M22.5 3.5C22.5 5.0913 21.8679 6.61742 20.7426 7.74264C19.6174 8.86786 18.0913 9.5 16.5 9.5" stroke="#101212" stroke-width="2" stroke-linecap="round" stroke-linejoin="round"/>
<path d="M4.26172 14.214L6.47172 20.843" stroke="#101212" stroke-width="2" stroke-linecap="round" stroke-linejoin="round"/>
<path d="M7.28613 8.286L10.9711 19.343" stroke="#101212" stroke-width="2" stroke-linecap="round" stroke-linejoin="round"/>
</svg>
