<svg width="12" height="12" viewBox="0 0 12 12" fill="none" xmlns="http://www.w3.org/2000/svg">
<path d="M6.81037 6.81037C6.67109 6.94974 6.5057 7.06031 6.32367 7.13574C6.14164 7.21117 5.94653 7.25 5.74949 7.25C5.55245 7.25 5.35734 7.21117 5.17531 7.13574C4.99328 7.06031 4.8279 6.94974 4.68861 6.81037C4.10368 6.22444 1.25 1.25 1.25 1.25C1.25 1.25 6.22444 4.10368 6.81037 4.68861C6.94974 4.8279 7.06031 4.99328 7.13574 5.17531C7.21117 5.35734 7.25 5.55245 7.25 5.74949C7.25 5.94653 7.21117 6.14164 7.13574 6.32367C7.06031 6.5057 6.94974 6.67109 6.81037 6.81037Z" fill="#101212"/>
<path d="M1 6.00391C1.00059 6.75523 1.17055 7.5009 1.50213 8.18383C1.9681 9.14355 2.72882 9.92906 3.6731 10.4255C4.61739 10.922 5.69572 11.1035 6.75049 10.9433C7.80525 10.7832 8.78115 10.2899 9.53553 9.53553C10.2899 8.78115 10.7832 7.80525 10.9433 6.75049C11.1035 5.69572 10.922 4.61739 10.4255 3.6731C9.92906 2.72882 9.14355 1.9681 8.18383 1.50213C7.49971 1.16997 6.75265 1.00001 6 1" stroke="#101212" stroke-width="2" stroke-linecap="round" stroke-linejoin="round"/>
</svg>
