<svg width="24" height="24" viewBox="0 0 24 24" fill="none" xmlns="http://www.w3.org/2000/svg">
<path d="M20 21.0066C20 22.1112 19.1046 23 18 23C14 23 10 23 6 23C4.89543 23 4 22.1046 4 21V3C4 1.89544 4.88961 1.00001 5.99417 1.00001C9.04807 1 14.8591 1 18.0034 1C19.108 1 20 1.88891 20 2.99348C20 7.296 20 16.852 20 21.0066Z" stroke="#101212" stroke-width="2" stroke-miterlimit="10" stroke-linecap="square"/>
<path d="M8 18C7.44772 18 7 18.4477 7 19C7 19.5523 7.44772 20 8 20V18ZM16 20C16.5523 20 17 19.5523 17 19C17 18.4477 16.5523 18 16 18V20ZM8 20H16V18H8V20Z" fill="#101212"/>
<circle cx="8.5" cy="5.5" r="1.5" fill="#101212"/>
</svg>
