<svg width="24" height="24" viewBox="0 0 24 24" fill="none" xmlns="http://www.w3.org/2000/svg">
<path fill-rule="evenodd" clip-rule="evenodd" d="M5.00005 24C3.89547 24 3.00003 23.1045 3.00005 22C3.00018 15.3333 3.00021 8.66669 3.00005 2.00006C3.00003 0.895465 3.89547 0 5.00006 0H19C20.1046 0 21 0.887975 21 1.99254V22.0064C21 23.111 20.1046 24 19 24H5.00005ZM10 5.5C10 6.32843 9.32847 7 8.50005 7C7.67162 7 7.00005 6.32843 7.00005 5.5C7.00005 4.67157 7.67162 4 8.50005 4C9.32847 4 10 4.67157 10 5.5ZM8.00005 18C7.44776 18 7.00005 18.4477 7.00005 19C7.00005 19.5523 7.44776 20 8.00005 20H16C16.5523 20 17 19.5523 17 19C17 18.4477 16.5523 18 16 18H8.00005Z" fill="#101212"/>
</svg>
