<svg width="14" height="16" viewBox="0 0 14 16" fill="none" xmlns="http://www.w3.org/2000/svg">
<path fill-rule="evenodd" clip-rule="evenodd" d="M6.99995 3.06C4.58213 3.06 2.56339 4.77678 2.09995 7.059C1.99004 7.60024 1.46218 7.9499 0.920942 7.84C0.379704 7.73009 0.030041 7.20223 0.139948 6.66099C0.788905 3.46521 3.61217 1.06 6.99995 1.06C8.9078 1.06 10.6395 1.82472 11.9013 3.062C12.2956 3.44868 12.3018 4.08181 11.9151 4.47614C11.5285 4.87048 10.8953 4.87668 10.501 4.49C9.59796 3.60448 8.3633 3.06 6.99995 3.06Z" fill="#101212"/>
<path fill-rule="evenodd" clip-rule="evenodd" d="M12.5669 -0.0211487L13.6165 6.27655L7.31885 5.22694L12.5669 -0.0211487Z" fill="#101212"/>
<path fill-rule="evenodd" clip-rule="evenodd" d="M13.0791 8.16001C13.6203 8.26994 13.9699 8.79781 13.86 9.33904C13.2111 12.5341 10.3879 14.94 7.00003 14.94C5.09218 14.94 3.36044 14.1753 2.09868 12.938C1.70435 12.5513 1.69815 11.9182 2.08483 11.5239C2.47151 11.1295 3.10464 11.1233 3.49898 11.51C4.40201 12.3955 5.63668 12.94 7.00003 12.94C9.41775 12.94 11.4366 11.2227 11.9 8.94095C12.01 8.39972 12.5378 8.05008 13.0791 8.16001Z" fill="#101212"/>
<path fill-rule="evenodd" clip-rule="evenodd" d="M0.383545 9.72342L6.68125 10.773L1.43316 16.0211L0.383545 9.72342Z" fill="#101212"/>
</svg>
