<svg width="16" height="16" viewBox="0 0 16 16" fill="none" xmlns="http://www.w3.org/2000/svg">
<path d="M5 10.6667C5.55228 10.6667 6 10.2189 6 9.66666C6 9.11437 5.55228 8.66666 5 8.66666C4.44772 8.66666 4 9.11437 4 9.66666C4 10.2189 4.44772 10.6667 5 10.6667Z" fill="#101212"/>
<path d="M11 10.6667C11.5523 10.6667 12 10.2189 12 9.66666C12 9.11437 11.5523 8.66666 11 8.66666C10.4477 8.66666 10 9.11437 10 9.66666C10 10.2189 10.4477 10.6667 11 10.6667Z" fill="#101212"/>
<path d="M8 0C3.58867 0 0 3.58867 0 8C0 12.4113 3.58867 16 8 16C12.4113 16 16 12.4113 16 8C16 3.58867 12.4113 0 8 0ZM8 14.6667C4.324 14.6667 1.33333 11.676 1.33333 8C1.354 7.33333 3.02933 6.634 4.57 6.634C4.584 6.634 4.59733 6.634 4.61133 6.634C6.29467 6.63267 8.372 6.63667 10.5307 4.98133C12.25 7.29733 14.6667 8 14.6667 8C14.6667 11.676 11.676 14.6667 8 14.6667Z" fill="#101212"/>
</svg>
