<svg width="12" height="12" viewBox="0 0 12 12" fill="none" xmlns="http://www.w3.org/2000/svg">
<path d="M8.39961 10.7231L8.24344 11.3965C7.71368 11.6161 5.8784 12.5376 4.8199 11.557C4.50449 11.2655 4.34679 10.895 4.34679 10.4461C4.34679 9.60462 4.61014 8.87112 5.08274 7.10986C5.16592 6.77747 5.268 6.34521 5.268 6.00262C5.268 5.41196 5.05518 5.25462 4.47693 5.25462C4.1947 5.25462 3.88235 5.36041 3.59961 5.47156L3.75629 4.7982C4.38659 4.52864 5.17817 4.20001 5.85645 4.20001C6.87361 4.20001 7.6213 4.73376 7.6213 5.74864C7.6213 6.04128 7.57333 6.55356 7.47227 6.90796L6.88739 9.08484C6.76695 9.52515 6.54749 10.4949 6.88637 10.7827C7.22066 11.0668 8.0102 10.9164 8.39961 10.7231Z" fill="#101212"/>
<path d="M7.08789 2.625C7.81276 2.625 8.40039 2.03737 8.40039 1.3125C8.40039 0.587626 7.81276 0 7.08789 0C6.36302 0 5.77539 0.587626 5.77539 1.3125C5.77539 2.03737 6.36302 2.625 7.08789 2.625Z" fill="#101212"/>
</svg>
