<svg width="16" height="16" viewBox="0 0 16 16" fill="none" xmlns="http://www.w3.org/2000/svg">
<path d="M1 6.14285H15" stroke="#101212" stroke-width="2" stroke-linecap="round" stroke-linejoin="round"/>
<path d="M13.6 3.35715H2.4C2.0287 3.35715 1.6726 3.50389 1.41005 3.76511C1.1475 4.02632 1 4.3806 1 4.75V13.1071C1 13.4766 1.1475 13.8308 1.41005 14.092C1.6726 14.3533 2.0287 14.5 2.4 14.5H13.6C13.9713 14.5 14.3274 14.3533 14.5899 14.092C14.8525 13.8308 15 13.4766 15 13.1071V4.75C15 4.3806 14.8525 4.02632 14.5899 3.76511C14.3274 3.50389 13.9713 3.35715 13.6 3.35715V3.35715Z" stroke="#101212" stroke-width="2" stroke-linecap="round" stroke-linejoin="round"/>
<path d="M4.7334 1.5V3.35714" stroke="#101212" stroke-width="2" stroke-linecap="round" stroke-linejoin="round"/>
<path d="M11.2666 1.5V3.35714" stroke="#101212" stroke-width="2" stroke-linecap="round" stroke-linejoin="round"/>
</svg>
