<svg width="20" height="20" viewBox="0 0 20 20" fill="none" xmlns="http://www.w3.org/2000/svg">
<path d="M9.99996 12.4545C11.3556 12.4545 12.4545 11.3556 12.4545 9.99999C12.4545 8.64438 11.3556 7.54544 9.99996 7.54544C8.64435 7.54544 7.54541 8.64438 7.54541 9.99999C7.54541 11.3556 8.64435 12.4545 9.99996 12.4545Z" stroke="#101212" stroke-width="2" stroke-linecap="round" stroke-linejoin="round"/>
<path d="M16.8402 10C16.8392 9.52866 16.7853 9.05879 16.6795 8.59845L19 6.91709L17.2899 4.08291L14.6026 5.16782C13.8749 4.52939 13.0111 4.04955 12.0709 3.76136L11.7101 1H8.28995L7.92913 3.76136C6.9889 4.04955 6.12514 4.52939 5.3974 5.16782L2.71005 4.08291L1 6.91709L3.32054 8.59845C3.10626 9.52157 3.10626 10.4784 3.32054 11.4015L1 13.0829L2.71005 15.9171L5.3974 14.8322C6.12514 15.4706 6.9889 15.9505 7.92913 16.2386L8.28995 19H11.7101L12.0709 16.2386C13.0111 15.9505 13.8749 15.4706 14.6026 14.8322L17.2899 15.9171L19 13.0829L16.6795 11.4015C16.7853 10.9412 16.8392 10.4713 16.8402 10V10Z" stroke="#101212" stroke-width="2" stroke-linecap="round" stroke-linejoin="round"/>
</svg>
