<svg width="24" height="24" viewBox="0 0 24 24" fill="none" xmlns="http://www.w3.org/2000/svg">
<path d="M22.121 10.706L12.706 1.293C12.5188 1.1057 12.2648 1.00032 12 1H2C1.73478 1 1.48043 1.10536 1.29289 1.29289C1.10536 1.48043 1 1.73478 1 2V12C1.00006 12.2652 1.10545 12.5195 1.293 12.707L10.706 22.122C10.9846 22.4006 11.3153 22.6217 11.6793 22.7724C12.0433 22.9232 12.4335 23.0009 12.8275 23.0009C13.2215 23.0009 13.6117 22.9232 13.9757 22.7724C14.3397 22.6217 14.6704 22.4006 14.949 22.122L22.121 14.95C22.3996 14.6714 22.6207 14.3407 22.7715 13.9767C22.9222 13.6127 22.9999 13.2225 22.9999 12.8285C22.9999 12.4345 22.9222 12.0443 22.7715 11.6803C22.6207 11.3163 22.3996 10.9856 22.121 10.707V10.706ZM8 10C7.60444 10 7.21776 9.8827 6.88886 9.66294C6.55996 9.44318 6.30362 9.13082 6.15224 8.76537C6.00087 8.39991 5.96126 7.99778 6.03843 7.60982C6.1156 7.22186 6.30608 6.86549 6.58579 6.58579C6.86549 6.30608 7.22186 6.1156 7.60982 6.03843C7.99778 5.96126 8.39991 6.00087 8.76537 6.15224C9.13082 6.30362 9.44318 6.55996 9.66294 6.88886C9.8827 7.21776 10 7.60444 10 8C10 8.53043 9.78929 9.03914 9.41421 9.41421C9.03914 9.78929 8.53043 10 8 10Z" fill="#101212"/>
</svg>
