<svg width="20" height="20" viewBox="0 0 20 20" fill="none" xmlns="http://www.w3.org/2000/svg">
<path d="M15 17.8173L14.6746 18.9683C13.571 19.3437 9.74747 20.9188 7.54226 19.2428C6.88517 18.7443 6.55662 18.111 6.55662 17.3436C6.55662 15.9053 7.10526 14.6514 8.08985 11.6407C8.26316 11.0725 8.47581 10.3336 8.47581 9.74801C8.47581 8.73832 8.03243 8.46938 6.82775 8.46938C6.23977 8.46938 5.58905 8.65021 5 8.84021L5.32642 7.68917C6.63955 7.22838 8.28868 6.66663 9.70175 6.66663C11.8208 6.66663 13.3785 7.57902 13.3785 9.31385C13.3785 9.8141 13.2786 10.6898 13.068 11.2956L11.8495 15.0168C11.5986 15.7694 11.1414 17.4272 11.8474 17.9191C12.5439 18.4047 14.1887 18.1477 15 17.8173Z" fill="#101212"/>
<path d="M12.5 5C13.8807 5 15 3.88071 15 2.5C15 1.11929 13.8807 0 12.5 0C11.1193 0 10 1.11929 10 2.5C10 3.88071 11.1193 5 12.5 5Z" fill="#101212"/>
</svg>
