<svg width="24" height="18" viewBox="0 0 24 18" fill="none" xmlns="http://www.w3.org/2000/svg">
<path fill-rule="evenodd" clip-rule="evenodd" d="M16.3562 16.2643C16.9726 17.0786 17.7123 18 17.7123 18C22.2534 17.85 24 14.7429 24 14.7429C23.9333 10.3987 22.9215 6.127 21.0411 2.25C19.3863 0.894613 17.3688 0.108429 15.2671 0L14.9795 0.342857C16.8504 0.86207 18.5944 1.78967 20.0959 3.06429C18.1826 1.9645 16.0815 1.26567 13.911 1.00714C12.5307 0.848522 11.1372 0.862911 9.76027 1.05C9.64286 1.05369 9.52598 1.06803 9.41096 1.09286C7.79774 1.28415 6.22358 1.73975 4.74658 2.44286C3.9863 2.80714 3.53425 3.06429 3.53425 3.06429C3.53425 3.06429 5.23972 1.37143 8.93836 0.257143L8.73288 0C6.63125 0.108429 4.61374 0.894613 2.9589 2.25C1.07845 6.127 0.0667179 10.3987 0 14.7429C0 14.7429 1.72603 17.85 6.26712 18C6.26712 18 7.0274 17.0357 7.64384 16.2214C6.19921 15.8415 4.92729 14.9471 4.04795 13.6929C4.78302 14.2007 5.56837 14.6246 6.39041 14.9571C7.36823 15.3596 8.37929 15.6681 9.41096 15.8786C11.1682 16.2306 12.973 16.2379 14.7329 15.9C15.7567 15.7133 16.7564 15.4041 17.7123 14.9786C18.5433 14.6516 19.336 14.2274 20.0753 13.7143C19.163 14.9953 17.8456 15.8986 16.3562 16.2643ZM10.9714 10.44C10.9714 11.8317 9.89687 12.96 8.57139 12.96C7.2459 12.96 6.17139 11.8317 6.17139 10.44C6.17139 9.04823 7.2459 7.91999 8.57139 7.91999C9.89687 7.91999 10.9714 9.04823 10.9714 10.44ZM15.4286 12.96C16.7541 12.96 17.8286 11.8318 17.8286 10.44C17.8286 9.04824 16.7541 7.92 15.4286 7.92C14.1031 7.92 13.0286 9.04824 13.0286 10.44C13.0286 11.8318 14.1031 12.96 15.4286 12.96Z" fill="#101212"/>
</svg>
