<svg width="12" height="12" viewBox="0 0 12 12" fill="none" xmlns="http://www.w3.org/2000/svg">
<path d="M7.75 7C7.88807 7 8 7.11193 8 7.25V11.3964C8 11.6192 7.73071 11.7307 7.57322 11.5732L6.17678 10.1768C6.07915 10.0791 5.92085 10.0791 5.82322 10.1768L4.42678 11.5732C4.26929 11.7307 4 11.6192 4 11.3964V7.25" fill="#101212"/>
<path d="M6 7C7.65685 7 9 5.65685 9 4C9 2.34315 7.65685 1 6 1C4.34315 1 3 2.34315 3 4C3 5.65685 4.34315 7 6 7Z" stroke="#101212" stroke-width="2" stroke-linecap="round" stroke-linejoin="round"/>
</svg>
