<svg width="12" height="12" viewBox="0 0 12 12" fill="none" xmlns="http://www.w3.org/2000/svg">
<g clip-path="url(#clip0_144_1118)">
<path d="M6 8C5.284 8 4.60733 7.80537 4 7.5V11.5184C4 11.7209 4.22822 11.8394 4.39386 11.7229L5.85614 10.694C5.94244 10.6333 6.05756 10.6333 6.14386 10.694L7.60614 11.7229C7.77178 11.8394 8 11.7209 8 11.5184V7.5C7.39267 7.80537 6.716 8 6 8Z" fill="#101212"/>
<path d="M6 7C7.933 7 9.5 5.433 9.5 3.5C9.5 1.567 7.933 0 6 0C4.067 0 2.5 1.567 2.5 3.5C2.5 5.433 4.067 7 6 7Z" fill="#101212"/>
</g>
<defs>
<clipPath id="clip0_144_1118">
<rect width="12" height="12" fill="white"/>
</clipPath>
</defs>
</svg>
