<svg width="20" height="20" viewBox="0 0 20 20" fill="none" xmlns="http://www.w3.org/2000/svg">
<path d="M18 0H5V3H18V0Z" fill="#101212"/>
<path d="M19.1667 4.99999H2.5C2.04083 4.99999 1.66667 4.45917 1.66667 4C1.66667 3.54083 2.04083 3 2.5 3H3.33333V1.5H2.5C1.11917 1.5 0 2.61917 0 4V16.6667C0 18.5075 1.4925 20 3.33333 20H19.1667C19.6267 20 20 19.6267 20 19.1667V5.83332C20 5.37332 19.6267 4.99999 19.1667 4.99999ZM15 14.1667C14.0792 14.1667 13.3333 13.4208 13.3333 12.5C13.3333 11.5792 14.0792 10.8333 15 10.8333C15.9208 10.8333 16.6667 11.5792 16.6667 12.5C16.6667 13.4208 15.9208 14.1667 15 14.1667Z" fill="#101212"/>
</svg>
