<svg width="20" height="20" viewBox="0 0 20 20" fill="none" xmlns="http://www.w3.org/2000/svg">
<path d="M5 2.63635H2.6C1.716 2.63635 1 3.36863 1 4.27272C1 5.17681 1.716 5.90908 2.6 5.90908" stroke="#101212" stroke-width="2" stroke-linecap="round" stroke-linejoin="round"/>
<path d="M6 5.90909V1H17V5.90909" stroke="#101212" stroke-width="2" stroke-linecap="round" stroke-linejoin="round"/>
<path d="M19 5.90907H2.63636C1.73227 5.90907 1 5.1768 1 4.27271V16.5454C1 17.9012 2.09882 19 3.45455 19H19V5.90907Z" stroke="#101212" stroke-width="2" stroke-linecap="round" stroke-linejoin="round"/>
<path d="M13.75 14.5C14.7165 14.5 15.5 13.7165 15.5 12.75C15.5 11.7835 14.7165 11 13.75 11C12.7835 11 12 11.7835 12 12.75C12 13.7165 12.7835 14.5 13.75 14.5Z" stroke="#101212" stroke-width="2" stroke-linecap="round" stroke-linejoin="round"/>
</svg>
