<svg width="24" height="24" viewBox="0 0 24 24" fill="none" xmlns="http://www.w3.org/2000/svg">
<g clip-path="url(#clip0_258_349)">
<path fill-rule="evenodd" clip-rule="evenodd" d="M23.669 6.37242C24.126 6.85233 24.1075 7.6119 23.6276 8.06897L13.5476 17.669C13.0841 18.1103 12.3559 18.1103 11.8924 17.669L6.96 12.9714L2.02759 17.669C1.54767 18.126 0.7881 18.1075 0.331037 17.6276C-0.126027 17.1477 -0.1075 16.3881 0.372416 15.931L6.13242 10.4453C6.59586 10.0039 7.32414 10.0039 7.78759 10.4453L12.72 15.1429L21.9724 6.33104C22.4523 5.87397 23.2119 5.8925 23.669 6.37242Z" fill="#101212"/>
<path fill-rule="evenodd" clip-rule="evenodd" d="M13.2681 7.49526C13.0713 7.30665 12.9398 7.03761 13.0347 6.78206C13.2044 6.32538 13.6442 6 14.16 6H22.8C23.4627 6 24 6.53726 24 7.2V15.4286C24 15.9531 23.6634 16.3991 23.1944 16.5622C22.9509 16.647 22.696 16.529 22.5099 16.3506L13.2681 7.49526Z" fill="#101212"/>
</g>
<defs>
<clipPath id="clip0_258_349">
<rect width="24" height="24" fill="white"/>
</clipPath>
</defs>
</svg>
