<svg width="16" height="16" viewBox="0 0 16 16" fill="none" xmlns="http://www.w3.org/2000/svg">
<path d="M13.3202 8C13.3194 7.6334 13.2775 7.26794 13.1951 6.90991L15 5.60218L13.67 3.39782L11.5798 4.24164C11.0138 3.74508 10.342 3.37187 9.61068 3.14773L9.33004 1H6.66996L6.38932 3.14773C5.65803 3.37187 4.98622 3.74508 4.4202 4.24164L2.33004 3.39782L1 5.60218L2.80486 6.90991C2.63821 7.62789 2.63821 8.37211 2.80486 9.09009L1 10.3978L2.33004 12.6022L4.4202 11.7584C4.98622 12.2549 5.65803 12.6281 6.38932 12.8523L6.66996 15H9.33004L9.61068 12.8523C10.342 12.6281 11.0138 12.2549 11.5798 11.7584L13.67 12.6022L15 10.3978L13.1951 9.09009C13.2775 8.73206 13.3194 8.3666 13.3202 8V8Z" stroke="#101212" stroke-width="2" stroke-linecap="round" stroke-linejoin="round"/>
<path fill-rule="evenodd" clip-rule="evenodd" d="M6 8C6 6.89543 6.89543 6 8 6C9.10457 6 10 6.89543 10 8C10 9.10457 9.10457 10 8 10C6.89543 10 6 9.10457 6 8Z" fill="#101212"/>
</svg>
