<svg width="16" height="16" viewBox="0 0 16 16" fill="none" xmlns="http://www.w3.org/2000/svg">
<path fill-rule="evenodd" clip-rule="evenodd" d="M14.3849 8C14.3825 8.32466 14.3521 8.64861 14.2941 8.96867L15.7832 10.32C15.897 10.4233 15.9707 10.5595 15.9927 10.7067C16.0147 10.854 15.9836 11.0039 15.9045 11.1327L14.8404 12.866C14.778 12.9674 14.6884 13.0517 14.5804 13.1102C14.4724 13.1687 14.3499 13.1994 14.2253 13.1993C14.1594 13.1991 14.0938 13.1905 14.0302 13.174L12.0438 12.6407C11.5069 13.0521 10.9024 13.3788 10.254 13.608L9.7524 15.4947C9.71411 15.639 9.62557 15.7671 9.50088 15.8586C9.37619 15.9502 9.22251 16 9.06426 16H6.936C6.77821 15.9996 6.62509 15.9497 6.50085 15.8583C6.3766 15.7669 6.28833 15.6392 6.24999 15.4953L5.74843 13.6087C5.099 13.3797 4.49353 13.053 3.95572 12.6413L1.96934 13.1747C1.90579 13.1912 1.84019 13.1997 1.77425 13.2C1.6496 13.2001 1.52712 13.1694 1.41915 13.1108C1.31117 13.0523 1.2215 12.9681 1.15918 12.8667L0.0950494 11.1333C0.0161113 11.0046 -0.0148238 10.8548 0.00715359 10.7077C0.029131 10.5606 0.102762 10.4246 0.21636 10.3213L1.70615 8.96867C1.64814 8.64861 1.61777 8.32466 1.61534 8C1.61781 7.67556 1.64818 7.35184 1.70615 7.032L0.21636 5.67933C0.102595 5.57599 0.0288607 5.43987 0.00687979 5.29262C-0.0151011 5.14537 0.0159335 4.99544 0.0950494 4.86667L1.15918 3.13333C1.2393 3.00519 1.36228 2.90556 1.50895 2.84997C1.65562 2.79438 1.81775 2.78595 1.97005 2.826L3.95643 3.35933C4.49337 2.94793 5.09787 2.62123 5.7463 2.392L6.24786 0.505333C6.28615 0.361045 6.37469 0.232932 6.49938 0.141366C6.62407 0.0498009 6.77775 4.1082e-05 6.936 0H9.06426C9.22251 4.1082e-05 9.37619 0.0498009 9.50088 0.141366C9.62557 0.232932 9.71411 0.361045 9.7524 0.505333L10.2511 2.392C10.9006 2.62098 11.506 2.94768 12.0438 3.35933L14.0302 2.826C14.1825 2.78583 14.3447 2.7942 14.4914 2.84981C14.6381 2.90541 14.7611 3.00511 14.8411 3.13333L15.9052 4.86667C15.9841 4.99537 16.0151 5.14516 15.9931 5.29227C15.9711 5.43937 15.8975 5.57537 15.7839 5.67867L14.2941 7.03133C14.3521 7.35139 14.3825 7.67534 14.3849 8ZM7.99987 5.33333C6.52711 5.33333 5.3332 6.52723 5.3332 7.99999C5.3332 9.47275 6.52711 10.6667 7.99987 10.6667C9.47263 10.6667 10.6665 9.47275 10.6665 7.99999C10.6665 6.52723 9.47263 5.33333 7.99987 5.33333Z" fill="#101212"/>
</svg>
