<svg width="24" height="18" viewBox="0 0 24 18" fill="none" xmlns="http://www.w3.org/2000/svg">
<path d="M1.37267 10.183C1.1301 9.8362 1 9.42321 1 9C1 8.57679 1.1301 8.1638 1.37267 7.817C2.94567 5.59 6.81867 1 11.9997 1C17.1807 1 21.0537 5.59 22.6267 7.817C22.8692 8.1638 22.9993 8.57679 22.9993 9C22.9993 9.42321 22.8692 9.8362 22.6267 10.183C21.0537 12.41 17.1807 17 11.9997 17C6.81867 17 2.94567 12.41 1.37267 10.183Z" stroke="#101212" stroke-width="2" stroke-linecap="round" stroke-linejoin="round"/>
<path d="M11.9995 13C14.2087 13 15.9995 11.2091 15.9995 9C15.9995 6.79086 14.2087 5 11.9995 5C9.79037 5 7.99951 6.79086 7.99951 9C7.99951 11.2091 9.79037 13 11.9995 13Z" stroke="#101212" stroke-width="2" stroke-linecap="round" stroke-linejoin="round"/>
</svg>
