<svg width="24" height="18" viewBox="0 0 24 18" fill="none" xmlns="http://www.w3.org/2000/svg">
<path d="M12 0.818176C6.54545 0.818176 1.88727 4.2109 0 8.99999C1.88727 13.7891 6.54545 17.1818 12 17.1818C17.4545 17.1818 22.1127 13.7891 24 8.99999C22.1127 4.2109 17.4545 0.818176 12 0.818176ZM12 14.4545C8.98909 14.4545 6.54545 12.0109 6.54545 8.99999C6.54545 5.98909 8.98909 3.54545 12 3.54545C15.0109 3.54545 17.4545 5.98909 17.4545 8.99999C17.4545 12.0109 15.0109 14.4545 12 14.4545ZM12 5.72727C10.1891 5.72727 8.72727 7.18909 8.72727 8.99999C8.72727 10.8109 10.1891 12.2727 12 12.2727C13.8109 12.2727 15.2727 10.8109 15.2727 8.99999C15.2727 7.18909 13.8109 5.72727 12 5.72727Z" fill="#101212"/>
</svg>
