<svg width="16" height="16" viewBox="0 0 16 16" fill="none" xmlns="http://www.w3.org/2000/svg">
<g clip-path="url(#clip0_803_348)">
<path d="M8 0C3.6 0 0 3.6 0 8C0 12.4 3.6 16 8 16C12.4 16 16 12.4 16 8C16 3.6 12.4 0 8 0ZM8 14C6.5 14 5.2 13.5 4.1 12.6C4.7 11.8 4.8 10.8 4.2 10C3.7 9.3 2.9 8.6 2.9 8C2.9 7.2 4.8 6.9 5.4 6.1C6.1 5.3 5.4 3.8 4.7 3C5.5 2.5 6.4 2.1 7.5 2C7.7 2.5 8.4 3.1 8.7 3.5C9.2 4.3 9.3 4.8 10 4.8C10.2 4.8 12 4.8 13 4.5C13.6 5.5 14 6.7 14 8C14 11.3 11.3 14 8 14Z" fill="#101212"/>
<path d="M9.74554 7C8.79297 7 7.91979 7.61361 7.99917 8.45732C8.23731 10.3748 7.60226 11.0651 8.47545 11.4487C9.5074 11.8322 11.5713 9.99134 11.4919 8.45732C11.4919 7.61361 10.7775 7 9.74554 7Z" stroke="#101212" stroke-width="2"/>
</g>
<defs>
<clipPath id="clip0_803_348">
<rect width="16" height="16" fill="white"/>
</clipPath>
</defs>
</svg>
