<svg width="16" height="16" viewBox="0 0 16 16" fill="none" xmlns="http://www.w3.org/2000/svg">
<g clip-path="url(#clip0_803_352)">
<path d="M8 0C3.6 0 0 3.6 0 8C0 12.4 3.6 16 8 16C12.4 16 16 12.4 16 8C16 3.6 12.4 0 8 0ZM8 14C6.5 14 5.2 13.5 4.1 12.6C4.7 11.8 4.8 10.8 4.2 10C3.7 9.3 2.9 8.6 2.9 8C2.9 7.2 4.8 6.9 5.4 6.1C6.1 5.3 5.4 3.8 4.7 3C5.5 2.5 6.4 2.1 7.5 2C7.7 2.5 8.4 3.1 8.7 3.5C9.2 4.3 9.3 4.8 10 4.8C10.2 4.8 12 4.8 13 4.5C13.6 5.5 14 6.7 14 8C14 11.3 11.3 14 8 14Z" fill="#101212"/>
<path d="M10.2005 6.70001C9.00047 6.70001 7.90047 7.50001 8.00047 8.60001C8.30047 11.1 7.50047 12 8.60047 12.5C9.90047 13 12.5005 10.6 12.4005 8.60001C12.4005 7.50001 11.5005 6.70001 10.2005 6.70001Z" fill="#101212"/>
</g>
<defs>
<clipPath id="clip0_803_352">
<rect width="16" height="16" fill="white"/>
</clipPath>
</defs>
</svg>
