<svg width="16" height="16" viewBox="0 0 16 16" fill="none" xmlns="http://www.w3.org/2000/svg">
<path d="M8 4.5L7.03704 4.76963C7.15795 5.20146 7.55156 5.5 8 5.5C8.44844 5.5 8.84205 5.20146 8.96296 4.76963L8 4.5ZM8 14L7.62861 14.9285C7.86702 15.0238 8.13298 15.0238 8.37139 14.9285L8 14ZM4.5 3C5.55409 3 6.16423 3.45263 6.5343 3.89319C6.72788 4.12366 6.85895 4.35709 6.94069 4.53226C6.98109 4.61882 7.00801 4.68808 7.02357 4.7313C7.03131 4.75281 7.03613 4.76755 7.0383 4.77439C7.03938 4.7778 7.03979 4.77921 7.03957 4.77847C7.03946 4.7781 7.03919 4.77719 7.03877 4.77573C7.03856 4.77499 7.03831 4.77412 7.03802 4.77311C7.03787 4.7726 7.03772 4.77205 7.03755 4.77148C7.03747 4.77119 7.03734 4.77072 7.0373 4.77058C7.03717 4.77011 7.03704 4.76963 8 4.5C8.96296 4.23037 8.96282 4.22987 8.96268 4.22936C8.96263 4.22918 8.96248 4.22866 8.96238 4.2283C8.96217 4.22757 8.96196 4.22679 8.96173 4.22598C8.96127 4.22436 8.96076 4.22258 8.9602 4.22065C8.95908 4.21678 8.95776 4.21228 8.95624 4.20718C8.9532 4.19698 8.94934 4.18435 8.94461 4.16945C8.93516 4.13967 8.92221 4.10071 8.90534 4.05386C8.87168 3.96036 8.82204 3.83431 8.75306 3.68649C8.61605 3.39291 8.39712 3.00134 8.0657 2.60681C7.38577 1.79737 6.24591 1 4.5 1V3ZM2 6C2 5.32902 2.11725 4.54564 2.47666 3.9616C2.78931 3.45354 3.33692 3 4.5 3V1C2.66308 1 1.46069 1.79646 0.773342 2.9134C0.132753 3.95436 0 5.17098 0 6H2ZM8.37139 13.0715C7.22414 12.6126 5.58704 11.6777 4.25372 10.4024C2.91124 9.11824 2 7.6122 2 6H0C0 8.3878 1.33876 10.3818 2.87128 11.8476C4.41296 13.3223 6.27586 14.3874 7.62861 14.9285L8.37139 13.0715ZM8.37139 14.9285C9.72414 14.3874 11.587 13.3223 13.1287 11.8476C14.6612 10.3818 16 8.3878 16 6H14C14 7.6122 13.0888 9.11824 11.7463 10.4024C10.413 11.6777 8.77586 12.6126 7.62861 13.0715L8.37139 14.9285ZM16 6C16 5.17098 15.8672 3.95436 15.2267 2.9134C14.5393 1.79646 13.3369 1 11.5 1V3C12.6631 3 13.2107 3.45354 13.5233 3.9616C13.8828 4.54564 14 5.32902 14 6H16ZM11.5 1C9.75409 1 8.61423 1.79737 7.9343 2.60681C7.60288 3.00134 7.38395 3.39291 7.24694 3.68649C7.17796 3.83431 7.12832 3.96036 7.09466 4.05386C7.07779 4.10071 7.06484 4.13967 7.05539 4.16945C7.05066 4.18435 7.0468 4.19698 7.04376 4.20718C7.04224 4.21228 7.04092 4.21678 7.0398 4.22065C7.03924 4.22258 7.03873 4.22436 7.03827 4.22598C7.03804 4.22679 7.03783 4.22757 7.03762 4.2283C7.03752 4.22866 7.03737 4.22918 7.03732 4.22936C7.03718 4.22987 7.03704 4.23037 8 4.5C8.96296 4.76963 8.96283 4.77011 8.9627 4.77058C8.96266 4.77072 8.96253 4.77119 8.96245 4.77148C8.96228 4.77205 8.96213 4.7726 8.96198 4.77311C8.96169 4.77412 8.96144 4.77499 8.96123 4.77573C8.96081 4.77719 8.96054 4.7781 8.96043 4.77847C8.96021 4.77921 8.96062 4.7778 8.9617 4.77439C8.96387 4.76755 8.96869 4.75281 8.97643 4.7313C8.99199 4.68808 9.01891 4.61882 9.05931 4.53226C9.14105 4.35709 9.27211 4.12366 9.4657 3.89319C9.83577 3.45263 10.4459 3 11.5 3V1Z" fill="#101212"/>
</svg>
