<svg width="24" height="24" viewBox="0 0 24 24" fill="none" xmlns="http://www.w3.org/2000/svg">
<g clip-path="url(#clip0_709_120614)">
<path fill-rule="evenodd" clip-rule="evenodd" d="M16.3562 19.2643C16.9726 20.0786 17.7123 21 17.7123 21C22.2534 20.85 24 17.7429 24 17.7429C23.9333 13.3987 22.9215 9.127 21.0411 5.25C19.3863 3.89461 17.3688 3.10843 15.2671 3L14.9795 3.34286C16.8504 3.86207 18.5944 4.78967 20.0959 6.06429C18.1826 4.9645 16.0815 4.26567 13.911 4.00714C12.5307 3.84852 11.1372 3.86291 9.76027 4.05C9.64286 4.05369 9.52598 4.06803 9.41096 4.09286C7.79774 4.28415 6.22358 4.73975 4.74658 5.44286C3.9863 5.80714 3.53425 6.06429 3.53425 6.06429C3.53425 6.06429 5.23972 4.37143 8.93836 3.25714L8.73288 3C6.63125 3.10843 4.61374 3.89461 2.9589 5.25C1.07845 9.127 0.0667179 13.3987 0 17.7429C0 17.7429 1.72603 20.85 6.26712 21C6.26712 21 7.0274 20.0357 7.64384 19.2214C6.19921 18.8415 4.92729 17.9471 4.04795 16.6929C4.78302 17.2007 5.56837 17.6246 6.39041 17.9571C7.36823 18.3596 8.37929 18.6681 9.41096 18.8786C11.1682 19.2306 12.973 19.2379 14.7329 18.9C15.7567 18.7133 16.7564 18.4041 17.7123 17.9786C18.5433 17.6516 19.336 17.2274 20.0753 16.7143C19.163 17.9953 17.8456 18.8986 16.3562 19.2643ZM10.9714 13.44C10.9714 14.8317 9.89687 15.96 8.57139 15.96C7.2459 15.96 6.17139 14.8317 6.17139 13.44C6.17139 12.0482 7.2459 10.92 8.57139 10.92C9.89687 10.92 10.9714 12.0482 10.9714 13.44ZM15.4286 15.96C16.7541 15.96 17.8286 14.8318 17.8286 13.44C17.8286 12.0482 16.7541 10.92 15.4286 10.92C14.1031 10.92 13.0286 12.0482 13.0286 13.44C13.0286 14.8318 14.1031 15.96 15.4286 15.96Z" fill="#101212"/>
</g>
<defs>
<clipPath id="clip0_709_120614">
<rect width="24" height="24" fill="white"/>
</clipPath>
</defs>
</svg>
