<svg width="24" height="24" viewBox="0 0 24 24" fill="none" xmlns="http://www.w3.org/2000/svg">
<path d="M22.176 3.87318C21.8288 4.31266 21.4086 4.69157 20.9428 4.97106L21.2498 5.89732C21.6413 5.85816 22.0172 5.79044 22.3819 5.70011C22.0218 6.05974 21.6353 6.39479 21.2133 6.69019L21 6.83948V7.0998V7.10098V7.10215V7.10332V7.10449V7.10566V7.10684V7.10801V7.10918V7.11035V7.11152V7.1127V7.11387V7.11504V7.11621V7.11738V7.11856V7.11973V7.1209V7.12207V7.12324V7.12441V7.12559V7.12676V7.12793V7.1291V7.13027V7.13145V7.13262V7.13379V7.13496V7.13613V7.1373V7.13848V7.13965V7.14082V7.14199V7.14316V7.14434V7.14551V7.14668V7.14785V7.14902V7.1502V7.15137V7.15254V7.15371V7.15488V7.15605V7.15723V7.1584V7.15957V7.16074V7.16191V7.16309V7.16426V7.16543V7.1666V7.16777V7.16895V7.17012V7.17129V7.17246V7.17363V7.1748V7.17598V7.17715V7.17832V7.17949V7.18066V7.18184V7.18301V7.18418V7.18535V7.18652V7.1877V7.18887V7.19004V7.19121V7.19238V7.19355V7.19473V7.1959V7.19707V7.19824V7.19941V7.20059V7.20176V7.20293V7.2041V7.20527V7.20645V7.20762V7.20879V7.20996V7.21113V7.2123V7.21348V7.21465V7.21582V7.21699V7.21816V7.21934V7.22051V7.22168V7.22285V7.22402V7.2252V7.22637V7.22754V7.22871V7.22988V7.23105V7.23223V7.2334V7.23457V7.23574V7.23691V7.23809V7.23926V7.24043V7.2416V7.24277V7.24395V7.24512V7.24629V7.24746V7.24863V7.2498V7.25098V7.25215V7.25332V7.25449V7.25566V7.25684V7.25801V7.25918V7.26035V7.26152V7.2627V7.26387V7.26504V7.26621V7.26738V7.26855V7.26973V7.2709V7.27207V7.27324V7.27441V7.27559V7.27676V7.27793V7.2791V7.28027V7.28145V7.28262V7.28379V7.28496V7.28613V7.2873V7.28848V7.28965V7.29082V7.29199V7.29316V7.29434V7.29551V7.29668V7.29785V7.29902V7.3002V7.30137V7.30254V7.30371V7.30488V7.30605V7.30723V7.3084V7.30957V7.31074V7.31191V7.31309V7.31426V7.31543V7.3166V7.31777V7.31895V7.32012V7.32129V7.32246V7.32363V7.3248V7.32598V7.32715V7.32832V7.32949V7.33066V7.33184V7.33301V7.33418V7.33535V7.33652V7.3377V7.33887V7.34004V7.34121V7.34238V7.34355V7.34473V7.3459V7.34707V7.34824V7.34941V7.35059V7.35176V7.35293V7.3541V7.35527V7.35645V7.35762V7.35879V7.35996V7.36113V7.3623V7.36348V7.36465V7.36582V7.36699V7.36816V7.36934V7.37051V7.37168V7.37285V7.37402V7.3752V7.37637V7.37754V7.37871V7.37988V7.38105V7.38223V7.3834V7.38457V7.38574V7.38691V7.38809V7.38926V7.39043V7.3916V7.39277V7.39395V7.39512V7.39629V7.39746V7.39863V7.3998V7.40098V7.40215V7.40332V7.40449V7.40566V7.40684V7.40801V7.40918V7.41035V7.41152V7.4127V7.41387V7.41504V7.41621V7.41738V7.41855V7.41973V7.4209V7.42207V7.42324V7.42441V7.42559V7.42676V7.42793V7.4291V7.43027V7.43145V7.43262V7.43379V7.43496V7.43613V7.4373V7.43848V7.43965V7.44082V7.44199V7.44316V7.44434V7.44551V7.44668V7.44785V7.44902V7.4502V7.45137V7.45254V7.45371V7.45488V7.45605V7.45723V7.4584V7.45957V7.46074V7.46191V7.46309V7.46426V7.46543V7.4666V7.46777V7.46895V7.47012V7.47129V7.47246V7.47363V7.4748V7.47598V7.47715V7.47832V7.47949V7.48066V7.48184V7.48301V7.48418V7.48535V7.48652V7.4877V7.48887V7.49004V7.49121V7.49238V7.49355V7.49473V7.4959V7.49707V7.49824V7.49941V7.50059V7.50176V7.50293V7.5041V7.50527V7.50644V7.50762V7.50879V7.50996V7.51113V7.5123V7.51348V7.51465V7.51582V7.51699V7.51816V7.51934V7.52051V7.52168V7.52285V7.52402V7.5252V7.52637V7.52754V7.52871V7.52988V7.53105V7.53223V7.5334V7.53457V7.53574V7.53691V7.53809V7.53926V7.54043V7.5416V7.54277V7.54395V7.54512V7.54629V7.54746V7.54863V7.5498V7.55098V7.55215V7.55332V7.55449V7.55566V7.55684V7.55801V7.55918V7.56035V7.56152V7.5627V7.56387V7.56504V7.56621V7.56738V7.56855V7.56973V7.5709V7.57207V7.57324V7.57441V7.57559V7.57676V7.57793V7.5791V7.58027V7.58145V7.58262V7.58379V7.58496V7.58613V7.5873V7.58848V7.58965V7.59082V7.59199V7.59316V7.59434V7.59551V7.59668V7.59785V7.59902V7.60019V7.60137V7.60254V7.60371V7.60488V7.60605V7.60723V7.6084V7.60957V7.61074V7.61191V7.61309V7.61426V7.61543V7.6166V7.61777V7.61895V7.62012V7.62129V7.62246V7.62363V7.6248V7.62598V7.62715V7.62832V7.62949V7.63066V7.63184V7.63301V7.63418V7.63535V7.63652V7.63769V7.63887V7.64004V7.64121V7.64238V7.64355V7.64473V7.6459V7.64707V7.64824V7.64941V7.65059V7.65176V7.65293V7.6541V7.65527V7.65645V7.65762V7.65879V7.65996V7.66113V7.6623V7.66348V7.66465V7.66582V7.66699V7.66816V7.66934V7.67051V7.67168V7.67285V7.67402V7.67519V7.67637V7.67754V7.67871V7.67988V7.68105V7.68223V7.6834V7.68457V7.68574V7.68691V7.68809V7.68926V7.69043V7.6916V7.69277V7.69394V7.69512V7.69629V7.69746V7.69863V7.6998C21 13.9862 16.2653 21.1998 7.5 21.1998C5.61671 21.1998 3.7826 20.7957 2.10796 20.06C4.17056 19.8783 6.04948 19.0855 7.60373 17.897L8.77696 16.9998H7.3C5.61067 16.9998 4.19062 16.0847 3.47829 14.6997C3.51152 14.6998 3.54383 14.6998 3.57513 14.6998C3.58349 14.6998 3.59178 14.6998 3.6 14.6998C4.16173 14.6998 4.61199 14.5872 5.00704 14.4884L5.02127 14.4849L4.98944 13.5079C3.25741 13.193 1.85755 11.7556 1.55894 9.92874C2.07805 10.1123 2.64479 10.1998 3.2 10.1998H4.80063L3.48461 9.28871C2.30499 8.47205 1.5 7.11884 1.5 5.5998C1.5 5.0231 1.58918 4.50096 1.799 3.99247C4.27242 6.7753 7.80304 8.60528 11.8762 8.79924L12.6051 8.83395L12.3743 8.14169C12.3056 7.93546 12.3 7.62816 12.3 7.1998C12.3 4.77595 14.2761 2.7998 16.7 2.7998C17.9561 2.7998 19.1217 3.338 19.9284 4.23429L20.115 4.44164L20.3894 4.39174C21.0114 4.27865 21.602 4.10531 22.176 3.87318Z" fill="#101212" stroke="#101212"/>
</svg>
