<svg width="16" height="16" viewBox="0 0 16 16" fill="none" xmlns="http://www.w3.org/2000/svg">
<path d="M16 8.04866C16.0003 6.51078 15.5625 5.00501 14.7385 3.70965C13.9144 2.41428 12.7385 1.38357 11.3501 0.73956C9.96173 0.0955497 8.41893 -0.134788 6.90442 0.0758197C5.38991 0.286428 3.96712 0.92916 2.80451 1.92791C1.6419 2.92667 0.788165 4.23961 0.344396 5.71128C-0.0993733 7.18296 -0.114591 8.75172 0.300544 10.2318C0.71568 11.7119 1.54378 13.0414 2.68679 14.0628C3.82981 15.0841 5.23986 15.7547 6.75 15.995V10.3742H4.719V8.04866H6.75V6.27532C6.70627 5.86136 6.7536 5.44278 6.88863 5.04927C7.02366 4.65575 7.24309 4.29693 7.53136 3.99823C7.81964 3.69953 8.1697 3.46827 8.55674 3.32083C8.94379 3.17339 9.35833 3.11339 9.771 3.14508C10.371 3.153 10.9696 3.20545 11.562 3.30199V5.28455H10.554C10.3823 5.26196 10.2077 5.2785 10.0432 5.33294C9.87874 5.38739 9.72853 5.47834 9.6037 5.59907C9.47887 5.7198 9.38263 5.86721 9.3221 6.03041C9.26157 6.19361 9.23829 6.36841 9.254 6.54187V8.05067H11.473L11.118 10.3762H9.25V16C11.1322 15.7005 12.8464 14.735 14.0838 13.2773C15.3213 11.8196 16.0008 9.96547 16 8.04866Z" fill="#101212"/>
</svg>
