<svg width="20" height="20" viewBox="0 0 20 20" fill="none" xmlns="http://www.w3.org/2000/svg">
<path fill-rule="evenodd" clip-rule="evenodd" d="M5.53097 3.38536C5.87041 3.82102 5.79242 4.44936 5.35676 4.78881C3.61277 6.14766 2.5 8.24688 2.5 10.6C2.5 14.6758 5.84667 18 10 18C14.1533 18 17.5 14.6758 17.5 10.6C17.5 8.24688 16.3872 6.14766 14.6432 4.78881C14.2076 4.44936 14.1296 3.82102 14.469 3.38536C14.8085 2.94971 15.4368 2.87172 15.8725 3.21116C18.0773 4.92911 19.5 7.59869 19.5 10.6C19.5 15.8026 15.2355 20 10 20C4.76448 20 0.5 15.8026 0.5 10.6C0.5 7.59869 1.92266 4.92911 4.12752 3.21116C4.56318 2.87172 5.19152 2.94971 5.53097 3.38536Z" fill="#101212"/>
<path fill-rule="evenodd" clip-rule="evenodd" d="M10 0C10.5523 0 11 0.50368 11 1.125V7.875C11 8.49632 10.5523 9 10 9C9.44772 9 9 8.49632 9 7.875V1.125C9 0.50368 9.44772 0 10 0Z" fill="#101212"/>
</svg>
