<svg width="20" height="20" viewBox="0 0 20 20" fill="none" xmlns="http://www.w3.org/2000/svg">
<path d="M11.7936 17.531L17.5311 11.7934C17.6798 11.6448 17.7977 11.4684 17.8781 11.2742C17.9586 11.0801 18 10.872 18 10.6618C18 10.4516 17.9586 10.2435 17.8781 10.0493C17.7977 9.85518 17.6798 9.67877 17.5311 9.53019L9.99997 1.99982H2V9.99979L9.53037 17.5318C9.67901 17.6804 9.85546 17.7982 10.0497 17.8786C10.2438 17.959 10.452 18.0003 10.6621 18.0002C10.8723 18.0001 11.0804 17.9587 11.2745 17.8781C11.4687 17.7976 11.645 17.6797 11.7936 17.531V17.531Z" stroke="#101212" stroke-width="2" stroke-linecap="round" stroke-linejoin="round"/>
<path d="M7.25 9C8.2165 9 9 8.2165 9 7.25C9 6.2835 8.2165 5.5 7.25 5.5C6.2835 5.5 5.5 6.2835 5.5 7.25C5.5 8.2165 6.2835 9 7.25 9Z" stroke="#101212" stroke-width="2" stroke-linecap="round" stroke-linejoin="round"/>
</svg>
