<svg xmlns="http://www.w3.org/2000/svg" xmlns:xlink="http://www.w3.org/1999/xlink" viewBox="0 0 640 640">
	<defs>
		<style>
		  :root { --color: #202222; }
			@media (prefers-color-scheme: light) { :root { --color: #202222; } }
			@media (prefers-color-scheme: dark) { :root { --color: #f1f3ee; } }
			
			.j {
				fill: url(#d);
			}

			.k {
				fill: var(--color);
			}
		</style>
		<radialGradient id="d" cx="23.3" cy="304.8" fx="23.3" fy="304.8" r="422.2" gradientTransform="matrix(1, 0, 0, 1, 0, 0)" gradientUnits="userSpaceOnUse">
			<stop offset=".3" stop-color="#c2b6dc" />
			<stop offset=".5" stop-color="#b4f08d" />
			<stop offset=".6" stop-color="#b4f08d" />
			<stop offset=".9" stop-color="#1acc6c" />
		</radialGradient>
	</defs>
	<g id="b">
		<g id="c">
			<path class="j" d="M217.4,137.2c-2.6-5.7-6.6-10.3-11.9-13.7-4.1-2.7-8.5-5.1-12.8-7.4-3.8-2-8.1-2.9-12.4-2.2-5.3,.8-10.5,2-15.7,3.3-2,.5-4,1.4-5.7,2.5-11.9,7.3-19.5,17.5-21.5,31.6-.9,6.8-.8,13.6,2,19.9,1.7,3.8,3.7,7.5,5.7,11.1,3.5,6.3,7.8,12.1,12.9,17.2,8.5,8.4,18.7,10.9,30.4,8.5,10.7-2.2,19.1-7.8,24.8-17,3.4-5.4,5.9-11.3,7.7-14.7,2.6-9.8,4.6-17,2.4-24.4-1.5-5-3.6-9.9-5.8-14.7Zm-39.8-56.5c-40.2,2.7-76.5,32.8-78.2,79.5-1.6,45,35.2,82.7,79.6,82.6,43.5,.2,81.3-32.9,81.6-79.1,.3-45.4-33-82.1-83-83Zm52.9,96.9c-5,11.3-10.9,21.1-20.3,28.4-5,3.9-10.6,6.4-16.8,7.8-7.8,1.8-15.5,2.5-23.4,1.5-10.3-1.4-18.4-6.7-24.8-14.6-6.7-8.3-11.7-17.7-15.6-27.7-2.2-5.6-2.9-11.5-2.4-17.5,.8-9.5,3.2-18.5,9.1-26,3.2-4,7.2-7.5,11.1-10.9,2.4-2,5.1-3.7,7.9-5.1,2.7-1.4,5.6-2.6,8.6-3.3,6-1.3,12.1-2.4,18.2-3.2,2.8-.3,5.7,.2,8.5,.5,6.8,.7,12.6,4,18.2,7.8,6.2,4.1,12.3,8.4,16.2,14.9,2.3,3.8,4.4,7.8,5.8,12,1.6,4.9,2.8,10.1,3.4,15.2,.8,7.3-1.7,14-3.8,20.2Z" />
		</g>
		<g id="e">
			<path class="k" d="M268.5,133.5c-3.3-.2-3.9-.9-2.9-4.3,3.5-11.7,6.6-23.5,12.2-34.4,1-1.9,1.2-4.1,1.9-6.1,1.6-4.8,6.5-5.7,10.7-3.6,.6,.3,1.1,1.8,.8,2.4-3.4,8.8-6.9,17.5-10.4,26.2-2.3,5.6-4.6,11.1-6.8,16.7-1.1,2.7-3.1,3.3-5.6,3.2Z" />
			<path class="k" d="M272.2,142.3c5.1-6,10-11.9,15.1-17.7,6.6-7.4,13.3-14.8,20-22.1,1.6-1.8,3.5-3.3,5.4-4.8,1.7-1.3,5.9-1.3,7.7,0,.9,.7,1.7,1.4,.3,2.8-9,9.2-17.8,18.5-26.7,27.7-4.8,5-9.7,9.9-14.6,14.7-1.7,1.7-5.1,1.4-7.2-.5Z" />
			<path class="k" d="M340.5,128.7c-1.8,1-3.4,2-5.1,2.8-13.5,6.3-26.9,12.7-40.5,18.9-2.1,1-4.5,1.4-6.7,1.7-.9,.2-1.9-.4-2.9-.7,.6-.9,.9-2.2,1.8-2.7,2.5-1.5,5.2-2.8,7.9-4.1,12-5.8,24-11.7,36.1-17.5,3.7-1.8,6.9-1.4,9.5,1.6Z" />
		</g>
		<g id="f">
			<path class="k" d="M290.8,173.6c-2.5,1-5.1,1.9-7.5,3.1-10.3,5-19.2,11.8-25.4,21.7-5.1,8.1-4.9,16.2-.2,24.4,5.2,9.1,12.6,15.9,21.5,21,14,8,28.1,15.9,42.7,22.9,11.3,5.4,23.3,9.3,35.9,10.9,3.9,.5,7.9,.4,11.8,.7,2.3,.1,4.7,.3,6.3,2.6-2,2.7-5.1,2.6-7.7,3.1-16.2,2.6-31.3,8.3-45.2,16.8-9.6,5.8-18.8,12.4-27.7,19.2-12.1,9.3-22.8,20.2-32.5,32.2-11.9,14.7-19.9,31.5-27,48.8-4.3,10.3-8.3,20.7-12.4,31-.5,1.3-1.1,2.7-1.2,4.1-.2,3-2,3.4-4.4,3.2-.7,0-1.5,.1-2.2,.2-2.1-3.3-1.2-6.6-.2-9.5,4.3-12,8.7-24,13.4-35.9,3.1-7.8,6.4-15.5,10.5-22.8,3.5-6.3,7.8-12.1,12.1-17.9,4.1-5.5,8.5-10.8,13.1-15.9,10.1-11.1,22.1-20,34.2-28.9,14.5-10.7,30.1-18.9,47.2-24.5,1.8-.6,3.5-1.2,5.9-2-19.2-3.5-36.4-10.5-52.9-19.4-10-5.4-19.8-11-29.5-16.9-9.3-5.7-17-13.1-22.3-22.8-4.8-8.9-4.8-17.5,1-26.3,8.7-13.3,21.2-21.3,35.7-26.6,9.6-3.5,19.5-5.3,29.7-6,10.6-.8,21-.8,31.5,1.6,9.5,2.2,17.8,6.7,25.6,12.2,8.3,5.8,16.1,12.2,22.6,20,8.3,10,14.5,21.3,18.5,33.6,2.9,9.1,4.9,18.6,7.2,27.9,0,.2,.1,.3,.2,.6,3.9-4.1,7.5-8.3,11.6-12.1,9.5-8.8,18.9-17.9,29-26.1,9.1-7.4,18.8-14.1,28.6-20.4,13.6-8.7,28.2-15.4,44.1-19,7.6-1.7,15.3-2.8,23.2-.5,8.6,2.6,13.2,9.7,13.8,18.1,.7,9.9-2.4,19.1-6.3,28-7.6,17.2-17.8,32.7-28.9,47.7-5.4,7.3-10.8,14.7-16.2,21.9-3.5,4.7-7.1,9.4-10.3,14.4,4.1-2.9,8.1-5.8,12.3-8.6,10.6-7.2,21.5-14,34-17.3,11-2.9,22.1-3.9,33.2-.5,8.8,2.7,12.4,8.9,10.1,17.7-2.2,8.4-6.5,15.8-10.9,23.1-5.3,9-11.7,17.1-18.8,24.8-8.5,9.2-17.9,17.5-27.8,25.1-3.8,2.9-7.5,5.8-10.9,8.3,6.9-.6,14.2-1.6,21.6-1.8,5.9-.2,11.5,1.6,16.5,5,5.2,3.6,6.6,9.8,2.5,15.4-3.7,5.2-8,10-12.7,14.4-9.1,8.4-18.8,16.2-29.6,22.4-12.8,7.3-25.6,14.5-38.7,21.2-15.1,7.8-30.3,15.4-45.8,22.3-15.4,6.8-31.1,12.9-46.8,18.7-14.9,5.6-30.4,9.6-46,12.3-11.5,2-23.2,3.1-34.8,4.5-7.7,.9-15.3,1.7-23,2.7-3.8,.5-5.4,0-7.3-3.2,2-.9,3.9-2.2,5.9-2.5,8.1-1,16.3-1.5,24.5-2.3,5.8-.6,11.6-1.3,17.4-2.3,9.2-1.6,18.4-3.2,27.4-5.4,8.7-2.1,17.4-4.4,25.9-7.3,12.4-4.3,24.8-8.9,37-14,24.3-10.1,47.9-21.6,70.9-34.3,12.5-6.9,25.2-13.3,36.7-21.7,2.5-1.8,4.8-3.7,7.6-5.8-3.5-1-5.4-3.1-6-6.1-.7-3.2,.3-6.2,2-8.7,6-9,13.9-14.8,25.2-15,.2,0,.5-.1,1-.3-2.7-3.4-6.2-4.4-10-4.6-10-.7-19.3,2.3-28.7,5.3-12,3.8-21.9,11-32,18.1-2.9,2-5.8,3.8-8.9,5.5-2.4,1.3-5.9,.3-7.6-2.2,5-5.3,11-9.4,17.1-13.3,9.7-6.3,19.4-12.4,29-18.9,14-9.6,26.8-20.6,38.3-33,4.8-5.2,9.1-10.9,13.9-16.7-3.1-.3-5.6-.1-7.8-.9-7-2.3-8.9-9.3-8.6-15.1,.9-13.9,15.3-24,26.2-23,1.9,.2,3.7,.9,5.6,1.3,0,.4,0,.8,0,1.2-1.4,.4-2.9,1.1-4.3,1.1-7.4,0-12,4.4-15.8,9.8-3.2,4.5-4.4,9.7-2.8,15.4,1.7,6.2,4.7,7.2,9.6,3.3,5.6-4.5,8.4-10.7,11.1-17.1,1.4-3.4,2.3-7,2.8-10.7,.6-4-1.2-6.2-5-7.8-5.6-2.3-11.4-2.2-17.3-1.3-15.6,2.4-28.5,10.7-40.9,19.7-10.6,7.7-21,15.6-31.1,23.9-9.1,7.6-17.6,15.9-26.3,23.9-2.4,2.2-4.7,4.5-7.1,6.8-2.4,2.4-5.5,2.2-8.4,1.7-1.6-.3-1.8-2.2-.4-3.6,3.8-3.8,7.9-7.4,11.6-11.3,9.5-10.2,19.3-20.1,27.9-31,14-17.7,27.3-36.1,40.6-54.3,5.7-7.9,10.7-16.3,16.3-24.9-3,.4-5.2,.9-7.5,.9-4.6,.1-7.6-2.1-8.5-6.7-2.5-11.8-.4-22.9,5.6-33.3,3.4-5.9,7.9-10.7,14.5-14-3.7-1.7-7.1-1.4-10.2-.8-19.7,3.7-37,12.9-53.5,23.9-13.2,8.8-25.7,18.7-37.2,29.6-10,9.6-19.2,20.1-28.6,30.3-1,1.1-1,3.4-.7,5.1,2,15.8,.3,31.2-5.9,45.8-3.5,8.3-8,16.3-12.7,24-2.8,4.6-6.9,8.5-10.8,12.2-3.4,3.1-7.8,4-12.4,3.1-3.1-.6-4.7-3-5.5-5.8-1.7-6.1-.8-12.3,.6-18.3,2.2-9.6,6-18.7,10.6-27.4,5.6-10.7,12-21,19.5-30.6,1.8-2.3,3.7-4.5,5.2-6.9,.6-.9,.7-2.5,.5-3.6-2.7-14.5-5.4-29-11.2-42.7-7.4-17.7-18.9-32-34.8-42.8-6.8-4.6-13.7-9-21.7-11.3-.7-.2-1.4-.3-1.9-.5,2.1,2.8,4.4,5.4,6.3,8.4,3.3,5.4,0,11.1-4,13.6-4.2,2.6-8.7,4-13.5,4.3-10.7,.6-21.3-.8-31.1-5.4-2.9-1.4-5.7-3.4-8.1-5.7-3.4-3.3-3.2-6.6-.1-10,.4-.4,.7-1,1.1-1.4l-.3-.6Zm33.7,19c4.2,.3,8.1-.4,11.6-2.8,3.3-2.2,4.3-5.3,3.2-9.1-2.2-7.1-9.6-12.5-16.9-12.2-2.3,0-4.8,0-7,.6-4.7,1.3-9.5,2.7-13.9,4.8-2.2,1-4.3,3.4-5.5,5.6-1.3,2.3,.5,4.7,3.6,6.6,7.7,4.7,16.1,6.2,24.9,6.5Zm86.6,91c-.3,.4-.7,.7-1,1.1-4.9,7.7-10.1,15.3-14.6,23.3-6.6,11.7-12,23.9-13.3,37.5-.3,3,.2,6.1,.4,9.1l1.5,.2c17.5-20.3,28-43.4,26.9-71.2Zm144.5-93.4c-5.1,3.1-8.6,7.6-11.3,12.7-3.1,5.8-5.1,12-5.5,18.5-.2,4.5,.5,9.1,1,13.6,.2,1.6,1.2,2.2,3,1.3,4.9-2.6,8.6-6.4,10.9-11.2,3.2-6.8,5.4-14.1,5.5-21.7,0-4.6-.4-9.2-3.5-13.1Zm-13.7,229.5c7.2-6.6,15.5-12,18.8-22.2-1.5,0-2.7,0-3.8,.3-7.8,2.4-13.2,7.5-16.4,14.9-.9,2.1-1.2,4.9,1.4,7Z" />
		</g>
		<g id="g">
			<path class="k" d="M112,286.4c-3.3,4-6.5,7.2-9,10.8-5.9,8.6-11.9,17.2-17.2,26.2-5.2,8.9-8.7,18.7-10.5,29-1.2,6.7-2.4,13.4-2.8,20.1-1.2,16.8,.8,33.3,6.3,49.4,5.6,16.4,13.2,31.9,23.9,45.5,8.3,10.6,17.5,20.5,26.6,30.5,5.4,5.9,11.1,11.6,17,17,3.7,3.4,8,6.1,12.2,9.2-.7,1.9-2.6,2-4.1,1.5-3.5-1.2-7.1-2.4-10.1-4.4-13.5-9.5-24.3-21.8-35.6-33.6-7.7-8.1-14.6-16.7-20.9-25.9-5.6-8.2-10.3-16.9-14.3-26-4.1-9.4-7.5-19-9.7-29.1-2-9.6-2.6-19.3-2.4-29.1,.3-11.4,1.6-22.6,4.9-33.5,2-6.5,5-12.8,7.7-19,7-15.8,17.7-29,29.2-41.7,10.3-11.3,21.9-21,34.7-29.3,10.1-6.5,21-11,33-12.6,9.1-1.2,18.1-1.3,26.9,2.5,8.2,3.5,13,9.7,15.5,17.9,4,12.9,3.1,25.7-.6,38.6-3.8,13.1-10.6,24.5-19.7,34.5-6.1,6.8-12.6,13.2-19,19.9,17.3,11.2,27.2,28.3,33.9,47.7-5,3.3-7.7,2.9-10.8-2.1-1.8-3-3.3-6.2-4.8-9.4-4.4-9.6-10-18.4-17.6-25.8-1.7-1.7-3.8-3.1-5.6-4.7-1.2-1.2-2-.9-3.2,0-6.7,5.3-13.9,9.7-22,12.6-5.9,2.1-11.8,3.7-18.2,2.3-4.6-1-8-5.9-4.8-10.9,3.5-5.7,8.7-9.5,15-11.4,6-1.8,12.2-2.9,18.4-3.6,3.1-.4,6.4,.7,9.6,1,.8,0,1.8,0,2.3-.5,10.5-9.3,20.1-19.3,27.5-31.3,6.5-10.7,10.5-22.2,11.3-34.8,.6-9.4-.3-18.3-4.5-26.8-3.1-6.3-8.3-9.8-15.1-10.4-4.9-.4-9.8,0-14.7,0,2,2.2,4,3.8,5.1,5.9,2.4,4.3,.7,8.8-1.4,12.5-7.8,14-18,25.8-32.5,33.3-5.9,3-12.1,4.3-18.8,3-5.8-1.1-10.2-6.3-10.9-12.2,0-.5-.2-1-.5-2.5Zm17.4,10.3c4.3-.4,8.4-2.9,12.3-5.6,7.6-5.4,13.9-12.1,19.7-19.3,3.6-4.4,6.6-9.2,7.3-15.1,.4-3.7-1.3-6.5-4.6-6.3-3,.2-6.2,.7-8.8,2.1-5.7,3-11.2,6.4-16.5,10-5.9,4-11.5,8.4-14.8,15.1-2.3,4.8-3.1,9.5-1.2,14.5,1.2,3.2,3.2,4.6,6.6,4.6Zm30.3,59.3l-.5-.9c-5.9-1.4-11.6-.2-17.2,1.9-5,1.9-9.2,5-11.3,10.2-.3,.8-.3,2,.1,2.7,.2,.4,1.7,.3,2.5,0,3.9-1.4,8-2.6,11.7-4.7,5.1-2.8,9.8-6.2,14.6-9.4Z" />
		</g>
	</g>
</svg>