<svg xmlns="http://www.w3.org/2000/svg" xmlns:xlink="http://www.w3.org/1999/xlink" viewBox="0 0 640 640">
	<defs>
		<style>
			.j {
				fill: url(#b);
			}

			.k {
				fill: #202222;
			}
			@media (prefers-color-scheme: dark) {
				.k {
					fill: #f1f3ee;
				}
			}
		</style>
		<radialGradient id="b" cx="-9.9" cy="672.2" fx="-9.9" fy="672.2" r="547.9" gradientTransform="matrix(1, 0, 0, 1, 0, 0)" gradientUnits="userSpaceOnUse">
			<stop offset=".2" stop-color="#1acc6c" />
			<stop offset=".5" stop-color="#b3f487" />
			<stop offset=".8" stop-color="#c2b6dc" />
			<stop offset="1" stop-color="#c2b6dc" />
		</radialGradient>
	</defs>
	<g id="a">
		<path id="c" class="j" d="M128.6,376.1c2-4,5.5-7.3,10.3-9.7,4.6-2.3,8.6-5.7,12.9-8.5,12-8,25-14,38.9-18,9.7-2.8,19.7-5.2,29.6-6.9,9.3-1.5,18.7-2.4,28.1-2.6,11.8-.3,23.7,.3,35.5,.7,20.4,.8,39.3-3.8,56.8-14.7,19.2-12,37.8-24.7,55.1-39.4,5.4-4.6,10.8-9.4,16.2-14.1,2.3-2,4.4-4.3,6.7-6.3,2.7-2.3,5.8-1.8,7.4,1.3,5,10,9.9,20,14.9,30,3,6,6.3,11.8,9.4,17.8,6.1,11.9,12.4,23.7,18.1,35.7,3.3,6.9,5.6,14.3,8.5,21.5,.6,1.5,1.7,2.9,2.8,4.2,1.2,1.4,1.6,4.1,0,5-4,2.1-5.6,6.1-7.8,9.6-10.5,16.7-22.8,31.9-37.9,44.7-11.8,10-25,17.7-39.3,23.5-12.3,5-24.9,9.2-38.1,10.9-7.8,1-15.7,1.8-23.5,2.5-8.7,.8-17.5,1.6-26.3,2.1-11.3,.7-22.5,2.2-33.6,4.8-15.2,3.6-29.9,8.5-43.3,16.6-8.2,4.9-15.8,10.9-23.4,16.8-10.1,7.8-19.9,16-29.9,24-2.3,1.8-4.8,3.4-7.4,4.9-1,.6-2.4,.7-3.7,.7-3.1,0-3.2-.5-2.6-3.5,.3-1.6,0-3.5-.5-5.2-1.5-5.8-3.1-11.5-4.7-17.3-2.2-7.6-4.5-15.2-6.7-22.9-1.9-6.6-3.7-13.2-5.3-19.9-2.5-10.6-5-21.2-7.1-31.8-2.3-11.2-4.2-22.5-6.1-33.8-1-6-1.6-12.2-2.5-18.2-.2-1.3-.8-2.5-1.5-4.5Zm232.5,6.6c-.4-11.7-5.8-20.3-15.8-25.3-10.2-5.1-20.9-4.5-31.3,0-7.7,3.4-13.9,8.7-18,16-5.6,9.7-7.1,19.9-.4,29.7,3.4,5,7.6,9.1,14,11.2,5.1,1.7,10.2,2.5,15.3,2.2,7.5-.3,14.3-3.3,20.4-7.5,9.4-6.4,15.3-14.9,15.8-26.4Zm-57.4,14.9c7,9.3,16.3,12.8,27.7,11.1,13-2,22.8-12.3,20.5-26.3-1.1-7-4.7-12-10.2-15.8-5.7-3.9-12.1-5.2-19.1-4.8-13.4,.7-22.4,12.2-22.6,23.6,0,3.8,1.5,9.4,3.7,12.3Z" />
		<g id="d">
			<path class="k" d="M288.9,90.4c-5.9,2.2-11.8,4.3-17.7,6.7-15.7,6.4-31,13.8-45.4,22.7-.6,.4-1.2,.8-1.8,1.2-3.5,3.3-6.9,3.7-11,1.3-2.5-1.4-2.6-2.6-.3-4.1,4.4-2.9,8.9-5.6,13.4-8.2,13.7-7.7,28-14.5,42.8-19.9,9.4-3.5,18.8-7,28.3-10.3,2.7-.9,5.6-1.3,8.5-1.5,1.4,0,2.8,.8,4.2,1.4,2,.9,1.9,2.4,1.2,4.3-3,7.6-6.3,15-8.7,22.8-2.9,9.1-5.5,18.4-7.4,27.7-2.2,10.7-3.6,21.6-5.4,32.4-.6,3.4-3,4.9-6.3,4-5-1.4-5.5-2.1-4.7-7.4,1.6-10.5,3-21,5.1-31.4,1.4-7.1,3.6-14,5.6-20.9,1.4-4.9,3-9.7,4.1-14.9-1.1,1.1-2.4,2.1-3.4,3.3-9.6,11.7-19.4,23.1-28.6,35.1-12,15.6-22.7,32.2-32.5,49.3-13.3,23.3-25,47.4-34.4,72.6-5,13.3-9.1,26.9-13.6,40.3-.3,1-.5,2.2-.2,3.2,3.7,15,5.3,30.4,5.9,45.8,.7,19.5,.1,39.1-3.2,58.4-1.6,9.5-3.7,18.8-7.7,27.6-2.5,5.4-6.7,8.7-12.2,10.3-3.9,1.1-6.8-1.3-8.4-5.8-1.1-3.2-1.8-6.6-2-10-.5-7.4-1-14.9-.7-22.4,.5-10.5,1.2-21.1,2.8-31.5,1.9-13.1,4.5-26.2,7.3-39.2,2-9.6,4.9-19.1,7.1-28.7,.4-1.8,0-3.9-.5-5.7-2.4-8.3-5.2-16.4-10.5-23.4-2.8-3.7-6.2-6.6-10.9-7.5-6.1-1.2-9.8,2.8-13.4,6.7-11.3,12.1-18.9,26.5-25.2,41.5-6.1,14.5-11.8,29.2-16.5,44.2-5,16.1-9.1,32.6-12.7,49.1-3.4,15.3-6.1,30.7-8.3,46.2-2.2,15.5-3.6,31.1-5.1,46.6-1,10.8-1.6,21.7-2.2,32.5-.4,5.9-.5,11.7-.8,17.6,0,.7,0,1.5,.2,2.2,.7,4.4-1.7,7.3-6.2,7.4-3.7,.1-4.4-.5-4.2-4.7,.7-14.5,1.4-29,2.4-43.5,.9-12.2,1.8-24.5,3.4-36.7,2-15.9,4.4-31.8,7.3-47.6,2.6-14.1,5.7-28.2,9.4-42,3.8-14.3,8.1-28.5,13-42.5,3.8-11.1,8.4-22,13.3-32.7,5.9-12.9,12.8-25.4,22.2-36.2,4.4-5.1,9.3-9.7,15.2-13,10-5.7,20.8-4.5,28.1,5.5,3.3,4.5,5.7,9.6,8.7,14.7,23.9-72.1,61.2-136.4,112.8-192.6Zm-121.9,342.7c11.6-36,11.1-72.1,6.9-108.5-.8,1.4-1.1,2.8-1.4,4.2-2.5,13-5.3,25.9-7.2,39-1.5,10.4-2,21.1-2.9,31.6-.6,8.3-.5,16.6,1,24.8,.5,2.9,.5,6.1,3.6,9Z" />
		</g>
		<path id="e" class="k" d="M279.9,483.7c-.3,.5-.9,.5-1.5,.9q1.7,.1,1.5-.9Zm-40.6-27.5c-.1-.4-.3-.6-.5-.8,2.4,1,.8-1,2.6-.4,.5,.7,1.5-.7,1.7-1.3h0c2.5-.6,1.5-2.8-.5-1.1,.4,0,.5,.2,.5,.5-.2-.6-1.4-.2-1.9-1-1.8,3.4-2.2,.6-3,2.7,.4,0,.5,.2,.5,.5-1.4-1.7-3.3,1.8-4.4,3.3,2.9,1.6,2.6-1.8,4.9-2.4Zm8.2,25.3c0-.8,2-.6,.9-1.6-2.1-1.3-2.5,3.6-.9,1.6Zm0-2.2c1.5-.3-.1-3.1-1.1-1.4,.2,.5,1,0,1,.6,0,.3-.9,.6,0,.7Zm-15.9-21.2c-.5,0-1.1-.2-1-.8,.2-.7,.4-.1,.7,0,1.2,.7,.8-.8,.2-1.3,.8,.3,2-.2,2.2-1,1.2-2.5,3.5-3.5-.8-2.4,.4,2.9-1.8,1.2-1.8,3.2-2.9,1.4-2.1,5.7,.5,2.3Zm7.5-6.7c1-.8,2.2-2.3,.2-2.6-1.8,.5-2.3,2.1-.2,2.6Zm31-12.4c.3,1.8,2.9,0,4.5,.9,2.6-2.5-3-.4-2.9-2.5-.6,.3-1,1.5-1.6,1-1.2-.9-1.2,.4-1.8,.6-1.7-.7-1.7-.9-1.3,1.1,1.3-.7,1.8,.7,3-1.1Zm-4.5,1.7c3.8-.2-2.3-2.6-2.3,.5,.9,.4,.9,.4,2.3-.5Zm-28.7,10.7c.3-1.1-1.4-1.4-1.9-.6,.5,.5,1.5-.2,1.9,.6Zm10.6,11c.9-.3,1.6,.4,2.4,.6,.3-1.3,1.9-4.9-.8-3.6,.5,2-1.5,.8-.8,2.1,.4,.6-.7,0-.9,.9Zm8.7-15.3c1.8,.9,2.3-3.4,4.9-3.5-.2-.4-.8-.5-.3-1.4,.6-.4,2.2,.6,2.5-1.1-3.5-1.2-4.8,3.8-8.2,5.2,.5,.4,1.2,0,1.1,.8Zm58.9-5c1.8,.5,5.2,1.5,11.8,3.4-.4-.4-.8-.7-1.1-1.1-1.5-.2-4.5-1-10.8-2.6,0,0,0,.1,.1,.2Zm-38.1,60.7v2.5c.4-.8,.6-1.7,0-2.5Zm15.7-33.4c1.2,.3,1.2-.7,1.1-1.6-1.9-.2-1.2,.3-1.1,1.6Zm-16.3,29.4c.1,.8-.6,1.7,.9,1.5-.4-.4-.3-1.1-.9-1.5Zm38.3-57c-.2,0-.4,0-.6-.1,0,0,0,0,0,.1,.2,0,.4,0,.6,.2,0,0,0-.1,0-.2Zm-19.6,74c0-.1,0-.3,.1-.5-.1,.1-.2,.2-.4,.4,0,0,.1,0,.2,0h0Zm-47.7-40.1c1.5-.7,1.3-1.5,.3-2.4-1-1.2,1.4-1.5-1.3-2.1-.5,.8,.4,1.1,.6,1.7-.6,1.4,0,1.6-1.1,3.1,.8,.2,4,1,1.6-.3Zm0-4.9c2,.9-.8-1.4,1.5-1.7-1.8-1-.9-.9,0-1.9-1-1.1,.3-1.2,.5-2.3-1.1-2.3-3.4-1.4-1.1,.4-.3,.4-1.8,.1-.8,1.3,.7,.9-1.6,1.1-.3,1.9-2,.7,0,.9,.1,2.3Zm119.8,14.1c-1.2-1,.8-1.9-.5-2.9,0-1.1,.6-2.7-.5-3.7,1.2-.7,0-1.4,0-2,.6-1.6,.3-1.4-1-1.7,0-.7,1.3-.2,.8-.7-.6-.6,.8-1.1-.2-1.4-1.2-1.8-1-5.2-2.2-7.2-2.3-10.3-17-20.6-28.5-16.9-.8,.6-.9-1.8-1.9-1.8-1.3-.1-1.3-.2-1.8-.8-1.7-1.7-4-3.5-6.5-4-2.8-3-7.1-1.8-10.1-2.9-.3,.3-.5,.7-1,.2-.3-.3-.7,.8-1.3,.3-.4-.4-.7-.6-.7,.2-6.9-.3-14.8-3.6-21.9-.7-.6-.4-1.2-.5-1.4,.2-1.5,.7-1.3,.6-.2,1.8,.5-.2,1.2,.3,1.6-.4,.5-.8,1.5,1,2.2,0,2.2-1.5,14.2-1.2,15.4,.8-2.7,.7-3.2,3.1-5.5,4.5-.3,2.6-2.8,.4-4,1.2-.3,.6-.7,.6-1.4,.2-.8-.4-.5,.7-.9,1-.6,.3-1.4-.3-2,.4,1.4,.2,1.4,2,.2,.8-1.2-.2-3.3,1.7-2.6-.4-2.8-1-3.3-6-6.9-4.5-.4-2.3,4-2.3,1.4-4.4-.5,.4-.8,1.4-1.7,.6-2.2,2.4-5-2.3-7.6-1.9-2-.3-.4,2.2,1.2,2.9,1.2-.4,2.1,.1,3.2,1.2-1.3,2.4-4.7,3.6-4.8,5.9,0-.1-.2-.3-.3-.5-1.9,2.3-3.9,4.8-4.4,7.1-.4,0-.9,.2-1.1-.5-.2-.9-1.6,.2-1.6-.9-.6-1.4-4.8-3.4-6.2-2.5-1-.9-2.7-2.7-4.4-2-4.2,.7-.2-3.4-3.5-2.1,1.4,4-5.3,.9-5.9,3.1-2.5-.1-3.6-2.9-6.3-2-3.1,0-1.9,1.1,.4,1.4,1.9-.5,1.7,2.6,3.5,2.5,1.9-1.1,2.4,.6,2.9,1.5,3.2,3.1,0,2.4,.5,4.8,2-2.8,1.4,.1,2.9,.6,.4,.7-.9,.8,.8,1.3-.5,1.2,1.2,3.7,.6,5.5-1.4,.3-.5,1.8-1.6,2.7-1.2,1.2,.1,3.1-1.4,4,.4,.7-.5,1.4,0,2.1,.9,1.2-.8,.2-.7,.6-.3,.9,.3,3.6-.9,2.2-1.3,2.3,1.2,3.9-2.4,4.4-.3,1-.9,2.3,0,3.2,1.9,2.1-1.3,4.6,.9,6.2-1.3,1.4,1.6,4-.9,4.5,2.3,.7,0,3.5,1.2,5,.2,2.8,1.3,1.7,0,4.4,1.2,.5,.4,1.3,1,2.1-.9,.8-.2,.6,.5,1.2-1.6,1.4,1.3,2.8,0,4.3,1.7,.6,.9,1,.5,2.2,2.4,1.9,2.5,6.4,3.2,8.8-1.8,.2-.2,.8-.5,1.6-.8,1.1-1.6,2.5-1.1,3.5-5.2,1-9.9-9.7-11.3-6.3-.5-6-5.9-7.3-7.2-13.2-3.8-7.6-6.4-16.8-7-25.2,0,0-.1,0-.2,0,.4-1.3-.3-3.6,.2-4.9,.4-.9,.8-1.7,0-2.6-.4-.4,1-.8,0-1.5,2.5-.6,1-.4,1.3-2,.4-.3,.3-1.3,0-1.5,1.4-1.8,3-5.4,2.7-6.6,0,0,.1,0,.2,0,2-2.4,.9,1.6,1.9-2.7,1.2,1.2,1.9-2.8,1.9-3.9-1.6,.5-1.6,2.5-3.3,3.3-.5,0-1.1,2.1-.9,2.9-.3-.1-.8,0-1.5,.8-.4-.2,0-4,1.3-4.4,.2,0,.1-.4,0-.4-1,.2-.7-.8-1.2-1.2-2.1,2.2-1.7,5.1-1.6,7.1-2.4,1.4-.2,2.3-1.9,3,2.4,.2-2,3,1.1,3-2.7,2.5-.9,5-2.3,8.1,0,.2-.6,.3-.2,.5,.8,.4-.6,.9,.2,1.4,.6,.6-1.6,2.8,.7,2.5,.5,0,.8-.2,1.1-.4-.3,.9-2.7,.4-1.7,1.8-1.1,2.3,.1,5.4,.6,8.1,.4,4.5,.7,9.8,2.2,13.3-1,1.9,.2,.7,.5,1.5q-.5,.9-.1,1.8c.8-2.5,.3,2,2.2,.5-.3-1.6-.9-3.4-2-4.9,1.2-1.1-.6-.7-.6-1.2,.9-.9-.2-3.6-.2-5.1-1.3,0-.1-3.5,0-4.3,1.2,2.9,2.4,6,2.5,8.8,1.4,.6,.3,1.5,1.8,2.1,.5,.8,.6,3.3,1.1,4.2,2,2.5,2.7,4,4.1,6.3,0,.5,.6-.2,.7-.2,1,.5,.9,1.2,.5,1.9,.2,.4,1.1,0,.9,.6-.3,1.9,4.3,3.6,3.3,4.7,2.2,.5,2.4,3.3,4.5,3.9,1.7,0,1.6,2.2,3,1.5,.8,3-2.1,3.9-3.4,5.8-.9-.6-2.6-1.4-3.4-.6-1.6-3.4-5.1-5.3-6.5-8.6-.7-.3,1.1-1.2-.4-1.1-1.2-.9-.8-2.8-2.1-3.9-.4-.8-1.4-1.4-1.1-2.6,.3-.8-1.4-1-.8-1.6,.8-1.6-2.1-2.8-1.3-5.1-4.2,.2-1.5,1.9-.6,3.2-.3,3.6,6.6,16.7,9.3,17.4-1.6,1.7,2.5,1.6,2.8,3.6,.4,1,1.2,.5,1.9,0,.7,1.2,3.2,1.5,3.8,0,2.1,1.2,2.9-2,4.1-3.2,1-2.9,3.9,.7,5.8-.1,1.9,1.3,1.6-.6,3.1,.3-.6,.2-.9,.4-1.5,.6,4.3,1.2,5.4,6.1,10,6.7,1.8-.5,2.9,1.3,4.3-.6,.6-1,1.3,.7,1.4,0,.7-1.6,4.5-2.1,3.7-3.6,1,.1,.8-1.3,1.9-1.4,.5,0-.9-1.4,.6-.9,3.1,1.6,6.1,1.7,9.2,3.6,1.1,1.3,2.7-2,4-.8,.4,.5,1.3-.3,1.7-.5,.4-.5,.7,.7,1.2,0,1.5-.3,2.7-2.2,4.6-.3,.5-3,3.5-4.4,5-6.1,.1-3.3,2.2-5.5,3.5-8.2,.1-.6,.8-1.5,1.4-2.1,.3-.3-1.1-.9,.1-.9,1-1.1,.4-1,2-.5,1.8-.5,.2,.9,1.3,1.4,2,1.4,2,1.4,2.3,3.4,1.3-1.1,1,0,2,.6,.9-.2,.3,1.4,1.4,1.2,1.6,.4,.8,2.2,2.4,1.9,1.4,2.4,5.1,3.3,7.2,4.4,1.6-.7,1.6,1.4,2.9,1.3,1-.3,1.6,.5,2.2,1.1,.5-1,.5-1,1.3-.3,1,.8,1.8,0,2.4-.8,.7,.8,2.1,.7,3,.3-1.5-1.7,1.2-.3,1.7-.6,.5-.7,1.5-1.3,2.2-1.2,1.4,0,1-1.6,2-1.7,1.9-1.1-.9-1,2.6-2.2,.5-.3-.6-1,0-1.1,1.4,.4,1.8-1.4,3.1-1.3-1.8-1.6,4.8-5.6,4.3-8.4,3.1-5.3,5.6-10.1,7.1-16.8,.9-2.1-.5-2.2,1.5-4.1-.4-2.3,.1-4.7,.7-7.1-1.5-1.2,.9-1.9,.2-2.7-.4-.5,.4-.6,.3-.8Zm-140-12.9c0,.7-.4,.6-.8,.6,.2,0,.5-.3,.8-.6Zm-2.8,17.3c.5-.4,.7-1.2,1.7-.6-.5,.4-.7,1.2-1.7,.6Zm.7,4.2c1.4-.8,.6,1.3,1.4,1.9-1.6,.6-1.3-.9-1.4-1.9Zm113.3-38.1c1.1,.5,1.1,.5,.5,1.8,3.7,2.6,5.7,6.9,7.2,10.9,1.8,1.5,.9,1.1,1.4,2.6,.9,.8,1.2,2.4,1.4,3.4,1.8,1.2,.3,3.7,2,4.7-2.1,.8,.8,2.8,.6,4.2-1.1,1.3,1.3,2,.4,3.1-.8,.6,.7,.9,.2,1.6-.2,.2-.1,.8,0,1,1.2,1.2-.7,.5-.5,1.3,2.4,1.4,.7,2.1,1.4,4.2-1.2,1.5,.4,7.9-1.1,8.4-.6,2.7-1.3,5.1-2.4,7.8-.5,.9-.4,1.7-.3,2.4-.7,.1-3,2.3-2,3.1-2,2.6-4.7,3.9-7.4,4.6-1,.3-.9-1.3-2.4-.8-.3-.3-.7-1.3-1.3-.3-4-1.7,1.3-5-.1-8,1.3-1.5,1.6-3.7,2-5.4-.6-2.3-.3-.9,.5-2.6,.8-.9-.8-2.2,.8-3,1-1.9-.9-1.3,.6-4.3-.8-1,1.4-1.6,.3-2.5,.5-.7,1.5-.3,.5-1.2,2.7-8.5,.3-18.1-1.6-28.4-.3-1.7-1.7-2.7-2.6-4.2,0-.9,.3-2.6-1.3-3.2-.8-3.1-3.5-3.4-3.3-6,4.3-.5,4.6,2.8,6.5,4.6Zm1,25.7c-.7-.7-1.6-1.6-.5-2,1,.1,.4,.9,.5,2Zm-.1,.3c.5,.5-.4,1.8-.9,1.3-.2-.6,.5-1.1,.9-1.3Zm.7,4c-1.4,.9-.9-1.2-1.5-1.9,2-.4,.8,1.2,1.5,1.9Zm-34.5-40.2c0-2.9,3.9-2.3,4.1-3.7,1.7,0,2.4,2,4.1,1.6,.1-.6,.2-1,.4-1.4-.9-.2-1-.3-1.2-.3,.6-1.7,1.2-1.7,1.1,0h.2c1.1-2.6,3,.6,4.4-.5,.5,.3,0,1,.8,1.1,1.8-.4,2.1,0,3.5,.9,1.1,0,2,.5,2.9,1.4,1.3,.2,1.4,0,1.4-.2,2,1.4,2.8,3.9,6,4.6-1.4,.1-3.4,1.4-4,.4-.6-1.4-2.6-1.6-3.7-2.4-3-2.8-8.1-1.7-10.4-4.8-.1,0-.2,0-.4-.1-.2,2.3-5.2,5.1-5.3,3.5-1.3,1.3-.9,1.3-2.6,1.1-2.4,1.2-4.6-2.7-1.2-1.2Zm5.1,2.5c.9-1.2,.7-.3,1.9-.3,.5-.2,.3-1.7,1.1-1,1,.3,2.1-.1,2.8,0,.8,.5,1.7-.5,2.7-.2-.2,2.1,3.8,3.6,5,5.7-.5,1.5-2.8,1.2-2.8,3.3-.9-1.6-2.1-2.3-3.8-2.5,2.7-1-5.6-4.5-6.9-5.1Zm12.2-.7c1.3,0,1.8,2.1,3.7,2.3,1,4.9-3.8-.7-3.7-2.3Zm-20.7,1.1c1.1,.5,3.1-.7,3,1.4-2.2,.7-3.2,1.3-3-1.4Zm-6.7,2.4c.7-1.1,2.1-1.8,3.1-1.7,4-.1-.1,1.4,.9,3.5,.8,1.2-.9,0-.7,.8,.2,1.5-.3,3-.8,4.5-2.1-.2-1.1-2.7-3.3-3.6-1.4-.5,0-1.6-1.4-1.8,.6-1.2,.8-2.1,2.1-1.7Zm4.4,23.4c1.1,.8-.5,3.2,1.5,3.7-.9,.6,.8,1.5-.3,2.1-.4,.3-.2,.8-.2,1.3,1.9,0,.9,4.1,2.7,5.2,.8,.4,1.8-.9,.5-1.1-.5,0-.6-.3-.2-.6,.6-.4-.6-.6-.1-1,.7-.6,0-.6-.3-.7-1.4-2.1,.2-6-1.9-7.9-.2-.2-.2-.8,0-1,1.1-1.1-1-1.4-.6-2.6,1.2,0,0-1.3,.2-1.5,.9-1.3-1-.3-.7-1,1-1,1.9,.3,2.1,1.2-.1,3.3,2.2,3.2,1.3,5.3-.3,.3,.1,.4,.4,.4,1.3,0-.8,1.4,.4,1.6,1.1,.1,.5,.4,.3,.9-.5,.9,3.3,2.8,.8,1.9-1,1.6,2,.2-.3,3,2.1,1.4,3,6.4,2.8,8.8,2.2,2.5-3.9,1.8-.6,.5-1.3-.3-1.1-1.7-1.5-2.9-.2-.8-.3-1.3-1.1-1.4,1.1-1.6-1.2-1.1-1.2-2-2.8,.7,2.2,6.1,2.7,8.4-1.2,4.5,3.7,4.9,2,10.2-1.5-1.1-1.6-1.9-2-3.3-2-1.1-1.2-2.9-2.7-4.4-1.3-.2,.3-.7,.1-1.1-.9-1.2-3.3-2.3-1.3-3.4-1.9-.6,0-2.1-1.9-2.7,.7-2.5-1.6-5.7-1.4-8.4,.3-.4-1.7,.3-.6-1,.6-.7-.8-1.1-.4-1.9,0-1.4-.8-1.4-.2-2.7-.3-2.1-.2-4.8-.4-7.6-1.3-1.8,2.2-4.1,1.4-1.3-2.1-.6,0,2.6,1.3,3.9-1-.3-2.1,2.3-.5,2.9Zm6.5,3.1c.6-2,1.3,.8,2.3,1.4-2.4,1-1.1,0-2.3-1.4Zm1.8,18.9c-1.1,0-.3-1-1.4-1.6,1.5-.4,2.6,.6,1.4,1.6Zm-2.5,15.7c-.9,.3-.5,.8-.6,1.2-1.9,.7-1.8,3.6-4.1,4.7,.5,.5,.9,.9,0,1.4-2.3,1.2-3.3,5.7-5.4,1.4,3.2-2.8,3.4-7.1,5.8-10.3-2.2-1.1,.9-4.1,0-6.7,2.6,2.4,2.8,3.6,4.9,6.1-1,.6,0,2.1-.7,2.3Zm-19.7,13.3c.7-1.6,9.1-4.1,10-1.5,.1,.5-.1,.4-.3,.4-1,0-.5,1.8-1.5,.6-.5,1.7-1.5,1.1-2.6,1.7-2.2-.3-2,3.1-5.6-1.1Zm4.4,4.9c.3,.4,.5,.8,.7,1.1-.7-.1-1.4,0-.7-1,0,0,0,0,0,0Zm-.4-.6c-.2,0-.3,0-.2-.3,0,.1,.1,.2,.2,.3Zm-6.7-13.6c-.3-.8-.6-1.7-1.6-1.1,0-2.1-1.9-1.4-1.2-3.5,.4,.7,.7,1.3,1,1.8,1.7,.3,.3-.7,.8-1.1,2-1,1-3.7,3.1-5,0,1.5,.8,2.6,1.7,3.5-2,.5-1.2,2.1-3.2,2.7-.7,.8,1.2,1.8-.5,2.7Zm.2,8.2c.4,1.1,0,1.8-1.3,2.2q-.1-1.4,1.3-2.2Zm-1.5-5.9c-.2-.7,1-1,1.1-.2,.2,.7-1,.9-1.1,.2Zm-23.5,1.3c.6-.2-1.4-.4-1-.8,.5-1,.2-2.3,.2-3.4,.7-1.4,.8-3.5,1.8-4.9,1.3,1,.8,3.1,2.9,3.6-1.9,1.7,1.4,0,.2,1.6-.2,.6,1.4,.4,1.4,1.2-1.5,1.7,1.9,1.5,2.2,2.8-.7,2.1,2.7,2.6,1.8,4.3,1.8,.5-1.6,2.9-3.1,2.4-2,2-4-1.7-5.7-3.9,1.4,0-1.8-2.1-.6-2.9Zm1.5-23.6c-1-2.1,1.4-4.5-.2-6.8-.5-1,.5-1.2-.2-2.2,1.4-1.6-1-2.9-.3-4.4-.4-1.2,.3-2.4-.3-3.5-1.7-5.9-1-7.4,.5-11.5,1.1,0,2.1-.1,1.8-1.6,2-3.2,5.5-1.8,7.9-2.4,.5,3.2-1.1,8-2.9,10.1,1,1.3-2.1,1.6-1.2,3.6h0c.3,.8-.5,1.1-1,1.4,.4,1.7-1.2,3.6-.1,5.1-.8-.3-1.5,1.4-1.4,2.3-.6,1.5,2.3,.6-.8,3.5,.6,.2,.9,.3,1.5,.5-2.6,1,.4,2.5-.3,4.3-1.5,1.2,.8,1.5,.3,2.5-.8,1.4,1.2,2.4-.8,3.5,1.7,1.6-.4,1.7,1.5,2.2-1,1.2,1.5,2.2,.2,3.5-.2,.2,1.5,.6,.4,1.5,.3,.3,1,1,1.6,1.4,0,.5-1.6,1.2,.2,1.6,.8,1.5,.4,3.9,2.3,5,.7,.5,.9,1.1,.7,1.9-.1,.6,1.8-.3,.7,1,.3,.6,1.4,2.2,2,2.8-1.8,1,0,1.6-1.1,1.9-2.4-.9-4.1-4.1-5.6-6.4-3.6-2.5-4.2-10.5-6.8-10.2,2.3-3.6,1.2-6.6,1.4-10.5Zm6.8,13.3c.2,0,.3,0,.4-.4,0,.5-.2,.5-.4,.4Zm.2,21.1c3.2,2.1,6.2-7.2,6.2-1,.6,.6,.9,0,1.3-.3,1,1.4,.8,1.9-.3,3.2-.1,1.2-.7-.2-.9,.1-.9,.5-1.7,.8-2.8,.8-.4-1.4-3.9,.6-3.5-2.9Zm8.1-2.4c-1-.2-.3-2.2-2.3-1.5,1.1-.9,2.4-.9,2-2.3,4.5,.2,4.3,7.7,.3,3.8Zm1.3-22.4c-1.3-2.4-.6-4.4-2.7-6.3,.5-2.9-1.8-7.2-1.6-10.2,1.2-5.1,2.7-10.9,7.8-13,2.2,1.1-1.4,2.8,1.1,3.4,.3,0,.2,.5,0,.5-1.2-.2-.4,1.4-1.5,1.2,.8,.9,1.8,1.4,.2,1.7,0,.7,1,.2,.9,.6-.2,.8,.7,1.3,.3,2.1-.4,.8,.6,.2,.7,.7,.1,.6-1.5,.8-.6,1.8-.8,.7,1.7,.9,.4,3-.4,.7,.8,.1,.9,.8-.4,1,.7,2,0,2.6-.6,2.2,.2,3.8-.3,5.8-1.5,.9-.5,3-1.3,3.8-1.4,1.1-.6,4-2.4,5.4-1-.2-.6-1.9-1.9-1.8,1.4-.8,.6-.8-.1-2Zm-.8,4.4c-.9,0-1.3-.6-1.4-2.1,.7,1,1,1.6,1.4,2.1Zm-4.7-10.6v.3c1.5,.8,2.6,5,.2,1.8,1-1.3-1.3-1.1-.2-2.1Zm18.1-34.5c2.9-.3,3.9-.3,6.5-1.4,.7,1.9-3.1,2.3-1.6,4.4,.3,0,.7,.2,1-.2,.2-.3-.9-.6,0-.9,.9-.2,.7,1.1,1.3,1.6-.8,.8,0,1.1-.1,2-2.1,.5,.9,1.9-.2,3-4.2,1.1-1-3.5-2.9-3.4-2.6,0-.2-5-3.8-3.8,1.1,4.3,2.3,6.7,2.2,11.8-4.2-4.3-2.5-1.3-2.2-5.8-1.8-.8-2.4-2-2.2-4.4-1.9-1.3,.3-4,2.2-1.6,.4-1.2,2.1-.2,0-1.4Zm8.3,24c1-.3-.8-1.1,.2-1.2,.6-.1,.8,.3,.7,.8,.5,.9-1.3,1.1-.9,.5Zm1.2,12.9c0,.1,.4,.6,.1,.9-1.1,1.1,.6,2.1-.5,3.3-1.5,1.1-.8,3.3-2.1,4.5-.3,1.8-1.5,0-1.6,1.2,2.2,1-1.6,1.6-2.9,2.7-.6-1-1-2.3-.7-3.3,.8-.6-.9-1.2,0-1.7,1.9,1.4-.6-2.5,1.4-3.1,1.3-2.3-.5-2.1,.4-3.2,.4-.7,.9-1.4-.3-1.5,1.2-.9,1.3-3.4,1.1-5.2,1-1-1.3-.6-.6-1.2,2.1-.4,0-1.7,1-2.6,0,0-.3,0-.6-.2,.5-3.4,.5-6.2,1.2-3.5,2.5,1.6,.7,1.1,1.6,3.2,1.7,1.9,1.1,3.9,2.4,5.9,.9,1-.4,2.5,0,3.7Zm-4.8,16.9q-.6-2.3,1.2-2.8s0,0,0,0c-.3-.3,0-1.2,.4-1,0,.2,0,.4,0,.6,1.1-1.1,.9,.7-.1,.5-.5,1.4-1.8,1.7-1.5,2.7Zm-9.5-28.5c-.2-2,.5-4.4-.2-6.6,1.1-1.4,2.4,2.9,1.1,3.8-.5,1,1.9,.7,.9,1.6-.7,.7,.5,1-.2,1.5-.4,.3,.6,1-.2,1.3,.4,1.3,1.7,3.3,0,3.9-.1,4.9-.9,.1-1.1-1.8-.7-1.4,1.4-3.3-.3-3.6Zm-.5-10.3c.8,.9,1.8,1.4,1.3,2.6-1.8,.9-2-.9-1.3-2.6Zm2.6,3.8c.4-1-1.3-1.7-.2-2.9,0-.7-1.4-1.7-.8-2.4-.4-6.5,5.2,5.7,1,5.2Zm1.1,.6c.8,.3,.5,1.2,.2,1.6-.6-.4-1.5-1.6-.2-1.6Zm.9,16.3c-.2-4.5,.4-8.8,1-12.6,.3-.2,.2-.6,0-.9-1.2-1,.9-1.9,0-2.8-.4-1.8-.1-3.2-.2-5.5,1.1,.6,1.4,1.2,.6,2,2.9,.1,1.3,4,2.9,5.6-.5,2.4-.7,4.9,0,7.5-.3,.9-.5,.3-1.1,.9,0,.4,1,1.2-.3,1.7,1.1-.2,1.6,1.8,.6,1-.8-.1,.2,2.8-.8,3.7-.4,4,.5,3.9-1.4,7.4-1.4,1.2-1.3-3.5-1.2-4.1-.6-.7,.8-1.5-.3-2.2-.3-.2,1-1.2,.5-1.8Zm-.3,13.1c.7,1.2-1.7,0-.3,1.9-2.5,2.3-1.7-3.2-.6-4.7,1,1.1,1.8,1.9,.9,2.8Zm1.8,4c2.9,1.2,1.9,.9,.5,3.1-4.7-.5-3.2-.9-.5-3.1Zm6.4-32.2c-1.5-.5-.4-2.5-2.2-2.9,.2-2.5-1.1-5.6-.8-9,2.7,3.4,3.2,7.8,4.3,12.2,.5,2.2-2.4,1.7-1.3-.2Zm-10.4-13.8c.9,.9-.5,1.3-.4,2-2.5,.2-3.3-2.4-1.4-4-.3-.3-.6-.6-.7-.8,.2-.3,.4-.7,1.8-1,1-.2-.6,1.2,.5,1.3,1.4,.8-.6,1.6,.2,2.5Zm-2.9,30.5c.5,2.1,.6,4.2-1.2,5.4,.3-1,.6-1.9,.9-2.7,.3-.8,.3-1.6,.3-2.7Zm.9-35.1c-.1,.9-.4,1.2-.8,1.3-.3-.7,.3-.9,.8-1.3Zm1.3-7.1c-2.7,1.2-9.5-4.1-2.7-2.4,2,.5,.7-1.2,3.4,0-1.3,.6-1,1.5-.6,2.4Zm-4.2,.7c.4,1.7,.5,1.9,1.5,2.5-1.3,4.2-5.9,.3-3.4-1.5,1.1,.8,1.2,.2,1.9-1Zm-3.9,.4c-1-1-2.9-.8-2.2-2.4,2.2-1.2,5.8,2.3,2.2,2.4Zm1.5,5.4c-1.5,.8-1.7-1.5-3-.9,0-2.9,3.3-1.3,3,.9Zm-2.8,.3c0,3-3.8,4.2-5,7,.1-.7-1.2-1.1-.3-1.9,0,0-.8-.5-.1-.9,2-1.3,2.6-5.8,5.5-4.1Zm1.6,4.1c.7-1.2,3.8,4.5,1.3,3.2-1.9,0-7.6,5.3-6.2,7.7-1.6,.2,.2,1-1,1.6-1.8,1,.4-1.3-1.6-2.3,1.6-2.2,5.2-11.4,7.5-10.2Zm-6.5,25v2.3c-1.1-1.3-2.3-2,0-2.3Zm2.7,10.5c-1-1-1.2-1.5-1.4-2.6,1.1,.7,1.2,1.7,1.4,2.6Zm11,11.6c2.1-.5,2,1.6,.3,2.3-.6-.8-.3-1.5-.3-2.3Zm17.9-17.3c-1.5-.2-1.1-3.4-2.1-4.5,1.8-.2,2.1,2.5,2.7,3.7,.2,.9,2.1,.6,.7,1.8,1.2,1.9-2.4,.5-1.3-1Zm2.3,4.9c.4-.5,1,0,1.6-.5q-.8,1.2-1.6,.5Zm-9.3-49.1c-1.3,.7,.7,3.3-1.6,3,.7,1.6,4.7,1.3,1,2.4-3.2-1.1-9.4,2.7-8.6-3.2,1.9-2.4,4.8,1.5,6.2-.2-.2,.5,0,.7,.9,.5,.6-1,.5-1-.5-1.1,.3-1.6-.6-.4-1.2-.9-1.6-1-2.9-.3-2.1-2.3,4.1-4,2.4-.2,6,1.8Zm-21.2-4.4c.8-.5,2.4-.1,1.2-1.5-.3-1,.6-.9,.9-1.1,0,0,0,.1,0,.2,3.8-2.2,2.5-5,5.8-4.4-.9-1.7,1-1.8,2.4-1.1h0c1.5,3.9,9,5.5,3.8,9.5-1.1,1.5-3.9,2.1-6,1.1-1.2-.7-1,3-1.7,.5-11.4,2.2-3.6-2.4-6.4-3.1Zm-2.8,8.9c.4-3.8,2.8-1.5,3.9,1.4q-2.1,1.2-2.7,1.2c1.6-1.3-3-.5-1.2-2.6Zm-.4,5.3c-.2,.2-.2,.2-1.1-.5,1.5-2.1,3.9-1.6,1.1,.5Zm-1.5,26.6q-.2-2.5-1.2-3.7c1.2-3.3,3.1,2.7,1.2,3.7Zm-1.9-12.2c-.7,2.3-.2,5.4-1.3,7.9,0,1.5,1.5,3.8,.3,5.5,1.7,3.7,2.5,9.9,4.8,12.5-.3,.7-1,1.6,.5,1.7,1.3,1.7,1.4,5.1,2.8,5.1,1.2,11.9-6.4-1-7.6-4.7,.4-3.9-2.6-1.5-1.1-4.2,.7-1.9-2.1-1.8-.7-3.8-1.4-.6-1.7-5.3-1-6.9-1.5-3.3,.7-6.3,0-9.7,1.3-.9,3.3-8.3,1-7.4,.5-.3,1-.6,1.2,.3,1.5,.1,.6-5.2,2.8-2.2-2.2,0,.8,1.7-1.8,5.9Zm1.7-23.8c-.5,.9,0,2.4-1.6,2.1-1-.2,0,1.4-1,.9-.9,0-2.7,.6-2.8,1.7-2.4,.1-2,2.5-4.1,2-.5,1.7-1.8,2.1-3.3,2.4-1.2-1.5,1.3-1.2,1.5-2.7,.6-.8-.2-2.3,1.5-1-.3-3.4,4.5-1.5,2.8-3,.8-.6,2.1,.3,2.6-.9,.5-1.2,1.9,.9,2.3-.6-2.7-2,1.5,.3,2.2-.8Zm-18-2.9c-1.4-1.8-2-2.2,.3-3.1,.5,1.2-.8,1.3-.3,3.1Zm.6,.4c-.4-.5,.7-1.7,1.3-.8,.6-.7,.7-1.9,1.5-2.6,4.3,.2,10.9,1.2,14.2,5.1-3.5-.6-7.4,2.3-10.2,3.9-1.7,.3-1.9,3.3-3.5,2.8,.9-1.4-2-2-.7-3.5-.6-1.8-2.3-2.4-2.6-4.8Zm1,26.1c1.1-2,1.4-3.9,2.3-5.8,1.7-.9,.3-.5,.7-1.9,1.1,.7,2,2.2,.2,2.7q1,1.5,.1,1.9c1.1,.3,1.9,2.3,1.5,3.3-.7,.8,0,1.6,0,1.7-1,.4,.7,1-.2,1.5-.5,.3-.1,1.3-.2,2.2,2.3-2.3-.4,3.5,.7,4.6,.2,1.4,0,2.7,.9,4.1-1.3,1.4,.4,3.4-1.6,4,1.9,.4,0,2.2,.5,3.9-.9,.3-.2-1.2-1.1-.9-.2,0-.5,0-.4-.4,.2-2.6-.9-4.6-2.2-5.8,.4-5.2-3-9.6-1.2-15Zm-2.4,16.2c-.2-.6,.9-1.3-.2-1.9-.8-.5,.7-1.2,.2-2,1.2-1.5,.3-1.8,.5-3.8,1.2,1.7,1.5,5.2,1.8,6.7,.6,.7,3.5,5.8,2.4,7.4,3.3,.6,.5,1.6,1.6,2.5,1.3,2.1-.4,6.8-1.4,9.2-1.3-6-3.7-11.1-4.9-17.9Zm6.7,27.1c-.5,.5-1.8-.4-1.3-.9,.6-.2,1.1,.5,1.3,.9Zm-5,6c1.6-1.4,2.7-3.4,2.3-5,.8-.4,.8,1,1.4,.2-.4,2.1-1.1,3.3,1.9,4.1q-.6,1.1,.7,1.8c-2.4,1.2-4.2,.1-6.3-1.1Zm6.2,0c1.2-1.5-1.1-2.5-.8-3.6-.3-1.4,1.2-1.4,2.1,1.1,1.6-.8,2,1.5,2,2.6,1.3,.1,1.8-.8,1.5,1.1-1.5-.2-3.1-.3-4.9-1.3Zm16.4,8.5c-3.7,0-7.1,1.9-9.9-1.5-7.5-5.6,2.7-4.1,5.7-1.2,.3-.7,1.5,0,1.5-1.3,1.3,.5,1.3-1.2,2.5-.3,1.7,.5,1.8-2.3,3.1-2.1,3.7,2.4-4.4,4.3-2.8,6.5Zm2.4-16.8c-.4-1.3,1.3-.9,.3-2.4,2.6-.2,4.3,1.8,2.6,4.6,.9,.5,2-.6,.4,1.5-1.3-1.2-5.5-1.8-3.3-3.7Zm3.5,9.7c-4.2,1.2,.2-4.4,1-3.1-.3,1-1.1,1.9-1,3.1Zm9.7,4.8c-.5,.6-.9-.2-1.3-.4-.6-.3-1.6,.7-1.7,.2-1.6-2.1-3.9-.4-5.6-2.8,1.5-1.2,1.1-4.5,3.6-4,3.2,.4,4.4,4.6,6.1,3.5,.2,1-.5,1,.4,1.5,1.7,1.7-.1,1.3-1.4,2Zm1.3-3.9c0-.5-.2-.7-.5-.8-1-2.3-.7-2.7-.3-2.7,2.7,.2,5.1-2,7.2-3.5,0,4.1,4.6,1.4,5.6,2.6-4.2,3.3-7.1,9.3-11.9,4.4Zm17.3-17c-.3,1.2-1.7,1.8-1.6,3.1,0,4-2.7,9.1-7.6,6.8,1.9-4.8,6.5-7.6,7.4-12.9,.8,1.1,1.7,1.2,1,2.2-.8,1.2,.9,.1,.7,.8Zm1.5-17.7c-.3-.6-1.1-1.4-.3-1.9,.8-.6,.4,.3,.6,.5,.9,.7,0,1-.3,1.4Zm.6-2.7c-1.5,.3-.7-3-1.4-4.3,.4-2.8-1.6-4.9-1.5-7.3-.3-.6-.8-1.2-.1-1.9-.9-1.4,.5-1.6,1-.3,1.3,1.2-.5,2.6,.5,3.7,1.9,1.9-1.6,1.3,1.3,2.8-.4,1,.7,1.8,.8,2.3-1.3,1.7,.2,3.1-.6,5Zm2.7-14.1c-2.7-9.1-7-13.9-13.4-18.3-2.1-6.1,4.5-8.8,7.3-13.3,.8,1.2,1.9,.4,3.2,1.1,.8-.3-.2,1.5,1,.8,.6-.4,.7,.6,1.1,.7,.6,.1,1.5,0,1.8,.3,1.7,1,2.8,2.7,5.2,3.4-2.1,.7,.1,1,1.2,1.7-3-.1-1.9,3.9-4.5,3.6,.2,.5,.7,.3,1.2,.7-3.4,1.6-1.2,1.3-1.3,2.9-1.6-.6-1.7,3.4-1.8,5,0,.1,.4,.5,0,.5-1.2,0-.4,.9-.4,1-1,.3,.7,1-.2,1.4-.1,.8-1.1,2-.3,2.8-.9,.9,.5,1.6-.4,2.3l1.2,.6c-3.1,.9,.9,.2-.5,1.6,1.8,.8,.4,.4-.3,1.4Zm1.9,3c-.7,.9-1.7,.8-1.6-.8,.7,0,.9,.9,1.6,.8Zm.6,34.1c0-2-3-2.7-2-5q1.5,.7,.9,1.9c1.8,1.2,4.7,5.6,1.1,3Zm3.5,3.7c.2,.5,.5,1,.7,1.5q-1,0-.7-1.5Zm-2-7.4c-.3-.6-.5,.2-.9,.3-.3-1.8-1.3-3.1-1.9-4.7-1.7-1.6,1.9-8.5-.5-9.7,1.5-.4,.8-1.2,1-2.2-1.2-1.9,.2-4.1-.8-5.8-.4-.3-.3-1-.1-1.2,1.3-1.3-1.3-2.4,.2-4.1,2.1,2.2,.1,7.6,4.2,8.1,1.1-1.4-1-2-.7-3.6-.4-1.3-1.5-1.4-.7-2.7-.7-.5,.5-.9,0-1.2-1-.5,.8-1.4-.3-1.9-.9-.4-.3-1.4-.8-1.9-1.2-1.2,1.2-1.4-.8-2.1,.9-.7,.1-1.2,0-1.8,.6-1.3,.2-2.6,0-4,.3-1.2,1.5-2.5-1-2,2.5-2.4,1.8-5.8,3.1-8.5-.6-1.4,2.1-2.3,1.2-4.4,.5,.4,.7,.6,.9,.7,3.3-6.7,2.9,1.1,6.8,1.1-.5-.3,1.6-1-.2-1.1-.9-1.7-1.8-3.5-3.7-4.6,4.6-4.5,4,1.9,7.4,3.6-.5,1,1.1,1.7,.3,3,1.3,.4,2.8,3.9,2.1,4.9-.6,.6,1.8,1.1,1.5,1.6-.8,.6,.5,1.1,0,1.8,2.4,9,3.2-2.8,.7-4.8-.2-.6-.7-.5-1.1-.8,1.9-2.2-2.7-3.2-1.1-4.9-2-1.4-2.2-3.9-4.3-5.5,1.3-1.1-.4-.6-.5-1-1.1-4.3,5.9,1.1,4.8,3.3,.8-.4,2,0,1.6,1-1.1,1,.3,1.5,.3,2.3,.4,0,.9-.8,1.1,.4-.2,1.8,.5,1,.8,1.7-.6,.9,.6,1,.8,1.9-.6,1.4-.2,2,1,3-.4,1.2,.2,2.1,.4,3.6,.5,2-.9,4.3,1.2,5.6-2.1,1.3,0,.5-.9,1.5-1.2,.1-1.1-1-.7-1.6-1.3-2,0-2.9-2.6-1.4,1.1,1,0,2.1,.2,3-.9,2.1-.9-3-2.4-3.4,0-.7,.6-1.7-.3-2.5-2.6-2.4-2.4-7.9-5.3-9.1-.7-2.5-2.1-.3-1.6,1.2,1.9,.4,1.7,2,2.5,3.1,1.9,5.5,4.7,9.9,5.7,15.4-1.2,1.9,1.2,1,1,2.8-.9,1.5,1.4,4.1-.4,4.1,0,.6,.5,.4,.8,.4,1.4,0,.2,.8-.4,1.2,2,1.5,.8,5.4,.8,7.6-.3,.9-.3,1.5,.8,1.7-1.1,.9-.4,1.4-1,2.3,.9,1.2-.9,2.2-.1,3.4-3.1,4.2-2.9,13.2-7.6,4.1-2.2-2.3-3.9-6.4-5.6-8.3,.5-1.1,0-3-1.5-3.3,.5-3.1-1-.5-.6-2.2,.2-1.5-1-.1-.5-2.1-3.8-1.3-.5,2.8,0,3.8-1.6,.7,2.7,4.7,2,6.7,2.1,1,2.7,4.7,4.6,5.9,0,.9-.9,1.8,.7,2.1,1.5,.8,2,1.5,2.1,2.9,3.1,.1-.8,3.6-2.5,4,0,1.1-.4,.5-.9,.2-.6-.3-1.4,.9-1.9-.3-2.6-.8-4.3-4-6.1-6.6Zm47.7-29.6c-2.2,1.8,.1,4.7-1.2,7.3-4.1,14.1-8.2,30.3-22.3,38.6-5.8,3.4-14.1-1.8-20.8-5.8,.5-.6-.4-1.5,.7-2,1.7,2.2,1.1-.9,3,1.6,1.3-.5,1.9,.7,3.5,0,1.3,.5,.5-2,1.7-.6,0-2.3,2.4-.3,2.1-2.7,0-1.2,1-1.2,1.6-.8,.7,1.4,2.5,.7,3.5,2.1,.5,.6,1.2-1.1,1.2,.3,0,1.2,.7-.4,1,.1,.8,.8,1.5-.2,2.6,.4,2.5-2.5,9.5-4.7,7.7-9.7,4.8-1.7,3.7-13.8,5-18.7-1.2-2.6,.9-4.8-.6-7.2-.8-1.1,.2-2-.4-2.8-1.4-1.6,.6-4.7-1.6-5.4,0-5-3.6-5.8-1.9-7.4-1.7-3.2-3.3-7-5.1-9.8-1.9-.3,0-1.2-.8-1.9-.9-.8-2.4-.5-1.4-2.5-2.1-1.4-2.5-4.2-5.1-5.2-1.6-.9-.4-2.8,.9-2.3,1.1-1.8,3.5-.1,4,.7,2.2-2.2,2,.7,3.4-.4,1.1,.4,1.3,.6,2.5,1.4,.6,.7,1.9-.3,2.1,.6,.2,1.2,1.2,.9,1.8,1.2,.6,1.7,2.6,.9,2.6,2.6,0,.8,.4,.8,.8,.2,.8,1.6,.6,2,1.8,1.9,.1,1.3,.5,2.2,1.8,2.8,.6,.3,.5,.9,.5,1.4,0,1.1,1.3,1.5,1,2.8-.2,.5-.9,.8,.3,.9,1.7,.1-.5,1.6,.9,2.2,1.4,.8,1.3,.8,.1,2.3,.8,.9,.8,2.7,1.3,4.1-.5,1.2,1.2,1.6,1.3,2.9-2.9,1.9,1.4,1.1-1.1,3,2.4,.5-.2,1.5,.8,2.4,1,.2,1,.5,.5,1.2Zm-86.5,1.1q-.8,.2-1.2,.5l.5,1.1c-.4-1,1-1,.7-1.6Zm35.8-43.9c0,.1,0,.2,0,.4h.2c0,0-.2-.2-.3-.4Z" />
		<g id="f">
			<g>
				<path class="k" d="M401.9,489.2c-2.8-3.4-5.9-6.3-8-9.8-5.8-9.5-3.2-18.7,4.2-26.1,2.6-2.6,5.8-4.7,8.7-7,.6-.5,1.2-.9,1.8-1.4-3.2-2.7-6.7-4.9-9.2-7.8-8.4-9.8-7.5-17.6,2.2-26.3,7-6.3,15.5-10,24.4-12.8,16.3-5.2,33.1-8.2,50.2-8.4,12-.1,24.1-.2,36.1,.7,15.8,1.2,31.4,4.2,46.2,10.1,8.7,3.4,17.1,7.6,23.4,14.9,6.4,7.4,6.2,16.1-.4,23.3-4.3,4.7-9.6,8-15.2,10.8-.4,.2-.8,.4-1.4,.8,6.7,5.5,12.6,11.4,12.7,20.6,0,9.2-5.4,15.4-11.9,20.9,2.3,2.7,4.8,5.2,6.8,8.1,5.5,7.6,5.5,16.5,.2,24.3-4.1,6-9.7,10.2-16,13.7-12.5,6.7-25.9,10.4-39.8,12-10.5,1.2-21.1,2.2-31.7,2.1-18.4-.1-36.6-2.6-54.2-8.4-11.5-3.7-22.4-8.4-31.3-16.8-6.1-5.8-10.5-12.5-8.7-21.6,.9-4.6,3.4-8.5,6.7-11.9,1.4-1.4,2.9-2.8,4.3-4.1Zm86.1-95.1c-5.2,.3-10.5,.5-15.7,.8-14,.8-27.7,2.9-41.1,7.4-8.1,2.7-16,6-22.4,12-4,3.7-6.2,8-4.8,13.6,1.1,4.1,3.9,7,7,9.7,3.1,2.8,6.1,4.7,10,1.6,.3-.2,.7-.2,1-.3,11.8-4.2,24-6.9,36.4-8.4,12.7-1.5,25.5-1.8,38.2-.9,10.5,.7,20.8,2.4,31,4.9,9.6,2.3,18.8,5.2,27.4,10.1,2.5,1.4,4.7,1.8,7.2,0,1.9-1.5,4.4-2.3,6.1-4.1,2.7-2.8,5.7-5.8,7.1-9.3,2.5-6.1-.5-11.3-5-15.5-8.2-7.7-18.4-11.4-28.9-14.4-17.5-5.1-35.5-6.8-53.7-6.9Zm-79.5,99.3c-.7,.7-1.3,1.2-1.9,1.8-7.1,6.9-8,15.1-2.9,23.4,3.2,5.1,7.7,8.7,12.6,11.8,9.7,6,20.3,9.5,31.3,12.1,17.7,4.2,35.6,5.4,53.7,4.2,15.8-1,31.2-4.1,45.7-10.8,6.9-3.3,13.1-7.6,17-14.3,5.2-8.9,2.2-17-4.6-24.1-.4-.4-1.7-.4-2.4,0-2.3,1-4.6,2.2-6.9,3.2-15,6.4-30.9,9.3-47,10.2-11.3,.6-22.7,.3-33.9-.4-21.2-1.4-41.7-6.2-60.7-16.8Zm6.2-4.8c32.9,22.5,108,23.4,138.1,3.1-3.3-1.8-6.3-3.8-9.6-5.3-14.1-6.8-29.2-10.1-44.7-11.6-13.1-1.3-26.2-1.3-39.3,.4-11.9,1.5-23.5,4.1-34.7,8.6-3.3,1.3-6.4,3.1-9.8,4.9Zm68.2-19.9c5.3,.4,12.7,.8,20.1,1.5,13,1.2,25.8,4,38,8.6,5.7,2.2,11.1,5.2,16.7,7.8,.7,.3,1.9,.4,2.3,0,3.4-3.2,6.3-6.8,7.2-11.5,1.6-8.5-2.7-14.6-8.5-20-1.5-1.4-2.9-1.6-4.9-1-16.1,5.3-32.9,7.4-49.7,8.1-15.6,.7-31.2,0-46.7-2.4-12.2-1.9-24.4-4.1-35.7-9.1-5-2.2-8.2-1.3-12,1.9-11.1,9-12,20.8-2.3,30.4,1.3,1.3,2.1,1.1,3.5,.5,5.2-2.3,10.4-4.8,15.7-6.7,17.5-5.9,35.7-7.5,56.2-8.2Zm-59.4-24.1c24.5,14.5,106.6,17.3,126.6,4.3-19.6-10.4-40.5-14.2-62.1-14.8-22-.6-43.6,1.6-64.5,10.5Z" />
				<path class="k" d="M486.5,552.2c-.4,0-.9,0-1.3,0-19.8-.2-37.5-2.9-54.3-8.4-10.2-3.3-22-8-31.4-16.9-9.9-9.4-9.8-16.9-8.8-21.8,.9-4.3,3.2-8.3,6.8-12,1-1,2-1.9,3-2.9,.4-.4,.8-.7,1.1-1.1-.8-1-1.7-2-2.6-2.9-2-2.2-3.9-4.3-5.3-6.7-5.4-8.9-3.9-18.3,4.2-26.4,1.8-1.8,3.9-3.4,6-4.9,.9-.7,1.8-1.4,2.7-2.1,.4-.3,.8-.6,1.2-1l.3-.2c-.9-.8-1.9-1.5-2.9-2.3-2.3-1.7-4.4-3.4-6.1-5.4-8.4-9.8-7.7-17.7,2.2-26.6,6.1-5.5,13.7-9.4,24.5-12.9,16.9-5.4,33.8-8.2,50.3-8.4,10.9-.1,23.7-.2,36.2,.7,17.3,1.3,32.4,4.6,46.3,10.1,8.3,3.3,16.9,7.4,23.5,14.9,6.5,7.4,6.3,16.3-.4,23.6-4.8,5.2-10.7,8.6-15.3,10.9-.2,.1-.5,.3-.8,.4,0,0-.2,.1-.3,.2,6.3,5.3,12.4,11.3,12.5,20.6,0,9.5-5.9,15.9-11.8,20.9,.7,.8,1.4,1.6,2,2.3,1.6,1.8,3.2,3.6,4.6,5.6,5.5,7.5,5.6,16.7,.2,24.6-3.7,5.4-8.9,9.9-16.1,13.7-11.7,6.3-24.7,10.2-39.9,12-8.4,1-19.3,2.1-30.4,2.1Zm.5-162.3c-3.7,0-7.4,0-10.8,0-16.4,.2-33.3,3-50.1,8.4-10.7,3.4-18.2,7.4-24.3,12.8-9.7,8.7-10.4,16.4-2.2,25.9,1.7,2,3.8,3.6,6.1,5.3,1,.8,2.1,1.6,3.1,2.5l.2,.2-.8,.6c-.4,.3-.8,.6-1.2,.9-.9,.7-1.8,1.4-2.7,2.1-2,1.5-4.1,3.1-5.9,4.9-7.9,7.9-9.4,17.1-4.1,25.8,1.4,2.4,3.3,4.4,5.3,6.6,.9,1,1.8,2,2.7,3.1v.3c-.4,.4-.9,.8-1.3,1.2-1,.9-2,1.9-3,2.9-3.6,3.6-5.8,7.5-6.7,11.7-1.5,7.7,1.1,14.2,8.6,21.3,9.3,8.8,21,13.4,31.2,16.8,16.7,5.5,34.5,8.2,54.2,8.4,11.5,.1,22.9-1.1,31.6-2.1,15.1-1.8,28.1-5.7,39.8-12,7.1-3.9,12.2-8.2,15.9-13.6,5.3-7.8,5.3-16.6-.2-24.1-1.4-1.9-3-3.8-4.6-5.5-.7-.8-1.5-1.7-2.2-2.5l-.2-.2,.2-.2c10.5-8.8,11.9-15.4,11.8-20.7,0-9.2-6.3-15.2-12.6-20.5l-.3-.2,.3-.2c.2-.1,.4-.2,.6-.3,.3-.2,.6-.3,.8-.5,4.6-2.3,10.4-5.6,15.1-10.8,6.5-7.1,6.7-15.7,.4-22.9-6.5-7.5-15-11.5-23.3-14.8-13.8-5.5-28.9-8.8-46.2-10-8.5-.6-17.2-.8-25.3-.8Zm1.6,157.4c-14.1,0-27.8-1.6-41-4.7-13.2-3.1-22.9-6.9-31.4-12.1-6-3.7-9.9-7.4-12.7-11.8-5.3-8.5-4.3-16.7,2.9-23.7,.4-.4,.8-.7,1.2-1.1,.2-.2,.4-.4,.7-.6h.3c17.3,9.7,37.1,15.2,60.6,16.8,12.2,.8,23.3,.9,33.9,.4,17.6-.9,32.9-4.2,47-10.1,1.1-.5,2.2-1,3.2-1.5,1.2-.6,2.4-1.2,3.7-1.7,.7-.3,2.1-.4,2.6,.1,7.7,8.1,9.3,16.3,4.6,24.4-3.5,6-8.9,10.6-17.1,14.4-13.1,6.1-28.1,9.7-45.8,10.9-4.3,.3-8.6,.4-12.8,.4Zm-80-53.6c-.2,.2-.4,.3-.6,.5-.4,.4-.8,.8-1.2,1.1-7,6.8-8,14.8-2.8,23.1,2.7,4.4,6.6,8,12.5,11.7,8.4,5.2,18.1,8.9,31.2,12,17.1,4,35.1,5.4,53.6,4.2,17.6-1.2,32.6-4.7,45.6-10.8,8.1-3.8,13.5-8.3,16.9-14.2,4.6-7.9,3-15.9-4.5-23.8-.3-.3-1.4-.3-2.1,0-1.2,.5-2.5,1.1-3.7,1.7-1.1,.5-2.1,1-3.2,1.5-14.1,6-29.5,9.3-47.1,10.2-10.6,.5-21.8,.4-34-.4-23.5-1.6-43.3-7-60.6-16.8Zm80.1,12.8c-1.3,0-2.5,0-3.8,0-28.6-.5-54.8-7.1-70.2-17.6l-.4-.2,.4-.2c1.1-.6,2.2-1.1,3.2-1.7,2.3-1.2,4.4-2.3,6.6-3.2,10.4-4.2,21.8-7,34.7-8.6,12.6-1.6,25.9-1.7,39.4-.4,17.3,1.7,31.9,5.5,44.8,11.7,2.2,1.1,4.3,2.3,6.5,3.5,1,.6,2,1.2,3.1,1.8l.4,.2-.3,.2c-13.7,9.2-37.5,14.5-64.3,14.5Zm-73.4-17.8c15.4,10.3,41.3,16.8,69.6,17.3,28,.5,53.2-4.8,67.5-14.2-.9-.5-1.8-1.1-2.7-1.6-2.2-1.3-4.3-2.5-6.5-3.5-12.8-6.1-27.4-9.9-44.6-11.6-13.5-1.3-26.7-1.2-39.3,.4-12.9,1.6-24.3,4.4-34.6,8.5-2.2,.9-4.3,2-6.6,3.2-.9,.5-1.9,1-2.9,1.5Zm143.9-1.5c-.5,0-1.1-.1-1.5-.3-2-.9-4-1.9-5.9-2.9-3.5-1.7-7.1-3.6-10.8-4.9-11.6-4.4-24.3-7.2-37.9-8.5-5.2-.5-10.4-.9-15-1.2-1.8-.1-3.5-.2-5.1-.4-21.3,.7-39,2.4-56.1,8.2-4.1,1.4-8.1,3.2-12,5-1.2,.6-2.5,1.1-3.7,1.7-1.3,.6-2.3,.9-3.8-.5-4.7-4.6-7-9.8-6.8-15.1,.3-5.6,3.4-11,9.1-15.7,3.6-3,6.9-4.3,12.3-1.9,11.5,5.1,23.9,7.3,35.6,9.1,14.7,2.3,30.3,3.1,46.6,2.4,19.5-.8,35.3-3.4,49.7-8.1,2.1-.7,3.6-.4,5.1,1,5.2,4.9,10.3,11.2,8.6,20.3-.8,4.1-3.1,7.8-7.2,11.7-.2,.2-.7,.3-1.1,.3Zm-76.2-18.7h0c1.5,.1,3.3,.2,5.1,.4,4.6,.3,9.8,.7,15,1.2,13.6,1.3,26.4,4.2,38,8.6,3.7,1.4,7.3,3.2,10.8,5,1.9,1,3.9,2,5.9,2.9,.7,.3,1.8,.3,2,0,4.1-3.7,6.3-7.4,7.1-11.4,1.7-8.8-3.3-15-8.4-19.8-1.4-1.3-2.7-1.6-4.6-.9-14.4,4.7-30.3,7.3-49.8,8.1-16.3,.7-32-.1-46.7-2.4-11.8-1.8-24.2-4-35.8-9.1-5.1-2.3-8.2-1-11.8,1.9-5.6,4.5-8.6,9.8-8.9,15.3-.2,5.1,2.1,10.2,6.6,14.7,1.2,1.2,1.9,1,3.2,.4,1.2-.5,2.5-1.1,3.7-1.7,3.9-1.8,7.9-3.6,12-5,17.1-5.8,34.8-7.5,56.2-8.2h0Zm15.7-10.9c-3.3,0-6.7,0-10.2-.2-28.8-1-53.8-5.8-65.1-12.5l-.4-.3,.5-.2c18.5-7.9,39-11.2,64.6-10.5,24.7,.7,44.4,5.4,62.2,14.9l.4,.2-.4,.2c-8.2,5.3-27.5,8.4-51.6,8.4Zm-74.6-12.9c11.5,6.6,36.1,11.2,64.4,12.2,28.4,1,51.7-2.1,61.1-7.9-17.6-9.3-37.2-13.9-61.6-14.6-25.3-.7-45.6,2.6-63.9,10.3Zm134.9,1.2c-1.4,0-2.7-.6-3.9-1.2-9.3-5.2-19.5-8.1-27.4-10-10.3-2.5-20.8-4.2-31-4.9-12.8-.9-25.6-.6-38.2,.9-13.2,1.6-25.1,4.3-36.4,8.4-.1,0-.3,0-.4,.1-.2,0-.4,0-.5,.2-4.2,3.3-7.4,1-10.3-1.6-3-2.6-6-5.6-7-9.8-1.3-5.1,.3-9.6,4.9-13.8,6.6-6.1,14.7-9.4,22.5-12,12.2-4.1,25.7-6.6,41.1-7.4,3.6-.2,7.2-.4,10.8-.5,1.6,0,3.3-.2,4.9-.2h0c21.1,.2,38.2,2.4,53.8,6.9,10.1,3,20.7,6.8,29,14.5,5.5,5.1,7.2,10.4,5,15.8-1.3,3.3-4,6-6.5,8.7l-.7,.7c-1,1-2.3,1.8-3.6,2.5-.9,.5-1.8,1-2.5,1.6-1.3,1-2.5,1.3-3.6,1.3Zm-76.5-17.2c4.8,0,9.5,.2,14.3,.5,10.3,.7,20.7,2.4,31.1,4.9,7.9,1.9,18.1,4.8,27.5,10.1,2.8,1.6,4.8,1.6,6.9,0,.8-.6,1.7-1.1,2.6-1.6,1.3-.7,2.5-1.4,3.4-2.4l.7-.7c2.5-2.6,5.1-5.4,6.4-8.6,2.1-5.2,.5-10.2-4.9-15.2-8.2-7.7-18.7-11.5-28.8-14.4-15.6-4.5-32.6-6.7-53.6-6.9-1.6,0-3.3,.2-4.9,.2-3.6,.2-7.2,.3-10.8,.5-15.4,.8-28.8,3.3-41,7.4-7.7,2.6-15.8,5.9-22.3,11.9-4.5,4.2-6,8.4-4.7,13.3,1.1,4.1,3.9,6.9,6.9,9.6,2.9,2.6,5.8,4.6,9.7,1.6,.2-.2,.5-.2,.7-.3,.1,0,.2,0,.4,0,11.3-4,23.3-6.8,36.5-8.4,7.9-1,16-1.4,24-1.4Z" />
			</g>
		</g>
	</g>
</svg>