<svg xmlns="http://www.w3.org/2000/svg" xmlns:xlink="http://www.w3.org/1999/xlink" viewBox="0 0 640 640">
	<defs>
		<style>
			.k {
				fill: url(#f);
			}
			.l {
				fill: #202222;
			}
			@media (prefers-color-scheme: dark) {
			  .l {
				  fill: #f1f3ee;
			  }
			}
		</style>
		<radialGradient id="f" cx="275.5" cy="478.1" fx="275.5" fy="478.1" r="594.4" gradientTransform="matrix(1, 0, 0, 1, 0, 0)" gradientUnits="userSpaceOnUse">
			<stop offset="0" stop-color="#ffb887" />
			<stop offset=".4" stop-color="#b3f487" />
			<stop offset=".6" stop-color="#b3f487" />
			<stop offset=".9" stop-color="#1acc6c" />
		</radialGradient>
	</defs>
	<g id="a" />
	<g id="b" />
	<g id="c" />
	<g id="d">
		<g id="e">
			<path class="k" d="M362.6,307.6c-.7-.2-1.4-.4-2.1-.5-12.6-3-24.7-7.4-36.3-13.2-26.9-13.3-50.5-31.1-70.5-53.4-13.1-14.6-24.5-30.1-30.9-48.9-3.1-8.9-4.9-17.9-3.4-27.3,1.8-10.8,7.3-19.1,17.7-23.4,8.4-3.5,17.4-4.1,26.2-2.8,8.8,1.2,17.4,3.5,26.1,5.2,2.4,.5,5,.8,7.5,.5,2.8-.4,3.5-2.4,1.6-4.5-4.1-4.5-8.2-9.2-12.8-13.3-15.6-13.6-32.7-25.1-51.6-33.7-18.4-8.4-37.5-13.7-60.2-13.7-2.5,.1-7.4,.2-12.3,.8-16.9,2.1-32.1,8.3-45.5,18.8-17.8,14-28.7,32.8-35.7,53.9-2.4,7.3-3.9,14.9-5.6,22.4-3.3,14.2-3.8,28.8-3.7,43.3,.2,15.1,1.9,30.1,4.4,44.9,3.2,18.5,7.9,36.6,14,54.3,6.5,18.8,14.1,37.2,23.7,54.6,7,12.6,14.2,25.1,22.1,37.2,9,13.8,19.4,26.5,30.2,38.9,10.1,11.5,21.1,22,32.8,31.8,11.8,9.9,24.5,18.7,38.2,26.1,19.3,10.5,39.7,17.3,61.7,19.2,6.5,.6,8.4-.5,10.3-6.8,6.1-20.6,12.1-41.3,18-62,5.3-18.8,10.2-37.7,15.3-56.5,5.9-21.7,11.9-43.4,17.8-65.2,2-7.2,3.9-14.4,5.9-21.5,1-3.7,.9-4.2-3-5.2Z" />
		</g>
		<g id="g">
			<path class="l" d="M392.6,554.8c-5.3,.3-11.1-1.2-15.9-5.3-6.2-5.3-7.4-12.5-6.3-20.2,2-13.7,14-19.6,24.9-19.1,3.6,.2,7.3,.9,10.7,2.2,6.6,2.4,10.6,7.3,11.7,14.3,1.3,8.1-.2,15.6-6,21.5-4.9,4.9-11.3,6.8-19.2,6.6Z" />
			<path class="l" d="M419.2,507.7c-8.8,.2-14.9-4.1-19.6-10.8-2.3-3.2-2.5-7.1-1.4-10.7,2.7-9.6,7.8-17,18.2-19.4,8.3-1.9,15.6-.3,21.5,6.4,2.7,3.1,5.5,5.9,6.5,10.1,.8,3.8,0,7-1.8,10.5-4.5,8.2-11.5,12.1-20.3,13.7-.4,0-.9,.2-1.3,.2-.6,0-1.3,0-1.7,0Z" />
			<path class="l" d="M442.9,510.5c4.6-.7,9.2-.8,13.5,1.2,6.7,3,11.9,7.7,14.4,14.6,3.1,8.6-1.9,16.5-8.3,20.7-7.9,5.1-16.6,6-25.6,3.5-9.8-2.7-14.5-13.2-13-22.6,1.4-8.9,8.1-13.2,15.3-16.9,1-.5,2.5-.4,3.7-.5Z" />
		</g>
		<g id="h">
			<path class="l" d="M412.3,357.5c.4-1.2,.6-2.4,1.2-3.3,11.7-15.5,25.4-28.6,43.9-35.7,7.6-2.9,15.4-4.7,23.5-5.5,12.7-1.3,24.5,1.3,35.6,7.3,9.2,5,13.8,13,14.7,23.4,1.1,12.3-3.8,22.4-11.3,31.6-1.3,1.6-2.6,3.2-4.1,4.9,4.7,1.1,9.2,2,13.6,3.3,8,2.4,15.4,5.8,21.5,11.8,2.7,2.6,4.8,5.4,6.3,8.9,3,6.8,1.9,13.1-1.6,19.3-1.1,1.9-2.3,3.6-3.4,5.3,5,1.8,10.2,3.2,15,5.5,8.7,4.2,15.6,10.5,18.4,20.2,2.6,9.1,1,17.5-4.7,25-6.1,8-14.7,12.3-23.8,15.5-5.6,2-11.3,3.4-16.7,4.9,1.8,2.6,4.1,5.4,5.8,8.5,6.1,10.9,5.2,21.8-1.3,32.1-7.5,11.9-19.1,18.6-31.8,23.7-8.5,3.4-17.3,5-26.5,4.4-16.1-1-28-8.6-36.1-22.5-3-5.2-4.6-10.6-4.6-16.4,0-2.8,.5-5.6,1.1-8.3,.7-3,3-4,6.7-3.3,2.6,.5,3.1,2.2,3,4.6-.5,9.7,1.6,18.7,7.4,26.6,7.1,9.5,16.3,14.7,28.3,13.9,8.1-.5,15.7-3.3,22.7-7.2,7.8-4.4,14.8-9.9,19.7-17.7,7-11,5.3-28.5-5.3-36.7-.8-.6-1.9-1-2.9-1-11.6,.1-23-1.4-33.8-5.7-1.9-.8-3.9-1.7-5.4-3-1.1-.9-2.4-2.6-2.3-3.9,0-1,2-2.5,3.2-2.7,3.7-.7,7.5-1.3,11.2-1,9.9,.8,19.4,3.4,28.4,7.7,2.1,1,4.6,2.6,6.7,2.4,13.4-1.8,26.2-5.6,35.4-16.4,6.2-7.3,7.5-15.9,4.3-24.8-3.7-10.3-12.1-15.2-22-18.1-.6-.2-1.2-.3-1.8-.5-2.3-.8-3.9-.3-6,1.4-13.3,11.1-28.7,18-45.7,21.2-7.4,1.4-15.1,1.8-22.5-1-4.4-1.7-7.7-6-2.5-11,5-4.8,11.1-7.7,17.5-10,9.9-3.6,20.2-5.9,30.7-6.6,5.7-.4,11.5-.4,17.2-.8,1.2,0,2.6-.8,3.3-1.8,8.9-11.5,7.6-22.6-3.9-31.2-8-5.9-17.4-8.3-27.1-9.6-.6,0-1.5,.4-2.1,.8-4.4,3.1-8.6,6.6-13.2,9.4-11.7,6.9-24.3,11.5-38.2,10.6-3-.2-6.3-1.3-8.7-3-3.5-2.3-3.3-6.7-.2-10.3,5.3-6.2,12.4-9,20-11,10.8-2.9,21.8-3,32.8-2.7,2.6,0,4.2-.9,6-2.8,4-4.5,7.4-9.3,10-14.7,3-6.4,4.1-13,2.7-20-.6-3.2-1.4-6.5-2.8-9.4-3-6.4-9-9.1-15.1-11.5-10.8-4.1-21.7-3.7-32.6-.5-12.7,3.7-23.7,10.2-33.3,19.2-5.2,4.9-10.2,9.9-15.4,14.7-2.4,2.2-5,4.3-9.1,3.2Zm122.9,76.1l-.2-.8c-2.9,.2-5.7,.5-8.6,.7-11.2,.8-22,3-32.4,7.2-4.4,1.8-8.9,3.7-11.7,7.9-1.4,2.1-.8,3.9,1.7,4,4,.1,8.1,.2,12-.5,14.8-2.6,27.6-9.3,39.2-18.6Zm-35.6-49.3c-1.2-.2-2-.4-2.7-.4-7.4,.7-14.9,1-22.3,2.3-5.8,1-11.4,3.4-15.3,8.2-1.4,1.6-3,3.8-1.4,5.5,1.1,1.2,3.8,1.6,5.6,1.3,3.8-.5,7.6-1.4,11.2-2.6,9.2-2.8,17.3-7.7,24.9-14.4Zm-1.6,105l-.2,.7c5.3,2.8,15.8,5.3,19.1,3.9-6.8-1.6-12.8-3.1-18.9-4.6Z" />
		</g>
		<g id="i">
			<path class="l" d="M372.7,352.3c-1.6,3.4-3.1,6.7-4.7,9.8-2.8,5.6-5.5,11.3-8.4,16.9-1.7,3.2-3.1,3.6-7.1,1.8-2.5-1.1-4.6-2.9-5.1-5.9-.4-2.1-.7-4.3-1-6.5-.5-4.1-1.1-8.1-1.6-12.2l-.9-.5c-6.6,4.6-13.3,9.2-19.9,13.8-2.1,1.5-4.3,3-6.6,4.3-.6,.3-2.1,0-2.5-.6-1.8-2.1-1.8-4.6-.9-7.1,1.1-3.4,2.4-6.8,3.4-10.2,1.4-5.1,2.6-10.2,4-15.7-1.1,0-2.1,.1-3.1,.1-8.4,0-16.9,0-25.3,0-3.1,0-6-1.2-8-3.8-1.3-1.8-1.5-3.5,.2-4.9,5-4,10.1-7.9,15.1-11.8,1.4-1.1,2.8-2.1,4.5-3.4-3.5-2.2-6.7-4.1-9.8-6.3-3.8-2.7-7.6-5.5-11.1-8.6-1.1-.9-1.7-3.1-1.4-4.6,.1-.8,2.4-1.6,3.8-1.8,10-1.5,20.1-2.8,30.1-4.1,.1,0,.2-.2,.5-.5-4.3-6-8.8-11.9-13-18-1.4-2-2.4-4.2-3.1-6.5-.7-2.5,.7-4,3.2-3.3,3.1,.8,6.1,1.9,9,3.3,5.2,2.4,10.3,5.1,15.5,7.7,1.3-5.9,2.5-11.6,3.9-17.4,.9-3.9,1.9-7.9,2.9-11.8,.8-2.8,3.8-3.9,6.6-2,1.9,1.3,3.8,2.9,4.9,4.8,3.7,6.2,7.1,12.5,10.7,19.1,1-.6,2-1.2,3-1.8,7.1-3.8,14.4-7.4,21.4-11.3,2.3-1.3,4.2-2.9,7-1.5,1.4,.7,2.1,1.3,1.8,3.3-.9,6.6-4.5,12.1-7.2,17.9-1.6,3.3-3.4,6.5-5.2,9.9,8.7-1.5,17-3.1,25.4-4.4,3.8-.6,7.7-.9,11.6-1,2.8,0,5.1,1.3,6.7,3.8,1.2,2,.9,3.6-1.1,4.8-4.7,2.9-9.5,5.8-14.2,8.8-5.1,3.2-10.1,6.5-15.4,9.9,5.1,5.4,10.1,10.6,14.9,15.8,4.8,5.3,10.8,9.5,14.4,16.8-9.9,.9-18.4-2.5-27.6-3.5,.5,2.3,1,4.3,1.5,6.4,2.1,9.6,2.4,19.4,2.2,29.1,0,4.3-2.5,5.5-6.2,3-3-2.1-5.7-4.9-8.2-7.7-3.3-3.9-6.2-8.1-9.4-12.4Z" />
		</g>
		<path id="j" class="l" d="M279,496c.5-1.7-.1-3.1-1.6-3.9,.5,.3-1.6,1,.2,1.1,.9,.8-1.3,1-1.8,1.3,1,.5,2,3.2,3.2,1.6Zm1.3,2.4c1,0,.9-1,1.2-1.6-.5-1.6-3.4,.6-1.2,1.6Zm15.6-6.4c.9,0,.4,2.2,1.6,0,.1-1.4-3.5,0-1.6,0Zm-25.6-25.6c-1.1-.1-3.2-.5-2.2-1.6-1.6,.5-3.2,3.4-2.3,4.3,.3,.1,1.2-.1,1.1-.2-1.7-2,3.3-.4,3.4-2.5Zm3.6,39.3c-.9,.7,.4,1.4,1.1,1,.8-.5-.2-1.5-1.1-1Zm-2.7-14.2c-.3-1.3,1.1-5.7-1.9-4,1.2,.5-.7,1.8,.6,2.3,.2,0,.7,.6,0,.6-2.2,1.5,1.7,3.9,1.2,1.1Zm5.7,4.9c-3-.2,.8,4.3,.5,.5,.3-.5-.1-.5-.5-.5Zm1-4.9c3.2-2.4-2.2,.4-1.3-1.1,1.7,0-.6-1.2,.4-2-.1-4.2-4.9,7.3,.9,3.1Zm-5.2-33.9s0,0,0,0c0,0-.2-.1,0,0Zm1.6,46.6c1.3-1.2-1.4-.9-1.1,.3,0,.9,2.4,.6,1.1-.3Zm-2.8-5.5c1.9,.7,.4-6.3-1.7-4.7-.9,.5,.2,.7,.6,1-1.4,1.1,2.7,2.9,.1,3.2,0,.6,.8,.1,1,.6Zm2,3.6c-.8,2.6,3.4-1-.8-2.5-.5,1.4-2.1,1-1,2.9,.7-.2,2.3-3,1.8-.4Zm5-2.7c-.2,0-.7,.2-.2,.4,.6,2.4,2.3-.3,.2-.4Zm82-73.6c2-.2,.6-1.6-.7-1.1,0,.5-.2,1.1,.7,1.1Zm-3.9,10.8c-1.9,.7-1.3,.8-.8,2.1-1.5,1.5,3.8,.2,.8-2.1Zm-68.8,14.8c0,2.1,.7,.1,1.1-.6q-1.1-.6-1.1,.6Zm-9.5,11.9c-.2-2.3-2.4-5.7-2.7-.6-1.3,.8,1,2.1,1.3,.6,1.6,4.2,6.6,5.8,1.4,0Zm77.6-35c0,1.5,2.5,0,1.3-1-.2,.7-1.2,.3-1.3,1Zm-80.1,32.3c0-.3-.1-.6,0-.7,1.4-2.2-2.8,.2,0,.7Zm118.2-44.6c-12.6-49.9-55.2-27.2-70.5,8-30.2-48.2-66.4,.5-69.6,37.9-5.2,40.6,30.6,96.2,66.1,47.2,39.9,71.3,86.8-56.4,74-93.1Zm-39.5-18.1c11.1-16.7,32,9.5,27,16.5-2.9-3.1-1.9-6.8-4.5-9.5-.9-.4,1.1-.3,.7-.9-1.5-.1,.1-1.2-1.1-1.2-3.7-3.9-4.3-7.1-8-8-.6-1.5-2.4,1.1-2.8-.9-.7-.7-1.1,2-2.4,.3-2.9,.3-8,2-7.4,4.9-1.9,.5-4.5,3-6.3,4.4-6,9.4-.5-2.7,4.8-5.5Zm13.9,18.7c.5,2.2,3.2,3.2,2.1,5.7-2,1.1,.5,3.6-2.7,3.3-1-1.7,.8-4.8-2.5-4.3,2.8,2.3-1.6,3.7-.6,4.6,.4,2.7,2,6.3,1.3,9-2.2,.9,2.1,0,.5,1.3,.6,2.4-3.6,7-.2,8.7-1.2,2-3.1,2.5-3.2,4.9,1.5,1.6-2.5,.6,.5,2.3-.7,.5-1.8,.6-2.3,1.7-.1,2.7-6.6-.1-4.9,2.5-1.5,1.3-1.4-3.7-3-4.1,0-1.2,2.5,.2,1.2,.7,2.3-1.8,1.8-6.6,3.3-8.2-2.4-.5,0-2.7-.5-3.8-5.1-.4,.7,5.4-3.2,6.6-1,.2,.3,3-1.5,1.8-.3-2.6-1.3-5.8,.5-7.5-1.8-1.9-2.6-3.3,.8-2.6,.8-1.2-2.8-1.5-1.9-2.7,1.1-1.6-1.6-3.5,.4-4-1.6-.9-1.7-.3,0-1.2-.2-.4-2.6-.7-1.8-1.3,3.8-3.3,1.8,1.7,4.3,2.2-.2,1.8-2.6,.9-.2,3,.2,1.1,1-.5,1.6,0,2.6-2.3-2-6.1-2.1-9.5,2.3-1.9,2.9,1,5.3-1.2-1.6-3.8,4.4,3,3.7,.1-1.2-.3-1.2-2.4-1.2-2.8-2.8-2.3-2.3,2.4-3,.2-.2-2.1-9.8,6.2-8-1.4,.9-.7,.6-2.2,.7-3.2-.5-1.8,1-2,.2-3.8,.2-1.8,1.2,1.8,1.1-.4,.9-2.1-1.7-2.6,1.1-2.2-2.5-4.6,.4-.4,2.7-2.2,3.2,.9,4.4,5.3,7.7,5.7,1.1-1.3,1.1-.6-.5-1.4,2.2-.5-1-2-1.1-3.4,3.1,.6,4.3,2.8,5.3,6.6Zm.1,10.3c-.2-1.5,3.2,1.1,2.4,.8-1.6-1.7-.7,1.8-2,1.2-1.1-.7,.7-1.1-.3-2Zm1.1,4.2c-.1-1.3,1.6,0,1.6,.3-.7,.5-3,1.5-1.6-.3Zm1.6-4c-.2-.1-.5-.3-.7-.4,.2,0,.7,.1,.7,.4Zm-4.9,35.6c0-1.3,1.3,.3,1.1,.8-.7,.7-1.3,0-1.1-.8Zm-8.3-4.2c.7,1.8-1.7-.3-1.8-.5,1.4-1.2,1.6-.7,1.8,.5Zm-8.6,50.2c-1.5,6.1-2.5,2.6,.5,5.1-2.4-.1-1.1,.4-1.2,2.3-3.1-1.4-1.7,2.5-3.4,2.3,.4,1.2-1.2,2.9-1.8,1.3,1.5-1.5-2.4,0-.7-1.6,.2-.2,.1-.8-.4-.8-2.4-1.2,.1-3.7,.9-5.5-.9-2.3,2.9-4.5,.6-6.3,.4-.7,2.9,.3,1.8-1-1.7-2.1,2.6-10.3,3.1-11.4,1.1,2,2.2,2.4,1.9,4.4,1.2,.5,0,1.3,.6,1.8,.5,.8-1.4,0-1.3,.7,.2,.4,2.7,.4,.7,.8-1.2,1.4,1.7,.8,.8,2.3-1.3,1.9-.6,3.5-2.2,5.5Zm-9.4-.6c1.5-.3,0-1.9-.4-2.6-1.1-.9,2-2,0-3.2-1.4-1.2,1-.5,.5-1.7-1.9-1.4-.5-5.6,0-7.7-1.8-2.6,.6-8.1,3.7-9.4,1.1,2.5,5.2,1.4,1,4.1,2.1,.5,.5,2.6,.4,3.9,0,2-.3,3.6-.9,5.4,.9,2,1.5,6.7-1,3.4-1.5-.3,.7,1.9-.8,3.3,.3-.6,.9,1.6,1.1-.1,1.5-1.7,.6,1.8-.2,1.3,1.2,3.9-.7,1-1.8,2.6,1.2,2.1-2.5,2.5-1.4,.7Zm-1.4-42c-1.9-.2,0-2.4,1-2.2,1,.3-.6-1.4,.7-1.4,.8-.1,0,1,.8,1-3.6,3.8,1,3.2-2.2,4.7-3.1-1.2,1.7-1-.3-2Zm5.8,8.9c.2,2.8,1.4,2.7,.6,6.1-5,3.5-3-4.7-.6-6.1Zm2.3-12.6c0,.5,0,1.3-.6,.6-.8-.5,1-3.2,.6-.6Zm1.2,30.5c.9-.4-.8,4.2-1.7,2.2,1.7,0,.5-2,1.7-2.2Zm-2.3,7.5c0,.2,0,.4-.2,.4,0-.1,.1-.3,.2-.4Zm5.6-23.3c-2.9,3.2-3.2,.9-3.4-2.1,1.1-2.6-2.9-3.3,.5-5.6,1.8-.2,.5,3.6,1.9,2.3,.6-.1,1.3,3,.4,3.2-.4,.1-.7,.5-.2,.5,.7,.8,2.9,1.5,.9,1.8Zm-2.9-31.8c-.6,0-.6-.5,0-.5,1.2,0-.4-.8,.3-1.1,1.3-.3,1.1,2-.3,1.6Zm2.1,8c-.6,.8-1.5,1.1-2,0,0-.6,1.7-.5,2,0Zm-1.1-13.1c-1.5,1.6-2.4-2.4-1.3-3,.6,.1,1.6,2.5,1.3,3Zm-.9-4.6c-2.3,0-.1-.3-.1-1.3,.2-.9,1.9,1.8,.1,1.3Zm2.9,28.5c2.8,1.2-2.5,3.5-.4,.7,.1-.2-.1-.8,.4-.7Zm-.2,2.9c1-.8,2.1,.2,1.2,1.4-.2-.7-.6-1-1.2-1.4Zm1.4-40.6c1.6-.3-.3,2.7-.4,1.1,0-.4-.2-.9,.4-1.1Zm.3-1.6c1-.4,1.4,1,.4,1.1-.9,0-1.4-1.3-.4-1.1Zm3.1-.7c0-.9,2.1,.1,2,.5-.6,.2-2.1,.5-2-.5Zm2-20.5c-1.2-.5,1.3-1.1,1.6-1.1,.7,.8-1.1,1.6-1.6,1.1Zm2.8,1.3c-.9,1-2.3,.4-1.1-1,0,1,1.2,.3,1.1,1Zm.5,3.5c.9-.1,.6,1.5,1.6,.6,.7,2.7-2.6,.3-1.6-.6Zm5.3,0c-3.6,0,2.2-2-3.7-1.1-.8-.6,1.7-.8,.2-1.1-.4,0-1.7,.4-.5-.8,.7-.9-1.6-.6-1-1.6,1.3,.1,3.5,.9,3.8,1.9,1.3,.4,3.3,.5,1.3,2.7Zm-21.3-.6c.2,.9-.2,1.2-.7,.8,.2-.3,.5-.5,.7-.8Zm-10.8,16.4c1.6-5.5,8.6-9.2,9.7-12.8,1.7-.9,.3,2.2,1.9,2.6-1,3.2-1.6,6-4.4,8.6-2,1.2-1.6-2.5-2,1.7-.2,1.2-2.4-.5-3.5,0-1,.6-3.5,4.3-1.7,0Zm8.8,4.4c1.7-.1-.2,2.8-.8,1.8-.4-2.3-3-1.6-2-4.7-1.1-1.2,1.1-2.2,1.3-.7,.3,1.7,2.4-1.1,1.8,2,0-.2-.1,.1,0,.2,1.4,1-1.2,.5-.3,1.3Zm-4.9-1.7c-.2,.1-2-.6-2-.7,.4-.8,2.5,.1,2,.7Zm-8,20.3c.9-2,1.9-1.7-.5-3.1,1.7-1.8,.5-.6,0-1.8,2.5-3-2.2-1.1,2.5-5.1,.4-.8-.9,0-.8-.7,1.7,0-.3-3.3-1-1.3,1.6-6.6,1.2,.2,5.2,.4,.4-1.4,0-2-2-2,2.3-.8,.2-3.7,1.9-2.8,2.3-1.5,3.2,1.3,5.1-.1,1.1-.9,.5,2.1,2.1,2,.4,0,0,.4-.2,.4-1.1,0-.3,.7,.4,.6,1.9,.6-1.8,1.9,.6,3,0,.7,1.1,1.3-.2,1.4-.7,.5,1.4,2.1-.6,2.2-1,1.2,1.4,.5,1.2,2.1-2.7,2.7,.2,6.2-.3,8.8,2.6,1.6-6.6,4.2-7.6,3,1.9-.6,2.4-8.6,0-9.7-2.2-.5,1.5,3.3-.9,4-1,.9,1.6,.2,.3,1.3-.9,2.1-1.9,.2-2.8-1.1-.5-3.7-1.6-.6-1.4,.8,1.8,0,.2,2,1.1,2.8,.1,2.6,3.7,2.5-.2,4.2,3.2,.8,.5,.8-.3,2.2-.9-.7-1.4-5.4-.6-6.4,0-.9-1.9-2.6-.9-4.8Zm6.5,22.2c-.5,2-1.3,0-2.1-.2,.2-.4,2-.6,2.1,.2Zm-7.6-14.6c0,.9-1.4,3.3-1.6,1.4,.1-.6,1.8-1.5,.4-1.5-2.5,0,1.3-1.8,1.2,0Zm-.9-9.8c1,.4-.5,2.2-1.3,1.3,.4-.4,.8-.9,1.3-1.3Zm-4.1,12.2c-1.5,2.3-1.1-2.2-2.7,.2-2.2,1.1-3.2-8.9,2.7-.2Zm-2.1,4.5c0,.5-.5,.7-.6,0-3.9-2.7,2.1-3.3,.6,0Zm-11.3-41.3c-.6-.1-.7-.6-.8-1,.3,.3,.5,.7,.8,1Zm-.9-1.2c-.6,0-.8-.3-.8-1,.3,.3,.6,.6,.8,1Zm-31.2,3.8c3.4-5.8,6.2-6.4,6.9,.8,2.1,.3,2.2-2,4.3,1.7-1.3,3.7,.1,2,2.8,2.4,2.2-2.3-2.6-3.6,.7-5.5,1.9-1.9-4.2,.2-2.3-2.7-4.9-.8,5.1-4.6,9.2,3.1,2.8,.7,3.9,5.6,4.1,8.3-.6,2.2-5.5-3.1-6.6-.4-2.6-.4-.6,4-3.7,2.2-2.1-.3,1.8-2.3-.8-2.3,.9,2.1-3.5,.2-1.6,2,.9,2,.2,3.2,1.9,3.9-.8,2.5-.5,.6-1.8,1-.1-1.1-2.9-2.3-2.2-.5,.7,2.3-3.1,2.2-.8,.5-.9-.7-3.8-3.2-4.6-.9,0-2.9-3.6-2.2-2.8-3.7,.4-1-2.2-3.6-1.3-4.1,1.7-1.9-3.1-3.6-1.4-5.7Zm9.5-5.4c.4,.9,.7,3.3-.7,3.1-.4-.6,1.3-1.3-.5-2-2.1-.4,.4-1.5-.8-1.8-1.8-.8,2.2-1.3,1.3,.1-.4,.7,.5,.2,.7,.5Zm17.4,21c.8-3.9,2.4,1.1,.4,1.3-1.8-1-4.2,1.9-4.4,2.7-1.3-.2-1.5-2.3-1-3.2-2-.2-1.6-2.6-1.8-3.3-1,.2-.4-1.8,.5-1.7,2.4,1.4,1.4-2-.5-1.6-1,.3-.7-.9,0-.5,1.5-.5,3.4-.9,4.1,.9,.7,.8,0-1.8,1.1-.5-.2,4.3-2.3,1.7,1.3,6Zm1.8,6.1c.5,2.1,2.7-3.8,3.1-1.7-.4,4.7,3.1,13.2-5.3,8.3-1.1,1.6,4.5,2.5,2.3,5.3,1.9,1.6,5.1,3.3,2.2,6.5,1.9,2.3-1.9,.5-1.5,2.3,.8,.4,1.4-1,1.8,.3,0,2.1-3,0-2.5,.8,.5,.9-2.1,.4-.6,1.5-3.4,1.4,.9-2-1.6-1.9,1-2.7-.3-2.5-2.2-2.7,1.3,1.4,0,4.8,1.1,4.6,1.2-.5,0,2-1,1.2-.4-.1-.5-.4-.6,.2,1,1.3,2.7,.6,2.5,2.8,.7,1.2-2-.3-1.4,1.8,0,.3,1.1,.5-.1,1-2.1,1.4,.1,3.3,.1,4.5,.2,1.1-.6,.8-1.2,.9-.3,1.3-1,2.3-1.1-.3-1.7,.8-7.1-9-3.9-9,1.4-2.3-4-2.1-2.1-2.6,1.4-.2,2.9-.5,3.3-1.8,.9-1,.8,.4,1.8,.7,1.2-2.2,1.3-1.3,.5-3.3,1.1-1.3-.4-.9,.3-1.6,1.1-.4,.6,1.6,1.9,1.1,.4-.6,.6-1.6,1.7-.8,1.2,.3,.9-1.1,.4-1.8-2.1-2.5,4.5,.7,1.3-5.3-1-.7-.2,1-.8,1.3-2.1-1-3.6,2.2-6.3,2.1,.7,1.9,4.2,.4,.6,2.7,.5,.3-.3,2.6-1,2.8-5-4-1.1,1-3.4,.1,.4,2.1-1.3,1.7-2.6,2.2-1.3-.3,0,3.3-2.1,.9-2.1-2.3,5-4.4,4.8-2.2,0-2.3-.5-4.1,1.8-3,2.4-2.2,.6,0,2,.6-.3-4.8-2.1,0-1.6-5.7,.8-3.6,10,2.4,6-5.2-.8,0-.8-1.2-.4-1.6,.5,.1,1.2,1.7,1.5,.7,0-2,1.3-1.9,.6-2.9-1.6,0,1.4-2.8,1.7-3.8-2,6,.1,0,.3,.4Zm0-11.6c.9-.2,.9-.9,1.4-1.3,1.9,1-.3,2.2-1.4,1.3Zm4.7,21.7c0,.6-.8,1.1-1.4,.8,.4-.8,.8-2,1.4-.8Zm-6.1,32.5c0-.7,2.7-3.6,2.6-.6,2.1-3.8,3.7,3.9,5.5,4-5.1,1.5-.5,4.5-3.3,4.4-3.3,2.7,.4,6-4.6,6.5-.6-.5-1.6,.6-.7,1,1.7-1.6,.8,2.1,2.3,1,1.6-.6,.1,1-.9,.9,.1,.4,1,1.5-.2,1.4-1.4,.4-.6-1.1-1.2-1.5-.5,2.2-3.4,4.4-2.2,6.9-1.2-.3-1.7-1.8-2.6,.5-4,1.9,1.1-1.9-1.2-1.5-.7-.5,1.2-.7,1.4-1.3-3.8-.7-1.8-1.6-2.4-4.1-.4-.5,0-.5,.3-.5,3.4,.8,3.3-2.3,.3-.7-2.2,.4,.7-1.1,0-1.5-2.4-1.8-.5,1.9-2.1,.6-.5-.7,.6-2.1,1.5-2.4,3.9-2.9,.6-.8,3.6-.7,3.4,.8,5.5-1.1,1.2-1.5,2.4-2.1-.2-.8,.6-3,.7,.5,3.6-8.1,2.3-7.8Zm9.1-1.6c-1.3,0-3.4,1.9-2.8-1,3,.8,2.9,1,2.8,1Zm-2.5-1.2c1.1-1.1,1.8,.7,2.9,.9-1.3-.5-2.3-.8-2.9-.9Zm-.3,0c-1-.2-1.2,0-1.4,.2-1.1-1.7,1.3-2.2,1.4-.2Zm-17.1,9.1c.9-3.1-2-.7-.9-2.9-2.8-.4,.5,2.8-.4,3.3-2.2-.8-1.1-4.4-2.9-4.3-3.5-.3,1.8-6.5-.2-6.6-1-.7,1.3-.8,1.3,.1,0,3.5,4.8,3.8,1.1,4.5,2.2,1.8,3.1,1.3,2.4-.9,.5-1.3,1.7-2.7-.7-1,.9-1.9-3.3-2-1-3.3,1.8-1.6-1.9-.2-.1-2.1-.4,0-2.1,.2-1.4-.5,1.7,.3-1.1-2.7,1.4-1.1,.3-3.1,6.1,.9,4,3.3-.5,.6,.7,.8,.8,.3-.4-1.3,4.1,.4,2.9,1.6,.4,.7,1.5-.6,2.2,.4,1.4,.3-2.1,1.4,.1,1.6-1.4,1.2-1.5,2.7-1.8,5.3-.4,1.7-.9-.3-1.2,.2-1,2.3-3.7,3.1,.5,4-4.2,1.1-4.2-1.4-4.7,2.9-.6-2-1.1,.4-1.3-1-1.3-2.1-.3-1.5-.2-3.6Zm-2-24.3c.7-1.6,1.9,1.2,1.4,1.1-.2,0-1.4-.9-1.4-1.1Zm8.2,28.5c.1,.8-1.2,.7-1.1,0,.1-1.1,1.4-1.4,1.1,0Zm-10.4-38.7c1.2-1.9,1.4,3.2-.3,3-3-1,1.2-1.2,.3-3Zm8.7-7.7c-1.5-1.1-.6,0-1.3,.5-5-1.7,4.4-7.6,1.3-.5Zm.6-.6c0,.4-.2,.5-.4,.6,.4-1.2,.4-.9,.4-.6Zm-.9,1.1c-.5,1.1-.9,1.5-.9,2-1,.2,0-2.6,.9-2Zm-2.5,1.3c-.7,1.1-2.5-.5-.9-1.1,.7-.3,.3,.8,.9,1.1Zm-.7,3.7c.5,.3-1.8,1.5-1.5,.2-2.3-1.1,.6-.9,1.5-.2Zm-3.3,3.1c-.7-.3-.4-1.4,.2-1.8,1.2-.7,.3,1.8-.2,1.8Zm8.9-7c2.4,1.2-1.8,3.4-.6,1.1,1.4-.1-.8-.9,.6-1.1Zm-14.7-14.3l-.9,.6c-3.4-1.7,.3-3.3,.9-.6Zm-10.3-13c1.9-2.7-.3,1.1,1.4,1.3-.1,.5-1.1,0-1.3,.4-.9,5.1-3.9,2.5,0-1.7Zm-5.6,10.8c0,.3,0,.5-.3,.6,0-.2,.2-.4,.3-.6Zm-1.3,2.9c0,.1,0,.2-.1,.3,0-.1,0-.2,.1-.3Zm-5.9,32.6c.6,0,1-.5,1.1-1.1,1.7,.4-1.6,4.1-1.1,1.1Zm12.2,36.2c-3.6,10.2-16.4-37.8-8.9-38.3-11.2,7.2,5.4-41.4,1.7-25.5,1,1.7-1.1,3.7-.6,6.9,.6-.7,2.9-1.2,1.6-1.9-.6-.2-1.2-2.8,.3-1.4,.3,0,1.1-1.6,1.5-.6-.2,1.5,0,4.4-.3,6.6-1.6,.3,.6,2-2.5,1.7,1.3-2,0-5.6-1.1-2.5,2.7,5.3-3.8-1.1-.6,4.1,2.4,3.2-2,4.7,.9,6.1,1.2,3.8,1.9-.4,4-1.5-.9-.4-2.5-.5-.6-.9,3.5-3.2-.3-1.3,1-2.7,.9-1.4-1.9-.5-1.2-1.6,.2-5,3.7,6.5,3.7,.4,1.9-2.9-2-1.5-.7-3.9,3.1-1.2,4.8-3.9,.3-1.5-1.6-.8-1.8,1-1.6-1.5-1.1-1.6,.7-1.3,1.2-.1,1.3-.8,.9,.6,2.3,.5,.3-2.5,2.8-3.3,2.7-5.4-1.4-.5-1.4,2.8-1.6-.5-2.5,1.9-5.1,5.4-4.8,.3,.9-1.7,0-2.6-1.7-3.3,.4-.6,2.5,.3,1.9-.8-3.5-2.4,4.1-4.3,.3-5.5-1,.3-.2-1.4,.4-.9,.6,.6,.8,0,.9-.3-2.3-1.6,1.6-3.9,.3-1.9,.1,2.5,4.7-3.1,4.8-.1-1.1,.6,.2,1.5-.3,2.2-.8,.7,1.9,0,.4,1.3,.2,.6,1.7,1.6,1.3,1.8-1.6-.3-.1,4.1,1.2,3.2,1.2-2.2-2.2,1.2,0-2.6,1.6,1.4,.1,1.6,1.9,2.1-.9,2,3.4,5.2,1.1,5.5-1.7,.7,1.4,.4,.9,.9,0,1.2-2.5,4.2,1.2,2.6-1.9-.9,3.4-4.9,0-3.7-.8,.4-1.6-3.4,0-1.1,1.6,.3-.7-1.2,.5-1.3,2.4,3.9,.2-.1,2.9,1.1,1.3-.9-3.5-2.9,.4-3,3.9,1.6,1.6,1.6,2.1,4.5-.6,.7-.9-.5-1.5-.4-1.1,1.7,.4,.5,1.3,1.6,.8,.6-2.3,1.4-1.9,.4-1-1-2.4,2.4-2.7,3.4,2.7-1.6,.8,1.4,4.2,.1-2.2,1.9,3.6,2.4-3.1,3.7-.2,.9,.3,1.2,1.2,1.1,2.3,1.7-4.4,.1-.4,1.6,1-.3,.8,.7,0,.5-1.3-.1-3.2,4.6-2.5,1.9-2.8-2.2-.2-1.7,1.1-3-4.8,.3-1.1-4-2.8-5.8-1.1,.2-1.3,2.5-1.5,3.4,2.2,1.9-.7,4.5,1.1,4.6,.4,.7-1.1,1.4,0,1.6,1.6,0-4,6.3-3.8,4-.3-.5-.5,1.1-1,.9,0,1.7-.4,2.6,1,2.5,4.2,.7-4,.7-4,2.4-3.4-1.8-2,.3-1.3,3,.9,.9,.2-1.8,1.3-.3,.2-.4,.4-.7,.6-1.1,2.4,2.6,1.3-3.4,2.4-.9,.2,1.2,3.5,1.9,4.8,2.4-1.1-1.3,2.1-1,1.1-2.5-2.7-.5,2.2-1.2,2.3-.3,1.9,1.8,1.7,6.1-.7,5.1-2.6,2.4-.5-.1-1.4-1.1-1.1,0,0,1.4-.8,1.6-.5-2.1-5-3.7-3.5-1,1.5-1.1,1.3,2.2,3.2,1.7,1.3,.7,.6,2,1.7,2.9,.5,.8-2,3.9-2.8,3.3-2.5-1.5,.9-2.9-4.3-2.4,.2,2,.8,1.1,2.2,1.1,1.7,2.9-2.2,6.1-3.2,2.7-1.5-.5-1.3-1.3-1.5-2.3-1.9-3.3,2.4-1.3,3.2-2.6,1.7-1-3.8-1.7-.3-3.6,0-.3-.6-.6-.4-.9,1.8-3-5.6,1.7-6.3,1.7-1.9-1.4-.5-13.1-3.5-9.5,0,2-.7,4.3,.5,7.1,.1,1,1.1,5.6,2.7,5.4-3,1.5-1.6-2.1-3.2,0,1.7,1.6-2.2,2,0,3.5-4.5,1.4-.4,3.9,2.2,1.6-2.9,.2,.8-2.9,1.2-2.3,1.1,1.1-1.9,1-1.2,2.3,2.5,.3,1.5,1.5,4.9,0,.5,0,3.1,4.1,3.8,2.6-.3-3.2,1.1,.2,2.5,0,.4-1-1.7-.4,0-2.6,1,2.8,4,6.5,.4,9.5-.2,2.7-1.8,1.5-1.7,4.7-2.5,.4,.9,3.7-2.3,3.9-1.1-.1,.6,.8-.1,.9-2.1,.3,.9,1.1-.3,2-1.7,.7-1.8,2.5-3.7,2.1Zm12.4-39.4c0,1,0,.9-1,.6-1.7,0,1.4-2.8,1-.6Zm-4.1-.5c-.3,0-1.2-.2-.5-.5,2.5-.8,.9,3.3-.2,1.4-.5-.8,1.5,0,.7-.9Zm-6.7,41.2c-.1-.9,1.7,.1,1.9,.6-1.5,.6-1.7,1.2-1.9-.6Zm3.9,9.4c1.1-1.2,.7,.6,1,.9-1.9-.8-7.1-7.5-3.5-5,.3,.8,1.7-.1,.8-.7-.1-.7-1.8-.4-1.1-1.1,1.9-3.4,1.1-3.9,4.4-2.2,1.7-1.6-3.2-2.1-1.3-3.2,2-3.4,4.4-4.8,3.2-7.8-.4-1.2,1.6-.8,.8-1.5-1.6,.1,.6-2.3,.8-3.1-1.4-1,2.4-1.7,.8-.1,1.5,2.6-.5,6,.7,9.8-1.5,3.4,.2,.7,2.4,1,.8-1.7,.6-2.4,1-4-.9-1.9-1.8-.3-2.4,.6,.6-3.3,2.2-4.3-.7-7.9,2.6,1.6,.2-3.2,2.7-1.8,.2,.8-.8,1.3-.6,2.1,.3,.5,1.1-1.6,1.1,.2,.3,1.9,1.6,2.7,2.4,4.7-1.7,2.4,.3,3.6-.2,5.2,.9,.5,2.7,4.2,.8,4.7-.4,.8,1.4,1.7,.2,3-1.6-.4-1.6-.8-2.6,.8,1.9,3.6-3.5-.9-1.1-2.7-.9-.3-1.5,.4-2.1,.4-1.6-2.4-1.7,2.3-2.8,2.9,.2,1.4,3.5,1.3,1.3,2.7-1.2-1.1-3,.4-4.6,.6,.1-2.6-2.3,1.2-1.4,1.6Zm2.3,.6c-1.4,.2-.5-1.3-.1-1.6,.3,0,1.2,1.7,.1,1.6Zm24.1-10.4c-8.6,16.8-36.9,16.1-15.8,6.5,1.8,.6,.5-2.9,2.2-.8,.6,.4,1.9,2.7,.4,2.4-2.5-1.7,.5,3.2,2.5,.4,.2-2,1.7-2.4,2.5-4.1,1.4-.6,.9,1.6,2.2,.9,.7-1.1,.5,.6,1,.6,.3-1.9,3.7-3,2.4-5.4-1.2-.9,1.8-3.3,2.7-1.8-2.6,1,1.3,.3,0,1.3Zm.5-.7c0-.6,.3-.9,.6-.9-.2,.3-.4,.6-.6,.9Zm2.6-4.3c-1.3-.8-.2-1,.8-1.5-.2,.5-.5,1-.8,1.5Zm1.2-2.5c-.6-.5-.2-.6,.4-.8-.1,.3-.2,.5-.4,.8Zm.8-1.9c-1.3-.7-.3-2.1,.6-2.5,.6,.3-.5,1.8-.6,2.5Zm1.9-5.5c-.3-.5-.5-1,.3-.9,0,.3-.2,.6-.3,.9Zm.4-1.4c-.3,0-.2-.5,.1-.5,0,.2,0,.4-.1,.5Zm.4-1.8c0,0,0-.2,0-.3,0,0,0,.2,0,.3Zm.2-1c-.7-.2-.3-1.2,.2-1,0,.3-.1,.7-.2,1Zm.8-4.6c-1.2,.7-.5-1.6,.2-1.8,0,.6-.1,1.2-.2,1.8Zm.9-17.3c-2.5,1.5-.4,4.3-1.2,6.2-.6,1.6-.7,3.3,0,4.8-3,.8-5.5,4.9-8,1.7-3.1,.4-.3-2.5,.1,0,1.1-.4-.2-3.1,.9-3.8,2.3-.7-2-1.6-1.5,.7,0,.6-1.3,.1-1.5,.6,2,.5-.5,1.9-.6,.8,0-.7-2-.5-.6-1,.5-.2,1.6-.8,.5-1.2-1.8-.5,.6-2.9,.5-4.5-1.4-.9,.9-6.7,2.8-2.9,.4,.8-1.7,0-.7,1,.3,1.7-.9,1.9,1.2,1.2-1.3,1.1-1.6,5.5,1,3.3-1.4-.9,1.6-5.9,1.5-7.3-1.9-.1,1.2-1.4,.3-2.5-1.4-1.8,2.9-3.6,3.8-1.1-1.9,2.9,1.3,1.4,1.5,3.9Zm-3.5-14.5c3.1,.1,2.3,4.8,1.6,5.4-2.1-.3-2.4-2.4-2.9-3.3-1.4-.4,.8-.4,.6-1.1,0-.5-.2-1.1,.7-1.1Zm2.9-5.4c-2.4,0,1.4,2.5-1.1,2.8,.5,1.6-1.2,.6-.3,1.9-1,1.1-.7-.9-1.6-.9-.8,1.9-2.9-.9-.5-.5-1.4-1.4,.3-1.8-1.7-2.5,.1-1.8-1.8-4.1,1-5.8-1.1-1.8,3.6-.4,4.4,.5-.4,.4-1.4,.2-.9,1.1,2.6,1-1.1,.4-.5,1.1,.7,.3,0,2.3,.9,1.5,0-2,2.3,1.1,.3,.8Zm-3.4-8.3c2.8,2.7-1.8,1-1.8-.6,.9-1.9,4.1-.8,1.8,.6Zm4.2-1c-1.2-3.4-2.2,2.2-2.7-.2,.9-2.6-1-1.2-1.4-3,.7-1.1-.7-.3-.7-.8,1.1-.5,.8-1.9-.3-3-1.2-.6,1.4-2.9-.3-3.3-1.1,.2-.9-.4-1.2-1.2,0-3.1,.5-4.2-2-.7,.9,4-.1,2.5-2.5,2.9-.7-.4,.7-1.7-.4-2.4-1.5-1.4,1.2-1,.3-1.9-.6-2.9-3.1,2.8-4-3.2-1.7-.7-3.3-3.1-5.7-3.3,.1-1.1,.5-1.7-1.1-1.7-.2-2.1-3,1.6-2.4-1.2,.9-4.7,5.5-.9,1.5-4.5-1.2,.5-2.1,1-1.5,2.6-1.4-.1-2.6,1.8-1.6-.8-.3-.7-1.2,1-1.1-.5-4.2,6.1-2.5-.5-7.7,4.3,8.9-14.1,26-4.4,25.2,5.6,6.3,.7,8.6,8.7,9.8,16.5Zm1.2,5.1c8.3,2.7,1.5,4.5,4.2,6.7-2.8,1,.3,1.3-.2,1.9-2.8,1.3-1,0-3.4-.5,.3-3.3-.9-4.7-.6-8Zm4.8,22.8c-.2,1-.5,0-.8,0-2.1,1.2,.9,.6,.2,2.2-.6,1.3-2.6-1-2.2-2-.1-1.6-2.4-.2-1.3-2.4-2.3-1.6,5-.6,4,2.1Zm.6-16.7c.3-.4,1.6,1,1.5,1.8-.9,1.6-1.9-.8-1.5-1.8Zm.2,10.2c-.6-.9,2.6-1,1.8,.6-.8,1.7-.9-1-1.8-.6Zm.9,7.5c0-1.5,3.8-2.5,.7,.4-.5-.3-.6-.3-.7-.4Zm2,1.1c-.4-.3-.8-.4-1-.6,0-.7,1.1,0,1,.6Zm-.4,2.7c-1.1-1-1.2-1.2-.6-2.6,.3,1,2,2.9,.6,2.6Zm.4,18.4c-.3-1.4,.3-3.4,1.6-2-1.2,0-.8,1.8-1.6,2Zm0,2.5c1,.1,.4,1,0,1.5,0-.5,0-1,0-1.5Zm.1,3c-.7-2.7,2.2,.8,.4,0-.2-.3-.3-.3-.4,0Zm1.5,10.3c-1.6-2.9-.6-13-1-6.5,2,.4,2.9,8.5,1,6.5Zm1.3,4.4c-.3-.8-.5-1.5-.7-2.3,1,.5,2.5,1.4,.7,2.3Zm1.4,3.5c-.6-1.6-1.7-3.2,.6-1.7-.7,.3-.4,1.1-.6,1.7Zm.1-10.6c-.1-.4,.4-1.1-.5-1.2,2.5-6.7-4-3.7-.7-8-1.3-.7-.1-2.2-1-3.4,1.6-8.3-5.8-3.5,3.8-8.9,6-2.5,.8,4.5,3.7,5.8-.5,.9-.6,1.9-1.5,2.5,1,1.5-.7,2.9,.2,4.4,1.7,1.5-2.9,1.3-.3,2,2.1,0-2.8,1.6-.5,3.3,.7,1.3-2.8,.2-1.9,1.2,2.3,.3-1.3,1-.8,1.9,1,1,2-1.6,1.6,1.7-.4,.6-.5-.4-.6-.6-.4-.6-1.3,.3-1.6-.6Zm1.8,10.1c1.3-2.8-2.7-4.2,.7-7.5,.5-.8-.1-4,1-2.9,.5,.4,1.6-1.1,1.4,.2-3.2,3.3,4.5,11.1-1,13.2,0-1.3-3.9-2.4-2-3.1Zm16.8,9.1c-7.3,5.3-13.9,2.4-16.7-5.2,2.4,4.2,1,2.4,5.1,1.3,0,1.1,2.5,1.5,1.1,2.9,0,4.3,4.7,1.4,5,2.6,2.7-.3,1.8-3.8,5.4-4.8-1.4-1.2,1.2-2.2,0-3.7-.5-1.2,2.3-1.1,1.6-2.8,.5-2.7,2.9,1.6,3,2.3,4.4,2.2-2.5,5.7-4.5,7.4Zm14.3-18.2c-1.5,1-6.1,11.7-8.3,8.7,1.3-1.5-2.4-1.5-.9-3.3,.7-.8,0-1.4-.5-.6-1.2-1.1,2.4-2.1,.2-2.7-1.6-.7,1.1-3.3,1.7-1.7,.3,1.3,1.2,.4,1.7,.7,.7,1.8,3.2,1.6,1.1-.5,1.1,.8,6.4-2,5.1-.5Zm3.7-16.3c-1.6,.8,1.8,1.2,.1,3.2-1.8,2,.2,5-2.9,5.7-1.2,3.6-3.3,4.6-6.6,5.2-2.1-2.3,0,2-3.2-1.6-1.7-.2,1.5-1.4-.2-2-.4-.2-1.5,0-.4-1,1-1.6,2.2-3.7,1.1-5.5,.3-3.2,5.2,1,5.8-3.9,1.4-.4,2.3,2.1,3.3,.8-.3-.6-.2-1.5,.8-.6,.3-1.2,4.4-2.6,2.2-.2Zm1.7-11.1c-2.8,0,0,1.3-1.2,1.7-1.9,.5,3.2,1.5-1.1,3.1-1.3,2.6-2.8,1.9-4.6,4.5-1.8,.4-1.9-1.1-3,.5-.1-3-4.3,2.3-3.8-.8,1.9-.2-1.2-2.1,.8-3.1,1-1.2-2.4-5.9,.3-7.8,.4-1.4,1-2.4,2.2-3,1.8-3.8,.8-.1,2.1-1.4,2-2-.2-2.6,.9-2.8,1.3-1.2,3.9-2.6,5.5-1.1-3.1,.3,.9,2.6-1.1,4.2-.3,1,2.1,.8,1,2.1-1.7,1.4,3,3.5,1.9,4.1Zm3.6,8c-3.1,1.9,.3-1.7-.4-2.7,3.9-3.8,.6,1.2,.4,2.7Zm4.8-16.8c-1.1,2.4-4.2,5.1-4.3,8.1-1.2,.8-3.1-2.8-1-2.8-.5-2-1.8-.9-1.5-2.8,.9-1.4-.4-6.5-1.5-5.7-1-1,.8-.8,.9-1.5-.2-1.3-1.7-2.2,0-3.3,2.4-1.4-.5-.9-1-.8-.5-2.2-1.5,.9-2.2-.6,1.7-1.8,1.6-8.9,6.5-5.9-3.6,2.3,1,5.5-.3,2.6,1.8-.9,.9-2.6,3.4-1.7-.5,1.6,0,1.4,1,2-1,2.3,.6,1.8-.2,3.1,2.3,1.9-.4,1.1,.3,1.9,1.7,.3,.2,1.4,0,2.3-1.7,1.7,2.5,1,.2,5.3Zm2.5-20c-2,2.5-.3,2.6-.7,4.5-1.8,1.4,2.9,.7-.8,2.4-1.8,.3,.2-3.5-1.2-3.6-1.5,.8-.3-.8,.3-1-.4-1.5-3.5,1.1-2.1-1.3-.2-1.3,1.7,.3,.5-1.6,1.3,0,1.8,.2,1.1-1.1-5.7-.1,.9,3.1-5.3,3.7-4.9,.4,.8-3-.4-5.8-.6-.7-.4-1,.5-1.2,.9-.7-2.8-.1-.6-1.4,2.8-.6-1.5-3.2,.7-4.5,2.9-2.7-1.7-7.4,.7-8.4-.7-3.5,2.5-7.8,1.7-10.3,.2-1.8-1.4,.6-2-1-.4-.7,2-1.5,0-1.5-2.3-2.6-1.7-10.1-4-12.8-1.6,.3-2.5-1-3.6-2.4-1.8,1-1.9-2.2-4.6-1.9,1.4-2,2.4,.7,3-1.3,.6,2.5,.4,.5,1.2,.8,.4,.7,1.3,1.8,1.9,1.9,1.1-1.3,1.2,.9,1.7,1,2-1,3.3,3.9,2.4,5.9,.6,2.3,3.3,2.1,3.3,4.2-.1,2,1.3,2.3,2.7,4-2.5,.6-.4,1.8-1,3.5,1.6-.3,1.3,2.6,2,3.7,0,.8-1.7,.4-1.3,1.5,2.3-.6,.7,1.2,.5,2.7,4.8,1-.2,3.7,1.5,4.5,1.4-1.1,.2,1.4,.4,1.8,.6,.6,1.7,1.2-.1,1.8-1.1,.4,1.1,2.8-.4,2.6-.5,.4-.2,.5,.2,.5,1.3,0-.7,1.3,.5,1.3-3.3,0-.1,.6-1,2.2-4.4,3.4,1.6,1.8-1.6,4,.9,.8,3.4-1.6,2,.7,.5,0,1.4,0,.8,.6-1.4,1.5,2.2,.6,1,1.7Zm2.6,.4c-.8-.1-.7-.9,.1-1.2,0,.4,0,.8-.1,1.2Zm.4-4.1c-.3-.4-.4-.6,0-1,0,.3,0,.7,0,1Zm.1-1.8c-2.3-2,.3-4.9-.8-7-1.4,5.9-1-9.6-.3-10.1,.2-.6-1.1,0-.8-.8,.9-.9-1.8-.6-.5-1.7-1.3-2,1.2-1.3-.5-3.2,2-11.7,4,20.3,2.9,22.8Zm-20.6-26.7c-2.1,2,1,5.8,1.8,5,2.4,2,.5-3.2-.1-2.9,.2-1.7,.2-3.4-1.6-2Zm-83,49.4c0-1.6-1.4,0-1.1,.8,.7,0,1.3,.1,1.1-.8Zm-2.2-23.2c.8,4.3-4-2.3-2,2.6,1,.5,5.8-2.6,2-2.6Zm62.6,64.9c.9,.3,.8-2.8,.3-2.7-.2,.7-1,2.5-.3,2.7Zm-63-66.4c-1.5,3.3,.8-.4,1.5,.7,1.8-.4-.4-1.6-1.5-.7Zm3.7,6.4c1.1-.4-3-1.8,.3-1.5,2.1,.9,.9-6.2-.4-2.4-.2,1-1.1,1,.6,1.5-3.2-.2-4.5,2.2-.5,2.5Zm90,9.5c1.3-1-1.1-.8-1.1-.4,.3,1.2,1.9,2,1.1,.4Zm-90.1,12.1c-.3,0-.4,0-.2,.3,0-.1,.1-.2,.2-.3Zm-5.4-17.2s0,0,0,.1c0,0,0-.1,0-.1Zm12.3,3.8c1.1,.3,.6-.8,1.3-1.4-.8-.9-3.5,1.5-1.3,1.4Zm12.8-17.2c.2-1.9-3.6-.7-1.4-.3,.6-.3,1.4,1.2,1.4,.3Zm-2.2,67.9c-1.9,.5,1.6,3.1,1.1,.5,2.1,.2,.3-1.9-1.1-.5Zm2.5-4.9c-.4,.9-1.3,.2-1.8,.7-.5,1.8,4.4,.6,1.8-.7Zm0-62.7c-.8,.4,0,2.4,1.3,1.4-.5-.4-1.1-.6-1.3-1.4Zm-18,75.2c.7-.4,0-1.4,.8-1.8-1.1-1.3-1.7,1-.8,1.8Zm10.6-87.5c1.9,1.5,2.3-1.9,1.1-2.7-1.4,.2-2.6,1.2-1.1,2.7Zm-3,3.1c2.3,1.6-2.1,.3-.5,2.5,2.5-.5,3.5-3.3,.5-2.5Zm-8.1-1.2c-.7,.9,.2,2,.7,2.6,.7-1-.3-1.8-.7-2.6Zm1.7,86.7c1.4,.2,1.9-.4,.3-1.1-.9-.2-1.5,1.4-.3,1.1Zm14.3-45.2c-1.4,.6,1.3,.3,.4,1-.6,.6,.3,.7,.8,.6-.7,5.8,3.4,1.9,1.4,1.6-1.8-1.7,.6-8.3-2.6-3.2Zm6-19.8c-.2,.2-.5,.8-.3,1,0-.3,.2-.6,.3-1Zm-.2,1.8c1.3,0,.7-.4,0-.8,0,.4-.5,1,0,.8Zm-.6,.2c-.3,.6,.3,.5,.3-.1-.1,0-.2,0-.3,.1Zm1-2.4c0-.3,.2-.6,.3-.9,0,.3-.3,.6-.3,.9Zm-13.2,68.4c-.2-.6-1.1,.5-.8,.8,.3,.2,.9,0,.9,.7,.6,1.3,.8-1.3-.1-1.5Zm13.2-68.4c0,.2,0,.3-.1,.5,.1,0,.2-.3,.1-.5Zm-23.3-21.1c-.3-2.3,2.6-1.6,2,.9,2-1.4-.9-7-.8-3.3-3.1-2.2-4.2,3.6-1.2,2.4Zm17-14.4c-.5,.2-1.7-.3-1.8,.3,.4,1.4,3,.6,1.8-.3Zm-3.8,14.1c1.3,.8,1.5,.4,1.7-1-.2-.3-2.5,.8-1.7,1Zm45.5,22.4c-1.7,1.5,.3,0,1.6,1.1,0-3.1,.2-1.5-1.6-1.1Zm-45.8,39.2c-2-.1-1.3,.1-1.1,1.6,.9-.2,.5-1.2,1.1-1.6Zm9.5-73c-2,1.6-1.7-4.4-2.9-3.3-.8,1.9,.8,1-.9,2.6,2.6,1,2,5.3,3.8,.7Zm30.5,27.1c5.2,1.5,0-7.3,.7-1.5,1.2,1.1-1.3,.8-.7,1.5Zm-28.2-21.3c.4-.9-2.2,.4-.9-1.6-1.5-3.7-1.1,1.6-1.3,2.8-.8,.8,.6,.6,1,.2,.7-.4,.7,1.4,1.4,.7,.8-1-2.4-1.6,0-2.1Zm-6.9-10.5c-.9-.7-.4,1.3-.5,1.9,2.1,1.2,.3-.8,.5-1.9Zm8.6,69.5s0,0,.1,0c0,0,0,0-.1,0Zm-9.3,3.7c1.4-.2-.5-3.5-.4-1,.2,.3-.3,.9,.4,1Zm-7.2-72.5c1-1.2-.3-1.2-1.1,0,.3,0,.7,0,1.1,0Zm4.8,18c1.2-.7,1.2-1-.1-2.2-.8,1-1.9,3.4,.1,2.2Zm-7.9,78c-1.3,4,4.2,1.3,2.2,.5-.7-.1-.5-1-.1-1.5,2.6-1.4-3.4-.5-2.1,1Zm2.1-95.9c-.2,0-.2,.2-.3,.3,0,0,.2-.2,.3-.3Zm9,76.3c2.2-1.5-.6-3.2-.5,0,.5,.3-1.6,.9,.2,1.1-.9,2.4,2.3,1.2,.4-1.1Z" />
	</g>
</svg>