<svg width="24" height="24" viewBox="0 0 24 24" fill="none" xmlns="http://www.w3.org/2000/svg">
<path d="M17 16C14.049 16 11.597 15.361 10 14.288C10 15.034 10 15.526 10 16C10 17.657 13.134 19 17 19C20.866 19 24 17.657 24 16C24 15.526 24 15.034 24 14.288C22.403 15.361 19.951 16 17 16Z" fill="#101212"/>
<path d="M17 21C14.049 21 11.597 20.361 10 19.288C10 20.034 10 20.526 10 21C10 22.657 13.134 24 17 24C20.866 24 24 22.657 24 21C24 20.526 24 20.034 24 19.288C22.403 20.361 19.951 21 17 21Z" fill="#101212"/>
<path d="M17 14C20.866 14 24 12.6569 24 11C24 9.34315 20.866 8 17 8C13.134 8 10 9.34315 10 11C10 12.6569 13.134 14 17 14Z" fill="#101212"/>
<path d="M7 6C10.866 6 14 4.65685 14 3C14 1.34315 10.866 0 7 0C3.13401 0 0 1.34315 0 3C0 4.65685 3.13401 6 7 6Z" fill="#101212"/>
<path d="M8 17.973C7.673 17.989 7.341 18 7 18C4.049 18 1.597 17.361 0 16.288C0 17.034 0 17.526 0 18C0 19.657 3.134 21 7 21C7.34 21 7.673 20.986 8 20.966V17.973Z" fill="#101212"/>
<path d="M8 12.973C7.673 12.989 7.341 13 7 13C4.049 13 1.597 12.361 0 11.288C0 12.034 0 12.526 0 13C0 14.657 3.134 16 7 16C7.34 16 7.673 15.986 8 15.966V12.973Z" fill="#101212"/>
<path d="M9.92 7.76599C9.018 7.91599 8.042 7.99999 7 7.99999C4.049 7.99999 1.597 7.36099 0 6.28799C0 7.03399 0 7.52599 0 7.99999C0 9.65699 3.134 11 7 11C7.341 11 7.674 10.986 8.003 10.966C8.015 9.70299 8.71 8.60599 9.92 7.76599Z" fill="#101212"/>
</svg>
