<svg width="12" height="12" viewBox="0 0 12 12" fill="none" xmlns="http://www.w3.org/2000/svg">
<path d="M6 5.99999C4.10293 5.99999 2.52664 5.60062 1.5 4.92999C1.5 5.39624 1.5 5.70374 1.5 5.99999C1.5 7.03561 3.51471 7.87499 6 7.87499C8.48529 7.87499 10.5 7.03561 10.5 5.99999C10.5 5.70374 10.5 5.39624 10.5 4.92999C9.47336 5.60062 7.89707 5.99999 6 5.99999Z" fill="#101212"/>
<path d="M6 9.12499C4.10293 9.12499 2.52664 8.72562 1.5 8.05499C1.5 8.52124 1.5 8.82874 1.5 9.12499C1.5 10.1606 3.51471 11 6 11C8.48529 11 10.5 10.1606 10.5 9.12499C10.5 8.82874 10.5 8.52124 10.5 8.05499C9.47336 8.72562 7.89707 9.12499 6 9.12499Z" fill="#101212"/>
<path d="M6 4.74999C8.48528 4.74999 10.5 3.91053 10.5 2.875C10.5 1.83946 8.48528 1 6 1C3.51472 1 1.5 1.83946 1.5 2.875C1.5 3.91053 3.51472 4.74999 6 4.74999Z" fill="#101212"/>
</svg>
