<svg width="16" height="16" viewBox="0 0 16 16" fill="none" xmlns="http://www.w3.org/2000/svg">
<g clip-path="url(#clip0_593_357)">
<path fill-rule="evenodd" clip-rule="evenodd" d="M3.83614 4.82656C4.17088 4.74753 4.52267 4.84747 4.76588 5.09068L10.9093 11.2341C11.1525 11.4773 11.2525 11.8291 11.1734 12.1638C11.0944 12.4986 10.8477 12.7686 10.5214 12.8773L1.30625 15.949C0.949649 16.0679 0.556491 15.9751 0.290694 15.7093C0.0248975 15.4435 -0.0679143 15.0503 0.0509537 14.6937L3.12267 5.47858C3.23144 5.15229 3.50139 4.90558 3.83614 4.82656Z" fill="#101212"/>
<path fill-rule="evenodd" clip-rule="evenodd" d="M6.915 0.0447058C7.44259 0.208007 7.7379 0.768086 7.5746 1.29568L6.95555 3.29568C6.79225 3.82327 6.23217 4.11858 5.70458 3.95528C5.17699 3.79198 4.88168 3.2319 5.04498 2.70431L5.66403 0.704308C5.82733 0.176718 6.38741 -0.118596 6.915 0.0447058Z" fill="#101212"/>
<path fill-rule="evenodd" clip-rule="evenodd" d="M15.9556 9.20431C16.1189 9.7319 15.8235 10.292 15.296 10.4553L13.296 11.0743C12.7684 11.2376 12.2083 10.9423 12.045 10.4147C11.8817 9.88713 12.177 9.32706 12.7046 9.16375L14.7046 8.54471C15.2322 8.3814 15.7923 8.67672 15.9556 9.20431Z" fill="#101212"/>
<path fill-rule="evenodd" clip-rule="evenodd" d="M10.1098 0.53843C10.4978 0.46126 10.8999 0.500867 11.2654 0.652242C11.6308 0.803617 11.9432 1.05996 12.1629 1.38886C12.3827 1.71776 12.5 2.10444 12.5 2.5C12.5 3.03043 12.2893 3.53914 11.9142 3.91421C11.5391 4.28929 11.0304 4.5 10.5 4.5C10.1044 4.5 9.71776 4.3827 9.38886 4.16294C9.05996 3.94318 8.80362 3.63082 8.65224 3.26537C8.50087 2.89992 8.46126 2.49778 8.53843 2.10982C8.6156 1.72186 8.80608 1.36549 9.08579 1.08579C9.36549 0.806082 9.72186 0.615601 10.1098 0.53843Z" fill="#101212"/>
<path fill-rule="evenodd" clip-rule="evenodd" d="M15 2C15.5523 2 16 2.44772 16 3C16 4.32608 15.4732 5.59785 14.5355 6.53553C13.5979 7.47322 12.3261 8 11 8C10.4477 8 10 7.55228 10 7C10 6.44772 10.4477 6 11 6C11.7956 6 12.5587 5.68393 13.1213 5.12132C13.6839 4.55871 14 3.79565 14 3C14 2.44772 14.4477 2 15 2Z" fill="#101212"/>
</g>
<defs>
<clipPath id="clip0_593_357">
<rect width="16" height="16" fill="white"/>
</clipPath>
</defs>
</svg>
