<svg width="24" height="24" viewBox="0 0 24 24" fill="none" xmlns="http://www.w3.org/2000/svg">
<g clip-path="url(#clip0_810_489)">
<path d="M19 14C17.4 14 16 14.7 15.1 15.9L9.8 13.3C9.9 12.8 10 12.4 10 12C10 11.6 9.9 11.1 9.8 10.7L15.1 8.1C16 9.2 17.4 10 19 10C21.8 10 24 7.8 24 5C24 2.2 21.8 0 19 0C16.2 0 14 2.2 14 5C14 5.4 14.1 5.9 14.2 6.3L8.9 8.9C8 7.8 6.6 7 5 7C2.2 7 0 9.2 0 12C0 14.8 2.2 17 5 17C6.6 17 8 16.2 8.9 15L14.2 17.6C14.1 18.1 14 18.5 14 19C14 21.8 16.2 24 19 24C21.8 24 24 21.8 24 19C24 16.2 21.8 14 19 14Z" fill="#101212"/>
</g>
<defs>
<clipPath id="clip0_810_489">
<rect width="24" height="24" fill="white"/>
</clipPath>
</defs>
</svg>
