<svg width="20" height="20" viewBox="0 0 20 20" fill="none" xmlns="http://www.w3.org/2000/svg">
<g clip-path="url(#clip0_123_1975)">
<path fill-rule="evenodd" clip-rule="evenodd" d="M19.7241 5.31035C20.105 5.71028 20.0896 6.34325 19.6897 6.72414L11.2897 14.7241C10.9035 15.092 10.2966 15.092 9.91035 14.7241L5.8 10.8095L1.68966 14.7241C1.28973 15.105 0.65675 15.0896 0.275864 14.6897C-0.105022 14.2897 -0.0895837 13.6567 0.310347 13.2759L5.11035 8.70444C5.49655 8.33662 6.10345 8.33662 6.48966 8.70444L10.6 12.619L18.3103 5.27586C18.7103 4.89498 19.3433 4.91042 19.7241 5.31035Z" fill="#101212"/>
<path fill-rule="evenodd" clip-rule="evenodd" d="M11.108 6.29526C10.9111 6.10665 10.7763 5.83407 10.8893 5.58597C11.0467 5.2403 11.3952 5 11.7998 5H18.9998C19.5521 5 19.9998 5.44772 19.9998 6V12.8571C19.9998 13.2706 19.7488 13.6255 19.3909 13.7778C19.1537 13.8787 18.8959 13.7576 18.7097 13.5792L11.108 6.29526Z" fill="#101212"/>
</g>
<defs>
<clipPath id="clip0_123_1975">
<rect width="20" height="20" fill="white"/>
</clipPath>
</defs>
</svg>
