<svg width="12" height="12" viewBox="0 0 12 12" fill="none" xmlns="http://www.w3.org/2000/svg">
<path d="M5.9999 7C7.4299 7 8.5999 5.95 8.5999 4.66667C8.5999 3.38333 5.9999 0 5.9999 0C5.9999 0 3.3999 3.38333 3.3999 4.66667C3.3999 5.95 4.5699 7 5.9999 7Z" fill="#101212"/>
<path fill-rule="evenodd" clip-rule="evenodd" d="M0 8C0 7.44772 0.447715 7 1 7H2C2.55228 7 3 7.44772 3 8V9H9V8C9 7.44772 9.44772 7 10 7H11C11.5523 7 12 7.44772 12 8V11C12 11.5523 11.5523 12 11 12H1C0.447715 12 0 11.5523 0 11V8Z" fill="#101212"/>
</svg>
