<svg width="12" height="12" viewBox="0 0 12 12" fill="none" xmlns="http://www.w3.org/2000/svg">
<path d="M3.00001 11C2.44772 11 2 10.5523 2.00001 9.99999L2.00008 1.99999C2.00008 1.44771 2.4478 1 3.00008 1L8.99999 1C9.55228 1 9.99999 1.44773 9.99999 2.00002L9.99988 10C9.99987 10.5523 9.55216 11 8.99988 11L3.00001 11Z" stroke="#101212" stroke-width="2" stroke-miterlimit="10" stroke-linecap="square"/>
<path d="M5 7C4.44772 7 4 7.44772 4 8C4 8.55228 4.44772 9 5 9V7ZM7 9C7.55228 9 8 8.55228 8 8C8 7.44772 7.55228 7 7 7V9ZM5 9H7V7H5V9Z" fill="#101212"/>
</svg>
