<svg width="12" height="12" viewBox="0 0 12 12" fill="none" xmlns="http://www.w3.org/2000/svg">
<path fill-rule="evenodd" clip-rule="evenodd" d="M1 11C0.999995 11.5523 1.44771 12 2 12L9.99984 12C10.5521 12 10.9998 11.5523 10.9998 11L11 1.00002C11 0.447726 10.5523 2.1961e-06 9.99998 2.06913e-06L2.00009 0C1.44781 0 1.0001 0.44771 1.00009 0.999991L1 11ZM4.49999 8C3.94771 8 3.49999 8.44771 3.49999 9C3.49999 9.55229 3.94771 10 4.49999 10H7.49999C8.05228 10 8.49999 9.55229 8.49999 9C8.49999 8.44771 8.05228 8 7.49999 8H4.49999Z" fill="#101212"/>
</svg>
