<svg width="16" height="16" viewBox="0 0 16 16" fill="none" xmlns="http://www.w3.org/2000/svg">
<path d="M10 11.9196L9.86986 12.4893C9.42839 12.6752 7.89899 13.4548 7.01691 12.6252C6.75407 12.3785 6.62265 12.065 6.62265 11.6851C6.62265 10.9731 6.84211 10.3525 7.23594 8.86217C7.30526 8.58092 7.39032 8.21516 7.39032 7.92528C7.39032 7.42548 7.21297 7.29236 6.7311 7.29236C6.49591 7.29236 6.23562 7.38187 6 7.47592L6.13057 6.90615C6.65582 6.67806 7.31547 6.39999 7.8807 6.39999C8.72834 6.39999 9.35141 6.85163 9.35141 7.71037C9.35141 7.95799 9.31143 8.39145 9.22722 8.69133L8.73982 10.5333C8.63945 10.9059 8.45657 11.7265 8.73897 11.97C9.01754 12.2103 9.67549 12.0831 10 11.9196Z" fill="#101212"/>
<path d="M8.8998 5.2C9.50732 5.2 9.9998 4.70751 9.9998 4.1C9.9998 3.49249 9.50732 3 8.8998 3C8.29229 3 7.7998 3.49249 7.7998 4.1C7.7998 4.70751 8.29229 5.2 8.8998 5.2Z" fill="#101212"/>
</svg>
