<svg width="24" height="24" viewBox="0 0 24 24" fill="none" xmlns="http://www.w3.org/2000/svg">
<path d="M16.5 14.3565C16.5 12.0335 15.0892 11.2368 12.2676 10.9038C10.2522 10.6377 9.84916 10.1072 9.84916 9.17825C9.84916 8.24935 10.5215 7.65186 11.8646 7.65186C13.0738 7.65186 13.7461 8.05019 14.0815 9.04601C14.1492 9.24517 14.3508 9.37742 14.5523 9.37742H15.6277C15.897 9.37742 16.0985 9.17825 16.0985 8.91217V8.84525C15.8293 7.38419 14.62 6.25612 13.0754 6.12388V4.53057C13.0754 4.26449 12.8739 4.06533 12.5385 4H11.5308C11.2616 4 11.06 4.19916 10.9939 4.53057V6.05696C8.9785 6.32304 7.70154 7.65027 7.70154 9.3105C7.70154 11.5013 9.04461 12.3649 11.8662 12.6963C13.7478 13.0277 14.3524 13.426 14.3524 14.4887C14.3524 15.5515 13.4124 16.2812 12.1354 16.2812C10.3893 16.2812 9.78466 15.5515 9.58312 14.5557C9.51541 14.2896 9.31387 14.1573 9.11233 14.1573H7.9708C7.70154 14.1573 7.5 14.3565 7.5 14.6226V14.6895C7.76926 16.3497 8.84307 17.5447 11.06 17.8761V19.4694C11.06 19.7355 11.2616 19.9347 11.5969 20H12.6046C12.8739 20 13.0754 19.8008 13.1415 19.4694V17.8761C15.1553 17.5431 16.5 16.149 16.5 14.3565Z" fill="#101212"/>
<path d="M8.60989 21.3078C3.4238 19.4456 0.763738 13.6611 2.69296 8.54207C3.69029 5.74956 5.8844 3.62247 8.60989 2.62514C8.87638 2.4927 9.00882 2.29323 9.00882 1.95973V1.02942C9.00882 0.762937 8.87638 0.563471 8.60989 0.498047C8.54287 0.498047 8.41043 0.498047 8.34341 0.565067C2.02755 2.55972 -1.43038 9.27451 0.564274 15.592C1.76106 19.3148 4.62059 22.1743 8.34341 23.3711C8.60989 23.5035 8.87478 23.3711 8.9418 23.1046C9.00882 23.0376 9.00882 22.9722 9.00882 22.8381V21.9078C9.00882 21.7068 8.80936 21.4419 8.60989 21.3078ZM15.6566 0.563471C15.3901 0.431027 15.1252 0.563472 15.0582 0.829957C14.9912 0.896977 14.9912 0.962401 14.9912 1.09644V2.02675C14.9912 2.29323 15.1906 2.55812 15.3901 2.69216C20.5762 4.55437 23.2363 10.3389 21.307 15.4579C20.3097 18.2504 18.1156 20.3775 15.3901 21.3749C15.1236 21.5073 14.9912 21.7068 14.9912 22.0403V22.9706C14.9912 23.2371 15.1236 23.4365 15.3901 23.5019C15.4571 23.5019 15.5896 23.5019 15.6566 23.4349C21.9725 21.4403 25.4304 14.7255 23.4357 8.40803C22.2389 4.61979 19.314 1.76026 15.6566 0.563471Z" fill="#101212"/>
</svg>
