<svg width="20" height="20" viewBox="0 0 20 20" fill="none" xmlns="http://www.w3.org/2000/svg">
<path d="M5.90931 10.4048H4.27295V11.2143H5.90931V10.4048Z" stroke="#101212" stroke-width="2" stroke-linecap="round" stroke-linejoin="round"/>
<path d="M10.818 10.4048H9.18164V11.2143H10.818V10.4048Z" stroke="#101212" stroke-width="2" stroke-linecap="round" stroke-linejoin="round"/>
<path d="M5.90931 14.4524H4.27295V15.2619H5.90931V14.4524Z" stroke="#101212" stroke-width="2" stroke-linecap="round" stroke-linejoin="round"/>
<path d="M10.818 14.4524H9.18164V15.2619H10.818V14.4524Z" stroke="#101212" stroke-width="2" stroke-linecap="round" stroke-linejoin="round"/>
<path d="M15.7272 10.4048H14.0908V11.2143H15.7272V10.4048Z" stroke="#101212" stroke-width="2" stroke-linecap="round" stroke-linejoin="round"/>
<path d="M5.90931 10.4048H4.27295V11.2143H5.90931V10.4048Z" fill="#101212"/>
<path d="M10.818 10.4048H9.18164V11.2143H10.818V10.4048Z" fill="#101212"/>
<path d="M5.90931 14.4524H4.27295V15.2619H5.90931V14.4524Z" fill="#101212"/>
<path d="M10.818 14.4524H9.18164V15.2619H10.818V14.4524Z" fill="#101212"/>
<path d="M15.7272 10.4048H14.0908V11.2143H15.7272V10.4048Z" fill="#101212"/>
<path d="M17.3636 3.11905H2.63636C1.73262 3.11905 1 3.84392 1 4.7381V16.881C1 17.7751 1.73262 18.5 2.63636 18.5H17.3636C18.2674 18.5 19 17.7751 19 16.881V4.7381C19 3.84392 18.2674 3.11905 17.3636 3.11905Z" stroke="#101212" stroke-width="2" stroke-linecap="round" stroke-linejoin="round"/>
<path d="M5.09082 1.5V3.92857" stroke="#101212" stroke-width="2" stroke-linecap="round" stroke-linejoin="round"/>
<path d="M14.9092 1.5V3.92857" stroke="#101212" stroke-width="2" stroke-linecap="round" stroke-linejoin="round"/>
<path d="M1 7.16669H19" stroke="#101212" stroke-width="2" stroke-linecap="round" stroke-linejoin="round"/>
</svg>
