<svg width="16" height="16" viewBox="0 0 16 16" fill="none" xmlns="http://www.w3.org/2000/svg"><path d="M16 7.695C16 7.15 15.78 6.635 15.41 6.295C14.74 5.685 13.76 5.8 13.215 6.555C12.01 5.57 10.315 4.92 8.415 4.835L9.375 1.495L11.895 2.17C11.895 3.09 12.55 3.835 13.36 3.835C14.17 3.835 14.82 3.085 14.825 2.165C14.825 1.25 14.17 0.5 13.36 0.5C12.775 0.5 12.245 0.9 12.015 1.515L8.985 0.7L7.8 4.825C5.81 4.86 4.02 5.505 2.755 6.52C2.455 6.125 2.025 5.9 1.565 5.9C0.705 5.9 0 6.705 0 7.695C0 8.405 0.365 9.045 0.935 9.335C0.88 9.605 0.85 9.88 0.85 10.165C0.845 13.11 4.035 15.5 7.965 15.5C11.895 15.5 15.085 13.11 15.085 10.16C15.085 9.89 15.06 9.62 15.005 9.36C15.605 9.095 16 8.43 16 7.695ZM4.635 9.18C4.635 8.495 5.125 7.935 5.725 7.935C6.325 7.935 6.815 8.49 6.815 9.18C6.815 9.865 6.325 10.425 5.725 10.425C5.12 10.42 4.635 9.865 4.635 9.18ZM10.62 12.695C10.09 13.295 9.265 13.59 8.09 13.59C6.915 13.59 6.09 13.295 5.56 12.695C5.445 12.565 5.445 12.35 5.56 12.22C5.675 12.09 5.86 12.09 5.975 12.22C6.385 12.69 7.08 12.92 8.09 12.92C9.1 12.92 9.795 12.69 10.205 12.22C10.32 12.09 10.505 12.09 10.62 12.22C10.735 12.355 10.735 12.565 10.62 12.695ZM10.46 10.42C9.86 10.42 9.37 9.865 9.37 9.175C9.37 8.49 9.86 7.93 10.46 7.93C11.06 7.93 11.55 8.485 11.55 9.175C11.55 9.865 11.065 10.42 10.46 10.42Z" fill="#000000"/></svg>