<svg width="20" height="20" viewBox="0 0 20 20" fill="none" xmlns="http://www.w3.org/2000/svg">
<path d="M0 0.833333V16.6667C0 17.1267 0.373333 17.5 0.833333 17.5H11.4167C11.5547 17.5 11.6667 17.3881 11.6667 17.25V14.1641C11.6667 14.0985 11.6406 14.0356 11.5954 13.988C10.5718 12.912 10 11.503 10 10C10 6.86717 12.4828 4.30346 15.5832 4.17196C15.7211 4.16611 15.8333 4.05474 15.8333 3.91667V0.833333C15.8333 0.373333 15.46 0 15 0H0.833333C0.373333 0 0 0.373333 0 0.833333ZM7.66667 12.5C7.66667 12.9602 7.29357 13.3333 6.83333 13.3333H4.16667C3.70643 13.3333 3.33333 12.9602 3.33333 12.5C3.33333 12.0398 3.70643 11.6667 4.16667 11.6667H6.83333C7.29357 11.6667 7.66667 12.0398 7.66667 12.5ZM7.66667 8.33333C7.66667 8.79357 7.29357 9.16667 6.83333 9.16667H4.16667C3.70643 9.16667 3.33333 8.79357 3.33333 8.33333C3.33333 7.8731 3.70643 7.5 4.16667 7.5H6.83333C7.29357 7.5 7.66667 7.8731 7.66667 8.33333ZM9.93685 4.16667C9.93685 4.6269 9.56375 5 9.10351 5H3.93685C3.47661 5 3.10351 4.6269 3.10351 4.16667C3.10351 3.70643 3.47661 3.33333 3.93685 3.33333H9.10351C9.56375 3.33333 9.93685 3.70643 9.93685 4.16667Z" fill="#101212"/>
<path d="M15.8333 15.8333C15.0784 15.8333 14.3585 15.6845 13.6961 15.421C13.5254 15.353 13.3333 15.4747 13.3333 15.6585V19.5329C13.3333 19.7325 13.5558 19.8516 13.7219 19.7409L15.6946 18.4258C15.7786 18.3698 15.888 18.3698 15.9719 18.4258L17.9446 19.7409C18.1107 19.8516 18.3333 19.7325 18.3333 19.5329V15.6585C18.3333 15.4747 18.1411 15.353 17.9704 15.421C17.308 15.6845 16.5881 15.8333 15.8333 15.8333Z" fill="#101212"/>
<path d="M15.8334 14.1667C18.1346 14.1667 20.0001 12.3012 20.0001 9.99999C20.0001 7.69881 18.1346 5.83333 15.8334 5.83333C13.5322 5.83333 11.6667 7.69881 11.6667 9.99999C11.6667 12.3012 13.5322 14.1667 15.8334 14.1667Z" fill="#101212"/>
</svg>
