<svg width="24" height="24" viewBox="0 0 24 24" fill="none" xmlns="http://www.w3.org/2000/svg">
<path d="M14.242 21.4137L21.414 14.2417C21.5998 14.056 21.7472 13.8355 21.8478 13.5928C21.9483 13.3501 22.0001 13.0899 22.0001 12.8272C22.0001 12.5645 21.9483 12.3044 21.8478 12.0617C21.7472 11.819 21.5998 11.5984 21.414 11.4127L12 1.99971H2V11.9997L11.413 21.4147C11.5988 21.6004 11.8194 21.7478 12.0621 21.8482C12.3048 21.9487 12.565 22.0004 12.8277 22.0003C13.0904 22.0002 13.3505 21.9483 13.5932 21.8477C13.8359 21.747 14.0563 21.5996 14.242 21.4137V21.4137Z" stroke="#101212" stroke-width="2" stroke-linecap="round" stroke-linejoin="round"/>
<path d="M8 9.99971C9.10457 9.99971 10 9.10428 10 7.99971C10 6.89514 9.10457 5.99971 8 5.99971C6.89543 5.99971 6 6.89514 6 7.99971C6 9.10428 6.89543 9.99971 8 9.99971Z" stroke="#101212" stroke-width="2" stroke-linecap="round" stroke-linejoin="round"/>
</svg>
