<svg width="16" height="16" viewBox="0 0 16 16" fill="none" xmlns="http://www.w3.org/2000/svg">
<path d="M12.2 4.99667V4.75C12.2 2.67917 10.3193 1 8 1C5.68067 1 3.8 2.67917 3.8 4.75V4.99667C3.8 6.1825 3.09347 7.285 1.9408 7.875C1.34253 8.18167 1 8.53667 1 8.91667C1 10.0675 4.13413 11 8 11C11.8659 11 15 10.0675 15 8.91667C15 8.53667 14.6575 8.18167 14.0592 7.875C12.9065 7.28583 12.2 6.1825 12.2 4.99667Z" stroke="#101212" stroke-width="2" stroke-linecap="round" stroke-linejoin="round"/>
<path d="M10 13.8C9.66318 14.5064 8.89442 15 8 15C7.10558 15 6.3377 14.5064 6 13.8008" stroke="#101212" stroke-width="2" stroke-linecap="round" stroke-linejoin="round"/>
</svg>
