<svg width="24" height="24" viewBox="0 0 24 24" fill="none" xmlns="http://www.w3.org/2000/svg">
<path d="M1.25049 10.9524C4.38052 6.77968 9.91405 11.5503 15.9277 6.1091C18.8731 10.7727 22.7562 11.0143 22.7562 11.0143" stroke="#101212" stroke-width="2" stroke-linecap="round" stroke-linejoin="round"/>
<path d="M7.5821 15.9273C8.39547 15.9273 9.05483 15.2679 9.05483 14.4545C9.05483 13.6412 8.39547 12.9818 7.5821 12.9818C6.76874 12.9818 6.10938 13.6412 6.10938 14.4545C6.10938 15.2679 6.76874 15.9273 7.5821 15.9273Z" fill="#101212"/>
<path d="M16.4185 15.9273C17.2319 15.9273 17.8913 15.2679 17.8913 14.4545C17.8913 13.6412 17.2319 12.9818 16.4185 12.9818C15.6052 12.9818 14.9458 13.6412 14.9458 14.4545C14.9458 15.2679 15.6052 15.9273 16.4185 15.9273Z" fill="#101212"/>
<path d="M12.0002 22.8C17.9649 22.8 22.8002 17.9647 22.8002 12C22.8002 6.03532 17.9649 1.2 12.0002 1.2C6.03552 1.2 1.2002 6.03532 1.2002 12C1.2002 17.9647 6.03552 22.8 12.0002 22.8Z" stroke="#101212" stroke-width="2" stroke-linecap="round" stroke-linejoin="round"/>
</svg>
