<svg width="16" height="16" viewBox="0 0 16 16" fill="none" xmlns="http://www.w3.org/2000/svg">
<g clip-path="url(#clip0_143_636)">
<path d="M15 4.99999H10.975C10.8825 6.22839 10.4421 7.40505 9.70534 8.39234C8.9686 9.37963 7.96597 10.1367 6.81473 10.5751C5.66348 11.0135 4.41122 11.115 3.20441 10.8677C1.99759 10.6205 0.886124 10.0347 0 9.17899V14C0.00158273 14.5299 0.212805 15.0377 0.587535 15.4125C0.962265 15.7872 1.47005 15.9984 2 16H15C15.1334 16.008 15.267 15.9876 15.392 15.9402C15.5169 15.8928 15.6304 15.8194 15.7249 15.7249C15.8194 15.6304 15.8928 15.5169 15.9402 15.392C15.9876 15.267 16.008 15.1334 16 15V5.99999C16.008 5.86658 15.9876 5.73298 15.9402 5.60802C15.8928 5.48306 15.8194 5.36958 15.7249 5.27507C15.6304 5.18057 15.5169 5.10718 15.392 5.05976C15.267 5.01235 15.1334 4.99197 15 4.99999ZM12.5 12C12.2033 12 11.9133 11.912 11.6666 11.7472C11.42 11.5824 11.2277 11.3481 11.1142 11.074C11.0006 10.7999 10.9709 10.4983 11.0288 10.2074C11.0867 9.91639 11.2296 9.64911 11.4393 9.43933C11.6491 9.22955 11.9164 9.08669 12.2074 9.02882C12.4983 8.97094 12.7999 9.00064 13.074 9.11417C13.3481 9.22771 13.5824 9.41997 13.7472 9.66664C13.912 9.91331 14 10.2033 14 10.5C13.9904 10.8948 13.8292 11.2707 13.55 11.55C13.2707 11.8292 12.8948 11.9904 12.5 12Z" fill="#101212"/>
<path d="M4.5 0C3.60999 0 2.73996 0.26392 1.99994 0.758387C1.25991 1.25285 0.683138 1.95566 0.342544 2.77792C0.00194979 3.60019 -0.0871652 4.50499 0.0864683 5.37791C0.260102 6.25082 0.688685 7.05264 1.31802 7.68198C1.94736 8.31132 2.74918 8.7399 3.6221 8.91353C4.49501 9.08717 5.39981 8.99805 6.22208 8.65746C7.04434 8.31686 7.74715 7.74009 8.24162 7.00007C8.73608 6.26005 9 5.39002 9 4.5C9 3.30653 8.5259 2.16193 7.68198 1.31802C6.83807 0.474106 5.69348 0 4.5 0V0ZM5.707 4.707L4.707 5.707C4.5184 5.88916 4.2658 5.98995 4.0036 5.98767C3.7414 5.9854 3.49059 5.88023 3.30518 5.69482C3.11978 5.50941 3.01461 5.2586 3.01233 4.9964C3.01005 4.7342 3.11084 4.4816 3.293 4.293L4.293 3.293C4.4816 3.11084 4.73421 3.01005 4.9964 3.01233C5.2586 3.0146 5.50941 3.11977 5.69482 3.30518C5.88023 3.49059 5.9854 3.7414 5.98768 4.0036C5.98995 4.2658 5.88916 4.5184 5.707 4.707Z" fill="#101212"/>
</g>
<defs>
<clipPath id="clip0_143_636">
<rect width="16" height="16" fill="white"/>
</clipPath>
</defs>
</svg>
