<svg width="20" height="20" viewBox="0 0 20 20" fill="none" xmlns="http://www.w3.org/2000/svg">
<path d="M11 6.24497C11 6.79726 10.5523 7.24497 10 7.24497C9.44771 7.24497 9 6.79726 9 6.24497H11ZM10.6808 17.8595L10.2846 16.9414L10.6808 17.8595ZM9.31922 17.8595L9.71536 16.9414L9.31922 17.8595ZM14.5 3C13.002 3 12.1749 3.56974 11.6949 4.19859C11.1789 4.8747 11 5.70977 11 6.24497H9C9 5.36518 9.27113 4.07777 10.1051 2.98514C10.9751 1.84525 12.398 1 14.5 1V3ZM18 7.09396C18 6.38198 17.804 5.30817 17.2562 4.44692C16.7427 3.63954 15.9188 3 14.5 3V1C16.6812 1 18.1073 2.05844 18.9438 3.37355C19.746 4.63478 20 6.10796 20 7.09396H18ZM10.2846 16.9414C12.6733 15.9108 14.6168 14.1627 15.9627 12.2807C17.3234 10.3778 18 8.4439 18 7.09396H20C20 8.99924 19.0979 11.3347 17.5895 13.444C16.0662 15.5742 13.8501 17.5813 11.0769 18.7777L10.2846 16.9414ZM8.92309 18.7777C6.14989 17.5813 3.9338 15.5742 2.41051 13.444C0.902126 11.3347 0 8.99924 0 7.09396H2C2 8.4439 2.67657 10.3778 4.03735 12.2807C5.3832 14.1627 7.32673 15.9108 9.71536 16.9414L8.92309 18.7777ZM0 7.09396C0 6.10796 0.254013 4.63478 1.05622 3.37355C1.89269 2.05844 3.31883 1 5.5 1V3C4.08117 3 3.25731 3.63954 2.74378 4.44692C2.19599 5.30817 2 6.38198 2 7.09396H0ZM5.5 1C7.60201 1 9.02489 1.84525 9.89491 2.98514C10.7289 4.07777 11 5.36518 11 6.24497H9C9 5.70977 8.82113 4.8747 8.30509 4.19859C7.82511 3.56974 6.99799 3 5.5 3V1ZM11.0769 18.7777C10.3898 19.0742 9.61017 19.0742 8.92309 18.7777L9.71536 16.9414C9.89679 17.0196 10.1032 17.0196 10.2846 16.9414L11.0769 18.7777Z" fill="#101212"/>
</svg>
