<svg width="16" height="16" viewBox="0 0 16 16" fill="none" xmlns="http://www.w3.org/2000/svg">
<path d="M11 9.59977C11 8.08979 10.0595 7.57196 8.17843 7.35551C6.83483 7.18256 6.5661 6.83769 6.5661 6.23391C6.5661 5.63012 7.01433 5.24175 7.90971 5.24175C8.71587 5.24175 9.1641 5.50066 9.38767 6.14795C9.43282 6.2774 9.56718 6.36336 9.70154 6.36336H10.4185C10.598 6.36336 10.7324 6.23391 10.7324 6.06095V6.01745C10.5528 5.06776 9.74669 4.33452 8.71695 4.24856V3.21291C8.71695 3.03996 8.58259 2.9105 8.35901 2.86804H7.68721C7.5077 2.86804 7.37334 2.9975 7.32927 3.21291V4.20507C5.98567 4.37802 5.13436 5.24072 5.13436 6.31986C5.13436 7.74388 6.02974 8.30521 7.91078 8.52062C9.16517 8.73604 9.56826 8.99495 9.56826 9.68573C9.56826 10.3765 8.9416 10.8508 8.09029 10.8508C6.92619 10.8508 6.52311 10.3765 6.38875 9.72923C6.3436 9.55627 6.20924 9.47031 6.07488 9.47031H5.31387C5.13436 9.47031 5 9.59977 5 9.77272V9.81622C5.17951 10.8954 5.89538 11.6721 7.37334 11.8875V12.9232C7.37334 13.0961 7.5077 13.2256 7.73128 13.268H8.40308C8.58259 13.268 8.71695 13.1386 8.76102 12.9232V11.8875C10.1035 11.6711 11 10.7649 11 9.59977Z" fill="#101212"/>
<path d="M5.73993 14.1502C2.28254 12.9198 0.509159 9.09764 1.79531 5.71517C2.46019 3.87 3.92294 2.46451 5.73993 1.80552C5.91759 1.718 6.00588 1.58621 6.00588 1.36584V0.751134C6.00588 0.575052 5.91759 0.443254 5.73993 0.400024C5.69525 0.400024 5.60695 0.400025 5.56227 0.444309C1.3517 1.76229 -0.953584 6.19914 0.376182 10.3734C1.17404 12.8333 3.0804 14.7228 5.56227 15.5136C5.73993 15.6011 5.91652 15.5136 5.9612 15.3375C6.00588 15.2932 6.00588 15.25 6.00588 15.1614V14.5467C6.00588 14.4138 5.87291 14.2388 5.73993 14.1502ZM10.4377 0.443254C10.2601 0.35574 10.0835 0.443254 10.0388 0.619336C9.99412 0.663621 9.99412 0.70685 9.99412 0.795418V1.41012C9.99412 1.58621 10.1271 1.76123 10.2601 1.8498C13.7175 3.08027 15.4908 6.90241 14.2047 10.2849C13.5398 12.13 12.0771 13.5355 10.2601 14.1945C10.0824 14.282 9.99412 14.4138 9.99412 14.6342V15.2489C9.99412 15.425 10.0824 15.5568 10.2601 15.6C10.3048 15.6 10.393 15.6 10.4377 15.5557C14.6483 14.2378 16.9536 9.80091 15.6238 5.62661C14.826 3.1235 12.876 1.23404 10.4377 0.443254Z" fill="#101212"/>
</svg>
