<svg width="22" height="24" viewBox="0 0 22 24" fill="none" xmlns="http://www.w3.org/2000/svg">
<path d="M18 10.4737V7.63158C18 5.87277 17.2625 4.18601 15.9497 2.94234C14.637 1.69868 12.8565 1 11 1C9.14348 1 7.36301 1.69868 6.05025 2.94234C4.7375 4.18601 4 5.87277 4 7.63158V10.4737C4 13.6 1 14.3579 1 16.1579C1 17.7684 4.9 19 11 19C17.1 19 21 17.7684 21 16.1579C21 14.3579 18 13.6 18 10.4737Z" stroke="#101212" stroke-width="2" stroke-linecap="round" stroke-linejoin="round"/>
<path d="M11 21.6192C9.93765 21.6192 8.9394 21.5787 8 21.5C8.20027 22.2248 8.59926 22.8582 9.13886 23.3078C9.67846 23.7575 10.3305 24 11 24C11.6695 24 12.3215 23.7575 12.8611 23.3078C13.4007 22.8582 13.7997 22.2248 14 21.5C13.0606 21.5787 12.0623 21.6192 11 21.6192Z" fill="#101212"/>
</svg>
