<svg width="22" height="24" viewBox="0 0 22 24" fill="none" xmlns="http://www.w3.org/2000/svg">
<path d="M19 10V8C19 5.87827 18.1571 3.84344 16.6569 2.34315C15.1566 0.842855 13.1217 0 11 0C8.87827 0 6.84344 0.842855 5.34315 2.34315C3.84285 3.84344 3 5.87827 3 8V10C2.97544 10.61 2.82539 11.2083 2.55922 11.7577C2.29305 12.3071 1.91647 12.7957 1.453 13.193C0.620196 13.9026 0.0985839 14.9103 0 16C0 18.5 4.112 20 11 20C17.888 20 22 18.5 22 16C21.9014 14.9103 21.3798 13.9026 20.547 13.193C20.0835 12.7957 19.707 12.3071 19.4408 11.7577C19.1746 11.2083 19.0246 10.61 19 10Z" fill="#101212"/>
<path d="M8 21.5C8.20027 22.2248 8.59926 22.8582 9.13886 23.3078C9.67846 23.7575 10.3305 24 11 24C11.6695 24 12.3215 23.7575 12.8611 23.3078C13.4007 22.8582 13.7997 22.2248 14 21.5C13.0606 21.5787 12.0623 21.6192 11 21.6192C9.93765 21.6192 8.9394 21.5811 8 21.5Z" fill="#101212"/>
</svg>
