<svg width="24" height="24" viewBox="0 0 24 24" fill="none" xmlns="http://www.w3.org/2000/svg">
<path d="M5.73891 16.7421C6.65261 17.5174 7.78192 17.897 8.89737 18.0998C8.75879 18.3615 8.65435 18.6648 8.58765 19.0116C8.28146 19.1188 7.88605 19.2086 7.47938 19.1687C6.98568 19.1203 6.42572 18.8776 5.95577 18.0967L5.95035 18.087C5.9434 18.0747 5.93393 18.0585 5.92192 18.0387C5.89794 17.9992 5.86366 17.9453 5.81899 17.8817C5.73009 17.755 5.59764 17.586 5.42048 17.4127C5.06858 17.0685 4.51398 16.6829 3.75765 16.6185L3.7365 16.6167H3.71527V17.1167C3.71527 16.6167 3.71512 16.6167 3.71496 16.6167H3.71463L3.71387 16.6168L3.71202 16.6168L3.70697 16.6168L3.69177 16.617C3.6795 16.6173 3.66291 16.6178 3.64297 16.6187C3.60355 16.6205 3.54869 16.6241 3.4867 16.6315C3.38541 16.6435 3.18029 16.674 3.00761 16.7768C2.91536 16.8317 2.77628 16.9407 2.71177 17.1327C2.64242 17.3392 2.69561 17.5296 2.77064 17.6637C2.89815 17.8914 3.15625 18.0833 3.45946 18.2638L3.47346 18.2722L3.48194 18.2765L3.49017 18.2814C3.50175 18.2884 3.52347 18.3023 3.55334 18.3242C3.613 18.3679 3.70539 18.4434 3.81448 18.5601C4.03057 18.7912 4.31883 19.1905 4.54618 19.8371L4.54687 19.8393C4.54947 19.8474 4.55289 19.8576 4.55719 19.87C4.5658 19.8947 4.57798 19.9277 4.59426 19.9677C4.62677 20.0475 4.67595 20.1557 4.74615 20.2809C4.88613 20.5304 5.11305 20.8532 5.46312 21.1497C6.09948 21.6887 7.08313 22.091 8.53714 21.9114V21.9152V21.9204V21.9257V21.9309V21.9361V21.9413V21.9465V21.9517V21.9568V21.962V21.9672V21.9723V21.9775V21.9826V21.9877V21.9929V21.998V22.0031V22.0082V22.0133V22.0184V22.0235V22.0285V22.0336V22.0386V22.0437V22.0487V22.0538V22.0588V22.0638V22.0688V22.0738V22.0788V22.0838V22.0888V22.0938V22.0987V22.1037V22.1086V22.1136V22.1185V22.1234V22.1283V22.1332V22.1382V22.143V22.1479V22.1528V22.1577V22.1625V22.1674V22.1722V22.1771V22.1819V22.1867V22.1916V22.1964V22.2012V22.206V22.2108V22.2155V22.2203V22.2251V22.2298V22.2346V22.2393V22.244V22.2488V22.2535V22.2582V22.2629V22.2676V22.2723V22.2769V22.2816V22.2863V22.2909V22.2956V22.3002V22.3048V22.3095V22.3141V22.3187V22.3233V22.3279V22.3324V22.337V22.3416V22.3461V22.3507V22.3552V22.3598V22.3643V22.3688V22.3733V22.3778V22.3823V22.3868V22.3913V22.3958V22.4002V22.4047V22.4091V22.4136V22.418V22.4224V22.4268V22.4312V22.4356V22.44V22.4444V22.4488V22.4531V22.4575V22.4618V22.4662V22.4705V22.4749V22.4792V22.4835V22.4878V22.4921V22.4964V22.5006V22.5049V22.5092V22.5134V22.5177V22.5219V22.5261V22.5304V22.5346V22.5388V22.543V22.5472V22.5513V22.5555V22.5597V22.5638V22.568V22.5721V22.5763V22.5804V22.5845V22.5886V22.5927V22.5968V22.6009V22.6049V22.609V22.6131V22.6171V22.6212V22.6252V22.6292V22.6332V22.6372V22.6412V22.6452V22.6492V22.6532V22.6572V22.6611V22.6651V22.669V22.6729V22.6769V22.6808V22.6847V22.6886V22.6925V22.6964V22.7003V22.7041V22.708V22.7118V22.7157V22.7195V22.7233V22.7272V22.731V22.7348V22.7386V22.7423V22.7461V22.7499V22.7536V22.7574V22.7611V22.7649V22.7686V22.7723V22.776V22.7797V22.7834V22.7871V22.7908V22.7944V22.7981V22.8018V22.8054V22.809V22.8127V22.8163V22.8199V22.8235V22.8271V22.8307V22.8342V22.8378V22.8414V22.8449V22.8484V22.852V22.8555V22.859V22.8625V22.866V22.8695V22.873V22.8765V22.8799V22.8834V22.8868V22.8903V22.8937V22.8971V22.9005V22.9039V22.9073V22.9107V22.9141V22.9175V22.9208V22.9242V22.9275V22.9308V22.9342V22.9375V22.9408V22.9441V22.9474V22.9507V22.9539V22.9572V22.9605V22.9637V22.967V22.9702V22.9734V22.9766V22.9798V22.983V22.9862V22.9894V22.9926V22.9957V22.9989V23.002V23.0052V23.0083V23.0114V23.0145V23.0176V23.0207V23.0238V23.0269V23.0299V23.033V23.036V23.0391V23.0421V23.0451V23.0482V23.0512V23.0542V23.0571V23.0601V23.0631V23.066V23.069V23.0719V23.0749V23.0778V23.0807V23.0836V23.0865V23.0894V23.0923V23.0952V23.098V23.1009V23.1037V23.1066V23.1094V23.1122V23.115V23.1178V23.1206V23.1234V23.1262V23.129V23.1317V23.1345V23.1372V23.1399V23.1427V23.1454V23.1481V23.1508V23.1534V23.1561V23.1588V23.1615V23.1641V23.1667V23.1694V23.172V23.1746V23.1772V23.1798V23.1824V23.185V23.1875V23.1901V23.1927V23.1952V23.1977V23.2003V23.2028V23.2053V23.2078V23.2103V23.2127V23.2152V23.2177V23.2201V23.2226V23.225V23.2274V23.2298V23.2323V23.2346V23.237V23.2394V23.2418V23.2441V23.2465V23.2488V23.2512V23.2535V23.2558V23.2581V23.2604V23.2627V23.265V23.2673V23.2695V23.2718V23.274V23.2762V23.2785V23.2807V23.2829V23.2851V23.2873V23.2894V23.2916V23.2938V23.2959V23.2981V23.3002V23.3023V23.3044V23.3065V23.3086V23.3107V23.3128V23.3149V23.3169V23.319V23.321V23.323V23.3251V23.3271V23.3291V23.3311V23.3331V23.335V23.337V23.3389V23.3409V23.3428V23.3448V23.3467V23.3486V23.3505V23.3524V23.3543V23.3561V23.358V23.3598V23.3617V23.3635V23.3654V23.3672V23.369C8.53714 23.3934 8.53286 23.4201 8.52481 23.4429C8.51699 23.4651 8.50842 23.476 8.50425 23.4803C8.50217 23.4824 8.49723 23.4877 8.47943 23.4927C8.46199 23.4975 8.42249 23.5045 8.35258 23.4961C3.75841 21.9128 0.5 17.5024 0.5 12.2995C0.5 5.80117 5.70805 0.5 12.0495 0.5C18.3923 0.5 23.595 5.8009 23.4987 12.292L23.4986 12.292V12.2995C23.4986 17.5024 20.2402 21.9128 15.646 23.4961C15.5761 23.5045 15.5366 23.4975 15.5192 23.4927C15.5014 23.4877 15.4965 23.4824 15.4944 23.4803C15.4902 23.476 15.4816 23.4651 15.4738 23.4429C15.4658 23.4201 15.4615 23.3934 15.4615 23.369V23.3666V23.3641V23.3617V23.3592V23.3567V23.3542V23.3516V23.3491V23.3465V23.3439V23.3413V23.3386V23.336V23.3333V23.3306V23.3279V23.3251V23.3223V23.3196V23.3167V23.3139V23.3111V23.3082V23.3053V23.3024V23.2995V23.2965V23.2935V23.2905V23.2875V23.2845V23.2814V23.2784V23.2753V23.2722V23.269V23.2659V23.2627V23.2595V23.2563V23.2531V23.2498V23.2465V23.2432V23.2399V23.2366V23.2332V23.2298V23.2265V23.223V23.2196V23.2162V23.2127V23.2092V23.2057V23.2021V23.1986V23.195V23.1914V23.1878V23.1842V23.1805V23.1769V23.1732V23.1695V23.1658V23.162V23.1582V23.1545V23.1507V23.1468V23.143V23.1391V23.1353V23.1314V23.1274V23.1235V23.1195V23.1156V23.1116V23.1076V23.1035V23.0995V23.0954V23.0913V23.0872V23.0831V23.0789V23.0748V23.0706V23.0664V23.0622V23.0579V23.0537V23.0494V23.0451V23.0408V23.0365V23.0321V23.0278V23.0234V23.019V23.0146V23.0101V23.0057V23.0012V22.9967V22.9922V22.9876V22.9831V22.9785V22.9739V22.9693V22.9647V22.9601V22.9554V22.9507V22.946V22.9413V22.9366V22.9319V22.9271V22.9223V22.9175V22.9127V22.9079V22.903V22.8981V22.8932V22.8883V22.8834V22.8785V22.8735V22.8685V22.8635V22.8585V22.8535V22.8485V22.8434V22.8383V22.8332V22.8281V22.823V22.8178V22.8127V22.8075V22.8023V22.7971V22.7918V22.7866V22.7813V22.776V22.7707V22.7654V22.7601V22.7547V22.7493V22.744V22.7386V22.7331V22.7277V22.7222V22.7168V22.7113V22.7058V22.7003V22.6947V22.6892V22.6836V22.678V22.6724V22.6668V22.6612V22.6555V22.6498V22.6442V22.6385V22.6327V22.627V22.6213V22.6155V22.6097V22.6039V22.5981V22.5923V22.5864V22.5806V22.5747V22.5688V22.5629V22.557V22.551V22.5451V22.5391V22.5331V22.5271V22.5211V22.515V22.509V22.5029V22.4968V22.4907V22.4846V22.4785V22.4723V22.4662V22.46V22.4538V22.4476V22.4414V22.4351V22.4289V22.4226V22.4163V22.41V22.4037V22.3974V22.3911V22.3847V22.3783V22.3719V22.3655V22.3591V22.3527V22.3462V22.3398V22.3333V22.3268V22.3203V22.3138V22.3072V22.3007V22.2941V22.2875V22.2809V22.2743V22.2677V22.261V22.2544V22.2477V22.241V22.2343V22.2276V22.2209V22.2141V22.2074V22.2006V22.1938V22.187V22.1802V22.1734V22.1665V22.1597V22.1528V22.1459V22.139V22.1321V22.1252V22.1182V22.1113V22.1043V22.0973V22.0903V22.0833V22.0763V22.0693V22.0622V22.0551V22.0481V22.041V22.0339V22.0267V22.0196V22.0125V22.0053V21.9981V21.9909V21.9837V21.9765V21.9693V21.962V21.9548V21.9475V21.9402V21.9329V21.9256V21.9183V21.911V21.9036V21.8963V21.8889V21.8815V21.8741V21.8667V21.8592V21.8518V21.8443V21.8369V21.8294V21.8219V21.8144V21.8069V21.7994V21.7918V21.7843V21.7767V21.7691V21.7615V21.7539V21.7463V21.7386V21.731V21.7233V21.7157V21.708V21.7003V21.6926V21.6849V21.6771V21.6694V21.6616V21.6539V21.6461V21.6383V21.6305V21.6227V21.6148V21.607V21.5991V21.5913V21.5834V21.5755V21.5676V21.5597V21.5518V21.5438V21.5359V21.5279V21.5199V21.5119V21.5039V21.4959V21.4879V21.4799V21.4718V21.4638V21.4557V21.4476V21.4395V21.4314V21.4233V21.4152V21.4071V21.3989V21.3908V21.3826V21.3744V21.3662V21.358V21.3498V21.3416V21.3333V21.3251V21.3168V21.3085V21.3003V21.292V21.2837V21.2753V21.267V21.2587V21.2503V21.242V21.2336V21.2252V21.2168V21.2084V21.2V21.1916V21.1832V21.1747V21.1662V21.1578V21.1493V21.1408V21.1323V21.1238V21.1153V21.1068V21.0982V21.0897V21.0811V21.0725V21.064V21.0554V21.0468V21.0381V21.0295V21.0209V21.0122V21.0036V20.9949V20.9863V20.9776V20.9689V20.9602V20.9515V20.9427V20.934V20.9253V20.9165V20.9077V20.899V20.8902V20.8814V20.8726V20.8638V20.855V20.8461V20.8373V20.8284V20.8196V20.8107V20.8018V20.7929V20.784V20.7751V20.7662V20.7573V20.7484V20.7394V20.7305V20.7215V20.7125V20.7036V20.6946V20.6856V20.6766V20.6675V20.6585V20.6495V20.6404V20.6314V20.6223V20.6132V20.6042V20.5951V20.586V20.5769V20.5678V20.5586V20.5495V20.5404V20.5312V20.522V20.5129V20.5037V20.4945V20.4853V20.4761V20.4669V20.4577V20.4485V20.4392V20.43V20.4207V20.4115V20.4022V20.3929V20.3836V20.3744V20.3651V20.3557V20.3464V20.3371V20.3278V20.3184V20.3091V20.2997V20.2904V20.281V20.2716V20.2622V20.2528V20.2434V20.234V20.2246V20.2151V20.2057V20.1963V20.1868V20.1774V20.1679V20.1584V20.1489V20.1394V20.1299V20.1204V20.1109V20.1014V20.0919V20.0824V20.0728V20.0633V20.0537V20.0441V20.0346V20.025V20.0154V20.0058V19.9962V19.9866C15.4615 19.2091 15.2885 18.5897 15.0395 18.1108C16.1749 17.9109 17.3292 17.5317 18.2597 16.7421C19.4412 15.7395 20.1809 14.1479 20.1809 11.6845C20.1809 10.3641 19.8127 9.18911 19.0422 8.2837C19.2145 7.71962 19.4731 6.50909 18.8392 4.93772L18.7602 4.74175L18.5645 4.66187L18.3755 5.12477C18.5645 4.66187 18.564 4.66167 18.5635 4.66146L18.5625 4.66104L18.5603 4.66018L18.5557 4.65838L18.5454 4.65446C18.5379 4.65171 18.5294 4.64872 18.5198 4.64557C18.5006 4.63926 18.4771 4.6323 18.4494 4.62535C18.3937 4.61141 18.3212 4.59757 18.2315 4.58874C18.0515 4.57103 17.8059 4.57385 17.4915 4.63355C16.8993 4.74602 16.0696 5.05887 14.9723 5.80787C13.9877 5.53557 13.0108 5.44474 12.0495 5.44474C11.0854 5.44474 10.1057 5.5361 9.11813 5.81027C8.02239 5.10662 7.1995 4.79832 6.61874 4.67424C6.31088 4.60847 6.07189 4.59468 5.89807 4.60109C5.8113 4.60429 5.74137 4.61251 5.68782 4.62156C5.66108 4.62608 5.6385 4.6308 5.62005 4.63518C5.61083 4.63736 5.60264 4.63946 5.59548 4.6414L5.58553 4.64419L5.58113 4.64548L5.57908 4.64609L5.57809 4.64639C5.5776 4.64654 5.57712 4.64669 5.72352 5.12477L5.57712 4.64669L5.35533 4.7146L5.26396 4.9278C4.87544 5.83426 4.81883 6.63338 4.86064 7.25926C4.88136 7.56953 4.92616 7.83488 4.96329 8.0392C4.96766 8.06327 4.97176 8.08579 4.9756 8.10686C4.98623 8.16519 4.99484 8.21249 5.00166 8.25116C4.30327 9.13636 3.81774 10.3129 3.81774 11.6845C3.81774 14.1479 4.55738 15.7395 5.73891 16.7421Z" fill="#101212" stroke="#101212"/>
</svg>
