<svg width="16" height="16" viewBox="0 0 16 16" fill="none" xmlns="http://www.w3.org/2000/svg">
<g clip-path="url(#clip0_810_505)">
<path fill-rule="evenodd" clip-rule="evenodd" d="M10.6184 4.50385C10.8924 4.98337 10.7258 5.59422 10.2463 5.86823L6.74631 7.86823C6.26679 8.14224 5.65594 7.97564 5.38193 7.49613C5.10792 7.01661 5.27451 6.40575 5.75403 6.13174L9.25403 4.13174C9.73355 3.85773 10.3444 4.02433 10.6184 4.50385Z" fill="#101212"/>
<path fill-rule="evenodd" clip-rule="evenodd" d="M5.38193 8.50385C5.65594 8.02433 6.26679 7.85773 6.74631 8.13174L10.2463 10.1317C10.7258 10.4058 10.8924 11.0166 10.6184 11.4961C10.3444 11.9756 9.73355 12.1422 9.25403 11.8682L5.75403 9.86823C5.27451 9.59422 5.10792 8.98337 5.38193 8.50385Z" fill="#101212"/>
<path fill-rule="evenodd" clip-rule="evenodd" d="M8.75 3.5C8.75 1.567 10.317 0 12.25 0C14.183 0 15.75 1.567 15.75 3.5C15.75 5.433 14.183 7 12.25 7C10.317 7 8.75 5.433 8.75 3.5Z" fill="#101212"/>
<path fill-rule="evenodd" clip-rule="evenodd" d="M8.75 12.5C8.75 10.567 10.317 9 12.25 9C14.183 9 15.75 10.567 15.75 12.5C15.75 14.433 14.183 16 12.25 16C10.317 16 8.75 14.433 8.75 12.5Z" fill="#101212"/>
<path fill-rule="evenodd" clip-rule="evenodd" d="M0.25 8C0.25 6.067 1.817 4.5 3.75 4.5C5.683 4.5 7.25 6.067 7.25 8C7.25 9.933 5.683 11.5 3.75 11.5C1.817 11.5 0.25 9.933 0.25 8Z" fill="#101212"/>
</g>
<defs>
<clipPath id="clip0_810_505">
<rect width="16" height="16" fill="white"/>
</clipPath>
</defs>
</svg>
