<svg width="12" height="12" viewBox="0 0 12 12" fill="none" xmlns="http://www.w3.org/2000/svg">
<path d="M12 6.03649C12.0002 4.88308 11.6719 3.75376 11.0538 2.78223C10.4358 1.81071 9.55389 1.03768 8.51259 0.55467C7.47129 0.0716623 6.3142 -0.101091 5.17832 0.0568648C4.04244 0.214821 2.97534 0.69687 2.10338 1.44594C1.23142 2.195 0.591124 3.17971 0.258297 4.28346C-0.07453 5.38722 -0.0859433 6.56379 0.225408 7.67387C0.53676 8.78395 1.15784 9.78103 2.0151 10.5471C2.87236 11.3131 3.9299 11.816 5.0625 11.9962V7.78066H3.53925V6.03649H5.0625V4.70649C5.0297 4.39602 5.0652 4.08209 5.16647 3.78695C5.26774 3.49182 5.43231 3.2227 5.64852 2.99867C5.86473 2.77465 6.12728 2.6012 6.41756 2.49062C6.70784 2.38004 7.01875 2.33504 7.32825 2.35881C7.77827 2.36475 8.22724 2.40409 8.6715 2.47649V3.96341H7.9155C7.78672 3.94647 7.6558 3.95888 7.53243 3.99971C7.40906 4.04054 7.29639 4.10875 7.20278 4.1993C7.10915 4.28985 7.03697 4.40041 6.99158 4.52281C6.94618 4.64521 6.92872 4.77631 6.9405 4.90641V6.038H8.60475L8.3385 7.78217H6.9375V12C8.34918 11.7754 9.63477 11.0512 10.5629 9.95798C11.491 8.86471 12.0006 7.4741 12 6.03649Z" fill="#101212"/>
</svg>
