<svg width="12" height="12" viewBox="0 0 12 12" fill="none" xmlns="http://www.w3.org/2000/svg">
<path fill-rule="evenodd" clip-rule="evenodd" d="M4.5 5.99994C4.5 5.17151 5.17157 4.49994 6 4.49994C6.82843 4.49994 7.5 5.17151 7.5 5.99994C7.5 6.82837 6.82843 7.49994 6 7.49994C5.17157 7.49994 4.5 6.82837 4.5 5.99994Z" fill="#101212"/>
<path fill-rule="evenodd" clip-rule="evenodd" d="M4.25881 0.652818C4.30761 0.279348 4.62584 0 5.00248 0H6.99752C7.37417 0 7.69239 0.279348 7.74119 0.652818L7.89274 1.81259C8.216 1.94908 8.52285 2.12017 8.80736 2.32292L9.97166 1.85288C10.3132 1.715 10.7043 1.84552 10.8946 2.16088L11.8921 3.81414C12.0935 4.14787 12.0056 4.58023 11.69 4.80892L10.7128 5.51696C10.7306 5.6767 10.7397 5.83738 10.7401 5.99832L9.99008 5.99994L10.7401 6.00155C10.7397 6.1625 10.7306 6.32317 10.7128 6.48291L11.69 7.19095C12.0056 7.41965 12.0935 7.852 11.8921 8.18574L10.8946 9.83899C10.7043 10.1544 10.3132 10.2849 9.97166 10.147L8.80736 9.67695C8.52285 9.8797 8.216 10.0508 7.89274 10.1873L7.74119 11.3471C7.69239 11.7205 7.37417 11.9999 6.99752 11.9999H5.00248C4.62584 11.9999 4.30761 11.7205 4.25881 11.3471L4.10727 10.1873C3.78401 10.0508 3.47716 9.8797 3.19264 9.67695L2.02834 10.147C1.6868 10.2849 1.2957 10.1544 1.10542 9.83899L0.107899 8.18574C-0.0934659 7.852 -0.00562364 7.41965 0.310012 7.19095L1.28682 6.4832C1.251 6.16195 1.251 5.83792 1.28682 5.51668L0.310012 4.80892C-0.00562364 4.58023 -0.0934659 4.14787 0.107899 3.81414L1.10542 2.16088C1.2957 1.84552 1.6868 1.715 2.02834 1.85288L3.19264 2.32292C3.47716 2.12017 3.78401 1.94908 4.10727 1.81259L4.25881 0.652818ZM9.24009 5.99994C9.2395 5.78167 9.21449 5.56395 9.16539 5.35043C9.09793 5.05702 9.21247 4.7517 9.45627 4.57505L10.2516 3.99876L9.94048 3.48308L8.96559 3.87665C8.703 3.98266 8.4031 3.93173 8.19023 3.74499C7.84674 3.44365 7.43692 3.21537 6.98821 3.07784C6.70721 2.99171 6.50241 2.74938 6.46433 2.45794L6.33915 1.49998H5.66085L5.53568 2.45794C5.49759 2.74938 5.29279 2.99171 5.01179 3.07784C4.56308 3.21537 4.15326 3.44365 3.80977 3.74499C3.5969 3.93173 3.297 3.98266 3.03441 3.87665L2.05952 3.48308L1.74837 3.99876L2.54373 4.57505C2.788 4.75203 2.90246 5.05813 2.83426 5.35196C2.73516 5.77887 2.73516 6.22101 2.83426 6.64791C2.90246 6.94174 2.788 7.24784 2.54373 7.42483L1.74837 8.00111L2.05952 8.5168L3.03441 8.12322C3.297 8.01721 3.5969 8.06814 3.80977 8.25489C4.15326 8.55622 4.56308 8.78451 5.01179 8.92204C5.29279 9.00817 5.49759 9.2505 5.53568 9.54193L5.66085 10.4999H6.33915L6.46433 9.54193C6.50241 9.2505 6.70721 9.00817 6.98821 8.92204C7.43692 8.78451 7.84674 8.55622 8.19023 8.25489C8.4031 8.06814 8.703 8.01721 8.96559 8.12322L9.94048 8.5168L10.2516 8.00111L9.45627 7.42483C9.21247 7.24818 9.09793 6.94286 9.16539 6.64944C9.21449 6.43592 9.2395 6.2182 9.24009 5.99994Z" fill="#101212"/>
</svg>
