<svg width="16" height="16" viewBox="0 0 16 16" fill="none" xmlns="http://www.w3.org/2000/svg">
<path fill-rule="evenodd" clip-rule="evenodd" d="M11.5072 4.09288C11.8977 4.48341 11.8977 5.11657 11.5072 5.50709L5.50716 11.5071C5.11663 11.8976 4.48347 11.8976 4.09294 11.5071C3.70242 11.1166 3.70242 10.4834 4.09294 10.0929L10.0929 4.09288C10.4835 3.70236 11.1166 3.70236 11.5072 4.09288Z" fill="#101212"/>
<path fill-rule="evenodd" clip-rule="evenodd" d="M4.09294 4.09288C4.48347 3.70236 5.11663 3.70236 5.50716 4.09288L11.5072 10.0929C11.8977 10.4834 11.8977 11.1166 11.5072 11.5071C11.1166 11.8976 10.4835 11.8976 10.0929 11.5071L4.09294 5.50709C3.70242 5.11657 3.70242 4.48341 4.09294 4.09288Z" fill="#101212"/>
</svg>
