<svg width="12" height="12" viewBox="0 0 12 12" fill="none" xmlns="http://www.w3.org/2000/svg">
<g clip-path="url(#clip0_123_2178)">
<path fill-rule="evenodd" clip-rule="evenodd" d="M11.6727 2.76007C12.0813 3.13157 12.1115 3.76402 11.7399 4.17268L8.10358 8.17268C7.91406 8.38115 7.64539 8.50001 7.36364 8.50001C7.0819 8.50001 6.81323 8.38115 6.6237 8.17268L4.63637 5.98661L1.73995 9.17268C1.36844 9.58134 0.735992 9.61145 0.327334 9.23995C-0.0813234 8.86844 -0.11144 8.23599 0.260067 7.82733L3.89643 3.82733C4.08595 3.61886 4.35463 3.50001 4.63637 3.50001C4.91812 3.50001 5.18679 3.61886 5.37631 3.82733L7.36364 6.0134L10.2601 2.82733C10.6316 2.41868 11.264 2.38856 11.6727 2.76007Z" fill="#101212"/>
</g>
<defs>
<clipPath id="clip0_123_2178">
<rect width="12" height="12" fill="white"/>
</clipPath>
</defs>
</svg>
