<?xml version="1.0" encoding="UTF-8"?><svg xmlns="http://www.w3.org/2000/svg" xmlns:xlink="http://www.w3.org/1999/xlink" viewBox="0 0 560 560"><defs><style>.s{fill:url(#d);}.t{fill:#f1f3ee;}</style><radialGradient id="d" cx="424.6" cy="144.6" fx="424.6" fy="144.6" r="347.3" gradientTransform="matrix(1, 0, 0, 1, 0, 0)" gradientUnits="userSpaceOnUse"><stop offset="0" stop-color="#c2b6dc"/><stop offset="1" stop-color="#ffb887"/></radialGradient></defs><g id="a"><path id="b" class="t" d="M301.6,109.3c3.6,0,7.3,.3,10.9,.6,15.2,1.3,30.8,4.5,44.5,11.3,2.4,1.2,4.7,2.5,7,3.9,10.9,6.6,19.9,15.1,24.7,27.3,3.1,7.9,3.1,16,.2,24-3.6,10.1-10.5,18-18.5,24.9-10.7,9.2-22.7,16.2-35.6,22.1-12.9,5.8-26.6,9.5-40.1,13.4-10,2.9-20,5.8-30.1,8.5-1.7,.5-3.7,.2-5.6,.3-.8,0-1.7,0-2.4,.2-13.2,5.3-27,8.2-41,10.4-18,2.8-36.2,4.4-54.5,2-7.8-1-15.4-2.9-22-7.2-8.3-5.4-13.1-12.9-13.2-23.2-.2-12,4.3-22.5,10.3-32.5,9.7-16.2,22.6-29.4,37.4-41,10.8-8.5,22.3-15.8,34.6-22,14-7.1,28.7-12.6,43.9-16.6,16.1-4.2,32.8-6.5,49.5-6.2Z"/></g><g id="c"><path id="e" class="s" d="M174.5,397.4c-3.7-.3-6.9-.7-10.1-.8-12.6-.7-25.1-3-37.3-6-16.9-4.3-33-10.7-47.3-20.9-19.3-13.9-31.6-32-32.1-56.4-.2-11.6,2.5-22.8,7.2-33.6,7.7-17.6,19.6-32,33.2-45.1,16-15.3,34.2-27.7,53.9-37.6,11.6-5.8,23.4-11.2,35.5-15.9,17.5-6.8,35.7-12,54.2-15,13.9-2.3,27.9-3.7,41.8-5,7.3-.7,14.7-.7,22-.6,20.6,.3,40.8,2.9,60.7,8.8,14,4.1,27.1,9.9,39.1,18.1,16.2,11.1,28.1,25.7,32.4,45.4,2.4,11.2,1.9,22.3-1.3,33.4-4.2,14.9-11.7,27.9-21.4,39.7-13,15.8-28.3,28.8-45.3,40.1-16.7,11.1-34.5,20.2-53,27.7-17.5,7.1-35.4,12.8-53.9,16.3-7.4,1.4-12.5,4.7-17.7,9.7-18.8,18-39.2,33.7-62.9,44.9-5.3,2.5-10.7,4.6-16.5,5.2-3.9,.4-6.5-1.6-6.7-5.5-.4-6.3,2.2-11.9,4.9-17.3,5-9.9,11.5-18.9,18.8-27.3,.5-.6,.9-1.2,1.7-2.3Z"/></g><g id="f"><path id="g" class="t" d="M276.7,278.8c.8,3-.1,4.8-2.9,5.4-10.2,2-19.3-.2-26.9-8.1-1.5-1.6-3.3-2.9-4.9-4.4-.6,1.6-1.3,3.7-2.1,5.8-4.7,12.6-13.4,20.1-26.2,22.3-11.6,2-20.6-3.4-28.6-11.3-3.5-3.5-6.4-7.7-9.6-11.6-1.1,3.8-2.1,7.8-3.5,11.6-3.5,9.8-8.4,18.5-17.4,23.9-11.2,6.7-22.2,5.8-32.9-1.3-6.1-4-11.3-9.2-15.9-15.5-.9,1.1-1.6,2.2-2.5,3.1-9.1,9.4-19.8,14.3-32.6,10.5-4.3-1.2-8.5-3.8-12-6.8-4.7-4.1-9-8.8-12.7-13.8-3.8-5.2-6.6-11.2-9.7-16.8-5.2-9.5-8.9-19.6-12.3-29.9-2-6.2-3.5-12.6-4.9-18.9-1.4-6.5-2.7-13-3.5-19.6-.9-6.5-1.3-13.1-1.6-19.7-.2-4.6-.1-9.2,.3-13.8,.5-5.6,2.6-7.5,8.3-7.8,.2,.7,.7,1.7,.4,2.2-2.6,5.3-1.4,11.1-1.3,16.6,.1,6.4,.9,12.8,1.7,19.2,2,17.3,6.3,33.9,12.6,50,4.6,11.8,10,23.3,17.2,33.6,4.9,6.9,10.3,13.4,17.7,17.5,11.9,6.6,24.1,2.8,30.5-9.6,.3-.6,.2-1.8,0-2.4-3.7-7.3-7.7-14.4-11.3-21.8-4.3-8.9-7.2-18.3-9-28-1.4-7.3-2.5-14.7-.5-22.1,2.5-9.1,11.3-13.3,18.9-9,3.6,2,6.1,5.3,8.2,8.9,8.3,14.6,9.8,30.5,8.6,47-.5,7.4-2.2,14.5-4.8,21.3-.4,1.1-.2,2.9,.5,3.8,6.2,8.4,13.3,15.9,22.9,19.8,9.3,3.8,18,2.1,24.5-8.1,5.5-8.6,7.5-18.5,9.7-28.4,1.7-7.5-1.7-13.7-3.2-20.4-1-4.3-1.9-8.5-1.1-13,.6-3.1,2.5-4.9,4.9-6.2,2.1-1.1,4.5-.3,5,2,1.2,5,2,10.2,2.9,15.3,.2,1.1,.2,2.2,0,3.3-1.2,7.5,2.6,13.3,6.1,19.1,3.8,6.1,8.4,11.5,14.2,15.6,7.7,5.4,15.8,8,24.7,3.3,4.4-2.3,7.1-6.4,9.1-10.9,2.6-5.7,3.7-11.9,3.9-18.2,.1-3.3,1.3-5.6,4.5-6.7,1.8-.6,2.9-.5,3.9,1.2,2.1,3.4,4.2,6.8,6.6,10.1,5.8,7.9,13.3,12.4,23.3,11.5,.9,0,1.9,0,2.9,0Zm-170.8,1.8c.6-2.2,1-3.6,1.2-5,1.7-8.9,2-17.9,1.2-27-.8-8.1-2.6-15.9-6-23.1-2.1-4.6-4.9-8.8-9.2-11.5-2.9-1.9-3.9-1.4-4.8,1.9-.5,1.7-1,3.6-.8,5.3,.6,6.4,.9,12.8,2.3,19,2.1,10.2,5.8,19.9,10.3,29.2,1.7,3.6,3.7,7,6,11.2Z"/></g><g id="h"><path id="i" class="t" d="M442.4,452.3c.7,4.3,1.4,8.1,1.8,12,.4,4.1,1.1,8.3,.6,12.4-.8,6.4-5,8.9-11.5,8-6.5-.9-10.3-5.3-13.6-10.2-3.9-5.8-7.5-11.8-10.9-17.9-1.7-3-2.8-6.3-4-9.5-.7-1.8-1.7-2.9-3.7-3.3-5-1-10.2-1.8-15-3.7-8.2-3.2-16.4-6.6-24.1-10.8-8.2-4.4-15.9-9.6-23.6-14.9-6.8-4.7-13.3-9.7-19.6-15-11.2-9.5-21.4-20.1-29.8-32.2-4.4-6.3-8-13.2-9.8-20.8-2.4-10.1-1-19.7,3.7-28.8,5.7-11,13.4-20.2,23.6-27.3,9.5-6.6,20.4-9.6,31.8-10.7,10.1-1,20.2-.5,30.2,.9,17.7,2.6,34.8,7.2,51.1,14.6,9.9,4.5,19.9,8.7,29.3,14.1,11.3,6.5,22.2,13.9,32.9,21.3,11.6,8.1,21.9,17.7,31.6,28,5.7,6,11,12.4,15.8,19.1,4.6,6.3,8.7,13.1,12.3,20,5.5,10.6,8.4,22.1,6.7,34.2-1.6,11-7.9,18.8-18,23.5-10.5,4.9-21.7,6.1-33.1,5.8-7.7-.2-15.3-1-22.9-2.1-7.6-1.1-15.2-2.7-22.7-4.2-2.9-.6-5.8-1.6-9-2.6Zm-7.7,27c.4-.1,.9-.2,1.3-.4,.1-2.3,.6-4.6,.4-6.9-.4-4.4-.8-8.8-1.8-13.1-.6-2.8-1.9-5.6-3.4-8.1-1.2-1.9-.8-3.3,.8-3.9,2.4-.8,5.1-1.5,7.5-1.2,4,.5,7.9,1.9,11.8,3,14.3,3.9,28.8,7,43.8,7.5,9.5,.3,19,0,28-3.7,6.4-2.6,11.4-6.6,14.1-13.2,3.8-9,3-18,.5-27.1-3.4-12.1-9.5-22.8-17-32.7-8-10.6-17.2-20.2-26.9-29.3-11.9-11.1-24.7-21.1-38.5-29.5-11.3-6.8-23.1-12.7-34.9-18.6-11.3-5.6-23.3-9.5-35.5-12.9-11.1-3-22.4-4.7-33.8-5.3-7.7-.3-15.3,.2-22.9,2.1-11.3,2.8-20.1,9.4-27.5,18-5.4,6.3-10,13.3-12.5,21.4-3.1,10.4-1.2,20.3,3.5,29.6,4.8,9.6,11.4,18.1,18.8,25.8,10.1,10.5,20.8,20.3,32.8,28.5,9.2,6.2,18.7,12,28.4,17.4,6.5,3.6,13.5,6.2,20.4,9,3.2,1.3,6.7,2,10.2,3,.2-2.2,.2-3.8,.4-5.4,.3-2.5,1.7-4.4,3.9-5.4,6.2-2.8,10.5-1.1,14.7,3.7,2.8,3.1,2.4,6.7-.6,9.2-1.3,1.1-3.1,1.6-4.8,2.3-1,.4-2,.6-3.3,1,6.1,12.8,11.3,25.7,22.1,35Zm-23.3-40.4c.3,.2,.6,.3,.9,.5,.6-.8,1.9-1.7,1.8-2.4-.3-1.3-1.3-2.5-2-3.8l-.7,.4v5.3Z"/><g id="j"><path class="t" d="M382.8,368.5c-1-2.9-2-5-2.5-7.2-1.3-5.4-2.9-10.8-3.5-16.3-.5-4.8-.2-9.9,3-14.1,4.5-5.8,12.3-5.8,17.4-.7,8.5,8.6,8.8,28.6-2.1,37.1-2,1.6-2.1,2.8-.8,4.8,3.8,5.7,7.6,11.3,13.5,15.1,1.7,1.1,3.9,1.8,5.9,2,1.1,0,2.7-1.1,3.5-2.2,2.8-4.1,3.5-8.7,3.2-13.6-.3-4.4,1-6,5.4-5.9,1.2,0,3,1.4,3.6,2.6,3.5,7.1,8.1,13.4,13.7,19,7.3,7.2,15.8,12.8,24.4,18.3,.9,.5,1.3,1.8,1.9,2.7-1,.7-1.9,1.7-3,2-3.6,1.1-6.3-1.2-9-3-7.6-5-15.1-10.1-21.5-16.7-2.8-2.9-5.5-6-7.8-8.5-2.2,2.6-4,5.7-6.7,7.7-4.9,3.7-10.6,3.4-16.2,1.3-7.3-2.8-12.4-8.3-16.4-14.6-2.4-3.8-4.5-6-9.7-5.7-8.3,.6-15-3.7-20.4-9.9-6.8-7.8-11.3-16.8-13.7-26.8-1.4-5.5-2.4-11.1-3.2-16.7-.7-4.5,1.2-6.7,5.7-7.6,2.6-.5,6.1,1.9,6.2,4.6,0,.7-.6,1.9-1.3,2.2-1.9,.9-2.2,2.1-1.9,4.2,1.9,11.8,5.8,22.9,12.4,32.9,3.4,5.1,7.7,9.4,13.6,11.6,1.8,.7,3.9,.8,6.4,1.3Zm7.1-4.9c7-7.3,6.8-23.9-.3-30.5-1.5-1.4-2.2-1-3,.4-.4,.6-.5,1.4-.7,2.1-1.6,6.2-.5,12.2,.9,18.2,.8,3.2,2,6.3,3.1,9.8Z"/></g></g><g id="k"/><g id="l"/><g id="m"/><g id="n"><g id="o"/></g><g id="p"/><g id="q"/><g id="r"/></svg>