<?xml version="1.0" encoding="UTF-8"?><svg xmlns="http://www.w3.org/2000/svg" xmlns:xlink="http://www.w3.org/1999/xlink" viewBox="0 0 560 560"><defs><style>.s{fill:url(#o);}.t{fill:#f1f3ee;}</style><radialGradient id="o" cx="641.1" cy="215.8" fx="641.1" fy="215.8" r="418.8" gradientTransform="matrix(1, 0, 0, 1, 0, 0)" gradientUnits="userSpaceOnUse"><stop offset="0" stop-color="#1acc6c"/><stop offset=".2" stop-color="#1acc6c"/><stop offset=".5" stop-color="#b3f487"/><stop offset=".8" stop-color="#c2b6dc"/></radialGradient></defs><g id="a"/><g id="b"/><g id="c"/><g id="d"><g id="e"/></g><g id="f"><path id="g" class="t" d="M519.9,300.9c-1.1-.6-3.5-.4-4.5,.4-3.6,3.2-6.9,6.7-10.2,10.2-12.3,13-24.4,26.2-36.8,39.1-3.4,3.6-6.8,7.2-11.4,9.7-3.1,1.6-5.7,4.6-6.9,9.5,3-.8,5.6-.8,7.4-2.1,4-2.8,7.8-6,11.3-9.4,8.8-8.8,17.3-17.8,25.9-26.7,2.8-2.9,5.5-5.8,8.2-8.8,.2,.9,0,1.5-.2,2-11,19.7-21.9,39.4-33.1,58.9-6.7,11.6-14.4,22.6-23.1,32.9-11.2,13.4-23,26.2-38.4,34.9-8.9,5.1-18.3,8.3-28.8,6.7-6.2-1-11.4-3.9-15.4-8.9-5.7-7.1-6.6-15.4-6.1-24,0-.9,.9-2,1.7-2.5,15.7-9.4,30.2-20.4,43-33.4,6.3-6.4,12.2-13.2,16.2-21.4,1-2,1.9-4.1,2.3-6.3,1.2-7.4-2.5-11.6-10.9-9.8-4.6,1-9.2,2.9-13.3,5.3-13.7,8.1-24.5,19.3-33.3,32.5-6.1,9.2-11,18.9-13.3,29.7-.4,2.1-1.2,3.4-3.1,4.2-11,5.4-22.1,10.2-34.1,13-12,2.8-23.9,4-36.2,2-11.2-1.9-21.2-6.4-29.9-13.5-10.2-8.4-17.3-19.1-22.4-31.3-3.7-8.9-6.4-18.1-7-27.6,0-1.3-1-2.4-2.3-2.7l-3.1-.6c-1.8-.4-3.5,1.1-3.5,2.9,.2,4.3,.7,8.5,1.4,12.8,1.8,9.9,5.2,19,9.7,27.8,3.6,7.2,8.4,13.6,14.1,19.4,6.8,6.9,14.6,12.2,23.6,15.7,14.2,5.5,29,6,43.8,3.6,12-1.9,23.5-5.5,34.6-10.4,4.2-1.8,8.3-3.8,12.8-5.9,0,1.7,0,3.1,0,4.4,0,8,2,15.6,7,21.6,6.1,7.3,14.5,10.6,24.1,10.5,10.6-.1,20.3-3.6,29.5-8.6,18.6-10.1,33.1-25,45.9-41.4,9.3-11.9,17.6-24.6,25.6-37.4,7.3-11.7,13.6-24.1,20.3-36.2,1.9-3.3,3.7-6.6,5.9-10.5-4.6,23.1-9,45.6-13.5,68.2,2.5,1.6,6.9,.6,8.2-2.3,.6-1.3,1.1-2.8,1.4-4.2,1.4-7,2.7-14,4.1-21,1.8-9,3.7-18,5.5-27,2.7-13.3,5.4-26.6,8-40,.3-1.4,0-3.7-.8-4.2Zm-155.5,101.2c6.4-13.6,15.7-25.1,27.2-34.7,4.4-3.7,8.9-7.4,14.7-8.7,1.6-.4,4.1-.4,4.8,.5,1,1.2,1.3,3.7,.9,5.3-1.3,5.7-4.8,10.4-8.5,14.8-11.9,14.4-26.3,25.8-41.8,36-.5,.3-1.1,.6-1.7,.8l-.9-.5c1.8-4.5,3.4-9.1,5.4-13.5Z"/></g><g id="h"/><g id="i"/><g id="j"><g id="k"/><path id="l" class="t" d="M283.9,179c1.9,.7,3.7,1.4,5.6,2,9.6,2.9,19.2,5.8,28.8,8.6,9,2.7,18,5.3,27,7.9,9,2.7,18,5.4,26.9,8.1,8.2,2.5,16.5,4.9,24.7,7.4,8,2.4,16.1,4.7,24.1,7.1,7.8,2.3,15.5,4.6,23.3,6.9h0c1.4,.4,2.7,.9,4.1,1.3,1.4,.4,2.8,.8,4.2,1,3.8,.6,4.5,.1,5.2-3.5,2.5-14.1,4.9-28.1,7.3-42.2,1.8-10.5,3.6-21,5.4-31.5,.4-2.3-.5-3.4-2.7-4-2.3-.6-4.6-1.3-6.8-1.9-16.4-4.4-32.9-8.7-49.3-13.1-17.7-4.7-35.4-9.3-53.1-14-18.1-4.8-36.2-9.6-54.3-14.4-3.1-.8-6.2,.7-6.7,3.1-1.4,6.4-2.9,12.8-4.3,19.2-2.1,9.2-4.2,18.4-6.3,27.7-1.6,7.1-3.1,14.2-4.7,21.3-.4,1.6,.2,2.4,1.6,2.9Z"/></g><g id="m"><g id="n"><path class="s" d="M335.8,243.9c-3.2,0-6.3-.2-9.5,0-11.2,.8-22,9.5-24.5,19.5-1.9,7.6-1.6,15.1,1.3,22.4,6.6,16.7,25.7,26.8,43.8,18.1,10.7-5.2,16.3-14.1,16.6-25.8,.3-16.4-11.6-30.5-27.7-34.1Zm125.2,27.3c-2.1-4.1-4.3-8.2-6.4-12.3-4.7-9-9.5-17.9-14-27-9.5-19.3-20.1-38-31.8-56.5-1.5,.9-2.8,1.7-4.2,2.3-10.9,5.1-22,9.9-32.8,15.2-11.7,5.8-23.4,11.7-34.7,18.1-13.6,7.7-27.7,14.4-42.1,20.3-9,3.6-18,7.4-26.7,11.7-12.8,6.3-25.3,13-37.8,20-6,3.3-11.7,7.3-17.2,11.4-3.9,2.9-6.1,9.5-3.1,14.5,2.4,4,4.8,8.1,7,12.3,3.9,7.4,7.7,14.8,11.5,22.2,5.7,11,11.5,22.1,17.2,33.1,3.2,6.1,6.5,12.2,9.7,18.2,1.1,2.1,2.6,2.4,4.7,1.3,7-3.5,14-6.9,21-10.3,12.6-6,25.3-12,37.9-18,16.2-7.7,32.5-15.4,48.6-23.3,12.1-6,24-12.4,36-18.6,18.3-9.6,36.6-19.2,54.9-28.8,2.6-1.3,3.4-3.4,2.2-5.7Zm-93.3,17.4c-3,9-8.2,16.3-15.7,22-10.5,7.9-27.9,9-40.1,.4-11.8-8.3-17.3-19.9-17.8-34.1-.1-3.3,.3-6.7,.4-10,2.5-12.9,9.1-22.9,20.6-29.1,13.8-7.4,27.4-5.7,39.5,3.9,14.4,11.4,19,29.4,13.1,46.9Z"/></g></g><g id="p"><path id="q" class="t" d="M94.7,472.4c-6-16.6-12.3-33.2-18-49.9-5-14.7-9.8-29.6-14.2-44.5-2.9-9.7-5.1-19.5-7.3-29.3-2.5-11.6-4.8-23.2-6.9-34.9-1.7-9.8-3-19.6-4.5-29.5-1-7-1.9-13.9-3-21.4,68.9-17.5,137.7-35,206.9-52.6,.6,6.2,1.2,12.1,1.9,17.9,1,7.8,2,15.7,3.1,23.5,1.2,8,2.3,16.1,3.7,24.1,1.3,7.4,2,9.4,3.7,16.7,1.2,5.4,2.7,10.8,4.2,16.2,1.1,3.8,.7,3,2,6.7,.6,1.5,1.6,3.8,2.7,4,2.7,.5,5.6-.1,8.9-.3-.5-1.5-.8-2.5-1.2-3.4-3.9-10.1-5.9-16.2-7.6-23.7s-1.8-8.5-2.8-14.2c-2.4-13-4.1-26.2-5.9-39.4-1.5-11-2.5-22.1-3.7-33.2-.2-1.7-.8-2.9-2.8-2.5-1.7,.4-3.4,1.1-5.1,1.5-12.2,3.1-24.4,6.3-36.6,9.4-17.9,4.6-35.9,9.1-53.8,13.7-19.3,4.9-38.5,9.8-57.8,14.6-15.4,3.9-30.9,7.9-46.3,11.8-6.6,1.7-13.2,3.3-19.8,5.1-1.2,.3-2.4,1.3-3.2,2.2-.2,.3,.8,1.6,1.2,2.5,.1,.3,0,.7,.1,1.1,.6,4.4,1.1,8.9,1.8,13.3,1,6.4,2.1,12.7,3,19.1,.9,6,1.4,12.1,2.5,18.1,1.7,9.8,3.7,19.5,5.7,29.2,1.9,9,3.7,18,6,26.8,2.2,8.8,4.9,17.4,7.5,26.1,3.6,11.7,7.3,23.4,11.3,35,3.8,11.1,8.1,22.1,12.1,33.2,2.2,6,4.2,12,6.3,18,.2,.6,1.4,1.6,1.7,1.4,1.5-.6,3.2-1.3,4.2-2.5,1.1-1.2,3-2.4,1.9-4.8-.8-1.7-1.4-3.6-2.1-5.4Z"/></g><g id="r"/></svg>