<svg width="20" height="20" viewBox="0 0 20 20" fill="none" xmlns="http://www.w3.org/2000/svg">
<path fill-rule="evenodd" clip-rule="evenodd" d="M5.72754 6.72726C5.72754 6.17498 6.17525 5.72726 6.72754 5.72726H13.273C13.8253 5.72726 14.273 6.17498 14.273 6.72726V13.2727C14.273 13.825 13.8253 14.2727 13.273 14.2727H6.72754C6.17525 14.2727 5.72754 13.825 5.72754 13.2727V6.72726Z" fill="#101212"/>
<path fill-rule="evenodd" clip-rule="evenodd" d="M5.72754 1C5.72754 0.447715 6.17525 0 6.72754 0H8.3639C8.91619 0 9.3639 0.447715 9.3639 1C9.3639 1.55228 8.91619 2 8.3639 2H7.72754V2.63636C7.72754 3.18865 7.27982 3.63636 6.72754 3.63636C6.17525 3.63636 5.72754 3.18865 5.72754 2.63636V1Z" fill="#101212"/>
<path fill-rule="evenodd" clip-rule="evenodd" d="M16.3633 1C16.3633 0.447715 16.811 0 17.3633 0H18.9996C19.5519 0 19.9996 0.447715 19.9996 1V2.63636C19.9996 3.18865 19.5519 3.63636 18.9996 3.63636C18.4474 3.63636 17.9996 3.18865 17.9996 2.63636V2H17.3633C16.811 2 16.3633 1.55228 16.3633 1Z" fill="#101212"/>
<path fill-rule="evenodd" clip-rule="evenodd" d="M18.9996 10.6364C19.5519 10.6364 19.9996 11.0841 19.9996 11.6364V13.2727C19.9996 13.825 19.5519 14.2727 18.9996 14.2727H17.3633C16.811 14.2727 16.3633 13.825 16.3633 13.2727C16.3633 12.7204 16.811 12.2727 17.3633 12.2727H17.9996V11.6364C17.9996 11.0841 18.4474 10.6364 18.9996 10.6364Z" fill="#101212"/>
<path fill-rule="evenodd" clip-rule="evenodd" d="M10.6367 1C10.6367 0.447715 11.0844 0 11.6367 0H14.0913C14.6435 0 15.0913 0.447715 15.0913 1C15.0913 1.55228 14.6435 2 14.0913 2H11.6367C11.0844 2 10.6367 1.55228 10.6367 1Z" fill="#101212"/>
<path fill-rule="evenodd" clip-rule="evenodd" d="M19 4.90909C19.5523 4.90909 20 5.3568 20 5.90909V8.36363C20 8.91592 19.5523 9.36363 19 9.36363C18.4477 9.36363 18 8.91592 18 8.36363V5.90909C18 5.3568 18.4477 4.90909 19 4.90909Z" fill="#101212"/>
<path fill-rule="evenodd" clip-rule="evenodd" d="M0 6.72726C0 6.17498 0.447715 5.72726 1 5.72726H2.63636C3.18865 5.72726 3.63636 6.17498 3.63636 6.72726C3.63636 7.27955 3.18865 7.72726 2.63636 7.72726H2V8.36363C2 8.91591 1.55228 9.36363 1 9.36363C0.447715 9.36363 0 8.91591 0 8.36363V6.72726Z" fill="#101212"/>
<path fill-rule="evenodd" clip-rule="evenodd" d="M1 16.3636C1.55228 16.3636 2 16.8114 2 17.3636V18H2.63636C3.18865 18 3.63636 18.4477 3.63636 19C3.63636 19.5523 3.18865 20 2.63636 20H1C0.447715 20 0 19.5523 0 19V17.3636C0 16.8114 0.447715 16.3636 1 16.3636Z" fill="#101212"/>
<path fill-rule="evenodd" clip-rule="evenodd" d="M13.2731 16.3636C13.8254 16.3636 14.2731 16.8114 14.2731 17.3636V19C14.2731 19.5523 13.8254 20 13.2731 20H11.6367C11.0844 20 10.6367 19.5523 10.6367 19C10.6367 18.4477 11.0844 18 11.6367 18H12.2731V17.3636C12.2731 16.8114 12.7208 16.3636 13.2731 16.3636Z" fill="#101212"/>
<path fill-rule="evenodd" clip-rule="evenodd" d="M1 10.6364C1.55228 10.6364 2 11.0841 2 11.6364V14.0909C2 14.6432 1.55228 15.0909 1 15.0909C0.447715 15.0909 0 14.6432 0 14.0909V11.6364C0 11.0841 0.447715 10.6364 1 10.6364Z" fill="#101212"/>
<path fill-rule="evenodd" clip-rule="evenodd" d="M4.90918 19C4.90918 18.4477 5.35689 18 5.90918 18H8.36373C8.91601 18 9.36373 18.4477 9.36373 19C9.36373 19.5523 8.91601 20 8.36373 20H5.90918C5.35689 20 4.90918 19.5523 4.90918 19Z" fill="#101212"/>
</svg>
