<svg width="20" height="20" viewBox="0 0 20 20" fill="none" xmlns="http://www.w3.org/2000/svg">
<path d="M20 10.0606C19.9998 8.13782 19.452 6.25534 18.4215 4.63604C17.391 3.01675 15.921 1.72846 14.1854 0.923687C12.4498 0.118918 10.5214 -0.168628 8.62847 0.0950917C6.73552 0.358812 4.95732 1.16275 3.50437 2.41174C2.05142 3.66072 0.984574 5.30245 0.430132 7.14255C-0.12431 8.98266 -0.143127 10.9441 0.375907 12.7946C0.894941 14.6451 1.93009 16.3073 3.35881 17.5843C4.78752 18.8612 6.54997 19.6996 8.4375 20V12.9693H5.89833V10.0606H8.4375V7.84368C8.4375 5.32237 9.93083 3.92881 12.2142 3.92881C12.9643 3.93963 13.7126 4.00521 14.4533 4.12501V6.60189H13.1917C12.8119 6.55116 12.4276 6.65427 12.1233 6.88855C11.8191 7.12284 11.6197 7.46911 11.5692 7.85123C11.5549 7.95824 11.5526 8.06653 11.5625 8.17404V10.0606H14.3333L13.89 12.9693H11.5567V20C13.91 19.6268 16.0537 18.4206 17.6016 16.5984C19.1495 14.7762 20.0001 12.4578 20 10.0606Z" fill="#101212"/>
</svg>
