<svg width="24" height="24" viewBox="0 0 24 24" fill="none" xmlns="http://www.w3.org/2000/svg">
<path d="M14.3999 10.8C17.0508 10.8 19.1999 8.65097 19.1999 6C19.1999 3.34903 17.0508 1.2 14.3999 1.2C11.7489 1.2 9.59985 3.34903 9.59985 6C9.59985 8.65097 11.7489 10.8 14.3999 10.8Z" stroke="#101212" stroke-width="2" stroke-linecap="round" stroke-linejoin="round"/>
<path d="M17.6571 16.0353H19.5476C20.1952 16.0352 20.8264 16.2351 21.3517 16.6064C21.8771 16.9778 22.2701 17.5018 22.4749 18.1043L22.7999 19.0617L11.0043 22.6218C9.993 22.9268 8.9008 22.8379 7.95458 22.3736L1.19995 19.0617V12H2.22852C3.36509 12 6.24612 12.4419 7.37138 14.0176H10.4571C11.5483 14.0176 12.5948 14.4428 13.3663 15.1995C14.1379 15.9563 14.5714 16.9827 14.5714 18.0529H8.39995" stroke="#101212" stroke-width="2" stroke-linecap="round" stroke-linejoin="round"/>
<path d="M14.3999 5.09999V6.89999" stroke="#101212" stroke-width="2" stroke-linecap="round" stroke-linejoin="round"/>
</svg>
