<svg width="24" height="24" viewBox="0 0 24 24" fill="none" xmlns="http://www.w3.org/2000/svg">
<path d="M20 15.9867H16.7C16.8657 16.6691 16.955 17.3691 16.966 18.0727C16.9631 18.3459 16.8565 18.6068 16.6692 18.7989C16.482 18.9909 16.2293 19.0987 15.966 19.0987H8C7.44771 19.0987 7 18.6509 7 18.0987V18.024C7 17.4717 7.44772 17.024 8 17.024H14C14.5523 17.024 15.0117 16.5703 14.8842 16.033C14.7113 15.3035 14.349 14.63 13.8284 14.09C13.0783 13.3118 12.0609 12.8747 11 12.8747H7C5.8 11.0998 3.305 10.8 2.1 10.8H1C0.447716 10.8 0 11.2477 0 11.8V18.9861C0 19.3717 0.221722 19.723 0.569839 19.8888L8.192 23.5208C9.19998 24.0431 10.3631 24.1426 11.44 23.7988L23.1413 20.0646C23.6293 19.9089 23.9165 19.4091 23.7281 18.9328C23.2845 17.8109 22.2216 15.9867 20 15.9867Z" fill="#101212"/>
<path d="M14.3999 0C13.2132 0 12.0532 0.351894 11.0665 1.01118C10.0798 1.67047 9.31075 2.60754 8.85663 3.7039C8.4025 4.80026 8.28368 6.00666 8.51519 7.17054C8.7467 8.33443 9.31815 9.40353 10.1573 10.2426C10.9964 11.0818 12.0655 11.6532 13.2294 11.8847C14.3932 12.1162 15.5996 11.9974 16.696 11.5433C17.7924 11.0892 18.7294 10.3201 19.3887 9.33342C20.048 8.34673 20.3999 7.18669 20.3999 6C20.3983 4.40919 19.7657 2.88399 18.6408 1.75911C17.5159 0.63424 15.9907 0.00158843 14.3999 0ZM15.3999 8C15.3999 8.55228 14.9522 9 14.3999 9C13.8476 9 13.3999 8.55228 13.3999 8V4C13.3999 3.44772 13.8476 3 14.3999 3C14.9522 3 15.3999 3.44772 15.3999 4V8Z" fill="#101212"/>
</svg>
