<svg width="16" height="16" viewBox="0 0 16 16" fill="none" xmlns="http://www.w3.org/2000/svg">
<path d="M11.1998 14.2713L10.9916 15.1829C10.2852 15.4802 7.83819 16.7277 6.42685 15.4003C6.00631 15.0055 5.79604 14.5039 5.79604 13.8962C5.79604 12.757 6.14717 11.7639 6.77731 9.37945C6.88823 8.92946 7.02432 8.34424 7.02432 7.88043C7.02432 7.08076 6.74056 6.86775 5.96957 6.86775C5.59326 6.86775 5.1768 7.01097 4.7998 7.16145L5.00871 6.24982C5.84912 5.88488 6.90456 5.43997 7.80893 5.43997C9.16514 5.43997 10.1621 6.16259 10.1621 7.53657C10.1621 7.93277 10.0981 8.62631 9.96336 9.10611L9.18352 12.0533C9.02292 12.6494 8.73031 13.9623 9.18215 14.352C9.62787 14.7365 10.6806 14.533 11.1998 14.2713Z" fill="#101212"/>
<path d="M9.43969 3.52C10.4117 3.52 11.1997 2.73202 11.1997 1.76C11.1997 0.787979 10.4117 0 9.43969 0C8.46767 0 7.67969 0.787979 7.67969 1.76C7.67969 2.73202 8.46767 3.52 9.43969 3.52Z" fill="#101212"/>
</svg>
