<svg width="24" height="24" viewBox="0 0 24 24" fill="none" xmlns="http://www.w3.org/2000/svg">
<path fill-rule="evenodd" clip-rule="evenodd" d="M12.0008 0C13.8135 0 15.3132 1.33968 15.564 3.08293C18.0001 4.05721 19.9437 6.00086 20.918 8.43698C20.8463 8.42665 20.7738 8.41846 20.7007 8.41242C22.5481 8.56541 23.9996 10.1132 23.9996 12C23.9996 13.8991 22.529 15.4548 20.6645 15.5904C20.7499 15.5842 20.8345 15.5751 20.918 15.563C19.9437 17.9991 18.0001 19.9428 15.564 20.917C15.3132 22.6603 13.8135 24 12.0008 24C10.0126 24 8.40082 22.3882 8.40082 20.4C8.40082 20.5754 8.41268 20.7479 8.43693 20.9166C6.00138 19.9423 4.05819 17.9989 3.08401 15.5633C1.34023 15.313 0 13.813 0 12C0 10.187 1.34022 8.68699 3.08399 8.43671C4.05817 6.00105 6.00138 4.05771 8.43693 3.08333C8.41268 3.25206 8.40082 3.42456 8.40082 3.6C8.40082 4.14802 8.52258 4.66745 8.74162 5.1324C7.16255 5.88315 5.88341 7.16247 5.13288 8.74166C4.99555 8.67695 4.85345 8.62067 4.70727 8.57348C6.15373 9.04055 7.2 10.3981 7.2 12C7.2 13.6424 6.10018 15.0279 4.59685 15.4602C4.7821 15.407 4.96122 15.3392 5.13289 15.2583C5.88342 16.8375 7.16257 18.1168 8.74163 18.8676C8.53628 19.3035 8.41642 19.7873 8.40224 20.2976C8.45645 18.3567 10.0468 16.8 12.0008 16.8C13.4412 16.8 14.6839 17.6459 15.2595 18.868C16.8386 18.1174 18.1179 16.8382 18.8686 15.2592C17.6459 14.6838 16.7996 13.4408 16.7996 12C16.7996 10.5592 17.646 9.31617 18.8686 8.74083C18.1179 7.16176 16.8386 5.8826 15.2595 5.13203C14.6839 6.35413 13.4412 7.2 12.0008 7.2C10.0126 7.2 8.40082 5.58823 8.40082 3.6C8.40082 1.61177 10.0126 0 12.0008 0ZM13.6008 3.6C13.6008 4.48366 12.8845 5.2 12.0008 5.2C11.1172 5.2 10.4008 4.48366 10.4008 3.6C10.4008 2.71634 11.1172 2 12.0008 2C12.8845 2 13.6008 2.71634 13.6008 3.6ZM5.2 12C5.2 12.8837 4.48366 13.6 3.6 13.6C2.71634 13.6 2 12.8837 2 12C2 11.1163 2.71634 10.4 3.6 10.4C4.48366 10.4 5.2 11.1163 5.2 12ZM20.3996 13.6C21.2832 13.6 21.9996 12.8837 21.9996 12C21.9996 11.1163 21.2832 10.4 20.3996 10.4C19.5159 10.4 18.7996 11.1163 18.7996 12C18.7996 12.8837 19.5159 13.6 20.3996 13.6ZM13.6008 20.4C13.6008 21.2837 12.8845 22 12.0008 22C11.1172 22 10.4008 21.2837 10.4008 20.4C10.4008 19.5164 11.1172 18.8 12.0008 18.8C12.8845 18.8 13.6008 19.5164 13.6008 20.4Z" fill="black"/>
</svg>
