<svg width="12" height="12" viewBox="0 0 12 12" fill="none" xmlns="http://www.w3.org/2000/svg">
<path fill-rule="evenodd" clip-rule="evenodd" d="M3.03608 2.28457C3.4312 2.67044 3.4387 3.30357 3.05282 3.69869C2.39319 4.37413 2 5.26652 2 6.24C2 8.27081 3.74393 10 6 10C8.25607 10 10 8.27081 10 6.24C10 5.26652 9.60681 4.37413 8.94718 3.69869C8.5613 3.30357 8.5688 2.67044 8.96392 2.28457C9.35904 1.8987 9.99216 1.90619 10.378 2.30132C11.3781 3.3253 12 4.71026 12 6.24C12 9.46695 9.26679 12 6 12C2.73321 12 0 9.46695 0 6.24C0 4.71026 0.621945 3.3253 1.62196 2.30132C2.00784 1.90619 2.64096 1.8987 3.03608 2.28457Z" fill="#101212"/>
<path fill-rule="evenodd" clip-rule="evenodd" d="M6 0C6.55228 0 7 0.447715 7 1V4.5C7 5.05229 6.55228 5.5 6 5.5C5.44772 5.5 5 5.05229 5 4.5V1C5 0.447715 5.44772 0 6 0Z" fill="#101212"/>
</svg>
