<svg width="12" height="12" viewBox="0 0 12 12" fill="none" xmlns="http://www.w3.org/2000/svg">
<g clip-path="url(#clip0_803_361)">
<path d="M6 11C8.76142 11 11 8.76142 11 6C11 3.23858 8.76142 1 6 1C3.23858 1 1 3.23858 1 6C1 8.76142 3.23858 11 6 11Z" stroke="#101212" stroke-width="2" stroke-linecap="round" stroke-linejoin="round"/>
<path d="M5.098 6.59807C6.11785 8.3645 5.7814 10.4681 4.34653 11.2965L0.65332 4.89966C2.0882 4.07123 4.07815 4.83164 5.098 6.59807Z" fill="#101212"/>
<path d="M5.50532 0.999974C5.2261 1.77993 5.94401 2.75024 6.41199 2.91777C6.87996 3.0853 8.05057 2.79106 8.32979 2.01111" stroke="#101212" stroke-width="2" stroke-linecap="round" stroke-linejoin="round"/>
<path d="M5.50532 0.999974C5.2261 1.77993 5.94401 2.75024 6.41199 2.91777C6.87996 3.0853 8.05057 2.79106 8.32979 2.01111" stroke="#101212" stroke-width="2" stroke-linecap="round" stroke-linejoin="round"/>
<path d="M9 7.5C9 8.05228 8.05228 8.5 7.5 8.5C6.94772 8.5 6.5 8.05228 6.5 7.5C6.5 6.94772 6.94772 6 7.5 6C8.05228 6 9 6.94772 9 7.5Z" fill="#101212"/>
</g>
<defs>
<clipPath id="clip0_803_361">
<rect width="12" height="12" fill="white"/>
</clipPath>
</defs>
</svg>
