<svg width="100%" height="100%" viewBox="0 0 32 32" version="1.1" xmlns="http://www.w3.org/2000/svg" xmlns:xlink="http://www.w3.org/1999/xlink" xml:space="preserve" xmlns:serif="http://www.serif.com/" style="fill-rule:evenodd;clip-rule:evenodd;stroke-linejoin:round;stroke-miterlimit:2;">
    <g transform="matrix(1,0,0,1,1.74366e-06,0)">
        <path d="M19.836,17.546L24.323,22.003C23.706,22.837 22.965,23.575 22.125,24.189L17.638,19.732L17.638,26.036C17.122,26.114 16.601,26.154 16.08,26.154C15.559,26.154 15.04,26.114 14.525,26.036L14.525,19.732L10.038,24.189C9.198,23.575 8.457,22.837 7.84,22.003L12.327,17.546L5.977,17.546C5.898,17.035 5.858,16.519 5.858,16.002C5.858,15.485 5.898,14.969 5.977,14.458L12.327,14.458L7.84,10.001C8.456,9.166 9.197,8.428 10.038,7.815L14.525,12.272L14.525,5.968C15.04,5.89 15.559,5.85 16.08,5.85C16.601,5.85 17.122,5.89 17.638,5.968L17.638,12.272L22.125,7.815C22.965,8.428 23.706,9.166 24.323,10.001L19.836,14.458L29.996,14.458C30.282,14.46 30.566,14.401 30.828,14.286C31.09,14.172 31.325,14.003 31.517,13.792C31.709,13.581 31.853,13.332 31.941,13.061C32.029,12.79 32.059,12.504 32.028,12.221C31.632,8.336 30.606,4.888 28.949,3.247C24.594,-1.082 7.613,-1.082 3.264,3.247C-1.085,7.576 -1.091,24.438 3.264,28.757C7.619,33.076 24.601,33.086 28.949,28.757C30.606,27.116 31.632,23.665 32.028,19.783C32.059,19.5 32.029,19.214 31.941,18.943C31.853,18.672 31.709,18.423 31.517,18.212C31.325,18.001 31.09,17.832 30.828,17.717C30.566,17.603 30.282,17.544 29.996,17.546L19.836,17.546Z" style="fill:#101212;fill-rule:nonzero;"/>
    </g>
</svg>
