<svg width="24" height="24" viewBox="0 0 24 24" fill="none" xmlns="http://www.w3.org/2000/svg">
<path d="M12 0H11V3.79706C11 4.34934 11.4477 4.79706 12 4.79706C12.5523 4.79706 13 4.34934 13 3.79706V2.05C18.046 2.553 22 6.824 22 12C22 17.514 17.514 22 12 22C6.486 22 2 17.514 2 12V11.799C2 11.2468 1.55228 10.799 1 10.799C0.447715 10.799 0 11.2468 0 11.799L0 12C0 18.617 5.383 24 12 24C18.617 24 24 18.617 24 12C24 5.383 18.617 0 12 0Z" fill="#101212"/>
<path d="M9.87808 14.121C10.4451 14.688 11.1991 15 12.0001 15C12.8011 15 13.5551 14.688 14.1211 14.122C14.6881 13.555 15.0001 12.801 15.0001 12C15.0001 11.199 14.6881 10.445 14.1211 9.878C13.3131 9.071 7.81408 5.77 6.14808 4.777L2.75708 2.757L4.77808 6.148C5.77008 7.814 9.07208 13.315 9.87808 14.121Z" fill="#101212"/>
</svg>
