<svg width="12" height="12" viewBox="0 0 12 12" fill="none" xmlns="http://www.w3.org/2000/svg">
<path fill-rule="evenodd" clip-rule="evenodd" d="M9.20711 2.79292C9.59763 3.18345 9.59763 3.81661 9.20711 4.20714L4.20711 9.20714C3.81658 9.59766 3.18342 9.59766 2.79289 9.20714C2.40237 8.81661 2.40237 8.18345 2.79289 7.79292L7.79289 2.79292C8.18342 2.4024 8.81658 2.4024 9.20711 2.79292Z" fill="#101212"/>
<path fill-rule="evenodd" clip-rule="evenodd" d="M2.79289 2.79292C3.18342 2.4024 3.81658 2.4024 4.20711 2.79292L9.20711 7.79292C9.59763 8.18345 9.59763 8.81661 9.20711 9.20714C8.81658 9.59766 8.18342 9.59766 7.79289 9.20714L2.79289 4.20714C2.40237 3.81661 2.40237 3.18345 2.79289 2.79292Z" fill="#101212"/>
</svg>
