<svg width="20" height="20" viewBox="0 0 20 20" fill="none" xmlns="http://www.w3.org/2000/svg">
<path d="M19.1667 15H0.833333C0.3725 15 0 15.3725 0 15.8333V19.1667C0 19.6275 0.3725 20 0.833333 20H19.1667C19.6275 20 20 19.6275 20 19.1667V15.8333C20 15.3725 19.6275 15 19.1667 15Z" fill="#101212"/>
<path d="M10.6858 1.02055L10 0L9.31417 1.01969C8.76833 1.83219 7.5 3.83733 7.5 4.93151C7.5 6.3476 8.62167 7.5 10 7.5C11.3783 7.5 12.5 6.3476 12.5 4.93151C12.5 3.83733 11.2317 1.83219 10.6858 1.02055Z" fill="#101212"/>
<path d="M16.6667 9H3.33333C2.8725 9 2.5 9.3576 2.5 9.8V13H17.5V9.8C17.5 9.3576 17.1275 9 16.6667 9Z" fill="#101212"/>
</svg>
