<svg width="24" height="24" viewBox="0 0 24 24" fill="none" xmlns="http://www.w3.org/2000/svg">
<g clip-path="url(#clip0_803_334)">
<path d="M12 0C9.62663 0 7.30655 0.703788 5.33316 2.02236C3.35977 3.34094 1.8217 5.21509 0.913451 7.4078C0.00519943 9.60051 -0.232441 12.0133 0.230582 14.3411C0.693605 16.6689 1.83649 18.8071 3.51472 20.4853C5.19295 22.1635 7.33115 23.3064 9.65892 23.7694C11.9867 24.2324 14.3995 23.9948 16.5922 23.0866C18.7849 22.1783 20.6591 20.6402 21.9776 18.6668C23.2962 16.6935 24 14.3734 24 12C23.9966 8.81846 22.7312 5.76821 20.4815 3.51852C18.2318 1.26883 15.1815 0.00344108 12 0V0ZM12 22C10.6712 22.0007 9.35577 21.7357 8.13095 21.2205C6.90614 20.7053 5.79674 19.9503 4.86801 19L6.32301 17.778C6.4707 17.6538 6.57932 17.4895 6.63574 17.305C6.69217 17.1205 6.69399 16.9236 6.64101 16.738L5.94101 14.266C5.89704 14.1135 5.81793 13.9734 5.71001 13.857L4.47401 12.536L4.28701 12.217L4.92701 11.67L7.41401 10.412C7.55683 10.3398 7.68024 10.2343 7.77386 10.1045C7.86748 9.97471 7.92857 9.82432 7.95201 9.666L8.35201 6.926C8.37439 6.77824 8.36338 6.62734 8.31977 6.4844C8.27616 6.34145 8.20106 6.2101 8.10001 6.1L6.45101 4.34C6.42191 4.30806 6.39049 4.27831 6.35701 4.251L6.03901 3.99C7.64454 2.78942 9.57591 2.10299 11.579 2.021L12.027 2.766L12.613 4.479C12.6748 4.65746 12.7853 4.81507 12.932 4.934L15.216 6.771C15.3937 6.91402 15.6149 6.99199 15.843 6.992C15.8824 6.99216 15.9219 6.98982 15.961 6.985L18.961 6.629C19.0929 6.61303 19.2203 6.57124 19.336 6.506L20.054 6.098C21.1503 7.58574 21.8121 9.34865 21.9655 11.1903C22.1189 13.032 21.7581 14.8801 20.9231 16.5287C20.088 18.1774 18.8117 19.5618 17.2362 20.5279C15.6608 21.4939 13.8481 22.0035 12 22Z" fill="#101212"/>
<path d="M19.8939 12.441L18.7589 10.263C18.6927 10.1359 18.6 10.0244 18.4869 9.93626C18.3739 9.84809 18.2433 9.78525 18.1039 9.75199L15.7469 9.18799C15.5599 9.14325 15.364 9.15367 15.1829 9.218L12.9559 9.99999C12.7786 10.0619 12.6223 10.1724 12.5049 10.319L11.1669 12.292C11.0242 12.5801 10.9981 12.9121 11.0939 13.219L11.9059 15.281L11.4059 17C11.371 17.1457 11.3697 17.2975 11.4023 17.4437C11.4349 17.59 11.5004 17.7269 11.5939 17.844L12.2509 19.579C12.3447 19.6929 12.4626 19.7846 12.5961 19.8475C12.7296 19.9104 12.8753 19.943 13.0229 19.943H13.0869L15.4259 19.793C15.6565 19.7781 15.8749 19.6837 16.0439 19.526L17.8059 17.885C17.9046 17.7935 17.9839 17.6829 18.0389 17.56L19.9209 13.31C19.9821 13.1725 20.0114 13.0229 20.0068 12.8724C20.0021 12.7219 19.9635 12.5745 19.8939 12.441Z" fill="#101212"/>
</g>
<defs>
<clipPath id="clip0_803_334">
<rect width="24" height="24" fill="white"/>
</clipPath>
</defs>
</svg>
