<svg width="12" height="12" viewBox="0 0 12 12" fill="none" xmlns="http://www.w3.org/2000/svg">
<path d="M11.775 6.225L5.775 0.225C5.625 0.075 5.475 0 5.25 0H0.75C0.3 0 0 0.3 0 0.75V5.25C0 5.475 0.075 5.625 0.225 5.775L6.225 11.775C6.375 11.925 6.525 12 6.75 12C6.975 12 7.125 11.925 7.275 11.775L11.775 7.275C12.075 6.975 12.075 6.525 11.775 6.225ZM3 3.85714C2.55 3.85714 2.14286 3.45 2.14286 3C2.14286 2.55 2.55 2.14286 3 2.14286C3.45 2.14286 3.85714 2.55 3.85714 3C3.85714 3.45 3.45 3.85714 3 3.85714Z" fill="#101212"/>
</svg>
