<svg width="20" height="20" viewBox="0 0 20 20" fill="none" xmlns="http://www.w3.org/2000/svg">
<path d="M1.04175 9.127C3.65011 5.64973 8.26139 9.62528 13.2727 5.09091C15.7273 8.97728 18.9632 9.17855 18.9632 9.17855" stroke="#101212" stroke-width="2" stroke-linecap="round" stroke-linejoin="round"/>
<path d="M6.31834 13.2727C6.99614 13.2727 7.54561 12.7233 7.54561 12.0454C7.54561 11.3676 6.99614 10.8182 6.31834 10.8182C5.64053 10.8182 5.09106 11.3676 5.09106 12.0454C5.09106 12.7233 5.64053 13.2727 6.31834 13.2727Z" fill="#101212"/>
<path d="M13.6819 13.2727C14.3597 13.2727 14.9091 12.7233 14.9091 12.0454C14.9091 11.3676 14.3597 10.8182 13.6819 10.8182C13.0041 10.8182 12.4546 11.3676 12.4546 12.0454C12.4546 12.7233 13.0041 13.2727 13.6819 13.2727Z" fill="#101212"/>
<path d="M10 19C14.9706 19 19 14.9706 19 10C19 5.02944 14.9706 1 10 1C5.02944 1 1 5.02944 1 10C1 14.9706 5.02944 19 10 19Z" stroke="#101212" stroke-width="2" stroke-linecap="round" stroke-linejoin="round"/>
</svg>
