<svg width="24" height="24" viewBox="0 0 24 24" fill="none" xmlns="http://www.w3.org/2000/svg">
<path d="M16.9094 16.9091C17.9939 16.9091 18.8731 16.0299 18.8731 14.9454C18.8731 13.861 17.9939 12.9818 16.9094 12.9818C15.825 12.9818 14.9458 13.861 14.9458 14.9454C14.9458 16.0299 15.825 16.9091 16.9094 16.9091Z" stroke="#101212" stroke-width="2" stroke-linecap="round" stroke-linejoin="round"/>
<path d="M12.982 7.09091C12.982 8.25602 12.6365 9.39496 11.9892 10.3637C11.3419 11.3325 10.4219 12.0875 9.34546 12.5334C8.26904 12.9793 7.08457 13.0959 5.94185 12.8686C4.79912 12.6413 3.74946 12.0803 2.9256 11.2564C2.10175 10.4325 1.54069 9.38289 1.31339 8.24016C1.08609 7.09744 1.20275 5.91297 1.64862 4.83655C2.09449 3.76013 2.84954 2.8401 3.81829 2.19279C4.78705 1.54549 5.92599 1.2 7.09111 1.2C8.65347 1.2 10.1518 1.82064 11.2566 2.9254C12.3614 4.03016 12.982 5.52854 12.982 7.09091V7.09091Z" stroke="#101212" stroke-width="2" stroke-linecap="round" stroke-linejoin="round"/>
<path d="M16.9093 7.09091H22.8002V22.8H4.14565C3.36447 22.8 2.61528 22.4897 2.0629 21.9373C1.51052 21.3849 1.2002 20.6357 1.2002 19.8545V14.9455" stroke="#101212" stroke-width="2" stroke-linecap="round" stroke-linejoin="round"/>
<path d="M8.07301 6.10909L6.10938 8.07272" stroke="#101212" stroke-width="2" stroke-linecap="round" stroke-linejoin="round"/>
</svg>
