<svg width="24" height="24" viewBox="0 0 24 24" fill="none" xmlns="http://www.w3.org/2000/svg">
<path d="M12 15C13.6569 15 15 13.6569 15 12C15 10.3431 13.6569 9 12 9C10.3431 9 9 10.3431 9 12C9 13.6569 10.3431 15 12 15Z" stroke="#101212" stroke-width="2" stroke-linecap="round" stroke-linejoin="round"/>
<path d="M20.3603 12C20.359 11.4239 20.2931 10.8496 20.1638 10.287L23 8.232L20.9099 4.768L17.6254 6.094C16.7359 5.3137 15.6802 4.72723 14.5311 4.375L14.0901 1H9.90994L9.46893 4.375C8.31976 4.72723 7.26406 5.3137 6.3746 6.094L3.09006 4.768L1 8.232L3.83622 10.287C3.57432 11.4153 3.57432 12.5847 3.83622 13.713L1 15.768L3.09006 19.232L6.3746 17.906C7.26406 18.6863 8.31976 19.2728 9.46893 19.625L9.90994 23H14.0901L14.5311 19.625C15.6802 19.2728 16.7359 18.6863 17.6254 17.906L20.9099 19.232L23 15.768L20.1638 13.713C20.2931 13.1504 20.359 12.5761 20.3603 12V12Z" stroke="#101212" stroke-width="2" stroke-linecap="round" stroke-linejoin="round"/>
</svg>
