<svg width="24" height="24" viewBox="0 0 24 24" fill="none" xmlns="http://www.w3.org/2000/svg">
<path fill-rule="evenodd" clip-rule="evenodd" d="M21.5774 12C21.5737 12.487 21.5282 12.9729 21.4412 13.453L23.6748 15.48C23.8454 15.635 23.956 15.8392 23.989 16.0601C24.022 16.2809 23.9754 16.5058 23.8568 16.699L22.2606 19.299C22.1671 19.4512 22.0326 19.5775 21.8706 19.6653C21.7086 19.753 21.5249 19.7992 21.338 19.799C21.239 19.7986 21.1406 19.7858 21.0453 19.761L18.0658 18.961C17.2603 19.5781 16.3536 20.0681 15.3809 20.412L14.6286 23.242C14.5712 23.4584 14.4384 23.6506 14.2513 23.788C14.0643 23.9253 13.8338 23.9999 13.5964 24H10.404C10.1673 23.9993 9.93764 23.9245 9.75127 23.7874C9.5649 23.6503 9.4325 23.4587 9.37498 23.243L8.62264 20.413C7.6485 20.0695 6.74029 19.5795 5.93358 18.962L2.95401 19.762C2.85869 19.7868 2.76028 19.7996 2.66137 19.8C2.4744 19.8002 2.29069 19.754 2.12872 19.6663C1.96675 19.5785 1.83226 19.4522 1.73877 19.3L0.142574 16.7C0.024167 16.5069 -0.0222357 16.2823 0.0107304 16.0616C0.0436965 15.8409 0.154143 15.6369 0.324541 15.482L2.55922 13.453C2.47221 12.9729 2.42666 12.487 2.42301 12C2.42671 11.5133 2.47227 11.0278 2.55922 10.548L0.324541 8.519C0.153893 8.36398 0.0432911 8.1598 0.0103197 7.93893C-0.0226517 7.71805 0.0239003 7.49316 0.142574 7.3L1.73877 4.7C1.85895 4.50779 2.04342 4.35834 2.26343 4.27495C2.48343 4.19156 2.72662 4.17892 2.95508 4.239L5.93464 5.039C6.74006 4.4219 7.64681 3.93185 8.61945 3.588L9.37179 0.758C9.42923 0.541568 9.56203 0.349398 9.74907 0.212049C9.9361 0.0747014 10.1666 6.1623e-05 10.404 0H13.5964C13.8338 6.1623e-05 14.0643 0.0747014 14.2513 0.212049C14.4384 0.349398 14.5712 0.541568 14.6286 0.758L15.3767 3.588C16.3508 3.93146 17.259 4.42153 18.0658 5.039L21.0453 4.239C21.2738 4.17875 21.517 4.1913 21.7371 4.27471C21.9571 4.35811 22.1416 4.50766 22.2616 4.7L23.8578 7.3C23.9762 7.49305 24.0226 7.71774 23.9897 7.9384C23.9567 8.15906 23.8463 8.36305 23.6759 8.518L21.4412 10.547C21.5282 11.0271 21.5737 11.513 21.5774 12ZM12 8C9.79086 8 8 9.79086 8 12C8 14.2091 9.79086 16 12 16C14.2091 16 16 14.2091 16 12C16 9.79086 14.2091 8 12 8Z" fill="#101212"/>
</svg>
