<svg width="16" height="16" viewBox="0 0 16 16" fill="none" xmlns="http://www.w3.org/2000/svg">
<path fill-rule="evenodd" clip-rule="evenodd" d="M3 6C1.89543 6 1 6.89543 1 8V14C1 15.1046 1.89543 16 3 16H13C14.1046 16 15 15.1046 15 14V8C15 6.89543 14.1046 6 13 6H3ZM8 12.5C8.82843 12.5 9.5 11.8284 9.5 11C9.5 10.1716 8.82843 9.5 8 9.5C7.17157 9.5 6.5 10.1716 6.5 11C6.5 11.8284 7.17157 12.5 8 12.5Z" fill="#101212"/>
<path fill-rule="evenodd" clip-rule="evenodd" d="M8 2C7.46062 2 6.94881 2.20858 6.57576 2.57127C6.20367 2.93302 6 3.41757 6 3.91667V6C6 6.55228 5.55228 7 5 7C4.44772 7 4 6.55228 4 6V3.91667C4 2.86867 4.42847 1.86948 5.1816 1.13728C5.93377 0.406001 6.94808 0 8 0C9.05192 0 10.0662 0.406001 10.8184 1.13728C11.5715 1.86948 12 2.86867 12 3.91667V6C12 6.55228 11.5523 7 11 7C10.4477 7 10 6.55228 10 6V3.91667C10 3.41757 9.79633 2.93302 9.42424 2.57127C9.05119 2.20858 8.53938 2 8 2Z" fill="#101212"/>
</svg>
