<svg width="12" height="12" viewBox="0 0 12 12" fill="none" xmlns="http://www.w3.org/2000/svg">
<path fill-rule="evenodd" clip-rule="evenodd" d="M6.02476 0C2.71114 0 0 2.76738 0 6.14973C0 8.86586 1.70702 11.172 4.11692 11.992C4.41816 12.0432 4.51857 11.8382 4.51857 11.6845C4.51857 11.5307 4.51857 11.172 4.51857 10.6595C2.86176 11.0183 2.51032 9.83957 2.51032 9.83957C2.25928 9.1221 1.85763 8.91711 1.85763 8.91711C1.25516 8.55837 1.85763 8.55837 1.85763 8.55837C2.46011 8.60962 2.76135 9.17335 2.76135 9.17335C3.31362 10.0958 4.16713 9.83957 4.51857 9.68582C4.56878 9.27584 4.7194 9.0196 4.92022 8.86586C3.56465 8.71212 2.15887 8.19964 2.15887 5.84224C2.15887 5.17602 2.4099 4.6123 2.76135 4.20231C2.76135 3.99732 2.51032 3.38235 2.86176 2.56239C2.86176 2.56239 3.36382 2.40864 4.51857 3.17736C5.02063 3.02362 5.5227 2.97237 6.02476 2.97237C6.52682 2.97237 7.02889 3.02362 7.53095 3.17736C8.6857 2.3574 9.18776 2.56239 9.18776 2.56239C9.5392 3.4336 9.28817 4.04857 9.23797 4.20231C9.63962 4.6123 9.84044 5.17602 9.84044 5.84224C9.84044 8.19964 8.43466 8.71212 7.07909 8.86586C7.27992 9.07085 7.48074 9.42959 7.48074 9.99331C7.48074 10.8133 7.48074 11.4795 7.48074 11.6845C7.48074 11.8382 7.58116 12.0432 7.88239 11.992C10.2923 11.172 11.9993 8.86586 11.9993 6.14973C12.0495 2.76738 9.33838 0 6.02476 0Z" fill="#101212"/>
</svg>
