<svg width="12" height="12" viewBox="0 0 12 12" fill="none" xmlns="http://www.w3.org/2000/svg">
<path d="M9.80769 11H2.19231C2.0087 11 1.83261 10.9356 1.70277 10.821C1.57294 10.7064 1.5 10.551 1.5 10.3889V6.11111C1.5 5.94903 1.57294 5.7936 1.70277 5.67899C1.83261 5.56438 2.0087 5.5 2.19231 5.5H9.80769C9.9913 5.5 10.1674 5.56438 10.2972 5.67899C10.4271 5.7936 10.5 5.94903 10.5 6.11111V10.3889C10.5 10.551 10.4271 10.7064 10.2972 10.821C10.1674 10.9356 9.9913 11 9.80769 11Z" stroke="#101212" stroke-width="2" stroke-linecap="round" stroke-linejoin="round"/>
<path d="M4 4.5V3.04167C4 2.50018 4.21071 1.98088 4.58579 1.59799C4.96086 1.2151 5.46957 1 6 1V1C6.53043 1 7.03914 1.2151 7.41421 1.59799C7.78929 1.98088 8 2.50018 8 3.04167V4.5" stroke="#101212" stroke-width="2" stroke-linecap="round" stroke-linejoin="round"/>
</svg>
