<svg width="24" height="24" viewBox="0 0 24 24" fill="none" xmlns="http://www.w3.org/2000/svg">
<path d="M23 18H1C0.447 18 0 18.447 0 19V23C0 23.553 0.447 24 1 24H23C23.553 24 24 23.553 24 23V19C24 18.447 23.553 18 23 18Z" fill="#101212"/>
<path d="M12.823 1.22466L12 0L11.177 1.22363C10.522 2.19863 9 4.60479 9 5.91781C9 7.61712 10.346 9 12 9C13.654 9 15 7.61712 15 5.91781C15 4.60479 13.478 2.19863 12.823 1.22466Z" fill="#101212"/>
<path d="M20 11H4C3.447 11 3 11.447 3 12V16H21V12C21 11.447 20.553 11 20 11Z" fill="#101212"/>
</svg>
