<svg width="16" height="14" viewBox="0 0 16 14" fill="none" xmlns="http://www.w3.org/2000/svg">
<path d="M12.1149 4.27893C11.8225 4.11276 11.4465 4.11276 11.1123 4.27893L8.77285 5.64985L7.18538 6.52226L4.88773 7.89317C4.5953 8.05935 4.21932 8.05935 3.88512 7.89317L2.08877 6.81306C1.79634 6.64688 1.58747 6.31454 1.58747 5.94065V3.8635C1.58747 3.53116 1.75457 3.19881 2.08877 2.9911L3.88512 1.95252C4.17755 1.78635 4.55352 1.78635 4.88773 1.95252L6.68407 3.03264C6.9765 3.19881 7.18538 3.53116 7.18538 3.90504V5.27596L8.77285 4.36202V2.94955C8.77285 2.61721 8.60574 2.28487 8.27154 2.07715L4.9295 0.124629C4.63708 -0.041543 4.2611 -0.041543 3.92689 0.124629L0.501306 2.11869C0.167102 2.28487 0 2.61721 0 2.94955V6.8546C0 7.18694 0.167102 7.51929 0.501306 7.727L3.88512 9.67953C4.17755 9.8457 4.55352 9.8457 4.88773 9.67953L7.18538 8.35015L8.77285 7.4362L11.0705 6.10682C11.3629 5.94065 11.7389 5.94065 12.0731 6.10682L13.8695 7.1454C14.1619 7.31157 14.3708 7.64392 14.3708 8.0178V10.095C14.3708 10.4273 14.2037 10.7596 13.8695 10.9674L12.1149 12.0059C11.8225 12.1721 11.4465 12.1721 11.1123 12.0059L9.31593 10.9674C9.0235 10.8012 8.81462 10.4688 8.81462 10.095V8.76558L7.22715 9.67953V11.0504C7.22715 11.3828 7.39426 11.7151 7.72846 11.9228L11.1123 13.8754C11.4047 14.0415 11.7807 14.0415 12.1149 13.8754L15.4987 11.9228C15.7911 11.7567 16 11.4243 16 11.0504V7.10386C16 6.77151 15.8329 6.43917 15.4987 6.23145L12.1149 4.27893Z" fill="#101212"/>
</svg>
