<svg width="24" height="24" viewBox="0 0 24 24" fill="none" xmlns="http://www.w3.org/2000/svg">
<path d="M4 13.584H5C5 13.1865 4.7646 12.8267 4.40037 12.6676L4 13.584ZM4 17H3C3 17.3753 3.2101 17.7189 3.5441 17.89C3.87809 18.0611 4.27976 18.0308 4.5843 17.8115L4 17ZM8.16667 14V13C7.95695 13 7.75255 13.0659 7.58236 13.1885L8.16667 14ZM2 9C2 6.79086 3.79086 5 6 5V3C2.68629 3 0 5.68629 0 9H2ZM4.40037 12.6676C2.98556 12.0494 2 10.6387 2 9H0C0 11.4619 1.48263 13.5754 3.59963 14.5003L4.40037 12.6676ZM5 17V13.584H3V17H5ZM7.58236 13.1885L3.4157 16.1885L4.5843 17.8115L8.75097 14.8115L7.58236 13.1885ZM11 13H8.16667V15H11V13ZM15 9C15 11.2091 13.2091 13 11 13V15C14.3137 15 17 12.3137 17 9H15ZM11 5C13.2091 5 15 6.79086 15 9H17C17 5.68629 14.3137 3 11 3V5ZM6 5H11V3H6V5Z" fill="#202222"/>
<path fill-rule="evenodd" clip-rule="evenodd" d="M18 9C20.2091 9 22 10.7909 22 13C22 14.6387 21.0144 16.0494 19.5996 16.6676C19.2354 16.8267 19 17.1865 19 17.584V19.0478L16.4176 17.1885C16.2474 17.0659 16.043 17 15.8333 17H13C11.9855 17 11.0593 16.6224 10.3542 16H8.81174L8.12305 16.4959C9.21196 18.0123 10.9906 19 13 19H15.5108L19.4157 21.8115C19.7202 22.0308 20.1219 22.0611 20.4559 21.89C20.7899 21.7189 21 21.3753 21 21V18.1971C22.792 17.1604 24 15.2222 24 13C24 9.68629 21.3137 7 18 7H17.7101C17.8987 7.63371 18 8.30503 18 9Z" fill="#202222"/>
</svg>
