<svg width="24" height="24" viewBox="0 0 24 24" fill="none" xmlns="http://www.w3.org/2000/svg">
<path fill-rule="evenodd" clip-rule="evenodd" d="M6 4C3.23858 4 1 6.23858 1 9C1 11.0503 2.2341 12.8124 4 13.584V17L8.16667 14H11C13.7614 14 16 11.7614 16 9C16 6.23858 13.7614 4 11 4H6Z" fill="#202222"/>
<path d="M4 13.584H4.5C4.5 13.3852 4.3823 13.2053 4.20019 13.1258L4 13.584ZM4 17H3.5C3.5 17.1876 3.60505 17.3595 3.77205 17.445C3.93905 17.5306 4.13988 17.5154 4.29215 17.4058L4 17ZM8.16667 14V13.5C8.06181 13.5 7.95961 13.533 7.87451 13.5942L8.16667 14ZM1.5 9C1.5 6.51472 3.51472 4.5 6 4.5V3.5C2.96243 3.5 0.5 5.96243 0.5 9H1.5ZM4.20019 13.1258C2.60983 12.4309 1.5 10.8445 1.5 9H0.5C0.5 11.2561 1.85836 13.1939 3.79981 14.0421L4.20019 13.1258ZM4.5 17V13.584H3.5V17H4.5ZM7.87451 13.5942L3.70785 16.5942L4.29215 17.4058L8.45882 14.4058L7.87451 13.5942ZM11 13.5H8.16667V14.5H11V13.5ZM15.5 9C15.5 11.4853 13.4853 13.5 11 13.5V14.5C14.0376 14.5 16.5 12.0376 16.5 9H15.5ZM11 4.5C13.4853 4.5 15.5 6.51472 15.5 9H16.5C16.5 5.96243 14.0376 3.5 11 3.5V4.5ZM6 4.5H11V3.5H6V4.5Z" fill="#202222"/>
<path fill-rule="evenodd" clip-rule="evenodd" d="M11 16C14.866 16 18 12.866 18 9C18 8.66048 17.9758 8.3266 17.9291 8H18C20.7614 8 23 10.2386 23 13C23 15.0503 21.7659 16.8124 20 17.584V21L15.8333 18H13C11.3642 18 9.91182 17.2144 8.99961 16H11Z" fill="#202222"/>
<path d="M17.9291 8V7.5C17.7841 7.5 17.6463 7.56291 17.5513 7.67243C17.4564 7.78195 17.4136 7.9273 17.4341 8.0708L17.9291 8ZM20 17.584L19.7998 17.1258C19.6177 17.2053 19.5 17.3852 19.5 17.584H20ZM20 21L19.7078 21.4058C19.8601 21.5154 20.0609 21.5306 20.2279 21.445C20.3949 21.3595 20.5 21.1876 20.5 21H20ZM15.8333 18L16.1255 17.5942C16.0404 17.533 15.9382 17.5 15.8333 17.5V18ZM8.99961 16V15.5C8.81016 15.5 8.63698 15.6071 8.55232 15.7766C8.46765 15.946 8.48605 16.1488 8.59983 16.3003L8.99961 16ZM17.5 9C17.5 12.5899 14.5898 15.5 11 15.5V16.5C15.1421 16.5 18.5 13.1421 18.5 9H17.5ZM17.4341 8.0708C17.4775 8.37402 17.5 8.68424 17.5 9H18.5C18.5 8.63672 18.4741 8.27918 18.4241 7.9292L17.4341 8.0708ZM17.9291 8.5H18V7.5H17.9291V8.5ZM18 8.5C20.4853 8.5 22.5 10.5147 22.5 13H23.5C23.5 9.96243 21.0375 7.5 18 7.5V8.5ZM22.5 13C22.5 14.8445 21.3902 16.4309 19.7998 17.1258L20.2002 18.0421C22.1416 17.1939 23.5 15.2561 23.5 13H22.5ZM19.5 17.584V21H20.5V17.584H19.5ZM20.2921 20.5942L16.1255 17.5942L15.5412 18.4058L19.7078 21.4058L20.2921 20.5942ZM15.8333 17.5H13V18.5H15.8333V17.5ZM13 17.5C11.5281 17.5 10.2212 16.7938 9.39939 15.6997L8.59983 16.3003C9.60241 17.6351 11.2003 18.5 13 18.5V17.5ZM11 15.5H8.99961V16.5H11V15.5Z" fill="#202222"/>
</svg>
