<svg width="20" height="20" viewBox="0 0 20 20" fill="none" xmlns="http://www.w3.org/2000/svg">
<path d="M13.75 11.9996C13.75 10.1121 12.5743 9.46486 10.223 9.1943C8.54353 8.97811 8.20763 8.54702 8.20763 7.79229C8.20763 7.03756 8.76791 6.5521 9.88714 6.5521C10.8948 6.5521 11.4551 6.87574 11.7346 7.68484C11.791 7.84666 11.959 7.95411 12.1269 7.95411H13.0231C13.2475 7.95411 13.4154 7.79229 13.4154 7.5761V7.52173C13.1911 6.33461 12.1834 5.41806 10.8962 5.31061V4.01605C10.8962 3.79986 10.7282 3.63804 10.4488 3.58496H9.60901C9.38463 3.58496 9.21668 3.74678 9.16159 4.01605V5.25624C7.48208 5.47243 6.41795 6.5508 6.41795 7.89974C6.41795 9.67976 7.53717 10.3814 9.88848 10.6507C11.4565 10.92 11.9603 11.2436 11.9603 12.1071C11.9603 12.9705 11.177 13.5635 10.1129 13.5635C8.65774 13.5635 8.15389 12.9705 7.98594 12.1614C7.9295 11.9452 7.76156 11.8378 7.5936 11.8378H6.64233C6.41795 11.8378 6.25 11.9996 6.25 12.2158V12.2702C6.47438 13.6191 7.36922 14.59 9.21668 14.8593V16.1539C9.21668 16.3701 9.38463 16.5319 9.6641 16.585H10.5039C10.7282 16.585 10.8962 16.4231 10.9513 16.1539V14.8593C12.6294 14.5887 13.75 13.456 13.75 11.9996Z" fill="#101212"/>
<path d="M7.17491 17.6878C2.85317 16.1497 0.636448 11.372 2.24414 7.14394C3.07524 4.83747 4.90367 3.0806 7.17491 2.25687C7.39698 2.14747 7.50735 1.98273 7.50735 1.70727V0.938888C7.50735 0.718785 7.39698 0.554037 7.17491 0.5C7.11906 0.5 7.00869 0.5 6.95284 0.555355C1.68962 2.20283 -1.19198 7.74889 0.470228 12.9668C1.46755 16.0416 3.85049 18.4034 6.95284 19.3919C7.17491 19.5013 7.39565 19.3919 7.4515 19.1718C7.50735 19.1165 7.50735 19.0624 7.50735 18.9517V18.1833C7.50735 18.0173 7.34113 17.7985 7.17491 17.6878ZM13.0472 0.554037C12.8251 0.444645 12.6043 0.554037 12.5485 0.77414C12.4926 0.829495 12.4926 0.883532 12.4926 0.994242V1.76262C12.4926 1.98273 12.6589 2.20151 12.8251 2.31222C17.1468 3.85031 19.3636 8.62798 17.7559 12.8561C16.9248 15.1625 15.0963 16.9194 12.8251 17.7431C12.603 17.8525 12.4926 18.0173 12.4926 18.2927V19.0611C12.4926 19.2812 12.603 19.446 12.8251 19.5C12.8809 19.5 12.9913 19.5 13.0472 19.4446C18.3104 17.7972 21.192 12.2511 19.5298 7.03323C18.5324 3.90434 16.095 1.54252 13.0472 0.554037Z" fill="#101212"/>
</svg>
