<svg width="16" height="12" viewBox="0 0 16 12" fill="none" xmlns="http://www.w3.org/2000/svg">
<path fill-rule="evenodd" clip-rule="evenodd" d="M10.9041 10.8429C11.3151 11.3857 11.8082 12 11.8082 12C14.8356 11.9 16 9.82857 16 9.82857C15.9555 6.93245 15.281 4.08466 14.0274 1.5C12.9242 0.596409 11.5792 0.0722863 10.1781 0L9.9863 0.228571C11.2336 0.574713 12.3962 1.19311 13.3973 2.04286C12.1217 1.30967 10.721 0.843777 9.27397 0.671428C8.35381 0.565681 7.42482 0.575274 6.50685 0.700001C6.42858 0.702461 6.35066 0.712021 6.27397 0.728572C5.19849 0.856099 4.14906 1.15983 3.16438 1.62857C2.65753 1.87143 2.35616 2.04286 2.35616 2.04286C2.35616 2.04286 3.49315 0.914286 5.9589 0.171429L5.82192 0C4.42083 0.0722863 3.07582 0.596409 1.9726 1.5C0.718969 4.08466 0.0444786 6.93245 0 9.82857C0 9.82857 1.15068 11.9 4.17808 12C4.17808 12 4.68493 11.3571 5.09589 10.8143C4.13281 10.561 3.28486 9.96472 2.69863 9.12857C3.18868 9.46712 3.71224 9.7497 4.26027 9.97143C4.91215 10.2398 5.58619 10.4454 6.27397 10.5857C7.44549 10.8204 8.6487 10.8253 9.82192 10.6C10.5045 10.4755 11.171 10.2694 11.8082 9.98571C12.3622 9.76771 12.8907 9.48495 13.3836 9.14286C12.7753 9.99689 11.8971 10.5991 10.9041 10.8429ZM7.31426 6.96008C7.31426 7.88792 6.59791 8.64008 5.71426 8.64008C4.8306 8.64008 4.11426 7.88792 4.11426 6.96008C4.11426 6.03224 4.8306 5.28008 5.71426 5.28008C6.59791 5.28008 7.31426 6.03224 7.31426 6.96008ZM10.2857 8.64013C11.1693 8.64013 11.8857 7.88797 11.8857 6.96013C11.8857 6.03229 11.1693 5.28013 10.2857 5.28013C9.40204 5.28013 8.68569 6.03229 8.68569 6.96013C8.68569 7.88797 9.40204 8.64013 10.2857 8.64013Z" fill="#101212"/>
</svg>
