<svg width="12" height="12" viewBox="0 0 12 12" fill="none" xmlns="http://www.w3.org/2000/svg">
<g clip-path="url(#clip0_593_367)">
<path fill-rule="evenodd" clip-rule="evenodd" d="M2.77027 4.02677C3.10758 3.94714 3.46207 4.04785 3.70713 4.29291L7.70713 8.29291C7.9522 8.53798 8.0529 8.89247 7.97328 9.22977C7.89365 9.56708 7.64505 9.83911 7.31626 9.9487L1.31625 11.9487C0.95692 12.0685 0.560753 11.975 0.29292 11.7071C0.0250881 11.4393 -0.0684344 11.0431 0.0513438 10.6838L2.05134 4.68379C2.16094 4.355 2.43297 4.1064 2.77027 4.02677Z" fill="#101212"/>
<path fill-rule="evenodd" clip-rule="evenodd" d="M11.8946 6.55276C12.1416 7.04674 11.9414 7.64741 11.4474 7.8944L10.4474 8.3944C9.95345 8.64139 9.35278 8.44117 9.10579 7.94719C8.8588 7.45321 9.05903 6.85254 9.55301 6.60555L10.553 6.10555C11.047 5.85856 11.6477 6.05878 11.8946 6.55276Z" fill="#101212"/>
<path fill-rule="evenodd" clip-rule="evenodd" d="M11 0C11.5523 0 12 0.447715 12 1C12 2.06087 11.5786 3.07828 10.8284 3.82843C10.0783 4.57857 9.06087 5 8 5C7.44772 5 7 4.55228 7 4C7 3.44772 7.44772 3 8 3C8.53043 3 9.03914 2.78929 9.41421 2.41421C9.78929 2.03914 10 1.53043 10 1C10 0.447715 10.4477 0 11 0Z" fill="#101212"/>
<circle cx="4.5" cy="1.5" r="1.5" fill="#101212"/>
</g>
<defs>
<clipPath id="clip0_593_367">
<rect width="12" height="12" fill="white"/>
</clipPath>
</defs>
</svg>
