<svg width="20" height="20" viewBox="0 0 20 20" fill="none" xmlns="http://www.w3.org/2000/svg">
<path d="M15.8332 2.97826V1.32609C15.8332 1.107 15.7454 0.896877 15.5891 0.741955C15.4328 0.587034 15.2209 0.5 14.9998 0.5C14.7788 0.5 14.5669 0.587034 14.4106 0.741955C14.2543 0.896877 14.1665 1.107 14.1665 1.32609V2.97826H15.8332Z" fill="#101212"/>
<path d="M5.83317 2.97826V1.32609C5.83317 1.107 5.74537 0.896877 5.58909 0.741955C5.43281 0.587034 5.22085 0.5 4.99984 0.5C4.77882 0.5 4.56686 0.587034 4.41058 0.741955C4.2543 0.896877 4.1665 1.107 4.1665 1.32609V2.97826H5.83317Z" fill="#101212"/>
<path d="M17.5 19.5H2.5C1.83696 19.5 1.20107 19.2389 0.732233 18.7741C0.263392 18.3093 0 17.679 0 17.0217L0 6.28258C0 5.62531 0.263392 4.99495 0.732233 4.53019C1.20107 4.06542 1.83696 3.80432 2.5 3.80432H17.5C18.163 3.80432 18.7989 4.06542 19.2678 4.53019C19.7366 4.99495 20 5.62531 20 6.28258V17.0217C20 17.679 19.7366 18.3093 19.2678 18.7741C18.7989 19.2389 18.163 19.5 17.5 19.5ZM18.3333 7.93476H1.66667V17.0217C1.66667 17.2408 1.75446 17.4509 1.91074 17.6058C2.06702 17.7608 2.27899 17.8478 2.5 17.8478H17.5C17.721 17.8478 17.933 17.7608 18.0893 17.6058C18.2455 17.4509 18.3333 17.2408 18.3333 17.0217V7.93476Z" fill="#101212"/>
<path d="M6.66683 9.58698H3.3335V12.0652H6.66683V9.58698Z" fill="#101212"/>
<path d="M11.6668 9.58698H8.3335V12.0652H11.6668V9.58698Z" fill="#101212"/>
<path d="M6.66683 13.7174H3.3335V16.1956H6.66683V13.7174Z" fill="#101212"/>
<path d="M11.6668 13.7174H8.3335V16.1956H11.6668V13.7174Z" fill="#101212"/>
<path d="M16.6668 9.58698H13.3335V12.0652H16.6668V9.58698Z" fill="#101212"/>
</svg>
