<svg width="20" height="20" viewBox="0 0 20 20" fill="none" xmlns="http://www.w3.org/2000/svg">
<g clip-path="url(#clip0_1503_589)">
<path d="M4 10.7439H5C5 10.3201 4.73284 9.94234 4.33325 9.8011L4 10.7439ZM4 14H3C3 14.3788 3.214 14.725 3.55279 14.8944C3.89157 15.0638 4.29698 15.0273 4.6 14.8L4 14ZM8 11V10C7.78363 10 7.5731 10.0702 7.4 10.2L8 11ZM2 6.5C2 4.567 3.567 3 5.5 3V1C2.46243 1 0 3.46243 0 6.5H2ZM4.33325 9.8011C2.97251 9.32015 2 8.02236 2 6.5H0C0 8.8963 1.53192 10.9322 3.66675 11.6868L4.33325 9.8011ZM5 14V10.7439H3V14H5ZM7.4 10.2L3.4 13.2L4.6 14.8L8.6 11.8L7.4 10.2ZM10.5 10H8V12H10.5V10ZM14 6.5C14 8.433 12.433 10 10.5 10V12C13.5376 12 16 9.53757 16 6.5H14ZM10.5 3C12.433 3 14 4.567 14 6.5H16C16 3.46243 13.5376 1 10.5 1V3ZM5.5 3H10.5V1H5.5V3Z" fill="#202222"/>
<path fill-rule="evenodd" clip-rule="evenodd" d="M6.51172 15.866C7.24443 16.2871 8.09393 16.528 8.99969 16.528H11.6664L15.3997 19.328C15.7027 19.5552 16.1081 19.5918 16.4469 19.4224C16.7857 19.253 16.9997 18.9067 16.9997 18.528V16.1116C18.7652 15.3401 19.9997 13.5792 19.9997 11.528C19.9997 9.86378 19.1867 8.38951 17.9362 7.48065C17.8374 8.2368 17.626 8.95755 17.3194 9.62549C17.7445 10.1432 17.9997 10.8058 17.9997 11.528C17.9997 12.9245 17.0446 14.1004 15.7504 14.4335C15.3085 14.5472 14.9997 14.9457 14.9997 15.4019V16.528L12.5997 14.728C12.4266 14.5981 12.2161 14.528 11.9997 14.528H8.99969C8.78757 14.528 8.5806 14.5059 8.38093 14.4641L6.51172 15.866Z" fill="#202222"/>
</g>
<defs>
<clipPath id="clip0_1503_589">
<rect width="20" height="20" fill="white"/>
</clipPath>
</defs>
</svg>
