<svg width="20" height="20" viewBox="0 0 20 20" fill="none" xmlns="http://www.w3.org/2000/svg">
<path fill-rule="evenodd" clip-rule="evenodd" d="M5.5 2C3.01472 2 1 4.01472 1 6.5C1 8.45933 2.25221 10.1262 4 10.7439V14L8 11H10.5C12.9853 11 15 8.98528 15 6.5C15 4.01472 12.9853 2 10.5 2H5.5Z" fill="#202222"/>
<path d="M4 10.7439H4.5C4.5 10.532 4.36642 10.3431 4.16662 10.2725L4 10.7439ZM4 14H3.5C3.5 14.1894 3.607 14.3625 3.77639 14.4472C3.94579 14.5319 4.14849 14.5136 4.3 14.4L4 14ZM8 11V10.5C7.89181 10.5 7.78655 10.5351 7.7 10.6L8 11ZM1.5 6.5C1.5 4.29086 3.29086 2.5 5.5 2.5V1.5C2.73858 1.5 0.5 3.73858 0.5 6.5H1.5ZM4.16662 10.2725C2.61236 9.72317 1.5 8.24084 1.5 6.5H0.5C0.5 8.67781 1.89206 10.5292 3.83338 11.2154L4.16662 10.2725ZM4.5 14V10.7439H3.5V14H4.5ZM7.7 10.6L3.7 13.6L4.3 14.4L8.3 11.4L7.7 10.6ZM10.5 10.5H8V11.5H10.5V10.5ZM14.5 6.5C14.5 8.70914 12.7091 10.5 10.5 10.5V11.5C13.2614 11.5 15.5 9.26142 15.5 6.5H14.5ZM10.5 2.5C12.7091 2.5 14.5 4.29086 14.5 6.5H15.5C15.5 3.73858 13.2614 1.5 10.5 1.5V2.5ZM5.5 2.5H10.5V1.5H5.5V2.5Z" fill="#202222"/>
<path fill-rule="evenodd" clip-rule="evenodd" d="M7.40381 15.1969L8.99969 14H10.4997C13.919 14 16.804 11.7118 17.7066 8.58303C18.5016 9.31409 18.9997 10.3628 18.9997 11.528C18.9997 13.3918 17.7249 14.9579 15.9997 15.4019V18.528L11.9997 15.528H8.99969C8.4324 15.528 7.89269 15.4099 7.40381 15.1969Z" fill="#202222"/>
<path d="M7.40381 15.1969L7.10381 14.7969C6.96141 14.9037 6.88652 15.0782 6.90719 15.255C6.92785 15.4318 7.04095 15.5842 7.20414 15.6553L7.40381 15.1969ZM8.99969 14V13.5C8.89151 13.5 8.78624 13.5351 8.69969 13.6L8.99969 14ZM17.7066 8.58303L18.0451 8.215C17.9176 8.09776 17.7385 8.05484 17.5717 8.10157C17.405 8.14829 17.2742 8.27801 17.2262 8.44442L17.7066 8.58303ZM15.9997 15.4019L15.8751 14.9177C15.6541 14.9746 15.4997 15.1738 15.4997 15.4019H15.9997ZM15.9997 18.528L15.6997 18.928C15.8512 19.0416 16.0539 19.0599 16.2233 18.9752C16.3927 18.8905 16.4997 18.7173 16.4997 18.528H15.9997ZM11.9997 15.528L12.2997 15.128C12.2131 15.063 12.1079 15.028 11.9997 15.028V15.528ZM7.70381 15.5969L9.29969 14.4L8.69969 13.6L7.10381 14.7969L7.70381 15.5969ZM8.99969 14.5H10.4997V13.5H8.99969V14.5ZM10.4997 14.5C14.1477 14.5 17.2243 12.0586 18.187 8.72163L17.2262 8.44442C16.3836 11.3649 13.6904 13.5 10.4997 13.5V14.5ZM17.3682 8.95105C18.0645 9.59141 18.4997 10.5085 18.4997 11.528H19.4997C19.4997 10.2172 18.9386 9.03676 18.0451 8.215L17.3682 8.95105ZM18.4997 11.528C18.4997 13.1581 17.3847 14.5292 15.8751 14.9177L16.1243 15.8862C18.0651 15.3866 19.4997 13.6255 19.4997 11.528H18.4997ZM15.4997 15.4019V18.528H16.4997V15.4019H15.4997ZM16.2997 18.128L12.2997 15.128L11.6997 15.928L15.6997 18.928L16.2997 18.128ZM11.9997 15.028H8.99969V16.028H11.9997V15.028ZM8.99969 15.028C8.50239 15.028 8.03055 14.9245 7.60347 14.7385L7.20414 15.6553C7.75483 15.8952 8.36241 16.028 8.99969 16.028V15.028Z" fill="#202222"/>
</svg>
