<svg width="113" height="56" viewBox="0 0 113 56" fill="none" xmlns="http://www.w3.org/2000/svg">
<path fill-rule="evenodd" clip-rule="evenodd" d="M13.8581 53.8111C13.8581 55.5489 15.0561 56.0002 16.8572 56.0002C18.8814 56.0002 19.8681 55.256 19.879 53.5622C19.8888 51.4904 18.3658 51.4648 16.9083 51.4403C16.6045 51.4351 16.3036 51.4301 16.02 51.4066C15.4915 51.3616 15.1782 51.274 15.1782 50.57C15.1782 49.7851 15.3244 49.5017 16.8159 49.5017C17.9445 49.5017 18.5048 49.6037 18.5048 50.4934H19.8021C19.8021 48.7671 18.6383 48.3071 16.8353 48.3071C14.8662 48.3071 13.8581 48.8436 13.8581 50.5944C13.8581 52.6651 15.4009 52.6879 16.8665 52.7096C17.1579 52.7139 17.4464 52.7182 17.719 52.7385C18.2798 52.7854 18.5599 52.8864 18.5599 53.6211C18.5599 54.4438 18.3244 54.8046 16.8804 54.8046C15.5357 54.8046 15.1777 54.5663 15.1777 53.8111H13.8581ZM2.25874 49.5686V51.4729H5.86368V52.6479H2.25874V55.9091H0.938232V48.384H5.96577V49.5686H2.25874ZM7.42096 55.9097V48.3846H12.5587V49.5691H8.71725V51.4735H12.4456V52.6485H8.71725V54.7141H12.5587V55.9097H7.42096ZM24.1002 49.5686V55.9091H22.7812V49.5686H20.5072V48.384H26.3733V49.5686H24.1002ZM27.4251 48.3846V55.9097H28.7456V48.3846H27.4251ZM33.7155 55.9097H32.4144L29.6286 48.3846H31.0374L33.0887 54.225L35.1357 48.3846H36.5251L33.7155 55.9097ZM41.0121 53.9914L41.7058 55.9097H43.1498L40.2851 48.3846H38.9318L36.0429 55.9097H37.419L38.1018 53.9914H41.0121ZM39.5693 49.864L38.5175 52.8385H40.6078L39.5693 49.864ZM44.0934 48.3846V55.9097H49.119V54.7141H45.4129V48.3846H44.0934ZM58.0601 54.894C57.525 55.6942 56.7173 55.9091 55.3298 55.9091H52.554V48.384H55.3199C56.7073 48.384 57.5131 48.6095 58.0511 49.4097C58.4438 49.9979 58.543 50.6756 58.543 52.1516C58.5426 53.6314 58.4547 54.3082 58.0601 54.894ZM53.8528 49.5684H55.2521C56.7507 49.5684 57.2198 49.6693 57.2203 52.1509C57.2203 54.6339 56.7621 54.7133 55.2635 54.7133H53.8528V49.5684ZM60.1122 55.9097V48.3846H65.2489V49.5691H61.4085V51.4735H65.1359V52.6485H61.4085V54.7141H65.2489V55.9097H60.1122ZM72.2131 49.5127C73.4994 49.5127 73.8128 49.7362 73.8128 50.4934H75.1124C75.1124 48.7905 74.0118 48.3071 72.3119 48.3071C69.1894 48.3071 69.1561 49.987 69.1561 52.1388C69.1561 54.2968 69.1775 56.0002 72.3019 56.0002C74.0037 56.0002 75.101 55.5135 75.101 53.8111H73.8009C73.8009 54.5663 73.4875 54.7812 72.2022 54.7812C70.7036 54.7812 70.4781 54.3083 70.4781 52.1517C70.4781 49.998 70.7136 49.5127 72.2131 49.5127ZM81.336 55.9097L80.6413 53.9914H77.731L77.0468 55.9097H75.6707L78.5587 48.3846H79.9119L82.7795 55.9097H81.336ZM78.1453 52.8385L79.1961 49.864L80.2394 52.8385H78.1453ZM88.0479 55.9097L84.9497 50.5039V55.9097H83.7189V48.3846H85.0617L88.1752 53.7445V48.3846H89.406V55.9097H88.0479ZM92.9008 50.5039L96 55.9097H97.3542V48.3846H96.1254V53.7445L93.0119 48.3846H91.6691V55.9097H92.9008V50.5039ZM99.617 55.9097V48.3846H104.755V49.5691H100.916V51.4735H104.644V52.6485H100.916V54.7141H104.755V55.9097H99.617ZM106.052 53.8111C106.052 55.5489 107.25 56.0002 109.053 56.0002C111.079 56.0002 112.063 55.256 112.075 53.5622C112.083 51.4904 110.559 51.4648 109.1 51.4403C108.796 51.4351 108.495 51.4301 108.211 51.4066C107.685 51.3616 107.372 51.274 107.372 50.57C107.372 49.7851 107.517 49.5017 109.007 49.5017C110.138 49.5017 110.698 49.6037 110.698 50.4934H111.995C111.995 48.7671 110.834 48.3071 109.029 48.3071C107.059 48.3071 106.052 48.8436 106.052 50.5944C106.052 52.6651 107.594 52.6879 109.059 52.7096C109.351 52.7139 109.639 52.7182 109.912 52.7385C110.473 52.7854 110.753 52.8864 110.753 53.6211C110.753 54.4438 110.517 54.8046 109.074 54.8046C107.731 54.8046 107.371 54.5663 107.371 53.8111H106.052Z" fill="#101212"/>
<path fill-rule="evenodd" clip-rule="evenodd" d="M18.5691 20.8623C18.5691 9.43374 35.4708 0 56.5102 0C77.5097 0 94.4461 9.43374 94.4461 20.8623C94.4461 32.2899 77.5933 41.7236 56.5102 41.7236C35.3027 41.7236 18.5691 32.2899 18.5691 20.8623ZM20.5538 20.8505C20.5538 31.6042 37.1174 40.6379 56.4716 40.6379C75.6976 40.6379 92.3676 31.6042 92.3671 20.8505C92.3671 10.0982 75.7817 0.869301 56.4716 0.869301C37.4968 0.869301 20.5538 10.0982 20.5538 20.8505Z" fill="#101212"/>
<path fill-rule="evenodd" clip-rule="evenodd" d="M82.537 18.9726C83.3807 18.71 84.2236 18.4477 85.1148 18.2646C85.1148 18.2646 85.6575 18.1124 85.5474 18.4633C85.4339 18.783 85.2496 19.0199 85.0326 19.2128C84.851 19.3745 84.6476 19.5082 84.4459 19.6408C84.2917 19.7422 84.1385 19.8429 83.9966 19.9551C82.2172 21.0435 79.6747 21.8339 77.5033 22.5089L77.503 22.5091C77.1509 22.6185 76.8086 22.7249 76.4809 22.8291C76.7299 22.9099 77.2302 23.0226 77.6699 23.1216L77.6699 23.1216C78.0083 23.1978 78.3108 23.266 78.4353 23.3053L80.6457 24.172L80.6798 24.1856C81.1357 24.3663 81.6483 24.5695 81.3194 25.0546C77.6569 25.5427 75.9504 24.606 73.5093 23.266C73.3344 23.17 73.1558 23.0719 72.9723 22.9722C72.6276 22.8099 70.4429 22.4955 69.923 22.4481C70.052 22.6111 71.2026 23.4254 72.4988 24.3426C73.7071 25.1977 75.0417 26.1421 75.7933 26.7321C75.9282 26.9044 75.8864 27.1676 75.6922 27.1504C72.1247 26.7146 70.8064 25.2083 69.6926 23.9355C69.1035 23.2624 68.5716 22.6545 67.7943 22.305C67.5125 22.1779 67.0307 22.109 66.6471 22.0541L66.5645 22.0423C66.093 21.9886 65.7844 21.9563 65.5501 21.9317C65.1618 21.891 64.9775 21.8717 64.5944 21.812C64.5311 22.2344 65.0172 22.6518 65.3634 22.949C65.4432 23.0175 65.5156 23.0796 65.5721 23.1339C66.1326 23.5818 66.6424 23.9554 67.1251 24.3091L67.1252 24.3092C68.0869 25.0139 68.9413 25.6399 69.8755 26.6182C70.4662 27.5716 69.1751 27.2696 69.1751 27.2696C69.1751 27.2696 67.5103 27.5007 63.2069 21.7091L60.346 21.2904C60.0132 21.3602 60.2359 21.8077 60.3565 21.9173C60.9327 22.4803 61.5869 22.9696 62.2397 23.4578C63.5988 24.4744 64.9519 25.4865 65.5825 27.1489L65.629 27.3418L65.5811 27.4725L65.4215 27.4959C64.1739 27.2501 63.3745 26.4806 62.5707 25.7068C62.4026 25.5449 62.2342 25.3829 62.0616 25.2254C60.8555 24.0663 59.724 22.8157 58.8854 21.1947C58.47 20.9221 57.7407 20.7789 57.1403 20.661L57.1402 20.661L57.14 20.6609L57.1393 20.6608C57.0716 20.6475 57.0057 20.6345 56.9419 20.6218L56.6447 20.6615L56.9021 21.1454C57.3975 21.7767 57.9833 22.3398 58.5704 22.9043C59.7254 24.0146 60.8853 25.1298 61.3717 26.7776C61.5759 27.2389 61.2615 27.1997 61.2064 27.1638C58.6832 25.525 56.7677 23.3402 55.3565 20.4461C55.0763 20.2906 54.7007 20.269 54.3584 20.293C54.4407 20.5419 54.6362 20.8125 54.8924 21.1671L54.8924 21.1671C55.6823 22.2604 57.049 24.152 57.4538 28.669L57.44 28.6977C57.4628 29.1414 57.0421 28.8973 57.0421 28.8973C56.7134 28.2489 56.3306 27.5998 55.9399 26.9374C54.7736 24.96 53.5378 22.8645 53.4652 20.3198C53.3664 20.1402 52.9811 20.1466 52.5483 20.1539C52.2925 20.1582 52.0201 20.1627 51.7805 20.1293L49.7762 20.0977C49.4704 20.2341 49.6309 20.6438 49.7463 20.8185C50.2153 21.3344 50.6456 21.7596 51.0537 22.1629C52.5125 23.6043 53.6868 24.7646 55.3223 28.7786C55.4353 28.9849 55.2781 29.3003 55.0531 29.2476C52.0341 27.1719 49.9576 23.5537 48.0749 20.2566C46.498 19.8751 44.752 20.0029 43.44 20.4466C43.4795 20.901 44.0603 21.2942 44.4751 21.575C44.5749 21.6426 44.6651 21.7036 44.7359 21.7575C46.8645 22.8004 48.9462 24.0596 50.3066 26.0553L50.4006 26.2937L50.1442 26.3798C47.5702 25.9553 45.932 24.7923 44.0654 23.0799C43.5211 22.6256 43.1411 22.1488 42.7846 21.7016L42.7846 21.7016L42.7846 21.7016C42.5207 21.3706 42.2698 21.0558 41.9747 20.7783C40.603 20.9522 39.6343 21.4878 38.5295 22.0986C38.2785 22.2374 38.0205 22.3801 37.7492 22.5233C35.6129 23.8155 33.696 25.7586 32.0426 27.8822C31.6608 28.1454 31.2515 28.0942 30.6713 28.01C30.0578 27.8032 29.5744 27.1178 29.5041 26.421C29.4833 24.0562 30.8232 22.9765 31.6608 22.5118C32.996 21.4216 39.5005 19.7354 41.8143 19.1356L41.8143 19.1356C42.2645 19.0189 42.556 18.9433 42.62 18.9213C42.2696 18.4896 41.8991 18.0578 41.525 17.6216L41.5249 17.6216L41.5248 17.6215L41.5248 17.6215L41.5248 17.6215C40.6706 16.6257 39.7967 15.607 39.0967 14.5157C38.8527 14.0769 38.5769 13.6599 38.2995 13.2406L38.2995 13.2406C37.6146 12.2052 36.9204 11.1557 36.6727 9.72876C36.5393 9.38848 36.7729 8.94816 37.1775 9.18076C39.6585 10.6831 41.5991 12.7621 42.9514 15.6122C43.3223 16.5996 43.6594 17.6161 43.7268 18.7074C44.1249 18.8649 44.2976 18.514 44.4667 18.1705C44.5257 18.0506 44.5843 17.9315 44.6518 17.8353C45.7188 13.817 48.4367 10.7003 51.591 9.33392L51.9761 9.45979C51.9923 9.89937 51.8156 10.2464 51.6352 10.6005C51.5986 10.6725 51.5618 10.7447 51.5265 10.8181C51.1807 11.5369 50.5596 12.4218 49.9564 13.2813L49.9563 13.2813L49.9563 13.2813L49.9563 13.2813C49.472 13.9714 48.9991 14.6451 48.6893 15.2035L48.9182 15.1915L53.281 11.6872C53.5834 11.4623 54.082 11.1004 54.5777 11.4072C54.6068 12.4408 53.7692 13.305 53.22 13.8717C53.0156 14.0826 52.8512 14.2522 52.7862 14.3741C51.8299 15.4899 50.7446 16.369 49.6618 17.2461C49.1413 17.6677 48.6214 18.0888 48.1167 18.5355C49.0303 18.8102 49.7553 18.8207 50.5906 18.8328H50.5907C50.8893 18.8372 51.2021 18.8417 51.5426 18.8586C51.6732 18.5792 51.7804 18.2576 51.8895 17.93L51.8895 17.93C52.0149 17.5538 52.1428 17.1698 52.3118 16.8331C53.347 14.6871 54.6233 12.3979 56.5545 11.581C57.0311 11.6535 56.8847 12.291 56.7987 12.6656L56.7985 12.6662C56.7915 12.6967 56.7849 12.7255 56.7791 12.7521C55.9624 15.0159 54.3508 17.2342 52.9614 18.9534C52.9614 19.1122 54.404 19.0572 54.404 19.0572C55.7734 16.4474 57.7273 14.6124 59.8721 13.2226C62.7463 11.3072 61.4362 13.6241 61.4362 13.6241C59.8579 16.0181 57.8175 18.044 55.5279 19.2238L55.5198 19.3219C55.5393 19.3257 55.5583 19.33 55.5778 19.3348C56.4861 19.5444 57.3949 19.7517 58.4467 19.7799C58.5331 19.6272 58.6229 19.4803 58.7159 19.3372C60.2197 17.0155 62.1827 15.5495 64.5711 14.3612C64.6372 14.3348 64.7172 14.2921 64.8042 14.2456C65.1618 14.0546 65.6373 13.8005 65.7454 14.3664C64.467 16.3502 62.7773 17.6975 61.1002 19.0347L60.8745 19.2147C60.5483 19.475 60.2235 19.7363 59.903 20.0034C60.2906 20.2562 60.7041 20.2909 61.3259 20.3431L61.326 20.3431C61.5459 20.3616 61.7919 20.3822 62.0721 20.4155C62.2499 20.1297 62.5127 19.8196 62.7506 19.5388C62.8474 19.4245 62.9401 19.3151 63.0212 19.2142C64.5227 17.3467 66.0597 15.9942 68.3346 14.9891C68.5005 14.9597 68.6707 14.8796 68.8409 14.7996C69.1812 14.6394 69.5214 14.4794 69.8266 14.7254C70.0108 14.9219 69.8473 15.0724 69.6994 15.2086C69.6311 15.2715 69.5662 15.3313 69.5402 15.3911C69.2348 15.6676 68.9305 15.9464 68.6261 16.2253C67.5001 17.257 66.3727 18.29 65.1784 19.2142C64.525 19.721 63.8508 20.1944 63.1457 20.6175C63.4388 20.7871 63.9545 20.8381 64.4774 20.8897L64.4775 20.8897C64.6745 20.9092 64.8726 20.9288 65.0602 20.9549C65.7578 21.0981 66.1166 20.5365 66.467 19.9881C66.6669 19.6753 66.864 19.3669 67.1195 19.196L67.124 19.1921L67.1472 19.1705C67.4918 18.8498 70.9687 15.6141 73.469 15.0834C73.745 15.489 73.4457 16.0775 73.1927 16.5746C73.075 16.8061 72.9673 17.0178 72.9324 17.182L73.0355 17.0906C74.1975 16.0588 75.5902 14.8222 77.0635 14.2812C77.4581 14.2501 77.1722 15.1714 77.1722 15.1714C76.8883 16.1889 73.7045 20.4466 72.0493 21.734C72.3738 21.8495 72.5321 21.8634 73.147 21.9176C73.2815 21.9295 73.4378 21.9432 73.6224 21.9604C74.6483 22.0303 75.1055 21.2921 75.5767 20.5311C75.8508 20.0886 76.1296 19.6384 76.5279 19.3348C76.5558 19.3081 76.5834 19.2814 76.6109 19.2549L76.611 19.2548C76.6391 19.2277 76.6672 19.2006 76.6955 19.1735C78.6048 17.3371 80.6836 16.0166 82.942 14.8412C83.2477 14.7038 83.8883 14.444 84.1248 14.5684C84.3167 15.1466 83.9267 15.4761 83.5638 15.7826L83.5638 15.7826C83.4374 15.8894 83.3143 15.9934 83.2202 16.1042C82.7337 16.5501 82.2302 16.9753 81.7276 17.3997C81.0304 17.9886 80.335 18.5759 79.6898 19.2142C79.5787 19.3233 79.4704 19.4348 79.3631 19.5468L79.2254 19.756L79.5398 19.7603C80.3095 19.6282 81.0364 19.43 81.7515 19.2142C82.0142 19.1353 82.2754 19.054 82.5365 18.9727L82.5367 18.9727L82.537 18.9726ZM45.6405 18.1089C45.56 18.2411 45.3838 18.5303 45.6231 18.6785C46.1507 18.7632 47.4417 17.247 47.3097 16.8689C46.6474 16.5195 45.9077 17.6888 45.7 18.017C45.6741 18.058 45.6565 18.0858 45.6483 18.096L45.6405 18.1089ZM71.5023 19.2193C71.3125 19.5334 71.2723 19.9093 71.232 20.2858C71.1846 20.7297 71.137 21.1745 70.8442 21.5199L67.1789 21.0442C68.7085 20.495 70.032 19.5838 71.0348 18.8933C71.427 18.6233 71.7701 18.3871 72.0574 18.2195L71.5023 19.2193ZM76.043 21.1546C75.7672 21.4081 75.4277 21.7202 75.4541 22.0658C76.2257 21.9844 77.0201 21.4599 77.5809 21.0148C77.5809 21.0148 77.3957 20.026 76.163 21.043C76.1255 21.0788 76.085 21.116 76.043 21.1546Z" fill="#101212"/>
</svg>
