<svg width="57" height="56" viewBox="0 0 57 56" fill="none" xmlns="http://www.w3.org/2000/svg">
<path fill-rule="evenodd" clip-rule="evenodd" d="M22.3036 16.8912L28.3281 0.000151203L28.3272 0C43.7558 0.0420008 56.25 12.5611 56.25 27.9994C56.25 43.4641 43.7138 56 28.2499 56C27.8997 56 27.5516 55.9913 27.2043 55.9785L33.1039 39.414H39.1866C40.5304 39.414 42.2172 39.0079 42.9268 37.0042L48.4822 21.3177C49.5945 18.177 47.0205 16.7971 44.974 16.7971H35.0793L21.417 55.1584C9.25596 52.108 0.25 41.106 0.25 27.999C0.25 14.6847 9.5438 3.54166 21.9971 0.700664L8.47419 38.6196H14.5541L21.1442 20.1392H24.2479L17.6572 38.6196H23.6851L29.6754 21.8243C30.6044 19.2194 29.349 16.8933 26.3989 16.8925L22.3036 16.8912ZM34.252 36.2024L39.9903 20.0942H43.0472L37.3077 36.2024H34.252Z" fill="#101212"/>
</svg>
