<svg width="151" height="32" viewBox="0 0 151 32" fill="none" xmlns="http://www.w3.org/2000/svg">
<path fill-rule="evenodd" clip-rule="evenodd" d="M150.764 14.476V11.8399H147.475V7.74187L147.364 7.7758L144.275 8.71654L144.214 8.73495V11.8401H139.339V10.1103C139.339 9.30479 139.52 8.68841 139.876 8.27734C140.23 7.87121 140.737 7.66473 141.383 7.66473C141.847 7.66473 142.328 7.77362 142.812 7.98836L142.933 8.0423V5.26619L142.876 5.24531C142.425 5.08378 141.811 5.00244 141.05 5.00244C140.091 5.00244 139.219 5.21022 138.459 5.62201C137.698 6.03439 137.1 6.62307 136.681 7.37155C136.263 8.11915 136.051 8.98261 136.051 9.93814V11.8399H133.761V14.476H136.051V25.5811H139.339V14.476H144.214V21.5331C144.214 24.4396 145.592 25.9125 148.308 25.9125C148.754 25.9125 149.224 25.8604 149.704 25.7585C150.192 25.6538 150.525 25.5492 150.72 25.4376L150.764 25.4121V22.7517L150.63 22.8397C150.451 22.958 150.229 23.0547 149.969 23.1266C149.707 23.1999 149.489 23.2365 149.319 23.2365C148.683 23.2365 148.212 23.0659 147.92 22.729C147.625 22.3892 147.475 21.7948 147.475 20.9634V14.476H150.764ZM126.42 23.237C125.227 23.237 124.286 22.8432 123.623 22.0675C122.956 21.2878 122.618 20.1763 122.618 18.764C122.618 17.3069 122.956 16.1665 123.624 15.3731C124.287 14.5849 125.219 14.1849 126.393 14.1849C127.533 14.1849 128.441 14.5669 129.091 15.3211C129.744 16.0791 130.075 17.2104 130.075 18.6844C130.075 20.1766 129.764 21.3228 129.149 22.0895C128.539 22.8505 127.62 23.237 126.42 23.237ZM121.193 13.4825C122.482 12.173 124.29 11.5091 126.566 11.5091C128.711 11.5091 130.412 12.1442 131.621 13.3971C132.83 14.6494 133.442 16.3929 133.442 18.578C133.442 20.7902 132.789 22.5854 131.501 23.9115C130.212 25.2391 128.44 25.9124 126.234 25.9124C124.116 25.9124 122.404 25.2735 121.147 24.0123C119.889 22.7516 119.251 21.021 119.251 18.8696C119.251 16.6044 119.904 14.7921 121.193 13.4825ZM113.95 11.5091C112.402 11.5091 111.121 11.9033 110.142 12.6807C109.158 13.4626 108.658 14.4882 108.658 15.7292C108.658 16.3743 108.766 16.9473 108.978 17.4334C109.192 17.921 109.522 18.3503 109.961 18.7106C110.396 19.0681 111.068 19.4424 111.959 19.8234C112.708 20.13 113.266 20.3894 113.621 20.5939C113.968 20.7943 114.214 20.9957 114.353 21.1918C114.488 21.3838 114.556 21.6465 114.556 21.9708C114.556 22.894 113.861 23.3432 112.432 23.3432C111.902 23.3432 111.298 23.233 110.635 23.0158C109.977 22.8018 109.357 22.4886 108.795 22.0869L108.658 21.9895V25.1398L108.708 25.163C109.173 25.3767 109.76 25.557 110.451 25.6988C111.141 25.8407 111.768 25.9129 112.312 25.9129C113.993 25.9129 115.346 25.5168 116.333 24.7348C117.327 23.9475 117.83 22.8977 117.83 21.6138C117.83 20.6875 117.559 19.8932 117.025 19.2526C116.494 18.6173 115.573 18.0339 114.289 17.5183C113.265 17.1094 112.609 16.77 112.339 16.5094C112.078 16.2577 111.946 15.9018 111.946 15.451C111.946 15.0514 112.109 14.7312 112.445 14.472C112.783 14.2114 113.253 14.0789 113.844 14.0789C114.391 14.0789 114.952 14.165 115.509 14.3338C116.066 14.5025 116.555 14.7286 116.964 15.0051L117.098 15.0965V12.1081L117.046 12.086C116.67 11.9252 116.173 11.7876 115.569 11.676C114.969 11.5651 114.424 11.5091 113.95 11.5091ZM97.2917 22.0675C97.9545 22.8432 98.8955 23.237 100.088 23.237C101.289 23.237 102.207 22.8505 102.817 22.0895C103.432 21.3228 103.744 20.1766 103.744 18.6844C103.744 17.2104 103.412 16.0791 102.759 15.3211C102.109 14.5669 101.202 14.1849 100.062 14.1849C98.8868 14.1849 97.9552 14.5849 97.2924 15.3731C96.6249 16.1665 96.2871 17.3069 96.2871 18.764C96.2871 20.1766 96.6245 21.2878 97.2917 22.0675ZM100.235 11.5091C97.9578 11.5091 96.1496 12.173 94.8611 13.4825C93.5728 14.7921 92.9191 16.6044 92.9191 18.8696C92.9191 21.0219 93.5572 22.7516 94.8149 24.0123C96.0727 25.2735 97.7842 25.9124 99.9018 25.9124C102.108 25.9124 103.881 25.2391 105.169 23.9115C106.458 22.5854 107.111 20.7902 107.111 18.578C107.111 16.3929 106.498 14.6494 105.289 13.3971C104.079 12.1442 102.379 11.5091 100.235 11.5091ZM87.929 11.84V14.2197H87.9635C88.2669 13.4475 88.6637 12.8282 89.2128 12.3765C89.8383 11.8627 90.5686 11.6017 91.3846 11.6017C91.9259 11.6017 92.3538 11.6662 92.6562 11.7941L92.7088 11.8165V15.0752L92.5723 14.9768C92.422 14.8689 92.167 14.7664 91.8151 14.672C91.4595 14.577 91.1312 14.529 90.8386 14.529C89.9757 14.529 89.2689 14.9003 88.7385 15.6332C88.2012 16.3748 87.929 17.3567 87.929 18.5519V25.581H84.6816V11.84H87.929ZM78.8663 11.5091C77.3765 11.5091 76.0477 11.8271 74.9174 12.4539C73.7848 13.0822 72.9089 13.9791 72.3129 15.1197C71.7196 16.2574 71.4184 17.5865 71.4184 19.0686C71.4184 20.367 71.7104 21.5584 72.2877 22.6085C72.8653 23.6603 73.6828 24.4831 74.7177 25.0538C75.7511 25.6238 76.9455 25.9128 78.2679 25.9128C79.8111 25.9128 81.1288 25.6057 82.1852 25L82.2279 24.9757V22.0144L82.0914 22.1136C81.6128 22.4606 81.0781 22.7375 80.5027 22.937C79.9287 23.1364 79.4055 23.2372 78.9466 23.2372C77.6724 23.2372 76.6495 22.8403 75.907 22.0579C75.1629 21.2745 74.7856 20.1744 74.7856 18.7901C74.7856 17.3971 75.179 16.2688 75.9545 15.4362C76.7276 14.6061 77.7524 14.185 79.0002 14.185C80.0675 14.185 81.1076 14.5447 82.0917 15.2552L82.2279 15.3537V12.2335L82.1839 12.2088C81.8136 12.0025 81.3085 11.8321 80.6815 11.7029C80.0572 11.574 79.4465 11.5091 78.8663 11.5091ZM65.9348 11.8403H69.1821V25.5811H65.9348V11.8403ZM67.5917 5.98643C67.0573 5.98643 66.5911 6.16753 66.2081 6.52639C65.8236 6.88628 65.6285 7.33939 65.6285 7.87414C65.6285 8.40048 65.8212 8.84533 66.2022 9.19564C66.5806 9.54494 67.0482 9.72198 67.5919 9.72198C68.1354 9.72198 68.6048 9.54494 68.9877 9.19622C69.3732 8.84533 69.5687 8.40063 69.5687 7.87414C69.5687 7.3581 69.3784 6.90962 69.0036 6.54089C68.6291 6.17289 68.1539 5.98643 67.5917 5.98643ZM59.4893 25.5806V10.826H59.3823L53.5011 25.5806H51.1508L45.1763 10.8245H45.0694V25.5804H41.9551V6.40674H46.7286L52.3864 20.6485L58.2165 6.40674H62.8033V25.5806H59.4893Z" fill="#101212"/>
<path d="M15.4512 15.2055H0.174805V0H15.4512V15.2055Z" fill="#101212"/>
<path d="M32.3181 15.2055H17.042V0H32.3181V15.2055Z" fill="#101212"/>
<path d="M15.4508 31.9998H0.174805V16.7944H15.4508V31.9998Z" fill="#101212"/>
<path d="M32.3181 31.9998H17.042V16.7944H32.3181V31.9998Z" fill="#101212"/>
</svg>
