<svg width="97" height="56" viewBox="0 0 97 56" fill="none" xmlns="http://www.w3.org/2000/svg">
<path fill-rule="evenodd" clip-rule="evenodd" d="M46.4948 56H44.0497L44.0495 0H46.4948V56ZM76.6477 45.2232H82.0546H82.0549L82.0546 47.3852H74.262V36.5763H76.6477V45.2232ZM66.6147 39.3568L66.6149 39.3571L65.1748 42.8611H68.056L66.6149 39.3571L66.615 39.3568H66.6147ZM69.9004 47.3853L68.9093 44.9621H64.3235L63.3311 47.3853H60.9001L65.5468 36.4988H67.7469L72.395 47.3853H69.9004ZM56.6646 47.4615L61.0363 36.5763H58.4768L55.6424 44.1887L52.8079 36.5763H50.1745L54.5579 47.4615H56.6646ZM34.8751 38.7693H31.5764L31.5762 36.5763H40.5609V38.7693H37.2607V47.3852H34.8751V38.7693ZM26.583 40.9142C24.7085 40.4358 24.2441 40.2043 24.2441 39.4944V39.4634C24.2441 38.9384 24.7241 38.5207 25.6386 38.5207C26.5519 38.5207 27.4976 38.9229 28.4576 39.5862L29.6964 37.7966C28.5964 36.916 27.2485 36.4207 25.6685 36.4207C23.4541 36.4207 21.8727 37.719 21.8727 39.6793V39.7104C21.8727 41.8569 23.2841 42.4595 25.4687 43.0155C27.2797 43.4784 27.652 43.7875 27.652 44.3888V44.4211C27.652 45.0534 27.063 45.44 26.0875 45.44C24.8473 45.44 23.8264 44.9292 22.8496 44.1275L21.4408 45.8098C22.7406 46.9672 24.3985 47.54 26.0408 47.54C28.3797 47.54 30.022 46.3348 30.022 44.1883V44.1585C30.022 42.2732 28.7832 41.487 26.583 40.9141V40.9142ZM18.3914 43.0003H13.2789L13.2792 43.0004L13.2789 45.2697H19.1658V47.3852H10.9089V36.5763H19.088V38.6917H13.2789V40.8848H18.3914V43.0003ZM0.425064 47.3905H2.81044V43.2061H7.98385V41.044H2.81044V38.7436H8.68177V36.5802H0.424805L0.425064 47.3905ZM0.425064 47.3905L0.425064 47.3906L0.424805 47.3905H0.425064ZM64.4232 25.2853L67.4429 29.8573H67.5052L70.5563 25.2396V32.296H72.9276V21.4871H70.3565L67.5052 26.0581L64.6538 21.4871H62.0827V32.296H64.4229L64.4232 25.2853ZM50.6279 21.4871V32.296H58.4205V30.1353H53.0136V21.4871L50.6282 21.4872L50.6279 21.4871ZM38.7225 28.1116H34.2613L34.2615 28.1117L34.2613 32.296H31.877V21.4871H40.3869V23.6491H34.2613V25.9495H38.7225V28.1116ZM89.2054 12.684L90.6466 9.17839L92.0866 12.684L89.2057 12.6841L89.2054 12.684ZM96.4256 17.2081H93.9325L92.9399 14.7835H88.3541L87.363 17.2081H84.9307L89.5774 6.32153H91.7775L96.4256 17.2081ZM78.8058 17.3934C80.8969 17.3934 82.1371 16.6525 83.2527 15.4628L81.7336 13.9357C80.8826 14.7064 80.1225 15.2003 78.8836 15.2003C77.0246 15.2003 75.7391 13.6564 75.7391 11.8034V11.7736C75.7391 9.9206 77.0558 8.40638 78.8836 8.40638C79.9681 8.40638 80.8204 8.86931 81.6558 9.62577L83.1749 7.88139C82.1682 6.89346 80.9436 6.2133 78.9005 6.2133C75.5678 6.2133 73.2458 8.73095 73.2458 11.8033V11.8344C73.2458 14.9391 75.6158 17.3934 78.8058 17.3934ZM65.1341 15.0926H71.021L71.0212 15.0928L71.021 17.2081H62.764V6.39787H70.9431V8.51337H65.1341V10.7065H70.2465V12.8232H65.1341V15.0926ZM52.9499 12.7445H55.7065C56.9298 12.7445 57.4734 13.1945 57.4734 13.9186V13.9496C57.4734 14.7526 56.8377 15.1225 55.7844 15.1225H52.9499L52.9501 12.7446L52.9499 12.7445ZM55.3044 8.4834H52.9499L52.9501 8.48355L52.9499 10.7683H55.15C56.2034 10.7683 56.8688 10.4282 56.8688 9.6252V9.59416C56.8688 8.88426 56.311 8.4834 55.3044 8.4834ZM59.8416 14.2431V14.212C59.8416 12.7612 59.0671 12.0345 57.8127 11.5547C58.5872 11.1228 59.2371 10.444 59.2371 9.22457V9.19354C59.2371 7.49441 57.875 6.39787 55.658 6.39787H50.6234V17.2081H55.7825C58.2304 17.2081 59.8416 16.2202 59.8416 14.2431ZM36.4375 11.6491C37.5986 11.6491 38.2654 11.031 38.2654 10.1193L38.2656 10.1195L38.2654 10.0896C38.2654 9.06935 37.5532 8.54435 36.3908 8.54435H34.2673V11.6491H36.4375ZM40.682 9.99655V9.96551C40.682 7.74269 39.1487 6.39787 36.5918 6.39787H31.8815V17.2081H34.2671V13.7491H35.8952L38.2173 17.2081H41.0063L38.3587 13.3482C39.7376 12.8375 40.682 11.7409 40.682 9.99655ZM26.3177 17.2081H23.9323L23.932 8.59096H20.6318V6.39787H29.6179V8.59096H26.3177V17.2081ZM23.9323 17.2081H23.932L23.9323 17.2083V17.2081Z" fill="#101212"/>
</svg>
