<svg width="111" height="40" viewBox="0 0 111 40" fill="none" xmlns="http://www.w3.org/2000/svg">
<path fill-rule="evenodd" clip-rule="evenodd" d="M19.8832 4.23195L36.1858 0L40.5649 15.8969L38.0992 20.0185L40.5649 24.1396L36.1858 40L19.8832 35.7311L17.4544 31.573L12.5602 31.61L0.600098 19.9815L12.5602 8.3531L17.4544 8.39004L19.8832 4.23195ZM17.8596 9.05256L30.3348 5.92456L23.1588 17.9946H8.80681L17.8596 9.05256ZM26.6547 19.9817L33.8307 32.0517L37.29 19.9817L33.8307 7.91167L26.6547 19.9817ZM8.84323 21.932L17.8595 30.874L30.3712 34.002L23.1952 21.932H8.84323ZM73.2068 11.739C71.0357 11.739 69.5636 12.6587 68.4596 14.3516H68.3861V12.1806H64.5591V28.151H68.4596V19.0986C68.4596 16.9276 69.8213 15.4186 71.6981 15.4186C73.4645 15.4186 74.7893 16.486 74.7893 18.3627V28.1879H78.6903V17.7369C78.7268 14.2412 76.5188 11.739 73.2068 11.739ZM55.4322 25.0231C57.4193 25.0231 58.6338 23.5515 58.6338 21.417H58.6707V12.1808H62.5716V28.1881H58.818V26.3113H58.7076C57.6402 27.783 56.3892 28.6296 54.1443 28.6296C50.5746 28.6296 48.5874 26.3479 48.5874 22.8522V12.1808H52.4883V22.1163C52.4883 23.993 53.6292 25.0231 55.4322 25.0231ZM80.7877 12.1808H84.6882V28.1511H80.7877V12.1808ZM84.6882 7.21266H80.7877V10.4141H84.6882V7.21266ZM106.805 12.1808L104.487 19.393C103.972 20.865 103.566 22.8891 103.566 22.8891H103.456C103.456 22.8891 102.941 20.865 102.426 19.393L99.8128 12.1808H95.6176L99.9232 23.5515C100.843 25.9802 101.138 27.0102 101.138 27.8934C101.138 29.2182 100.439 30.0648 98.7827 30.0648H97.2736V33.4132H99.7763C103.014 33.4132 104.155 32.1254 105.37 28.5927L111 12.2173H106.805V12.1808ZM91.9744 15.0138V23.4773C91.9744 24.6551 92.6368 25.0598 93.557 25.0228H94.5506V28.1139C94.5506 28.1139 94.109 28.1878 92.416 28.1878C90.3554 28.1878 88.0739 27.3781 88.0739 24.3605V14.9769H85.8659V12.1804H88.0739V7.21266H91.9744V12.217H94.4771V15.0138H91.9744Z" fill="#101212"/>
</svg>
