<svg width="16" height="16" viewBox="0 0 16 16" fill="none" xmlns="http://www.w3.org/2000/svg">
<path d="M13.0769 15H2.92308C2.67826 15 2.44347 14.9063 2.27036 14.7397C2.09725 14.573 2 14.3469 2 14.1111V7.88889C2 7.65314 2.09725 7.42705 2.27036 7.26035C2.44347 7.09365 2.67826 7 2.92308 7H13.0769C13.3217 7 13.5565 7.09365 13.7296 7.26035C13.9027 7.42705 14 7.65314 14 7.88889V14.1111C14 14.3469 13.9027 14.573 13.7296 14.7397C13.5565 14.9063 13.3217 15 13.0769 15Z" stroke="#101212" stroke-width="2" stroke-linecap="round" stroke-linejoin="round"/>
<circle cx="8" cy="11" r="1.5" fill="#101212"/>
<path d="M5 6V3.91667C5 3.14312 5.31607 2.40125 5.87868 1.85427C6.44129 1.30729 7.20435 1 8 1V1C8.79565 1 9.55871 1.30729 10.1213 1.85427C10.6839 2.40125 11 3.14312 11 3.91667V6" stroke="#101212" stroke-width="2" stroke-linecap="round" stroke-linejoin="round"/>
</svg>
