<svg width="20" height="20" viewBox="0 0 20 20" fill="none" xmlns="http://www.w3.org/2000/svg">
<path d="M1.5 18.5L5.54762 6.35715L13.6429 14.4524L1.5 18.5Z" stroke="#101212" stroke-width="2" stroke-linecap="round" stroke-linejoin="round"/>
<path d="M7.97656 4.73808L8.78609 2.30951" stroke="#101212" stroke-width="2" stroke-linecap="round" stroke-linejoin="round"/>
<path d="M15.2617 12.0238L17.6903 11.2143" stroke="#101212" stroke-width="2" stroke-linecap="round" stroke-linejoin="round"/>
<path d="M13.6425 4.7381C13.3223 4.7381 13.0092 4.64314 12.743 4.46524C12.4767 4.28733 12.2692 4.03447 12.1467 3.73863C12.0241 3.44279 11.9921 3.11725 12.0545 2.80319C12.117 2.48912 12.2712 2.20064 12.4976 1.97421C12.7241 1.74778 13.0126 1.59358 13.3266 1.53111C13.6407 1.46864 13.9662 1.5007 14.2621 1.62324C14.5579 1.74579 14.8108 1.9533 14.9887 2.21955C15.1666 2.4858 15.2615 2.79883 15.2615 3.11905C15.2615 3.54845 15.091 3.96026 14.7873 4.26389C14.4837 4.56752 14.0719 4.7381 13.6425 4.7381Z" stroke="#101212" stroke-width="2" stroke-linecap="round" stroke-linejoin="round"/>
<path d="M18.4997 3.11905C18.4997 4.40724 17.988 5.64268 17.0771 6.55357C16.1662 7.46446 14.9308 7.97619 13.6426 7.97619" stroke="#101212" stroke-width="2" stroke-linecap="round" stroke-linejoin="round"/>
<path d="M4.17773 11.619L5.96678 16.9854" stroke="#101212" stroke-width="2" stroke-linecap="round" stroke-linejoin="round"/>
<path d="M6.18359 6.99344L9.16669 15.9443" stroke="#101212" stroke-width="2" stroke-linecap="round" stroke-linejoin="round"/>
</svg>
