<svg width="20" height="20" viewBox="0 0 20 20" fill="none" xmlns="http://www.w3.org/2000/svg">
<path d="M8.06951 4.12409C8.27913 4.19402 8.50794 4.17782 8.70562 4.07906C8.9033 3.9803 9.05366 3.80706 9.12362 3.59746L9.95691 1.09759C10.0267 0.887638 10.0103 0.658543 9.91124 0.460702C9.81216 0.262862 9.63855 0.112483 9.4286 0.0426462C9.21865 -0.0271904 8.98956 -0.0107636 8.79172 0.0883128C8.59387 0.187389 8.4435 0.360999 8.37366 0.570951L7.54037 3.07082C7.50593 3.17472 7.4923 3.28439 7.50025 3.39356C7.5082 3.50273 7.53759 3.60927 7.58673 3.70708C7.63587 3.80489 7.70379 3.89206 7.78663 3.96362C7.86947 4.03517 7.96559 4.0897 8.06951 4.12409Z" fill="#101212"/>
<path d="M18.9028 10.0438L16.403 10.8771C16.299 10.9116 16.2029 10.9664 16.1201 11.0381C16.0373 11.1098 15.9694 11.1972 15.9203 11.2951C15.8713 11.3931 15.842 11.4997 15.8342 11.609C15.8263 11.7183 15.8401 11.828 15.8747 11.932C15.9093 12.036 15.964 12.1321 16.0357 12.2149C16.1074 12.2977 16.1948 12.3656 16.2927 12.4146C16.3907 12.4637 16.4974 12.493 16.6066 12.5008C16.7159 12.5087 16.8257 12.4949 16.9296 12.4603L19.4295 11.627C19.5334 11.5924 19.6296 11.5377 19.7124 11.466C19.7952 11.3943 19.8631 11.3069 19.9121 11.209C19.9612 11.111 19.9905 11.0043 19.9983 10.8951C20.0061 10.7858 19.9924 10.676 19.9578 10.5721C19.9232 10.4681 19.8685 10.372 19.7968 10.2892C19.725 10.2064 19.6377 10.1385 19.5397 10.0894C19.4418 10.0404 19.3351 10.0111 19.2258 10.0033C19.1166 9.99543 19.0068 10.0092 18.9028 10.0438Z" fill="#101212"/>
<path d="M13.3322 5.41736C14.4828 5.41736 15.4155 4.48467 15.4155 3.33414C15.4155 2.18361 14.4828 1.25092 13.3322 1.25092C12.1817 1.25092 11.249 2.18361 11.249 3.33414C11.249 4.48467 12.1817 5.41736 13.3322 5.41736Z" fill="#101212"/>
<path d="M12.499 8.33387C12.499 8.55488 12.5868 8.76683 12.7431 8.9231C12.8994 9.07937 13.1113 9.16716 13.3323 9.16716C14.8788 9.1654 16.3614 8.55028 17.4549 7.45676C18.5485 6.36324 19.1636 4.88061 19.1653 3.33414C19.1653 3.11314 19.0775 2.90119 18.9213 2.74492C18.765 2.58865 18.553 2.50085 18.332 2.50085C18.111 2.50085 17.8991 2.58865 17.7428 2.74492C17.5865 2.90119 17.4988 3.11314 17.4988 3.33414C17.4974 4.43875 17.058 5.49773 16.277 6.2788C15.4959 7.05987 14.4369 7.49926 13.3323 7.50059C13.1113 7.50059 12.8994 7.58838 12.7431 7.74465C12.5868 7.90092 12.499 8.11287 12.499 8.33387Z" fill="#101212"/>
<path d="M6.42225 4.41158C6.3227 4.31203 6.19956 4.23933 6.06431 4.20025C5.92906 4.16118 5.78611 4.15701 5.64882 4.18813C5.51152 4.21925 5.38434 4.28465 5.27916 4.37822C5.17398 4.47179 5.09422 4.59049 5.04732 4.72323L0.0475918 18.8891C-0.00480016 19.0374 -0.0141529 19.1975 0.0206148 19.3509C0.0553825 19.5043 0.132851 19.6447 0.244065 19.7559C0.355278 19.8672 0.495696 19.9446 0.649085 19.9794C0.802474 20.0142 0.962571 20.0048 1.11087 19.9524L15.2768 14.9527C15.4095 14.9058 15.5282 14.826 15.6218 14.7208C15.7154 14.6157 15.7808 14.4885 15.8119 14.3512C15.843 14.2139 15.8388 14.0709 15.7997 13.9357C15.7607 13.8004 15.688 13.6773 15.5884 13.5778L6.42225 4.41158ZM2.19914 17.8009L3.20326 14.9552L3.94655 17.1842L2.19914 17.8009ZM6.68057 16.2176L4.77484 10.5004L5.69145 7.90472L8.27465 15.6543L6.68057 16.2176ZM10.7637 14.7777L8.93045 9.26632L11.847 12.1828L12.4994 14.1669L10.7637 14.7777Z" fill="#101212"/>
</svg>
