<svg width="24" height="24" viewBox="0 0 24 24" fill="none" xmlns="http://www.w3.org/2000/svg">
<path d="M0 1V20C0 20.552 0.448 21 1 21H13.75C13.8881 21 14 20.8881 14 20.75V16.9764C14 16.9108 13.974 16.8479 13.9286 16.8005C12.6914 15.5073 12 13.8105 12 12C12 8.22383 15.006 5.13673 18.7496 5.00442C18.8876 4.99954 19 4.88807 19 4.75V1C19 0.448 18.552 0 18 0H1C0.448 0 0 0.448 0 1ZM9.2 15C9.2 15.5523 8.75229 16 8.2 16H5C4.44772 16 4 15.5523 4 15C4 14.4477 4.44772 14 5 14H8.2C8.75228 14 9.2 14.4477 9.2 15ZM9.2 10C9.2 10.5523 8.75229 11 8.2 11H5C4.44772 11 4 10.5523 4 10C4 9.44772 4.44772 9 5 9H8.2C8.75228 9 9.2 9.44772 9.2 10ZM11.9242 5C11.9242 5.55228 11.4765 6 10.9242 6H4.72422C4.17193 6 3.72422 5.55228 3.72422 5C3.72422 4.44772 4.17193 4 4.72422 4H10.9242C11.4765 4 11.9242 4.44772 11.9242 5Z" fill="#101212"/>
<path d="M19 19C18.0662 19 17.177 18.8103 16.362 18.4755C16.192 18.4056 16 18.5273 16 18.711V23.5329C16 23.7325 16.2225 23.8516 16.3887 23.7409L18.8613 22.0925C18.9453 22.0365 19.0547 22.0365 19.1387 22.0925L21.6113 23.7409C21.7775 23.8516 22 23.7325 22 23.5329V18.711C22 18.5273 21.808 18.4056 21.638 18.4755C20.823 18.8103 19.9338 19 19 19Z" fill="#101212"/>
<path d="M19 17C21.7614 17 24 14.7614 24 12C24 9.23858 21.7614 7 19 7C16.2386 7 14 9.23858 14 12C14 14.7614 16.2386 17 19 17Z" fill="#101212"/>
</svg>
