<svg width="24" height="24" viewBox="0 0 24 24" fill="none" xmlns="http://www.w3.org/2000/svg">
<path fill-rule="evenodd" clip-rule="evenodd" d="M7 8C7 7.44772 7.44772 7 8 7H16C16.5523 7 17 7.44772 17 8V16C17 16.5523 16.5523 17 16 17H8C7.44772 17 7 16.5523 7 16V8Z" fill="#101212"/>
<path fill-rule="evenodd" clip-rule="evenodd" d="M7 1C7 0.447715 7.44772 0 8 0H10C10.5523 0 11 0.447715 11 1C11 1.55228 10.5523 2 10 2H9V3C9 3.55228 8.55228 4 8 4C7.44772 4 7 3.55228 7 3V1Z" fill="#101212"/>
<path fill-rule="evenodd" clip-rule="evenodd" d="M20 1C20 0.447715 20.4477 0 21 0H23C23.5523 0 24 0.447715 24 1V3C24 3.55228 23.5523 4 23 4C22.4477 4 22 3.55228 22 3V2H21C20.4477 2 20 1.55228 20 1Z" fill="#101212"/>
<path fill-rule="evenodd" clip-rule="evenodd" d="M23 13C23.5523 13 24 13.4477 24 14V16C24 16.5523 23.5523 17 23 17H21C20.4477 17 20 16.5523 20 16C20 15.4477 20.4477 15 21 15H22V14C22 13.4477 22.4477 13 23 13Z" fill="#101212"/>
<path fill-rule="evenodd" clip-rule="evenodd" d="M13 1C13 0.447715 13.4477 0 14 0H17C17.5523 0 18 0.447715 18 1C18 1.55228 17.5523 2 17 2H14C13.4477 2 13 1.55228 13 1Z" fill="#101212"/>
<path fill-rule="evenodd" clip-rule="evenodd" d="M23 6C23.5523 6 24 6.44772 24 7V10C24 10.5523 23.5523 11 23 11C22.4477 11 22 10.5523 22 10V7C22 6.44772 22.4477 6 23 6Z" fill="#101212"/>
<path fill-rule="evenodd" clip-rule="evenodd" d="M0 8C0 7.44772 0.447715 7 1 7H3C3.55228 7 4 7.44772 4 8C4 8.55228 3.55228 9 3 9H2V10C2 10.5523 1.55228 11 1 11C0.447715 11 0 10.5523 0 10V8Z" fill="#101212"/>
<path fill-rule="evenodd" clip-rule="evenodd" d="M1 20C1.55228 20 2 20.4477 2 21V22H3C3.55228 22 4 22.4477 4 23C4 23.5523 3.55228 24 3 24H1C0.447715 24 0 23.5523 0 23V21C0 20.4477 0.447715 20 1 20Z" fill="#101212"/>
<path fill-rule="evenodd" clip-rule="evenodd" d="M16 20C16.5523 20 17 20.4477 17 21V23C17 23.5523 16.5523 24 16 24H14C13.4477 24 13 23.5523 13 23C13 22.4477 13.4477 22 14 22H15V21C15 20.4477 15.4477 20 16 20Z" fill="#101212"/>
<path fill-rule="evenodd" clip-rule="evenodd" d="M1 13C1.55228 13 2 13.4477 2 14V17C2 17.5523 1.55228 18 1 18C0.447715 18 0 17.5523 0 17V14C0 13.4477 0.447715 13 1 13Z" fill="#101212"/>
<path fill-rule="evenodd" clip-rule="evenodd" d="M6 23C6 22.4477 6.44772 22 7 22H10C10.5523 22 11 22.4477 11 23C11 23.5523 10.5523 24 10 24H7C6.44772 24 6 23.5523 6 23Z" fill="#101212"/>
</svg>
