<svg width="20" height="20" viewBox="0 0 20 20" fill="none" xmlns="http://www.w3.org/2000/svg">
<path d="M1.32474 9.01634L3.43344 10.6136L10.798 7.3405L5.08882 11.8402V17.3628C5.089 17.5305 5.14072 17.6942 5.23698 17.8315C5.33324 17.9689 5.4694 18.0734 5.62701 18.1308C5.78462 18.1882 5.95606 18.1958 6.11813 18.1526C6.2802 18.1093 6.42506 18.0173 6.53309 17.889L9.09431 14.8458L14.4172 18.8357C14.5276 18.9187 14.6572 18.9725 14.794 18.9919C14.9308 19.0113 15.0702 18.9958 15.1994 18.9468C15.3285 18.8977 15.4432 18.8168 15.5326 18.7116C15.6221 18.6063 15.6834 18.4801 15.7109 18.3447L18.984 1.97913C19.013 1.83456 19.0024 1.68484 18.9533 1.54581C18.9042 1.40677 18.8185 1.28359 18.7051 1.18928C18.5918 1.09497 18.4551 1.03303 18.3094 1.01002C18.1638 0.987016 18.0146 1.00379 17.8777 1.05857L1.51212 7.60481C1.37787 7.65897 1.26039 7.74778 1.17167 7.86218C1.08295 7.97658 1.02617 8.11246 1.00712 8.25597C0.988066 8.39948 1.00743 8.54547 1.06323 8.67905C1.11903 8.81264 1.20927 8.92902 1.32474 9.01634Z" fill="#101212"/>
</svg>
