<?xml version="1.0" encoding="UTF-8"?>
<svg xmlns="http://www.w3.org/2000/svg" xmlns:xlink="http://www.w3.org/1999/xlink" viewBox="0 0 560 560">
    <defs>
        <style>
            .s {
                fill:url(#j);
            }
            .t {
                fill:#202222;
            }
        </style>
        <radialGradient id="j" cx="142.8" cy="263" fx="142.8" fy="263" r="336.1" gradientTransform="matrix(1, 0, 0, 1, 0, 0)" gradientUnits="userSpaceOnUse">
            <stop offset="0" stop-color="#ffb887"/>
            <stop offset=".4" stop-color="#b3f487"/>
            <stop offset=".6" stop-color="#b3f487"/>
            <stop offset=".9" stop-color="#1acc6c"/>
        </radialGradient>
    </defs>
    <path id="h" class="t" d="M31.3,468.7c1.6-5.2,3.2-10.3,4.8-15.3,4.7-15.1,9.5-30.1,14.2-45.2,7.6-24.5,15.2-49.1,22.8-73.6,5.7-18.5,11.5-37,17.3-55.5,6.3-20.3,12.7-40.7,19-61,5.3-17,10.6-34,16-51,1.2-3.8,2.8-7.6,4.6-11.2,1.1-2.2,5.1-3,7.2-2.1,5.7,2.2,11.4,4.5,17.1,6.6,3.4,1.3,3.9,2.6,2.8,6.1-4.1,12.8-8,25.6-12,38.3-3.6,11.3-7.2,22.5-10.7,33.8-3.7,11.9-7.3,23.9-11,35.8-4,12.8-8.2,25.4-12.3,38.2-3.5,11.1-6.8,22.2-10.2,33.3-4.8,15.4-9.7,30.7-14.5,46.1-2.4,7.7-4.7,15.5-7.1,23.2-4.6,14.5-9.2,28.9-13.8,43.3-1.1,3.4-2.2,6.8-3.4,10.2-.8,2.4-2.6,3.6-5,3.9-1.9,.2-3.9,.3-5.8,0-6.2-1-12.4-2.2-18.6-3.3-.4,0-.8-.3-1.4-.6ZM135.2,161.4c-31.5,100.8-63,201.5-94.5,302.3,5.2,.8,9.8,1.5,14.6,2.2,31.3-99.7,62.5-199.2,93.8-298.9-4.7-1.9-9.2-3.7-13.9-5.6Z"/>
    <path id="k" class="s" d="M174.6,282.1c10.2-.6,20.4-1.1,30.6-1.7,.5,0,1,0,1.4,0,16.1-.4,32.2-.6,48.4-1.2,10.7-.4,21.3-1.4,32-2.1,3.4-.2,6.7-.6,10.1-.6,14.3-.2,28.5-.3,42.8-.4,3.1,0,3.2,.4,3.2,4.7,0,7.7,0,15.4,0,23.2,0,25.7-.1,51.5,0,77.2,.1,16.3,.7,32.6,1.1,49,0,.7,.1,1.3,.2,2,.7,6.9-2.7,10.6-9.6,11.3-11.1,1.1-22.2,2.6-33.3,3.8-7.7,.9-15.5,1.6-23.2,2.5-9.2,1-18.3,2.2-27.5,3.2-7.6,.9-15.1,1.7-22.7,2.6-9.6,1.1-19.1,2.3-28.7,3.3-11,1.2-22,2.5-33,3.6-4.5,.5-4.6,.2-4.7-4.4-.1-7.2-.4-14.4-.3-21.7,0-19.2,.1-38.4,.5-57.5,.2-11.3,1.1-22.5,1.5-33.8,.4-11.6,.5-23.3,.8-34.9,0-4,.7-8,.5-12-.1-3.6-1-7.3-1.2-10.9,0-1.2,1.1-3,2.2-3.4,2.8-1.1,5.8-1.6,8.8-2.3l.2,.6Z"/>
    <path id="n" class="t" d="M206.2,158c.5-5.2,1.2-9.9,1.4-14.6,.6-12.7,1.1-25.4,1.6-38.1,.1-2.7-.2-5.5,.4-8.1,.4-1.9,1.6-3.8,2.9-5.2,1.7-1.7,4.3-.6,5.3,2.3,1.5,4.2,2.8,8.5,4.1,12.8,3.4,11,6.9,21.9,10.3,32.9,2,6.4,4,12.8,6.1,19.2,0,.2,.3,.4,.4,.7,4.8-5.2,9.5-10.6,14.5-15.6,11.7-11.8,23.4-23.4,35.2-35,.8-.7,2-1.2,3.1-1.3,1.9-.2,2.8,1.6,1.9,3.4-3.1,6-6.2,12-9.3,18-4.4,8.7-8.8,17.5-13.2,26.2-2.7,5.3-5.3,10.6-7.9,15.9-.2,.3-.2,.8-.3,1.4,5.7-.3,11.2-.5,16.7-.9,11.1-.8,22.2-1.7,33.4-2.6,3.3-.3,6.5-.8,9.7-1.1,1.1,0,2.5,0,3.3,.5,1.3,.8,2.3,2.1,3.4,3.3-1,1-1.9,2.3-3.1,2.9-5.8,2.6-11.8,4.9-17.6,7.5-6.2,2.7-12.3,5.7-18.6,8.3-6,2.4-12.1,4.5-18.1,6.7-.8,.3-1.5,.7-2.4,1.1,7.6,8.7,15,17.1,22.2,25.6,5.6,6.6,11.1,13.4,16.6,20.1,1.4,1.7,2.1,3.5,.3,5.5-2.4,2.6-4.5,3.1-6.6,2-6.6-3.5-13.3-6.6-19.9-10.1-5.1-2.7-10.1-5.7-15.2-8.4-4.5-2.3-9.1-4.3-13.9-6.6,0,3.8,.2,7.5,.2,11.2,.3,12.7,.5,25.4,.8,38.1,.1,3.6-1.8,5.6-4.7,6.9-1.6,.7-2.9,.6-3.6-1.5-3.2-9.7-7.9-18.9-12.4-28-2.5-5.1-4.9-10.2-7.4-15.2-.5-1-1.1-1.8-1.8-3-4.2,3.4-8.3,6.8-12.4,10.1-7.9,6.1-15.9,12.1-23.8,18.2-4.7,3.6-9.1,7.5-13.7,11.2-1.6,1.3-3.2,2.9-6.1,1.9,.4-1.2,.5-2.6,1.1-3.5,4.9-7.2,9.9-14.4,14.8-21.6,3.6-5.3,7.2-10.6,10.8-16,2.1-3.1,4.1-6.2,6.4-9.7-1.9-.9-3.5-2-5.2-2.6-6.1-2.3-12.3-4.7-18.5-6.7-8.7-2.9-17.4-5.6-26.1-8.3-2.8-.9-3.3-2.6-1.8-5.2,2-3.6,5.5-3.6,8.8-4,11.6-1.4,23.2-2.7,34.7-4,2.2-.3,4.4-.5,6.9-.8-1.9-2.9-3.6-5.6-5.4-8.2-3.4-5.1-6.7-10.1-10.2-15.1-3.1-4.5-6.4-8.9-9.6-13.3-2.4-3.4-4.8-6.8-7.3-10.2-1.3-1.8-2.6-3.5-4-5.3-2.8-3.7-1-8.3,3.5-8.7,1.4-.1,3.1,.6,4.3,1.4,5.9,3.8,11.7,7.9,17.5,11.8,5.7,3.8,11.4,7.7,17.6,11.8Z"/>
    <path id="r" class="t" d="M378.4,444.5c2.7,2,5.7,4.8,9.3,6.6,6.3,3.2,12.7,2.1,19.1-.3,7.3-2.8,13.3-7.5,18.5-13.2,.7-.7,1-2.1,.8-3.1-1.9-12.9-.9-25.6,3.4-37.9,1.8-5.1,4.2-9.9,8.7-13.3,2.7-2.1,5.6-3.4,9-2.1,3.6,1.4,4.5,4.8,5,8,1.5,9.4-1,18.4-5,26.7-3.2,6.5-7.5,12.4-11.3,18.6-.2,.3-.4,.8-.3,1.2,1.7,6.8,4.3,13,10,17.6,6.7,5.4,14.2,4,20.3-.7,8.3-6.4,13-15.3,16.4-24.9,1.3-3.8,2.1-7.8,2.9-11.7,.6-2.9,2-5.1,4.6-6.6,2.4-1.3,4.2-.4,4.6,2.3,1.3,9.4,3.7,18.6,8.4,26.9,2.1,3.8,4.8,7.5,8.1,10.3,4.5,4,10.2,3.4,15.7,2.2,2.6-.6,5.2-1.5,7.7-2.2,.6-.2,1.4-.5,1.8-.3,1,.5,1.9,1.3,2.9,2.1-.9,1.1-1.5,2.8-2.6,3.2-4.6,1.5-9.2,3-13.9,3.8-3.6,.7-7.4,.8-11,.4-6.7-.8-11.3-5.1-14.5-10.7-2.9-5-5.3-10.4-7.9-15.7-1.7,3-3.4,6.3-5.3,9.4-6.2,10.5-14.7,18.2-26.6,21.4-10.8,2.8-19.8-1.3-25.6-11.6-1.3-2.3-2.3-4.9-3.4-7.3-3.7,2.6-7.4,5.6-11.4,8.1-7.7,4.6-15.8,7.8-25.1,7.8-6.9,0-12.7-2.1-17.6-6.8-.3-.3-.7-.6-1.1-.8,0,0-.2,0-.5-.1-2.9,3.3-5.7,6.8-8.7,10.1-9.9,11.2-20.9,21-35.1,26.5-8.2,3.1-16.4,4.3-24.7,.5-4.7-2.2-8.2-5.7-10.7-10.4-7-13.3-7.5-27.7-6.7-42.1,.5-10,1.5-20,3.1-29.8,2-12.2,4.6-24.4,7.6-36.4,3.2-12.9,7.1-25.5,10.8-38.3,.9-3.2,2.3-6.2,3.9-9.1,1.3-2.3,3.6-3.7,6.5-3.2,1.9,.3,2.6,2.1,1.7,3.8-1.4,2.6-3.2,5.2-4,8-4.1,14.3-8.5,28.5-11.8,43-3.2,14.2-5.6,28.7-7.8,43.1-1.8,11.7-2.4,23.6-1.1,35.4,.9,8.4,2.5,16.6,7.7,23.6,4.7,6.4,11.3,9.4,19.6,7.9,8.3-1.5,15-5.8,21.3-10.9,9.2-7.5,16.6-16.6,23.7-26,.4-.6,.5-1.9,.1-2.6-5.1-9.3-6.7-19.5-6.8-29.9-.2-16.3,3.1-32,9.1-47,4.4-10.9,9.8-21.1,18.6-29.2,3.8-3.4,7.9-6.4,13.2-6.7,6.3-.4,10.1,3.1,11.7,10.3,2.1,9.4,1.1,18.7-.9,27.9-3.2,14.8-8.6,28.9-15.9,42.2-5.8,10.6-11.9,21-18.4,32.4Zm-4.5-7.5c.3,0,.6,0,.9,.1,.3-.4,.7-.8,.9-1.3,4.6-8,9.5-15.9,13.7-24.1,9-17.6,16.1-35.9,16.6-56.1,.1-5-.3-9.8-3.1-14.2-2.4-3.7-4.7-4-8-1.1-5.7,5-9.6,11.3-12.9,17.9-5.6,11.2-9.2,23.1-11.1,35.5-1.6,10-2.2,19.9-.4,29.9,.8,4.5,2.2,9,3.4,13.5Zm68.6-49c-.4,0-.8,0-1.2,0-6.9,11.5-7.7,24.3-7.5,37.8,.7-.6,1-.8,1.2-1.1,5.6-8.8,9-18.4,9-28.9,0-2.6-1-5.2-1.5-7.8Z"/>
</svg>   