<svg width="16" height="16" viewBox="0 0 16 16" fill="none" xmlns="http://www.w3.org/2000/svg">
<path d="M0 0.666667V13.3333C0 13.7013 0.298667 14 0.666667 14H9.08333C9.2214 14 9.33333 13.8881 9.33333 13.75V11.3518C9.33333 11.2861 9.30728 11.2233 9.26225 11.1756C8.45217 10.3166 8 9.19547 8 8C8 5.51054 9.95973 3.47029 12.4167 3.33995C12.5546 3.33263 12.6667 3.2214 12.6667 3.08333V0.666667C12.6667 0.298667 12.368 0 12 0H0.666667C0.298667 0 0 0.298667 0 0.666667ZM6.13333 10C6.13333 10.3682 5.83486 10.6667 5.46667 10.6667H3.33333C2.96514 10.6667 2.66667 10.3682 2.66667 10C2.66667 9.63181 2.96514 9.33333 3.33333 9.33333H5.46667C5.83486 9.33333 6.13333 9.63181 6.13333 10ZM6.13333 6.66667C6.13333 7.03486 5.83486 7.33333 5.46667 7.33333H3.33333C2.96514 7.33333 2.66667 7.03486 2.66667 6.66667C2.66667 6.29848 2.96514 6 3.33333 6H5.46667C5.83486 6 6.13333 6.29848 6.13333 6.66667ZM7.94948 3.33333C7.94948 3.70152 7.651 4 7.28281 4H3.14948C2.78129 4 2.48281 3.70152 2.48281 3.33333C2.48281 2.96514 2.78129 2.66667 3.14948 2.66667H7.28281C7.651 2.66667 7.94948 2.96514 7.94948 3.33333Z" fill="#101212"/>
<path d="M12.6667 12.6667C12.0908 12.6667 11.5403 12.5584 11.0309 12.3654C10.859 12.3003 10.6667 12.4222 10.6667 12.606V15.5329C10.6667 15.7325 10.8893 15.8516 11.0554 15.7409L12.5281 14.7591C12.612 14.7031 12.7214 14.7031 12.8054 14.7591L14.2781 15.7409C14.4442 15.8516 14.6667 15.7325 14.6667 15.5329V12.606C14.6667 12.4222 14.4745 12.3003 14.3026 12.3654C13.7932 12.5584 13.2427 12.6667 12.6667 12.6667Z" fill="#101212"/>
<path d="M12.6666 11.3333C14.5075 11.3333 15.9999 9.84094 15.9999 7.99999C15.9999 6.15904 14.5075 4.66666 12.6666 4.66666C10.8256 4.66666 9.33325 6.15904 9.33325 7.99999C9.33325 9.84094 10.8256 11.3333 12.6666 11.3333Z" fill="#101212"/>
</svg>
