<svg width="24" height="23" viewBox="0 0 24 23" fill="none" xmlns="http://www.w3.org/2000/svg">
<path d="M12 7C13.104 7 14 6.104 14 5C14 3.896 12 1 12 1C12 1 10 3.896 10 5C10 6.104 10.896 7 12 7Z" stroke="#101212" stroke-width="2" stroke-linecap="round" stroke-linejoin="round"/>
<path d="M23 14H1V22H23V14Z" stroke="#101212" stroke-width="2" stroke-linecap="round" stroke-linejoin="round"/>
<path d="M23 14C23 16.209 21.209 18 19 18C17.482 18 16.178 17.145 15.5 15.899C14.822 17.145 13.518 18 12 18C10.482 18 9.178 17.145 8.5 15.899C7.822 17.145 6.518 18 5 18C2.791 18 1 16.209 1 14" stroke="#101212" stroke-width="2" stroke-linecap="round" stroke-linejoin="round"/>
<path d="M20 14V10H4V14" stroke="#101212" stroke-width="2" stroke-linecap="round" stroke-linejoin="round"/>
</svg>
