<svg width="24" height="22" viewBox="0 0 24 22" fill="none" xmlns="http://www.w3.org/2000/svg">
<path d="M18.1723 6.9184C17.7337 6.66914 17.1697 6.66914 16.6684 6.9184L13.1593 8.97478L10.7781 10.2834L7.33159 12.3398C6.89295 12.589 6.32898 12.589 5.82768 12.3398L3.13316 10.7196C2.69452 10.4703 2.3812 9.97181 2.3812 9.41098V6.29525C2.3812 5.79674 2.63185 5.29822 3.13316 4.98665L5.82768 3.42878C6.26632 3.17953 6.83029 3.17953 7.33159 3.42878L10.0261 5.04896C10.4648 5.29822 10.7781 5.79674 10.7781 6.35757V8.41395L13.1593 7.04303V4.92433C13.1593 4.42582 12.9086 3.9273 12.4073 3.61573L7.39426 0.686944C6.95561 0.437685 6.39164 0.437685 5.89034 0.686944L0.751958 3.67804C0.250653 3.9273 0 4.42582 0 4.92433V10.7819C0 11.2804 0.250653 11.7789 0.751958 12.0905L5.82768 15.0193C6.26632 15.2685 6.83029 15.2685 7.33159 15.0193L10.7781 13.0252L13.1593 11.6543L16.6057 9.66024C17.0444 9.41098 17.6084 9.41098 18.1097 9.66024L20.8042 11.2181C21.2428 11.4674 21.5561 11.9659 21.5561 12.5267V15.6424C21.5561 16.141 21.3055 16.6395 20.8042 16.951L18.1723 18.5089C17.7337 18.7582 17.1697 18.7582 16.6684 18.5089L13.9739 16.951C13.5352 16.7018 13.2219 16.2033 13.2219 15.6424V13.6484L10.8407 15.0193V17.0757C10.8407 17.5742 11.0914 18.0727 11.5927 18.3843L16.6684 21.3131C17.107 21.5623 17.671 21.5623 18.1723 21.3131L23.248 18.3843C23.6867 18.135 24 17.6365 24 17.0757V11.1558C24 10.6573 23.7493 10.1588 23.248 9.84718L18.1723 6.9184Z" fill="#101212"/>
</svg>
