<svg width="24" height="24" viewBox="0 0 24 24" fill="none" xmlns="http://www.w3.org/2000/svg">
<path d="M7 0C5.61553 0 4.26215 0.410543 3.11101 1.17971C1.95987 1.94888 1.06266 3.04213 0.532846 4.32122C0.00303304 5.6003 -0.13559 7.00776 0.134506 8.36563C0.404603 9.7235 1.07129 10.9708 2.05026 11.9497C3.02922 12.9287 4.2765 13.5954 5.63437 13.8655C6.99224 14.1356 8.3997 13.997 9.67879 13.4672C10.9579 12.9373 12.0511 12.0401 12.8203 10.889C13.5895 9.73785 14 8.38447 14 7C13.9979 5.14413 13.2597 3.36489 11.9474 2.05259C10.6351 0.740295 8.85587 0.00211736 7 0V0ZM9.707 5.707L5.707 9.707C5.5184 9.88916 5.2658 9.98995 5.0036 9.98767C4.7414 9.98539 4.49059 9.88022 4.30518 9.69482C4.11978 9.50941 4.01461 9.2586 4.01233 8.9964C4.01005 8.7342 4.11084 8.4816 4.293 8.293L8.293 4.293C8.38525 4.19749 8.49559 4.12131 8.6176 4.0689C8.7396 4.01649 8.87082 3.9889 9.0036 3.98775C9.13638 3.9866 9.26806 4.0119 9.39096 4.06218C9.51385 4.11246 9.6255 4.18671 9.7194 4.2806C9.81329 4.3745 9.88754 4.48615 9.93782 4.60905C9.9881 4.73194 10.0134 4.86362 10.0123 4.9964C10.0111 5.12918 9.98351 5.2604 9.9311 5.3824C9.87869 5.50441 9.80251 5.61475 9.707 5.707Z" fill="#101212"/>
<path d="M23 6H15.941C15.9793 6.33197 15.999 6.66583 16 7C16.0014 8.86199 15.4249 10.6785 14.3499 12.1989C13.2749 13.7192 11.7546 14.8684 9.99861 15.4878C8.24267 16.1072 6.33775 16.1663 4.54679 15.6569C2.75583 15.1475 1.16714 14.0948 0 12.644V20C0 21.0609 0.421427 22.0783 1.17157 22.8284C1.92172 23.5786 2.93913 24 4 24H23C23.2652 24 23.5196 23.8946 23.7071 23.7071C23.8946 23.5196 24 23.2652 24 23V7C24 6.73478 23.8946 6.48043 23.7071 6.29289C23.5196 6.10536 23.2652 6 23 6ZM18 17C17.6044 17 17.2178 16.8827 16.8889 16.6629C16.56 16.4432 16.3036 16.1308 16.1522 15.7654C16.0009 15.3999 15.9613 14.9978 16.0384 14.6098C16.1156 14.2219 16.3061 13.8655 16.5858 13.5858C16.8655 13.3061 17.2219 13.1156 17.6098 13.0384C17.9978 12.9613 18.3999 13.0009 18.7654 13.1522C19.1308 13.3036 19.4432 13.56 19.6629 13.8889C19.8827 14.2178 20 14.6044 20 15C20 15.5304 19.7893 16.0391 19.4142 16.4142C19.0391 16.7893 18.5304 17 18 17Z" fill="#101212"/>
</svg>
