<svg width="12" height="12" viewBox="0 0 12 12" fill="none" xmlns="http://www.w3.org/2000/svg">
<path d="M11 6C11 6.98891 10.7068 7.9556 10.1573 8.77785C9.60794 9.6001 8.82705 10.241 7.91342 10.6194C6.99979 10.9978 5.99445 11.0969 5.02455 10.9039C4.05465 10.711 3.16373 10.2348 2.46447 9.53553C1.76521 8.83627 1.289 7.94536 1.09608 6.97545C0.90315 6.00555 1.00217 5.00021 1.3806 4.08658C1.75904 3.17295 2.3999 2.39206 3.22215 1.84265C4.0444 1.29324 5.01109 1 6 1C7.32608 1 8.59785 1.52678 9.53553 2.46447C10.4732 3.40215 11 4.67392 11 6V6Z" stroke="#101212" stroke-width="2" stroke-linecap="round" stroke-linejoin="round"/>
<path d="M6.8002 5.20001L5.2002 6.80001" stroke="#101212" stroke-width="2" stroke-linecap="round" stroke-linejoin="round"/>
</svg>
