<?xml version="1.0" encoding="utf-8"?>
<!-- Generator: Adobe Illustrator 26.2.1, SVG Export Plug-In . SVG Version: 6.00 Build 0)  -->
<svg version="1.1" xmlns="http://www.w3.org/2000/svg" xmlns:xlink="http://www.w3.org/1999/xlink" x="0px" y="0px"
	 viewBox="0 0 1280 512" style="enable-background:new 0 0 1280 512;" xml:space="preserve">
<style type="text/css">
	.st0{fill:url(#SVGID_1_);}
	.st1{fill:url(#SVGID_00000013183238750150613070000015562306619735420845_);}
	.st2{fill:url(#SVGID_00000067950443038686833160000017762376836079282862_);}
	.st3{fill:url(#SVGID_00000118355354043929290010000010750641674152125118_);}
	.st4{fill:#202222;}
	.st5{fill:url(#SVGID_00000084496782029045111150000018200326611298055808_);}
	.st6{fill:url(#SVGID_00000062873257973194054440000011213637978624131478_);}
	.st7{fill:url(#SVGID_00000135684275051947288720000017481007138680563080_);}
	.st8{fill:url(#SVGID_00000042737630179266363820000000252819716226758791_);}
	.st9{fill:url(#SVGID_00000039110129764180348230000018151219043529847438_);}
	.st10{fill:url(#SVGID_00000007401412091151160590000009253515792179954607_);}
	.st11{fill:url(#SVGID_00000062889290800777425470000000354523747504278915_);}
	.st12{fill:url(#SVGID_00000172442457667207874990000009662202229561165967_);}
</style>
<g id="Color_Lines_Right">
	<g>
		<radialGradient id="SVGID_1_" cx="788.1737" cy="363.4098" r="482.6823" gradientUnits="userSpaceOnUse">
			<stop  offset="7.270483e-02" style="stop-color:#C2B6DC"/>
			<stop  offset="1" style="stop-color:#FFB887"/>
		</radialGradient>
		<path class="st0" d="M1045.7,309.3c0.2,0.7,0.3,1.4,0.7,2c3.9,7.7,2.9,14.2-3.5,20c-2.9,2.6-6.3,4.9-9.8,6.9
			c-11.4,6.4-23.6,10.2-36.6,11.8c-6,0.8-11.9,1.3-17.8-0.2c-1.1-0.3-2.1-0.5-3.1-0.9c-4.9-2-5.8-5-2.9-9.4c1-1.5,2.3-2.8,3.7-3.9
			c8.3-6.6,17.3-12,27-16.2c8.3-3.6,16.8-7,25.1-10.5c0.8-0.3,1.5-0.8,2.8-1.5c-1.2-0.9-1.8-1.8-2.7-2.1c-2.9-1.1-5.8-2.3-8.7-3
			c-9.2-2.3-18.7-3.4-28-3.4c-9.8,0-19.6,1-29.2,2.5c-9.5,1.5-18.9,3.8-28.1,6.4c-11,3.2-21.5,7.9-31.3,13.8c-2,1.2-4.3,2.5-5.5,4.4
			c-1.5,2.5-3.7,2.6-5.9,3c-0.9,0.2-2.3,0-2.9-0.6c-1.1-1.1-0.3-2.5,0.6-3.4c2.1-2,4.1-4.1,6.6-5.7c10.4-6.8,21.9-11.3,33.8-15
			c13.7-4.4,27.8-7.2,42.1-8.4c11.9-1,23.9-1.1,35.9,0.2c6.2,0.7,12.3,1.6,18.1,3.6c3.3,1.1,6.6,2.1,9.6,3.7
			c2.8,1.4,5.4,1.5,8.4,0.8c8.3-2,16.6-4.1,25-5.7c7.7-1.4,15.4-2.2,23.2-3.1c20.8-2.6,41.7-2.4,62.6-2c8.7,0.2,17.4,1.1,26,1.8
			c4.7,0.4,9.4,0.9,14.1,1.4c1.1,0.1,2.2,0.2,3.2,0.7c0.5,0.2,0.8,1.1,0.9,1.7c0,0.3-0.6,1-1,1.1c-1.2,0.2-2.5,0.3-3.8,0.2
			c-7.8-0.6-15.5-1.2-23.3-2c-19.2-1.9-38.5-1.4-57.7-0.7c-20.9,0.7-41.6,3.6-61.8,9.2c-1.4,0.4-2.8,0.9-4.1,1.4
			C1046.6,308.5,1046.3,308.9,1045.7,309.3z M987,347.1c15-1.6,29.2-4.8,41.9-12.9c3-1.9,5.8-4.3,8.5-6.7c2.6-2.3,3.5-5.5,3.5-8.8
			c0.1-5.4-2.8-7.8-7.9-6c-6,2.1-11.9,4.5-17.7,6.9c-10.2,4.3-20,9.5-29,16c-2.5,1.8-4.6,4-6.6,6.4c-1.4,1.7-0.6,3.7,1.5,4.3
			C983.1,346.7,985.2,346.8,987,347.1z"/>
		
			<radialGradient id="SVGID_00000122705328213356636070000017323829037466319036_" cx="788.1737" cy="363.4098" r="482.6823" gradientUnits="userSpaceOnUse">
			<stop  offset="7.270483e-02" style="stop-color:#C2B6DC"/>
			<stop  offset="1" style="stop-color:#FFB887"/>
		</radialGradient>
		<path style="fill:url(#SVGID_00000122705328213356636070000017323829037466319036_);" d="M891.6,253.7c3.4,2.4,6.2,1.7,8.6,0
			c3.1-2.2,6.2-4.5,8.7-7.3c7.4-8.5,13.2-18.2,18.5-28.1c9.6-18,17.1-36.9,25-55.6c0.8-2,2-3.9,3.1-5.7c0.3-0.4,1.4-0.6,1.9-0.4
			c0.5,0.2,0.9,1.2,0.9,1.7c-0.1,1.1-0.5,2.1-0.9,3.1c-7.3,16.8-14.3,33.8-22.2,50.3c-5,10.5-10.6,20.7-17.9,29.8
			c-3.7,4.7-7.4,9.4-12.4,12.9c-4.5,3.1-9.1,6.1-15,5.4c-2.5-0.3-3.5,1.4-4.7,3c-3.9,5.4-7.7,11-12,16.2c-3.1,3.7-7,6.8-10.6,10
			c-0.8,0.7-1.9,0.9-2.9,1.4c-1.2-1.8,0.1-2.5,0.9-3.4c4-4.4,8.4-8.6,12.1-13.3c3.7-4.7,6.9-9.8,10.2-14.7c1.3-1.9,1.6-3.9,1.2-6.2
			c-1.8-9.8,1.4-18.3,7.3-25.9c1.2-1.5,2.9-2.8,4.6-3.8c2.4-1.4,4.3-0.3,4.7,2.5c0.5,3.5,0,6.9-1.4,10.1c-1.9,4.5-4,8.9-6,13.4
			C892.7,250.7,892.2,252,891.6,253.7z M894.9,229.8c-2.1,1.1-2.6,3.1-3.4,4.8c-0.7,1.6-1.3,3.4-1.7,5.1c-0.4,1.7-1.4,3.6,0.1,5.6
			C893.7,240.3,895.5,234.5,894.9,229.8z"/>
		
			<radialGradient id="SVGID_00000059274551511440919380000008237648008889734032_" cx="788.1737" cy="363.4098" r="482.6823" gradientUnits="userSpaceOnUse">
			<stop  offset="7.270483e-02" style="stop-color:#C2B6DC"/>
			<stop  offset="1" style="stop-color:#FFB887"/>
		</radialGradient>
		<path style="fill:url(#SVGID_00000059274551511440919380000008237648008889734032_);" d="M936.4,285.6c-0.8,0-1.3-0.1-1.8-0.1
			c-1.5-0.2-2.9-0.7-3.2-2.4c-0.3-1.5,0.9-3.3,2.7-3.6c1.4-0.2,2.9-0.2,4.3,0c1.6,0.2,2.6,1.2,2.6,2.9c0,1.7-1.1,2.6-2.6,3
			C937.6,285.5,936.9,285.5,936.4,285.6z"/>
		
			<radialGradient id="SVGID_00000068662130978704217830000005656916267432600242_" cx="788.1737" cy="363.4098" r="482.6823" gradientUnits="userSpaceOnUse">
			<stop  offset="7.270483e-02" style="stop-color:#C2B6DC"/>
			<stop  offset="1" style="stop-color:#FFB887"/>
		</radialGradient>
		<path style="fill:url(#SVGID_00000068662130978704217830000005656916267432600242_);" d="M1073,316.3c3,0,4.8,1.3,4.7,3
			c-0.2,1.9-2.6,3.3-5,2.8c-0.5-0.1-1.1-0.2-1.5-0.5c-0.7-0.7-1.7-1.4-1.9-2.3c-0.3-1.4,0.7-2.3,2-2.7
			C1072,316.4,1072.7,316.3,1073,316.3z"/>
	</g>
</g>
<g id="Black_Lines_Right">
	<g>
		<path class="st4" d="M860.3,319.2c3.9-4.2,7.1-7.8,10.4-11.3c20.1-20.8,42.9-37.9,69.4-49.9c6.8-3.1,13.8-5.5,20.8-8
			c1.9-0.7,4.2-1.9,6.4,0.9c-0.7,0.7-1.3,1.9-2.2,2.3c-3.5,1.5-7.1,2.8-10.6,4.1c-20.7,7.5-38.9,19.2-56,32.9
			c-10.7,8.5-20.2,18.1-29.3,28.3C866.8,321,864.4,321,860.3,319.2z"/>
		<path class="st4" d="M1229.9,327.1c-0.2,2.3-1.4,2.8-3,2.2c-12.9-4.5-26.2-7-39.6-8.9c-10.4-1.5-20.8-2.5-31.3-3.4
			c-3.2-0.3-6.5,0.5-10.2,0.9c-0.7-1.3-1.6-2.7-2.4-4.1c1.9-2.5,4.3-2.7,6.7-2.6c6,0.3,12,0.3,17.9,1.1c16.5,2.3,33,4.5,49.1,8.8
			C1221.8,322.2,1226.5,323.4,1229.9,327.1z"/>
		<path class="st4" d="M945,241.2c-3.1,0-5.3-1.4-5.3-3.4c0-2.8,3.2-5.6,6.4-5.4c2.1,0.1,4,0.7,4.1,3.4
			C950.2,238.9,948.1,241.3,945,241.2z"/>
	</g>
</g>
<g id="Color_Lines_Left">
	<g>
		
			<radialGradient id="SVGID_00000121245433166637187290000001545783139923670198_" cx="180.1749" cy="136.7435" r="300.7126" gradientUnits="userSpaceOnUse">
			<stop  offset="0.1852" style="stop-color:#1ACC6C"/>
			<stop  offset="0.5291" style="stop-color:#B3F487"/>
			<stop  offset="0.7856" style="stop-color:#C2B6DC"/>
			<stop  offset="1" style="stop-color:#C2B6DC"/>
		</radialGradient>
		<path style="fill:url(#SVGID_00000121245433166637187290000001545783139923670198_);" d="M397,308.2c-4.7-2.7-9.4-5.6-14.4-7.7
			c-22.2-9.3-45.1-16.2-68.4-22c-15.1-3.7-30.5-6.9-45.8-9.6c-12.3-2.2-24.8-3.8-37.2-4.7c-10.5-0.8-21.1-0.4-31.6-0.2
			c-4.5,0.1-9,1.3-13.4,2.2c-4.2,0.9-7.6,3.4-10.4,6.6c-1.7,1.9-2.3,4.1-1.4,6.6c1.3,3.4,2.3,6.9,4.8,9.7c0.9,1,1.5,2.3,2.4,3.7
			c-1.2,0.3-1.9,0.6-2.5,0.7c-6.9,0.7-13.7,1.1-20.6,2c-13.1,1.8-26.3,3.4-39.2,6.1c-16.5,3.4-32.9,7.8-49.2,12
			c-5.4,1.4-10.6,3.6-15.9,5.7c-1.8,0.7-3.8,1.5-4.1,4c3.7,2.6,6.8,1.7,10.1,0.2c4-1.7,8.1-3.3,12.3-4.5c8.3-2.5,16.7-4.9,25.2-6.9
			c11.8-2.8,23.7-5.6,35.6-7.9c16.8-3.1,33.7-5.3,50.8-6c3.3-0.1,6,0.4,8.7,2.2c4.3,2.7,8.6,5.4,13.1,7.7
			c18.8,9.5,38.6,15.9,59.5,18.4c4.3,0.5,8.7,0.4,13,0c2.8-0.3,6-1.1,7-4.3c1.1-3.5-0.5-6.4-3-8.8c-0.3-0.3-0.5-0.5-0.8-0.7
			c-3.6-2.1-7-4.7-10.8-6.3c-16.2-7-33.3-10.1-50.7-11.9c-8.5-0.9-17-1-25.5-1.2c-2.9-0.1-5.4-0.8-7.3-3c-1.7-2.1-3.5-4.2-4.8-6.6
			c-2.1-4-1-8.2,3-10.3c3.5-1.8,7.3-3.5,11.1-4.2c5.1-1,10.5-1.2,15.7-1.3c7.6-0.2,15.2,0.4,22.8,0.7c15.7,0.7,31,3.6,46.3,6.5
			c14.4,2.7,28.7,6.5,42.9,10c15.9,3.9,31.4,8.9,46.7,14.7c8,3,16.1,5.9,23,11.1c0.8,0.6,1.9,1.2,2.9,1.3c0.9,0.1,1.8-0.4,3.5-0.9
			C399,310.1,398.1,308.9,397,308.2z M202.3,297.9c13.2,0.6,26.4,1.4,39.4,4c9.3,1.9,18.4,4.1,27.1,7.9c3.2,1.4,6.2,3,8.5,5.7
			c2.1,2.5,1.6,4.9-1.5,5.9c-2.4,0.7-5,1.3-7.5,1.1c-17.7-1.5-34.6-6-50.8-13.2c-4.6-2-9.1-4.4-13.6-6.8c-1.7-0.9-3.2-2.1-5.7-3.7
			C200.3,298.3,201.3,297.8,202.3,297.9z"/>
		
			<radialGradient id="SVGID_00000065794465730657231820000007624692735475184560_" cx="180.1749" cy="136.7435" r="300.7126" gradientUnits="userSpaceOnUse">
			<stop  offset="0.1852" style="stop-color:#1ACC6C"/>
			<stop  offset="0.5291" style="stop-color:#B3F487"/>
			<stop  offset="0.7856" style="stop-color:#C2B6DC"/>
			<stop  offset="1" style="stop-color:#C2B6DC"/>
		</radialGradient>
		<path style="fill:url(#SVGID_00000065794465730657231820000007624692735475184560_);" d="M426.4,243.4c4,2.8,7.9,5.8,12,8.4
			c2.9,1.8,6.1,3.2,9.3,4.5c3.2,1.3,6.1,0.2,8.5-2.1c2.5-2.3,2.3-5.3,1.1-8.1c-3.7-8.9-9.6-15.8-18.4-19.9c-5.1-2.4-10.2-2.2-15,1.1
			c-1.3,0.9-2.6,1.8-3.9,2.6c-7.3-4.6-12.8-10.7-18.3-16.7c-5.7-6.1-11-12.5-16-19.3c-4.8-6.6-9.3-13.5-13.2-20.6
			c-4-7.2-7.1-14.9-10.7-22.5c-2.8,0.7-3.9,2.1-3.4,4.5c0.6,2.5,1.2,5,2.2,7.3C366.4,176.3,374,189,383,201
			c9,12.1,19.7,22.8,31,32.7c2.4,2.1,3.1,4.2,2.6,7.1c-0.3,1.8-0.7,3.6-0.4,5.4c0.9,8.1,3.6,15.6,8.5,22.1
			c6.5,8.6,14.1,16,23.2,21.9c1,0.7,2.2,1.3,3.4,1.6c1.7,0.4,3.8-1.1,4.2-2.8c0.4-1.7-0.7-2.7-2-3.5c-2.2-1.3-4.6-2.3-6.5-3.9
			c-4.7-4-9.4-8.1-13.6-12.5c-5.8-6.2-9.9-13.4-11.8-21.8c-0.4-1.9-1.2-3.9,0.4-5.6C423.9,241.3,425.1,242.5,426.4,243.4z
			 M431.2,230.2c3.7,0.9,7.2,2.3,10.3,4.7c4.6,3.7,7.9,8.4,10.7,13.5c0.3,0.5,0.2,1.3,0.2,2.1c-2.4,0.7-4.1-0.5-5.8-1.5
			c-8-4.8-16.2-9.4-22.9-16.2C425.8,230,428.4,229.6,431.2,230.2z"/>
		
			<radialGradient id="SVGID_00000087385493879261139780000013243695563611874996_" cx="180.1749" cy="136.7435" r="300.7126" gradientUnits="userSpaceOnUse">
			<stop  offset="0.1852" style="stop-color:#1ACC6C"/>
			<stop  offset="0.5291" style="stop-color:#B3F487"/>
			<stop  offset="0.7856" style="stop-color:#C2B6DC"/>
			<stop  offset="1" style="stop-color:#C2B6DC"/>
		</radialGradient>
		<path style="fill:url(#SVGID_00000087385493879261139780000013243695563611874996_);" d="M386.2,161.2c2.8,0,5.4-1.9,6.1-4.4
			c0.8-2.8-1.5-5.2-4.2-4.4c-1.5,0.5-3,1.3-4.3,2.2c-1.4,1-2.1,2.5-1.5,4.3C382.9,160.7,384.4,161.2,386.2,161.2z"/>
		
			<radialGradient id="SVGID_00000147917938979194359670000011447963265709516212_" cx="180.1749" cy="136.7435" r="300.7126" gradientUnits="userSpaceOnUse">
			<stop  offset="0.1852" style="stop-color:#1ACC6C"/>
			<stop  offset="0.5291" style="stop-color:#B3F487"/>
			<stop  offset="0.7856" style="stop-color:#C2B6DC"/>
			<stop  offset="1" style="stop-color:#C2B6DC"/>
		</radialGradient>
		<path style="fill:url(#SVGID_00000147917938979194359670000011447963265709516212_);" d="M315,300.2c-0.4,0-0.7,0-1.1,0.1
			c-2.4,0.5-4.6,2.4-4.5,4c0.1,1.7,2.2,3,3.9,3c1.5,0,1.8,0,2.2,0c2.6-0.2,4.4-1.5,4.4-3.1C320.1,302.3,317.4,300.1,315,300.2z"/>
		
			<radialGradient id="SVGID_00000003813022692108486690000011190058509101927079_" cx="180.1749" cy="136.7435" r="300.7126" gradientUnits="userSpaceOnUse">
			<stop  offset="0.1852" style="stop-color:#1ACC6C"/>
			<stop  offset="0.5291" style="stop-color:#B3F487"/>
			<stop  offset="0.7856" style="stop-color:#C2B6DC"/>
			<stop  offset="1" style="stop-color:#C2B6DC"/>
		</radialGradient>
		<path style="fill:url(#SVGID_00000003813022692108486690000011190058509101927079_);" d="M77.1,295c1.6,0.2,3.3,0.2,4.8-0.1
			c2-0.4,3.2-2.4,2.8-4c-0.5-1.8-2-1.8-3.5-1.9c-0.4,0-0.7,0-1.9,0c-0.2,0-1.3,0.1-2.4,0.3c-1.4,0.3-2.2,1.2-2.3,2.6
			C74.6,293.6,75.5,294.8,77.1,295z"/>
		
			<radialGradient id="SVGID_00000013891473230390103060000008855026470833917573_" cx="180.1749" cy="136.7435" r="300.7126" gradientUnits="userSpaceOnUse">
			<stop  offset="0.1852" style="stop-color:#1ACC6C"/>
			<stop  offset="0.5291" style="stop-color:#B3F487"/>
			<stop  offset="0.7856" style="stop-color:#C2B6DC"/>
			<stop  offset="1" style="stop-color:#C2B6DC"/>
		</radialGradient>
		<path style="fill:url(#SVGID_00000013891473230390103060000008855026470833917573_);" d="M81.3,328.9c-1.7-0.3-3.6-0.4-5.2,0.2
			c-1.6,0.6-2.1,2.3-1.7,4.6c2.4,1.4,4.7,1.4,6.9,0.4c0.9-0.4,1.8-1.8,1.9-2.9C83.3,330.4,82.1,329,81.3,328.9z"/>
	</g>
</g>
<g id="Black_Lines_Left">
	<g>
		<path class="st4" d="M241.5,370.5c13.7-5.6,26.7-11.1,39.9-16.1c16.3-6.2,33.5-9.4,50.6-12.7c17-3.3,34.1-5,51.4-4.8
			c16.2,0.2,32.1,3,48,5.9c2.1,0.4,4.1,1.4,5.9,2.6c0.7,0.5,1.2,2.4,0.8,3.1c-0.4,0.7-2.3,1.4-3.1,1.1c-9.2-4.1-19.1-4.1-28.7-5.6
			c-13.3-2-26.7-2-40.2-0.8c-25.2,2.2-49.9,7.4-74.1,14.8c-9.7,3-18.9,7.5-28.3,11.3c-4.4,1.8-8.7,3.6-13.2,5
			C247,375.4,244,373.9,241.5,370.5z"/>
		<path class="st4" d="M283.2,217.6c2.9-2.6,5.4-0.6,7.7,0.2c7.8,3,15.4,6.4,23.1,9.5c30.1,12.1,58.2,27.8,85.2,45.5
			c3.6,2.4,7.2,4.8,10.8,7.3c1.9,1.3,3.5,2.8,0.8,5.6c-1.8-0.9-3.8-1.7-5.5-2.9c-34.6-23.9-71.5-43.5-110.8-58.4
			c-3.4-1.3-6.5-3.1-9.7-4.8C284.1,219.4,283.8,218.4,283.2,217.6z"/>
		<path class="st4" d="M276.3,384.1c-3.2,0-5.2-1.5-5.3-4c-0.2-2.8,2.4-5.7,5.2-5.9c2.6-0.1,5.6,2.7,5.6,5.4
			C281.7,382.4,279.7,384.1,276.3,384.1z"/>
		<path class="st4" d="M58.7,297c-3.5-0.1-5.9-1.8-5.9-4.2c0.1-2.1,2.5-3.8,5.2-3.6c3.4,0.2,6.1,2.1,5.9,4.3
			C63.8,295.6,61.7,297.1,58.7,297z"/>
		<path class="st4" d="M392.3,236.8c1.8,2.4,1.7,4.6-0.6,6.2c-1.5,1.1-6.2,0.8-7.2-0.6c-0.7-1.1-1.3-2.7-1-3.9
			c0.1-0.7,1.9-1.5,3-1.7C388.2,236.6,390.1,236.8,392.3,236.8z"/>
	</g>
</g>
<g id="Star">
	
		<radialGradient id="SVGID_00000046313765632078058370000017361308418587075251_" cx="667.8406" cy="24.7438" r="128.1841" gradientUnits="userSpaceOnUse">
		<stop  offset="5.560399e-02" style="stop-color:#1ACC6C"/>
		<stop  offset="0.5291" style="stop-color:#B3F487"/>
		<stop  offset="0.9089" style="stop-color:#C2B6DC"/>
	</radialGradient>
	<path style="fill:url(#SVGID_00000046313765632078058370000017361308418587075251_);" d="M724.2,72.5c3.7-1.2,6.6-2.1,9.5-3.1
		c7.9-2.8,15.7-5.8,23.5-8.6c2.2-0.8,4.5-1.6,6.5,0c0.7,2-0.6,2.9-1.6,4c-6.3,6.7-12.7,13.5-19.1,20.2c-0.6,0.7-1.2,1.3-1.9,2
		c-1.3,1.3-1.5,2.8-0.7,4.5c1,2.3,1.9,4.7,3,7c2.4,4.9,4.8,9.8,7.2,14.7c0.8,1.6,1.5,3.3,2.2,4.8c-2.7,3-3.6,3.3-6.1,2.1
		c-1.1-0.5-2.1-1.4-3.2-2.1c-7.2-5.3-14.5-10.3-22.5-14.8c-3,3.5-4.9,7.7-7,11.6c-2.5,4.5-4.6,9.1-7,13.6c-1.8,3.3-1.9,3.3-6,3.9
		c-1.7-3.6-0.8-7.4-0.5-11.1c0.4-6,1.2-11.9,1.7-17.9c0.5-5.9,0.1-6.5-5.5-9.1c-4.8-2.2-9.7-4.2-14.5-6.4c-3.6-1.6-7.3-3-10.1-6.1
		c1.7-3.2,4.5-2.8,6.9-2.9c6.2-0.2,12.3-0.2,18.5-0.2c0.9,0,1.8,0,2.7,0c4-0.2,4.5-0.6,5.3-4.7c1.5-8.2,3-16.4,4.5-24.6
		c0.2-1.1,0.3-2.3,1-3c0.9-1,2.3-2,3.5-2.1c0.8-0.1,2.1,1.4,2.5,2.4c1.7,5.6,3.1,11.2,4.6,16.8C722.6,66.1,723.3,68.9,724.2,72.5z"
		/>
</g>
<g id="Right_Leg">
	<path class="st4" d="M802.4,377.3c0.8-4.8,1.6-9.6,2.6-14.4c0.4-2.1,1.3-4.2,2.3-6.1c0.5-0.9,1.9-1.2,2.8-1.8
		c0.2,1.1,0.8,2.2,0.6,3.2c-0.8,5-1.8,9.9-2.6,14.9c-0.1,0.8,0.2,1.7,0.4,2.9c27.1-5.5,54.3-8.1,81.7-9.1c1,0,2,0.7,3.3,1.2
		c-0.2,1.4-0.2,2.6-0.7,3.7c-9,21.1-19.4,41.4-33,59.9c-9.1,12.4-20.4,22.7-33.5,30.7c-2.8,1.7-6.3,2.7-9.6,3.1
		c-3.5,0.4-4.7-1.3-4.6-4.9c0.1-5.8,2.8-10.8,5.3-15.9c3.8-7.8,8-15.4,12.1-23.2c0.6-1.1,1.1-2.2,2.2-4.2c-2,0.7-3.4,1-4.5,1.6
		c-31.9,16.6-65.8,26.7-101.4,31.4c-15.2,2-30.3,3.4-45.6,2c-9.2-0.9-18.2-3.1-26.9-6.4c-15.8-6-23.2-19.8-18.6-37.2
		c2.4-9.1,5.8-18,9.7-26.5c4.8-10.4,10.6-20.2,16.1-30.3c0.6-1.1,1.4-2,2.5-3.6c1.7,1.3,3.2,2.4,4.8,3.6c-3.3,6.2-6.4,11.8-9.4,17.6
		c-5.8,11.1-11.6,22.2-14.7,34.5c-1.2,5-2,10.4-1.6,15.5c0.9,10.4,7.4,17.1,16.8,20.9c10.9,4.4,22.2,6.7,33.9,6.8
		c22.3,0.3,44.2-2.9,65.7-8.1c13.2-3.2,26-7.9,39-12c1.7-0.5,3.3-1.4,5-2.1c-0.5-4.7-1.3-9.1-1.2-13.5c0.1-4.1,0.7-8.4,2.2-12.2
		c1.2-3.1,1.4-5.8,0.7-8.9c-0.5-2.3-0.8-4.6-1.3-7.6c-6.2,1.9-12.3,3.4-18.2,5.5c-21.3,7.3-42.7,14.4-63.8,22.1
		c-8.5,3.1-16.4,7.8-24.5,11.7c-2.9,1.4-5.7,3.2-9.7,2.4c0-1.7-0.2-3.5,0-5.1c2.6-15.2,5.4-30.4,8.1-45.6c0.7-3.9,1.2-7.9,1.7-11.8
		c0.2-1.3,0.3-2.5,0.6-3.7c0.6-1.9,4.6-4.2,6.1-3.5c2.2,0.9,1.8,3,1.6,4.7c-1.6,10.6-3.2,21.2-5,31.7c-1.4,8.4-3.1,16.7-4.7,25.3
		c1-0.1,1.6,0,2-0.3c12.1-7.2,25.3-11.8,38.5-16.3C757.7,392.4,779.9,384.9,802.4,377.3z M820.3,460.1c2.1-1.1,3.5-1.6,4.6-2.5
		c7-6,14.6-11.5,20.7-18.3c14.1-15.4,23.9-33.6,32.7-52.4c2.1-4.5,4.1-9.1,6.5-14.6c-26.2,1.9-51.4,3.3-76.8,9.2
		c0.7,3.3,1.2,6,1.8,8.9c1.6-0.3,2.6-0.6,3.7-0.7c6.1-0.4,11.3,5.2,10.1,11.2c-0.6,3.2-2.5,5.6-5.6,6.8c-3,1.1-5.2-0.4-7.1-2.6
		c-1-1.2-2.1-2.4-3.7-4.2c-1.9,7.7-1.5,14.5,1.5,21.6c2.5-1.1,4.7-1.9,6.8-3c7.1-3.6,14.2-7.3,21.3-11c2.1-1.1,4.3-2.9,6.4-0.6
		c1.9,2.1-0.3,3.9-1.3,5.8c-6,11.2-12.1,22.3-17.9,33.6C822,450.9,820.5,454.8,820.3,460.1z M817.3,402.1c-0.1-5-0.3-5.2-4.9-5.3
		C814.2,398.8,815.8,400.5,817.3,402.1z"/>
</g>
<g id="Left_Leg">
	<path class="st4" d="M459.3,375.4c7.4,4.8,14,9.2,21.2,13.9c0.3-0.2,1.2-0.9,2.2-1.6c3.9-3,7.6-6.2,11.7-8.8
		c2.3-1.5,3.2-3.1,3.4-5.6c1.6-13.2,6-25.4,14.4-35.9c11.7-14.4,27.2-21.9,45.3-24.5c20.5-2.9,40.1,1.4,59.1,8.6
		c4.4,1.7,8.7,3.7,13,5.6c1.4,0.6,2.7,1.6,4,2.4c-2.3,3.8-3.7,4.6-7,3.6c-1.9-0.5-3.7-1.5-5.5-2.3c-15.7-7.4-32.2-12.4-49.6-13.4
		c-18.4-1.1-35,3.4-48.3,16.8c-8.8,8.9-13.8,19.9-16.1,32.1c-0.4,1.9-0.6,3.9-0.9,6c4.3,1,8.1-2.8,12.5-0.7
		c-0.5,3.6-3.4,3.4-5.6,4.1c-2.2,0.7-4.5,1.2-6.7,1.8c0,6.6-0.6,13,0.1,19.2c2,16.5,7.3,32.1,14.4,47.2c0.8,1.7,1.2,3.6,2,6.1
		c-4.6,1.4-8.5,2.8-12.5,3.7c-7.4,1.7-14.8,3.6-22.4,4.6c-24.3,3.3-48.5,6.3-72.9,9.1c-6.1,0.7-12.3,0.4-18.5-0.1
		c-3.1-0.2-7-0.6-8-4.5c-0.9-3.5,2-5.7,4.3-7.6c7.5-6.7,16.3-11.6,25.3-15.8c12-5.6,24-11.1,36.5-16.9c-2.5-13.9-5-27.9-4.1-42.3
		c-4.4-2.9-9-2-13.4-1.6c1.1-4.7,1.1-4.7,13.5-5.4c0.3-1.4,0.7-3,0.9-4.6c3.4-22.7,11.6-43.4,25.9-61.4
		c13.6-17.3,31.3-28.1,53.2-30.9c12.3-1.6,24.6-0.8,36.9,1.2c20.6,3.3,40,10.3,59.4,17.4c2.7,1,5.5,1.9,8.1,3.2
		c1,0.5,1.6,2.1,2.3,3.2c-1.1,0.8-2.3,2.2-3.4,2.2c-2.5-0.1-5-0.6-7.3-1.5c-15.5-5.7-30.9-11.6-46.9-15.7
		c-12.5-3.3-25.3-5.3-38.2-5.5c-19-0.4-35.5,5.8-49.3,19.3c-17,16.6-26,37.3-31,60C460.4,365.4,459.9,370.8,459.3,375.4z
		 M483.9,393.1c0.9,5.4,2.2,9.4,2.2,13.5c0.1,5.3-4.1,9.5-9,9.9c-3.9,0.4-6.2-1.2-6.2-5c0.1-3.3,1-6.7,2-10c0.6-2,1.9-3.8,2.8-5.8
		c-4.6-5.4-9.4-9.8-16.1-12.2c0,4.9-0.4,9.1,0.1,13.2c0.9,7.2,2.3,14.3,3.5,21.5c1.1,6.3,0.2,7.6-5.9,9.3c-2.4,0.7-4.8,1.6-7.1,2.6
		c-9.6,4.4-19.2,8.6-28.6,13.4c-7.1,3.7-13.7,8.1-20.5,12.4c-1.8,1.1-3.6,2.4-3.5,5.6c2.5,0.4,5,1.2,7.4,1c14.6-1.2,29.3-2.1,43.8-4
		c12.6-1.6,25-4,37.7-5.1c8.7-0.8,17.3-3.2,25.8-4.8c-3.9-11.3-8-21.8-11.1-32.5c-3.2-10.8-4.2-22.1-4.3-34.5
		C491.2,385.6,486.7,389,483.9,393.1z M478.6,401.9c-1.3,3.7-3.2,6.5-0.3,9.6C480.7,407.6,480.7,407.6,478.6,401.9z"/>
</g>
<g id="Right_Arm">
	<path class="st4" d="M778.4,293.4c-3.1,5.4-5.6,9.8-8.2,14.1c-5.1,8.2-11.1,15.7-18.7,21.7c-3.9,3.1-5.5,3.5-10.4,2.3
		c0.7-1.1,1.1-2.4,2-2.9c10.4-6.4,17.1-16.1,22.8-26.5c4.2-7.6,7.4-15.7,11.4-23.5c1.2-2.3,2.9-4.6,4.9-6.2c2.9-2.1,5.2-0.6,5.2,3
		c0,3.1-0.5,6.2-0.5,9.2c0,3.6,0.1,7.3,0.7,10.8c0.8,4.7,4.3,6.2,7.9,3.1c4.4-3.7,8.4-8,12.1-12.4c7.7-9.3,12.7-20.2,18.2-30.9
		c1.7-3.4,3.6-6.7,5.5-10c1.7-2.9,4.2-3.8,7.6-2.8c-0.1,1,0.1,2-0.3,2.7c-6.9,12.5-13.7,25.1-20.9,37.5c-3.8,6.4-8.9,11.9-14.6,16.7
		c-3.7,3.1-7.8,5.3-12.6,5.9c-6.2,0.8-9.1-1.2-10.8-7.2C779.3,296.9,779,295.7,778.4,293.4z"/>
</g>
<g id="Right_Hand">
	<path class="st4" d="M790.1,147.9c8.2,2.9,14.5,7.9,19,15c0.6,0.9,1.1,1.9,1.5,2.9c1.3,3.3,2.4,7-0.2,9.8c-2.9,3.2-7,4.5-11.5,3.1
		c-5.5-1.7-9.2-5.9-11.9-10.6c-2.6-4.5-4.1-9.6-6.4-14.8c-2.2-0.8-4.3,0.3-5,2.9c-0.7,2.3-0.9,5-0.4,7.3c1.5,6.8,6,12,10.9,16.6
		c6.5,6.1,13.4,11.7,21.7,15.2c1,0.4,2.3,1.7,2.2,2.5c-0.1,1-1.2,2.2-2.2,2.7c-2.6,1.1-5.3,1.1-7.9-0.2
		c-12.1-6.5-23.1-14.5-30.2-26.6c-6.6-11.3-2.7-21.8,9.6-25.9c1.8-0.6,2.9-1.3,3.4-3c2.7-8.8,13.2-13.7,24.4-10.7
		c3.1,0.8,6.1,2.2,9.4,3.3c0.6-1.1,1.2-2.2,1.9-3.3c5.2-8.8,14.5-10.7,22.8-4.7c3.9,2.9,6.6,6.8,8.6,11.1c4.9,10.5,7.1,21.7,8.7,33
		c1.4,9.4,1.3,18.8-1.1,28.1c-0.8,3.1-1.9,6.3-3.4,9.1c-1.6,3-4.1,5.1-8,3.9c-0.1-0.6-0.3-1.2-0.1-1.6c5.8-10.9,6.1-22.6,4.8-34.5
		c-1.2-11.4-3.8-22.5-8.2-33.2c-2-4.9-5.3-8.7-9.6-11.5c-1.7-1.1-3.8-1.4-6.1-2.2c-1.1,2.7-1.9,4.7-2.6,6.7c-1.2,3-0.6,5.4,1.5,8
		c6.8,8.5,11.6,17.9,13.5,28.8c0.9,5.1-0.2,8-3.6,9.9c-4.1,2.4-8.2,1.9-12-1.3c-4.4-3.7-6.6-8.8-7.5-14.1c-1-5.6-1.4-11.5-1.1-17.2
		c0.2-4.2-0.9-7.1-4.7-8.7c-3.5-1.5-6.9-3.4-10.5-4.2C792.9,137.8,790.4,140.2,790.1,147.9z M824.2,160.6
		c-1.2,6.5,1.5,13.4,6.8,16.9C829.5,171.3,827.6,165.9,824.2,160.6z M793.2,158.7c1.4,6.8,5.4,11.6,10.2,12.2
		C800.8,166.3,798.2,162,793.2,158.7z"/>
</g>
<g id="Left_Hand">
	<path class="st4" d="M670.8,155.4c2.4-0.2,4.1-0.4,5.7-0.4c6,0.1,9.4,3.5,9.7,9.4c0.3,4.8-0.7,9.3-2.6,13.8
		c-5.6,13.1-14.5,23.8-23.9,34.2c-2.5,2.8-5.4,5.4-8.2,7.9c-2.4,2-5.1,3.5-8.3,2.5c-1.1-2.6,1-3.4,2.2-4.5
		c9.9-8.7,18.2-18.8,25.1-30c2.9-4.7,5.1-10,6.8-15.3c0.9-2.7,0.3-6.1-0.2-9c-0.3-2.1-2.1-3.6-4.4-3.4c-2.1,0.2-3.4,1.5-4,3.8
		c-2.1,8.1-5.3,15.8-9.8,22.9c-2,3.2-4.2,6.5-7,8.9c-2.5,2.2-5.7,3.9-8.9,4.8c-4.9,1.5-7.4-1.1-6-6.2c1-3.6,2.4-7.3,4.2-10.6
		c4.5-8.1,10-15.6,17.5-21.3c2.3-1.8,3.6-4,3.7-6.9c0.1-4.5,0.3-9,0.1-13.6c-0.1-1.9-0.8-3.9-1.7-5.7c-0.4-0.8-1.5-1.7-2.4-1.8
		c-3.1-0.4-7.3,4.1-6.8,7.3c1.3,9.1-0.4,17.7-4.6,25.8c-3.2,6.1-7.4,11.3-14.4,13.2c-0.9,0.2-1.7,0.5-2.6,0.6
		c-6.1,0.6-9.6-2.8-8.4-8.8c0.8-3.9,2-7.9,4-11.2c4.2-6.7,9-13.2,14-19.3c2.2-2.6,3.1-4.6,1.2-7.6c-1.7-2.7-2.9-5.9-5-8.3
		c-3.3-3.7-6.1-3.9-9.1,0c-3.7,4.9-7.3,10.1-9.5,15.7c-5.8,14.6-8.4,30-8.6,45.7c0,3.7-0.8,7.6,2,11c0.4,0.5-0.5,3-1.4,3.4
		c-3.9,2.1-8.2,1.2-8.4-3.7c-0.3-5.6-0.7-11.3-0.2-16.8c1.2-13.4,3.2-26.7,8.6-39.1c2.4-5.6,5.7-10.9,9.1-16c2.9-4.3,7.4-7,12.5-8.1
		c6.4-1.4,12,1.3,15.6,7.3c1.3,2.1,2.3,4.4,3.4,6.6c3.1-1.2,5.9-2.5,8.9-3.2c5.6-1.4,9.8,0.9,11.1,6.5c1,4.2,1,8.5,1.3,12.8
		C671.3,151,671,153,670.8,155.4z M642.9,148.7c-6,5.8-11.6,15.6-12.9,22.1c-0.4,2.2-0.7,4.2,1.5,5.6
		C639.1,171.8,644.4,159.3,642.9,148.7z M646.2,192.6c5.6-5.3,9.1-12,11.2-19.5C651.9,178.6,648,184.9,646.2,192.6z"/>
</g>
<g id="Tshirt_00000137133552030630109950000010678947113317410235_">
	<g>
		
			<radialGradient id="SVGID_00000094603711007147647020000012501759093083448706_" cx="568.1741" cy="43.4104" r="389.4649" gradientUnits="userSpaceOnUse">
			<stop  offset="0.2183" style="stop-color:#1ACC6C"/>
			<stop  offset="0.4151" style="stop-color:#B3F487"/>
			<stop  offset="0.8406" style="stop-color:#C2B6DC"/>
		</radialGradient>
		<path style="fill:url(#SVGID_00000094603711007147647020000012501759093083448706_);" d="M664.4,297.5c-1.7-1.2-3.2-2.4-4.8-3.6
			c-3.2-2.2-4.5-5.3-3.4-9c2.2-7.3,4.6-14.5,7.2-21.7c1.6-4.4,4.7-5.5,9.5-5.3c9.9,0.4,19.3,3.5,28.9,5.1c2.8,0.5,5.8,0.7,8.7,0.9
			c8.2,0.4,16.3,0.7,24.5,1c3.4,0.1,6.3,1.4,9.1,3.3c3.5,2.5,5.6,5.7,5.2,10.1c-0.4,4-0.8,8-1.3,11.9c-0.4,2.6-2.2,4.2-4.6,4.9
			c-3.1,0.9-6.3,1.6-9.5,2.4c-2,0.6-4.8,0.1-5.9,2.3c-1.5,3.2-4.6,5.3-5,9.4c-1,12.5-3.4,24.8-6.8,36.9c-1,3.6-3,6.2-6.5,7.6
			c-2.4,0.9-4.8,2.2-7.2,2.3c-8.7,0.4-17.4,1.2-26.1-0.7c-3.9-0.9-7.8-1.8-11.5-3.1c-9.8-3.4-14.4-11.9-11.8-22
			c2.6-9.9,5.9-19.5,10-28.8C663.5,300.3,663.8,299.1,664.4,297.5z"/>
		<path class="st4" d="M703.7,293.3c0-1.2-0.1-2.6,0.2-3.7c0.2-0.7,0.7-2.1,2.3-1.1c0.7,0.5,1.5-0.9,2.8-0.3
			c1.8,0.8,2.5,2.2,3.4,3.7c-0.4,2.7,1.4,4.6,2.3,6.9c-0.3,0.1-0.8,0.2-0.9,0.5c-0.4,0.8-0.4,1.7,0.1,2.5c0.5,0.7,1.3,1.3,1.5,0.9
			c0.3-0.5,0.4-1-0.1-1.5c-0.7-0.7-0.8-1.6-0.8-2.5c0.3-0.1,0.8-0.2,0.9-0.5c0.3-1.2,0.6-2.5-0.2-3.6c-1.1-1.5-0.6-2.2,1-2.7
			c0.2-0.1,0.5-0.7,0.4-0.9c-0.7-1.1-0.2-2.2,0-3.3c0.5-2.2,1.4-4.3,1.3-6.7c-0.1-1.9,1.2-3.6,1.3-5.7c0-0.9,0.7-2.1,1.5-2.8
			c1.4-1.2,1.7-2.7,1.5-4.4c0-0.3,0.3-0.6,0.4-0.9c1.1,0.5,1.7,2,3.1,2c1,0,1.7,0.2,2,1.3c0.1,0.5,0.6,0.9,0.9,1.3
			c1.1,1.2,2.4,2.2,2.7,3.9c0.4,1.9,1.8,3.5,1.6,5.5c-0.2,1.6,1.3,2.5,1.2,4.1c-0.1,1.4-0.4,2.9,0.9,4.1c-1.3,1,0,1.9,0.2,2.8
			c0.2,1.2-0.8,2-0.9,3c-0.2,2.2-0.1,4.3-0.1,6.5c0,1.1,0.1,2.2-0.1,3.3c-0.2,1-0.6,2-1,3c-0.6,1.8-1.4,3.7-1.1,5.7
			c0.1,1.1-0.5,2-0.8,3c-0.8,2.1-2,4.1-2.6,6.3c-0.6,2.4-2.4,4.4-4.5,5.9c-0.5,0.4-0.9-0.3-1.2-0.6c-0.2-0.2-0.4-0.7-0.3-0.8
			c0.5-0.5,1-1.1,1.6-1.4c1.3-0.6,2.7-1,1.5-2.9c1-1.2,2.3-2.3,2.1-4.2c1.1-1,0.9-2.3,1.1-3.5c0.1-1,1.1-2,0.9-2.9
			c-0.3-1.8,1.1-3,1.2-4.6c0.1-1.6-0.3-3.2,1-4.6c0.4-0.4,0.1-1.4,0.1-2.1c0-1.4-0.2-2.9,0.9-4.1c0.2-0.2,0-1.1-0.2-1.4
			c-0.8-1-0.5-2.1-0.6-3.1c-0.2-1,1.3-1.5,0.7-2.3c-0.6-0.8-0.6-1.7-0.6-2.6c0-0.9,0-1.8-0.1-2.7c0-0.3-0.1-0.7-0.2-1
			c-0.5-1.1-1.1-2.2-1.6-3.3c1.4-1.1-0.1-1.9-0.3-2.7c-0.2-0.9-1-1.8-0.2-2.8c-0.9-0.5-2.1-0.6-2.2-2c0-0.2-0.6-0.4-0.9-0.4
			c-0.7-0.1-1,0.3-1,0.9c0,1.8-0.5,3.6,1,5.1c-0.1,1.1-0.1,2.1-0.2,3.2c0,0.2-0.6,0.3-0.9,0.4l0.1,0.1c0-0.5-0.1-1.1,0-1.6
			c0.2-1.4-1.4-2.1-1.1-3.5c0.2-1.2,0-2.5,0-3.8c0-0.2-0.4-0.4-0.6-0.5c0,0-0.3,0.3-0.3,0.4c-0.2,2.2-1.5,4-1.8,6
			c-0.4,2.2-2,4.2-1.5,6.7c0.3,1.6-1.5,2.8-1.1,4.6c0.3,1.3,0.4,2.9-0.8,4.1c1.1,0.9-0.2,2.1,0.3,3.2c0.4,0.7-0.4,1.9-0.6,2.9
			c-0.1,1.3,0,2.6-0.1,3.8c-0.3,2.1,0.7,4.3-0.7,6.3c-0.1,0.1-0.1,0.4-0.1,0.4c1.2,1.2,0.5,2.8,0.9,4.1c0.1,0.3,0.6,0.6,0.8,0.6
			c2.5-0.3,2.4,2,3.3,3.4c0.1,0.2-0.2,0.8-0.4,0.8c-2.9,0.4-2.7,3.7-4.6,5c0,0,0.2,0.6,0.4,0.8c0.6,1,0.3,2.1,0.4,3.2l0.1-0.1
			c-0.7,0-1.5,0.1-2.2,0c-1.1-0.2-1.1-0.4-1.4-2.5c-0.2-1-0.9-1.8-0.8-2.9c0.5,0.3,0.9,0.6,1.4,0.8c0.9,0.3,1.1-0.7,1.6-1
			c0.2-0.1,0.3-0.2,0.4-0.4c1.3-1.5,1.7-3.5,0.3-4.8c-2-2-1-4.8-2.5-6.9c0-0.1,0.1-0.3,0.2-0.5c1.3-1.4-0.7-2.1-0.6-3.2
			c0,0-0.3-0.1-0.3-0.1c-0.1,0.1-0.3,0.2-0.3,0.4c-0.4,1.3,0.4,2.9-0.9,4.1c-0.2,0.2,0.7,1.2,0.7,1.8c-0.1,0.8-0.7,1.6-0.8,2.4
			c-0.1,0.9-0.4,1.8,0.3,2.6c1.2,1.4,0.6,3.1,0.7,4.7c-1.2-0.2-1.1-1.2-1.2-2.1c0-0.3-0.2-0.6-0.4-1c-0.3,0.2-0.6,0.3-0.9,0.5
			c-0.6,0.5-0.9,1.1-0.8,1.9c0.3,2.2-1.7,4-1.2,6.3c0.1,0.3-0.3,0.7-0.5,0.9c-1.2,1-1.7,2.2-1.7,3.8c0,0.5-1.4,0.9-0.3,1.6
			c0.6,0.4,2.1-0.2,2.6-1c0.2-0.3,0.3-0.7,0.6-0.9c0.3-0.2,0.7-0.1,1,0c0.5,0.1,0.3,0.4,0.1,0.8c-1,2.4-2.8,3.5-5.4,3.4
			c-0.7,0-1.5,0-1.7,0.9c-0.4,1.3-1.8,1.9-2.1,3.1c-0.4,1.1-1.1,1.8-1.8,2.6c-1.1,1.2-2,2.4-4.1,2.3c-0.9-0.1-1.9,0.8-2.8,1.4
			c-0.5,0.3-0.8,0.4-1.4,0c-1.5-0.9-3.1-1.7-4.9-1.9c-0.8-1.6-1.8-3.1-2.5-4.7c-0.4-0.9-0.8-1.6-1.4-2.2c-0.5-0.5-1.1-1.1-0.9-1.9
			c0.5-1.8-1-3-1.2-4.6c-0.2-1.5-0.8-3.1-1.4-4.5c-0.4-0.8-0.9-1.6-0.7-2.5c0.5-2.4-1.5-4.4-1.2-6.8c0-0.2-0.8-0.6-1.2-0.9
			c-0.3-0.2-0.6-0.4-0.7-0.7c-0.1-0.3,0.1-0.8-0.1-1.1c-1.2-1.8,2.3-3,0.4-5c-1.2-1.2,0.3-3.3-1.2-4.5c0.2-0.2,0.4-0.5,0.6-0.6
			c0.4-0.2,1.2-0.1,0.8-0.9c-0.5-0.8-0.9-1.6-0.1-2.4c1-1,0.1-2.5,1.1-3.5c0.9-0.8,0.5-2.1,0.4-3.1c-0.2-1.7,1.7-2.8,1.2-4.6
			c0.7-1,1.2-2.4,2.7-1c0,0,0.3-0.2,0.4-0.3c0.9-0.8,1.2,0.2,1.7,0.5c0.4,0.3,0.3,0.5,0.2,0.9c-0.7,1.2-1,2.8-1.9,3.7
			c-1.8,1.9-2.2,4-2.1,6.4c0.1,1.2-0.3,2.4-0.7,3.6c-0.6,1.6-0.3,3.5-0.3,5.3c0,0.1,0.2,0.4,0.3,0.4c0.3-0.1,0.6-0.1,0.8-0.3
			c0.4-0.4,1-0.9,0.9-1.3c-0.3-2.6,1.7-4.7,1.2-7.3c-0.1-0.5,0.2-1,0.4-1.5c0.3-0.9,1.9-1.1,1.1-2.6c-0.6-1,0.8-1.4,1.2-2
			c0.3-0.4,0.4-0.6,0-0.9c-0.1-0.1-0.3-0.3-0.3-0.4c0.4-0.9,0.8-1.8,1.2-2.8c2.1-0.5,3.2-2.4,4.6-3.7c0.9-0.9,1.8,0.1,2.2-0.2
			c1.4-1,2.3-0.6,3.3,0.4c1,1.2,2.6,1.5,3.4,3.2c0.8,1.8,1.4,1.7,4.2,1.1C703.4,293.2,703.6,293.2,703.7,293.3
			c-1.2,2.7-1.4,3.6-1.1,7.2c0.1,1.4-0.3,2.9,0.8,4.1c0.3,0.4,0.3,1-0.1,1.5c-0.5,0.5-0.7,1.2-0.7,2c0,1.5-0.1,2.9,0,4.4
			c0.1,1.2-0.5,1.6-1.6,1.7c-0.5,0.1-0.5,0.3-0.1,0.8c1.1,1.3,0.9,2.9,0.2,4c-0.8,1.4-0.2,3-0.9,4.1c-1,1.5-0.8,3.1-0.9,4.7
			c0,0.8-0.3,1.4-1.2,1.5c-0.6,0.1-0.8,0.5-1,1.1c-0.7,2.2-2.8,5.8-4.1,6.7c-1,0.7-2.1,1.4-3.2,1.8c-0.8,0.3-1.8,0.3-2.5-0.4
			c-0.4-0.4-0.8-0.7-1.2-1.1c-0.4-0.3-0.7-0.4-0.8,0c-0.1,0.3-0.2,0.7-0.2,1c-0.3,1.2,0.8,1.9,1.2,2.9c0.6,1.8,2.1,3,3.6,3.9
			c1.6,0.9,3.4,0.7,5.2-0.2c2-1,3.5-2.5,5-4.1c0.2-0.2,0.4-0.7,0.3-1c-0.2-1.3,0.6-2,1.3-2.8c0.8-0.8,1.6-1.5,2.3-2.4
			c0.3-0.4,0.7-0.9,0.7-1.4c-0.2-2,0.7-3.4,2-4.8c0.2-0.2-1.2-1-0.1-1.6c0.7-0.3,1.3-0.4,1.4-1.4c0.2-1.6,0-3.1,0.8-4.7
			c0.8-1.5,0.3-3.5,1.4-5c-0.3-1.1,1.1-2.2,0.7-2.8c-0.9-1.4-0.4-2.8-0.8-4.2c-1.6-0.7,0.9-2.3-0.7-3.1c1.2-1.3,0.6-2.5-0.2-3.8
			c-0.1-0.2,0-0.7,0.2-1c0.7-0.7,0.8-1.6,0.7-2.5c0-1.1-0.3-2.3,0-3.2c0.4-1.3-1.1-2-0.6-3.4c0.4-1.2-1.2-2.4-2.2-1.9
			c-0.8,0.4-1.6,0.8-2.3,1.3C704.6,291.9,705,293.3,703.7,293.3z M682,322c-0.6,1.6,1.1,3.1,1,4.9c-0.1,1.2,0.3,2.1,1.2,2.9
			c0.7,0.6,1,1.4,1.1,2.4c0.2,1.8,1.6,2.7,3.1,3.5c0.5,0.3,1.6,0.1,2-0.3c1.9-1.7,3.8-3.4,5.3-5.4c1-1.3,1.8-3,1.5-5
			c-0.4-2.6-0.2-2.9,0.4-4.2c0.2-0.4,0.7-0.8,0.1-1.4c-1-1.2-0.2-2,0.6-2.8c1.2-1.2,1.6-2.4,0.5-3.8c-1.1-1.4-0.6-2.7,0.6-3.8
			c0.3-0.2,0.5-0.5,0.7-0.8c0.2-0.3,0.1-0.6-0.4-0.7c-0.6-0.2-1.7,0-0.9-1.1c0.6-0.8-0.4-1.3-0.2-1.8c0.4-1,0.9-1.9,1.5-2.8
			c0.4-0.5,0.5-1.1,0.1-1.5c-0.8-0.9-0.6-2-0.9-3c-0.3-1-0.9-1.9-1.1-2.9c-0.4-1.6-1.6-2.9-3.3-3.2c-2.1-0.3-4.5-0.6-5.3,2.3
			c-0.3,1.1-1.7,0.7-2,1.5c-0.3,0.8-0.4,1.7-0.7,2.5c-0.5,1.3-1.6,2.6-1.5,3.9c0.1,1.9-1.5,3.3-1.3,5.2c-1.7,1.5-0.4,3.9-1.6,5.6
			c-0.3,0.4,0.4,1.5,0.6,2.3c0.4,1.2-1.5,2.1-0.9,2.9c1.1,1.5-0.3,2.6-0.1,3.9C682,321.4,682,321.6,682,322z"/>
		<path class="st4" d="M725.5,282.3c0.3,1.2,1.5,2,1.2,3.4c-0.4,1.9,0.7,4-0.9,5.7c1.7,2.2-0.9,4.2-0.3,6.5c0.3,1.2,0.1,2.4-0.8,3.6
			c-0.5,0.6-0.4,1.7,0.2,2.5c0.4,0.5,0.5,0.9,0,1.3c-1.3,1-1.5,2.3-1.6,3.8c-0.1,1.7-1.3,3.2-1.2,5.1c0,0.5-0.6,0.8-1.2,0.7
			c-0.6-0.1-0.8-0.6-0.8-1.2c0-0.7,0-1.4,0.5-2c0.8-0.9,0.4-1.6-0.1-2.4c-0.5-0.8,0.4-0.7,0.8-0.9c0.9-0.3,1.1-1,0.7-1.7
			c-0.7-1-0.7-1.5,0.6-1.6c0.1,0,0.3-0.2,0.4-0.3c-0.9-1,0-1.8,0.2-2.8c0.3-2.3-0.2-4.6,1.1-6.8c0.4-0.7,0-1.8,0.1-2.7
			c0.2-2.1-0.6-4.4,0.8-6.3c-0.5-0.9-1-1.9-0.8-3C724.6,282.7,724.9,282.4,725.5,282.3L725.5,282.3z"/>
		<path class="st4" d="M717.9,329.3c1.2,0,2.4-0.1,3.7,0.1c0.5,0.1,0.8,0.7,0.7,1.2c-0.1,0.6-0.6,0.7-1,0.3
			c-0.3-0.3-0.6-0.4-0.9-0.1c-0.6,0.7-1.2,0.5-1.7-0.2C718.4,330.1,718.2,329.6,717.9,329.3L717.9,329.3z"/>
		<path class="st4" d="M717.9,269.3c0-0.5-0.1-1.1,0-1.6c0.1-1.4,0.3-1.6,1.6-1.6c0.5,0,1,0.2,1.6,0.3
			C720.1,267.5,719.4,268.8,717.9,269.3L717.9,269.3z"/>
		<path class="st4" d="M717.9,269.2c0.3,1.6-0.9,2.6-1.3,3.9c0,0.1-0.2,0.1-0.4,0.2c-0.2-0.3-0.4-0.6-0.4-0.9
			C715.6,270.7,716.4,269.7,717.9,269.2L717.9,269.2z"/>
	</g>
</g>
<g id="Head">
	<path class="st4" d="M671.7,226.1c0-6.6,2.1-12.7,5.9-17.8c3.7-4.9,8.2-9.1,12.7-13.3c3-2.8,7-3.7,11.2-3c2.3,0.3,4.7,0.2,7,0.6
		c11.1,1.9,19.1,8.3,22.8,18.8c3.8,10.8,1,20.9-7.2,29c-6.9,6.8-15.3,11.2-24.9,12.3c-7.1,0.9-13.7-1-18.7-6.6
		C675.3,240.4,671.8,234,671.7,226.1z M680.9,229.1c3.1,10.4,9.5,15.9,18.7,16.8c7.4,0.7,21.4-5.2,24.3-15.2
		c2.6-8.8,1.1-16.8-5.3-23.7c-7.2-7.7-16.1-9.1-25.9-7.4c-0.9,0.2-1.8,1.1-2.6,1.9c-3.9,3.6-5.9,13.8-3.8,18.8
		c1.9,4.6,8.7,5.4,11.7,1.3c1.2-1.6,1.8-3.6,2.9-5.2c1.6-2.2,3.3-4.4,6.6-3.2C707,226,694.4,233.6,680.9,229.1z"/>
</g>
</svg>
