<?xml version="1.0" encoding="UTF-8"?><svg xmlns="http://www.w3.org/2000/svg" xmlns:xlink="http://www.w3.org/1999/xlink" viewBox="0 0 1280 512"><defs><style>.o{fill:url(#d);}.p{fill:url(#j);}.q{fill:#202222;}</style><radialGradient id="d" cx="780.2" cy="-212.6" fx="780.2" fy="-212.6" r="277.4" gradientTransform="translate(213 111.8) rotate(10.9)" gradientUnits="userSpaceOnUse"><stop offset=".2" stop-color="#1acc6c"/><stop offset=".5" stop-color="#b3f487"/><stop offset=".8" stop-color="#c2b6dc"/><stop offset="1" stop-color="#c2b6dc"/></radialGradient><radialGradient id="j" cx="277.1" cy="245.6" fx="277.1" fy="245.6" r="190.2" gradientTransform="translate(119.5 880.1) rotate(-105.2) scale(1.3 1.2)" xlink:href="#d"/></defs><g id="a"><g><path class="q" d="M1125.5,341.6c.9-1.5,.8-3.1,.7-4.7,0-1.1,0-2.2-1.4-2.6-.8-1.7-2.2-2.1-4-2.1-2.2,0-4.3,.3-6.2,1.5-.9,.6-1.9,1-2.9,1.5-.6,.2-1-.3-1.3-.7-.2-.3-.3-.6-.5-1-1-2.7-1.8-5.3-4.1-7.3-1.6-1.5-2.5-3.9-3.6-5.9-2.2-4-5.6-6.4-9.7-8-.6-.2-.9-.1-1.5,0-.9,.2-1.8,.2-2.6,.4-2.1,.4-3.1,.1-4.5-1.3-.3-.2-.5-.6-.8-.6-1.6-.1-3.2-.2-4.9-.2-1,0-1.5,.9-2.2,1.5-.8,.8-1.4,1.7-2.2,2.4-1.4,1,.3,2,0,2.9-.5,1.2-1.1,2.3-1.7,3.4-.3,.5-.4,1.1,0,1.5,.8,1,.5,1.9,0,3-.6,1.2-1.3,2.5-.5,4,.2,.4,.2,1.2-.1,1.5-1.5,1.5,.7,3.4-.6,5-.3,.4,.4,.9,1,1,.7,0,1.4,0,2.1,.1-.2,.8-.8,.9-1.5,1-1,0-1.6,.6-1.6,1.7,0,1.6-.2,3.2,0,4.8,.1,1.3-.6,2.3-1.1,3.4-.3-.2-.8-.3-.8-.5-.3-3.9-1.8-7.6-2.4-11.5-.3-2.1-2.5-3.6-1.5-6,0,0-.2-.3-.3-.4-.3-.6-.6-1.3-1-1.9-1.3-2.1-2.7-4.2-4.1-6.3-.6-.9-1.4-1.7-2.3-2.3-1.5-1.1-4-.6-4.8,.9-.7,1.2-1.7,2.4-1.6,3.9,0,.9-1,1.4-.5,2.5,.5,1-.6,1.9-.6,3,0,1-.9,1.4-2,1.2-.9-.2-1.8-1.1-2.5-.8-1.8,.7-3.7,1.1-4.4,3.5-.6,2.2-.9,4.6-2.7,6.3-.3,.3-.5,1-.4,1.5,.2,2.1-1.3,4.1-.2,6.2,.2,.4,0,1.1-.2,1.5-.5,.8-.8,1.5-.2,2.5,.5,.9,.7,2,1.1,2.9,1-1,.6-2.3,.6-3.5,0-.7,0-1.5,0-2.2,0-1.9,0-3.9,.6-5.8,0-.1-.2-.3-.2-.5,0-.1-.1-.3,0-.5,.3-.7,.6-1.3,.9-1.9,.7-1.4,1.4-2.9,2.2-4.3,.6-.9,1.4-1.7,2.2-2.4,.8-.8,2.1-.7,3,0,2.2,1.8,3.5,4.1,3.3,7-.1,1.8-.5,3.8,.2,5.4,1.2,3,.8,6.1,.9,9.1,.1,5.4,0,10.9,.1,16.3,0,1.6-.3,3.3,.8,4.7,0,2.4,1.3,4.8,.4,7.3-.3,.7,0,1.4,.6,2,.5,.5,1,1.1,1.6,1.5,1.2,1,2.9,.7,3.8-.6,.7-1,1.4-2.1,2.1-3.1,.4-.6,0-1,0-1.5,0-.5,.5-.9,.7-1.3,.2-.4,.7-1,.6-1.3-.4-1.8,.8-3.4,.6-5.2-.2-1.6,0-3.3-.1-4.9,0-1.8,.5-3.7-.5-5.3-1-1.7,0-3.7-1-5.2-.7-1.2-.6-2.4-.8-3.7-.2-1.1-.9-1.9-2-2.1,.6-1.4,1.3-2.7,.5-4.5-1.4-3.2-2.5-6.6-4.3-9.7-1-1.7-1.6-3.6-1.7-5.6,0-2.4,0-4.7,0-7.1,0-1.9,.8-3.4,1.8-3.6,1.6-.2,2,1.3,3,2,.1,.1,.3,.3,.3,.4,1.8,4.6,5.2,8.6,5.8,13.8,1.5,1.8,.5,4.3,1.5,6.2,.5,1-.3,1.6,0,2.5,.5,.9,.4,2.2,1,3,.6,.9-.4,1.6,.1,2.5,.9,1.5,0,3.4,.7,4.7,1.1,1.9,.8,3.9,.9,5.8,0,2.1,.6,4.3-.7,6.3-.2,.3,0,1.1,.2,1.5,.5,.9,.4,1.5,0,2.5-.4,1.1-.1,2.3-.5,3.4-.2,.7,0,1.4,0,2.2-.2,1.5,.3,2.9,1.1,4.1,.2,.3,.5,.7,.6,.6,.3,0,.6-.4,.8-.6,.2-.3,.5-.6,.6-.9,.2-.7,.2-1.5,.6-2.1,.7-1-.5-2,.3-3,.4-.4,.3-1.4,.3-2.1,0-2.4,.1-4.7,0-7.1,0-1.3,.6-2.3,1.1-3.4,.9,.2,1.2,.9,.8,1.6-.9,1.5-1.1,3.1-.4,4.7,.6,1.2,.6,2.4,.6,3.7,0,.7,0,1.5,.1,2.2,.3,1.4,2,2.2,3.3,1.5,1-.5,1.8-1.3,2.8-1.5,1.5-.3,2,1.3,3,2,.4,.3,.8,.8,1.3,1,1.3,.7,2.7,1,4,0,1-.8,1.9-1.7,2.9-2.5,.2-.2,.6-.2,.8-.3,0,.3,.2,.7,.3,1,0,1.1-.3,2.1-.5,3.2-.2,1.1,.4,2.4,.5,3.6,.1,1.2,.8,2.1,1.8,2.5,.9,.4,1.7-.5,2.3-1.1,.5-.5,1.1-1,1.4-1.7,2.6-4.9,5.1-9.8,7.7-14.7,.4-.8,.9-1.6,1-2.5,.9-4.9,3.4-9.4,3.9-14.5,.2-1.8,1.7-3.5,.7-5.6,.9-1.8,1-3.8,.9-5.8,0-1,.3-1.6,1.4-2,.6-.2,1.1-1,1.7-1.3,1.3-.7,2.5-1.4,3.9-1.8,2.5-.7,4.3,1,3.8,3.6-.1,.7-.4,1.4-.6,2-1.3,4.5-3.1,8.8-4.6,13.2-1.6,4.6-3.6,8.9-6.3,12.9-.5,.7-1,1.5-1.5,2.2-1.1,2.1-2.1,4.2-3.3,6.2-1.2,2.2-2.2,4.6-3.9,6.5-1.6,1.8-1.5,4.4-3.4,6-.9,.7-.6,2.1-.3,3.1,.1,.5,.6,1,1,1.2,1.1,.7,.9-.5,1.3-1,1-1.3,2.2-2.4,3-3.8,.8-1.5,2.8-2.5,2.4-4.7,1-1.3,2-2.5,3-3.8,.2-.3,.3-.7,.4-1,.7-1.5,1.4-2.9,2.2-4.4,.8-1.6,1.5-3.3,2.5-4.8,.9-1.3,2.3-2.4,2.1-4.2-.3-2.1,1.6-3,2.3-4.6,1-2.5,2.2-4.9,3.1-7.5,.5-1.5,.4-3.3,2-4.4,.6-.4,.8-1.2,.6-2-.4-1.8,1.2-3.4,.5-5.2Zm-70.9,4c.4,.3,1,.5,1.2,.9,.7,1.4,1.8,2.7,1.7,4.5,0,.5,.4,.9,1,1,0,1.8-.3,3.7,.2,5.3,.6,1.7,.5,3.6,1.3,5.2,.5,1.1,.6,2,0,3-.2,.3-.3,.8-.1,1,1.2,1.6,.7,3.5,.8,5.2,.3,3.6-1.2,6.6-2.7,9.7-.1,.3-.6,.6-.8,.6-.7,0-.6-.6-.6-1.1,0-4.7-1.8-9.2-1.2-13.9,.1-1.2-.9-2.4-.8-3.6,.1-1.4,.6-2.6,0-4-.6-1.3,.8-2.8,.4-4.1-.5-1.4-.5-2.8-.5-4.3,0-1.4,0-2.9,0-4.3,0-.3,.3-.6,.4-1Zm15.8,4.6c0,.1-.2,.2-.3,.4-.1-.1-.3-.3-.3-.4,0-.8-.1-1.7-.2-2.5,1.3,.5,1,1.6,.8,2.6Zm3,12.4c-.2,.4-.4,.8-.6,1.3-.8-.1-1.1-.8-.8-1.4,.2-.6,.9-1,1.3-1.5,.2,.2,.4,.5,.4,.7,0,.3-.2,.6-.3,.9Zm32.4-30.7c0-.1,.2-.2,.3-.4,.1,.1,.3,.2,.3,.4,.1,.3,.1,.8,.3,1,1.5,1.3,.5,2.5-.1,3.7-.2,0-.4,0-.5-.2-1-1.4-.4-3-.3-4.5Zm-17.8-14.4c0-.7,1.9-2.5,2.6-2.3,2.8,.9,5.9,1.3,7.8,4.1,.6,.8,.4,1.6-.6,2.1-2.5,1.3-5.5,1.5-7.6,3.6-.5,.5-1.8-.2-1.9-1-.1-1.2-.2-2.5-.3-3.8,0-.8,0-1.7,0-2.6Zm-14.1,19c-.9-1.3-.7-2.9-.5-4.1,.3-1.4,.5-2.8,.5-4.2,0-2.9,0-5.7,1.7-8.3,.9-1.5,.3-3.6,1.5-5.1,.4-.5,.8-1.2,1.3-1.7,1.1-1.1,3.7-.3,4,1.2,0,.3,0,.8,0,1-1,1.9-2.1,3.7-3.2,5.6-1.3,2.1-2.8,4.3-3.1,6.8-.3,2.3-1.7,4.4-1.2,6.8,.2,.8,.1,1.8-1,2.1Zm7.2,7.5c-.2,.3-.5,.7-.5,1,.2,2.8-1.1,5.2-1.3,7.9,0,2.3,.6,4.7-.7,6.9,1.7,1.8-.3,4,.5,6,.8,2,.1,4.3-1.2,6.1-.2,.2-.6,.2-.9,.4-.3-.2-.7-.4-.8-.6-.3-1.4-.1-2.8-1-4.2-.5-.8-.3-1.7,.1-2.6,.2-.5,.6-1.1,.4-1.5-.5-1.2-1.2-2.3-.1-3.5-.6-1.3-.5-2.7-.1-3.9,.4-1.3,.4-2.5,.4-3.7,0-1.4,0-2.9,0-4.3,0-1.3-.2-2.6,.1-3.8,.6-2.8,.9-5.6,1.1-8.5,.2-2.8,1.1-5.5,2-8.3,.8-2.6,2.3-4.9,3.4-7.3,.2-.5,.4-1,1-1.1,.9-.1,1.3,.5,1.7,1.1,.3,.4,.4,1,.5,1.5,.2,1.4-.3,2.9,.8,4.2,.2,.2,.3,.8,.1,1-1.3,1.9-1,4.6-2.8,6.3-1.1,1.1-1.5,2.4-1.4,3.9,0,2.4-.2,4.7-1.5,6.7Zm1.5,10.4c0-2.3,1-4.3,.3-6.4,1.5-1.6,.3-3.9,1.7-5.6,.5-.6,.2-1.7,.4-2.6,.1-.5,.4-1,.8-1.4,.2-.3,.6-.4,.9-.5,.1,.3,.4,.7,.4,.9-.1,.7-.3,1.4-.6,2-.5,.9-.7,1.8-.3,2.6,.7,1.2,.3,2-.5,2.8-.7,.7-1.1,1.8-.6,2.4,1.3,1.7,.3,3-.2,4.5-.3,.8-.1,1.8-.4,2.6-.1,.4-.6,1-1.1,1.1-.7,.2-.7-.5-.7-1,0-.5,0-1.1,0-1.4Zm8,17.4c-.9,1.8-2.2,2.8-3.8,3.6-1.1,.5-2.3,.2-2.7-.8-.5-1.3-1-2.7-1.4-4.1-.1-.5-.1-1.1,0-1.6,.4-1.4,1.1-2.7,1.5-4,.3-1.1-.2-2.3,.9-3.2,.5-.4,.6-1.3,.7-2,.1-1.1,.6-2.1,.8-3.1,.6-2.2,1.7-4.4,1.4-6.8,1.2-2,.9-4.2,1-6.3,0-1.4-.1-2.9,.8-4.2,.4-.5,.3-1.4,.4-2.2-1.5-1.7,.3-3.6,0-5.5-.5-2.7,1.1-3.8,3.2-4.8,1.5-.7,3-1.2,4.6-1.1,1.2,0,2.1,.6,2.7,1.5,.5,.7,.6,1.7,1.6,2,.8,.2,.2,.8,0,1.3-.1,.3-.2,.7-.3,1-.4,1.1,1.2,1.9,.5,3-.7,1.2-.3,2.5-.5,3.7-.1,1.1,0,2.1,.6,3.2,.2,.3-.3,.9-.4,1.4-.3,1.2-.9,2.4-.7,3.5,.3,1.7-1.3,2-1.6,3.2-.5,2-2,3.7-1.7,6,.1,1-1.7,1-1.7,2.4,0,.9-.2,1.8-.5,2.6-.4,.8-.7,1.7-.7,2.6,0,.7-.1,1.4-.6,2-1.5,2.2-3.2,4.4-4.4,6.8Zm17-22.3c-.4,1.5-1.1,3.1-1,4.6,0,1.7-.7,3.1-1.2,4.6-1.1,3-2,6-3.8,8.7-.9,1.3-1.5,2.8-1.8,4.4-.3,1.5-2.1,2.4-2.1,4.3,0,.9-.9,1.9-1.5,2.8-.4,.6,.2,0-.5,0-.2-.2-.6-.5-.6-.6,.8-2.5,1.9-5,1.7-7.8,0-.5,.3-1,.6-1.5,2.1-3.5,3.1-7.5,4.6-11.3,.5-1.3,.9-2.7,1.4-4,.2-.7,.9-1.4,.8-2-.4-2.5,1.8-3.8,2.5-5.8,.2-.5,.5-.6,.8-.3,.4,.4,.9,.8,.9,1.2,0,.9-.5,1.7-.7,2.5Zm-.8-9.9c-.1,0-.3,0-.5,0-.4,0-.5-.3-.4-.7,.2-.8,.4-1.6,.6-2.4,.3,0,.7,0,1,0,.3,0,.6,.3,.9,.5-.6,.8-.6,2-1.6,2.5Z"/><path class="q" d="M1040,357.7c0-.2-.2-.8-.5-1.2-.1-.2-.6-.2-.9-.2-.1,0-.3,.2-.3,.4-.1,.3-.3,.6-.3,1,0,.7,0,1.4,.9,1.6,.7,.1,1.1-.4,1.2-1.6Z"/><path class="q" d="M1041,364.7c-.3-.8-.7-1.6-1.1-2.4,0-.2-.2-.3-.4-.4-.1,.1-.3,.3-.3,.4-.1,.3-.1,.7-.2,1.1,0,.4,0,1,.2,1.5,.1,.5,.5,1,1.1,.8,.6-.1,.9-.6,.7-1.1Z"/><path class="q" d="M1041.8,372.8c-.2,.2-.3,.4-.4,.5-.3,.8-.3,1.7,.4,2.3,.2,.2,.7,.1,.9,0,.5-.3,.6-.9,.3-1.3-.3-.6-.9-1-1.3-1.5Z"/><path class="q" d="M1042.1,370.2c-.1-.4-.4-.6-.6-.4-.4,.3-.7,.7-1,1,0,0,.3,.5,.5,.5,.7,0,1.2-.5,1.1-1.2Z"/></g></g><g id="b"><path class="q" d="M957.7,336.7c2-.2,3.3-.3,4.7-.6,10.1-2.4,20.3-4.2,30.7-4.3,9.5,0,18.8,.8,27.4,5.7,9,5.1,13.7,16.1,11.8,26-1.5,7.9-5.6,14.5-10.8,20.5-1.2,1.4-2.3,2.8-4.2,5,2.4-.6,4-.8,5.4-1.3,14.5-5.4,29.5-9,44.8-11.3,12.4-1.9,24.9-3.1,37.4-1.5,4.5,.6,9,1.5,13.2,3,9.4,3.4,12.8,9.5,11.6,19.5,0,.5,0,1,0,2.1,1.6-.3,3.1-.5,4.6-1,15.8-4.5,31.8-7.6,48.2-7.5,17.3,.1,33.3,5,47.9,14.2,3.5,2.2,7,4.5,10.4,6.9,1.6,1.1,3.1,2.5,4.5,3.9,1.4,1.4,3.3,2.6,2.1,5.1-.9,1.9-4.1,3-6.7,2.2-1-.3-1.9-1-2.7-1.6-13.9-12.3-29.6-20.8-48.2-23.6-8.3-1.3-16.7-1.1-25-.3-12.1,1.2-23.9,4-35.6,7.6-2.7,.8-4.7,2.3-6.7,4.4-7.4,8-16.4,13.8-26.7,17.3-2.7,.9-5.7,1.2-8.5,1.2-2.8,0-4-2.2-2.3-4.4,2-2.5,4.4-4.9,7-6.8,6.9-5.1,14.7-8.7,22.6-11.8,2.4-.9,4.8-1.7,5.5-4.6,.9-3.2,1.4-6.4-.2-9.5-2-3.9-5.2-6.4-9.3-7.9-5.7-2-11.6-2.8-17.6-3-9.8-.3-19.6,.7-29.2,2.2-17.8,2.9-35,8-51.8,14.5-5.1,2-9.6,5-14.1,8.1-4.6,3.2-9.5,6-14.4,8.7-2,1.1-4.4,2-6.5-.5,0-2.7,2.2-4.1,4-5.3,4.2-2.9,8.6-5.4,12.9-8.1,3.5-2.3,7.2-4.3,10.2-7.1,6.3-5.7,12.4-11.7,16.4-19.5,2.6-5.1,3.5-10.4,2.6-15.8-1-5.8-4.1-10.5-9.1-13.6-2.7-1.7-5.8-3.2-8.9-4-6.9-1.7-13.8-2.2-21-1.6-9.3,.9-18.3,2.5-27.3,4.8-2.9,.7-5.2,2-7,4.6-6.5,9.2-13.7,17.9-22.4,25.1-5.5,4.5-11.6,8.2-18.6,10-2.6,.6-5.4,.9-8.1,.8-4.9-.2-7.3-3.6-5.4-8.1,1.2-3,3-5.8,5.2-8.2,6.8-7.5,15.3-12.8,24.3-17.2,6-3,12.3-5.4,18.5-8,1.9-.8,3.4-1.8,4.5-3.6,14.5-22.8,26.8-46.6,33.2-73,1.6-6.7,2.8-13.5,1.6-20.5-1.5-9-6.9-14.1-16-15.2-4.8-.5-9.4,.2-14,1.6-12.2,3.7-22.6,10.6-32.3,18.7-11.7,9.9-21.4,21.6-30.5,33.9-12.1,16.4-22.9,33.6-32.2,51.7-3.6,7.1-6.7,14.5-9.9,21.8-.6,1.5-.9,3.1-1.2,4.7-.6,3.7-4.5,6.1-8,4.6-.7-.3-1.5-1.7-1.4-2.5,.3-2,.9-3.9,1.6-5.7,5.1-13.3,11.7-25.8,18.8-38,11-18.9,23.1-37,37.3-53.6,13.7-16.1,29.4-29.7,49.2-37.9,5.6-2.3,11.7-3.7,17.7-5,5.8-1.3,11.6-.5,17.2,1.5,7,2.5,10.8,7.6,12.4,14.7,2,9.2,.3,18.1-2.1,26.9-4.9,18.2-12.4,35.2-21.5,51.7-2.8,5.1-5.8,10-8.7,15.1-.4,.8-.8,1.6-1.5,3Zm-18.7,12.7c-1.8,.6-3.5,1-5,1.8-5.3,2.8-10.6,5.5-15.6,8.7-3.6,2.3-6.9,5.3-10.1,8.2-1.6,1.4-2.8,3.3-3.8,5.2-1.4,2.8,.1,4.9,3.1,4.2,2.8-.7,5.6-1.6,8-3.1,9.4-6,16.7-14.3,23.3-23.3,.2-.2,0-.7,.2-1.6Zm159.2,70.7q3.9-1.1,6.2-3.5-3.7,1-6.2,3.5Z"/></g><g id="c"><path class="o" d="M920.7,111c.5,6.3,.8,12.9-.4,20s-.8,1.3-1.6,1.2c-5.6-.7-11.2-1.3-16.8-2s-5.6-.7-8.4-1-2.5,0-3.2-.4-.9-2.5-1-3.5l-1.3-15.2c0-.6-.1-1.3,.1-1.9,.7-2,4.7-.7,6.3-.6l8.3,.7c5.5,.4,11,.9,16.5,1.3,.7,0,1.3,.6,1.3,1.3Zm9.1-43c0-.8-.6-1.4-1.4-1.4-7.3-.2-16-.4-23.1-1.4-6.5-1-13-2-19.5-2.9-.8-.1-1.5,.4-1.6,1.2l-.6,3.7c0,0,0,.1,0,.2-.2,10.5-.8,21-3.2,31.4s-.7,1.1-1.3,1.1c-5.4,.4-10.1-1.7-15-1.9-4.6-.2-9.3-.6-14.3-.9s-1.3-.6-1.3-1.3c-.4-5.2,1-10.1,1.4-15.1,.5-5.3,1.9-10.6,2.9-15.8l.6-4c.1-.9-.6-1.7-1.4-1.7-17.8,.4-34.8,4.8-51.2,12.6-.5,.2-.8,.7-.8,1.3l-.3,33.8c0,1,1,1.7,2,1.4,5.1-2.1,10.7-3.4,16.1-4.5s12.2-2.4,18.3-3,2.9-.3,4.4-.3c2.7,0,2.1,2.5,2,4.6-.2,4.2-.7,8.4-1,12.6s-.4,4.2-.5,6.3,.2,3.4-1.5,3.7c-7.1,.7-14.1,1.1-20.9,2.3-6.9,1.3-13.7,3.5-21.4,5.5s-1,.7-1.1,1.3l-1.7,40.2c0,1.1,1.1,1.8,2.1,1.3,13.8-7,28.3-10.6,43.9-9.5,.6,0,1.2,0,2-.2s1.1-.5,1.2-1.1c1-4.3,.9-8.7,1.1-13.1l.6-14c0-1.9,0-6.1,2.3-6.4s6.8,0,10-.2c6.6-.2,13.3-.4,19.9,.3,.7,0,1.3,.7,1.3,1.4,.1,4.1,.3,7.8,.3,11.6,0,4,0,8-.4,12-.3,3.7-1.7,7.2-1.5,11.2s.6,1.3,1.4,1.4c16,.8,31.8,2.8,48.3-.6,.7-.1,1.2-.8,1.1-1.5-.3-5.5-.8-10.7-.8-15.8,0-5.4,.3-10.8,.5-16.6s.6-1.3,1.3-1.4c2.1-.3,4.1-.5,6-.7,7.9-.9,15.9-1.6,23.8-2.5,3.6-.4,4.5-1.3,4.8-4.1,.6-7,1.3-14,1.7-21.1,.1-2.1,.4-4.5-.3-6.7-.3-.7-1-1.1-1.8-.9-10.7,3.1-21.5,3-32.5,3.1s-1.5-.7-1.5-1.5c.3-9.9,.5-19.4,.8-28.9v-4.5Z"/></g><g id="e"><g><path class="q" d="M869,421.4c1.4,.1,3.4,.2,3.5-1.6,0-1.1-1-2.8-2.1-3.3-2.1-1-4.4-1.7-6.7-1.9-12.8-1.2-25.7-2.3-38.5-3.4-1,0-2-.5-3-.7-.1-1-.3-1.7-.3-2.4-.8-15.4-1.6-30.8-2.4-46.2-1.1-20.1-2.2-40.3-3.2-60.4-.5-9.2-.9-18.5-1.4-27.7-.9-15.4-1.9-30.8-2.8-46.2-2-36.3-3.9-72.6-5.9-108.9-.6-11.3-1.2-22.6-1.6-33.9-.3-6.5-1-13.3-.5-19.8,19-7.3,38.9-11.1,59.6-10.3,5,.2,9.9,.5,14.8,.9,12.7,.9,26.8,2.2,40.3,.9,11.8-1.2,23.2-4.5,32.5-11.9,.2-.2,.4-.3,.6-.5,.6-.5,.7-1.3,.4-2-.5-.9-1-1.8-1.5-2.8-.4-.8-1.4-1-2.1-.6-2.6,1.4-5,2.7-7.2,4-7.7,4.5-15.9,8.1-24.9,8.5-7.7,.4-15.5,.4-23.2,0-13.4-.8-26.8-2-40.3-2.1-23.3-.2-44.6,6.1-64.5,17.6-.7,.4-1,1.4-.5,2.1l.8,1.3c.4,.7,1.2,.9,1.9,.6,1.3-.7,2.7-1.3,4.1-1.9l.4,10.3c5.9,108.3,11.8,216.4,17.7,324.6,0,1.8,0,3.6,0,5.4,0,.2-.2,.3-.3,.4-.1,.1-.2,.3-.5,.6-10.2,.2-20.5,0-30.8,.7-10.5,.7-21,2-31.3,3.6-16.8,2.7-26.2,5.4-29.6,7.7,2.5,5.1,3.7,5.7,8.8,4.6,4.4-1,8.8-2.1,13.2-3.2,17.2-4.1,34.6-6.6,52.3-6.6,18.9,0,37.7,.7,56.5,2.7,5.9,.6,11.9,1.3,17.8,1.9Z"/><path class="q" d="M916.2,447.6c-2-.7-4.2-1.3-6.2-2-30.4-11.6-61.7-17.2-94.3-15.5-2.5,.1-5,.1-7.2,1.5,1.1,4.2,2.9,5.7,6.8,5.5,3.1-.1,6.1-.7,9.2-.7,20.7-.3,41.3,1.5,61.3,7.2,8.9,2.5,17.6,5.7,26.3,8.6,2.5,.8,5,2.3,8.2,.8-1-3.7-1.5-4.3-4.2-5.3Z"/><path class="q" d="M1015.9,141.8c-1.1-1.7-2.8-2.2-4.7-1.2-1,.5-1.8,1.2-2.6,1.9-4.1,3.1-8,6.2-12.2,9.2-11,7.8-23.2,12.7-36.5,14.4-5.9,.8-11.9,.9-17.9,1.2-2.1,.1-4.2,0-5.8,1.4-.7,.5-.8,1.6,0,2.2,1.5,1.2,3.3,1.3,5.3,1.4,17.5,.4,34.3-2.7,50.1-10.3,8.5-4.1,15.9-10,23.4-15.8,1.4-1.1,2.2-2.5,1.1-4.2Z"/><path class="q" d="M902.1,156.6c-9.2-.1-18.4-1-27.7-1.4-2.6-.1-5.4-.9-8.1,1.4,1.9,3.3,2.5,3.8,5.4,4,2.2,.2,4.3,.1,6.5,.4,32.3,3.3,64.1,.6,95.1-9.5,2.4-.8,4.8-1.4,6.5-3.3-2.1-3.8-4.3-4.7-8-3.6-2.9,.9-5.7,2.3-8.7,3.1-20,5.6-40.3,9.2-61.1,8.9Z"/></g></g><g id="f"><g><path class="q" d="M193.2,276.7c-6.3-.5-12.6-1.2-18.9-2.2-11.8-1.9-23.6-4.3-34.8-8.6-10.2-3.9-20.1-8.3-28.7-15.3-4.9-4-6.1-9-5.7-15.2,1.4,.2,2.5,.2,3.5,.4,8.2,1.7,16.5,2.7,24.8,2.8,12.8,.2,25.3-1.5,37.4-6,1.9-.7,3.7-1.5,5.3-2.6,3.2-2.2,3.7-4.5,1.9-8-1.7-3.1-3.9-5.7-7.5-6.7-3.3-.9-6.6-1.9-10-2.6-10.8-2.1-21.7-1.8-32.6-1.4-3.6,.2-7.2,.6-10.8,1.3-8,1.5-14.7,5-18.6,12.7-.1,.3-.6,.4-1.2,.8-12.7-3.2-25-8.1-36.4-14.8-6.9-4-13.4-8.7-20.1-13.1-1.7-1.1-3.4-2.2-5.2-2.8-.9-.3-2.4,.2-3.2,.9-.3,.3,0,2.1,.6,2.8,1.4,1.4,3,2.6,4.6,3.7,2.7,1.9,5.5,3.5,8.2,5.4,11.1,8.1,22.9,14.7,35.7,19.5,5.1,1.9,10.2,3.7,15,5.4,.3,.4,.4,.6,.5,.7,.1,.5,.3,1.1,.3,1.6,1,7.9,4.6,14.4,10.7,19.6,6.4,5.5,13.7,9.6,21.2,13.1,22,10.5,45.5,14.2,69.5,16.4,.8,0,1.6-.4,2.5-.6-1.5-6.6-2.3-7-8.1-7.5Zm-74.7-55.2c5.2-1.2,10.6-2,16-2.4,10.5-.7,21-.1,31.3,1.8,1.2,.2,2.3,.7,3.6,1.2-1.2,2.4-3.1,2.8-4.9,3.4-8.4,3-17.1,4.7-26,5.2-8.9,.5-17.7,.2-26.5-1.4-1-.2-2-.5-3.6-.9,2.4-4.6,6.3-6,10.1-6.9Z"/><path class="q" d="M166.8,288.7c-6.9-.2-13.8-.3-20.6-1-15.1-1.6-29.5-5.4-43.2-12.1-1.2-.6-2.6-.9-3.8-1.3-1.4,2.3-1.3,4,.4,5.3,1.7,1.3,3.4,2.8,5.4,3.6,9.5,4.1,19.1,8,29.3,9.7,8.9,1.5,17.9,2.9,26.9,3.7,4.3,.4,9,1.3,13.1-1.2-1.2-5.5-2.7-6.7-7.5-6.8Z"/><path class="q" d="M219,257.2c-1.4-.1-2.9-.2-4.4-.1-15.6,.8-30.7-1.9-45.6-6.1-1-.3-2.1-.3-3.6-.5-.8,5.1,2.6,6.7,5.7,8,3,1.3,6.2,1.9,9.4,2.6,14.2,3,28.6,4.6,43.2,4.1,1,0,1.9-.6,2.8-.9-1.4-5.8-2.4-6.7-7.6-7.1Z"/></g></g><g id="g"><path class="q" d="M552.2,274.1c1.1-3.5,3.4-3.2,5.4-3.3,3.4,0,6.9,.1,10.3,.3,11.7,.5,23.1-1.9,34.3-4.8,21.7-5.6,38.6-18.1,51.9-35.7,5-6.7,9.5-13.7,14.1-20.7,1.5-2.3,3.5-4.8,2-8.3-4.3-.3-7.7,1.1-10.1,4.8-3,4.7-6.1,9.4-9.4,14-1.4,1.9-3.3,3.4-5.1,4.8-3.2,2.4-4.6,2.3-9,.1-.5-2.8,1.2-4.9,2.8-6.7,4.6-5.1,9.5-9.9,14.3-14.9,1.2-1.3,2.6-2.6,3.3-4.2,1.7-3.8,3.2-7.7,4.6-11.6,1.1-3,.9-3.4-.7-7.2-4.9,.5-6.3,1.5-7.3,6.1-1.6,6.8-4.7,12.6-10.6,16.6-2,1.4-4.1,2.3-6.6,1.9-3.9-.5-5.3-2.7-3-5.9,3.6-5.2,7.7-10.1,11.8-14.9,2.8-3.3,2.8-7.9-.4-10.9-2.3-2.1-4.6-2.3-6.6,0-1.4,1.6-2.5,3.6-3.3,5.6-1.5,3.7-2.8,7.5-4.1,11.2-2.9,8.4-9.4,13.6-16.2,18.6-2,1.4-4,1-6.7,.2,.7-1.1,1.1-2.1,1.8-2.8,.7-.8,1.7-1.3,2.6-2,6.7-4.6,11.1-10.8,13.4-18.6,1-3.3,2.4-6.4,3.7-9.6,2.2-5.5,6.4-8.3,12.2-8.4,5.6,0,9.7,2.6,11.8,7.9,.1,.3,.3,.6,.5,.9,0,.1,.3,.2,.7,.5,1.4-.3,2.9-.7,4.5-1,7.1-1,10.4,2.2,9.5,9.3-.3,2.7-1.4,5.2-2.1,7.9-.3,1.2-.8,2.4-1.3,3.9,2,0,3.7,0,5.4,0,5.9,.4,8.4,3.9,5.9,9.2-2.2,4.7-5,9.2-7.9,13.6-6.6,10.3-14.1,19.8-23.2,28.1-14,12.7-30.7,19.7-48.9,23.7-10,2.2-20,3.6-30.2,3.2-4.5-.2-9-.6-14.2-1Z"/></g><g id="h"><path class="q" d="M389.7,214c-.3,2.3-1.6,2.3-3.2,2.3-31.5,.8-61.3,8.9-89.5,22.6-16.6,8.1-31,19.5-44.2,32.4-6.9,6.7-13.5,13.7-20.1,20.8-4.9,5.3-9.3,11.2-12.1,18-1.1,2.7-1.8,5.5-2.3,8.4-.2,1.2,.4,2.6,1.6,4.1,.6-.9,1.3-1.8,1.8-2.8,1.9-4.3,3.6-8.7,5.6-13,1.4-2.9,3.6-5,6.9-5.7,3.4-.6,5.3,1.1,4.7,4.6-1,5.6-3.8,10.4-7.7,14.2-6,5.9-4.3,12.8-4.7,20.7,4.8-3.1,7.8-5.6,8.3-10.5,.9-8.3,4.3-15.7,9.4-22.3,.7-.9,1.5-1.7,2.3-2.2,1.9-1.2,4-1.9,6.1-.5,2.2,1.5,1.7,3.7,.9,5.4-3.1,6.7-6.3,13.5-9.8,20-2.2,4.1-2.4,4,.9,8.6,1.6-1.4,3.4-2.6,4.6-4.2,4.2-5.7,8.2-11.6,12.2-17.4,1.8-2.5,3.4-5.1,5.3-7.6,1.7-2.3,4-3,6.9-1.5,.7,5.5-1.8,11.4,.9,16.9,6.5-3.4,16.3-24.7,15.5-33.4-2.2-.4-4.5-.8-6.7-1.4-3.6-1-5.1-2.6-5.3-5.4-.2-3,1.3-5.1,4.7-6.6,5.4-2.4,9.5-.3,13.4,4.3,4.3-3.7,8.3-7.6,12.7-10.9,5.6-4.3,11.4-8.3,17.4-12,3.3-2.1,4.2-1.7,7,.6-6.1,4.4-12.4,8.5-18.2,13.2-6,4.7-11.6,9.9-17.8,15.3,.9,13.5-6.5,24.7-13.4,35.9-4.4,7.2-12.9,6.6-17-.7-.3-.5-.6-.9-1.3-2-1.6,2.2-2.9,4.3-4.4,6.2-2.6,3.5-5,7.2-8,10.3-4.6,4.9-8.3,5.2-14.1,2.1-.6-.3-1.3-.7-2.1-1.2-1.5,1.2-3,2.5-4.7,3.5-5.9,3.7-11.9,.8-12.5-6.1-.3-3,0-6.1,0-8.9-.3-.4-.4-.6-.6-.6-9.1-3.3-8.1-6.9-6.5-13.9,1.7-7.2,5.4-13.5,10.2-19,17.4-20.4,36.3-39.1,59.4-53.2,17.7-10.8,36.9-17.7,56.9-22.7,13.7-3.4,27.6-6,41.8-6.6,3-.1,6.1-.4,8.7,1.6Zm-101.9,67.9c-2.6,1-4,2.3-2.6,4.5,1.2,1.9,3,1.4,4.7-.5-.7-1.3-1.4-2.6-2.1-4Z"/></g><g id="i"><path class="p" d="M388.3,341.5c-.3,1.7-.5,2.1-.5,2.6,.1,7.4-1.1,12-8,12.1-9,.1-20.9-1-29-4.9-12.2-5.8-9.3-13-13.9-25.2-4.3-11.4-2.1-25,9.2-34.2,15.9-12.9,32.9-22.4,49.6-7.8,12.4,10.9,20.9,24.6,25,41.2,.6,2.4,.9,5.1,.8,7.5-.2,6.1-.3,4.1-5.9,4.8-5.1,.7-10.5,0-15.8-.4-2.9-.2-8.4,4.9-11.6,4.2Z"/></g><g id="k"><path class="q" d="M186.6,363.1c-.9-4.1-.7-7.2,4-7.6,2.2,1.9,2.4,4.7,2.2,7.3-.4,4.1,1.5,6,5,7.9,11.2,6.2,23.4,8.9,35.8,10.5,9,1.2,17.7-1.2,26.3-3.6,11.2-3.2,20.9-9.1,29.4-17,9.1-8.4,17.7-17.2,24.4-27.7,1.3-2.1,3-3.5,5.3-4.5,2-.8,3.5-.6,5.1,1.5-2.6,3.9-5.2,8-8.1,11.9-7.7,10-16.7,18.7-26.5,26.5-11.7,9.4-25.5,14.3-40.1,17.3-19.1,4-37.1,0-54.6-7.5-.8-.4-1.6-.8-2.5-1.1-.3-.1-.7,0-1.6-.2-.6,1.2-1.4,2.5-2,3.9-4.6,9.7-11.5,16.7-22,19.6-2.4,.6-5,.8-7.8,1.2-1.2,5.4-2.4,10.8-3.7,16.6,2.3,1.9,4.5,4,7,5.8,11.5,8.7,23.6,16.3,38.1,19.1,8.5,1.6,17,1.2,25.5,.3,13.2-1.5,25.2-6.7,36.7-13,29.2-16,54.9-36.7,78.4-60.1,10.5-10.4,18.2-22.6,24.8-35.6,2.4-4.7,4.8-9.4,7.2-14.1,1.5-3,3.9-4.8,7.2-5.2,2.4-.3,3.5,1.2,2.4,3.3-8.4,15.9-15.5,32.6-27.9,45.9-8.1,8.8-16.7,17.2-25.7,25.1-9.5,8.4-19.5,16.3-29.7,23.8-16.9,12.4-34.7,23.3-54.5,30.4-17.2,6.1-34.9,8.4-53,4.3-10.8-2.4-20.4-7.3-29.5-13.5-3.3-2.2-6.5-4.6-10.1-7.2-1.1,2.2-2.1,4.1-3.1,5.9-1.6,3.1-2.8,3.6-6.8,2.7,1.7-4,3.4-7.9,5-11.7-8.4-8.3-16.6-16.4-25.1-24.8-.6,.3-1.4,.7-2,1.2-9.9,9.4-21.4,16.8-32.7,24.4-5.6,3.8-11.6,6.8-18.4,7.8-1.4,.2-2.9,.4-4.3,.1-3.1-.6-4.9-2.8-4.2-5.9,.8-3.5,1.9-7.1,3.7-10.1,10.8-18.4,22.2-36.3,37.9-50.9,6.5-6.1,13.4-11.7,21.1-16.3,9.7-5.7,20-7.2,31-4.5,5.2,1.3,9.5,4.5,13.9,7.2,5.1,3.1,10.2,6.3,15.3,9.4,.7,.4,1.6,.5,3,1Zm-116.2,63.9c4,0,7.2-1.9,10.1-3.9,12.4-8.2,25-16.2,35.4-27.1,6.4-6.7,10.6-6.4,16.7,.5,3.5,3.9,6.9,8,10.6,11.6,2,1.9,3.7,4.4,7,5.1,.5-1.9,1-3.7,1.3-5.4,.3-1.8,.3-3.6,.6-5.4,.4-2.1-.4-3.3-2.2-4.5-1.9-1.3-3.8-2.8-5.4-4.5-2.1-2.2-2-5-.8-7.6,1.4-3,5-4.9,8-4.6,3.1,.3,4.9,2.2,5.8,5,.4,1.4,.5,2.8,.8,4.3,.3,1.7,.6,3.5,.9,5,11.8,2.9,22.8-6.7,26-22.7-11-6.7-21.9-13.9-33.4-20-7.9-4.3-16.7-4-24.4,1-5.9,3.8-11.4,8.3-16.8,12.9-10.8,9.4-19.3,20.7-27,32.6-4.4,6.8-8.5,13.9-12.6,21-1.1,1.8-2.1,3.9-.8,6.7Zm80.3-36.6l1-.4c-.4-1-.9-1.9-1.3-2.9l-.8,.4c.4,1,.8,2,1.2,2.9Z"/></g><g id="l"><path class="q" d="M595.8,399.5c5.8-1.8,11.4-3.5,16.5-5.1,3.2-9.2,6.3-18.2,9.6-27.8-.2-.2-.8-1.1-1.6-1.8-26.3-22.6-55.9-39.7-88.4-51.5-11.9-4.3-24.2-6.4-36.7-7.4-12.5-1-25-1.8-37.5-2.4-10.1-.5-19.9,1.6-29.5,4.5-3.4,1-6.3,.9-8.6-2,.4-2.4,2.4-2.4,3.8-2.8,9.1-2.7,18.3-4.9,27.8-4.7,10.9,.2,21.8,.7,32.6,1.4,12.3,.8,24.5,2,36.6,4.7,13.4,2.9,26,8.1,38.4,13.7,15,6.9,29.7,14.5,43.2,24.1,7.2,5.1,14.2,10.7,21.2,16.1,.7,.5,1.4,1.1,2.7,2,2-2.9,3.9-5.7,5.8-8.4,.9-1.3,1.9-2.7,3.1-3.8,1.1-1.1,2.5-1.4,4.1,.3-2.9,4.8-5.8,9.8-8.9,14.9,7.7,7.1,15.1,13.9,23,21.2,1.4-.3,3.3-.7,5.1-1.3,16.4-5.7,33.4-8.4,50.4-11.2,3-.5,6.2-.2,9.2-.2,.9,0,1.8,0,2.7,.4,7,2.2,11.3,6.5,4.3,13.9-4.8,5.1-10.4,9.6-16,13.9-13.5,10.5-28.5,18.7-43.1,27.6-9,5.5-18.9,8.3-29.5,8.3-7.5,0-14-2.3-19.7-7.6-16.9-15.9-34-31.6-51.1-47.3-3.2-2.9-6.8-5.4-10.4-7.9-20.9-14.5-43.9-23.8-68.8-28.8-13-2.6-26-4.9-39.2-6.3-10-1.1-20-.3-29.9,1.1-11.5,1.7-23,3.1-34.1,6.9-3.2,1.1-6.4,.6-8.7-2.3,.9-2.1,2.6-2.2,4.1-2.7,9.7-3.1,19.7-4.9,29.8-6.1,8.3-.9,16.6-2.2,24.9-2.4,16.8-.3,33.3,2.4,49.6,5.9,9.9,2.2,19.9,4.3,29.6,7.3,19.2,5.9,37,15,53.3,26.8,4.8,3.5,9.2,7.7,13.6,11.7,5.6,5.1,11.1,10.4,16.5,15.5Zm23.6-6c2.6,.4,4.6,.6,6.5,1,2.9,.6,5.6,1.5,7.6,3.9,2.1,2.7,2,6.2-.8,8.1-2.2,1.5-4.7,2.8-7.3,3.5-5.3,1.5-9.4-.8-11-6-.5-1.5-.9-3-1.3-4.4-6.4,.4-8.4,.9-12.9,3.3,.3,.4,.4,1,.8,1.3,8.1,7.5,16.3,15,24.5,22.5,2.8,2.5,6,4.1,9.9,3.9,6.4-.4,12.7-1.5,18.3-4.6,16.2-9,32.2-18.4,47-29.5,4.9-3.7,9.6-7.8,14.1-11.9,1.9-1.8,3.8-3.8,3.5-7.1-2.2-1.1-4.4-.8-6.5-.4-11.9,2.3-23.9,4.5-35.7,7.2-6.5,1.5-12.9,3.8-19.2,5.9-6.3,2-9.2,1.1-13.3-3.8-2.5-3.1-5.4-5.9-8.3-8.6-2.6-2.5-5.4-4.7-8.5-7.4-4.7,7.2-6.6,14.6-7.5,23.1Zm.9,6.1c1.8,6.1,4,7.1,8.5,4.1-1.8-3.1-4.4-4.5-8.5-4.1Z"/></g><g id="m"><g><path class="q" d="M440.5,246c1,.2,1.6,.9,1.9,1.7,.4,1.1,1.1,2.5,.8,3.5-.4,1.3,.6,2,.7,3,0,1.2,.8,2.4,.9,3.6,.2,1.4,.2,2.9,0,4.3-.2,1.2-.8,2.3,0,3.4-.6,2.2-.8,4.6-1.7,6.7-1.5,3.2-3,6.5-5.1,9.3-1.6,2.2-3.7,4-5.6,5.9-.5,.5-1,1.1-1.8,1-1.5,0-2.3,.8-3,2-1.5,2.5-3.3,4.6-6,6-1,.5-1.6,.4-2.3-.4-.6-.6-1.1-.7-1.9-.2-.4,.3-1,.2-1.5,.3-1.2,.2-2-1.7-3.4-.7-1,.7-2.2,1.2-3.4,1.8-.3,.2-.7,.3-1,.5-.8,.6-1.4,0-1.8-.5-.4-.5-.6-1.5-1.1-1.8-1.3-.7-2.6-2.3-4.3-.6-.2,.2-.7,.2-1,.4-1.9,1.5-3.3,.2-4.8-.7,.6-1,.4-1.7-.9-1.6-.5,0-1.1,.2-1.5,.6-1.4,1.2-3,1.9-4.6,2.8-1.7,.9-3.1,2.4-5.3,2.3-1.5,0-2.2,1.7-3.4,2.5-.4,.3-1.1,.5-1.5,.3-.8-.3-1.6-.8-2.3-1.3,0,0,0-.3,0-.4,.8-1.2,.9-2.6,.4-3.7-1-1.9-.9-4.3-2.4-6-.2-.2-.7-.4-1-.3-.5,.2-.9,.5-1.3,.9-.6,.6-1.2,1.5-2.3,.9-.7-.4-.6-1.3-.6-2,0-.7-.1-1.5,.1-2.2,.8-1.8,1.6-3.6,2.6-5.3,.9-1.5,.9-3.4,2.4-4.7,1-.9,1.8-2.3,2.4-3.6,.8-1.7,1.8-3.1,3.5-3.9v2.3c-.5,.4-1.1,.8-1.6,1.2-.4,.3-.3,.7,.1,.8,.3,0,.7,0,1,0,.7-.5,.4-1.3,.5-1.9,.8,0,1.5,0,2.3,0-.5,1.1-1,2.2-1.6,3.3-.2,.4-.4,.7,0,.8,.3,.1,.7,.2,1,.1,.7-.2,1.5-.3,1.9-.8,1.4-1.4,2.8-2.8,3.9-4.4,.7-1.1,1.4-2.2,2.5-2.8,1.4-.8,2.2-1.7,2.1-3.4,0-1.2,.6-2.2,1.7-2.6,2.3-.9,3.6-3,5.3-4.4,.2-.1,.1-.6,0-.9,0-.1-.3-.3-.4-.2-1.2,.1-2.5-.2-3.6,.8-1.1,.9-.5,2.6-1.6,3.3-1,.7-2.5,.3-3.3,1.5-.3,.4-.9,.7-1.1,1.2-1.5,3.1-4.6,5-6.1,8.1-.1,.2-.6,.3-.9,.4-.1-2.2-.3-2.2-2.2-2.2,1.6-2.3,2.9-4.9,5.1-6.8,.9-.8,1.6-1.9,3-2.2,1.5-.4,1.1-1.8,1.3-2.9,2.7-.6,2.9-3.5,4.5-5-1.1-2.4,1.5-3.3,2.1-4.9,.6-1.6,2.5-2.6,3-4.4,2.8-1.8,4.8-4.7,7.8-6.3,1.1,.8,1.3,0,1.9-.7,.3-.5-.3-.7,.3-.3,1.1,.6,2.4,1.2,3.1,2.1,.8,1.1,1.2,2.5,1.6,3.9,.1,.4-.2,1-.5,1.4-.4,.6-.9,1.1-1.3,1.7-.1,.2,0,.7,.2,1,.2,.2,.7,.4,.9,.3,3.1-2,5.4-4.6,5.3-8.7,0-.6,.3-.9,.9-.9,1.7-.5,2.6-1.9,3.4-3.3l1.1-2.1c0-.5,0-1.2,.2-1.6,.2-.4,.9-.6,1.3-.6,1.1-.1,2.2-.1,3.2-.1,1.2,0,1.6,.4,1.7,1.6,0,.4,.1,.7,0,1.1-.1,.5-.4,.9-.6,1.3-.3-.2-.6-.4-.9-.6-1.3-1-1.3-.9-1.8,0-1.1,2-2.3,4-3.5,6-.5,.8-1.2,1.3-2.1,1.6-.8,.2-.4,.8-.1,1.2,.3,.4,.6,.9,1.3,.4,1.6-1,4-3.4,4.5-4.9,.3-.9,.8-2,1.5-2,1.2,0,2.6,.5,3.3,1.3,1,1.1,2,2.6,1.6,4.4-.2,.7-.5,1.3-.7,2-.4,1.2-1.3,2.5-1,3.5,.2,1.1,1.6,1.9,2.4,2.8,.2,.3,.3,.6,.5,.9,.7,1.4,.7,.4,1-.2,.7-1.3,1.7-2.4,2.1-3.7,.4-1.4,1.4-1.5,2.3-2,1.2-.6,.9,.6,1.1,1.1,0,.2,0,.4,0,.5-.5,0-1.2,0-1.6,.2-.4,.2-.6,.9-.6,1.4,0,1.9,.1,3.6-2,4.5-.7,1.5-1.4,2.9-1.3,4.6,.3,3.2-.4,6.5,.7,9.6-1.1,1.4,0,3.4-.8,4.7-1,1.8-.5,3.9-1.5,5.7-.5,.9-.6,2-1,3-.2,.4-.3,.7,0,1,.3,.2,.5,.5,.8,.7,.3,.3,.6,.2,.8-.3,.7-1.6,1.3-3.3,2.1-4.9,.4-.8,1.3-1.3,1.8-2,.6-.8-.6-2.1,.7-2.7,1-2.3,2.2-4.5,3.1-6.8,.4-1-.2-2.1-.7-3.1-.2-.4,.2-1,.3-1.5,.9-3.2,1.1-6.3-1.3-9.1-.6-.7-.6-1.7,0-2.5,.6-.8,.8-1.6,.7-2.6Zm-19.5,14.3c-1.3,.3-2,1.4-2.8,2.3-.4,.5-.3,1.3-.4,2,0,.1,.1,.4,.2,.4,.7,.2,0,.7,.3,0,.9-1.3,1.7-2.6,2.5-3.9,.2-.3,0-.7,0-1.1,.7,0,1.5,.2,2-.5,.2-.3,.2-.7,.1-1-.1-.5-.4-.5-.8-.1-.5,.5-1.1,.9-1.2,1.7Zm5.5,24c-1.4,.7-1.8,2.1-2.1,3.4-.3,1.1-.6,2-1.4,2.7-1.1,.9-1.8,2.2-3.3,2.7-.6,.2-.3,1.1,.4,1.5,.7,.5,1.4,.5,1.9,0,.8-.9,1.3-2.1,2.1-3,1.9-2.1,2.6-4.6,2.3-7.4,.8,0,2.1,.3,2.1-.9,0-1.5,1.1-2.6,1.5-4,.2-.7,.6-1.3,.7-2,0-.5-.2-1-.4-1.5-.2,.2-.5,.4-.6,.7-1.1,2.6-2.2,5.2-3.3,7.8Zm-30.6-.4c0,.3,0,.9,0,1.4,0,.5,.3,1.1,1,.5,.7-.6,1.8-.5,2.2-1.5,.4-1.1,1.1-1.9,2.2-2.3,1.6-.5,.7-2.3,1.8-3.1,2.7-2,3.5-5.3,4.7-8.1,.6-1.5,.6-3.1,1.8-4.3,1-1,.7-2.4,.1-3.5,0-.2-.9-.4-.9-.3-.9,1.5-2.7,2.1-3.4,3.9-.6,1.7-1.5,3.4-2.7,4.6-2.3,2.4-3.7,5.3-5.6,7.9-1,1.5-1.2,2.9-1.3,4.7Zm7.7-22.7c-.1-.2-.2-.4-.3-.5,0,0-.3,0-.4,0-4.9,3.6-9,7.9-12.1,13.2-.6,1.1-1.1,2.3-2.4,2.7-1.1,.4-.3,1-.4,1.6-.2,1-.8,2-1.3,2.9-.2,.4-.3,.7,.2,.8,.3,0,.7,0,1-.1,1.3-.5,1.2-2.3,2.3-2.8,1.2-.6,2-1.3,2.6-2.6,.3-.7,1.1-1.5,1.8-1.8,1.1-.5,1.9-1.1,2.3-2.1,.5-1.3,1.4-2.1,2.3-2.9,2.2-2,3.2-4.7,4.4-7.3,.1-.3,0-.7,0-1Zm6.5-19.9c-.3-.4-.6-.8-1-1.2-.2-.2-.7-.3-.9-.2-2.4,1.4-5.3,2.1-6.5,5.1-.3,.8-1.2,1.3-1.7,2-.6,.9-1.1,1.8-1.6,2.8-.2,.5-.2,1.2,.4,1.4,.4,.1,1.2-.2,1.3-.5,.4-.9,1-1.3,2-1.5,4.1-.8,5.9-4.3,7.9-7.4,0-.1,0-.4,0-.6Zm2.1,44.5c0-.5,0-1,0-1.5,0-.3-.4-.9-.5-.8-.5,0-1.3,.3-1.3,.6-.4,2.4-2,4.1-3.5,5.8-1.4,1.5-1.5,3.2-.2,4.6,.8,.9,2.5,1,3.4,.2,1.2-1.1,1.7-2.7,2.1-4.2-1.2-1.5,.7-3,0-4.6Zm14.2-9.5c-.4-.4-.8-1-1.4-1.4-.2-.1-1,.4-1.2,.7-1.3,3.7-3.2,7.2-4.9,10.7-.5,1.1-.7,2.3-1,3.5,0,.2,.3,.7,.6,.7,.3,0,.8,0,.9-.2,.8-1.2,1.5-2.4,2.2-3.7,2.1-.5,1-2.9,2.4-3.9,.9-.7,1.3-1.6,1.4-2.8,0-1.2,.6-2.4,1-3.8Zm-2.4-24.6c-.8-.6-1.6-1.3-2.4-2,0,0-.3,.1-.5,.2-1.3,.9-1.5,2.8-3.2,3.6-1,.5-1.6,1.9-2.2,3-.6,1.1-.3,2.1,.6,2.9,.4,.3,.8,.9,1.3,.3,1.4-1.4,2.8-2.9,4.3-4.2,.9-.8,1.2-1.8,1.7-2.7,.1-.3,.2-.6,.3-1.1Zm6.7-11c0-.7-.4-1-1-1.1-1-.2-1.9,.1-2.4,.9-1.1,1.7-2,3.4-3.6,4.6-.2,.2-.3,.6-.4,1-.3,.7,.1,1.7,1.1,2.1,.7,.3,1.2,1.2,2.3,.3,2.6-2.1,2.7-5.3,4-7.9Zm-16.2,44.5c0,.6,0,.8,0,1,.1,.3,.3,.7,.4,1,.2-.2,.5-.4,.6-.7,.6-1.7,2.3-3,2.2-4.8-.2-1.9,1.3-3.3,1.2-5.2-.1-1.9,1.1-3.4,1.9-4.9,.2-.3,.1-.7,.1-1.1,0-.2,0-.4,0-.5,0-.2-.1-.4-.2-.4-.3,0-.7,0-.8,.1-1.1,1.9-2.2,3.7-3.1,5.6-1.4,3.3-1.2,7-2.4,9.9Zm-10.8,0c0,.1,0-.2,0-.6,0-.3-.2-.7-.4-.9-.1-.1-.6,0-.9,.2-1.6,1.4-2.5,3.4-4.5,4.5-.6,.3-.8,1.5-1.3,2.2-.5,.8,0,1.4,.5,1.8,.4,.3,1.1,.6,1.4,.4,1.5-.9,3.2-1.5,4.3-3,1-1.3,.6-2.7,.8-4.6Zm-27.4,3.8c.1,1.1,.2,2.1,.4,3.2,0,.2,.5,.5,.8,.5,.3,0,.7-.2,.8-.5,.4-1.1-.1-2.6,.9-3.6,.9-.9,1.4-1.8,.7-3.2-.4-.9,.7-1.6,1.4-2,1.6-.8,2-2.3,2.6-3.8,0-.1-.1-.3-.2-.4,0,0-.3,0-.4,0-.8,.7-1.6,1.4-2.3,2.2-.7,.7-1.3,.1-1.9-.1-.2,.8-.5,1.7-.7,2.5,0,.2-.1,.3-.3,.5-1.5,1.3-1.9,2.9-1.7,4.8Zm4.4,3c0,.6,0,.8,.1,.9,.1,.3,.3,.7,.5,.9,.3,.1,.9,0,1,0,.7-1.3,2.3-1.7,3.1-2.8,1.3-1.8,2.1-4,3.9-5.5,0,0,0-.3,0-.5,0-.1-.3-.3-.4-.3-2.3,.6-3.6,2.9-6.2,3-.3,0-.5,.4-.7,.7-.8,1.2-1.5,2.5-1.3,3.6Zm25.2-7.4c0,.2,0,1,.3,1.1,1,.4,.7-.8,1-1.2,1.2-1.5,2.2-3.3,3.6-4.7,1.7-1.6,1.8-3.8,2.6-5.7,0,0-.1-.3-.3-.4,0,0-.3,0-.4,0-2,1.8-3.8,3.7-5.3,6-1,1.5-1.5,2.8-1.4,4.8Zm-12,2.2c0-.8,0-1,0-1.1,0-.3-.1-.7-.4-.9-.1-.1-.7,0-.8,.3-.7,.8-1.7,1.6-1.8,2.5-.3,1.4-1,2.1-2.2,2.7-.8,.5-1.3,1.2-1.3,2.2,0,.3,0,.7,.3,1,.1,.1,.6,.1,.8,0,.8-.7,1.4-1.8,2.3-2.2,2.3-1,2.8-3,3.1-4.5Zm-15.5-10.6c-.1-.1-.3-.4-.4-.4-.3,0-.8,0-1,0-.3,.2-.4,.6-.6,.9-.8,1.4-1.3,2.9-2.5,4.1-1.2,1.3-.8,3.5-2.4,4.7-.4,.3-.3,.6,.2,.8s.4,0,.5,0c1.4-.6,2.6-1.6,2.9-3,.4-2.5,1.8-4.3,3.2-6.1,.2-.2,0-.7,0-1Zm54.8-22.3c-.1-.8-.3-1.9-.5-2.9,0-.2-.7-.4-.9-.3-.4,.3-.7,.7-1,1.1-.6,1-1.4,1-2.2,.3-.4-.3-.6-.3-.8,.2-.3,1,0,2.4,.6,2.3,1.7-.1,2.6,.8,3.7,1.8,.4,.4,.7,.3,.8-.2,.1-.7,.2-1.4,.3-2.3Zm-4.6,17.7c0-.5,0-1.1,0-1.6,0-.5-.3-.5-.6-.5-.7,.2,0-.2-.3,.4-.5,1.7-1.2,.3-1.9,.3-.3,0-.6,.2-1,.3,0,.3,.1,.6,.3,.8,.2,.3,.5,.5,.8,.7,.3,.2,.7,.2,1,.3,1.7,.8,1.7,.8,1.7-.8Zm1.2-9.3c0-.8,0-.9,0-1.1,0-.9,.3-2.4-.4-2.5-1-.1-.4,1.4-.8,2-.2,.3-.5,.5-.8,.6-1.1,.5-.9,.8,0,1.1,.5,.2,.9,.5,1,1.1,0,.3,.4,.4,.6,.7,0-.2,.3-.3,.3-.5,0-.7,.1-1.4,.1-1.6Zm4.3,.4c-.1-.3-.2-.6-.3-.9-.2,.2-.5,.4-.6,.6-.4,.6-.7,1.2-1,1.9-.1,.3,0,.8,.2,1,.6,.4,.8-.2,1.2-.5,.5-.5,.7-1.2,.6-2Zm-19,31.1c.6,0,1.5-1.2,1.5-2,0-.2-.1-.3-.2-.4,0,0-.3-.1-.4,0-.9,.4-1.4,1.3-1.2,2.2,0,.1,.2,.3,.3,.4Zm-.4-42.4c-.1,.6,.2,1,.7,1.1,.3,0,.7,0,.9-.3,.2-.4-.5-1.4-1-1.4-.2,0-.4,.4-.5,.6Zm5.2-6.8c-.1-.1-.3-.4-.3-.4-.3,.1-.7,.3-.9,.5-.6,.5-.5,1.2,0,1.2,.3,0,.7-.1,.9-.3,.2-.2,.2-.6,.3-1Z"/><path class="q" d="M423.1,232l-1.1,2.1c-1.3-.3-2.2,.8-3.3,1h0c.5-2.9,.9-3.1,4.3-3.1Z"/><path class="q" d="M418.6,237.4c-.6,0-.8,.4-.9,.9-.8,0-1.2-.5-1.7-1-.3-.3-.3-.6,0-.9,.7-.9,1.6-1.3,2.8-1.2h0c0,.7,0,1.4-.1,2.2Z"/></g></g><g id="n"><path class="q" d="M439.8,217c0-13.4,6.5-22.4,18.7-27.2,5.9-2.3,11.8-3.8,18.5-2.7,11.9,1.8,24.7,15.1,21,31.1-3,13-10.8,21.6-23.8,24.9-10.5,2.7-19.9-.5-27.6-7.7-5.1-4.8-6.9-11.4-6.8-18.4Zm43.4,14.3c-1.6-.2-1.9-.3-2.3-.3-9.4,1.7-16.7-2.2-19.3-9.9-1.2-3.6-2.3-7.2-3.1-10.9-.6-2.8,1.2-4.5,4.4-5,2-.3,3.3,.8,4,3.4,.4,1.4,.5,2.9,.9,4.3,1.2,4,2.2,8.1,5.3,11.2,2.4,2.4,6,3.2,8.4,1.8,3.9-2.2,8.6-11.1,7.9-15.4-1-6.3-3.9-11.7-9.3-15.4-3.2-2.1-6.5-4-10.6-1.9-.8,.4-1.8,.3-2.7,.4-8,1-13.7,4.9-16.7,12.7-2.2,5.6-2.4,11.3-.9,17.1,2,7.9,9.2,14.4,17.3,15.4,6.7,.9,11.8-2.1,16.6-7.4Z"/></g></svg>