<svg width="16" height="16" viewBox="0 0 16 16" fill="none" xmlns="http://www.w3.org/2000/svg">
<path d="M10.5 5.99994C11.8807 5.99994 13 4.88065 13 3.49994C13 2.11923 11.8807 0.999939 10.5 0.999939C9.11929 0.999939 8 2.11923 8 3.49994C8 4.88065 9.11929 5.99994 10.5 5.99994Z" stroke="#101212" stroke-width="2" stroke-linecap="round" stroke-linejoin="round"/>
<path d="M11.6667 9.98902H12.892C13.3117 9.98901 13.7208 10.137 14.0614 10.4121C14.4019 10.6872 14.6566 11.0754 14.7893 11.5217L15 12.2308L7.35467 14.868C6.6992 15.0938 5.99129 15.028 5.378 14.6841L1 12.2308V6.99994H1.66667C2.40333 6.99994 4.27067 7.32724 5 8.49448H7C7.70724 8.49448 8.38552 8.8094 8.88562 9.36996C9.38572 9.93052 9.66667 10.6908 9.66667 11.4836H5.66667" stroke="#101212" stroke-width="2" stroke-linecap="round" stroke-linejoin="round"/>
</svg>
