<svg width="20" height="16" viewBox="0 0 20 16" fill="none" xmlns="http://www.w3.org/2000/svg">
<path d="M19.987 14.8729C19.987 14.6101 19.761 14.3848 19.4974 14.3848C18.0036 14.3848 16.5223 14.197 15.1288 13.7214C14.3882 13.4711 13.6601 13.0956 13.045 12.5949C14.338 11.4809 15.4427 10.1667 16.221 8.63966C16.6101 7.86362 16.924 6.98746 16.811 6.09878C16.6352 4.80956 15.5682 4.05856 14.3129 3.98346C12.2792 3.82074 10.5092 4.99731 9.64305 6.79971C9.21624 7.67587 9.02794 8.66469 9.09071 9.64099C9.14092 10.7049 9.51752 11.7062 10.1075 12.5574C8.58858 13.5086 6.85622 14.1094 5.08621 14.1219C4.64684 14.1219 4.19492 14.0969 3.76811 14.0093C3.3664 13.9217 2.9647 13.759 2.67597 13.4711C2.08597 12.8578 2.17384 11.9566 2.37469 11.143C2.86427 9.39065 3.96896 7.82607 5.19919 6.48679C6.3792 5.22261 8.099 3.80823 9.86901 3.37015C10.4214 3.23246 10.8231 2.76935 10.9109 2.2061C10.936 1.99331 10.9612 1.78053 10.9612 1.55523C10.9612 1.32993 10.9235 0.954432 10.8858 0.691582C10.8105 0.266016 10.4214 -0.0343833 9.98199 0.00316664C9.6305 0.0281999 9.27901 0.0907832 8.94007 0.1784C6.80601 0.754166 5.01089 2.25616 3.59236 3.88333C1.79724 5.96109 0.102547 8.9025 0.00212028 11.7062C-0.0480929 13.5337 0.792978 15.0982 2.5881 15.699C3.21576 15.9118 3.88109 15.9869 4.53386 15.9994C6.95665 16.0245 9.30412 15.1984 11.3126 13.8966C11.7269 14.2471 12.1914 14.5475 12.681 14.7853C14.6644 15.7992 16.924 15.9994 19.1082 15.9744C19.2212 15.9744 19.3593 15.9744 19.4974 15.9744C19.7736 15.9744 20.0121 15.7491 19.9995 15.4737V14.8729H19.987ZM11.5261 10.2668C11.1746 8.73979 11.9529 6.88732 13.522 6.43673C13.7856 6.36163 14.0744 6.32408 14.3505 6.33659C14.4133 6.33659 14.4761 6.34911 14.5263 6.36163C14.5765 6.37414 14.6016 6.38666 14.6393 6.42421C14.7271 6.51183 14.6895 6.72461 14.6769 6.88732C14.6142 7.31289 14.4384 7.78852 14.225 8.18906C13.635 9.278 12.819 10.3169 11.865 11.1931C11.7143 10.9052 11.6014 10.5923 11.5261 10.2668Z" fill="#101212"/>
</svg>
