<svg width="24" height="24" viewBox="0 0 24 24" fill="none" xmlns="http://www.w3.org/2000/svg">
<path d="M19 3.5V1.5C19 1.23478 18.8946 0.98043 18.7071 0.792893C18.5196 0.605357 18.2652 0.5 18 0.5C17.7348 0.5 17.4804 0.605357 17.2929 0.792893C17.1054 0.98043 17 1.23478 17 1.5V3.5H19Z" fill="#101212"/>
<path d="M7 3.5V1.5C7 1.23478 6.89464 0.98043 6.70711 0.792893C6.51957 0.605357 6.26522 0.5 6 0.5C5.73478 0.5 5.48043 0.605357 5.29289 0.792893C5.10536 0.98043 5 1.23478 5 1.5V3.5H7Z" fill="#101212"/>
<path d="M21 23.5H3C2.20435 23.5 1.44129 23.1839 0.87868 22.6213C0.31607 22.0587 0 21.2956 0 20.5L0 7.5C0 6.70435 0.31607 5.94129 0.87868 5.37868C1.44129 4.81607 2.20435 4.5 3 4.5H21C21.7956 4.5 22.5587 4.81607 23.1213 5.37868C23.6839 5.94129 24 6.70435 24 7.5V20.5C24 21.2956 23.6839 22.0587 23.1213 22.6213C22.5587 23.1839 21.7956 23.5 21 23.5ZM22 9.5H2V20.5C2 20.7652 2.10536 21.0196 2.29289 21.2071C2.48043 21.3946 2.73478 21.5 3 21.5H21C21.2652 21.5 21.5196 21.3946 21.7071 21.2071C21.8946 21.0196 22 20.7652 22 20.5V9.5Z" fill="#101212"/>
<path d="M8 11.5H4V14.5H8V11.5Z" fill="#101212"/>
<path d="M14 11.5H10V14.5H14V11.5Z" fill="#101212"/>
<path d="M8 16.5H4V19.5H8V16.5Z" fill="#101212"/>
<path d="M14 16.5H10V19.5H14V16.5Z" fill="#101212"/>
<path d="M20 11.5H16V14.5H20V11.5Z" fill="#101212"/>
</svg>
