<svg width="20" height="20" viewBox="0 0 20 20" fill="none" xmlns="http://www.w3.org/2000/svg">
<path d="M18.2809 8.9409L10.5777 1.2393C10.4245 1.08605 10.2168 0.999836 10.0001 0.999573H1.81819C1.60119 0.999573 1.39308 1.08577 1.23964 1.23921C1.0862 1.39265 1 1.60076 1 1.81776V9.99963C1.00005 10.2166 1.08628 10.4247 1.23973 10.5781L8.94132 18.2813C9.16926 18.5093 9.43986 18.6901 9.73769 18.8135C10.0355 18.9369 10.3547 19.0004 10.6771 19.0004C10.9995 19.0004 11.3187 18.9369 11.6165 18.8135C11.9144 18.6901 12.185 18.5093 12.4129 18.2813L18.2809 12.4133C18.5089 12.1853 18.6897 11.9147 18.8131 11.6169C18.9365 11.3191 19 10.9999 19 10.6775C19 10.3551 18.9365 10.0359 18.8131 9.73808C18.6897 9.44025 18.5089 9.16965 18.2809 8.94171V8.9409ZM6.72731 8.36326C6.40367 8.36326 6.08729 8.26728 5.81819 8.08748C5.54909 7.90767 5.33935 7.6521 5.2155 7.35309C5.09164 7.05409 5.05924 6.72507 5.12238 6.40764C5.18552 6.09022 5.34137 5.79864 5.57022 5.56979C5.79907 5.34094 6.09064 5.18509 6.40807 5.12195C6.72549 5.05881 7.05451 5.09122 7.35352 5.21507C7.65253 5.33892 7.9081 5.54866 8.0879 5.81776C8.26771 6.08686 8.36368 6.40324 8.36368 6.72688C8.36368 7.16088 8.19128 7.57709 7.8844 7.88397C7.57752 8.19085 7.1613 8.36326 6.72731 8.36326Z" fill="#101212"/>
</svg>
