<?xml version="1.0" standalone="no"?>
<!DOCTYPE svg PUBLIC "-//W3C//DTD SVG 20010904//EN"
 "http://www.w3.org/TR/2001/REC-SVG-20010904/DTD/svg10.dtd">
<svg version="1.0" xmlns="http://www.w3.org/2000/svg"
 width="319.000000pt" height="319.000000pt" viewBox="0 0 319.000000 319.000000"
 preserveAspectRatio="xMidYMid meet">
<metadata>
Created by potrace 1.14, written by Peter Selinger 2001-2017
</metadata>
<g transform="translate(0.000000,319.000000) scale(0.100000,-0.100000)"
fill="#000000" stroke="none">
<path d="M1540 2868 c-19 -4 -53 -10 -75 -13 -21 -4 -47 -11 -57 -16 -10 -5
-18 -8 -18 -5 0 11 -178 -66 -265 -114 -382 -212 -779 -672 -983 -1141 -46
-106 -93 -244 -106 -309 -3 -14 -8 -36 -11 -50 -50 -223 -21 -471 73 -616 125
-190 320 -283 602 -287 125 -2 281 7 312 18 7 2 27 6 43 8 75 11 246 61 351
102 136 54 369 174 385 198 4 5 37 -13 74 -41 157 -119 437 -223 693 -256 23
-3 59 -8 80 -11 74 -10 178 -15 341 -17 l165 -1 22 26 c19 22 22 36 19 99 -3
100 -2 96 -29 114 -18 11 -56 17 -133 19 -139 5 -220 14 -373 40 -96 16 -287
79 -375 123 -72 36 -185 108 -185 119 0 3 45 50 100 104 222 220 407 499 465
702 64 223 11 400 -153 504 -78 50 -174 72 -302 68 -116 -3 -117 -4 -209 -35
-332 -112 -548 -441 -545 -830 2 -152 25 -247 99 -395 l54 -110 -22 -17 c-79
-61 -373 -180 -497 -202 -19 -3 -46 -8 -60 -11 -87 -18 -232 -23 -340 -12
-292 28 -385 199 -284 522 35 110 111 261 190 380 55 83 123 175 144 195 3 3
18 21 34 40 85 106 249 259 389 362 80 60 307 185 348 192 117 20 203 83 228
166 17 55 22 197 9 267 -10 56 -51 109 -90 117 -52 11 -75 12 -108 4z m784
-1021 c16 -8 18 -17 12 -68 -12 -124 -112 -312 -263 -499 -82 -102 -172 -192
-183 -185 -5 3 -21 43 -35 88 -61 191 -17 396 115 540 92 101 273 164 354 124z"/>
</g>
</svg>
