<?xml version="1.0" encoding="UTF-8" standalone="no"?>
<!DOCTYPE svg PUBLIC "-//W3C//DTD SVG 1.1//EN" "http://www.w3.org/Graphics/SVG/1.1/DTD/svg11.dtd">
<svg width="100%" height="100%" viewBox="0 0 16 16" version="1.1" xmlns="http://www.w3.org/2000/svg" xmlns:xlink="http://www.w3.org/1999/xlink" xml:space="preserve" xmlns:serif="http://www.serif.com/" style="fill-rule:evenodd;clip-rule:evenodd;stroke-linejoin:round;stroke-miterlimit:2;">
    <g transform="matrix(0.00496224,2.07754e-34,2.07754e-34,-0.00496224,0.105913,15.7384)">
        <path d="M1540,2868C1521,2864 1487,2858 1465,2855C1444,2851 1418,2844 1408,2839C1398,2834 1390,2831 1390,2834C1390,2845 1212,2768 1125,2720C743,2508 346,2048 142,1579C96,1473 49,1335 36,1270C33,1256 28,1234 25,1220C-25,997 4,749 98,604C223,414 418,321 700,317C825,315 981,324 1012,335C1019,337 1039,341 1055,343C1130,354 1301,404 1406,445C1542,499 1775,619 1791,643C1795,648 1828,630 1865,602C2022,483 2302,379 2558,346C2581,343 2617,338 2638,335C2712,325 2816,320 2979,318L3144,317L3166,343C3185,365 3188,379 3185,442C3182,542 3183,538 3156,556C3138,567 3100,573 3023,575C2884,580 2803,589 2650,615C2554,631 2363,694 2275,738C2203,774 2090,846 2090,857C2090,860 2135,907 2190,961C2412,1181 2597,1460 2655,1663C2719,1886 2666,2063 2502,2167C2424,2217 2328,2239 2200,2235C2084,2232 2083,2231 1991,2200C1659,2088 1443,1759 1446,1370C1448,1218 1471,1123 1545,975L1599,865L1577,848C1498,787 1204,668 1080,646C1061,643 1034,638 1020,635C933,617 788,612 680,623C388,651 295,822 396,1145C431,1255 507,1406 586,1525C641,1608 709,1700 730,1720C733,1723 748,1741 764,1760C849,1866 1013,2019 1153,2122C1233,2182 1460,2307 1501,2314C1618,2334 1704,2397 1729,2480C1746,2535 1751,2677 1738,2747C1728,2803 1687,2856 1648,2864C1596,2875 1573,2876 1540,2868ZM2324,1847C2340,1839 2342,1830 2336,1779C2324,1655 2224,1467 2073,1280C1991,1178 1901,1088 1890,1095C1885,1098 1869,1138 1855,1183C1794,1374 1838,1579 1970,1723C2062,1824 2243,1887 2324,1847Z" style="fill-rule:nonzero;"/>
    </g>
</svg>
