<svg width="20" height="20" viewBox="0 0 20 20" fill="none" xmlns="http://www.w3.org/2000/svg">
<path d="M12 9C14.2091 9 16 7.20914 16 5C16 2.79086 14.2091 1 12 1C9.79086 1 8 2.79086 8 5C8 7.20914 9.79086 9 12 9Z" stroke="#101212" stroke-width="2" stroke-linecap="round" stroke-linejoin="round"/>
<path d="M14.7143 13.3627H16.2897C16.8294 13.3627 17.3554 13.5292 17.7932 13.8387C18.231 14.1481 18.5584 14.5848 18.7291 15.087L19 15.8848L9.17029 18.8515C8.32754 19.1056 7.41738 19.0316 6.62886 18.6447L1 15.8848V10H1.85714C2.80429 10 5.20514 10.3682 6.14286 11.6814H8.71429C9.6236 11.6814 10.4957 12.0356 11.1387 12.6663C11.7816 13.2969 12.1429 14.1522 12.1429 15.0441H7" stroke="#101212" stroke-width="2" stroke-linecap="round" stroke-linejoin="round"/>
<path d="M12 4.25V5.75" stroke="#101212" stroke-width="2" stroke-linecap="round" stroke-linejoin="round"/>
</svg>
