<svg width="24" height="24" viewBox="0 0 24 24" fill="none" xmlns="http://www.w3.org/2000/svg">
<g clip-path="url(#clip0_595_470)">
<path fill-rule="evenodd" clip-rule="evenodd" d="M0 11.2198C0 7.08923 1.97427 3.40518 5.15503 1.17242C6.25184 0.390959 8.11643 0.167683 8.77451 1.17242C9.35194 1.87769 9.0782 2.76861 8.81748 3.61712C8.58297 4.38035 8.359 5.10928 8.77451 5.63794C9.80629 6.89815 11.3476 6.40484 13.2501 5.79593C15.3925 5.11024 17.9929 4.27797 20.8395 5.63794C24.6783 7.64742 24.1299 12.6711 23.6912 14.569C22.2653 19.7043 17.549 23.5 12.065 23.5C5.37439 23.5 0 18.0297 0 11.2198ZM15 11C15 9.33335 16.3529 8 18 8C19.6471 8 21 9.33335 21 11C21 12.6666 19.6471 14 18 14C16.3529 14 15 12.6666 15 11ZM6 9C4.89543 9 4 9.89543 4 11C4 12.1046 4.89543 13 6 13C7.10457 13 8 12.1046 8 11C8 9.89543 7.10457 9 6 9ZM6 16.5C6 15.3954 6.89543 14.5 8 14.5C9.10457 14.5 10 15.3954 10 16.5C10 17.6046 9.10457 18.5 8 18.5C6.89543 18.5 6 17.6046 6 16.5ZM14 15C12.8954 15 12 15.8954 12 17C12 18.1046 12.8954 19 14 19C15.1046 19 16 18.1046 16 17C16 15.8954 15.1046 15 14 15Z" fill="#101212"/>
<circle cx="18" cy="11" r="1.5" fill="#101212"/>
</g>
<defs>
<clipPath id="clip0_595_470">
<rect width="24" height="24" fill="white"/>
</clipPath>
</defs>
</svg>
