<svg width="16" height="16" viewBox="0 0 16 16" fill="none" xmlns="http://www.w3.org/2000/svg">
<path d="M7.0752 6.12495L11.6201 1.58001C11.804 1.39612 12.0222 1.25026 12.2624 1.15074C12.5026 1.05122 12.7601 1 13.0201 1C13.2801 1 13.5376 1.05122 13.7778 1.15074C14.018 1.25026 14.2362 1.39612 14.4201 1.58001C14.6039 1.76383 14.7498 1.98208 14.8493 2.22229C14.9488 2.4625 15.0001 2.71996 15.0001 2.97996C15.0001 3.23997 14.9488 3.49743 14.8493 3.73764C14.7498 3.97785 14.6039 4.1961 14.4201 4.37992L9.89625 8.90372" stroke="#101212" stroke-width="2" stroke-linecap="round" stroke-linejoin="round"/>
<path d="M5.91665 13.3835C5.00481 14.2944 1 15 1 15C1 15 1.70558 10.9952 2.61648 10.0834C3.05411 9.64573 3.64767 9.39987 4.26657 9.39987C4.88547 9.39987 5.47902 9.64573 5.91665 10.0834C6.35428 10.521 6.60014 11.1145 6.60014 11.7334C6.60014 12.3523 6.35428 12.9459 5.91665 13.3835V13.3835Z" stroke="#101212" stroke-width="2" stroke-linecap="round" stroke-linejoin="round"/>
</svg>
