<svg width="16" height="16" viewBox="0 0 16 16" fill="none" xmlns="http://www.w3.org/2000/svg">
<g clip-path="url(#clip0_595_500)">
<path d="M7.0752 6.12495L11.6201 1.58001C11.804 1.39612 12.0222 1.25026 12.2624 1.15074C12.5026 1.05122 12.7601 1 13.0201 1C13.2801 1 13.5376 1.05122 13.7778 1.15074C14.018 1.25026 14.2362 1.39612 14.4201 1.58001C14.6039 1.76383 14.7498 1.98208 14.8493 2.22229C14.9488 2.4625 15.0001 2.71996 15.0001 2.97996C15.0001 3.23997 14.9488 3.49743 14.8493 3.73764C14.7498 3.97785 14.6039 4.1961 14.4201 4.37992L9.89625 8.90372" stroke="#101212" stroke-width="2" stroke-linecap="round" stroke-linejoin="round"/>
<path d="M6.14566 13.9794C5.00589 15.118 0 16 0 16C0 16 0.881952 10.9941 2.02056 9.85434C2.56758 9.30732 3.3095 9 4.08311 9C4.85672 9 5.59864 9.30732 6.14566 9.85434C6.69269 10.4014 7 11.1433 7 11.9169C7 12.6905 6.69269 13.4324 6.14566 13.9794Z" fill="#101212"/>
</g>
<defs>
<clipPath id="clip0_595_500">
<rect width="16" height="16" fill="white"/>
</clipPath>
</defs>
</svg>
