<svg width="12" height="12" viewBox="0 0 12 12" fill="none" xmlns="http://www.w3.org/2000/svg">
<path d="M4.25 7C4.80228 7 5.25 6.55229 5.25 6C5.25 5.44772 4.80228 5 4.25 5C3.69772 5 3.25 5.44772 3.25 6C3.25 6.55229 3.69772 7 4.25 7Z" fill="#101212"/>
<path d="M7.75 7C8.30228 7 8.75 6.55229 8.75 6C8.75 5.44772 8.30228 5 7.75 5C7.19772 5 6.75 5.44772 6.75 6C6.75 6.55229 7.19772 7 7.75 7Z" fill="#101212"/>
<path d="M6 11C8.76142 11 11 8.76142 11 6C11 3.23858 8.76142 1 6 1C3.23858 1 1 3.23858 1 6C1 8.76142 3.23858 11 6 11Z" stroke="#101212" stroke-width="2" stroke-linecap="round" stroke-linejoin="round"/>
</svg>
