<svg width="12" height="12" viewBox="0 0 12 12" fill="none" xmlns="http://www.w3.org/2000/svg">
<g clip-path="url(#clip0_145_1471)">
<path fill-rule="evenodd" clip-rule="evenodd" d="M12 6C12 9.31371 9.31371 12 6 12C2.68629 12 0 9.31371 0 6C0 2.68629 2.68629 0 6 0C9.31371 0 12 2.68629 12 6ZM4 7.5C4.69036 7.5 5.25 6.94036 5.25 6.25C5.25 5.55964 4.69036 5 4 5C3.30964 5 2.75 5.55964 2.75 6.25C2.75 6.94036 3.30964 7.5 4 7.5ZM8 7.5C8.69036 7.5 9.25 6.94036 9.25 6.25C9.25 5.55964 8.69036 5 8 5C7.30964 5 6.75 5.55964 6.75 6.25C6.75 6.94036 7.30964 7.5 8 7.5Z" fill="#101212"/>
</g>
<defs>
<clipPath id="clip0_145_1471">
<rect width="12" height="12" fill="white"/>
</clipPath>
</defs>
</svg>
