<svg width="16" height="16" viewBox="0 0 16 16" fill="none" xmlns="http://www.w3.org/2000/svg">
<path d="M9.5 11.5C10.3284 11.5 11 10.8284 11 10C11 9.17157 10.3284 8.5 9.5 8.5C8.67157 8.5 8 9.17157 8 10C8 10.8284 8.67157 11.5 9.5 11.5Z" stroke="#101212" stroke-width="2" stroke-linecap="round" stroke-linejoin="round"/>
<path d="M1 2.86667V13.1333C1 13.6284 1.19667 14.1032 1.54673 14.4533C1.8968 14.8033 2.3716 15 2.86667 15H15V4.73333H2.86667C2.3716 4.73333 1.8968 4.53667 1.54673 4.1866C1.19667 3.83653 1 3.36174 1 2.86667ZM1 2.86667C1 2.3716 1.19667 1.8968 1.54673 1.54673C1.8968 1.19667 2.3716 1 2.86667 1C6.14707 1 7.98626 1 11.2667 1V3.86667" stroke="#101212" stroke-width="2" stroke-linecap="round" stroke-linejoin="round"/>
</svg>
