<svg width="12" height="12" viewBox="0 0 12 12" fill="none" xmlns="http://www.w3.org/2000/svg">
<path d="M11.85 0.0360142C11.8045 0.0170401 11.7544 0.0119481 11.706 0.0213786C11.6576 0.0308091 11.613 0.0543409 11.578 0.0890142L10.057 1.59401C8.95465 0.566561 7.50288 -0.00328103 5.99597 1.42122e-05C4.97323 1.42122e-05 3.96747 0.261446 3.07419 0.759484C2.1809 1.25752 1.42975 1.97563 0.892068 2.84563C0.354382 3.71562 0.048007 4.70862 0.00203666 5.73032C-0.0439337 6.75203 0.172026 7.76853 0.629409 8.6833C1.08679 9.59806 1.77042 10.3807 2.61536 10.957C3.46031 11.5332 4.43853 11.8839 5.45714 11.9758C6.47575 12.0676 7.50092 11.8976 8.43532 11.4818C9.36973 11.066 10.1823 10.4182 10.796 9.60001C10.9551 9.38784 11.0234 9.12114 10.9859 8.85859C10.9484 8.59604 10.8081 8.35914 10.596 8.20001C10.4909 8.12122 10.3714 8.06389 10.2442 8.0313C10.1169 7.99871 9.98455 7.99149 9.85455 8.01007C9.592 8.04757 9.3551 8.18784 9.19597 8.40001C8.78688 8.94547 8.24514 9.37731 7.62221 9.65451C6.99927 9.93172 6.31582 10.0451 5.63675 9.98385C4.95768 9.92262 4.30553 9.68882 3.74223 9.30466C3.17893 8.92049 2.72319 8.39871 2.41826 7.78887C2.11334 7.17902 1.96937 6.50136 2.00002 5.82022C2.03066 5.13908 2.23491 4.47709 2.59337 3.89709C2.95183 3.31709 3.45259 2.83835 4.04811 2.50633C4.64364 2.1743 5.31415 2.00001 5.99597 2.00001C6.96766 1.99813 7.90603 2.35411 8.63197 3.00001L6.93697 4.68101C6.90372 4.71424 6.88047 4.75613 6.86987 4.80192C6.85926 4.84771 6.86172 4.89556 6.87697 4.94001C6.89236 4.98473 6.92021 5.02412 6.95724 5.05353C6.99427 5.08294 7.03893 5.10115 7.08597 5.10601L11.726 5.62001H11.754C11.7869 5.62028 11.8195 5.614 11.85 5.60153C11.8804 5.58906 11.9081 5.57065 11.9313 5.54738C11.9546 5.52412 11.973 5.49645 11.9855 5.466C11.998 5.43555 12.0042 5.40292 12.004 5.37001V0.267014C12.0039 0.217631 11.9892 0.169374 11.9618 0.128284C11.9344 0.0871946 11.8955 0.0550986 11.85 0.0360142Z" fill="#101212"/>
</svg>
