<svg width="12" height="24" viewBox="0 0 12 24" fill="none" xmlns="http://www.w3.org/2000/svg">
<path d="M12 21.3807L11.6096 22.762C10.2852 23.2125 5.69697 25.1026 3.05072 23.0913C2.2622 22.4932 1.86794 21.7332 1.86794 20.8124C1.86794 19.0864 2.52632 17.5817 3.70781 13.9689C3.91579 13.2871 4.17097 12.4004 4.17097 11.6976C4.17097 10.486 3.63892 10.1633 2.1933 10.1633C1.48772 10.1633 0.706858 10.3803 0 10.6083L0.391706 9.22703C1.96746 8.67409 3.94641 7.99998 5.6421 7.99998C8.18501 7.99998 10.0542 9.09485 10.0542 11.1766C10.0542 11.777 9.93429 12.8278 9.68166 13.5547L8.21946 18.0201C7.91834 18.9233 7.3697 20.9126 8.21691 21.503C9.05263 22.0857 11.0265 21.7773 12 21.3807Z" fill="#101212"/>
<path d="M9 6C10.6569 6 12 4.65685 12 3C12 1.34315 10.6569 0 9 0C7.34315 0 6 1.34315 6 3C6 4.65685 7.34315 6 9 6Z" fill="#101212"/>
</svg>
