<svg width="24" height="24" viewBox="0 0 24 24" fill="none" xmlns="http://www.w3.org/2000/svg">
<path d="M1.39807 10.798L3.97507 12.75L12.9751 8.75004L5.99807 14.249V20.998C5.99829 21.203 6.06149 21.403 6.17913 21.5709C6.29677 21.7388 6.46317 21.8664 6.65578 21.9366C6.84839 22.0068 7.05791 22.016 7.25597 21.9632C7.45403 21.9103 7.63105 21.7979 7.76307 21.641L10.8931 17.922L17.3981 22.798C17.533 22.8995 17.6914 22.9652 17.8585 22.9889C18.0257 23.0126 18.1961 22.9937 18.3539 22.9338C18.5118 22.8739 18.6519 22.775 18.7612 22.6463C18.8705 22.5177 18.9454 22.3635 18.9791 22.198L22.9791 2.19804C23.0145 2.02136 23.0015 1.83839 22.9415 1.66848C22.8815 1.49857 22.7767 1.34803 22.6382 1.23278C22.4997 1.11752 22.3326 1.04183 22.1546 1.01372C21.9766 0.985597 21.7944 1.00609 21.6271 1.07304L1.62707 9.07304C1.46301 9.13923 1.31944 9.24776 1.21101 9.38756C1.10259 9.52737 1.0332 9.69343 1.00992 9.86881C0.986636 10.0442 1.0103 10.2226 1.07849 10.3858C1.14668 10.5491 1.25696 10.6913 1.39807 10.798Z" fill="#101212"/>
</svg>
