<svg width="24" height="20" viewBox="0 0 24 20" fill="none" xmlns="http://www.w3.org/2000/svg">
<path d="M23.9844 18.2476C23.9844 17.9321 23.7132 17.6618 23.3969 17.6618C21.6043 17.6618 19.8267 17.4365 18.1546 16.8657C17.2658 16.5653 16.3921 16.1147 15.654 15.5139C17.2056 14.1771 18.5312 12.6 19.4652 10.7676C19.9322 9.83637 20.3088 8.78497 20.1732 7.71856C19.9623 6.1715 18.6819 5.2703 17.1755 5.18018C14.7351 4.98492 12.6111 6.3968 11.5717 8.55968C11.0595 9.61107 10.8335 10.7977 10.9089 11.9692C10.9691 13.2459 11.421 14.4475 12.129 15.4689C10.3063 16.6104 8.22747 17.3313 6.10345 17.3464C5.57621 17.3464 5.03391 17.3163 4.52173 17.2112C4.03969 17.106 3.55764 16.9108 3.21117 16.5653C2.50316 15.8293 2.60861 14.7479 2.84963 13.7716C3.43713 11.6688 4.76276 9.79131 6.23902 8.18418C7.65504 6.66716 9.7188 4.9699 11.8428 4.4442C12.5056 4.27898 12.9877 3.72324 13.0931 3.04734C13.1233 2.792 13.1534 2.53666 13.1534 2.2663C13.1534 1.99594 13.1082 1.54534 13.063 1.22992C12.9726 0.719244 12.5056 0.358764 11.9784 0.403824C11.5566 0.433864 11.1348 0.508964 10.7281 0.614104C8.16721 1.30502 6.01306 3.10742 4.31084 5.06002C2.15669 7.55334 0.123056 11.083 0.00254434 14.4475C-0.0577115 16.6404 0.951574 18.5179 3.10572 19.2389C3.85892 19.4942 4.65731 19.5843 5.44063 19.5994C8.34798 19.6294 11.1649 18.6381 13.5752 17.076C14.0723 17.4966 14.6296 17.857 15.2171 18.1424C17.5972 19.359 20.3088 19.5994 22.9299 19.5693C23.0655 19.5693 23.2312 19.5693 23.3969 19.5693C23.7283 19.5693 24.0145 19.299 23.9994 18.9685V18.2476H23.9844ZM13.8313 12.7202C13.4095 10.8878 14.3434 8.66481 16.2264 8.12409C16.5428 8.03398 16.8892 7.98892 17.2206 8.00394C17.296 8.00394 17.3713 8.01896 17.4315 8.03398C17.4918 8.049 17.5219 8.06402 17.5671 8.10908C17.6726 8.21422 17.6274 8.46955 17.6123 8.66481C17.537 9.17549 17.3261 9.74625 17.07 10.2269C16.362 11.5336 15.3828 12.7803 14.238 13.8317C14.0572 13.4862 13.9216 13.1107 13.8313 12.7202Z" fill="#101212"/>
</svg>
