<svg width="24" height="24" viewBox="0 0 24 24" fill="none" xmlns="http://www.w3.org/2000/svg">
<g clip-path="url(#clip0_267_649)">
<path fill-rule="evenodd" clip-rule="evenodd" d="M5 10C3.34315 10 2 11.3431 2 13V21C2 22.6569 3.34315 24 5 24H19C20.6569 24 22 22.6569 22 21V13C22 11.3431 20.6569 10 19 10H5ZM11 17.0001C11 16.4478 11.4477 16.0001 12 16.0001C12.5523 16.0001 13 16.4478 13 17.0001C13 17.5524 12.5523 18.0001 12 18.0001C11.4477 18.0001 11 17.5524 11 17.0001ZM12 14.0001C10.3431 14.0001 9 15.3433 9 17.0001C9 18.657 10.3431 20.0001 12 20.0001C13.6569 20.0001 15 18.657 15 17.0001C15 15.3433 13.6569 14.0001 12 14.0001Z" fill="#101212"/>
<path fill-rule="evenodd" clip-rule="evenodd" d="M12.0047 0.000123415H12.1103C13.6882 0.0163001 15.195 0.658566 16.2995 1.78559C17.4028 2.91137 18.0143 4.42881 18 6.00486V7.00012C18 7.55241 17.5523 8.00012 17 8.00012C16.4477 8.00012 16 7.55241 16 7.00012V5.99017C16.0104 4.94256 15.6044 3.9337 14.8711 3.18545C14.1389 2.43834 13.1404 2.01213 12.0946 2.00012H11.99C10.9424 1.9897 9.93358 2.39573 9.18532 3.12902C8.43822 3.86118 8.012 4.85969 8 5.90554V7.00012C8 7.55241 7.55228 8.00012 7 8.00012C6.44772 8.00012 6 7.55241 6 7.00012V5.88987C6.01618 4.31196 6.65844 2.80508 7.78547 1.7006C8.91125 0.597329 10.4287 -0.014183 12.0047 0.000123415Z" fill="#101212"/>
</g>
<defs>
<clipPath id="clip0_267_649">
<rect width="24" height="24" fill="white"/>
</clipPath>
</defs>
</svg>
