<svg width="20" height="20" viewBox="0 0 20 20" fill="none" xmlns="http://www.w3.org/2000/svg">
<path fill-rule="evenodd" clip-rule="evenodd" d="M10.0413 0C4.51857 0 0 4.6123 0 10.2495C0 14.7764 2.84503 18.62 6.86153 19.9866C7.3636 20.072 7.53095 19.7304 7.53095 19.4741C7.53095 19.2179 7.53095 18.62 7.53095 17.7659C4.7696 18.3638 4.18386 16.3993 4.18386 16.3993C3.76547 15.2035 3.09606 14.8618 3.09606 14.8618C2.09193 14.264 3.09606 14.264 3.09606 14.264C4.10018 14.3494 4.60225 15.2889 4.60225 15.2889C5.5227 16.8263 6.94521 16.3993 7.53095 16.143C7.61463 15.4597 7.86566 15.0327 8.20037 14.7764C5.94108 14.5202 3.59812 13.6661 3.59812 9.73707C3.59812 8.6267 4.01651 7.68716 4.60225 7.00386C4.60225 6.66221 4.18386 5.63725 4.7696 4.27065C4.7696 4.27065 5.60637 4.01441 7.53095 5.2956C8.36772 5.03936 9.20449 4.95395 10.0413 4.95395C10.878 4.95395 11.7148 5.03936 12.5516 5.2956C14.4762 3.92899 15.3129 4.27065 15.3129 4.27065C15.8987 5.72267 15.4803 6.74762 15.3966 7.00386C16.066 7.68716 16.4007 8.6267 16.4007 9.73707C16.4007 13.6661 14.0578 14.5202 11.7985 14.7764C12.1332 15.1181 12.4679 15.716 12.4679 16.6555C12.4679 18.0221 12.4679 19.1325 12.4679 19.4741C12.4679 19.7304 12.6353 20.072 13.1373 19.9866C17.1538 18.62 19.9989 14.7764 19.9989 10.2495C20.0825 4.6123 15.564 0 10.0413 0Z" fill="#101212"/>
</svg>
