<svg width="16" height="16" viewBox="0 0 16 16" fill="none" xmlns="http://www.w3.org/2000/svg">
<path fill-rule="evenodd" clip-rule="evenodd" d="M4.45508 5.45453C4.45508 4.90224 4.90279 4.45453 5.45508 4.45453H10.546C11.0983 4.45453 11.546 4.90224 11.546 5.45453V10.5454C11.546 11.0977 11.0983 11.5454 10.546 11.5454H5.45508C4.90279 11.5454 4.45508 11.0977 4.45508 10.5454V5.45453Z" fill="#101212"/>
<path d="M6.65508 1H5.45508V2.2" stroke="#101212" stroke-width="2" stroke-linecap="round" stroke-linejoin="round"/>
<path d="M14.9998 2.2V1H13.7998" stroke="#101212" stroke-width="2" stroke-linecap="round" stroke-linejoin="round"/>
<path d="M13.7998 10.54H14.9998V9.34" stroke="#101212" stroke-width="2" stroke-linecap="round" stroke-linejoin="round"/>
<path d="M9.47656 1H10.9766" stroke="#101212" stroke-width="2" stroke-linecap="round" stroke-linejoin="round"/>
<path d="M15 5.02274V6.52274" stroke="#101212" stroke-width="2" stroke-linecap="round" stroke-linejoin="round"/>
<path d="M1 6.65453V5.45453H2.2" stroke="#101212" stroke-width="2" stroke-linecap="round" stroke-linejoin="round"/>
<path d="M2.2 15H1V13.8" stroke="#101212" stroke-width="2" stroke-linecap="round" stroke-linejoin="round"/>
<path d="M10.4002 13.8V15H9.2002" stroke="#101212" stroke-width="2" stroke-linecap="round" stroke-linejoin="round"/>
<path d="M1 9.47729V10.9773" stroke="#101212" stroke-width="2" stroke-linecap="round" stroke-linejoin="round"/>
<path d="M5.02246 15H6.52246" stroke="#101212" stroke-width="2" stroke-linecap="round" stroke-linejoin="round"/>
</svg>
