<svg width="20" height="20" viewBox="0 0 20 20" fill="none" xmlns="http://www.w3.org/2000/svg">
<path d="M1 3.45453V6.72726C1 8.08298 3.19764 9.1818 5.90909 9.1818C8.62055 9.1818 10.8182 8.08298 10.8182 6.72726V3.45453" stroke="#101212" stroke-width="2" stroke-linecap="round" stroke-linejoin="round"/>
<path d="M1 6.72729V10C1 11.3557 3.19764 12.4546 5.90909 12.4546C7.16664 12.4546 8.31291 12.2173 9.18182 11.8287" stroke="#101212" stroke-width="2" stroke-linecap="round" stroke-linejoin="round"/>
<path d="M1 10V13.2727C1 14.6285 3.19764 15.7273 5.90909 15.7273C7.16664 15.7273 8.31373 15.4908 9.18182 15.1022" stroke="#101212" stroke-width="2" stroke-linecap="round" stroke-linejoin="round"/>
<path d="M5.90909 5.90909C8.62031 5.90909 10.8182 4.81015 10.8182 3.45455C10.8182 2.09894 8.62031 1 5.90909 1C3.19787 1 1 2.09894 1 3.45455C1 4.81015 3.19787 5.90909 5.90909 5.90909Z" stroke="#101212" stroke-width="2" stroke-linecap="round" stroke-linejoin="round"/>
<path d="M9.18164 10V13.2727C9.18164 14.6285 11.3793 15.7273 14.0907 15.7273C16.8022 15.7273 18.9998 14.6285 18.9998 13.2727V10" stroke="#101212" stroke-width="2" stroke-linecap="round" stroke-linejoin="round"/>
<path d="M9.18164 13.2727V16.5454C9.18164 17.9012 11.3793 19 14.0907 19C16.8022 19 18.9998 17.9012 18.9998 16.5454V13.2727" stroke="#101212" stroke-width="2" stroke-linecap="round" stroke-linejoin="round"/>
<path d="M14.0907 12.4546C16.8019 12.4546 18.9998 11.3556 18.9998 10C18.9998 8.64441 16.8019 7.54547 14.0907 7.54547C11.3795 7.54547 9.18164 8.64441 9.18164 10C9.18164 11.3556 11.3795 12.4546 14.0907 12.4546Z" stroke="#101212" stroke-width="2" stroke-linecap="round" stroke-linejoin="round"/>
</svg>
