<svg width="20" height="20" viewBox="0 0 20 20" fill="none" xmlns="http://www.w3.org/2000/svg">
<path d="M14.1668 13.3333C11.7077 13.3333 9.66433 12.8008 8.3335 11.9067C8.3335 12.5283 8.3335 12.9383 8.3335 13.3333C8.3335 14.7142 10.9452 15.8333 14.1668 15.8333C17.3885 15.8333 20.0002 14.7142 20.0002 13.3333C20.0002 12.9383 20.0002 12.5283 20.0002 11.9067C18.6693 12.8008 16.626 13.3333 14.1668 13.3333Z" fill="#101212"/>
<path d="M14.1668 17.5C11.7077 17.5 9.66433 16.9675 8.3335 16.0733C8.3335 16.695 8.3335 17.105 8.3335 17.5C8.3335 18.8808 10.9452 20 14.1668 20C17.3885 20 20.0002 18.8808 20.0002 17.5C20.0002 17.105 20.0002 16.695 20.0002 16.0733C18.6693 16.9675 16.626 17.5 14.1668 17.5Z" fill="#101212"/>
<path d="M14.1668 11.6667C17.3885 11.6667 20.0002 10.5474 20.0002 9.16666C20.0002 7.78594 17.3885 6.66666 14.1668 6.66666C10.9452 6.66666 8.3335 7.78594 8.3335 9.16666C8.3335 10.5474 10.9452 11.6667 14.1668 11.6667Z" fill="#101212"/>
<path d="M5.83333 5C9.05499 5 11.6667 3.88071 11.6667 2.5C11.6667 1.11929 9.05499 0 5.83333 0C2.61167 0 0 1.11929 0 2.5C0 3.88071 2.61167 5 5.83333 5Z" fill="#101212"/>
<path d="M6.66667 14.9775C6.39417 14.9908 6.1175 15 5.83333 15C3.37417 15 1.33083 14.4675 0 13.5733C0 14.195 0 14.605 0 15C0 16.3808 2.61167 17.5 5.83333 17.5C6.11667 17.5 6.39417 17.4883 6.66667 17.4717V14.9775Z" fill="#101212"/>
<path d="M6.66667 10.8108C6.39417 10.8242 6.1175 10.8333 5.83333 10.8333C3.37417 10.8333 1.33083 10.3008 0 9.40668C0 10.0283 0 10.4383 0 10.8333C0 12.2142 2.61167 13.3333 5.83333 13.3333C6.11667 13.3333 6.39417 13.3217 6.66667 13.305V10.8108Z" fill="#101212"/>
<path d="M8.26667 6.47166C7.515 6.59666 6.70167 6.66666 5.83333 6.66666C3.37417 6.66666 1.33083 6.13416 0 5.23999C0 5.86166 0 6.27166 0 6.66666C0 8.04749 2.61167 9.16666 5.83333 9.16666C6.1175 9.16666 6.395 9.15499 6.66917 9.13832C6.67917 8.08582 7.25833 7.17166 8.26667 6.47166Z" fill="#101212"/>
</svg>
