<svg width="24" height="24" viewBox="0 0 24 24" fill="none" xmlns="http://www.w3.org/2000/svg">
<path d="M15 16.6904L14.8048 17.381C14.1426 17.6063 11.8485 18.5513 10.5254 17.5457C10.1311 17.2466 9.93397 16.8666 9.93397 16.4062C9.93397 15.5432 10.2632 14.7909 10.8539 12.9845C10.9579 12.6435 11.0855 12.2002 11.0855 11.8488C11.0855 11.243 10.8195 11.0817 10.0967 11.0817C9.74386 11.0817 9.35343 11.1901 9 11.3042L9.19585 10.6135C9.98373 10.3371 10.9732 10 11.8211 10C13.0925 10 14.0271 10.5474 14.0271 11.5883C14.0271 11.8885 13.9671 12.4139 13.8408 12.7774L13.1097 15.0101C12.9592 15.4617 12.6848 16.4563 13.1085 16.7515C13.5263 17.0429 14.5132 16.8886 15 16.6904Z" fill="#101212"/>
<path d="M13.5 9C14.3284 9 15 8.32843 15 7.5C15 6.67157 14.3284 6 13.5 6C12.6716 6 12 6.67157 12 7.5C12 8.32843 12.6716 9 13.5 9Z" fill="#101212"/>
</svg>
