<svg width="20" height="20" viewBox="0 0 20 20" fill="none" xmlns="http://www.w3.org/2000/svg">
<g clip-path="url(#clip0_803_343)">
<path d="M10 0C8.02219 0 6.08879 0.58649 4.4443 1.6853C2.79981 2.78412 1.51809 4.3459 0.761209 6.17316C0.00433286 8.00042 -0.1937 10.0111 0.192152 11.9509C0.578004 13.8907 1.53041 15.6725 2.92894 17.0711C4.32746 18.4696 6.10929 19.422 8.0491 19.8078C9.98891 20.1937 11.9996 19.9957 13.8268 19.2388C15.6541 18.4819 17.2159 17.2002 18.3147 15.5557C19.4135 13.9112 20 11.9778 20 10C19.9971 7.34871 18.9426 4.80684 17.0679 2.9321C15.1932 1.05736 12.6513 0.00286757 10 0V0ZM10 18.3333C8.8927 18.3339 7.79647 18.113 6.77579 17.6837C5.75512 17.2544 4.83061 16.6252 4.05667 15.8333L5.26917 14.815C5.39225 14.7115 5.48276 14.5746 5.52978 14.4208C5.5768 14.2671 5.57833 14.103 5.53417 13.9483L4.95084 11.8883C4.9142 11.7612 4.84827 11.6445 4.75834 11.5475L3.72834 10.4467L3.5725 10.1808L4.10584 9.725L6.17834 8.67666C6.29736 8.61648 6.4002 8.52861 6.47822 8.42043C6.55623 8.31226 6.60714 8.18694 6.62667 8.055L6.96 5.77167C6.97866 5.64853 6.96948 5.52278 6.93314 5.40366C6.8968 5.28454 6.83422 5.17508 6.75 5.08333L5.37584 3.61667C5.35159 3.59005 5.32541 3.56526 5.2975 3.5425L5.0325 3.325C6.37045 2.32452 7.97992 1.75249 9.64917 1.68417L10.0225 2.305L10.5108 3.7325C10.5623 3.88122 10.6544 4.01256 10.7767 4.11167L12.68 5.6425C12.8281 5.76168 13.0124 5.82666 13.2025 5.82667C13.2354 5.8268 13.2682 5.82485 13.3008 5.82083L15.8008 5.52417C15.9107 5.51086 16.0169 5.47603 16.1133 5.42167L16.7117 5.08167C17.6253 6.32145 18.1767 7.79054 18.3046 9.32526C18.4324 10.86 18.1317 12.4001 17.4359 13.7739C16.74 15.1478 15.6764 16.3015 14.3635 17.1065C13.0506 17.9116 11.54 18.3363 10 18.3333Z" fill="#101212"/>
<path d="M16.5779 10.3675L15.6321 8.5525C15.5769 8.44655 15.4996 8.35369 15.4055 8.28022C15.3113 8.20675 15.2024 8.15438 15.0862 8.12666L13.1221 7.65666C12.9663 7.61938 12.803 7.62806 12.6521 7.68167L10.7962 8.33333C10.6485 8.3849 10.5182 8.47702 10.4204 8.59916L9.3054 10.2433C9.18654 10.4834 9.16475 10.7601 9.24457 11.0158L9.92124 12.7342L9.50457 14.1667C9.47547 14.2881 9.47445 14.4146 9.5016 14.5364C9.52875 14.6583 9.58335 14.7724 9.66124 14.87L10.2087 16.3158C10.2869 16.4107 10.3852 16.4871 10.4964 16.5396C10.6076 16.592 10.7291 16.6192 10.8521 16.6192H10.9054L12.8546 16.4942C13.0468 16.4817 13.2288 16.4031 13.3696 16.2717L14.8379 14.9042C14.9202 14.8279 14.9862 14.7358 15.0321 14.6333L16.6004 11.0917C16.6514 10.977 16.6759 10.8524 16.672 10.727C16.6681 10.6016 16.6359 10.4787 16.5779 10.3675Z" fill="#101212"/>
</g>
<defs>
<clipPath id="clip0_803_343">
<rect width="20" height="20" fill="white"/>
</clipPath>
</defs>
</svg>
