<svg width="20" height="20" viewBox="0 0 20 20" fill="none" xmlns="http://www.w3.org/2000/svg">
<g clip-path="url(#clip0_267_657)">
<path fill-rule="evenodd" clip-rule="evenodd" d="M4.5 8C2.84315 8 1.5 9.34315 1.5 11V17C1.5 18.6569 2.84315 20 4.5 20H15.5C17.1569 20 18.5 18.6569 18.5 17V11C18.5 9.34315 17.1569 8 15.5 8H4.5ZM9.25 14C9.25 13.5858 9.58579 13.25 10 13.25C10.4142 13.25 10.75 13.5858 10.75 14C10.75 14.4142 10.4142 14.75 10 14.75C9.58579 14.75 9.25 14.4142 9.25 14ZM10 11.25C8.48122 11.25 7.25 12.4812 7.25 14C7.25 15.5188 8.48122 16.75 10 16.75C11.5188 16.75 12.75 15.5188 12.75 14C12.75 12.4812 11.5188 11.25 10 11.25Z" fill="#101212"/>
<path fill-rule="evenodd" clip-rule="evenodd" d="M10.0048 0.000204848H10.0906C11.4194 0.0143955 12.6794 0.57808 13.5964 1.55282C14.511 2.52499 15.0114 3.827 14.9998 5.17149V6.00021C14.9998 6.55249 14.5521 7.00021 13.9998 7.00021C13.4475 7.00021 12.9998 6.55249 12.9998 6.00021V5.15732C13.0078 4.31562 12.6942 3.51262 12.1397 2.92324C11.5877 2.33651 10.844 2.00978 10.0742 2.0002H9.98954C9.21801 1.99221 8.46657 2.3032 7.90265 2.87888C7.33841 3.4549 7.00943 4.24881 7 5.08879V6.00021C7 6.55249 6.55228 7.00021 6 7.00021C5.44772 7.00021 5 6.55249 5 6.00021V5.0737C5.01325 3.72744 5.53901 2.43375 6.47392 1.47934C7.4089 0.52486 8.67793 -0.0120366 10.0048 0.000204848Z" fill="#101212"/>
</g>
<defs>
<clipPath id="clip0_267_657">
<rect width="20" height="20" fill="white"/>
</clipPath>
</defs>
</svg>
